<?xml version="1.0" encoding="utf-8"?>
<!-- Generator: Adobe Illustrator 21.0.2, SVG Export Plug-In . SVG Version: 6.00 Build 0)  -->
<svg version="1.1" id="棰璁惧惧" xmlns="http://www.w3.org/2000/svg" xmlns:xlink="http://www.w3.org/1999/xlink" x="0px"
	 y="0px" viewBox="0 0 680.8 269.8" style="enable-background:new 0 0 680.8 269.8;" xml:space="preserve">
<style type="text/css">
	.st0{fill:none;stroke:#000000;stroke-width:0.5587;stroke-linecap:round;stroke-linejoin:round;}
</style>
<g>
	<path class="st0" d="M333.5,205.9c-27,10.4-49.7,26.4-68.1,47.9"/>
	<path class="st0" d="M234.8,144.4c-1.6,2.1-1.2,3.6-0.7,4.7c0.6,1.3,1.5,1.9,2.9,2c1.3,0,3.1-0.5,6.1-1.5"/>
	<path class="st0" d="M234.2,149.3c4.5-4.1,12-8.1,19.8-9.2"/>
	<path class="st0" d="M261.5,78.7c-2.6-19.8,0.1-28.4,2.1-33.9c2.1-5.8,3.2-8.1,4.4-9.3c1.2-1.2,2.4-1.3,3.5-0.6s2,1.9,2.4,2.8
		c0.4,0.8,0.2,1.1-0.5,1.9c-0.7,0.8-2,2-2.5,2.8c-0.5,0.7-0.2,1,0.6,1.1c0.7,0.1,1.9,0.1,2.5,0.3c0.6,0.2,0.5,0.5,0.4,0.7
		c-0.1,0.3-0.3,0.4-0.3,0.8c0,0.4,0.1,1,0.6,1.3c0.4,0.4,1.2,0.5,1.5,0.8c0.3,0.3,0.1,0.9,0.8,1.5c0.7,0.6,2.2,1.3,2.9,1.9
		c0.7,0.5,0.5,0.9-0.6,1.5c-1.1,0.6-3.1,1.5-4.7,2.3c-1.6,0.8-2.7,1.7-3.1,2.5c-0.4,0.8-0.1,1.6,0.8,2c0.9,0.4,2.4,0.3,3.1,0.4
		c0.7,0.1,0.7,0.4-0.2,1c-0.9,0.6-2.7,1.4-4.1,2.6c-1.4,1.2-2.5,2.9-2.9,3.9c-0.4,1-0.2,1.4,0.8,0.8c1-0.6,2.9-2,3.9-2.8
		c1-0.7,1.2-0.7,1.1-0.3c-0.1,0.4-0.4,1.3-0.5,1.8c-0.1,0.4,0.1,0.4,0.6,0.3c0.4-0.2,1.2-0.6,1.5-0.4c0.4,0.1,0.4,0.8,0.3,1.3
		c-0.1,0.6-0.4,1-0.3,1.3c0.2,0.3,0.9,0.4,1.3,0.6c0.4,0.3,0.4,0.7,0.1,1.6c-0.2,0.7-0.6,1.6-0.5,2.5"/>
	<path class="st0" d="M256.1,67.2c-0.3-14.2,1.4-19,2.4-22.1c1.1-3.4,1.4-4.6,1.5-5.9c0.1-1.2,0.1-2.5-0.2-3.3
		c-0.2-0.8-0.7-1.2-0.3-1.5c0.4-0.3,1.6-0.6,2.3-1c0.7-0.4,0.8-1,0.9-1.5c0-0.6-0.1-1.1-1.1-1.7c-1-0.6-2.8-1.1-3.2-1.5
		c-0.4-0.4,0.6-0.5,2.3-0.4c1.8,0.1,4.3,0.5,5.7,0.5c1.5,0.1,1.8-0.2,2-0.5c0.2-0.3,0.2-0.7-0.1-1.1s-0.8-0.7-0.5-1
		c0.3-0.2,1.3-0.3,3.1,0.4c1.7,0.7,4.1,2.1,7.9,6.3c3.2,3.6,7.5,9.4,9.8,14.5"/>
	<path class="st0" d="M266.1,98.3c-5.4-5.5-7.3-9.1-9.2-12.3c-2.1-3.6-4.3-6.5-6.4-10.6c-2.2-4.1-4.3-9.5-6-13.2
		c-1.7-3.8-2.9-6-4.2-10.9c-1-3.5-2-8.2-1.6-12.5"/>
	<path class="st0" d="M242.8,58.4c0.2-2.3,0.3-3.9,0.1-4.9"/>
	<path class="st0" d="M246.4,66.4c-3.5-2.7-7.1-6.8-10.7-12.3"/>
	<path class="st0" d="M251.3,76.8c0.4-1.9,0.4-4.2,0.1-6.9"/>
	<path class="st0" d="M254.3,81.8c-5.2-1.5-9.8-6.5-14.8-11.8"/>
	<path class="st0" d="M257.2,86.5c-0.2-1.5-0.6-3.2-1.1-5.1"/>
	<path class="st0" d="M244,86.3c-4.1-6.3-4.9-7.9-5-8.7c-0.2-0.8,0.3-0.8,0.9-0.4c0.6,0.3,1.5,0.8,1.9,1.1c0.5,0.2,0.5,0.1-0.1-0.9
		c-0.6-1-2-2.9-3.3-5.2s-2.5-4.9-2.9-6.2c-0.4-1.3,0-1.2,0.6-1.1c0.6,0.1,1.3,0.3,1.7,0.2c0.4,0,0.4-0.3-0.5-1.7s-2.5-4.1-3.4-6.9
		c-1-2.8-1.3-5.8-1.3-7.3c0-1.5,0.3-1.7,0.7-1.4c0.4,0.2,1,0.8,1.4,1.1c0.3,0.2,0.4,0.2,0.2-1.9c-0.2-2-0.8-5.9-0.5-9.3
		c0.3-3.3,1.3-6.1,1.9-7.4c0.6-1.3,0.9-1.1,1.2,0.9c0.3,1.9,0.7,5.6,1.3,8.4c0.6,2.8,1.5,4.8,2,5.9c0.6,1,0.9,1,1.2,0.5
		c0.3-0.5,0.4-1.5,0.6-2c0.1-0.5,0.2-0.5,0.8,1.1c0.5,1.6,1.5,4.9,2.4,8c0.9,3.1,1.7,6.2,2.2,7.7c0.5,1.5,0.7,1.5,0.9,0.5
		c0.2-0.9,0.4-2.7,0.6-3.7c0.2-1,0.3-1.1,0.7-0.1c0.4,1,1.2,3.2,2,5.5s1.5,4.6,2.1,5.8c0.5,1.2,0.8,1.2,1,0.6
		c0.1-0.6,0.1-1.8,0.3-2.2c0.2-0.4,0.5,0,1.5,1.4c1,1.4,2.5,3.7,3.4,6c0.9,2.3,1.1,4.6,1.4,5.7c0.3,1.1,0.5,1.1,0.8,0.9
		c0.3-0.3,0.5-0.8,0.8-0.7c0.3,0.1,0.5,0.9,2.3,3.9"/>
	<path class="st0" d="M284.5,102.8c0.5-3.8,1.1-5,1.1-6.4c0-1.5-0.6-3.1-1.5-4.4c-0.9-1.3-2.2-2.3-3.6-2.8c-1.4-0.6-3-0.7-4.6-1.1
		c-1.6-0.4-3.2-1-4.9-1.8c-1.7-0.8-3.6-1.7-4.5-2c-0.9-0.3-0.8-0.1-0.6,0.5c0.2,0.5,0.4,1.3,0.5,2.5c0.1,1.2,0.2,2.8-0.1,4.8
		c-0.2,1.7-0.6,3.6,0.1,6.1"/>
	<path class="st0" d="M248.4,106.4c0.2,2.3-0.2,3.7-0.7,4.8c-0.5,1.1-1,1.7-1.7,2c-0.7,0.3-1.5,0.5-2.6,0.4c-0.8,0-1.7-0.2-2.4-0.7"
		/>
	<path class="st0" d="M254.4,118.1c-3.7-3.5-5.8-4.8-7.6-5.4"/>
	<path class="st0" d="M261.3,114.3c-4.6-2.3-8.8-3.4-13.2-4.2"/>
	<path class="st0" d="M257.5,107.7c-2.9,0.8-5.9,1.5-9.2,2"/>
	<path class="st0" d="M242.3,110.7c0-0.2,0-0.3,0-0.5c0-0.9-0.2-1.9-0.9-3c-0.7-1-2-2.1-3.3-3c-1.3-0.9-2.7-1.5-3.8-1.6
		s-1.8,0.5-2.2,1.3c-0.4,0.8-0.4,1.9-0.1,3.2s0.8,2.7,1.6,3.9c0.8,1.2,1.7,2.1,2.7,2.5c1,0.4,2,0.3,3,0.1c1-0.2,1.9-0.7,2.4-1.3
		c0.3-0.3,0.5-0.8,0.6-1.2"/>
	<path class="st0" d="M243,111.1c0.1,0,0.3,0,0.4-0.1c0.9-0.2,1.2-0.8,1.5-1.2"/>
	<path class="st0" d="M246.6,104.9c-0.2-0.6-0.3-1.2-0.5-1.7c-0.4-1.3-0.8-2.2-1.7-3.4c-0.9-1.3-2.3-2.9-3.7-3.5
		c-1.4-0.6-2.8-0.1-3.7,0.3c-1,0.4-1.5,0.8-2,1.5c-0.5,0.7-0.8,1.8-0.7,3.2c0.1,1.4,0.8,3.2,1.7,4.9c0.8,1.4,1.8,2.7,2.9,3.6"/>
	<path class="st0" d="M245.2,109.4c0.1-0.1,0.3-0.2,0.4-0.2c0.3-0.1,0.8-0.1,1.1-0.3c0.3-0.2,0.4-0.5,0.4-1.1"/>
	<path class="st0" d="M247.4,107c0.2-0.1,0.4-0.2,0.7-0.3c0.7-0.4,1.2-0.8,1.5-1.6c0.3-0.8,0.3-1.9,0.3-2.9
		c-0.1-1.1-0.2-2.1-0.7-3.2c-0.5-1.1-1.3-2.1-2.1-2.8c-0.8-0.7-1.5-1-2.3-0.8c-0.8,0.2-1.6,1-2.1,2c-0.5,1-0.7,2.1-0.5,3.7
		c0.2,1.6,0.8,3.6,1.5,4.7c0.7,1.2,1.4,1.5,2.2,1.5c0.3,0,0.7,0,1-0.1"/>
	<path class="st0" d="M245.2,110.3c0.1,0.1,0.2-0.1,0.2-0.2c0-0.1,0-0.2,0-0.4c-1.1-2.8-2.4-4.4-3.3-5.2c-0.9-0.8-1.3-0.9-1.5-0.7
		c-0.2,0.2-0.3,0.6,0.5,1.6C241.8,106.4,243.4,108.1,245.2,110.3z"/>
	<path class="st0" d="M242.8,111.3c0.2,0,0.3-0.4,0.1-0.4c-2.2-0.7-3.6-1-4.4-1.1c-0.8-0.1-1.1,0-1.2,0.3s0.1,0.5,0.8,0.7
		C238.7,110.9,239.8,111,242.8,111.3z"/>
	<path class="st0" d="M247.1,107.7c-0.2-0.1-0.4-1.3-0.5-2.3c0-1,0.2-1.9,0.3-2.3c0.1-0.4,0.3-0.3,0.4,0.2c0.1,0.5,0.2,1.4,0.2,2.4
		C247.5,106.8,247.3,107.8,247.1,107.7z"/>
	<path class="st0" d="M262.8,100.9c-0.6-4-1.8-5.8-2.8-7.1c-1.2-1.5-2.1-2.4-2.6-2.5c-0.5-0.2-0.4,0.3-0.5,0.5
		c-0.1,0.2-0.4,0-0.8-0.4c-0.4-0.4-1-1.1-1.2-1.2c-0.3-0.1-0.3,0.3-0.2,0.9c0.1,0.6,0.1,1.5,0.1,1.9c-0.1,0.4-0.3,0.4-0.7-0.4
		c-0.5-0.8-1.2-2.3-1.8-3.1c-0.5-0.8-0.8-0.8-0.8-0.4c-0.1,0.4,0.1,1.2,0,1.5c0,0.3-0.2,0.2-0.7-0.7c-0.5-0.8-1.4-2.4-1.8-3.2
		c-0.5-0.8-0.6-0.8-0.7-0.4c-0.1,0.4-0.1,1.1-0.3,1.4c-0.2,0.3-0.4,0.1-1-0.8c-0.6-0.8-1.6-2.3-2.2-2.9c-0.5-0.6-0.7-0.4-0.7,0.2
		c0,0.6,0.1,1.7,0,2.3c-0.1,0.6-0.4,0.7-1.4,0.4c-1-0.3-2.8-0.9-3.7-1c-0.9-0.2-0.9,0.1-0.6,0.9s0.9,2.2,1.1,3.1
		c0.2,0.9,0.1,1.3-0.4,1.6c-0.5,0.3-1.4,0.6-1.8,0.8c-0.4,0.2-0.3,0.4,0.3,0.5s1.5,0.4,2,0.6c0.5,0.2,0.4,0.4,0,1.2
		c-0.3,0.4-0.6,1.1-0.8,1.6"/>
	<path class="st0" d="M234.7,112.6c-0.5,0.1-1,0.3-1.3,0.4c-0.8,0.4-0.6,0.9-0.1,1.3c0.5,0.4,1.1,0.7,1.4,0.9c0.2,0.2,0,0.3-1.8,0.8
		c-1.8,0.5-5.1,1.5-7.4,2.4c-2.3,1-3.7,2-4.3,2.6c-0.5,0.6-0.2,0.7,0.4,0.8c0.6,0,1.5-0.1,2.1-0.1c0.5,0,0.7,0.2-0.6,1.7
		c-1.3,1.5-4.1,4.2-6.2,6.5c-2,2.3-3.3,4.2-3.8,5.3c-0.5,1.1-0.1,1.3,0.4,1.1c0.6-0.2,1.3-0.7,1.9-0.9c0.5-0.2,0.8-0.1,0.1,0.9
		c-0.6,1-2.2,2.8-3.2,4.8c-1,2-1.5,4.2-1.6,5.4c-0.1,1.2,0.1,1.3,0.5,1.1c0.4-0.2,1-0.7,1.5-0.9c0.4-0.1,0.7,0.1,0.2,1.7
		c-0.6,1.6-1.9,4.5-2.5,7.6c-0.6,3.1-0.3,6.4,0,8s0.7,1.6,1.2,1.1c0.5-0.5,1-1.5,2.2-3.6c1.2-2.1,3.1-5.2,4.8-7.3
		c1.8-2.1,3.4-3.2,4.3-3.7c0.9-0.4,1-0.2,0.8,0.5c-0.1,0.7-0.5,1.8-0.5,2c0,0.3,0.3-0.2,1.6-1.7c1.3-1.5,3.6-4.1,11.6-7.8
		c0.5-0.3,0.9-0.8,1.6-0.8c1.7-0.1,2.1,0.9,2.4,1.4c0.3,0.5,0.6,0.3,1.1-0.1c0.5-0.4,1.1-1.2,2.4-2.9c1.3-1.7,3.1-4.4,4.2-5.7
		c1-1.3,1.2-1.2,1.3-0.6c0.1,0.6,0.1,1.7,0.4,2.1c0.2,0.4,0.7,0.1,1.4-0.6c0.8-0.7,1.9-1.8,3-3.2c1-1.1,2.1-2.4,3-5.1"/>
	<path class="st0" d="M255.6,105.3c-2.1,0.2-4.1,0.2-6.1,0"/>
	<path class="st0" d="M252.3,101.5c-0.8,0.1-1.6,0.1-2.5,0.1"/>
	
		<ellipse transform="matrix(0.8517 -0.5241 0.5241 0.8517 -15.9491 144.5371)" class="st0" cx="247.4" cy="100.4" rx="0.7" ry="0.7"/>
	
		<ellipse transform="matrix(0.8716 -0.4903 0.4903 0.8716 -23.4586 129.4582)" class="st0" cx="235.4" cy="109.5" rx="0.9" ry="0.9"/>
	<ellipse transform="matrix(0.9728 -0.2316 0.2316 0.9728 -17.1619 58.1253)" class="st0" cx="239" cy="102.1" rx="1.1" ry="1.1"/>
	<path class="st0" d="M263.1,114.5c-4.9-6-13.9-17.1-24.6-28.7"/>
	<path class="st0" d="M260.5,111.3c-2.6,0.1-4.8,0.1-6.6,0.1"/>
	<path class="st0" d="M259.5,110.1c0.8-3.6,0.5-9.5-1.6-18.5"/>
	<path class="st0" d="M255.4,105.2c0.3-3.1,0.3-7.9,0.1-14.5"/>
	<path class="st0" d="M251.4,100.4c0.4-2.5,0.5-6.3,0.5-11.4"/>
	<path class="st0" d="M247.9,96.3c0.5-2.3,0.6-5.4,0.3-10.1"/>
	<path class="st0" d="M244.9,92.9c-2.2,0-4.8-0.2-7.9-0.6"/>
	<path class="st0" d="M245.1,93.1c0.7-1.7,0.9-4,0.5-7.9"/>
	<path class="st0" d="M306,83.1c0.3-1.6,0.5-3.6,0.5-6.2"/>
	<path class="st0" d="M351.8,49.2c0-1,0.3-2.1,0.7-3.2"/>
	<path class="st0" d="M350.8,49.6c1.8,1.1,3.3,1.7,4.6,1.9"/>
	<path class="st0" d="M347.4,51c-0.1-1.6,0.2-3.1,0.9-4.4"/>
	<path class="st0" d="M342.5,53.3c-0.1-2.5,0.2-4.7,0.7-6.6"/>
	<path class="st0" d="M344.4,52.3c2.1,0.9,4.5,1.8,7.2,2.4"/>
	<path class="st0" d="M338.4,55.5c0-2.8,0.2-4.9,0.8-6.3"/>
	<path class="st0" d="M336.1,56.9c3.2,2.7,5,3.7,6.2,3.7"/>
	<path class="st0" d="M334.1,58.3c-0.1-2.9,0.1-5.3,0.8-7.1"/>
	<path class="st0" d="M326.9,64.3c2.1,0.8,4.8,1.4,8.1,1.8"/>
	<path class="st0" d="M311.3,83.6c1.9,0.5,3.5,0.5,5.1,0.1"/>
	<path class="st0" d="M312.2,82.7c-0.3-2.6-0.4-5.9-0.1-9.7"/>
	<path class="st0" d="M315.6,78.5c1.2,1.1,2.5,1.6,4,1.5"/>
	<path class="st0" d="M316.9,76.7c-0.4-2.8-0.5-6-0.2-9.6"/>
	<path class="st0" d="M319.8,72.8c1.4,1.1,3.4,1.7,6,1.7"/>
	<path class="st0" d="M320.6,71.7c-0.2-3-0.2-6,0.1-9"/>
	<path class="st0" d="M323,68.6c2.4,0.7,4.8,1.1,7.1,1.4"/>
	<path class="st0" d="M325,66.3c-0.5-3.1-0.4-5.6,0.1-7.5"/>
	<path class="st0" d="M329,62.3c-0.4-2.4-0.2-5.2,0.5-8.3"/>
	<path class="st0" d="M305.8,88.2c7.8-4.8,12.6-14.9,19.9-22.7c7.4-7.9,17.4-13.4,31.1-18.1"/>
	<path class="st0" d="M330.3,74.4c0.1,0,0.2,0,0.3,0c1.3-0.1,1.7,0.1,2.1,2.7c0.4,2.7,0.7,7.8,1,11.3c0.3,3.5,0.5,5.3,0.7,6.7
		c0.2,1.4,0.4,2.3,0.8,3.1c0.4,0.8,0.9,1.6,1.2,2.1s0.3,0.9,0.3,1.4c0,0.5-0.1,1.3-0.3,2.1c-0.3,0.8-0.7,1.7-1,2.8
		c-0.2,1.1-0.2,2.4-0.1,3.4c0.1,1,0.3,1.7,0.5,2.2c0.2,0.5,0.5,0.9,0.5,1.4c0,0.5-0.2,1.2-0.7,1.5c-0.5,0.3-1.3,0.3-2.1,0
		s-1.4-0.9-1.7-2.7c-0.3-1.7-0.1-4.6-0.1-6.4c0.1-1.8,0.1-2.6-0.2-3.3c-0.3-0.7-0.8-1.4-0.9-3.2c-0.1-1.8,0.1-4.9,0.1-7
		c0-2.1-0.3-3.3-1-4.4c-0.7-1.1-1.9-2.2-2.9-3.2c-1-1-1.8-1.9-2.3-3.1c-0.2-0.5-0.3-1.1-0.4-1.7"/>
	<path class="st0" d="M337.7,55.9c3.9,0.4,5,1.1,5.6,1.7c0.7,0.7,1,1.3,1.6,1.7c0.6,0.4,1.7,0.6,2.6,0.6c1,0,1.9-0.3,2.6-0.8
		c0.7-0.5,1.2-1.2,0.4-2.6"/>
	<path class="st0" d="M341.3,53.9c2.7,0.9,3.5,1.4,4.5,1.8c1,0.4,2.1,0.6,3.1,0.7s1.7,0.1,2.6,0c0.9-0.2,2.1-0.5,3-1.2
		c0.8-0.6,1.5-1.5,1.6-2.3"/>
	<path class="st0" d="M347.4,51c1.9,0.5,3,1,4.2,1.4c1.2,0.4,2.6,0.5,3.5,0.5c0.9,0,1.4-0.1,1.9-0.4c0.5-0.3,1-0.9,1.3-1.3
		c0.3-0.4,0.3-0.8,0.2-1c-0.1-0.2-0.3-0.3-1.1-0.4c-0.8-0.1-2.1-0.1-3.7-1.3"/>
	<path class="st0" d="M349.8,46.9c1.1-0.9,1.6-1.9,2-2.8c0.5-1.1,0.6-2.1,0.9-2.6c0.3-0.5,0.6-0.5,0.9,0.2c0.3,0.6,0.4,1.9,0.4,3.2
		c0,1.1-0.2,2.2-1.1,4"/>
	<path class="st0" d="M345.4,48.5c1.4-1.4,1.9-3.3,2.2-4.5c0.3-1.6,0.3-2,0.4-2.2c0.1-0.1,0.4,0.1,0.9,1c0.5,0.9,1.1,2.4,0.7,7.3"/>
	<path class="st0" d="M340.6,48.6c1.5-1.5,2.2-3.3,2.6-4.3c0.5-1.2,0.7-1.5,0.9-1.6c0.2,0,0.5,0.2,0.8,1.5c0.3,1.2,0.6,3.2,0.6,7.7"
		/>
	<path class="st0" d="M336.8,49c1.2-1.2,1.6-1.9,1.9-2.6c0.4-0.8,0.7-1.5,1-1.8c0.3-0.3,0.5-0.2,0.7,0.7c0.2,0.9,0.4,2.4,0,9.1"/>
	<path class="st0" d="M331.4,51.9c1.8-1.8,2.5-3,3-4c0.5-1,0.7-1.7,1-2c0.3-0.3,0.6-0.3,1,0.9c0.4,1.1,0.8,3.2,0.1,9.9"/>
	<path class="st0" d="M326.6,54.1c1.2-1.4,1.8-2.5,2.2-3.4c0.4-1,0.6-1.7,0.8-2.1c0.2-0.4,0.4-0.4,0.7-0.1c0.3,0.3,0.6,0.9,1,2.4
		c0.4,1.4,0.8,3.5,0.7,8.9"/>
	<path class="st0" d="M331.9,59.9c4.2,1.7,6,2,7.4,2.1c1.5,0.1,2.6,0.1,3.7,0c1-0.1,2-0.3,2.8-0.7c0.5-0.3,0.9-0.7,1-1.4"/>
	<path class="st0" d="M329.2,62.1c3.5,0.5,5.5,1.4,7,2.1c1.6,0.8,2.6,1.3,3.3,1.4c0.8,0.1,1.4-0.2,2-0.6c0.6-0.4,1.3-0.8,1.4-1.1
		c0.2-0.3-0.2-0.5-0.9-0.8c-0.5-0.2-1.2-0.5-1.8-1"/>
	<path class="st0" d="M326.1,65.1c0.7,1.9,2.8,2.4,4.7,2.6c2.1,0.2,3.9,0,5.4-0.2c1.4-0.2,2.6-0.4,2.9-2"/>
	<path class="st0" d="M320.6,71.6c3.4,1.5,6.5,1.1,8.7,0.5c2.2-0.6,3.4-1.4,4.5-2.3c0.9-0.8,1.6-1.6,1.9-2.4"/>
	<path class="st0" d="M316.8,76.8c4.3,0.5,7.1,0.1,8.9-0.2c1.9-0.3,2.7-0.6,3.3-1c0.6-0.4,1.1-0.7,1.2-1.1c0.1-0.3-0.2-0.6-0.5-1
		c-0.2-0.3-0.5-0.7-0.6-1.3"/>
	<path class="st0" d="M322.2,58.5c0.8-3.4,1.7-5.1,2.4-5.9c0.7-0.9,1.1-0.8,1.4-0.6c0.3,0.2,0.4,0.6,0.6,1.9
		c0.2,1.2,0.4,3.3,0.7,10.2"/>
	<path class="st0" d="M313.3,81.4c3.5,0.3,5.1,0.4,6.5,0.2c1.6-0.2,2.9-0.7,3.8-1.1s1.1-0.9,1.2-1.2c0.2-0.3,0.2-0.6-0.2-0.7
		c-0.4-0.1-1.1-0.1-2-0.4c-0.6-0.2-1.3-0.5-1.8-1.2"/>
	<path class="st0" d="M307.1,87.3c2.5,0.8,5.4,0.3,7.6-0.4c2.4-0.8,4-1.7,5.1-2.3c1.1-0.7,1.7-1.1,1.7-1.6c0-0.4-0.5-0.9-1.3-1.5"/>
	<path class="st0" d="M313.5,65.5c0.6-2.9,1.4-4.1,2-5c0.6-1,0.9-1.7,1.2-2c0.3-0.3,0.5-0.3,0.8,0.3c0.3,0.6,0.6,1.7,1,4
		c0.3,2.1,0.7,5.2,0.3,11.5"/>
	<path class="st0" d="M318.1,60.7c0.7-3.2,1.5-4.1,2.1-4.6c0.7-0.6,0.9-0.7,1.1-0.6c0.2,0,0.2,0.2,0.6,1.7c0.4,1.5,1.1,4.3,1.1,11.5
		"/>
	<path class="st0" d="M309.1,73.5c0.1-4.2,0.5-5.4,0.9-6.5c0.7-1.8,1.4-3.3,1.9-3.9s0.5-0.6,0.8-0.1c0.2,0.4,0.6,1.2,1,3.3
		c0.4,2.1,0.8,5.4,1,13.3"/>
	<path class="st0" d="M302.4,79.1c2-6.8,3.2-8.6,3.9-9.6c0.9-1.1,1.2-1.2,1.5-0.9c0.3,0.3,0.5,1,1,2.8c0.4,1.7,1,4.5,0.9,13.9"/>
	<path class="st0" d="M331.9,74.7c3.3-2.8,4-2.9,4.3-2.9c0.4,0,0.5,0.2,0.4,0.5c0,0.3-0.1,0.9,0,1.1c0,0.3,0.2,0.3,0.8-0.1
		c0.6-0.3,1.8-1,2.4-1.3c0.6-0.3,0.8-0.3,0.8,0c0,0.3-0.1,0.8,0,1.1c0,0.3,0.2,0.3,1-0.1c0.7-0.4,2-1.3,2.8-1.7c0.8-0.4,1-0.3,1,0.2
		c0.1,0.5,0,1.3,0,1.7c0.1,0.4,0.3,0.4,1,0c0.7-0.4,1.7-1.1,2.3-1.5c0.6-0.4,0.8-0.3,0.9,0.1c0,0.5-0.1,1.3,0,1.8
		c0.1,0.4,0.3,0.4,1.4-0.2c1.1-0.6,3-1.9,4.1-2.5c1.1-0.6,1.3-0.5,1.4,0.2c0.1,0.7,0,2,0,2.7s0.1,0.9,0.5,0.8
		c0.4-0.1,1.2-0.6,1.6-0.8c0.4-0.2,0.6-0.2,0.8,0.1c0.3,0.3,0.6,0.8,1,1.1c0.3,0.3,0.6,0.3,1-0.1c0.4-0.4,1-1.1,1.4-1.5
		c0.4-0.4,0.6-0.4,1,0c0.4,0.4,0.9,1.2,1.5,1.6c0.6,0.4,1.3,0.3,3.3-2.7s5.4-8.9,10.6-15.4s12.1-13.7,17.2-18.2
		c5.1-4.5,8.4-6.5,10.4-7.9c2-1.5,2.8-2.5,3.4-3.5c0.7-1,1.3-1.9,1.6-2.3s0.5-0.3,0.5,0.2c0,0.5-0.2,1.5-0.2,2.1
		c0,0.5,0.2,0.6,0.7,0.3c0.5-0.3,1.5-1.1,2.2-1.5c0.8-0.4,1.5-0.3,2.5-0.9c1.1-0.6,2.5-1.7,3.5-2.4c1-0.7,1.5-0.9,1.4-0.5
		c-0.1,0.3-0.7,1.2-1.4,2.3c-0.7,1.1-1.5,2.3-1.9,3.4c-0.4,1.1-0.6,1.9-0.5,2.3c0.1,0.3,0.4,0.2,0.9-0.2c0.6-0.4,1.4-1,2-1.3
		c0.6-0.3,0.8-0.3,0.8-0.1c0,0.2-0.2,0.7-0.1,0.9c0.1,0.2,0.5,0.2,1,0.1c0.5-0.2,1-0.5,1.3-0.5c0.3,0,0.3,0.2,0,1
		c-0.3,0.9-0.9,2.3-1.2,3.4s-0.3,1.7-0.2,2c0.1,0.3,0.4,0.4,0.7,0.3c0.3,0,0.7-0.1,0.9-0.1c0.2,0,0.3,0.3,0.1,1.2
		c-0.2,1-0.6,2.7-0.7,4.4c-0.2,1.7-0.2,3.3,0.3,7.5c0.5,4.2,1.4,10.9,1.5,17c0,5.6-0.7,10.6-2.4,20.5"/>
	<path class="st0" d="M253.5,118.5c0.1,5.2-0.8,10-1.7,13.8"/>
	<path class="st0" d="M246.8,121.8c-9.4-1-15.4,0.4-18.7,3.1"/>
	<path class="st0" d="M246.2,122.1c-0.8,5.3-2,10.4-3.5,15.3"/>
	<path class="st0" d="M236.4,128c-7-0.2-17.3,4.4-19.9,6.9"/>
	<path class="st0" d="M237.6,127.2c0.1,3.5-1.7,9.4-4.4,16"/>
	<path class="st0" d="M225.1,137.6c-3,1-6.7,3.2-11.2,6.5"/>
	<path class="st0" d="M225.4,137.3c-0.3,3.8-1,7.1-2.2,9.9"/>
	<path class="st0" d="M254.4,118c-15,6.9-24,13.3-31.7,22.2c-5.2,6-9.8,13.2-12.5,19"/>
	<path class="st0" d="M252.1,135.6c-2.1,6.5-3.1,11.2-3,13.5"/>
	<path class="st0" d="M246.2,138c0.8,0,1.4,0.3,1.8,0.6c0.8,0.6,1.1,1.5,1.4,2.3c0.2,0.8,0.4,1.4,0.2,2.4c-0.2,1-0.7,2.4-1.4,3.5
		c-0.2,0.3-0.5,0.6-0.7,0.9"/>
	<path class="st0" d="M278.8,109.1c0.3-3.8,0.7-6.8,0.4-9.4c-0.4-2.7-1.6-4.8-3.3-6.7c-1.7-1.9-3.8-3.7-9.7-6.5"/>
	<path class="st0" d="M285.6,95.8c3.7-0.3,6.9-1.9,9-4.1c2.8-2.8,4-6.4,4.2-9.8c0.2-3.4-0.6-6.7-2.2-9c-1.5-2.3-3.8-3.6-6.9-4.2
		s-7-0.4-10,1.7c-3.1,2.1-5.3,6.1-6.1,9.4c-0.8,3.3-0.2,6,2.1,7.9c0.2,0.2,0.4,0.3,0.7,0.5"/>
	<path class="st0" d="M282.1,90.1c1.1,0.1,2.1,0.1,3.1-0.1c3.3-0.5,6.1-2.5,7.4-4.9s1.3-5.2,0.3-7.6c-1-2.4-2.8-4.3-4.8-5
		c-2-0.7-4.1-0.1-5.9,1.5c-1.9,1.5-3.5,4-3.7,6.2c-0.2,2.2,1.1,4.1,3.1,4.9c2,0.8,4.9,0.5,6.4-0.9s1.7-3.9,1-5.5s-2-2.1-3.1-1.7
		c-1.1,0.4-2,1.8-2.2,2.9c-0.1,1.1,0.5,1.8,2.9,0.5"/>
	<path class="st0" d="M287.4,102.5c0.4-3.3,1.8-5,2.4-5.8"/>
	<path class="st0" d="M284.8,102.6c0.3-3.3,1-4.8,2.1-5.8c1.2-1.1,2.6-1.6,3.5-1.8c0.8-0.1,1.1,0.1,1.1,0.6c0.1,0.5-0.1,1.2-0.2,1.8
		c-0.1,0.7-0.2,1.3-0.3,2.3c-0.1,0.9-0.2,2.2-1.6,4"/>
	<path class="st0" d="M298.8,80c2.5-2,4.7-0.8,6,0.6c1.5,1.6,1.5,3.4,1.4,4.6c-0.1,1.2-0.4,1.8-0.4,2.3c0,0.6,0.2,1.1,1.1,1.6
		c0.8,0.5,2.2,0.8,3.3,1.9c1.1,1.1,1.8,2.8,1.8,4.7c0.1,1.9-0.5,3.8-1.6,5.1c-1,1.3-2.5,2-3.9,2c-1.4,0-2.8-0.8-3.9-1
		c-1.1-0.2-1.9,0.2-2.1,1.2c-0.2,0.9,0.1,2.4-1,4.4c-1,1.8-3.1,4-7.5,2.2"/>
	<path class="st0" d="M271.5,124.2c-1.2,2.9-1.9,4.6-2.2,5.8c-0.3,1.4-0.2,2.3,0.3,3.1c0.5,0.8,1.3,1.5,2.7,1.8
		c1.4,0.3,3.3,0.2,4.7-0.1c1.4-0.4,2.2-1.1,2.6-1.8c0.5-0.7,0.6-1.5,0.6-2.7c0.1-1.2,0.1-2.9-0.4-4.6c-0.4-1.1-1-2.2-1.5-2.8"/>
	<path class="st0" d="M250.2,148.6c2.8-4.8,5.7-9.2,9.5-13.3c4.1-4.4,9.1-8.5,9.8-10.8"/>
	<path class="st0" d="M266.5,115.6c-3-1.5-5.6-1.3-7.4-1.1c-2.1,0.3-3,0.8-3.8,1.9c-0.8,1.1-1.4,2.7-1.4,4.4c0,1.7,0.7,3.4,1.6,5.1
		c0.9,1.6,1.9,3.1,4.5,3.3c2.5,0.2,6.6-0.8,11-6.4"/>
	<path class="st0" d="M276.4,109c0.5-3.6,0.2-5.4-0.2-6.6c-0.5-1.4-1.2-2-2.1-2.7s-2-1.5-3.7-1.8c-1.7-0.3-3.9-0.1-5.7,1.1
		c-1.8,1.2-3.2,3.4-3.9,5.2c-0.6,1.8-0.5,3.2,0.9,5.2c1.3,1.7,3.5,4,6.4,5.5"/>
	<path class="st0" d="M279.1,108.9c0.7-2.6,3-4.7,4.7-5.7c2-1.3,3.2-1.1,4.5-0.2c1.3,0.9,2.6,2.4,3.3,3.9c0.7,1.4,0.6,2.7,0,4.2
		c-0.6,1.4-1.6,3.1-8,5.6"/>
	<path class="st0" d="M280.5,123.4c3.7,4.6,6.3,5.1,8.2,4.9c2-0.2,3.3-1.1,4-2.5c0.7-1.4,0.9-3.2,0.8-4.7c-0.1-1.5-0.6-2.7-1.3-3.5
		c-0.7-0.8-1.7-1.3-7-1.8"/>
	<path class="st0" d="M422.8,94.6c-0.5,1.8-1.1,3.5-1.8,4.9"/>
	<path class="st0" d="M421.9,117.7c3.4,7.3,4.5,12.8,5.5,17.4c1,4.9,1.7,9,0.5,17.6"/>
	<path class="st0" d="M431.5,134.6c2.2,2.8,5.1,5,8.7,6.7"/>
	<path class="st0" d="M430.3,140.2c2.9,5.3,3,6.7,3.5,7.6c0.5,1,1.4,1.3,7.4-0.1"/>
	<path class="st0" d="M424.5,124.3c2.5,0.3,5,1.6,7.4,3.9"/>
	<path class="st0" d="M426.9,133.1c1.6,0.4,3.1,1.1,4.6,2.1"/>
	<path class="st0" d="M428.3,141.1c0.7,0.3,1.3,0.6,1.9,0.9"/>
	<path class="st0" d="M427.7,137.2c-1.3,1.3-2.2,2.5-2.9,3.6"/>
	<path class="st0" d="M426,129.1c-1.2,1-2.4,3-3.8,5.8"/>
	<path class="st0" d="M423.2,120.7c-2.1,2.2-3.2,5.9-3.6,9.5"/>
	<path class="st0" d="M406.3,133c3.1-1,5.1-1.1,6.6-0.9c1.5,0.2,2.6,0.8,4.4,1.4c1.3,0.4,3.1,0.9,4.9,0.9"/>
	<path class="st0" d="M406.3,133c1.1-2.8,2.5-4.2,4.5-5c1.5-0.6,3.3-1,6-1"/>
	<path class="st0" d="M415.8,120.3c1.1,3.9,1,5.6,1,6.5c0,1,0.3,1,0.6,0.8c0.3-0.2,0.6-0.7,0.8-0.9s0.3-0.1,0.3,0.6
		c0.1,0.7,0.1,2.1,0.2,2.7c0.1,0.6,0.2,0.6,0.5,0.4c0.2-0.1,0.6-0.3,0.8-0.2c0.2,0,0.3,0.3,0.3,0.7c0,0.5,0,1.2,0.1,1.5
		c0.1,0.3,0.2,0.3,0.4,0.1s0.5-0.6,0.7-0.7c0.2-0.1,0.4-0.1,0.5,0.7c0.1,0.8,0.1,2.2,0.2,2.9c0.1,0.7,0.3,0.8,0.5,0.6
		c0.2-0.1,0.4-0.4,0.5-0.5c0.2,0,0.3,0.2,0.4,0.6c0,0.4-0.1,1,0.1,1.3c0.1,0.3,0.5,0.1,0.8,0.2c0.2,0.1,0.4,0.4,0.4,1.1
		c0,0.7-0.1,1.7,0,2c0.1,0.3,0.5-0.1,0.7,0.2c0.2,0.3,0.2,1.3,0.3,1.8s0.5,0.5,0.7,0.8c0.2,0.3,0.3,1,0.3,1.5s0.1,1.1,0.2,1.2
		c0.2,0.2,0.4-0.1,0.6,0.2c0.2,0.2,0.2,0.9,0.1,2.2c0,1.2-0.2,3-0.1,3.7c0.1,0.6,0.4,0.1,0.8-1.1c0.4-1.2,0.8-3,1-4.1
		c0.2-1.2,0.3-1.8,0.4-2.2c0.1-0.4,0.2-0.6,0.2-0.8c0-0.2,0-0.5-0.1-0.9c0-0.4,0.1-1,0-1.4c0-0.4-0.1-0.5-0.1-0.9
		c0.1-0.4,0.3-1.1,0.4-1.6c0.1-0.5,0.1-0.8,0.2-0.9c0.1-0.1,0.4-0.1,0.6-0.9c0.2-0.8,0.3-2.4,0.3-3.3c0-0.9-0.1-1.2,0.1-1.4
		c0.2-0.1,0.5-0.1,0.7-0.2c0.2-0.1,0.3-0.3,0.1-1.4c-0.2-1.1-0.5-3.1-0.8-4.6c-0.2-1.1-0.3-1.9-0.3-2.9"/>
	<path class="st0" d="M427.9,112.1c1.7-1.6,4.7-3.5,9-5.6"/>
	<path class="st0" d="M431.5,113.9c2.5-2.2,6-4.1,9.9-5.5"/>
	<path class="st0" d="M436.1,115.5c1.6-1.8,4.5-3.5,8.5-5"/>
	<path class="st0" d="M440.4,116.7c0.9-1,2.6-2.2,5.1-3.5"/>
	<path class="st0" d="M441.2,116.9c0.1,1.6,0.4,3.4,1.1,5.4"/>
	<path class="st0" d="M437.3,115.9c0.1,2.1,0.6,4.6,1.7,7.6"/>
	<path class="st0" d="M433.3,114.6c0.1,2.6,0.5,5.4,1.2,8.2"/>
	<path class="st0" d="M430,113.2c-0.2,3.6-0.2,6.8-0.1,9.6"/>
	<path class="st0" d="M425.8,110.7c-0.6,3-0.4,6.7,0.5,11.3"/>
	<path class="st0" d="M424.4,109.8c1-1.1,2-2,3-2.7"/>
	<path class="st0" d="M422.3,116.1c2.1,4.8,2.9,5.4,3.3,5.7c0.5,0.3,0.7,0.3,0.7,0s-0.1-1,0-1.3c0.1-0.3,0.3-0.3,1,0.2
		c0.7,0.5,1.7,1.5,2.3,2c0.6,0.5,0.7,0.4,0.7,0.2c0-0.2-0.1-0.6-0.1-0.8c0-0.2,0.1-0.2,0.3,0.3c0.2,0.5,0.6,1.4,1.1,1.8
		c0.4,0.4,0.9,0.3,1.3-0.1c0.3-0.4,0.5-1.1,0.7-1.4c0.2-0.3,0.3-0.2,0.7,0.1c0.4,0.3,1,0.8,1.4,0.9c0.4,0.1,0.5-0.1,1-0.1
		c0.5,0,1.2,0.2,2.2,0c0.9-0.1,2.1-0.6,2.8-1c0.8-0.4,1.2-0.8,1.7-1.2c0.5-0.5,1.1-1,1.3-1.5c0.2-0.5,0.1-1,0.3-1.4
		c0.2-0.4,0.7-0.7,0.8-0.9c0.1-0.2-0.1-0.5-0.2-0.7c-0.1-0.3,0-0.6,0.2-0.8c0.2-0.3,0.5-0.5,0.6-0.7c0.1-0.2,0-0.5-0.3-0.7
		c-0.2-0.2-0.5-0.4-0.7-0.6c-0.1-0.2-0.1-0.4-0.1-0.6c0.1-0.2,0.3-0.5,0.1-0.7s-0.6-0.4-0.9-0.7c-0.3-0.2-0.5-0.5-0.4-0.8
		c0.1-0.3,0.5-0.6,0.4-0.9c0-0.3-0.5-0.5-0.9-0.7c-0.4-0.2-0.7-0.5-1-0.7c-0.4-0.2-0.8-0.2-1.1-0.4c-0.2-0.1-0.2-0.3-0.4-0.4
		s-0.7-0.1-1-0.3c-0.3-0.1-0.3-0.4-0.6-0.5c-0.3-0.1-1-0.2-1.3-0.3s-0.3-0.3-0.5-0.4c-0.3-0.1-0.8-0.2-0.9-0.4
		c-0.2-0.2,0.1-0.6,0-0.9c0-0.3-0.3-0.5-1-0.6c-0.6-0.1-1.6,0-3.3,0.1"/>
	<path class="st0" d="M252.1,183.8c1.9,4.5,4.1,8.6,6.3,12.3c7.4,12.3,14.3,18.9,24.7,24.5c10.4,5.6,24.1,10.3,32.8,12.4
		c8.7,2.1,12.4,1.7,15.4,1.8c3,0.1,5.2,0.7,8.6,2s8.1,3.1,11.3,3.9c3.2,0.8,4.9,0.6,7.9-0.5c3-1.1,7.4-3,10.3-4.6
		c2.8-1.6,4.1-3,5.1-4s1.9-1.7,4.5-2c2.7-0.3,7.1-0.2,11.5-0.8c4.3-0.5,8.5-1.7,12.8-3.9c4.3-2.2,8.8-5.5,13.6-10.6
		c4.8-5.1,10-12,14.5-22c4.5-10,8.3-23.1,9.6-31.6c1.3-8.5,0-12.5-0.6-17.4c-0.5-4.4-0.5-9.5-5.4-19.9"/>
	<path class="st0" d="M416.9,104.6c3.6,2.4,7.5,5.5,11.5,7.7c4,2.2,8,3.7,17.2,5.5"/>
	<path class="st0" d="M253.1,143.8c4.3,10.5,5.7,15.7,5.8,19.5"/>
	<path class="st0" d="M255.7,161.5c-0.5,0-0.9,0-1.4,0c-1.7,0-3.5-0.2-7.4-1.9"/>
	<path class="st0" d="M245.3,159.7c-2.9,5.9-4.7,14.1-5.7,19.9c-1.2,6.6-1.3,10.1-1.4,16.4c-0.1,5.4-0.1,12.9,3.1,23.9"/>
	<path class="st0" d="M246,159.8c0.2,4.4,1,8.8,2.2,13"/>
	<path class="st0" d="M246.9,152.5c0.5-2,1.5-3,2.2-3.5c0.8-0.5,1.5-0.5,2-0.3c0.5,0.3,0.9,0.8,1,1.2c0.1,0.5,0,0.9-0.3,1.3
		c-0.3,0.4-0.8,0.8-1.5,1.2c-0.6,0.4-1.4,0.8-2.6,0.8"/>
	<path class="st0" d="M247.7,153.6c1.7-0.1,2.5-0.3,3.1-0.3c0.7,0,1.2,0.3,1.5,0.8c0.3,0.5,0.4,1.1,0.4,1.7
		c-0.1,0.5-0.3,0.9-0.7,1.2c-0.4,0.3-1,0.6-1.6,0.5c-0.6-0.1-1.3-0.5-1.9-1.1c-0.6-0.6-1.1-1.4-1.4-2.1"/>
	<path class="st0" d="M246.9,154.3c0.5,2.4,0.6,3.3,0.7,3.9c0,0.6-0.1,0.9-0.3,1.2c-0.3,0.3-0.8,0.5-1.4,0.5c-0.6,0-1.4-0.4-1.8-0.8
		c-0.5-0.5-0.6-1.1-0.5-1.8c0.1-0.7,0.5-1.5,2.8-3.1"/>
	<path class="st0" d="M246.3,152.7c-1.8-0.6-3.4-0.7-4.3-0.6c-0.9,0.1-1.2,0.4-1.4,0.9c-0.2,0.4-0.2,1,0,1.7
		c0.2,0.7,0.5,1.5,0.9,1.9c0.4,0.4,0.8,0.4,1.6-0.1c0.8-0.5,1.8-1.4,3.1-2.5"/>
	<path class="st0" d="M246.8,152.5c0.3-1.6,0.7-2.5,0.8-3.3c0.2-0.8,0.2-1.4-0.1-1.6c-0.3-0.2-0.8-0.1-1.2,0
		c-0.4,0.2-0.7,0.4-1.1,0.5c-0.4,0-0.8-0.2-1.2-0.2c-0.4-0.1-0.7-0.1-0.9,0.2c-0.2,0.3-0.3,0.8-0.2,1.6c0.1,0.8,0.3,1.8,3.4,2.9"/>
	
		<ellipse transform="matrix(0.7894 -0.6139 0.6139 0.7894 -42.1699 183.8831)" class="st0" cx="246.9" cy="153.4" rx="0.9" ry="0.9"/>
	<path class="st0" d="M275.7,120c0.1,1.7,0.3,3.2,0.5,4.6"/>
	<path class="st0" d="M277.4,117.9c1.8,0.3,3.5,0.3,4.9,0.3"/>
	<path class="st0" d="M277.4,115.7c1.9-1.1,3.5-1.8,3.8-1.3"/>
	<path class="st0" d="M276.7,114.6c0.6-1,1.4-1.9,2.4-2.5"/>
	<path class="st0" d="M273.8,114c-0.3-1-0.7-2.2-1.3-3.7"/>
	<path class="st0" d="M276,114.2c0.6-1.7,0.6-3.7,0.5-5c-0.1-1.6-0.5-2.1-0.7-2.4c-0.3-0.2-0.4-0.2-0.8,0.3c-0.3,0.4-0.8,1.2-1,1.6
		c-0.3,0.4-0.4,0.4-0.7,0.1c-0.3-0.3-0.7-0.8-1-1.1c-0.3-0.2-0.5-0.2-0.6,0.2c-0.2,0.4-0.3,1-0.5,1.3c-0.2,0.3-0.4,0.2-0.7-0.1
		s-0.6-0.8-1-1.1c-0.4-0.3-0.8-0.3-1.1,0c-0.3,0.2-0.5,0.7-0.4,1.4c0.1,0.7,0.5,1.7,4.3,5.6"/>
	<path class="st0" d="M276.2,114.3c1.4-3.8,2.1-4.8,2.8-5.3c0.7-0.5,1.4-0.4,1.9-0.1c0.5,0.3,0.7,0.7,0.8,1.2
		c0.1,0.5,0.1,1.2,0.1,1.8c0.1,0.6,0.3,1.1,0.6,1.3c0.4,0.1,0.9-0.1,1.4-0.2c0.5-0.1,1,0,1.1,0.4c0.1,0.4-0.1,1.2-0.5,1.7
		c-0.4,0.6-1,0.9-1.9,1.1c-0.8,0.2-1.9,0.3-4.9,0.3"/>
	<path class="st0" d="M277.6,116.8c3.9-0.6,5.1-0.4,5.9-0.3c0.8,0.2,1.3,0.3,1.6,0.7c0.3,0.4,0.4,0.9,0.3,1.3
		c-0.1,0.4-0.3,0.8-0.6,1c-0.3,0.2-0.8,0.3-1,0.6s-0.3,0.6-0.2,0.9c0.1,0.3,0.4,0.5,0.7,0.8c0.3,0.3,0.6,0.6,0.6,0.9
		c0,0.4-0.4,0.8-0.9,1c-0.5,0.2-1.3,0.2-2.2,0.1c-0.9-0.2-2-0.5-2.8-1.4c-0.8-0.9-1.4-2.2-2.3-3"/>
	<path class="st0" d="M267.4,121.1c0.5,0.6,0.9,1.2,1.3,1.6c0.6,0.6,0.9,0.7,1.3,0.6c0.4-0.1,0.8-0.5,1.1-0.6
		c0.3-0.2,0.5-0.1,0.4,0.3c0,0.5-0.2,1.3-0.1,1.9c0.1,0.6,0.5,1,0.9,1.1c0.4,0,0.8-0.3,1-0.5c0.2-0.3,0.3-0.5,0.5-0.6
		c0.2-0.1,0.6,0,1,0.4c0.4,0.4,0.9,1.2,1.2,1.6c0.4,0.4,0.6,0.3,0.9,0.1c0.3-0.1,0.5-0.3,0.8-0.9c0.3-0.6,0.5-1.6,0.6-2.4
		c0-0.9-0.1-1.6-1.9-4.3"/>
	<path class="st0" d="M274.1,120.3c0.2,1.4-0.1,3.2-0.5,3.7"/>
	<path class="st0" d="M271.3,117.7c-1.6,0.1-2.7,0.6-3.4,0.9c-0.8,0.4-1.3,0.5-1.8,0.7c-0.5,0.2-0.9,0.3-1.3,0.5
		c-0.3,0.3-0.6,0.6-0.7,1c-0.1,0.4,0,0.8,0.3,1.1c0.3,0.2,0.9,0.2,1.3,0c0.4-0.2,0.7-0.5,1.1-0.7c0.4-0.2,1.1-0.2,1.8-0.4
		c0.6-0.2,1.3-0.6,3-1.7"/>
	<path class="st0" d="M271.5,116.4c-2-0.2-2.9-0.5-3.6-0.7c-0.8-0.2-1.4-0.2-1.8-0.1c-0.4,0.2-0.5,0.6-0.4,1.3
		c0.1,0.6,0.2,1.4,0.6,2.2"/>
	<path class="st0" d="M269.2,111.8c-0.1,2.1-0.9,2.9-1.4,3.9"/>
	<path class="st0" d="M351.2,195.6c2.7,2.4,5.4,3.4,7.4,3.8c2,0.5,3.1,0.4,4.5,0.3c1.4,0,3.1,0.1,4.5,0.7c1.4,0.6,2.5,1.6,3.6,2.1
		c1.1,0.4,2.1,0.2,3.7-0.7c1.6-0.9,3.6-2.5,5.7-4.4c2.1-1.9,4.3-4,4.2-5.5"/>
	<path class="st0" d="M338,210.4c4.2,0.3,6.6-0.8,8.6-1.9c2.3-1.3,3.9-2.5,5.2-3.1c1.2-0.6,2.2-0.7,4.2-0.7c2,0,5.1,0.2,7.8,0.2
		c2.3,0,4.3-0.2,7.6-2.2"/>
	<path class="st0" d="M353.3,184.6c-2.4,15-4,18.4-6.3,20.8c-2.3,2.4-5.2,3.8-8.2,4.7s-6,1.3-8,1.5c-2,0.1-2.9,0-4,0.3
		c-1.1,0.3-2.3,1.1-4.5,2c-2.2,0.9-5.3,2.1-11.2,0.2"/>
	<path class="st0" d="M378,178.4c2.7,0.4,4.7-0.7,6.3-1.3c1.6-0.6,2.7-0.7,4.7-0.1c2,0.6,4.8,2,6.6,3.1c1.7,1.1,2.4,2,2.9,3.2
		c0.5,1.2,0.8,2.8,0.9,4.8c0.1,2,0,4.5-2.5,6.3"/>
	<path class="st0" d="M323.6,234.4c0.4-2.8,1.8-3.7,2.9-4.3c1.4-0.7,2.1-0.9,2.8-0.8c0.7,0.1,1.4,0.3,1.9,0.7c0.5,0.4,0.8,1,1.4,1.4
		c0.5,0.4,1.2,0.6,1.9,0.6c0.7,0,1.3-0.2,2.1-0.5c0.7-0.2,1.5-0.5,2.3-1.1c0.8-0.7,1.6-1.8,2.3-2.6s1.1-1.2,1.4-1.6
		c0.3-0.4,0.3-0.6,0.2-1.2c-0.1-0.6-0.4-1.4-0.4-2.1c0.1-0.6,0.5-1,1.2-1.1c0.7-0.1,1.7,0.1,2.3,0.5c0.6,0.4,0.8,1,0.9,1.9
		c0.1,0.9,0.1,2.1,0.3,3.1c0.2,1,0.7,1.7,1.1,2.1c0.4,0.4,0.7,0.4,1,0.2c0.3-0.2,0.6-0.7,0.8-1c0.3-0.3,0.5-0.4,0.9-0.4
		s1,0.2,1.4,0.2c0.4,0,0.5-0.2,0.7-0.6c0.2-0.4,0.4-1.2,0.2-2c-0.1-0.9-0.5-1.9-0.8-3.5c-0.3-1.5-0.4-3.6,0.3-5.2
		c0.6-1.6,1.9-2.6,2.7-3.3c0.7-0.6,0.9-0.8,1.1-0.7s0.4,0.6,0.7,1.2c0.3,0.5,0.7,1.2,1,1.8c0.3,0.6,0.4,1.3,0.2,2.3
		c-0.2,1-0.6,2.4-1,3.3c-0.4,0.9-0.6,1.3-0.7,1.9c-0.1,0.6,0,1.5,0.4,2.4c0.4,1,1,2,1.6,2.6s0.9,0.5,1.4,0.3s0.9-0.8,1.1-1.3
		c0.3-0.6,0.4-1.2,0.3-2s-0.3-1.7-0.3-2.4s0.2-1.2,0.7-1.6c0.5-0.3,1.2-0.4,1.8-0.5s1-0.2,1.2-0.5c0.2-0.3,0.4-0.7,0.6-1.1
		c0.2-0.4,0.5-0.8,0.8-0.9c0.3-0.1,0.7,0.1,1.1,0.8c0.4,0.6,1,1.7,1.3,2.7c0.3,1,0.4,1.9,0.6,2.5c0.2,0.6,0.5,0.9,0.9,1
		c0.4,0.1,0.8,0,1.3-0.5c0.5-0.5,1-1.4,1.5-2.4c0.4-1,0.7-2.1,0.9-2.7c0.2-0.6,0.5-0.5,0.9-0.4c0.4,0.1,0.8,0.4,1.2,0.5
		c0.4,0.1,0.7,0.1,0.9-0.1c0.2-0.2,0.3-0.6,0.4-0.5c0.1,0,0.3,0.5,0.5,1.1c0.2,0.6,0.4,1.5,0.3,2.8c-0.2,1.3-0.8,3-1.4,4.6
		c-0.4,0.9-0.8,1.8-0.9,2.9"/>
	<path class="st0" d="M414.9,139.7c-1.6-0.5-2.5,1.2-3.3,3.6c-0.8,2.4-1.6,5.5-3.4,8.3c-1.8,2.8-4.7,5.4-7.6,7.3
		c-2.9,2-5.8,3.3-9.6,4.4c-3.8,1.1-8.5,2.1-11.4,2.5c-2.9,0.5-4.1,0.5-5,1.3c-1,0.7-1.7,2.2-2,3.6c-0.3,1.5-0.1,2.9,0.4,3.7
		c0.5,0.8,1.3,1,2.5,0.5s2.6-1.4,3.9-2s2.2-0.8,3.9-0.9c1.6,0,3.9,0.1,5.5,0.5c1.5,0.4,2.3,0.9,3.6,1.1c1.2,0.2,3,0.1,4.2-0.2
		c1.2-0.2,2-0.6,3.3-0.7c1.3-0.1,3.3,0.1,5.6,1c2.3,1,5,2.7,6.8,3.6c1.8,0.8,2.6,0.7,3.5,0.1c0.9-0.6,1.9-1.7,2.4-2.7
		c0.5-1,0.5-2-1-3.1c-1.5-1.2-4.4-2.6-6.1-3.5c-1.7-1-2.2-1.5-1.9-2.2c0.3-0.7,1.3-1.5,2.3-2c0.9-0.4,1.7-0.5,2.5-0.9
		c0.8-0.4,1.6-1,2.8-2.7c1.2-1.7,2.8-4.3,3.7-7s0.9-5.3-0.2-7.9C418.7,143,416.5,140.2,414.9,139.7z"/>
	<path class="st0" d="M276.5,114.5c-0.7-0.6-1.9-0.8-2.8-0.5c-1,0.3-1.7,1.1-2.1,2.1c-0.4,1-0.4,2.4,0.2,3.2c0.6,0.8,2,1.1,3,1
		c1-0.1,1.7-0.7,2.2-1.4c0.5-0.7,0.7-1.4,0.6-2.2C277.5,116,277.2,115.1,276.5,114.5z"/>
	<path class="st0" d="M275.5,116.2c-0.3-0.2-0.8-0.3-1.2-0.1c-0.4,0.2-0.8,0.5-0.9,1c-0.2,0.4-0.1,0.9,0.1,1.2
		c0.2,0.3,0.5,0.4,0.9,0.4c0.3,0,0.7-0.2,0.9-0.5c0.3-0.3,0.4-0.6,0.5-1C275.7,116.8,275.7,116.4,275.5,116.2z"/>
	<path class="st0" d="M403.2,138.2c-0.4,3.8,0.1,5.9,0.2,7.6c0.2,1.9-0.1,3-1,4.5c-0.9,1.5-2.5,3.2-4.9,4.8
		c-2.4,1.6-5.5,3.1-8.7,3.7c-3.2,0.6-6.4,0.3-8.6,0.1s-3.1-0.2-4.4,0.4c-1.2,0.5-2.7,1.6-3.8,2.7c-1,1-1.8,2-4,1.6"/>
	
		<ellipse transform="matrix(0.9959 -9.053263e-02 9.053263e-02 0.9959 -7.8842 27.0936)" class="st0" cx="294.7" cy="100.5" rx="0.9" ry="0.9"/>
	<circle class="st0" cx="299.1" cy="98.6" r="0.9"/>
	
		<ellipse transform="matrix(0.9994 -3.567696e-02 3.567696e-02 0.9994 -3.1968 10.8209)" class="st0" cx="301.6" cy="95" rx="0.7" ry="0.7"/>
	<ellipse transform="matrix(0.7974 -0.6034 0.6034 0.7974 6.0471 199.475)" class="st0" cx="300.1" cy="90.7" rx="1.2" ry="1.2"/>
	<path class="st0" d="M296,90.1c2,0.8,2.4,1.2,2.7,1.6c0.3,0.4,0.4,1,0.5,1.8s-0.1,1.9-0.4,2.6c-0.3,0.7-0.7,1-1.4,1.3
		c-0.7,0.3-1.5,0.6-2.3,0.7c-0.8,0.1-1.5,0-2.1-0.5c-0.5-0.5-1-1.2-1.4-3.6"/>
	<ellipse transform="matrix(0.9247 -0.3807 0.3807 0.9247 -13.5418 119.5109)" class="st0" cx="295.3" cy="94" rx="1.6" ry="1.6"/>
	<path class="st0" d="M264.9,158.4c3.4-1.9,4.5-1,5.7,0.5c1.2,1.5,2.4,3.6,3.8,5.9c1.4,2.3,3,4.7,5,6.3c1.9,1.6,4.2,2.5,7.1,2.9
		s6.6,0.6,9.8,1.1c3.2,0.5,5.9,1.5,8.3,1.9c2.5,0.4,4.7,0.3,6.2-0.1c1.4-0.4,2.1-1,2.3-1.7c0.3-0.7,0.2-1.4-0.4-2
		c-0.6-0.6-1.7-1-3.5-1.3c-1.8-0.3-4.2-0.5-6.5-0.4c-2.3,0-4.5,0.3-6.7,0.4c-2.2,0.1-4.4,0-6.3-0.6c-1.9-0.6-3.4-1.6-4.4-2.9
		c-1-1.3-1.6-2.9-1.7-4.4c-0.1-1.5,0.2-2.9,0.9-3.5c0.7-0.7,1.8-0.7,3.7,0.1c1.9,0.8,4.5,2.5,7,4.1c2.5,1.6,5,3.1,7.8,3.9
		c2.8,0.8,6.1,0.9,9.2,0.7c3.1-0.2,6-0.8,8.2-1c2.2-0.2,3.6-0.1,5.2,0.7c1.6,0.8,3.5,2.3,4.1,4.1c0.6,1.8,0,3.9-1.1,5.2
		c-1.2,1.3-2.9,1.7-4.5,2.2c-1.6,0.5-3.2,1.1-4.7,2.4c-1.5,1.3-2.9,3.4-4,4.9c-1,1.4-1.6,2.2-2.6,2.5c-0.9,0.3-2.2,0.3-3.5-0.2
		c-1.3-0.4-2.6-1.2-4.6-1.3c-2-0.1-4.7,0.4-7.4,1.8c-2.7,1.3-5.4,3.5-7.4,5.3c-1.9,1.8-3.1,3.2-5.1,4.1c-2,1-4.7,1.5-7,1.5
		c-2.3,0-4.2-0.6-6.4-1.9c-2.2-1.3-4.7-3.3-6.5-4.9c-1.8-1.6-2.9-2.8-4.4-3.7c-1.5-0.8-3.5-1.3-6-1.6"/>
	<path class="st0" d="M264.9,158.4c2.5,0.7,3.5,1.4,4.4,2.5c1,1.1,1.9,2.5,2.6,4s1.1,3.2,2,4.9c0.8,1.7,2.1,3.4,3.8,4.7
		c1.7,1.3,3.7,2,6.2,2.7c2.5,0.6,5.5,1.1,8.5,1.3c3,0.1,6-0.1,8.5,0s4.4,0.5,5.6,1c1.2,0.5,1.7,1.2,1.8,1.9c0.1,0.7,0,1.5-0.6,2
		c-0.6,0.5-1.5,0.9-2.6,1.2c-1.1,0.3-2.3,0.6-4.4,0.5c-2.1-0.1-5.2-0.7-7.5-1.3c-2.4-0.5-4.1-1-6.1-1.2c-1.9-0.1-4,0.1-6.1,1.1
		c-2.1,1-4.3,2.8-6.3,4.1s-3.8,2.1-5.7,2.5c-1.8,0.4-3.7,0.6-5.9,0s-4.9-1.8-8.7-0.8"/>
	<path class="st0" d="M292.9,143.1c-6.6,2.9-7.9,3.1-9.8,3c-1.9-0.1-4.5-0.6-6.5-0.5c-2,0.1-3.6,0.7-4.9,2.1
		c-1.3,1.4-2.5,3.5-3.4,5.3c-0.9,1.8-1.6,3.3-2.6,4.6c-1,1.2-2.4,2.2-4.3,2.9"/>
	<path class="st0" d="M293.2,141c-3.5,3.3-4.2,3.8-5,3.8c-0.9,0-2.1-0.4-3.4-1.4c-1.3-0.9-2.9-2.3-4.4-3.3c-1.5-1-3-1.6-4.8-1.4
		c-1.9,0.2-4.2,1.1-6.2,2.3c-2,1.2-3.7,2.8-4.7,5.6c-0.7,2.1-1,4.9-3,6.4"/>
	<path class="st0" d="M254,150.1c-0.6,0.6-1,1.6-1.1,3.1c-0.1,1.5,0.2,3.5,1,5.3c0.8,1.8,2,3.4,3,4.1c1,0.8,1.8,0.7,2.4,0.5
		c0.6-0.2,1.1-0.6,1.5-1.4c0.4-0.8,0.9-2,1.1-3.4s0.3-3.2,0-4.6c-0.3-1.4-1-2.5-1.7-3.2c-0.6-0.7-1.2-1.1-1.9-1.3
		c-0.7-0.2-1.6-0.3-2.3-0.2C255.2,149.3,254.5,149.5,254,150.1z"/>
	<path class="st0" d="M335.1,152.8c0.4,0.6,0.7,1.2,0.9,1.7c0.4,0.8,0.5,1.5,0.6,2.5c0.1,1,0,2.3,0.5,3.8c0.5,1.5,1.4,3.1,2.6,4.5
		c1.1,1.4,2.5,2.6,2.2,6"/>
	<path class="st0" d="M327,152.4c1.6-1.7,2.9-2.2,3.9-2.4c0.1,0,0.1,0,0.2,0"/>
	<path class="st0" d="M330.8,158.3c0.1,4.3,1,6.6,1.7,7.8c0.8,1.4,1.3,1.7,1.7,2.6c0.4,0.9,0.6,2.4,0.9,3.8c0.3,1.4,0.6,2.6,0.8,4.2
		c0.1,1.3,0.2,2.9,1.8,5.8"/>
	<path class="st0" d="M321.9,143.8c-0.4,3.7-1.4,5.2-2.3,6.4c-1,1.2-2,2-3.5,2.6c-1.5,0.6-3.5,1.1-5.5,1.3c-1.9,0.2-3.7,0-4.8,0
		c-1,0-1.4,0.2-2.1,3.2"/>
	<path class="st0" d="M293.7,146.4c-2.1,0.2-2.7,1.2-2.9,2.3c-0.2,1.1,0,2.3,0.4,3.3c0.4,1,1.1,1.8,1.7,2.5s1,1,1.3,1.7
		c0.3,0.6,0.5,1.6,1.2,2.5c0.7,1,1.9,2.1,3.6,3.2c1.7,1.2,4,2.4,6.2,3c2.2,0.6,4.4,0.6,6.8,0.1c2.5-0.5,5.3-1.4,7.1-1.9
		c1.8-0.6,2.7-0.8,3.7-0.9c1-0.1,2.2-0.2,3.7-0.8c1.5-0.6,3.3-1.7,4.2-2.9c1-1.2,1.1-2.5,0.9-3.6c-0.3-1-1-1.7-2-2.1
		c-0.8-0.3-1.7-0.3-4-0.4"/>
	<path class="st0" d="M295.5,55.4c-0.6-3.5-0.3-7.2,0.8-11.1"/>
	<path class="st0" d="M294.6,57.6c3-0.8,6.4-3.3,8-5"/>
	<path class="st0" d="M291.1,68.5c2.2,0,4.5-1.2,8.7-4.7"/>
	<path class="st0" d="M291.9,65.1c-1.6-3.1-2.7-7.2-3.2-12.4"/>
	<path class="st0" d="M280.7,69.8c-0.2-8.7,0.5-11.2,1-12.5c0.5-1.4,0.8-1.4,1-0.8c0.2,0.6,0.4,1.9,0.5,2.4c0.2,0.5,0.4,0.2,0.9-1.2
		s1.2-3.9,2.1-5.9c0.9-2,1.9-3.6,2.6-4.3c0.6-0.7,0.9-0.7,0.9-0.1c0,0.6-0.2,1.6-0.1,2.1c0.1,0.5,0.4,0.5,1.2-0.7
		c0.8-1.2,2.1-3.7,3.5-5.4c1.4-1.6,2.9-2.3,3.8-2.7c1-0.4,1.4-0.5,1.4,0.1c0,0.5-0.6,1.7-0.8,2.4c-0.2,0.7-0.2,0.9,0.7,0.2
		c0.8-0.8,2.5-2.6,4-3.8c1.5-1.2,3-1.7,3.7-1.9c0.7-0.2,0.8-0.1,0.6,0.8c-0.2,0.8-0.7,2.4-1.3,4.6s-1.3,4.9-1.5,6.3
		c-0.2,1.4,0,1.5,0.5,1c0.5-0.5,1.2-1.6,1.7-2.1s0.8-0.4,0.3,1.3c-0.5,1.7-1.7,5.2-2.2,7c-0.6,1.8-0.5,2-0.1,1.7
		c0.4-0.3,1-1.1,1.4-1.2s0.7,0.4,0.3,1.6c-0.4,1.2-1.4,3-2.1,4.3c-0.7,1.2-1.1,1.8-0.8,1.7c0.2,0,1.1-0.6,1.5-0.6
		c0.4,0,0.4,0.7-0.9,2.9c-1.2,2.1-3.6,5.5-6.7,7.7"/>
	<path class="st0" d="M291,69c2.2-10.3,8.5-23.1,13.1-27.5"/>
	<path class="st0" d="M285.5,68.5c-0.8-2.9-1.2-4.9-1-6"/>
	<path class="st0" d="M363.2,149.3c-2.1-1.7-2.4-3-2.2-4.7c0.2-1.7,0.9-3.8,2.2-5.8c1.3-1.9,3.2-3.8,5.3-5.1c2.1-1.3,4.5-2.2,7-3.2
		c2.5-1,5.2-2.1,7-2.9c1.7-0.8,2.5-1.4,3-2.1c0.5-0.7,0.9-1.5,1.5-2.1c0.7-0.6,1.7-1,2.9-1.1c1.1-0.1,2.3,0,3.6,1"/>
	<path class="st0" d="M301.1,139.1c-0.3,0.1-0.5,0.2-0.8,0.2c-2.1,0.7-3.7,1.7-5.1,2"/>
	<path class="st0" d="M326.8,147.8c-3.2-2.9-5.4-4.4-7-5.4c-1.7-1-2.9-1.7-3.8-2.2c-1-0.6-1.8-1.1-2.6-1.4s-1.8-0.4-2.7-0.5
		c-0.2,0-0.5,0-0.7-0.1"/>
	<path class="st0" d="M305.2,139.5c-0.5,2.7-0.3,4.9,0,6.5c0.4,2,1.2,2.9,2.1,3.6s2.1,1.3,3.2,1.4c1.1,0.1,2.2-0.2,3.3-0.8
		c1.1-0.6,2.1-1.4,2.8-2.5c0.7-1,1.1-2.1,2.2-5.9"/>
	<path class="st0" d="M301.5,135.3c-0.6,4.9-0.3,5.2,0.1,5.3c0.4,0.1,0.9-0.1,1.5-0.3c0.6-0.2,1.3-0.6,2-0.7s1.5-0.1,2.2,0
		c0.7,0.1,1.4,0.2,1.9,0.1c0.5-0.1,0.9-0.6,1.1-5.3"/>
	<path class="st0" d="M327.7,142.9c-0.1,0.3-0.4,0.6-0.5,0.9c-0.3,0.5-0.2,1-0.2,1.5c0.1,0.6,0.1,1.3-0.1,2.4
		c-0.2,1.1-0.6,2.7-1.1,4.1c-0.6,1.4-1.3,2.5-2.3,3.3c-1.1,0.8-2.6,1.2-4.1,1.7c-1.6,0.4-3.2,0.9-5.1,1.2c-1.9,0.3-4.2,0.6-6.1,0.4
		c-2-0.2-3.7-0.7-5.8-2c-2.1-1.2-4.5-3.2-6.2-5.4c-1.7-2.3-2.6-4.9-3-6.8s-0.2-2.9,0.6-4c0.8-1.1,2.2-2.2,4.1-3.3
		c1.9-1,4.3-2,7.3-2.4c0.2,0,0.3,0,0.5-0.1"/>
	<path class="st0" d="M334.6,153c0.6-0.1,1.3-0.5,1.8-1.3c0.5-0.7,0.8-1.8,0.8-3.2c0-1.3-0.3-2.9-1.2-4.6c-0.9-1.7-2.5-3.5-4.3-5.4
		c-1.8-1.9-4-3.8-6.5-5.3c-2.5-1.5-5.4-2.5-7.8-3.1c-2.4-0.5-4.3-0.6-6.8-0.2c-2.4,0.4-5.4,1.2-7.2,1.8c-1.9,0.6-2.7,1.1-3.1,1.4
		c-0.4,0.3-0.2,0.4,0.2,0.6c0.5,0.2,1.2,0.4,2.1,0.5c0.9,0.1,1.8,0.2,3.6,0.1c1.8-0.1,4.4-0.2,7.7,0.6s7.4,2.6,10.1,4.5
		c2.7,1.9,4,3.9,4.9,5.6c0.9,1.7,1.2,3.2,1.8,4.5s1.3,2.2,2,2.8C333.5,152.9,334,153.1,334.6,153z"/>
	
		<ellipse transform="matrix(0.9939 -0.1104 0.1104 0.9939 -20.6421 37.8494)" class="st0" cx="331.3" cy="205.3" rx="0.7" ry="0.7"/>
	
		<ellipse transform="matrix(0.9383 -0.3457 0.3457 0.9383 -50.5292 123.6669)" class="st0" cx="321.4" cy="203.5" rx="0.7" ry="0.7"/>
	<path class="st0" d="M369.5,152.9c-1.2,1.3-2,3.1-2.8,4.5c-0.9,1.6-1.7,2.8-2.6,4.4c-0.8,1.4-1.7,3.2-2.1,7.5"/>
	<path class="st0" d="M378.6,136c-5,1.4-6.8,2-8.5,2.7c-1.8,0.8-3.4,1.7-4.5,3.3c-1.1,1.5-1.7,3.7-2.1,5.4c-0.4,1.7-0.5,2.9,0,5
		c0.5,1.8,1.4,4.2,2.8,5.5"/>
	<path class="st0" d="M369.8,156.2c-3.2,10.8-2.5,14.2-2.2,17s0.3,5,0.3,6.4c0,1-0.1,1.7-0.6,2.2"/>
	<path class="st0" d="M239.3,219.6c-10.8,4.5-22.8,10.4-35.8,18.3"/>
	<path class="st0" d="M327.7,197.6c-24.3,2.2-34.1,4.7-51.4,9.5c-8.8,2.5-19.5,5.6-31.9,10.4"/>
	<path class="st0" d="M238.5,199.5c-1.1,0-2.1,0.5-3,1.6c-0.9,1.1-1.6,2.7-1.8,4.7c-0.2,2,0,4.3,0.5,6.3c0.4,2,1,3.7,2,5
		c1,1.3,2.5,2.3,3.6,2.6c1.1,0.4,1.9,0.1,2.6-0.2c0.7-0.4,1.4-0.8,1.9-1.7c0.5-0.9,1-2.2,1.3-4c0.3-1.8,0.5-3.9,0.4-5.5
		c-0.1-1.6-0.5-2.5-1.2-3.7c-0.7-1.1-1.8-2.5-2.9-3.5C240.7,200.2,239.5,199.6,238.5,199.5z"/>
	<path class="st0" d="M234.8,214.6c-7.3,2.8-13.6,5.8-18.3,8.9"/>
	<path class="st0" d="M327.1,196.9c-28.7,1.8-58.4,6.8-81.2,13.9"/>
	<path class="st0" d="M238.8,185.5c-4.4,1.5-11.9,7.7-18.7,15.6"/>
	<path class="st0" d="M238.8,185.4c4.7,2.4,8.9,7.7,14.3,15.9"/>
	<path class="st0" d="M242.1,168.5c7.2,6.1,11.3,11,13.9,15.2"/>
	<path class="st0" d="M242.2,168.2c-5.6,2.6-13.1,7.4-18.1,12.3"/>
	<path class="st0" d="M420.2,83.6c1.2-7.4,0.8-18.1,0.3-25.5c-0.5-8.4-1.2-12.4-1.9-16.2c-0.8-3.7-1.6-7.1-3.1-8.7
		c-1.5-1.6-3.5-1.2-5.2-0.6c-1.7,0.6-3.2,1.6-4.7,2.5c-1.5,0.9-3,1.9-3.5,2.6c-0.5,0.7,0.1,1.1,1.3,1.2c1.1,0,2.8-0.3,3.6-0.3
		s0.7,0.2,0,0.6c-0.7,0.5-2.1,1.1-2.7,1.6c-0.7,0.5-0.7,0.8-0.2,1c0.4,0.2,1.3,0.4,1.7,0.6c0.4,0.1,0.4,0.2,0.2,0.4
		c-0.2,0.2-0.5,0.5-0.6,0.8c-0.1,0.3,0.1,0.6,1,0.9c0.9,0.3,2.6,0.5,3.4,0.8c0.8,0.2,0.8,0.4-0.7,0.7s-4.4,0.6-7.1,1.3
		c-2.7,0.8-5.3,2-6.8,2.7c-1.5,0.7-2,1-2.6,1.4c-0.5,0.4-1.1,0.9-1.4,1.4c-0.3,0.4-0.3,0.8,0.8,0.8c1,0,3-0.4,4.2-0.5
		c1.2-0.1,1.6,0,1.7,0.2c0.1,0.2-0.1,0.5-1.3,1.1c-1.1,0.7-3.2,1.7-4.5,2.3c-1.3,0.7-1.8,1-2.1,1.5c-0.3,0.4-0.2,1,0,1.4
		c0.2,0.5,0.5,0.8,0.6,1.1c0.1,0.3-0.1,0.4-0.5,0.6c-0.3,0.2-0.7,0.6-1,1c-0.2,0.4-0.3,0.8-0.5,1c-0.2,0.3-0.5,0.4-2,0.8
		c-1.5,0.4-4.1,1.1-6.3,2.8c-2.3,1.7-4.2,4.5-5.5,6.7c-1.3,2.1-2,3.7-2.2,4.6c-0.2,1,0,1.5,0.7,1.4c0.7,0,2-0.6,2.8-0.8
		c0.9-0.2,1.3-0.1,1.8,0.3c0.4,0.4,0.8,1.1,1.2,1.6c0.4,0.4,0.7,0.6,1.3,0.6c0.6,0,1.4,0,2,0.1c0.6,0.1,1,0.4,1.4,0.8
		s0.6,1.1,0.9,1.4s0.6,0.2,1,0c0.4-0.2,0.9-0.5,1.3-0.6c0.4-0.1,0.7-0.1,1.2-0.1c0.5,0.1,1,0.3,1.5,0.3c0.5,0,0.9,0,1.9-0.8
		c1-0.8,2.5-2.2,3.3-2.8c0.7-0.6,0.6-0.3,0.3,0.4s-0.9,1.8-1.1,2.7s-0.3,1.7-0.1,2.1s0.4,0.4,0.8,0.4c0.4-0.1,0.8-0.2,1.1-0.3
		c0.3,0,0.6,0.1,0.8,0.4c0.3,0.3,0.5,0.8,0.8,1.1c0.3,0.3,0.6,0.3,1.1,0.2c0.4-0.2,1-0.5,1.4-0.7s0.7,0,0.9,0.5s0.5,1.4,0.8,1.9
		c0.3,0.4,0.7,0.3,1.1,0.2c0.4-0.1,0.7-0.3,1,0.2c0.3,0.4,0.5,1.1,0.8,2.6"/>
	<path class="st0" d="M413.9,98.3c0-0.5,0.1-1.3,0-2.3c-0.1-1-0.4-2-0.8-3.2c-0.4-1.2-1-2.5-1.4-3.8c-0.3-1.3-0.4-2.4,0-3.5
		c0.4-1.1,1.2-2,2.5-2.4c1.3-0.4,3.1-0.3,4.7,0.1c1.6,0.4,3.1,1.2,4.1,2c0.9,0.8,1.3,1.8,1.6,2.7c0.3,0.9,0.5,1.7,0.5,2.6
		s-0.2,1.8-0.6,2.5c-0.4,0.7-0.9,1.2-1.6,1.7c-0.8,0.5-1.8,1-2.7,1.5c-0.9,0.6-1.8,1.2-2.3,1.9c-0.6,0.7-0.8,1.4-1.1,1.9
		c-0.3,0.4-0.7,0.6-1.1,0.7c-0.1,0-0.3,0.1-1,0.1"/>
	<path class="st0" d="M415.1,99.7c1.3-2.3,3.2-5.3,4.6-8.4"/>
	<path class="st0" d="M417.3,101.1c-0.1-0.1-0.1-0.2-0.2-0.4c-0.1-0.2-0.3-0.5-0.5-0.7"/>
	<path class="st0" d="M416.8,104.8c0.1-0.2,0.2-0.3,0.3-0.5"/>
	<path class="st0" d="M412.2,103.6c0.3,0.6,0.7,1.1,1.1,1.5c0.4,0.4,0.8,0.7,1.3,0.8"/>
	<path class="st0" d="M416.2,101.4c2.2-0.5,3.7-1.3,4.9-2c1.2-0.7,2.1-1.3,2.9-1.8c0.8-0.5,1.5-0.8,2.3-0.8c0.8,0,1.6,0.2,2.5,0.7
		c0.9,0.5,1.8,1.3,2.5,2.1c0.7,0.8,1.1,1.5,1.3,2.4c0.2,0.9,0.2,1.9,0,2.5c-0.2,0.7-0.6,1.1-1.2,1.5c-0.7,0.4-1.7,0.7-2.5,0.9
		c-0.9,0.2-1.6,0.2-2.6,0c-0.9-0.2-2.1-0.6-3-0.9c-0.9-0.3-1.6-0.6-2.5-0.7c-0.9-0.1-2-0.1-5.1-1.7"/>
	<path class="st0" d="M414.6,105c0.1,1.2-0.3,2.3-0.8,3.3c-0.5,1.1-0.9,2.1-1.3,3.1c-0.3,1-0.6,2.1-0.6,3s-0.1,1.7,0.3,2.6
		c0.3,0.8,0.9,1.7,1.5,2.3c0.6,0.6,1.2,0.8,2,1c0.8,0.2,1.8,0.2,2.6,0.2c0.8-0.1,1.4-0.3,1.9-0.7c0.6-0.4,1.1-1,1.6-1.6
		c0.4-0.7,0.6-1.4,0.8-2.5c0.1-1.1,0.1-2.5-0.1-3.6c-0.1-1-0.3-1.7-0.8-2.5c-0.5-0.8-1.2-1.6-2.2-2.6c-0.9-1-2.2-2.1-3.8-2.8"/>
	<path class="st0" d="M415.3,104.9c0.7,1.8,0.6,4.3,0.5,9"/>
	<path class="st0" d="M415.5,104.6c0.7,0.9,1.3,2.5,1.6,3.9c0.4,1.6,0.5,3,0.7,5.3"/>
	<path class="st0" d="M426.4,102.8c-4.3,0.2-7.7,0.4-9.8,0.4"/>
	<path class="st0" d="M424.8,100.6c-2.6,0.4-5.8,1-8.1,1.5"/>
	<path class="st0" d="M414.5,98.6c0.8-1,1.3-2,1.7-3.1c0.4-1.3,0.6-2.6,0-5.7"/>
	<path class="st0" d="M412.8,98.6c-2.6-0.8-3.7-1.8-4.5-2.9c-0.9-1.1-1.6-2.2-2.2-3c-0.6-0.8-1.2-1.4-2-1.7
		c-0.8-0.3-1.7-0.4-2.5-0.4c-0.8,0.1-1.6,0.3-2.5,1.1c-0.9,0.7-2.1,1.9-2.7,2.9c-0.6,1-0.7,1.8-0.6,2.9c0.2,1.1,0.6,2.3,1.2,3.3
		c0.6,0.9,1.5,1.5,2.5,1.9c0.9,0.3,1.9,0.3,2.7,0.1c0.8-0.2,1.5-0.7,2.5-0.9c1-0.2,2.2-0.3,5.2,0.3"/>
	<path class="st0" d="M412.5,100.3c-3-0.8-6-2.1-9.4-4.3"/>
	<path class="st0" d="M410.1,102.8c-2.6,1.3-4.2,2.1-5.2,2.5c-1,0.4-1.3,0.4-1.8,0.5c-0.5,0-1.2,0.1-1.7,0.3
		c-0.5,0.2-0.9,0.4-1.3,0.9c-0.4,0.4-0.9,1.1-1.1,1.9s-0.2,1.9,0.1,2.9c0.3,1,0.8,1.8,1.6,2.4c0.8,0.6,1.9,1,2.9,1.3
		c1,0.2,1.9,0.2,2.7,0c0.8-0.3,1.4-0.8,1.9-1.3c0.5-0.5,0.9-1.1,1.3-1.9c0.3-0.8,0.6-2,0.9-3.6c0.3-1.4,0.7-3.2,0.8-5"/>
	<path class="st0" d="M410.8,103.5c-0.8,1.9-1.5,2.8-2.4,3.8c-0.9,1.1-1.8,2.2-2.6,3.9"/>
	<path class="st0" d="M410.5,103.3c-1.5,1.9-2.7,2.8-3.5,3.5c-0.9,0.8-1.4,1.4-1.9,2.9"/>
	<path class="st0" d="M410.1,101.6c-1.7-0.8-4.1-1.6-7.2-2.4"/>
	<path class="st0" d="M397.2,140.7c0.1,0.6,0.2,1.1,0.2,1.7c0,0.8-0.2,1.6-0.5,2.7c-0.3,1-0.8,2.2-1.4,3.7s-1.6,3-2.5,4
		c-0.9,1-1.6,1.5-2.8,1.7c-1.2,0.2-2.8,0.1-4.1-0.3s-2-1.1-3.2-2c-1.2-1-2.8-2.2-4.1-3.8c-1.3-1.6-2.3-3.5-2.8-5.2
		c-0.5-1.6-0.4-3-0.1-4.3c0.1-0.4,0.2-0.7,0.3-1.1"/>
	<path class="st0" d="M393.2,132.6c0.2,0.2,0.4,0.5,0.7,0.7"/>
	<path class="st0" d="M374.6,152.1c-0.4-1-0.7-2-1-3c-0.4-1.5-0.8-2.8-1-4s0-2.4,0.6-4.3c0.1-0.2,0.1-0.4,0.2-0.6"/>
	<path class="st0" d="M395.9,132.9c1.4,0.9,2.3,2,3.1,3.2c0.8,1.3,1.4,2.9,1.7,4.2c0.3,1.3,0.4,2.3,0.4,3.6c0,0.2,0,0.4,0,0.6"/>
	<path class="st0" d="M379.2,135.7c-0.1,0.4-0.2,0.8-0.3,1.2c-0.3,1.3-0.4,2.6-0.3,3.8c0.1,1.2,0.3,2.3,0.7,3.3
		c0.4,1,0.9,1.8,1.8,2.4c0.9,0.6,2.2,1,3.5,1.2c1.2,0.2,2.4,0.1,3.4-0.3c1-0.4,1.7-1.3,2.4-2.3s1.1-2.2,1.3-3.5
		c0.2-1.3,0-2.6-0.4-3.9c-0.5-1.3-1.3-2.6-2.3-3.6c-0.4-0.4-0.9-0.8-1.5-1.1"/>
	<path class="st0" d="M406.3,133c-2.2,2.6-2.9,4.5-3.4,6.1c-0.5,1.6-0.9,2.8-1.3,4.1c-0.4,1.3-0.9,2.9-1.5,4.2
		c-0.6,1.3-1.3,2.4-2.5,3.5c-1.2,1.1-3,2.2-4.8,2.9c-1.7,0.7-3.3,1.1-5.1,1.1c-1.8,0.1-3.9-0.2-5.8-0.6c-1.9-0.5-3.7-1.1-4.9-1.6
		c-1.2-0.5-1.7-0.7-2.4-0.6c-0.7,0.1-1.4,0.4-2.3,1.1c-0.9,0.7-1.9,1.7-2.5,2.9c-0.1-2.9-0.7-4.6-1.1-5.9c-0.4-1.4-0.5-2.5-0.3-3.4
		c0.1-1,0.5-1.8,1-2.6c0.5-0.8,1.2-1.7,2-2.4c0.8-0.8,1.8-1.4,2.7-2.2c0.9-0.8,1.7-1.6,2.4-2.2s1.3-1,2.5-1.6c1.2-0.6,3-1.4,4.9-2
		c2-0.6,4-1.1,5.9-1.2c1.9-0.2,3.5,0,5.1,0.2c1.6,0.2,3.2,0.4,5,0.8C401.8,133.9,403.7,134.4,406.3,133z"/>
	<path class="st0" d="M338.6,179.7c0.9-1,1.5-1.4,2.1-1.7c1.1-0.6,1.8-0.8,2.8-0.8c1-0.1,2.3-0.1,3.6,0.2c1.3,0.3,2.6,0.7,3.8,0.9
		c1.2,0.2,2.2,0.1,3.7-0.3c1.5-0.4,3.5-1.1,5.1-1.4c1.5-0.3,2.5-0.1,3.9,0.5c1,0.5,2.3,1.2,4,3.7"/>
	<path class="st0" d="M358.2,187.7c0.5-1.9,0.9-2.9,1.2-3.5c0.4-0.8,0.8-1.1,1.2-1.2c0.5-0.1,1-0.1,2.4,0.7"/>
	<path class="st0" d="M343.9,186c1-1.2,2.1-1.6,2.8-1.7c1-0.2,1.4,0.1,1.6,0.6c0.2,0.5,0.2,1.1,0.2,2c0,0.6,0,1.3-0.1,2.8"/>
	<path class="st0" d="M353.1,192.4c-1.5,0.8-2.1,0-2.8-0.9c-0.7-0.9-1.4-1.7-2.3-2.6c-0.8-0.9-1.8-1.8-2.7-2.4
		c-0.9-0.6-1.7-0.7-2.6-0.9c-0.9-0.1-1.8-0.3-2.7-0.6c-0.9-0.4-1.7-1-2.1-1.5s-0.4-0.9-0.2-1.7c0.2-0.7,0.7-1.7,1.1-2.8
		c0.5-1.2,0.9-2.6,1.5-4.1c0.6-1.5,1.3-3.1,2-4.4c0.7-1.3,1.4-2.3,2.7-3.1c1.3-0.9,3.1-1.6,4.4-2c1.3-0.4,2.2-0.3,2.9-0.5
		c0.7-0.2,1.2-0.5,2-0.5c0.8-0.1,1.7,0.1,3.1,0.9c1.3,0.8,3,2.1,4.5,3.9c1.5,1.9,2.8,4.3,3.8,6.3c1,2,1.6,3.5,1.7,4.6
		c0.2,1.1-0.1,1.8-0.6,2.2c-0.5,0.4-1.2,0.6-1.9,0.8c-0.7,0.1-1.4,0.2-2.4,0.8c-1,0.6-2.2,1.6-4,3.4
		C356.8,189.2,354.5,191.6,353.1,192.4z"/>
	
		<ellipse transform="matrix(6.111191e-02 -0.9981 0.9981 6.111191e-02 163.6877 559.6577)" class="st0" cx="379.3" cy="192.8" rx="1" ry="1"/>
	
		<ellipse transform="matrix(0.9996 -2.776821e-02 2.776821e-02 0.9996 -5.067 10.6215)" class="st0" cx="379.9" cy="187.8" rx="0.7" ry="0.7"/>
	<ellipse transform="matrix(0.9715 -0.237 0.237 0.9715 -35.5257 94.7495)" class="st0" cx="376.4" cy="195.2" rx="0.9" ry="0.9"/>
	
		<ellipse transform="matrix(0.9512 -0.3085 0.3085 0.9512 -42.6401 123.8023)" class="st0" cx="370.2" cy="196.8" rx="0.8" ry="0.8"/>
	
		<ellipse transform="matrix(0.7214 -0.6925 0.6925 0.7214 -29.4145 309.6764)" class="st0" cx="370.2" cy="191.4" rx="0.7" ry="0.7"/>
	<ellipse transform="matrix(0.5767 -0.817 0.817 0.5767 3.633 380.88)" class="st0" cx="369.4" cy="186.9" rx="1" ry="1"/>
	<ellipse transform="matrix(0.908 -0.4191 0.4191 0.908 -47.2246 170.8687)" class="st0" cx="365.4" cy="192.9" rx="1.4" ry="1.4"/>
	
		<ellipse transform="matrix(0.1644 -0.9864 0.9864 0.1644 77.0586 501.3613)" class="st0" cx="334.5" cy="205.2" rx="0.9" ry="0.9"/>
	
		<ellipse transform="matrix(4.756307e-02 -0.9989 0.9989 4.756307e-02 111.9324 519.9083)" class="st0" cx="328.6" cy="201.3" rx="1" ry="1"/>
	
		<ellipse transform="matrix(0.9981 -6.237590e-02 6.237590e-02 0.9981 -11.948 19.9918)" class="st0" cx="314.2" cy="201.4" rx="0.8" ry="0.8"/>
	<circle class="st0" cx="323.7" cy="200" r="1"/>
	
		<ellipse transform="matrix(5.546813e-02 -0.9985 0.9985 5.546813e-02 115.176 526.2403)" class="st0" cx="335.7" cy="202.2" rx="0.9" ry="0.9"/>
	<ellipse transform="matrix(0.9216 -0.3881 0.3881 0.9216 -50.3607 146.4425)" class="st0" cx="337.4" cy="197.9" rx="1" ry="1"/>
	<circle class="st0" cx="329.1" cy="193.2" r="1"/>
	<path class="st0" d="M248.4,189.8c-0.6-0.1-1.3,0-2,0.2c-0.7,0.2-1.2,0.6-1.6,1.1c-0.4,0.5-0.5,1.1-0.6,2s-0.1,1.9,0.2,2.8
		c0.2,0.9,0.6,1.6,1.3,2.4c0.6,0.8,1.5,1.6,2.4,2.2c1,0.6,2,1,2.9,1.1c0.9,0.1,1.6,0,2.1-0.3c0.5-0.3,0.9-0.7,1.1-1.4
		s0.2-1.7,0.2-2.7c0-0.9-0.1-1.8-0.9-2.9c-0.8-1.1-2.2-2.6-3.1-3.4C249.5,190.1,249,189.9,248.4,189.8z"/>
	<path class="st0" d="M232.8,189.7c-0.2-0.8-0.5-1.4-1.2-1.8c-0.7-0.3-1.6-0.3-2.6-0.2c-1,0.1-1.9,0.4-3.2,1.2
		c-1.3,0.8-3,2.2-4.2,3.6c-1.2,1.4-2,2.9-2.3,4.3c-0.3,1.4-0.2,2.7,0.3,3.5c0.5,0.8,1.3,1.2,2.5,1.3c1.3,0,2.9-0.3,4.4-0.8
		s2.7-1.3,3.6-2.3c1-0.9,1.6-2,2.1-3.1c0.5-1,0.8-2,0.8-3S233.1,190.6,232.8,189.7z"/>
	<path class="st0" d="M249.2,172.4c0.7-0.2,1.6,0,2.6,0.4c1,0.4,2,1.1,2.9,1.8c0.9,0.7,1.7,1.6,2.1,2.4s0.7,1.7,0.7,2.6
		c0,0.9-0.1,1.9-0.5,2.7c-0.3,0.8-0.8,1.4-1.5,1.7c-0.8,0.3-1.8,0.3-3.1-0.1c-1.3-0.4-2.8-1.1-3.7-2c-1-0.9-1.4-2-1.8-3.1
		s-0.7-2.3-0.6-3.2c0.1-0.9,0.5-1.4,1-2C247.8,173,248.4,172.5,249.2,172.4z"/>
	<path class="st0" d="M235.1,171.6c-0.7-1-1.8-1.7-3.2-1.5c-1.4,0.2-3.2,1.2-4.6,2.3c-1.3,1.2-2.2,2.5-2.8,3.8s-0.9,2.8-0.6,3.8
		c0.4,1,1.4,1.5,2.4,1.6c1.1,0.1,2.1-0.2,3.3-0.5c1.2-0.4,2.5-0.8,3.6-1.9c1.2-1,2.2-2.6,2.6-4.1
		C236.2,173.7,235.8,172.5,235.1,171.6z"/>
	<path class="st0" d="M392.6,133.6c-0.1,0.4,0.5,1.1,0.9,1.7s0.5,1.2,0.6,2c0.1,0.8,0.2,1.9,0.3,2.6c0.1,0.6,0.3,0.8,0.7,0.9
		c0.5,0.1,1.2,0.1,1.8-0.1c0.6-0.2,1-0.6,1.3-1c0.3-0.4,0.3-0.9,0.2-1.6c-0.2-0.7-0.7-1.7-1.3-2.6c-0.7-0.9-1.5-1.7-2.5-2.1
		C393.7,133.1,392.8,133.2,392.6,133.6z"/>
	<path class="st0" d="M382.4,135.4c0.4-0.2,1.2-0.2,1.7,0.1c0.4,0.3,0.5,0.9,0.6,1.6c0,0.7,0,1.6-0.2,2.3c-0.2,0.7-0.6,1.2-1,1.5
		c-0.4,0.3-0.8,0.3-1.4,0.1s-1.4-0.5-1.7-0.8c-0.4-0.4-0.3-0.8,0-1.3c0.3-0.6,0.9-1.4,1.2-2C381.9,136.1,382,135.6,382.4,135.4z"/>
	<path class="st0" d="M416.5,101.6c-0.2-0.2-0.6-0.5-1-0.5c-0.4,0-0.9,0.2-1.3,0.5c-0.4,0.4-0.6,0.9-0.8,1.3
		c-0.1,0.4-0.1,0.8,0.1,1.1c0.2,0.3,0.6,0.7,1,0.9c0.4,0.2,0.7,0.2,0.9,0s0.3-0.5,0.3-0.8c0-0.2-0.1-0.4,0.1-0.4
		c0.2-0.1,0.6-0.1,0.8-0.3c0.2-0.2,0.3-0.6,0.3-1C416.7,102.1,416.7,101.8,416.5,101.6z"/>
	
		<ellipse transform="matrix(0.1644 -0.9864 0.9864 0.1644 243.1097 491.3164)" class="st0" cx="411.5" cy="102.2" rx="1.5" ry="1.5"/>
	<ellipse transform="matrix(0.808 -0.5892 0.5892 0.808 20.6969 262.8809)" class="st0" cx="413.7" cy="99.7" rx="1.4" ry="1.4"/>
	<path class="st0" d="M394.6,107.7c-0.4-0.4-0.8-0.5-1.6-0.5c-0.8,0-1.8,0.2-2.8,0.7c-0.9,0.5-1.7,1.2-2.4,1.8
		c-0.7,0.6-1.2,0.9-1.7,1.2c-0.4,0.3-0.7,0.4-1,0.5c-0.2,0.1-0.4,0.2-0.6,0.3c-0.1,0.2-0.2,0.4-0.4,0.9c-0.1,0.5-0.3,1.1-0.8,1.7
		c-0.4,0.6-1.1,1.2-1.6,1.7c-0.5,0.5-0.7,1.1-0.7,1.5c0,0.5,0.3,0.9,0.6,1c0.4,0.2,0.8,0.2,1.4-0.2c0.6-0.3,1.5-1,2.2-1.8
		c0.7-0.8,1.3-1.6,1.9-2.3c0.7-0.7,1.5-1.2,2.5-1.6c1-0.5,2.2-0.9,3-1.3c0.8-0.4,1.3-0.6,1.6-1c0.4-0.3,0.7-0.8,0.7-1.3
		C395.2,108.7,395,108.1,394.6,107.7z"/>
	<path class="st0" d="M373.2,105.9c-0.2-0.7-0.5-1.2-0.9-1.4c-0.4-0.2-0.8-0.2-1.2-0.1c-0.3,0.1-0.6,0.4-0.9,0.8
		c-0.2,0.4-0.5,1.1-0.5,1.8c-0.1,0.7,0,1.5,0.1,2.3c0.2,0.8,0.5,1.7,0.6,2.5c0.1,0.8,0.1,1.6-0.1,2.6c-0.2,1-0.6,2.1-1.1,3.4
		s-1,2.6-1.5,3.8c-0.5,1.2-0.8,2.2-0.9,3.1c-0.1,0.9,0.1,1.7,0.5,2.5c0.4,0.8,1,1.7,1.7,2.4s1.7,1.3,2.7,1.4c0.9,0.2,1.9,0,2.5-0.2
		c0.6-0.3,0.9-0.7,0.9-1.2c0-0.4-0.2-0.9-0.5-1.3c-0.3-0.4-0.7-0.6-1.1-1c-0.4-0.4-0.8-0.9-1-1.9c-0.2-0.9-0.2-2.3-0.1-3.8
		c0.1-1.5,0.3-3,0.5-5.2c0.2-2.2,0.3-5.1,0.4-7C373.4,107.6,373.4,106.6,373.2,105.9z"/>
	<path class="st0" d="M363.8,123.3c-0.4-0.4-1-0.8-1.5-0.9c-0.5-0.1-0.9,0.1-1.3,0.3c-0.3,0.2-0.5,0.5-0.6,1.1
		c-0.1,0.7-0.1,1.7-0.1,2.9c0,1.1,0,2.3-0.2,3.3c-0.2,1-0.5,1.7-0.9,2.4s-0.8,1.2-1,1.8c-0.3,0.6-0.4,1.1-0.4,2c0,0.9,0.1,2,0.3,2.7
		c0.2,0.7,0.6,0.9,0.8,0.9c0.3,0,0.5-0.2,0.8-0.6c0.3-0.5,0.6-1.2,1-2.5c0.4-1.3,0.9-3.1,1.4-4.4c0.5-1.3,0.9-2,1.4-2.5
		c0.4-0.5,0.8-0.8,1.1-1.4c0.3-0.6,0.5-1.4,0.5-2.1c0-0.7-0.2-1.4-0.4-1.9C364.6,124.1,364.2,123.7,363.8,123.3z"/>
	<path class="st0" d="M363.2,108.4c-0.2-0.8-0.6-1.1-1.1-1c-0.5,0-1.1,0.4-1.6,0.8c-0.5,0.4-1.1,1-1.3,1.6c-0.2,0.6-0.2,1.4-0.2,2.2
		c0,0.8-0.1,1.7-0.3,2.4c-0.2,0.7-0.4,1.2-0.4,1.7c0,0.6,0.3,1.2,0.6,1.5c0.3,0.3,0.5,0.2,1-0.3c0.5-0.5,1.2-1.5,1.8-2.5
		s1-1.9,1.3-3.1C363.2,110.5,363.3,109.2,363.2,108.4z"/>
	<path class="st0" d="M358.3,79.7c-0.4-0.3-0.7-0.2-1.1,0.1c-0.5,0.3-1.1,0.8-1.3,1.4c-0.3,0.6-0.2,1.3,0,2.3c0.2,1,0.5,2.3,0.8,3.1
		c0.3,0.9,0.8,1.4,1.5,2c0.8,0.6,1.9,1.4,2.5,2.1c0.6,0.7,0.8,1.3,0.8,1.9c0,0.6-0.2,1.2-0.6,2.1c-0.4,1-0.9,2.4-1.2,3.5
		c-0.3,1.2-0.5,2.1-0.2,2.7c0.3,0.7,0.9,1.1,1.7,1c0.8-0.1,1.6-0.7,2.3-1.8c0.7-1.1,1.3-2.7,1.6-4.7c0.3-2,0.3-4.4,0.2-5.8
		c-0.2-1.4-0.5-1.7-1.4-2.6c-0.9-0.9-2.4-2.3-3.2-3.2c-0.8-0.9-1-1.2-1.1-1.6c-0.1-0.4,0-0.8-0.2-1.3
		C359.2,80.6,358.7,80,358.3,79.7z"/>
	<path class="st0" d="M352.1,85.9c-0.4-0.6-0.8-0.6-1.3-0.6c-0.5,0-1.1,0-1.4,0.1s-0.3,0.2-0.3,0.6c0,0.3,0.1,0.8,0.2,1.6
		c0,0.7,0,1.7-0.3,2.8c-0.3,1.1-0.9,2.3-1.2,3.1c-0.3,0.8-0.2,1.3,0.1,1.7c0.4,0.4,1.1,0.8,1.9,1.5c0.8,0.7,1.7,1.6,2.3,2
		c0.6,0.4,0.9,0.3,1.2-0.2c0.3-0.5,0.7-1.4,0.9-2.3c0.2-0.9,0.2-1.9,0-3.1c-0.2-1.2-0.6-2.7-1-4C352.8,87.6,352.5,86.5,352.1,85.9z"
		/>
	<path class="st0" d="M351.2,107.8c-0.6-1.6-1.2-1.7-1.6-1.6c-0.4,0.1-0.7,0.3-0.8,0.9c0,0.7,0.2,1.8,0.3,3.4
		c0.1,1.6-0.1,3.5-0.2,5.3c-0.2,1.8-0.4,3.4-0.9,4.9c-0.5,1.5-1.2,2.8-1.6,4.1c-0.4,1.3-0.4,2.6-0.3,3.5c0,0.9,0.1,1.4,0.7,2.6
		c0.5,1.2,1.5,3.2,2,5c0.5,1.9,0.4,3.7,0.4,5c0,1.4,0,2.3,0.2,2.9c0.2,0.6,0.6,0.9,1.3,0.7s1.8-1.2,2.4-2.2c0.6-1,0.6-2.2,0.5-3.4
		c-0.1-1.2-0.5-2.4-0.9-3.5c-0.4-1.1-0.9-2.2-1.2-3.5c-0.3-1.3-0.3-2.7-0.1-4.7c0.2-2,0.8-4.4,1.1-6.4c0.3-2,0.4-3.6,0.1-5.9
		C352.5,112.6,351.9,109.4,351.2,107.8z"/>
	<path class="st0" d="M341.9,104.3c-0.4-0.2-0.9-0.2-1,0.2c0,0.4,0.4,1.2,0.6,2.1c0.2,0.9,0.2,1.8,0.2,3c0,1.2-0.1,2.6-0.4,4.1
		c-0.3,1.4-0.9,2.8-1.6,4.2s-1.6,2.8-2.2,3.7c-0.6,0.9-0.9,1.2-1.1,1.6c-0.1,0.5-0.1,1.1,0.2,1.7c0.3,0.6,0.8,1.2,1.3,1.8
		c0.4,0.6,0.7,1.1,0.9,1.7c0.1,0.6,0.1,1.3,0.1,1.8s0,1,0.2,1.2c0.2,0.2,0.7,0.3,1.1,0.2c0.4-0.1,0.7-0.3,0.9-0.5s0.3-0.6,0.4-2
		c0-1.3-0.1-3.7,0-5c0-1.4,0.1-1.7,0.4-2.5c0.2-0.7,0.6-1.9,0.8-2.6c0.2-0.7,0.3-1,0.3-3c0-2,0.1-5.6,0.1-7.7c0-2-0.1-2.4-0.2-2.8
		C342.6,105,342.3,104.5,341.9,104.3z"/>
	<path class="st0" d="M343.7,82.9c-0.2,0-0.4,0.3-0.8,0.7c-0.4,0.4-1.1,0.8-1.7,1.4c-0.6,0.6-1.1,1.3-1.5,2.2
		c-0.3,0.9-0.4,2.1-0.7,3.2c-0.2,1.1-0.5,2.3-0.7,3.4c-0.2,1.1-0.4,2.1-0.2,2.8c0.2,0.7,0.7,1.2,1.2,1.4c0.5,0.2,1.1,0.1,1.3-0.2
		c0.3-0.3,0.3-0.9,0.2-1.6c-0.1-0.7-0.2-1.4,0-2.3c0.3-0.9,1-1.9,1.7-2.7c0.7-0.9,1.5-1.6,1.9-2.3c0.4-0.7,0.6-1.3,0.6-2
		c0-0.7-0.1-1.5-0.3-2c-0.1-0.5-0.3-0.8-0.5-1.2C344.2,83.3,343.9,83,343.7,82.9z"/>
	<path class="st0" d="M327.7,122.6c0,0.8,1,2.7,1.6,4c0.6,1.4,0.9,2.2,1.1,2.8c0.2,0.6,0.2,1.1,0,1.6c-0.2,0.5-0.6,0.9-0.8,1.5
		c-0.2,0.6-0.2,1.2,0,2c0.2,0.7,0.6,1.5,1.2,1.9c0.5,0.3,1.2,0.2,1.6-0.1c0.5-0.3,0.8-0.7,0.9-1.6c0.2-1,0.2-2.5,0-3.9
		c-0.2-1.4-0.5-2.7-1.2-4.1c-0.7-1.4-1.7-2.7-2.6-3.6C328.5,122.2,327.6,121.9,327.7,122.6z"/>
	<path class="st0" d="M323.4,103.5c-0.8,0-1.5,0.5-2,1c-0.5,0.6-0.6,1.2-0.6,1.8c0,0.6,0.2,1.2,0.7,1.7c0.5,0.5,1.4,1,2.1,1.7
		c0.7,0.7,1.3,1.7,1.7,2.7c0.4,0.9,0.5,1.8,0.7,2.7c0.2,0.9,0.6,1.9,1,2.6c0.5,0.7,1.1,1.2,1.6,1.1c0.6,0,1-0.5,1.2-1.2
		c0.2-0.7,0.1-1.5-0.2-2.4c-0.3-0.9-0.9-1.8-1.4-2.6c-0.5-0.8-0.9-1.4-1.1-2.2c-0.2-0.8-0.3-1.8-0.5-2.8c-0.2-1-0.4-1.9-1-2.7
		C325.1,104.1,324.2,103.5,323.4,103.5z"/>
	<path class="st0" d="M303.4,119.2c-0.9-0.3-1.8-0.4-2.5-0.1c-0.7,0.3-1.1,1.1-1.3,1.7c-0.1,0.6,0,1.1,0.4,1.5
		c0.3,0.4,0.8,0.7,1.3,1.2c0.5,0.4,1,1,1.2,1.5c0.3,0.6,0.3,1.2,0.6,1.5c0.3,0.3,0.8,0.4,1.3,0.2c0.5-0.2,1-0.6,1.3-1.1
		c0.3-0.5,0.5-1.1,0.5-1.9c0-0.8-0.2-1.9-0.7-2.7C305,120.2,304.3,119.6,303.4,119.2z"/>
	<path class="st0" d="M314.9,105.5c-0.9,0-2,0.6-2.2,1.7c-0.2,1.1,0.4,2.6,0.6,4.1c0.2,1.4,0.1,2.8-0.1,4.5
		c-0.2,1.7-0.6,3.7-0.3,5.7c0.3,2,1.3,3.9,2.4,5.5c1.1,1.6,2.4,2.8,3.3,3.3c0.9,0.5,1.4,0.3,1.6-0.5c0.2-0.8,0-2.1-0.7-3.5
		c-0.7-1.4-2-2.9-2.5-4.8c-0.5-2-0.3-4.5,0-6.4c0.3-2,0.9-3.5,1-4.8c0.1-1.3-0.2-2.6-0.8-3.4C316.6,105.9,315.8,105.4,314.9,105.5z"
		/>
	<path class="st0" d="M372.4,198.4c11.5-4.8,23.6-6.8,32.3-8.2c8.7-1.4,14.1-2,20.3-2.3c6.2-0.3,13.2-0.2,22,1.5"/>
	<path class="st0" d="M372,195.6c11.3-7.7,23.5-11.3,34.7-14.2c11.2-2.9,21.5-5.3,31.8-6.5c10.4-1.3,20.8-1.6,30.4-0.7"/>
	<path class="st0" d="M370.4,193.3c11.4-10.1,32.1-19.3,45.7-24c13.6-4.6,20-4.7,35.7-4.6"/>
	<path class="st0" d="M370.1,188.4c9.4-12.2,18.5-18.3,28.4-22.8c9.9-4.5,20.7-7.4,33.2-8.3"/>
	<path class="st0" d="M326.5,201.1c-32.2,8.2-57,17.7-74.3,28.4"/>
	<path class="st0" d="M329,204.5c-2.7,2-12.8,5.8-26.1,13c-13.3,7.2-29.8,17.7-43.1,33.3"/>
	<path class="st0" d="M320.1,142.6c-0.4,3.1-1.3,4.6-2.3,5.6c-1,1.1-1.9,1.7-2.9,2.3c-1,0.6-2,1.3-2.4,1.8c-0.4,0.4-0.3,0.6,1.8,1"
		/>
</g>
</svg>
