<?xml version="1.0" encoding="utf-8"?>
<!-- Generator: Adobe Illustrator 21.0.2, SVG Export Plug-In . SVG Version: 6.00 Build 0)  -->
<svg version="1.1" id="图层_1" xmlns="http://www.w3.org/2000/svg" xmlns:xlink="http://www.w3.org/1999/xlink" x="0px" y="0px"
	 viewBox="0 0 850.4 336.6" style="enable-background:new 0 0 850.4 336.6;" xml:space="preserve">
<style type="text/css">
	
		.st0{clip-path:url(#SVGID_4_);fill:none;stroke:#000000;stroke-width:0.5;stroke-linecap:round;stroke-linejoin:round;stroke-miterlimit:10;}
	.st1{clip-path:url(#SVGID_4_);}
	
		.st2{clip-path:url(#SVGID_4_);fill:none;stroke:#000000;stroke-width:2;stroke-linecap:round;stroke-linejoin:round;stroke-miterlimit:10;}
	
		.st3{clip-path:url(#SVGID_4_);fill:none;stroke:#000000;stroke-width:3;stroke-linecap:round;stroke-linejoin:round;stroke-miterlimit:10;}
	.st4{clip-path:url(#SVGID_4_);fill:none;stroke:#000000;stroke-linecap:round;stroke-linejoin:round;stroke-miterlimit:10;}
	
		.st5{clip-path:url(#SVGID_4_);fill:none;stroke:#000000;stroke-width:0.51;stroke-linecap:round;stroke-linejoin:round;stroke-miterlimit:10;}
</style>
<g>
	<defs>
		<rect id="SVGID_1_" x="0" y="0" width="850.4" height="336.6"/>
	</defs>
	<clipPath id="SVGID_2_">
		<use xlink:href="#SVGID_1_"  style="overflow:visible;"/>
	</clipPath>
</g>
<g>
	<defs>
		<rect id="SVGID_3_" width="850.4" height="336.6"/>
	</defs>
	<clipPath id="SVGID_4_">
		<use xlink:href="#SVGID_3_"  style="overflow:visible;"/>
	</clipPath>
	<path class="st0" d="M613.9,192.9c-6.5,1.8-20.8,0.6-45.2-1.2c-24.4-1.8-18.4-14.9-39.2-13.4c-20.8,1.5-29.1-5.6-37.4-7.4
		c-8.3-1.8-22-20.2-46.3-13.7c-24.4,6.5-39.2,0.6-49.3-4.2c-10.1-4.8-31.5-8.9-38.6-9.5c-7.1-0.6-36.8,8.9-71.3,38.6
		c-34.5,29.7-70.7,30.9-70.7,30.9s54.1,5.3,64.8-3.6c10.7-8.9,61.2-11.9,72.5,0c8.8,9.3,20.5,8.8,25.2,8.1c1.5-0.2,3,0.1,4.6,0.4
		c3.8,0.6,7.4-0.9,21.1,10.6c2,1.7,6.3,0.2,10.5-0.7c1.7-0.3,3.5-0.4,5.2-0.1c4.3,0.8,13.6,1.5,18.5-6.5c5.1-8.3,21.1-7.3,27.8-6.4
		c2.2,0.3,4.4,0.1,6.5-0.4c7.7-2,25.7-7.1,28-10.4c3-4.2,45.7-5.9,53.5-2.4C561.6,205.4,613.9,192.9,613.9,192.9z"/>
	<path class="st0" d="M235.4,181c0,0,55.3-22.6,63-29.1c7.7-6.5,50.5-27.3,74.9-18.4c24.4,8.9,30.3,22,79.6,12.5
		c15-2.1,40.4,12.5,46.7,16.3c1,0.6,2.1,1,3.2,1.2c6.7,1.3,30.2,4.9,32.2,5c4.2,0.3,12.6,5.8,15.2,7.7c0.6,0.4,1.3,0.7,2,0.9
		c8.2,1.8,55.8,11.5,74.2,3.9"/>
	<path class="st0" d="M261,146.6c0,0,87.5-32.9,112.6-18.4c0.6,0.4,1.2,0.7,1.9,1c15.3,6.5,34.9,10.3,37.2,9.7
		c2.4-0.6,40.2,7.1,40.2,7.1"/>
	<path class="st0" d="M383.2,148.6c0,0-1,7.5,0.6,10.1c1.5,2.6,4.3,7.2,4.3,9.6c0,2.5,2.4,3.9,2.3,4.6c-0.1,0.8-1.3,3.2,0,3.6
		c1.3,0.4,6.2-3.6,5.7-8.8c-0.5-5.2,0.9-6.6,2.3-6.1c1.4,0.5,0-7.5,0-7.5"/>
	<path class="st0" d="M402.5,155.7c0,0-1.7,5.1,1.3,6.8c3.1,1.7-0.4,2.8,0.8,4.9c1.1,2,4.7-0.4,4.3-3.6c-0.4-3.2,3.2,1.4,3.2,2.4
		c0,1-1.9,5.2,0,7.5c1.9,2.3,2.5,6.9,2.8,8.3c0.3,1.4,4.3,3.7,5.4,0c1.1-3.7,1.5-12.3,3.4-12.2c1.9,0.1,1.5-9.8,1.5-9.8"/>
	<path class="st0" d="M431.9,159.8c0,0,0.9,6.6,0,7.4c-0.9,0.8-5.9,5.7-3.3,7.1c2.6,1.4,7.7,1,7.7-2.3c0-3.3,1.4-7.6,4.2-4.6
		c2,2.2,3-2.2,3.3-4.9c0.2-1.3,1.3-2.3,2.6-2.3c1.5,0,3,0.7,2.3,3.5c-1.1,5.1-1.6,8.2,0.1,8.6c1.8,0.4,3.6-7.8,5.2-7.9
		c1.7-0.1,4.2-8.1,2.6-8.6"/>
	<path class="st0" d="M310.9,163.8c0,0-6.5,26.9,3,38.1"/>
	<path class="st0" d="M518.4,178.3c0,0,2,15.7-3.7,22.6"/>
	<path class="st0" d="M308.6,184.1c0,0,2.2-1.7,4-0.2c1.8,1.5,2.6,1.3,2.6,2.6c0,1.3,2.4,5.4,6.8,1.5c4.4-3.9,12.3-3.7,14.9-1.5
		c2.6,1.1,8.3,4.2,1.5,5.5c-6.8,1.3-7.5,2.4-4.6,3.9c2.9,1.5,3.5,2.8,0.2,6.7"/>
	<path class="st0" d="M513.6,177.7c0,0-8.4,4.2-11.1,8.8c-2.6,4.6-13.8-0.9-15.1,2.2c-1.3,3.1-2.2,4.8,2.6,4.8
		c4.8,0,11.6-5,11.6,2.4c-1.2,2.6-7,3.8-1.2,5c3,1.8-0.1,3.3-0.1,3.3"/>
	<path class="st0" d="M299,172.2c0,0-2.2,19.1,0,21.8c2.2,2.6-4.2,5.9-6-2.4c-1.8-8.3-7.2,2-2.9,2.9c4.4,0.8,1.3,11.6-2.4,8.2
		c-3.7-3.4-4.4-9.1-7-1.6c-1.5,2.3-4.4,2.8-7.5,1.6c-3.1-1.2-1.8,3.2-3.9,3c-2.2-0.2-8.4-4.4-8.4,4.8c-0.6,4-1.5,4-1.5,4"/>
	<path class="st0" d="M252.6,203.5c0,0,4.6,4.5,2.7,11.1"/>
	<path class="st0" d="M524.3,178.5c0,0,2.4,0,1.8,4c-0.7,3.9,3.3,4.2,4.2,0c0.9-4.2,7.2,1.4,2.4,4c-2.2,4.8-3.3,10.3-1.3,10.5
		c2,0.2,4.6,2.6,5-2.6c0.4-5.3,3.3-6.5,4.8-4.8c1.5,1.7,1.8,4.3,0,5.9c-1.8,1.5,1.2,4.6,1.2,4.6"/>
	<path class="st0" d="M547.3,200.1c0,0-0.2-8.1,4.6-7.9c1.1,0,0.4,3.5,2.6,4c2.2,0.4,3.5-2.9,4.6-2c1.1,0.9,0,4.8,2,4.6
		c2-0.2,4.8-2.2,6.6-1.1c1.8,1.1,4.6-0.2,3.9-2.4c-0.7-2.2,2-3.2,2-3.2"/>
	<path class="st0" d="M429.5,126.6c-3.7-8.3,7.7-28.1,9.4-34.7c1.8-6.6-3.7-9.4-6.4-11c-2.6-1.5-9.4-0.9-12.3-1.1
		c-2.9-0.2-5-4.6-11.6-5.3c-6.6-0.7-4.4,3.3-11,1.1c-16.5-5.5-12.3-2.6-16.5,1.1c-4.2,3.7,1.7,16.9,1.7,16.9s3.7,15.7,5.8,17.5
		c2.1,1.8,10.8,18.2,10.4,17.1l0.3,0.6l0.8-0.7"/>
	<path class="st0" d="M439.3,133.2c0,0,14.4-6.4,22.7-4.8c8.3,1.5,8.1-6.1,6.8-8.3c-1.3-2.2,2.5-1.5,0.7-9.7
		c-1.8-8.1,0.8-8.1,5.9-8.8c5-0.7,4.6-7.2,3.1-7.2c-1.5,0-3.9,1.3-3.9,1.3s-10.5,5.9-15.1,2.4c-4.6-3.5-14.5-6.8-18.7-1.5
		c-4.2,5.3-5.2,3.9-5.2,3.9"/>
	<path class="st0" d="M380.6,87.1c0,0-7.5,12.7,2.3,19.3c0.8,0.9,4.6,3.2,6.6,5.8"/>
	<path class="st0" d="M399.1,131.3c0,0-0.3-4.5,4.8-4.1c5,0.4,7.8,2.1,10.5,1.1c2.7-1,14.1-3.8,17.5-1.1c3.5,2.7,6.8,7.9,14.2,8.3
		c7.4,0.5,15.9,5,15.9,5s1.2,1.2-0.8,1.6c-2,0.4-16.2-3.9-18.7-4c-2.4-0.1-3-2.1-6-1.6c-3.1,0.5-4.5-1.5-10.6-1.9
		c-6.1-0.4-12.9-1.5-12.9-1.5s-3.2-1.5-4.5,0C407.1,134.7,401.3,136.9,399.1,131.3z"/>
	<path class="st0" d="M399.4,128.9c0,0-6-6.3-8.4-6.2c-2.4,0.1-6.5-1.4-8.4,0l-7.8,3.4"/>
	<path class="st0" d="M399.1,130.2c0,0-7.4-4.4-10.4-4.6c-3.1-0.2-5.2-1.1-5.2-1.1l-11-2.3"/>
	<path class="st0" d="M409.5,132.6c0,0-3.7,4.1-3.8,4.5c0,0,0,0.1,0,0.1l-0.2,0.4l-0.2,0.3"/>
	<polyline class="st0" points="411.8,133.2 408.2,137.6 407.7,139.9 	"/>
	<polyline class="st0" points="430.9,135.9 431.9,140.6 431.4,142.9 	"/>
	<polyline class="st0" points="433.2,136.2 433.8,139.9 433.2,141.8 	"/>
	<polyline class="st0" points="414.9,133.4 411.8,137.2 411.4,138.9 	"/>
	<polyline class="st0" points="435.8,136.6 437.9,140.3 436.9,142.1 	"/>
	<path class="st0" d="M379.7,82.1c0,0,2.5-5.6,10.3-1.1c7.8,4.4,10.9,1,15.2,1.6c4.3,0.6,6.8-1.7,10.2,2.3c3.4,4,9.2,4.4,9.2,4.4
		s4.7-2.6,6.9,1.8c2.2,4.4,5.5,6.3,5.5,6.3"/>
	<path class="st1" d="M373.3,122.3c0,0.7-0.5,1.2-1.2,1.2c-0.7,0-1.2-0.5-1.2-1.2c0-0.7,0.5-1.2,1.2-1.2
		C372.8,121.1,373.3,121.6,373.3,122.3"/>
	<path class="st1" d="M376,126.1c0,0.7-0.5,1.2-1.2,1.2c-0.7,0-1.2-0.5-1.2-1.2s0.5-1.2,1.2-1.2C375.4,124.9,376,125.4,376,126.1"/>
	<path class="st0" d="M431.9,109.3c-4.8-8.2-7.8-5.2-14.3-5.8c-6.5-0.6-8-8.7-11.5-6.9c-3.5,1.9-3.7,0.7-8.9-2.9
		c-9.4-7.4-13.2,4.2-13.2,4.2"/>
	<path class="st0" d="M434,103.9c0,0,4.4,3.5,7.6-1.5c3.3-5,8.3-3.7,8.3-1.6c0,2.2,1,3.8,3.6,2.6c2.6-1.2,3.7,1,4.7,1
		c0.9,0,2.6-3.3,4.9-2.5c2.3,0.8,16.7-4.2,16.3-6.3"/>
	<path class="st0" d="M381.2,76.8c0,0,4.3-2.5,8.3,0c4,2.5,10,3.7,12.1,3c2.1-0.7,8.2-3,12.9,0.2c4.8,3.2,6.2,5.4,8.7,5
		c2.6-0.3,6.4-0.9,8,0.9c1.6,1.9,7.1,5.5,6.8,8.4"/>
	<path class="st0" d="M408.9,82.5c0,0-1.4,13.3,0,14.8"/>
	<path class="st0" d="M416.4,85.8c0,0-2.5,14.6-2.6,16.3"/>
	<path class="st0" d="M424.5,89.2c0,0-5.6,6.6-5.1,13.9c0,0,2.8,2.3,2.5,4.9c-0.3,2.6,0.5,16.4,2.6,18.1"/>
	<path class="st0" d="M430.7,89.9c0,0-5,9.8-4.9,13.8"/>
	<path class="st0" d="M425.9,126.1c-0.9-8.7,1.5-21.8,1.5-21.8"/>
	<path class="st0" d="M416.4,103.3c0,0-1.1,0.2,0.6,2.9c1.7,2.7,0,17.5,3.6,20.6"/>
	<path class="st0" d="M396.6,93.8c0,0,1.5,6-0.7,5.9c-7.3-0.3-7.1-19.3-7.1-19.3"/>
	<path class="st0" d="M402.2,83.1c0,0-1.9,9.8,0,13.4c0.7,1.6-1.5,2.5-1.5,2.5c-5.8-0.2-4.8-15.9-4.8-15.9"/>
	<line class="st0" x1="396.5" y1="99.5" x2="399.4" y2="104.2"/>
	<path class="st0" d="M400.7,99c0,0,1.7,3.4,1.7,4.1"/>
	<path class="st0" d="M405.2,97c0,0,0.3,3.3,1.1,4l0.5,0.5"/>
	<path class="st0" d="M388,92.3c0,0,3.4,6.1,2.3,8.7c-1.1,2.6-4.8-3.8-5.9-4"/>
	<path class="st0" d="M386.9,107.8c0,0,11.6,4.8,12.5,6.5c0.9,1.7,9.5,11.7,9.5,13.4"/>
	<path class="st0" d="M393.2,118.1c0,0,3.5-0.8,4.7,0c1.3,0.8,7.9,9.2,7.9,9.2"/>
	<line class="st0" x1="390.2" y1="101" x2="397.1" y2="106.4"/>
	<path class="st0" d="M397.1,107.6c0,0-1-3.7,9.3-5.8c1.7,0,2.6-1.4,3.8,1.8c1.2,3.3-1.2,0.3-4.4,4.5c-3.2,4.2-1.3,4.3-4.3,4
		C400.7,111.7,397.1,108.9,397.1,107.6z"/>
	<path class="st0" d="M403.8,115.2c0,0,0.2-2.7,4.5-4.3c2.2-1.1,2-2.4,3.5-1.5c1.4,0.9,1.6,0.1,2,0.5c0.4,0.4,2.6,2,0,3.7
		c-2.6,1.6-4.8,6.4-5.1,6.4C408.3,119.8,407.8,121,403.8,115.2z"/>
	<line class="st0" x1="409.5" y1="105.6" x2="411" y2="109"/>
	<line class="st0" x1="403.8" y1="111.5" x2="404.8" y2="113.1"/>
	<path class="st0" d="M408.9,119.5c0,0,1.9,1.4,2.4,4.6c0.5,3.3,1.8,4.5,1.8,4.5"/>
	<path class="st0" d="M412.6,114.5c0,0,1.6,1.6,3,6.6c1.4,5,2.4,5.7,2.4,5.7"/>
	<path class="st0" d="M379.9,83.9c0,0,6.7,1,7.2-0.8c0.4-1.8,1.4-3,0.6-3.3"/>
	<path class="st0" d="M388.8,83.4c0,0,3.4,3.6,5.6,2.4c2.2-1.2,1.4-1.1,1.4-1.1s0.3,2.7,2.4,2c2.1-0.7,3.5-0.7,3.7-1.8
		c0,0,1.1,1.9,3.9,1.4c2.8-0.5,2.8-1.4,2.8-1.4s1.7,2.6,3.9,2.9c2.2,0.3,3.4,0.3,3.4,0c0.1-0.3,0.2,3.1,2,3.4c1.8,0.3,4,0.2,4.7-0.2
		c0,0-0.7,2.8,1.8,2.7c2.5-0.1,4.6-0.6,4.7-0.9c0.1-0.3-1.2,5.3,3.1,6.4c4.3,1.1,3.8-0.3,3.8-0.3"/>
	<path class="st0" d="M441.1,103c0,0,2.3,0,4.9,3.3c2.6,3.3,2.1-0.7,8,0c0,0,2.2-0.4,2.7,2.6c0.8,1.3,3.4-1.2,4.9-0.9
		c1.4,0.3,6.5,1.5,7.4,2.7c0.8,1.1,0.7,0.5,0.7,0.5"/>
	<path class="st0" d="M432.5,107.6c0,0,0.4,2.2,5.6,1.4c5.2-0.8,7.1,3.5,7.1,3.5s1.6,2.2,3.1,1c1.4-1.3,3.3-0.6,3.5,0.4
		c0.2,1,2.5-0.8,3.6,1.2c1.2,2,2.9,0.9,3.5,0.1c0.6-0.7,1.4,2.5,2.9,1c1.4-1.5,5.8-2.9,7.9-0.6"/>
	<path class="st0" d="M428.9,119.9c0,0,4.9-5.8,6.6-2.3c0,0,4.8-2.7,4.4,1.9c0,0,0.6,1.8,2.5,0.5c1.8-1.3,3.4,1.2,3.4,1.2
		s3.8,1,2.1,2.3"/>
	<path class="st0" d="M440,104.1c0,0-3.3,5.8-3.2,9.3c0.2,3.5-5,13.3-5,13.3"/>
	<path class="st0" d="M446.9,107.3c0,0-10.4,20.1-13.4,20.3l-1,0.2"/>
	<path class="st0" d="M456.7,109c0,0-7.6,10.6-10.4,12.4c-2.8,1.8-11.6,8.4-11.6,8.4"/>
	<path class="st0" d="M467,109.6c0,0-8.3,10.5-13.5,11.9c-5.2,1.4-8.2,3.5-9.7,5.2c-1.5,1.7-5.6,6.3-7.8,4.2"/>
	<path class="st0" d="M468.5,119c0,0-5.9,0-13.1,1.8"/>
	<path class="st0" d="M436.9,110.9c0,0-3.7-0.5-4.4,1.2c-0.7,1.7,4.4,1.4,4.4,1.4"/>
	<path class="st0" d="M443.6,113.5c0,0-3-1.8-4.3,0c-1.3,1.8,2.6,3,2.6,3"/>
	<path class="st0" d="M450.4,117.2c0,0-2.8-2.5-4.2-0.7c-1.4,1.8,1.8,3.4,1.8,3.4"/>
	<path class="st0" d="M452.5,121.6c0,0-1.3-3,1-3.6c2.4-0.7,2.4,2.5,2.4,2.5s-0.8,4.2-4.4,5.6c-3.6,1.4-5,3,1.8,2.5"/>
	<path class="st0" d="M445.1,125.5c0,0-1.6,4.8,0.1,5.1"/>
	<path class="st0" d="M462.6,115.4c0,0-1,3.5,2,3.5"/>
	<path class="st0" d="M462,128.3c0,0-3.7-5.4-0.4-6.3c3.2-0.9,3.1,0.5,3.1,6.5"/>
	<path class="st0" d="M399.1,131.3c0,0,0.6-2.4,3.2-0.3c2.6,2.1,0.9,3.9,0.9,3.9"/>
	<path class="st0" d="M424.1,126.2c0,0-0.5,5,0.4,5.2c0.8,0.3,2,0.4,1.8-5.2"/>
	<path class="st0" d="M428.9,126.2c0,0-0.9,5.2,0,5.6c0.9,0.4,2.1-1.7,2.6-4.8"/>
	<path class="st0" d="M433.2,128.8c0,0-1.4,4.9,0,4.8c1.4-0.1,2.5-2,2.3-3.1"/>
	<path class="st0" d="M439.5,133.6c0,0,1.5,2.1-0.5,2.9"/>
	<path class="st0" d="M443.1,135c0,0,1.6,2.1-0.6,3.1"/>
	<path class="st0" d="M446.9,135.5c0,0,2.1,2.6-0.5,3.4"/>
	<path class="st0" d="M451.1,136.2c0,0,1.5,2.4-0.8,3.7"/>
	<path class="st0" d="M454.5,137.3c0,0,0.9,3-0.9,3.3"/>
	<path class="st0" d="M457.9,138.6c0,0,1.2,2.2-0.9,2.9"/>
	<path class="st2" d="M391,199.1c0,0-1.5-1.4-2.1-5.9c1.3-16.3-15.5-19.6-15.5-19.6s-16.4-4.1-19.9,5.5c-3.5,9.6-10.9,7.3-10.9,7.3"
		/>
	<path class="st3" d="M383.5,179.8c0.3,0.9,0.4,1.9,0.4,2.9c0,5.9-4.8,10.7-10.8,10.7c-5.9,0-10.8-4.8-10.8-10.7
		c0-3.9,2.1-7.2,5.2-9.1"/>
	<path class="st1" d="M375.7,183.5c0,1.9-1.5,3.4-3.4,3.4c-1.9,0-3.4-1.5-3.4-3.4c0-1.9,1.5-3.4,3.4-3.4
		C374.2,180.2,375.7,181.7,375.7,183.5"/>
	<path class="st4" d="M365.3,175.4c0,0,5.1-3.5,9.8,1.1c4.7,4.6,3.4,13.7,3.4,13.7"/>
	<path class="st4" d="M383,183.4c0.7-1.3-2-4.2-2-4.2s-2.7-1.8-2.8,0.8c-0.1,2.6,0.3,4.6,0.3,4.6s0.4,5.9-1.7,7.3"/>
	<path class="st1" d="M377.7,174.9c0,0.6-1.1,1.1-2.6,1.1c-1.4,0-2.6-0.5-2.6-1.1c0-0.6,1.1-1.1,2.6-1.1
		C376.6,173.8,377.7,174.3,377.7,174.9"/>
	<path class="st1" d="M379.8,176.2c0,0.6-1.1,1.1-2.6,1.1c-1.4,0-2.6-0.5-2.6-1.1c0-0.6,1.1-1.1,2.6-1.1
		C378.7,175.1,379.8,175.6,379.8,176.2"/>
	<path class="st1" d="M381,177.4c0,0.6-1.1,1.1-2.6,1.1c-1.4,0-2.6-0.5-2.6-1.1c0-0.6,1.1-1.1,2.6-1.1
		C379.9,176.3,381,176.8,381,177.4"/>
	<path class="st1" d="M382,177.6c0,0.6-1.1,1.1-2.6,1.1c-1.4,0-2.6-0.5-2.6-1.1c0-0.6,1.1-1.1,2.6-1.1
		C380.8,176.5,382,177,382,177.6"/>
	<path class="st1" d="M378,175c0.6,0,1,1.2,0.9,2.6c-0.1,1.4-0.6,2.5-1.2,2.5c-0.6,0-1-1.2-0.9-2.6C376.9,176.1,377.5,175,378,175"
		/>
	<path class="st1" d="M381,177.1c0.5-0.3,1.5,0.5,2.2,1.7c0.7,1.2,0.8,2.5,0.3,2.8c-0.5,0.3-1.5-0.5-2.2-1.7
		C380.6,178.6,380.5,177.4,381,177.1"/>
	<path class="st0" d="M359.8,173.6c0,0-5.6,6.8-5.2,12.9c0.4,6.1,11.7,12.9,21.4,11.6c9.7-1.3,13.2-3.9,13-6.1"/>
	<path class="st4" d="M343.4,186.7c0,0,7.4,2.4,9.5,7.9c2.6,6.8,20.4,9.5,25.5,5.5c3.3-2.6,12.5-0.9,12.5-0.9"/>
	<path class="st0" d="M354.6,186c0,0-5.8-1.1-7.4,0.4"/>
	<path class="st0" d="M384,196.3c0,0,3.3,0.7,5.3,2.9"/>
	<path class="st2" d="M436.9,199.9c0,0,7.7-8.3,8.3-13.3c0.6-5,17.2-14.6,31-7.2c2.8,1.5,8.9,11.1,9.7,11"/>
	<path class="st3" d="M465.5,177.7c2.9-0.3,3.9,4.5,3.9,7.7c0,5.3-4.3,9.6-9.6,9.6s-9.6-4.3-9.6-9.6c0-1.1,0.2-2.1,0.5-3.1
		C450.7,182.3,454.1,178.7,465.5,177.7z"/>
	<path class="st4" d="M460.6,188L460.6,188c-1-0.6-1.4-1.9-0.8-3l1.1-1.9c0.6-1,1.9-1.4,3-0.8c1,0.6,1.4,1.9,0.8,3l-1.1,1.9
		C463,188.2,461.7,188.6,460.6,188z"/>
	<path class="st1" d="M460.6,188c-1-0.6-1.4-1.9-0.8-3l1.1-1.9c-0.5-0.3-1.1-0.5-1.8-0.5c-2.1,0-3.8,1.7-3.8,3.8
		c0,2.1,1.7,3.8,3.8,3.8c1.5,0,2.8-0.9,3.4-2.1C461.9,188.4,461.2,188.4,460.6,188"/>
	<path class="st4" d="M440.7,195.3c0,0,2.5,8.4,14.6,7.7c12.1-0.7,19.7-4.8,21-6.4c1.3-1.6,8.7-8,10.3-6"/>
	<path class="st4" d="M436.9,199.9c0,0-0.2,3.9,7.8,0.6"/>
	<path class="st5" d="M443.6,190.9c0,0,2.6,10.5,14.1,9c11.5-1.5,25.2-7.3,21.7-17.3"/>
	<path class="st0" d="M396.7,200.9c0,0-3.8,15.3,9.3,12.9c3.6,0.2,3.6,3.2,4,4.7c0.4,1.5,7.2,6.4,9.8,0c2-5.1,5-4.9,6.1-4.6
		c0.4,0.1,0.9,0.1,1.3,0c2-0.6,6.7-2.9,3.6-12.1"/>
	<line class="st0" x1="415.9" y1="227.8" x2="415.9" y2="221.6"/>
	<path class="st0" d="M397.9,211.6c0,0,3.7,0.5,5.4-2.4s7-2.6,8-1.4c1,1.3,6.5,2.3,7.5,0.2c1-2.2,6-1.5,6.9,0.2
		c0.9,1.7,5.3,2.8,5.3,2.8"/>
	<path class="st1" d="M402.5,214c0,0,3.3-2.5,3.8-2.7c0.2-0.1,3-0.8,4.8,2.4c1.5,2.6-0.8,4.6-1,4.8c0,0-0.7-3.5-1.6-3.8
		c-0.9-0.3-1.7-1.4-4.2-0.7"/>
	<path class="st1" d="M427.3,213.8c-1.1,0.1-4.1-3.1-6.8-2.2c-2.7,0.9-0.7,6.8-0.7,6.8S421.8,212.9,427.3,213.8z"/>
	<line class="st0" x1="415.9" y1="215.1" x2="415.9" y2="221"/>
	<path class="st0" d="M407.1,202.5c0,0-1.3,3.2-0.5,4.2"/>
	<path class="st0" d="M422.1,202.5c0,0,1.6,1.7,0.8,3.8"/>
	<path class="st0" d="M431.9,216.4c0,0,31.6-11.3,49.7-10.1"/>
	<line class="st0" x1="431.9" y1="219.8" x2="443.4" y2="216.4"/>
	<path class="st0" d="M453.5,213.9c0,0,35.3-6,36.8-5.6"/>
	<line class="st0" x1="430.4" y1="222.7" x2="436.9" y2="222.7"/>
	<path class="st0" d="M395.2,215.8c0,0-34.5-8.9-43.2-7.2"/>
	<path class="st0" d="M395.2,219.3c0,0-30.1-6.4-32.9-3.5"/>
	<line class="st0" x1="619" y1="192.9" x2="613.9" y2="192.9"/>
	<path class="st0" d="M502.2,203.1c0,0,24-3.2,37.7,1.9c3.8,1.4,7.5,2.7,11.4,3.7c15.3,3.8,46.3,12.4,46.3,12.4l21.3-28.2"/>
	<line class="st0" x1="611.6" y1="193.4" x2="590" y2="219"/>
	<line class="st0" x1="602.4" y1="195.5" x2="583.5" y2="217.2"/>
	<line class="st0" x1="593" y1="197.5" x2="576.9" y2="215.1"/>
	<line class="st0" x1="584.9" y1="199.1" x2="570.4" y2="213.6"/>
	<line class="st0" x1="576.9" y1="200.5" x2="564.8" y2="212.1"/>
	<line class="st0" x1="568.6" y1="201.7" x2="558.7" y2="210.6"/>
	<line class="st0" x1="562.1" y1="202.3" x2="553.2" y2="209.1"/>
	<line class="st0" x1="553.9" y1="201.8" x2="547.3" y2="207.5"/>
	<line class="st0" x1="549.8" y1="200.8" x2="542" y2="205.7"/>
	<line class="st0" x1="543.5" y1="200.2" x2="537.5" y2="204.2"/>
	<line class="st0" x1="535.8" y1="199.9" x2="532.5" y2="203.1"/>
	<path class="st0" d="M374.9,134.1c0,0,23.2,5.2,25.8,3"/>
	<path class="st0" d="M407.9,147.7c0,0-15.9-10.4-19.9-11.1"/>
	<path class="st0" d="M421.9,149.3c0,0,22.6-5.5,29.6-3.6"/>
	<polyline class="st0" points="395.5,139.4 413.6,143.6 423.1,140.7 	"/>
	<polyline class="st0" points="402.3,143.6 416,146.6 430.9,142.1 	"/>
	<path class="st0" d="M409.5,139c0,0,8,8.3,8,9.5"/>
	<path class="st1" d="M399.4,218.5c0,0.4-0.3,0.7-0.7,0.7c-0.4,0-0.7-0.3-0.7-0.7s0.3-0.7,0.7-0.7
		C399,217.8,399.4,218.1,399.4,218.5"/>
	<path class="st1" d="M429.9,218.1c0,0.4-0.3,0.7-0.7,0.7c-0.4,0-0.7-0.3-0.7-0.7c0-0.4,0.3-0.7,0.7-0.7
		C429.6,217.3,429.9,217.7,429.9,218.1"/>
	<path class="st1" d="M428.4,220.9c0,0.4-0.3,0.7-0.7,0.7c-0.4,0-0.7-0.3-0.7-0.7s0.3-0.7,0.7-0.7
		C428.1,220.2,428.4,220.5,428.4,220.9"/>
	<path class="st1" d="M400.1,220.9c0,0.4-0.3,0.7-0.7,0.7c-0.4,0-0.7-0.3-0.7-0.7s0.3-0.7,0.7-0.7
		C399.8,220.2,400.1,220.5,400.1,220.9"/>
</g>
</svg>
