<?xml version="1.0" encoding="utf-8"?>
<!-- Generator: Adobe Illustrator 21.0.2, SVG Export Plug-In . SVG Version: 6.00 Build 0)  -->
<svg version="1.1" xmlns="http://www.w3.org/2000/svg" xmlns:xlink="http://www.w3.org/1999/xlink" x="0px" y="0px"
	 viewBox="0 0 737 303" style="enable-background:new 0 0 737 303;" xml:space="preserve">
<style type="text/css">
	.st0{fill:none;stroke:#000000;stroke-width:0.5;stroke-linecap:round;stroke-linejoin:round;}
</style>
<g id="_x3F__x3F__x3F_">
</g>
<g id="_x3F__x3F__01">
	<path class="st0" d="M641.5,114.1c1.3,0.8,1.2,1.1,0.3,2.4c-1,1.3-2.8,3.6-4.1,4.9c-1.3,1.2-2,1.4-3.9,1.5"/>
	<path class="st0" d="M630.3,121.9c2.9-0.8,4.9-1.6,5.9-2.3"/>
	<path class="st0" d="M632.6,119c2.3-0.1,4.4-0.7,6.2-1.7"/>
	<path class="st0" d="M636.7,112.7c2.4-0.5,4.8-1.6,7.1-3.4"/>
	<path class="st0" d="M630.5,112.6c1.6,1.5,2.4,3.4,2.4,5.8"/>
	<path class="st0" d="M626.4,110.9c2.6,2.9,4.1,6.3,4.6,10.1"/>
	<path class="st0" d="M625.5,117.7c1.7,1.2,2.5,3.5,2.5,6.9"/>
	<path class="st0" d="M629,107c-1.8-0.9-2.3,0-3.1,1.4c-0.8,1.4-1.9,3.3-2.4,4.7c-0.5,1.4-0.6,2.4-0.2,4.8c0.3,2.3,0.9,6,2.4,9"/>
	<path class="st0" d="M641.7,103.6c1.4-0.5,2.8-1.3,4-2.4"/>
	<path class="st0" d="M641.3,91.8c0,4,0.6,6.8,1.9,8.4"/>
	<path class="st0" d="M639.1,94.2c0.1,3.8,1,7,2.6,9.5"/>
	<path class="st0" d="M636.1,96.5c0,4.1,1.6,5.5,2.3,6.8c0.7,1.3,0.4,2.6,1.1,4.6"/>
	<path class="st0" d="M629.7,111.2c-0.9-4.3-0.9-4.9-0.2-6.2c0.7-1.3,2-3.3,2.8-4.3c0.8-1,1.1-1.1,1.4-0.5c0.2,0.6,0.4,1.9,0.7,2.9
		c0.3,1,0.7,1.5,0.9,1.6c0.2,0.1,0.3-0.4,0.2-1.3s-0.2-2.3-0.2-3.6s0.2-2.4,0.6-2.9c0.3-0.6,0.8-0.6,1.8-1.4c1-0.8,2.5-2.3,3.5-3.4
		c1-1.1,1.4-1.8,1.8-2.1c0.4-0.3,0.6-0.3,0.8,0.1c0.2,0.4,0.2,1.1,0.4,1.3c0.1,0.3,0.3,0.2,0.5-0.3c0.2-0.5,0.5-1.2,0.8-1.9
		s0.9-1.3,1.5-1.4c0.5-0.1,1.1,0.4,1.5,1.6s0.8,2.9,0.9,4.5c0.1,1.6-0.1,2.9-0.3,3.7c-0.3,0.8-0.6,0.9-0.4,1.3
		c0.2,0.4,0.9,1.1,1.2,1.7c0.3,0.6,0.1,1.1-0.8,2c-1,0.9-2.8,2.1-3.8,2.9c-1,0.8-1.2,1.2-0.8,1.2s1.4-0.4,2-0.3
		c0.6,0.1,0.6,0.6,0.3,1.7c-0.3,1.1-1.1,2.6-2.2,3.9c-1,1.3-2.4,2.3-6,3.4"/>
	<path class="st0" d="M646.6,91.2c-4.2,12.4-8.2,19.2-12.1,25c-3.9,5.7-7.5,10.4-15.4,15.8"/>
	<path class="st0" d="M526.7,161.6c-0.3,2-0.1,3.7,0.6,5.1"/>
	<path class="st0" d="M525.4,161.3c-0.5,2.6-0.4,5.5,0.2,8.5"/>
	<path class="st0" d="M523.4,166.7c-0.2,2,0.2,3.5,1.3,4.5"/>
	<path class="st0" d="M520.5,166.8c-1.3,0.7-1.6,1-1.8,2c-0.2,1-0.3,2.6-0.3,3.9c0,1.3,0.1,2.3,2,3.9"/>
	<path class="st0" d="M523.3,161.1c-1.8,0-3.1,2-2.9,9.2"/>
	<path class="st0" d="M527.2,156.1c-2.1,0-2.9,1-3.4,2.5c-0.5,1.5-0.7,3.4-0.4,6.5"/>
	<path class="st0" d="M529.3,170.8c0.9,1.3,0,2.5-0.8,3.5c-0.8,0.9-1.4,1.5-1.9,1.8c-0.5,0.3-0.7,0.3-1.4,0.2
		c-0.7-0.1-1.7-0.3-4.8,0.3"/>
	<path class="st0" d="M532.4,164.1c-0.7,2.8-0.4,3.6-0.5,4.3c-0.1,0.6-0.5,1-1.4,1.7s-2.3,1.6-4.9,2.1"/>
	<path class="st0" d="M534.6,158.3c-1.9,2.7-4,4.7-6.1,5.9"/>
	<path class="st0" d="M534.6,155.5c-2.1,2.8-3.8,4.5-5,5.3"/>
	<path class="st0" d="M526.6,159.4c0.2-4,1.9-6,3.2-7.4c1.4-1.4,2.4-2.1,3-2.4c0.6-0.2,0.8,0,1.1,1.4c0.3,1.4,0.7,3.8,0.7,6.1
		c0,2.3-0.6,4.3-1,5.4s-0.7,1.3-1.7,1.8c-0.9,0.5-2.5,1.2-3.7,2.6"/>
	<path class="st0" d="M531.2,152.9c-0.6,6.9-2.7,11.5-4.4,14.8c-1.8,3.3-3.2,5.4-4.8,7.3c-1.6,1.8-3.5,3.5-6.4,4.7"/>
	<path class="st0" d="M417.2,118.6c-2.1,0.3-2.4,0.9-2.2,2c0.2,1,0.8,2.5,2.1,4.2"/>
	<path class="st0" d="M419.2,111.1c-0.5,2.9,0.2,5.5,2.1,7.7"/>
	<path class="st0" d="M418.6,111.1c2.9,0.2,4.2,2.2,4.7,4.4"/>
	<path class="st0" d="M419.7,104.6c0,2.1,1.7,4.4,2.9,4.7"/>
	<path class="st0" d="M425,101.4c-1.8-1.3-2.6-0.8-3.5,0.3c-0.9,1.1-1.9,2.7-2.3,3.9c-0.4,1.2-0.4,1.8-0.2,2.6
		c0.1,0.8,0.3,1.7,0,2.4c-0.3,0.7-1.1,1.1-1.6,1.9c-0.5,0.7-0.9,1.7-1,2.8c-0.1,1,0,2.1,0.6,3.2c0.6,1.1,1.6,2.2,2.4,4.7"/>
	<path class="st0" d="M427.7,91.3c-3.1,5.1-3.2,7-2,14.8"/>
	<path class="st0" d="M440.1,99.3c-3.7,4.2-5.6,5.4-7.3,6.4c-1.7,1-3.2,2-4.4,1.7"/>
	<path class="st0" d="M439.9,95.4c-3,4.8-6.8,7.7-10.9,9.9"/>
	<path class="st0" d="M439.4,92.1c-2.9,4.5-6.6,7.6-9.4,9.3"/>
	<path class="st0" d="M424.2,124c0,1.8-0.2,2.2-0.6,2.3c-0.3,0.1-0.8-0.2-1.7-0.5c-0.9-0.3-2.1-0.7-4.9-1"/>
	<path class="st0" d="M429.9,118.9c0.7,1.8,0.3,2.1-0.3,2.4c-0.6,0.3-1.4,0.7-1.9,1.2c-0.5,0.6-0.7,1.4-0.9,1.8
		c-0.3,0.5-0.6,0.6-1.4,0.2s-2.1-1.2-3.5-1.6"/>
	<path class="st0" d="M434.2,114c0.4,1.5-0.3,2.9-0.9,3.8c-0.7,0.8-1.3,1.1-2.4,1.2c-1.1,0.1-2.8,0-5.3-1.1"/>
	<path class="st0" d="M435.9,110.3c0,2.4-0.8,3.3-2,3.9c-1.2,0.6-2.6,0.9-4.1,1.1"/>
	<path class="st0" d="M437.4,105.9c0.7,2.4-0.2,3.5-1.4,4.3s-2.5,1.3-4.6,1.4"/>
	<path class="st0" d="M428.7,96c-1.9-6.8-1.2-9.4-0.2-11.1c0.9-1.7,2-2.4,3.4-2.3c1.4,0.1,3.1,1,4.6,2.8c1.4,1.8,2.6,4.4,3.1,7.8
		c0.6,3.3,0.6,7.3,0.4,9.4c-0.2,2.1-0.6,2.3-1.9,3.1c-1.3,0.8-3.6,2.2-5.6,3.2c-2,1-3.6,1.7-5,1.4"/>
	<path class="st0" d="M431.5,89.6c-0.7,12-3.2,19.2-5.9,24.7c-2.7,5.5-5.6,9.3-12,12.6"/>
	<path class="st0" d="M578.2,270.5c7.9,6.9,9.3,10.2,10.1,13.2c0.8,3,1.1,5.7,0.3,8.4"/>
	<path class="st0" d="M578.7,274.9c4,8,3.6,10.5,3.6,11.8c0,1.2,0.3,1.2,0.7,0.7c0.4-0.5,0.7-1.4,1-1.6c0.3-0.2,0.6,0.4,0.3,6.3"/>
	<path class="st0" d="M578.7,282.2c0.7,1.8,1.1,4,1.2,6.4"/>
	<path class="st0" d="M567.8,263.4c1.3,1,1.3,0.5,1.3-0.4c-0.1-0.9-0.2-2.1-0.4-3.2c-0.3-1.1-0.8-2.1-1-2.7c-0.2-0.6-0.1-1,0.4-0.5
		c0.5,0.5,1.5,1.7,2.1,2.7c0.6,1,0.9,1.9,1.2,2.2c0.2,0.4,0.4,0.3,0.5,0c0.1-0.3,0.1-1,0.2-1.2c0.1-0.2,0.3-0.1,1.1,0.8
		c0.8,0.8,2.1,2.3,4.5,7.3"/>
	<path class="st0" d="M553,238.9c1.1,1.2,1.4,3.7,1.8,5c0.5,1.3,1.1,1.4,1.8,2.3c0.6,0.8,1.2,2.4,1.6,4c0.4,1.6,0.5,3.3,0.4,4.6
		c-0.1,1.3-0.3,2.4-0.3,2.9c0,0.5,0.2,0.5,0.6,0.1c0.4-0.4,0.8-1.1,1.2-1.4c0.4-0.3,0.6-0.1,0.6,0.7c0,0.7-0.3,2-0.2,2.7
		c0,0.7,0.3,1,0.7,0.7c0.4-0.3,0.9-1.1,1.3-1.5c0.4-0.4,0.7-0.3,0.8,0.2c0.1,0.5,0.1,1.5,0.3,2.1c0.2,0.6,0.5,0.7,0.9,0.2
		c0.3-0.4,0.7-1.5,1-2.1c0.3-0.6,0.6-0.8,1.2,0.3c0.5,1,1.3,3.3,1.7,5.7c0.4,2.4,0.6,5,0.4,8.2c-0.2,3.2-0.8,7.2-2.1,9.8"/>
	<path class="st0" d="M551.8,227.2c1.4,0.4,2.3,3.7,3,4.8c0.7,1.2,1.1,0.3,2.1,1.3c0.9,1,2.3,3.9,3.3,7.5c1,3.6,1.5,7.7,1.8,10.2
		c0.2,2.5,0.1,3.3,0.3,3.6c0.2,0.3,0.6,0.2,0.9-0.7c0.3-1,0.5-2.9,0.6-4.2c0.1-1.3,0.1-2.1,0.3-2.3c0.2-0.2,0.6,0.2,1.1,1.2
		c0.5,1,1.1,2.7,1.5,3.7c0.4,1,0.8,1.1,0.9,0.7c0.2-0.4,0.2-1.5,0-2.6c-0.2-1.1-0.5-2.2-0.6-2.8c0-0.6,0.3-0.7,1.6,0.6
		c1.3,1.3,3.6,4.2,5.4,7.8c1.8,3.7,3.1,8.2,3.9,12.5c0.8,4.3,1.2,8.3,0.9,12.2c-0.2,3.9-1.1,7.7-3.5,11.2"/>
	<path class="st0" d="M537.3,220.2c4.4,3.3,6,6.9,6.9,8.8c0.9,1.9,1.1,2,1.2,1.7s0.4-1.3,0.5-1.8c0.2-0.5,0.4-0.6,0.7-0.1
		c0.3,0.6,0.8,1.8,1.2,2.5c0.3,0.7,0.6,0.8,0.7,0.4c0.2-0.4,0.3-1.3,0.7-1.6c0.4-0.3,1.1-0.1,3.4,3.8"/>
	<path class="st0" d="M543.3,220.3c1.8-1.3,3.6-0.5,5.1,0.7c1.5,1.3,2.7,3,3.5,6.3c0.8,3.3,1.1,8.3,1.2,14.6c0.1,6.3,0,14.1-1,21.3"
		/>
	<path class="st0" d="M527.9,213c1.1-1.2,3.3-0.9,9.4,7.2"/>
	<path class="st0" d="M536.9,228.3c0.8-6.9,0.5-9.7-0.2-11.9c-0.7-2.1-1.7-3.5-2.2-4.3c-0.5-0.9-0.6-1.2,0.6-0.4
		c1.2,0.8,3.5,2.6,5.6,5c2.1,2.4,3.8,5.3,5,9.4"/>
	<path class="st0" d="M530.5,222.9c1.4,0.2,2.3,2.4,2.9,3.5c0.6,1.1,0.8,1.1,1,0.9c0.2-0.3,0.3-0.9,0.6-1.2c0.3-0.3,0.6-0.4,1,0.2
		c0.3,0.5,0.6,1.6,1.1,2.3c0.4,0.8,1,1.3,1.4,1.5c0.4,0.2,0.6,0,0.9-0.4c0.3-0.4,0.6-1,1-1.2c0.4-0.2,0.9,0.1,1.7,0.8
		c0.7,0.7,1.7,1.9,2.6,4.3c0.9,2.5,1.7,6.3,2.1,11.3c0.3,5,0.1,11.2-2.7,16.8"/>
	<path class="st0" d="M502.3,190.9c-1.7-0.7-3.3-1.2-4.5-1.5c-1.4-0.5-2.1-0.7-2.5-1.1c-0.4-0.4-0.6-0.8-0.4-1.2
		c0.2-0.4,0.7-0.6,2.2-0.5c1,0.1,2.3,0.4,4,0.9"/>
	<path class="st0" d="M520.2,208.8c-2.9-6.1-6.1-9.9-8.9-12.5c-1.6-1.5-3.2-2.6-4.6-3.4"/>
	<path class="st0" d="M505.4,189.3c2.4,1.2,5.1,3,8,5.4c3.6,2.9,7.5,6.9,10.4,13.2"/>
	<path class="st0" d="M519.7,213.1c0.3-1.6-0.4-2.7-0.8-3.4c-0.3-0.7-0.3-1,0.3-1.1c0.6,0,1.6,0.3,2.4,0.7c0.8,0.4,1.3,0.9,1.6,1.1
		c0.3,0.2,0.4,0,0.4-0.4c-0.1-0.4-0.3-1.1-0.4-1.6c0-0.5,0.1-0.8,0.8-0.6c0.6,0.2,1.7,1,2.8,2.7c1.1,1.7,2.1,4.5,3,8.3
		c0.9,3.9,1.7,8.9,1.9,14.2c0.2,5.3-0.1,10.8-1.8,16.9"/>
	<path class="st0" d="M503.2,197c-0.3-5.4-1.7-8.7-3.2-11.5c-1.5-2.9-3.2-5.4-4.2-6.9c-1-1.5-1.5-2.1-1.6-2.7
		c-0.2-0.6-0.1-1.2,0.2-1.6c0.3-0.4,0.9-0.7,1.5-0.6c0.6,0.1,1.4,0.6,2.5,2.2c1.2,1.6,2.7,4.3,4.1,7c1.3,2.7,2.4,5.4,3.6,8.4
		c1.1,3,2.3,6.4,2,10.2"/>
	<path class="st0" d="M493.2,197.8c1.9-0.2,3.8,1.5,5,3c1.1,1.5,1.5,2.9,1.8,3.6c0.3,0.7,0.4,0.8,0.5,0.5c0.1-0.2,0.1-0.8,0.2-1.2
		c0.1-0.4,0.2-0.7,0.5-0.5c0.3,0.3,0.9,1.1,1.3,1.9s0.7,1.3,1,1.6c0.2,0.3,0.4,0.2,0.5-0.1c0.1-0.4,0.2-1,0.4-1.4
		c0.2-0.4,0.4-0.4,0.7,0.1c0.2,0.5,0.5,1.6,0.6,2c0.2,0.5,0.3,0.4,0.4,0.2c0.1-0.3,0.3-0.7,0.4-0.9c0.2-0.2,0.4-0.1,0.6,0.4
		c0.2,0.5,0.4,1.5,0.5,2.2s0.2,1.1,0.3,1.2c0.1,0.1,0.3,0,0.5-0.3c0.2-0.3,0.4-0.9,0.6-1.2c0.2-0.3,0.4-0.3,0.9,0.3
		c0.5,0.7,1.4,2,2,3.6c0.5,1.6,0.8,3.4,0.9,4.4c0.2,1,0.3,1.1,0.5,0.8c0.2-0.2,0.4-0.9,0.6-1.2c0.2-0.3,0.5-0.4,0.8-0.1
		c0.3,0.4,0.6,1.2,0.8,2.1c0.2,0.9,0.3,1.8,0.5,2.3s0.2,0.5,0.4,0.4c0.2-0.1,0.5-0.3,0.7-0.4c0.2-0.1,0.4,0,0.5,0.4
		c0.1,0.4,0.3,1.2,0.5,1.7s0.5,0.5,0.7,0.3c0.2-0.3,0.4-0.8,0.6-1.2c0.2-0.3,0.4-0.4,0.8-0.1c0.4,0.3,0.9,1,1.5,2.9
		c0.5,1.8,1.1,4.8,2.9,5.2"/>
	<path class="st0" d="M503.8,197.8c1.2-1.1,2.9,1.1,4.1,3.2c1.2,2.1,1.9,4.2,2.3,5.3c0.5,1.1,0.7,1.3,0.9,1.1
		c0.3-0.2,0.5-0.9,0.8-1.2c0.3-0.3,0.5-0.1,1.2,0.8c0.7,0.9,1.7,2.6,2.3,4.3c0.6,1.7,0.9,3.4,1.1,4.2c0.3,0.8,0.5,0.8,0.7,0.3
		c0.2-0.6,0.2-1.7,0.6-2.3c0.4-0.6,1-0.8,1.8-0.3c0.8,0.5,1.8,1.5,2.7,3.5c0.9,2,1.6,5,2,9c0.4,4.1,0.5,9.2-0.8,17"/>
	<path class="st0" d="M499.2,195.3c1.9-0.6,5.3,1.5,6.1,6.3"/>
	<path class="st0" d="M465.5,158.6c0,0.7,0.3,2,0.9,3.5c0.6,1.5,1.5,3.3,2.4,4.5c0.9,1.3,1.7,2,2.1,2.7c0.4,0.6,0.3,1.1,0.8,1.9
		c0.5,0.7,1.7,1.7,2.5,2.2s1.3,0.3,1.6-0.1c0.3-0.4,0.3-1-0.2-2.1c-0.6-1.1-1.8-2.8-2.6-4.4c-0.8-1.6-1.3-3.1-1.6-4
		c-0.3-0.8-0.5-1-1.1-1.4c-0.6-0.4-1.7-0.9-2.4-1.6c-0.8-0.6-1.2-1.4-1.6-1.7C465.8,157.9,465.5,157.9,465.5,158.6z"/>
	<path class="st0" d="M463.3,177.6c0-1.9-2.8-5.6-5.3-8.4c-2.5-2.8-4.7-4.7-7.1-6.1c-2.3-1.5-4.7-2.5-6.5-3.2
		c-1.8-0.7-2.9-1-3.6-1.4c-0.7-0.4-1.1-0.8-0.3-1c0.8-0.2,2.6-0.3,4.7,0.1c2,0.4,4.3,1.4,5.6,1.9c1.3,0.5,1.7,0.5,2.1,0
		c0.4-0.4,0.8-1.3,1.3-1.8c0.5-0.5,1.2-0.6,2.6,0.1c1.4,0.7,3.6,2.3,5.4,4.2c1.8,1.9,3.2,4.1,4.7,6.7c1.4,2.7,2.9,5.8,3.1,8.8"/>
	<path class="st0" d="M490.7,188c1.3,0,4.9,3.2,7.2,5.8c2.3,2.6,3.2,4.4,3.2,7.1"/>
	<path class="st0" d="M467.8,178.9c2.7-2.3,6.5-2,9.4-0.8c2.9,1.1,4.9,3.1,7,4.5c2,1.5,4.1,2.5,5.3,3.6c1.3,1.2,1.7,2.5,1.6,7.8"/>
	<path class="st0" d="M497.4,210.2c5.3,5.5,7,10.5,6.8,13.3"/>
	<path class="st0" d="M493.7,206.9c0.8-0.3,1.9,0.2,3.3,1.5"/>
	<path class="st0" d="M472.5,189.1c2,0.2,4.4,2.7,5.6,4s1.3,1.2,1.4,0.9c0.1-0.3,0.2-0.7,0.4-0.9c0.2-0.2,0.4-0.1,0.7,0.5
		c0.3,0.6,0.7,1.7,0.9,2.2c0.2,0.5,0.3,0.5,0.4,0.2c0.1-0.3,0.2-0.9,0.3-1.1s0.3-0.3,0.7,0.1c0.3,0.4,0.8,1.4,1.1,2.6
		c0.3,1.3,0.4,2.9,0.4,4.1c0,1.2-0.1,2-0.1,2.4c0,0.4,0.1,0.5,0.3,0c0.2-0.4,0.5-1.4,0.8-2c0.3-0.6,0.5-0.8,0.7-0.9
		c0.3,0,0.6,0.1,0.9,0.9c0.3,0.7,0.5,2,0.7,3.2s0.2,2.3,0.4,2.9c0.2,0.6,0.4,0.6,0.8,0.3c0.3-0.3,0.8-1,1.2-1.4
		c0.4-0.4,0.9-0.7,1.3-0.7c0.4,0,0.8,0.2,2.8,4.1"/>
	<path class="st0" d="M485.4,192.2c0-2.6-0.5-3.9-0.7-4.6c-0.2-0.7-0.1-0.8,0.9,0c1,0.8,2.8,2.6,4.6,5c1.8,2.4,3.5,5.5,5.2,10
		c1.7,4.5,3.3,10.3,3.1,21.2"/>
	<path class="st0" d="M489.1,200.8c0.8-1.9,1.3-1.8,1.8-1c0.6,0.8,1.3,2.2,1.9,4.1c0.6,1.9,1.2,4.2,1.5,6.7c0.3,2.5,0.5,5.3,0,7.6"
		/>
	<path class="st0" d="M464.9,179c0.9-1.2,4.2,0.2,7,1.6c2.8,1.5,5.3,3,6.8,4.6c1.5,1.6,2.1,3.1,2.5,3.9c0.4,0.8,0.5,0.8,0.6,0.4
		c0.1-0.4,0-1.2,0.1-1.6c0.1-0.4,0.3-0.5,0.6,0c0.4,0.5,0.9,1.5,1.3,2.5c0.4,1.1,0.6,2.2,0.8,2.7c0.2,0.6,0.3,0.5,0.5,0.2
		c0.2-0.4,0.4-1.2,0.5-1.6c0.1-0.5,0.2-0.6,0.7,0.2c0.5,0.8,1.3,2.5,2,4.6c0.7,2.1,1.1,4.5,0.8,6.5"/>
	<path class="st0" d="M456.9,184.2c1-0.4,2.3,0.3,3,0.6c0.7,0.3,0.8,0.1,0.8-0.4c0-0.5-0.2-1.2-0.1-1.7c0-0.5,0.3-0.6,0.6-0.4
		c0.4,0.3,0.9,1,1.2,1.3c0.3,0.3,0.5,0.1,0.5-0.4c0-0.5-0.2-1.3-0.2-1.7c0-0.4,0.3-0.4,1-0.1c0.7,0.3,1.8,0.9,3,1.7
		c1.2,0.8,2.5,1.8,4.9,4.2"/>
	<path class="st0" d="M453.8,188c0.4-1.1,0.7-1.4,1.1-1.5c0.5-0.1,1.1,0.1,3.1,1.5"/>
	<path class="st0" d="M449,188.3c1-0.8,1.4-1.8,1.8-2.3c0.4-0.5,1-0.6,3.1,2"/>
	<path class="st0" d="M443,185.5c1.3-1.1,2.9-0.8,6,2.8"/>
	<path class="st0" d="M438.3,183.7c0.7-1.4,1.2-1.5,2.1-1.1c0.8,0.4,2,1.5,3.4,4.5"/>
	<path class="st0" d="M420.8,179.9c3.3,1.3,3.9,2.1,4.3,2.5c0.4,0.4,0.7,0.3,0.6-0.4c-0.1-0.7-0.4-1.9-0.6-2.6
		c-0.2-0.7-0.1-0.9,0.4-0.5c0.5,0.4,1.6,1.3,2.5,2.2c0.9,0.9,1.7,1.9,2.2,2.3c0.5,0.4,0.6,0.3,0.8,0c0.2-0.3,0.5-0.9,1.1-1.2
		c0.6-0.2,1.5-0.1,2.7,0.3c1.2,0.4,2.6,1.2,4.7,3.7"/>
	<path class="st0" d="M417.5,157c2.4,0,5.5,2.4,7.1,3.6s1.8,1.1,1.7,0.7c-0.1-0.4-0.4-1.1-0.9-1.7c-0.5-0.6-1.1-1.1-1.5-1.4
		s-0.4-0.6,0.4-0.5c0.7,0,2.2,0.3,3.9,1.3c1.7,1,3.6,2.6,4.8,3.7c1.3,1,1.9,1.4,2.3,1.5c0.4,0.1,0.5,0,0.3-0.5
		c-0.1-0.4-0.4-1.2-0.6-1.7c-0.2-0.5-0.2-0.6,1.1-0.3c1.3,0.3,3.8,1.1,6.4,2c2.6,0.8,5.3,1.7,7.3,2.6c2,1,3.4,2,5.1,3.6
		c1.7,1.5,3.7,3.5,4.3,5"/>
	<path class="st0" d="M393.4,152.3c4.6,2.9,6.1,5.3,6.9,6.3c0.8,1.1,0.9,0.9,0.8,0.3c0-0.6-0.1-1.5-0.4-2.4c-0.3-0.9-0.8-1.8-1-2.4
		c-0.2-0.6-0.2-0.9,0.5-0.5c0.7,0.3,2.1,1.3,3.4,2.8c1.3,1.5,2.4,3.6,3.3,5.9"/>
	<path class="st0" d="M406.2,167.3c0.9-2.8,0.8-5.5,0.7-7.2c-0.1-1.5-0.1-2.2,2.7-1.1"/>
	<path class="st0" d="M411.2,155.8c-1.2-1-1.7-0.7-1.8,0c-0.1,0.7,0.1,1.6,0.2,2.6c0.1,1,0.1,2.2-0.6,3.2"/>
	<path class="st0" d="M424.4,171.4c-0.8-5.8-3-9.3-4.9-11.9c-2-2.6-3.7-4.4-5.3-5.6c-1.6-1.3-3-2.1-3.7-2.4
		c-0.8-0.3-0.9-0.1-0.5,1.1c0.4,1.1,1.5,3.2,1.9,6.9"/>
	<path class="st0" d="M451.3,180.2c-0.1-1.3-0.9-2-1.3-2.4c-0.4-0.4-0.6-0.6,0.5-0.3c1.1,0.3,3.4,1,6.3,3"/>
	<path class="st0" d="M456.6,185.9c1-4.3,0-7-0.9-8.7s-1.4-2.3-1.5-3c-0.1-0.6,0.2-1.2,1.8-0.8c1.6,0.4,4.4,1.9,7.2,4.1
		c2.7,2.3,5.3,5.3,7.4,8.5c2.1,3.1,3.7,6.3,4.9,10.7c1.1,4.4,1.7,10.2,0.3,21.6"/>
	<path class="st0" d="M449.7,181c-0.2-1.7,0.7-1.6,2.2-0.3c1.5,1.3,3.7,3.7,5.7,6.5c2,2.9,3.9,6.2,5.2,9.3c1.3,3.1,2,5.9,1.9,11.6"
		/>
	<path class="st0" d="M444.6,179.9c0.3-2,1.2-1.8,2.4-1.1c1.2,0.7,2.8,2,4.3,4.1c1.4,2.1,2.7,5,3.9,8.7c1.2,3.7,2.3,8.1,1.7,13.1"/>
	<path class="st0" d="M439.4,179c-0.2-3.2,0.3-3.7,1-3.6c0.7,0.1,1.7,0.8,2.8,2.4c1.2,1.6,2.5,4,3.9,6.7c1.4,2.7,2.9,5.7,3.9,9.2
		c1.1,3.4,1.7,7.2,1.4,11"/>
	<path class="st0" d="M426.7,172.9c4.2,0.2,6.5,0.9,8.2,1.9c1.7,1,2.9,2.3,3.9,3.5c1,1.2,1.9,2.4,3.4,3"/>
	<path class="st0" d="M425,172c5.4,2.9,6.9,3.4,8,4c1.1,0.6,1.8,1.3,2.8,3.1c1.1,1.8,2.6,4.7,4.2,8.2c1.6,3.6,3.2,7.8,4.3,12.7"/>
	<path class="st0" d="M419.3,170c0.4-1.6,0.8-1.8,1.8-1.3s2.6,1.7,3.9,3.2c1.3,1.5,2.4,3.4,3.5,6.7"/>
	<path class="st0" d="M414.4,169.9c0.7-0.7,0-2.5-0.4-3.6c-0.4-1.1-0.6-1.4,0-1.2c0.6,0.2,1.8,1,3.2,2.4c1.4,1.4,2.8,3.3,4.3,6.1"/>
	<path class="st0" d="M402,167.6c-1.5-2.7-1.8-3-1-2.9c0.7,0.2,2.4,0.8,4.2,1.8c1.7,1,3.4,2.5,4.4,3.2c0.9,0.7,1.1,0.5,1.1,0
		c0-0.5-0.3-1.5-0.6-2.4c-0.4-0.8-0.8-1.6-1-2.1c-0.2-0.5,0-0.7,0.8-0.1c0.9,0.6,2.5,2,4.5,4.4c2,2.4,4.2,5.9,5.8,9.4"/>
	<path class="st0" d="M321.6,173.2c-0.6-2.2,0.3-3,1.7-4.6c1.4-1.5,3.2-3.7,5.5-6.1c2.3-2.4,5.1-4.9,7.7-7c2.7-2.1,5.3-3.7,8.1-4.9
		c2.8-1.3,5.7-2.2,9.4-2.8c3.7-0.6,8.2-0.8,12.8-0.3c4.7,0.5,9.6,1.6,13,2.9c3.4,1.3,5.4,2.8,6.4,3.5c1,0.7,1.1,0.6,0.7,0.1
		c-0.4-0.6-1.4-1.7-1.9-2.8c-0.5-1.1-0.6-2.1-0.5-2.9c0.1-0.8,0.3-1.5,0.8-2c0.5-0.4,1.3-0.7,2.4-0.1c1.1,0.5,2.6,1.8,4.3,4
		c1.7,2.2,3.5,5.4,4.6,7.6c0.9,1.8,1.3,2.8,1.3,7.2"/>
	<path class="st0" d="M396.2,164.9c2.4-0.2,4.4,1.3,6,2.9c1.6,1.6,2.7,3.5,2.8,7"/>
	<path class="st0" d="M394.4,163.6c1.5,0.3,3.1,2.5,4.7,6.7"/>
	<path class="st0" d="M398.4,176.6c-1.4-3.1-1.1-3.3-0.5-3.1s1.7,0.8,2.3,1c0.6,0.3,0.7,0.2,0.6-0.2c-0.1-0.4-0.4-1.1-0.4-1.5
		c-0.1-0.4,0-0.6,0.7-0.4c0.7,0.2,2.1,0.7,3.1,1.7c1,0.9,1.8,2.3,2.2,3c0.4,0.7,0.5,0.7,0.5,0.2c0-0.5-0.1-1.4-0.1-1.9
		c0-0.6,0.1-0.8,0.6-0.8c0.5,0.1,1.5,0.5,2.4,1.1c0.8,0.6,1.5,1.3,1.9,1.7c0.4,0.4,0.5,0.3,0.5,0c0.1-0.3,0.1-0.9,0-1.4
		c-0.1-0.5-0.3-1-0.3-1.3c-0.1-0.3,0-0.5,1.2,0c1.1,0.5,3.3,1.7,5.2,3.1c1.8,1.4,3.3,2.9,4.5,4.8c1.3,1.9,2.4,4.2,2.6,6.7"/>
	<path class="st0" d="M118.8,188.3c0.5,1.8,0.7,3.9,0.6,6.2"/>
	<path class="st0" d="M117.3,183.5c-0.6,2.6,0.4,5.4,0.4,7.3"/>
	<path class="st0" d="M123.5,198c-1.6,0.2-3.1,0.3-4.4,0.1"/>
	<path class="st0" d="M128.4,201.4c-1.4,0.7-3.5,1.2-6.2,1.4"/>
	<path class="st0" d="M126.2,200c-1.4,0.5-2.9,0.8-4.5,0.8"/>
	<path class="st0" d="M128.2,195.7c0.3,1,0.4,1.8,0.4,2.6"/>
	<path class="st0" d="M128.9,201.7c0.1-0.8,0.2-1.6,0.2-2.4"/>
	<path class="st0" d="M125.3,199.3c0.2-1.2,0.2-2.4,0-3.6"/>
	<path class="st0" d="M122.6,191.6c1.7-0.3,4.1,2.6,5.7,4.2c1.6,1.6,2.5,1.9,3.1,2.1c0.5,0.2,0.7,0.3,0.8,1.1c0,0.7,0,2.1,0.7,4.8"
		/>
	<path class="st0" d="M116.1,181.8c1.4,2.5,3.9,5,5.3,7c1.4,2.1,1.6,3.7,1,8.3"/>
	<path class="st0" d="M138.2,206c-10-3.1-18.4-10.6-23.4-16.2"/>
	<path class="st0" d="M116.5,196c-2.3-3.4-2-10.7-0.3-14.3"/>
	<path class="st0" d="M114.3,196.2c0.7,0.1,1.4,0.1,2.2-0.2"/>
	<path class="st0" d="M127.8,206c-5.7-2.8-10.2-6-13.5-9.8"/>
	<path class="st0" d="M133.7,204.3c-2.5,0.2-4.5,0.7-5.9,1.7"/>
	<path class="st0" d="M291.9,55.7c0.5-0.8,0.7-1.6,0.8-2.6c0.2-1.2,0.3-2.7,0.6-4.4c0.3-1.7,0.7-3.6,1.1-4.7
		c0.4-1.1,0.8-1.6,1.3-1.7c0.5-0.1,1.1,0.2,1.6,1.1c0.5,0.9,0.9,2.4,0.9,3.9"/>
	<path class="st0" d="M293.1,64c0.1-0.7-0.1-1.5-0.4-2.5c-0.3-0.9-0.8-2-1.2-3.1c-0.4-1.2-0.7-2.5-0.7-3.1c0-0.6,0.3-0.5,3.5,3.5
		c0.4,0.5,0.9,1.1,3.1,2.1"/>
	<path class="st0" d="M299.7,76.7c-4.4-1.8-5-3.6-5.4-5.2c-0.4-1.6-0.5-3-1.1-4.7c-0.6-1.7-1.6-3.6-0.9-3.3c0.6,0.2,2.8,2.4,5.3,3.4
		"/>
	<path class="st0" d="M295.7,69c1.4,1.6,1.9,4.2,6.7,5.3"/>
	<path class="st0" d="M293.8,68.8c2.2-0.4,4.9,1.8,6.9,2.1"/>
	<path class="st0" d="M301.2,72c1.9-2.1,2.2-4.4,3.3-4.7"/>
	<path class="st0" d="M306.4,61.9c-1,0.4-1.8,1.5-2.5,3.3"/>
	<path class="st0" d="M302.4,53c-1,3.2-2.2,5.7-3.6,7.5"/>
	<path class="st0" d="M301.9,51.8c-1.7,3.4-3.3,6-4.7,7.6"/>
	<path class="st0" d="M301.1,49.9c-1.4,2.6-2.8,4.9-4.3,6.9"/>
	<path class="st0" d="M300.3,47c-1.1,2.7-2.4,5.1-3.9,7.2"/>
	<path class="st0" d="M306.5,73.2c0.4,1.7,1.4,1.4,2.1,1.3c0.7-0.1,1,0.1,1.1,0.4c0,0.3-0.3,0.9-0.9,1.3c-0.6,0.4-1.5,0.8-2.3,2.8"
		/>
	<path class="st0" d="M303.3,55.9c1.5,3.5,2.6,5,3.3,6.5c0.7,1.5,1,3,1.1,4.5c0.1,1.5,0,3-0.4,4.4c-0.4,1.5-1.1,2.9-3.9,4.6"/>
	<path class="st0" d="M298,45.7c0.6-1.1,1.1-1.3,1.5-1.2c0.4,0.1,0.6,0.6,0.7,1.3c0.1,0.7,0.1,1.7,0.7,3.4c0.6,1.6,1.7,3.8,2.2,5.5
		c0.5,1.6,0.3,2.7-1.2,6.3"/>
	<path class="st0" d="M306.5,79c-1.6,1.1-2.2,2.1-2.5,2.5c-0.4,0.4-0.5,0.2-0.6-0.1c-0.1-0.4-0.1-0.9-0.2-1.4
		c-0.1-0.5-0.5-0.9-1-0.9c-0.6-0.1-1.4,0.2-2.1,0.2s-1.4,0-1.9-0.3c-0.4-0.3-0.6-0.9-0.3-1.5s1.2-1.2,3.6-0.6"/>
	<path class="st0" d="M296,49.9c0.9,11.7,3.1,18.2,5.4,22.6c2.2,4.4,4.5,6.8,9,9"/>
	<path class="st0" d="M182.2,97.6c1-2.2,2.5-1.9,3.7-1.2c1.2,0.7,2,1.8,2.2,4.9"/>
	<path class="st0" d="M178.6,92.4c-0.4,2.3-0.1,4.2,0.7,5.8"/>
	<path class="st0" d="M175.3,91.4c-0.2,2,0.1,3.7,0.9,5"/>
	<line class="st0" x1="159" y1="95.6" x2="158.9" y2="97.2"/>
	<path class="st0" d="M156.5,97.1c4.7,0.2,8.7,0.3,10.3-1.3"/>
	<path class="st0" d="M161.2,99.9c3.4-0.7,6.1-1.5,8-2.5"/>
	<path class="st0" d="M166.4,102.1c-2.1-0.5-5.4-2.1-9.9-5"/>
	<path class="st0" d="M171.6,98.7c-1.1,1.3-2.9,2.4-5.2,3.4"/>
	<path class="st0" d="M166.4,102.1c2.7-0.9,5.4-1.6,8.1-2"/>
	<path class="st0" d="M169.9,105c-1.9-0.6-3.1-1.6-3.4-2.9"/>
	<path class="st0" d="M174.1,106.5c-3.9,0.4-4.4-0.2-4.4-0.9c0-0.7,0.5-1.6,3.3-2.4"/>
	<path class="st0" d="M179.3,108c-0.5-0.6-3.3,0.3-4.6-0.1c-1.3-0.4-1.1-2.1,1.9-2.7"/>
	<path class="st0" d="M187.8,103.6c-1.5,1.7-3.8,3.7-7,5.8"/>
	<path class="st0" d="M185.7,109.1c1.9-1.2,3.6-3.9,3.8-5.5"/>
	<path class="st0" d="M189.4,109.2c-2.3,0.1-3.5-0.2-4.9-0.1c-1.5,0.1-3.2,0.6-6-0.1"/>
	<path class="st0" d="M178.5,109c1.6-2.1,3.8-3.9,6.4-5.6"/>
	<path class="st0" d="M192.4,103.6c-0.6,2.3-1.6,4.2-3,5.6"/>
	<path class="st0" d="M187.9,99.7c0.5-0.8,1.2-1.3,2-1.5"/>
	<path class="st0" d="M189.9,98.2c1.2,1.7,2.1,3.5,2.5,5.4"/>
	<path class="st0" d="M198.4,103.9c-7.5-0.6-10.7,0-14.2-0.5c-3.6-0.5-7.5-2.1-11.6-4.2c-4.1-2-8.4-4.5-12.7-9.5"/>
	<path class="st0" d="M181.6,93.6c0.1,2,0.5,3.8,1.1,5.5"/>
	<path class="st0" d="M172.6,90.8c3.4,0.6,6.4,1.6,9.1,2.9"/>
	<path class="st0" d="M172.5,95.1c-0.3-1.4-0.3-2.9,0-4.3"/>
	<path class="st0" d="M163.3,86.4c4.3,0.2,4.6,2.5,5.4,4.4c0.7,2,1.8,3.5,3.8,4.2"/>
	<path class="st0" d="M163.4,88.8c-0.3-0.9-0.3-1.7,0-2.4"/>
	<path class="st0" d="M155,86c-0.7,4,0.6,7.2,4,9.6"/>
	<path class="st0" d="M155,86c4.7-0.9,8.6,1.7,9.2,4.7"/>
	<rect x="10.5" y="11.4" class="st0" width="716.2" height="280.7"/>
	<path class="st0" d="M147.2,292.1c0.2-3.4,1.5-4.4,3.8-4.4c2.3,0,5.6,0.9,11,4.4"/>
	<path class="st0" d="M151.7,287.7c-2.1-3.2-1.9-5-1.2-6.6s1.9-2.8,3.5-3.6c1.6-0.8,3.5-1,5.4-0.5c1.9,0.6,3.7,2.1,6.5,4.5
		c2.7,2.4,6.4,5.7,13.1,10.5"/>
	<path class="st0" d="M158.6,286.9c2.9,1.6,5.4,3.3,7.6,5.2"/>
	<path class="st0" d="M160.3,284.9c3.6,2.3,6.6,4.7,9.1,7.2"/>
	<path class="st0" d="M162.6,283.2c4.2,2.6,8,5.6,11.4,8.9"/>
	<path class="st0" d="M157.2,285.7c0.2-0.5,0-0.8-0.5-1s-0.8,0-1,0.5s0,0.8,0.5,1C156.8,286.4,157.1,286.2,157.2,285.7z"/>
	<path class="st0" d="M159.2,283.8c0.3-0.5,0.1-0.9-0.4-1.2c-0.5-0.3-0.9-0.2-1.2,0.4c-0.3,0.5-0.2,0.9,0.4,1.2
		C158.6,284.5,159,284.4,159.2,283.8z"/>
	<path class="st0" d="M161.7,282.2c0.3-0.5,0.2-0.9-0.3-1.2c-0.5-0.3-0.9-0.2-1.2,0.3c-0.3,0.5-0.2,0.9,0.3,1.2
		C161,282.8,161.4,282.7,161.7,282.2z"/>
	<path class="st0" d="M174.4,278.7c0.5-0.4,0.5-0.8,0.1-1.3c-0.4-0.5-0.8-0.5-1.3-0.1c-0.5,0.4-0.5,0.8-0.1,1.3
		C173.6,279.1,173.9,279.1,174.4,278.7z"/>
	<path class="st0" d="M178.3,277.6c0.4-0.5,0.3-0.9-0.2-1.3c-0.5-0.4-0.9-0.3-1.3,0.2c-0.4,0.5-0.3,0.9,0.2,1.3
		C177.6,278.2,177.9,278.1,178.3,277.6z"/>
	<path class="st0" d="M184.1,272.7c0.3-0.6,0.2-1-0.4-1.3c-0.6-0.3-1-0.2-1.3,0.4c-0.3,0.6-0.2,1,0.4,1.3
		C183.4,273.4,183.8,273.3,184.1,272.7z"/>
	<path class="st0" d="M188,271.2c0.4-0.5,0.4-0.9-0.1-1.4c-0.5-0.4-0.9-0.4-1.4,0.1c-0.4,0.5-0.4,0.9,0.1,1.4
		C187.2,271.8,187.6,271.7,188,271.2z"/>
	<path class="st0" d="M195.3,263.3c0.4-0.4,0.3-0.7,0-1s-0.7-0.3-1,0c-0.4,0.4-0.3,0.7,0,1C194.7,263.7,195,263.7,195.3,263.3z"/>
	<path class="st0" d="M198.5,261.4c0.4-0.4,0.3-0.8-0.1-1.1c-0.4-0.4-0.8-0.3-1.1,0.1c-0.4,0.4-0.3,0.8,0.1,1.1
		C197.8,261.9,198.1,261.8,198.5,261.4z"/>
	<path class="st0" d="M204.5,258.3c0.3-0.4,0.3-0.6,0-1c-0.4-0.3-0.6-0.3-1,0c-0.3,0.4-0.3,0.6,0,1
		C203.9,258.7,204.2,258.7,204.5,258.3z"/>
	<path class="st0" d="M206.7,256.6c0.3-0.4,0.3-0.7-0.1-1c-0.4-0.3-0.7-0.3-1,0.1c-0.3,0.4-0.3,0.7,0.1,1
		C206.1,257,206.4,257,206.7,256.6z"/>
	<path class="st0" d="M210,255.2c0.4-0.3,0.5-0.6,0.2-1c-0.3-0.4-0.6-0.5-1-0.2c-0.4,0.3-0.5,0.6-0.2,1
		C209.2,255.5,209.6,255.6,210,255.2z"/>
	<path class="st0" d="M218.4,250.3c0.3-0.6,0.2-0.9-0.4-1.2c-0.6-0.3-0.9-0.2-1.2,0.4c-0.3,0.6-0.2,0.9,0.4,1.2
		C217.8,250.9,218.2,250.8,218.4,250.3z"/>
	<path class="st0" d="M222.3,248.3c0.3-0.5,0.3-0.8-0.2-1.1c-0.5-0.3-0.8-0.3-1.1,0.2c-0.3,0.5-0.3,0.8,0.2,1.1
		C221.7,248.9,222,248.8,222.3,248.3z"/>
	<path class="st0" d="M226.3,247.3c0.4-0.5,0.3-0.8-0.2-1.2c-0.5-0.4-0.8-0.3-1.2,0.2c-0.4,0.5-0.3,0.8,0.2,1.2
		C225.6,247.8,226,247.8,226.3,247.3z"/>
	<path class="st0" d="M232.3,244.3c0.4-0.5,0.4-0.9-0.2-1.4c-0.5-0.4-0.9-0.4-1.4,0.2s-0.4,0.9,0.2,1.4
		C231.5,244.9,231.9,244.8,232.3,244.3z"/>
	<path class="st0" d="M235.5,242c0.4-0.4,0.4-0.7,0.1-1.1c-0.4-0.4-0.7-0.4-1.1-0.1c-0.4,0.4-0.4,0.7-0.1,1.1
		C234.8,242.3,235.1,242.4,235.5,242z"/>
	<path class="st0" d="M239,240.7c0.5-0.3,0.5-0.6,0.3-1.1c-0.3-0.5-0.6-0.5-1.1-0.3c-0.5,0.3-0.5,0.6-0.3,1.1
		C238.2,240.9,238.5,241,239,240.7z"/>
	<path class="st0" d="M245.7,234c0.4-0.4,0.4-0.7,0.1-1.2c-0.4-0.4-0.7-0.4-1.2-0.1c-0.4,0.4-0.4,0.7-0.1,1.2
		C245,234.4,245.3,234.4,245.7,234z"/>
	<path class="st0" d="M251.7,228.7c0.3-0.4,0.3-0.7-0.2-1.1c-0.4-0.3-0.7-0.3-1.1,0.2c-0.3,0.4-0.3,0.7,0.2,1.1
		C251.1,229.2,251.4,229.2,251.7,228.7z"/>
	<path class="st0" d="M254.5,226.7c0.4-0.2,0.5-0.5,0.3-1c-0.2-0.4-0.5-0.5-1-0.3c-0.4,0.2-0.5,0.5-0.3,1
		C253.8,226.9,254.1,226.9,254.5,226.7z"/>
	<path class="st0" d="M257.7,224.8c0.5-0.3,0.5-0.6,0.2-1.1c-0.3-0.5-0.6-0.5-1.1-0.2c-0.5,0.3-0.5,0.6-0.2,1.1
		C257,225,257.3,225.1,257.7,224.8z"/>
	<path class="st0" d="M262.9,224.2c0.3-0.5,0.2-0.8-0.3-1.1c-0.5-0.3-0.8-0.2-1.1,0.3c-0.3,0.5-0.2,0.8,0.3,1.1
		C262.3,224.8,262.6,224.7,262.9,224.2z"/>
	<path class="st0" d="M269.7,217.9c0.3-0.4,0.3-0.7-0.1-1c-0.4-0.3-0.7-0.3-1,0.1c-0.3,0.4-0.3,0.7,0.1,1
		C269.1,218.3,269.4,218.3,269.7,217.9z"/>
	<path class="st0" d="M273.6,215.6c0.4-0.4,0.4-0.8,0-1.2c-0.4-0.4-0.8-0.4-1.2,0s-0.4,0.8,0,1.2C272.9,216.1,273.2,216,273.6,215.6
		z"/>
	<path class="st0" d="M277.7,213.1c0.4-0.3,0.5-0.7,0.2-1.1c-0.3-0.4-0.7-0.5-1.1-0.2c-0.4,0.3-0.5,0.7-0.2,1.1
		C276.9,213.4,277.2,213.5,277.7,213.1z"/>
	<path class="st0" d="M288.6,204.4c0.4-0.5,0.4-0.8-0.1-1.2c-0.5-0.4-0.8-0.4-1.2,0.1c-0.4,0.5-0.4,0.8,0.1,1.2
		C287.9,204.9,288.2,204.9,288.6,204.4z"/>
	<path class="st0" d="M292.6,204.5c0.5-0.4,0.5-0.8,0.1-1.2c-0.4-0.5-0.8-0.5-1.2-0.1c-0.5,0.4-0.5,0.8-0.1,1.2
		C291.8,204.9,292.2,204.9,292.6,204.5z"/>
	<path class="st0" d="M297.7,204.5c0.4-0.5,0.3-0.8-0.1-1.2c-0.5-0.4-0.8-0.3-1.2,0.1c-0.4,0.5-0.3,0.8,0.1,1.2
		C297,205,297.3,205,297.7,204.5z"/>
	<path class="st0" d="M306.6,202.9c0.3-0.3,0.3-0.6,0-1c-0.3-0.3-0.6-0.3-1,0c-0.3,0.3-0.3,0.6,0,1
		C306,203.3,306.3,203.3,306.6,202.9z"/>
	<path class="st0" d="M312.1,204.8c0.2-0.3,0.2-0.6-0.1-0.8c-0.3-0.2-0.6-0.2-0.8,0.1s-0.2,0.6,0.1,0.8
		C311.6,205.1,311.8,205.1,312.1,204.8z"/>
	<path class="st0" d="M316,206.8c0.2-0.4,0.2-0.6-0.2-0.8c-0.4-0.2-0.6-0.2-0.8,0.2c-0.2,0.4-0.2,0.6,0.2,0.8
		C315.6,207.2,315.8,207.2,316,206.8z"/>
	<path class="st0" d="M407.1,196.8c0.3-0.3,0.3-0.5,0-0.8c-0.3-0.3-0.5-0.3-0.8,0s-0.3,0.5,0,0.8C406.6,197,406.8,197,407.1,196.8z"
		/>
	<path class="st0" d="M410.7,197c0.4-0.4,0.4-0.7,0-1.1c-0.4-0.4-0.7-0.4-1.1,0c-0.4,0.4-0.4,0.7,0,1.1
		C410,197.4,410.3,197.4,410.7,197z"/>
	<path class="st0" d="M414.3,196.1c0.2-0.4,0.2-0.6-0.1-0.8c-0.4-0.2-0.6-0.2-0.8,0.1c-0.2,0.4-0.2,0.6,0.1,0.8
		C413.9,196.5,414.1,196.4,414.3,196.1z"/>
	<path class="st0" d="M421.5,199.2c0.2-0.4,0.2-0.7-0.2-0.9c-0.4-0.2-0.7-0.2-0.9,0.2c-0.2,0.4-0.2,0.7,0.2,0.9
		C421,199.6,421.3,199.6,421.5,199.2z"/>
	<path class="st0" d="M425.6,200.2c0.4-0.4,0.5-0.7,0.1-1.1c-0.4-0.4-0.7-0.5-1.1-0.1s-0.5,0.7-0.1,1.1
		C424.9,200.6,425.2,200.6,425.6,200.2z"/>
	<path class="st0" d="M430.1,202.1c0.3-0.4,0.2-0.7-0.2-0.9c-0.4-0.3-0.7-0.2-0.9,0.2c-0.3,0.4-0.2,0.7,0.2,0.9
		C429.6,202.5,429.9,202.5,430.1,202.1z"/>
	<path class="st0" d="M437,209.4c0.4-0.4,0.3-0.8-0.1-1.1c-0.4-0.4-0.8-0.3-1.1,0.1c-0.4,0.4-0.3,0.8,0.1,1.1S436.6,209.8,437,209.4
		z"/>
	<path class="st0" d="M440.7,206.5c0.4-0.5,0.4-0.8,0-1.3c-0.5-0.4-0.8-0.4-1.3,0c-0.4,0.5-0.4,0.8,0,1.3
		C439.9,206.9,440.3,206.9,440.7,206.5z"/>
	<path class="st0" d="M443.7,209.9c0.5-0.4,0.5-0.7,0.1-1.2c-0.4-0.5-0.7-0.5-1.2-0.1c-0.5,0.4-0.5,0.7-0.1,1.2
		C442.9,210.2,443.3,210.3,443.7,209.9z"/>
	<path class="st0" d="M457.6,212.3c0.4-0.5,0.4-0.8-0.1-1.2c-0.5-0.4-0.8-0.4-1.2,0.1c-0.4,0.5-0.4,0.8,0.1,1.2
		C456.8,212.8,457.1,212.8,457.6,212.3z"/>
	<path class="st0" d="M462.2,216.8c0.3-0.3,0.3-0.6-0.1-0.9c-0.3-0.3-0.6-0.3-0.9,0.1c-0.3,0.3-0.3,0.6,0.1,0.9
		C461.7,217.1,461.9,217.1,462.2,216.8z"/>
	<path class="st0" d="M464.8,218.3c0.3-0.4,0.3-0.7-0.1-1c-0.4-0.3-0.7-0.3-1,0.1c-0.3,0.4-0.3,0.7,0.1,1
		C464.2,218.7,464.5,218.7,464.8,218.3z"/>
	<path class="st0" d="M468,220.1c0.4-0.5,0.4-0.8,0-1.3c-0.5-0.4-0.8-0.4-1.3,0c-0.4,0.5-0.4,0.8,0,1.3
		C467.2,220.6,467.6,220.6,468,220.1z"/>
	<path class="st0" d="M478.4,220.6c0.3-0.4,0.2-0.7-0.2-0.9c-0.4-0.3-0.7-0.2-0.9,0.2c-0.3,0.4-0.2,0.7,0.2,0.9
		C477.9,221.1,478.1,221,478.4,220.6z"/>
	<path class="st0" d="M481.1,222.5c0.4-0.5,0.3-0.8-0.2-1.2c-0.5-0.4-0.8-0.3-1.2,0.2c-0.4,0.5-0.3,0.8,0.2,1.2
		C480.4,223,480.8,222.9,481.1,222.5z"/>
	<path class="st0" d="M484.3,225.2c0.3-0.5,0.3-0.8-0.2-1.1c-0.5-0.3-0.8-0.3-1.1,0.2c-0.3,0.5-0.3,0.8,0.2,1.1
		C483.7,225.7,484,225.7,484.3,225.2z"/>
	<path class="st0" d="M499,228.8c0.2-0.7,0-1.1-0.8-1.3c-0.7-0.2-1.1,0-1.3,0.8c-0.2,0.7,0,1.1,0.8,1.3
		C498.4,229.8,498.8,229.5,499,228.8z"/>
	<path class="st0" d="M500.9,231.9c0.2-0.6,0.1-1-0.5-1.2c-0.6-0.2-1-0.1-1.2,0.5c-0.2,0.6-0.1,1,0.5,1.2
		C500.3,232.7,500.6,232.5,500.9,231.9z"/>
	<path class="st0" d="M503.3,234.5c0.2-0.6,0-1-0.6-1.1s-1,0-1.1,0.6c-0.2,0.6,0,1,0.6,1.1C502.8,235.3,503.1,235.1,503.3,234.5z"/>
	<path class="st0" d="M504.5,237.4c0.2-0.5,0.1-0.8-0.3-1c-0.5-0.2-0.8-0.1-1,0.3c-0.2,0.5-0.1,0.8,0.3,1
		C503.9,238,504.2,237.9,504.5,237.4z"/>
	<path class="st0" d="M510.3,241.3c0.3-0.6,0.1-1-0.5-1.3c-0.6-0.3-1-0.1-1.3,0.5c-0.3,0.6-0.1,1,0.5,1.3
		C509.6,242,510,241.9,510.3,241.3z"/>
	<path class="st0" d="M516.9,246.8c0.4-0.5,0.3-0.8-0.2-1.2c-0.5-0.4-0.8-0.3-1.2,0.2c-0.4,0.5-0.3,0.8,0.2,1.2
		C516.2,247.3,516.5,247.3,516.9,246.8z"/>
	<path class="st0" d="M517.9,250.3c0.2-0.4,0.1-0.6-0.3-0.8c-0.4-0.2-0.6-0.1-0.8,0.3c-0.2,0.4-0.1,0.6,0.3,0.8
		C517.5,250.8,517.7,250.7,517.9,250.3z"/>
	<path class="st0" d="M527.2,254.2c0.1-0.5,0-0.7-0.5-0.9c-0.5-0.1-0.7,0-0.9,0.5c-0.1,0.5,0,0.7,0.5,0.9
		C526.8,254.8,527,254.6,527.2,254.2z"/>
	<path class="st0" d="M527.6,257.6c0.4-0.5,0.3-0.9-0.2-1.2c-0.5-0.4-0.9-0.3-1.2,0.2c-0.3,0.5-0.3,0.9,0.2,1.2
		C526.9,258.2,527.2,258.2,527.6,257.6z"/>
	<path class="st0" d="M529.1,261.8c0.3-0.5,0.2-0.9-0.3-1.2c-0.5-0.3-0.9-0.2-1.2,0.3c-0.3,0.5-0.2,0.9,0.3,1.2
		C528.4,262.4,528.8,262.3,529.1,261.8z"/>
	<path class="st0" d="M538.6,268.7c0.4-1,0.1-1.5-0.8-1.9s-1.5-0.1-1.9,0.8c-0.4,1-0.1,1.5,0.8,1.9
		C537.7,269.9,538.3,269.7,538.6,268.7z"/>
	<path class="st0" d="M544.3,278.9c0.4-0.6,0.3-1-0.3-1.4c-0.6-0.4-1-0.3-1.4,0.3c-0.4,0.6-0.3,1,0.3,1.4
		C543.5,279.6,543.9,279.6,544.3,278.9z"/>
	<path class="st0" d="M551.3,285.5c0.4-0.5,0.4-0.8,0-1.3c-0.5-0.4-0.8-0.4-1.3,0c-0.4,0.5-0.4,0.8,0,1.3
		C550.5,286,550.9,286,551.3,285.5z"/>
	<path class="st0" d="M551.1,289.7c0.4-0.6,0.3-1.1-0.4-1.5c-0.6-0.4-1.1-0.3-1.5,0.4c-0.4,0.6-0.3,1.1,0.4,1.5
		C550.2,290.5,550.7,290.4,551.1,289.7z"/>
	<path class="st0" d="M136.2,292.1c0.2-2.7,1.3-2.7,2.2-2.9c0.8-0.2,1.4-0.7,1.7-1.3c0.4-0.6,0.6-1.4,1.1-1.8s1.2-0.5,2.2-0.1
		c1,0.4,2.3,1.2,4,5.1"/>
	<path class="st0" d="M133.2,292.1c-0.7-2.7,0.9-4.6,2.2-5.8c1.3-1.2,2.3-1.5,2.9-1.6c0.6-0.1,0.9,0.1,1.1,0.7
		c0.2,0.5,0.4,1.4,1.1,1.8"/>
	<path class="st0" d="M188.1,292.1c-7.4-7.3-12.5-9.1-15.9-10.5c-3.4-1.4-5.2-2.6-6.5-3.7c-1.3-1.1-2.2-2.2-2.6-3.3
		c-0.3-1.1,0-2.2,0.9-3.1c0.9-0.9,2.4-1.5,4.2-1.7c1.8-0.2,3.8,0.2,6.3,1.4c2.6,1.2,5.7,3.3,10,6.4c4.3,3.1,9.9,7.2,18.5,14.6"/>
	<path class="st0" d="M170.2,280.7c1.7,2.8,8.9,7.1,12.6,11.4"/>
	<path class="st0" d="M164.6,276.8c-1.6-0.7-2.8,0-2.6,1.6"/>
	<path class="st0" d="M177.1,280.4c5.2,3.8,10.3,6.6,15.4,11.7"/>
	<path class="st0" d="M180.3,279.4c7.8,4.5,14.6,10.8,16.2,12.6"/>
	<path class="st0" d="M172.9,270.4c-0.3-3.1,2-4.7,4.1-5.4c2.1-0.7,4-0.6,6.6,0.3c2.6,0.9,5.8,2.5,9.3,5c3.6,2.5,7.5,5.8,11.7,9.7
		c4.3,3.9,8.8,8.4,11.7,12.1"/>
	<path class="st0" d="M189.5,273.2c9.9,7.9,18.3,14.2,22.7,18.9"/>
	<path class="st0" d="M185.4,274.8c6.9,5.4,16.3,12,21.8,17.3"/>
	<path class="st0" d="M155.8,277c-1.3-8.1-1-11.1-0.3-13.5c0.7-2.5,1.9-4.4,3.5-3.8"/>
	<path class="st0" d="M154.9,268.2c1.2-0.6,1.8-0.1,1.8,1"/>
	<path class="st0" d="M161.5,262.3c2-3,5.5-6.8,8.4-7.5"/>
	<path class="st0" d="M158.1,265.4c-0.4-2.5-0.1-4,0.6-5.2c0.7-1.3,1.7-2.3,3-2.8c1.4-0.5,3.1-0.6,4,0"/>
	<path class="st0" d="M155,270.7c-1.7,0.4-3.1,1.9-4.1,3.2c-1,1.3-1.5,2.4-1.8,3.3c-0.3,0.9-0.3,1.5-0.1,2.3c0.2,0.9,0.5,2,1.1,2.7"
		/>
	<path class="st0" d="M148.9,278c-0.8-0.3-1.2,0.1-1.4,0.6c-0.2,0.5-0.2,1.2-0.3,1.5c0,0.4-0.1,0.4-0.2,0.3
		c-0.1-0.1-0.4-0.4-0.6-0.2c-0.2,0.2-0.3,0.8-0.4,1.1s-0.1,0.4-0.3,0.3c-0.1-0.1-0.4-0.3-0.7-0.1c-0.3,0.1-0.6,0.5-0.9,1.2
		c-0.3,0.7-0.5,1.7-0.6,3.3"/>
	<path class="st0" d="M155,266.7c-2.7,0-4.2,2-5.3,3.7c-1.1,1.7-1.7,3-2.2,4.4c-0.5,1.3-0.8,2.6,0.1,3.9"/>
	<path class="st0" d="M148.3,272.8c-0.2,2.5,0.3,3.7,1,4"/>
	<path class="st0" d="M147,276.7c-0.9-2.2-1.3-2.3-1.7-1.7c-0.4,0.6-1,1.9-1.5,3.5c-0.5,1.6-0.9,3.7,0.1,5.6"/>
	<path class="st0" d="M143.3,280.9c-1.6,0.2-3.1,1.5-4.4,3.9"/>
	<path class="st0" d="M190.4,268.6c-1.4-4.5-0.9-7.8-0.4-10.1c0.5-2.3,1.2-3.6,2.3-4.3c1.1-0.7,2.6-0.7,3.8-0.4
		c1.3,0.3,2.3,1,3.4,2.5c1.1,1.5,2.4,3.8,4.3,7.1c1.9,3.3,4.6,7.7,7.4,12.2c2.7,4.3,5.6,8.6,10.3,15.5"/>
	<path class="st0" d="M199,263.2c8.2,9.8,10.2,13,12.5,16.7c2.4,3.7,5.2,7.8,8.5,12.2"/>
	<path class="st0" d="M196.5,265.5c6.6,7.1,13.2,15.8,20.7,26.6"/>
	<path class="st0" d="M166.6,270c0.3-4.1,2.8-9,5.6-13.1c2.8-4.1,6-7.4,9.2-10c3.2-2.6,6.5-4.5,8.6-5.4c2.2-0.9,3.2-0.8,3.7-0.5
		c0.4,0.3,0.3,0.8-0.9,2c-1.1,1.2-3.2,3.1-6.9,8.6"/>
	<path class="st0" d="M169.9,254.8c-0.6,2.3-0.7,4.4-0.5,6.5"/>
	<path class="st0" d="M156.7,269.2c1-3.2,1.5-4.1,1.9-4.6c0.4-0.5,0.6-0.7,0.9-0.6c0.2,0.1,0.4,0.5,0.5,0.7s0.2,0.2,0.2-0.1
		c0.1-0.3,0.2-0.8,0.3-1.3c0.2-0.5,0.4-0.8,0.7-1c0.3-0.2,0.8-0.1,1.2,0.2c0.4,0.3,0.7,0.8,0.9,1.1c0.2,0.3,0.3,0.3,0.5,0
		c0.2-0.3,0.5-1,1.1-1.6c0.5-0.6,1.3-1.1,1.8-1.3c0.4-0.2,0.6-0.2,0.5,0.2c0,0.3-0.2,1-0.2,1.8c0,0.5,0.2,1,0.9,1.9"/>
	<path class="st0" d="M187,249.9c2.1-0.9,2.6-0.1,2.3,1c-0.3,1-1.5,2.3-3.5,4.8"/>
	<path class="st0" d="M188.7,251.9c2-0.4,2.4,0.1,1.7,1.2s-2.2,2.9-3.8,5c-1.6,2.1-3.1,4.4-3.6,7.1"/>
	<path class="st0" d="M190.4,253.2c1-0.1,1.6,0.3,1.7,1.1"/>
	<path class="st0" d="M176.2,251.8c4.9-3.7,6.6-4.3,7.5-4.5c0.9-0.2,1-0.1,0.6,0.5c-0.4,0.7-1.4,1.9-2.2,3.1c-0.7,1.2-1.2,2.5-1.4,3
		c-0.2,0.6,0,0.5,0.4,0.3c0.4-0.2,1-0.5,1.4-0.6s0.5,0.1,0.3,0.6s-0.6,1.3-0.9,1.9c-0.3,0.6-0.3,1.1-0.3,1.3c0,0.2,0.1,0.2,0.4,0.1
		c0.3-0.1,0.7-0.4,1.1-0.5c0.4-0.1,0.7,0,0.7,0.6c0,0.7-0.3,1.9,0.8,3.5"/>
	<path class="st0" d="M205,261.1c5.9,8.6,7.4,11.6,9.7,15.3c2.4,3.7,5.6,8.1,9,13.6"/>
	<path class="st0" d="M207.6,259.2c6.1,11.4,13.6,22.1,17.7,29.9"/>
	<path class="st0" d="M210.4,257.6c5.7,11.7,12.4,20.4,16.8,30.8"/>
	<path class="st0" d="M198.6,255.3c0.2-5.2,2-7.2,3.5-8.2c1.6-1,2.9-1.1,4.7-0.3c1.3,0.6,2.9,1.6,5,4.1"/>
	<path class="st0" d="M229.2,287.8c-3.6-9.6-6.6-14.1-9.1-18.3c-2.6-4.3-4.8-8.5-6.2-11.6c-1.4-3.2-1.9-5.3-2.1-7.4
		c-0.2-2.1-0.1-4.3,0.2-6.2c0.3-1.9,0.8-3.6,2.1-4.9c1.3-1.4,3.4-2.4,5.6-2.6c1.7-0.1,3.4,0.4,6.5,2.4"/>
	<path class="st0" d="M218.3,253.6c6.5,14.1,12.4,29,13.7,33.6"/>
	<path class="st0" d="M222.3,250.5c4.7,14.8,7.5,25.2,8.8,33.8"/>
	<path class="st0" d="M226.3,250.2c3.2,12,4.4,20.9,5.1,26.2c0.7,5.4,1,7.3,0.4,10.1"/>
	<path class="st0" d="M231.5,258.3c1.8,10.9,2.8,20.5,2.9,28.6"/>
	<path class="st0" d="M247.8,276.9c4.4-7,8.6-7.2,12.8-7c4.2,0.1,8.3,0.6,15.5-2.7"/>
	<path class="st0" d="M257.1,269.9c-1.8,2.2-2.9,4.1-3.4,5.7"/>
	<path class="st0" d="M259.1,269.8c-1.3,2.3-2.4,4.2-3.4,5.7"/>
	<path class="st0" d="M256.2,270.1c0.6-5.5,2.7-8.5,4.8-9.9c2.1-1.4,4.1-1.3,7-1.3c2.9,0,6.5-0.2,13.2-3.2"/>
	<path class="st0" d="M265.5,259c-3.6,4.7-4.2,7.9-3.7,10.9"/>
	<path class="st0" d="M268.4,258.9c-3.7,3.2-5,6.6-4.8,11"/>
	<path class="st0" d="M263.7,259.1c3.9-8.2,10-10.9,14.9-12.5c4.9-1.6,8.6-2.2,11.5-2.9c2.9-0.7,5-1.6,6.8-2.8
		c1.8-1.2,3.3-2.7,5-6.3c1.8-3.5,3.8-9,6.1-13.4c2.3-4.4,4.8-7.7,7.8-10.9c3-3.2,6.5-6.1,9.8-8.2c3.3-2,6.5-3.1,8.4-4.2
		c2-1.2,2.8-2.5,3.1-3.5c0.3-1.1,0.2-1.9-0.6-2.9c-0.8-1-2.2-2.1-4.2-2.9s-4.8-1.3-7.2-1.2c-2.4,0.1-4.6,0.9-6.9,3
		c-2.3,2.1-4.7,5.5-7.4,9.8c-2.7,4.3-5.6,9.6-8,14.3c-2.4,4.7-4.3,8.9-5.9,12.6c-1.6,3.7-3,6.9-4.6,10c-1.6,3.1-3.4,6-5.4,8
		c-2,1.9-4.2,2.9-5.2,3.4c-1.1,0.6-1.1,0.8-1,1.4c0.1,0.6,0.2,1.4-0.3,2.7c-0.6,1.3-1.8,3-3.7,4.2c-1.9,1.3-4.3,2.2-5.9,3
		c-1.6,0.8-2.2,1.6-2.5,2.2c-0.3,0.6-0.2,1.2,0.5,1.7c0.7,0.5,2,1.1,2.7,1.6c0.7,0.5,0.8,1,0.4,1.6s-1.5,1.5-2.7,2.1
		c-1.2,0.6-2.6,1-3.5,1.6c-0.9,0.6-1.2,1.3-1.1,2.2s0.5,1.8,2.9,3.2"/>
	<path class="st0" d="M220.1,292.1c5.8-4,10.3-4.6,13.1-5c2.8-0.3,4-0.3,5.1-0.8c1.1-0.5,2.2-1.4,3.4-2.8c1.2-1.4,2.5-3.4,3.7-4.7
		c1.2-1.3,2.2-2,3.9-2.4c1.7-0.5,3.9-0.7,7.1-0.8c3.1-0.1,7.1,0,10.7,0.7c3.6,0.7,6.8,1.9,10.8,2.3c4,0.4,8.7,0,12.7-1
		c4-1,7.2-2.6,10.1-4.6c2.9-2,5.4-4.5,7.4-7.3c2-2.8,3.6-6,4.9-9.2c1.4-3.3,2.6-6.6,3.1-10.6c0.5-4,0.3-8.6,0.3-13.2
		c0-4.6,0.4-9.2,0.7-13.5c0.3-3.2,0.6-6.2,3.3-13.1"/>
	<path class="st0" d="M315.4,210.9c-0.8,10.1-2.4,14.3-3.8,17.1c-1.4,2.8-2.4,4.2-3.5,5.3s-2.3,1.7-3.2,2.5c-0.9,0.8-1.6,1.7-2,2.6
		c-0.4,1-0.5,2-0.3,2.8c0.2,0.7,0.6,1.2,1.2,1.2c0.6,0,1.3-0.3,2.2-1.2c0.9-0.9,2.1-2.3,3-3.2c0.8-0.9,1.3-1.3,1.8-1.3
		c0.4,0,0.8,0.4,0.7,1.7c-0.1,1.3-0.8,3.4-1.8,5.3c-1,1.9-2.4,3.6-3,4.5c-0.6,0.9-0.6,1.1,0.1,0.8s2-1.2,2.8-1.6
		c0.7-0.4,0.9-0.2,0.3,0.6c-0.6,0.8-1.9,2.4-4.1,4.5c-2.3,2.1-5.5,4.7-7.3,6.3c-1.8,1.5-2.3,2-2.4,2.4c-0.1,0.4,0,0.7,0.8,0.6
		c0.8-0.1,2.2-0.7,3.6-1.6c1.4-0.9,2.7-2.2,3.6-3c0.9-0.8,1.4-1,1.9-0.8c0.4,0.2,0.8,0.9,0.5,2.3c-0.2,1.4-1,3.6-2.2,5.7
		c-1.2,2.2-2.9,4.4-5,6.5c-2.1,2.1-4.5,4.2-9.2,6.7"/>
	<path class="st0" d="M269.3,258.9c0.4-3.9,2.2-6.4,3.7-8.1c1.5-1.7,2.9-2.7,6.7-4.5"/>
	<path class="st0" d="M271.9,258.7c-0.3-1.9,1.1-4.6,3.2-7.1c2.1-2.5,5-4.9,12.6-7.3"/>
	<path class="st0" d="M289.3,277.8c-2.6,4.8-3.6,9.6-2.9,14.3"/>
	<path class="st0" d="M318.8,189.9c1.3-2.5,0.6-3.2-0.7-3.3c-1.3-0.1-3.2,0.5-5.3,1.8c-2.1,1.3-4.3,3.2-7,7c-2.6,3.8-5.6,9.5-8,14.4
		c-2.4,4.9-4.1,9.1-5.9,14c-1.8,5-3.8,10.7-8.2,21.4"/>
	<path class="st0" d="M310.8,206.8c-7,9.8-8.9,13.8-10.6,17.6c-1.7,3.8-3.1,7.5-4.4,10.7c-1.4,3.1-2.7,5.7-5.4,8.7"/>
	<path class="st0" d="M313.9,208.5c-8.6,10.1-10.5,13.8-12.4,18.3c-1.9,4.4-3.8,9.5-8,16"/>
	<path class="st0" d="M307.7,193.1c1.3-3.8,0.8-4.9,0-5.6c-0.9-0.7-2.1-0.9-4.4-0.4c-2.3,0.5-5.8,1.6-8.9,3.1s-5.7,3.5-7.5,5.6
		c-1.7,2.1-2.5,4.3-3.1,6.9c-0.6,2.6-0.9,5.7-2.1,12.8c-1.3,7-3.4,18.1-9.1,33.8"/>
	<path class="st0" d="M304.5,204.7c-6.8,10.5-9.2,18.4-11.6,25c-2.4,6.6-4.8,11.7-7.3,15.1"/>
	<path class="st0" d="M295.9,206.9c-6,13.8-11.9,31.5-15.1,39"/>
	<path class="st0" d="M291.2,206.8c-1.7,7.1-3.8,11-5.6,16.5c-1.8,5.5-3.4,12.6-7.8,23.6"/>
	<path class="st0" d="M286.7,206.1c-2.9,14.5-6.6,28.4-11.1,41.6"/>
	<path class="st0" d="M281.1,218.7c0.4-10.4-0.1-14-0.7-16c-0.6-2-1.4-2.5-3-2.3c-1.6,0.2-3.9,1-5.9,2.6c-2,1.6-3.7,4-4.7,6.4
		c-1,2.4-1.4,4.8-1.4,10.9c0,6.1,0.3,15.9-0.6,37"/>
	<path class="st0" d="M268.9,219.9c0.5,12.3-1.7,27.1-2,34.1"/>
	<path class="st0" d="M273,217.6c-2.3,11.6-2.6,15.6-2.8,19.6c-0.2,4-0.3,7.8-1.7,15.1"/>
	<path class="st0" d="M276.7,215.8c-1.5,11.8-3.6,23.5-6.3,34.8"/>
	<path class="st0" d="M262.7,259.4c0.2-14.9-1.3-27.8-2.2-34.8c-0.9-6.9-1.3-7.8-2.1-8.5c-0.8-0.6-2.1-1-3.4-1c-1.4,0-2.8,0.4-4,1.6
		c-1.2,1.2-2.2,3.2-2.8,5.6c-0.5,2.4-0.6,5.1,0.6,11.9c1.2,6.8,3.5,17.6,5.2,36.6"/>
	<path class="st0" d="M259.7,219.5c0.5-4.8,3.4-5.6,5.6-2.1"/>
	<path class="st0" d="M257.3,226.7c2,16.7,2.1,24.2,3.6,33.6"/>
	<path class="st0" d="M254.2,229.1c2.4,13.3,3.9,27,5.3,32.4"/>
	<path class="st0" d="M251.4,230.8c0.1,4.9,4.6,21.1,6,34.2"/>
	<path class="st0" d="M248.2,222c-2.7-1.3-4.7,0-6,1.6c-1.3,1.6-1.7,3.5-1.9,5.9c-0.2,2.4,0,5.3,1.6,12.4c1.6,7,4.7,18.2,6.5,33.9"
		/>
	<path class="st0" d="M245.3,237.5c2,16.5,5.8,30.1,6.2,34.9"/>
	<path class="st0" d="M240.3,230.9c-3.2-2.5-6-2.2-8-1.6c-2.4,0.7-3.5,1.8-4.3,3c-0.8,1.2-1.4,2.6-1.7,4.4c-0.3,1.8-0.3,4,0.7,7.8
		c0.9,3.8,2.8,9.2,4.7,14.3c1.9,5.1,3.8,9.8,5.3,14.3c1.5,4.5,2.7,8.8,2.6,12.6"/>
	<path class="st0" d="M231.5,246c0.6,2.6,2,4.6,2.8,6.6c0.8,2,1,4.1,2.1,7.5c1.1,3.4,3.2,8.3,5.4,23.4"/>
	<path class="st0" d="M235.9,244.2c4.8,16,7.1,28.5,7.7,37"/>
	<path class="st0" d="M245.4,278.8c-0.7-10.1-1.9-15.9-3.2-20.9c-1.3-5-2.8-9.1-3.3-15.3"/>
	<path class="st0" d="M294.9,292.1c-0.6-2.2,0.6-6.4,1.9-9.3c1.3-2.9,2.8-4.6,3.5-5.3c0.7-0.7,0.6-0.3,0.3,0.8
		c-0.4,1.1-1,2.8-1.4,4.5c-0.4,1.7-0.5,3.4-0.3,5c0.1,1.5,0.5,2.9,1.8,4.3"/>
	<path class="st0" d="M328.4,238.9c-0.1-0.4-0.2,0.5-0.8,1.7c-0.6,1.2-1.7,2.6-2.8,3.7s-2.2,2.2-3.1,3.2c-0.9,1-1.5,2-1.9,2.9
		c-0.4,0.9-0.6,1.8-0.6,2.4c0.1,0.6,0.4,1,0.7,1.1c0.3,0.1,0.6,0.1,1.6-0.7c0.9-0.8,2.5-2.3,3.7-3.5c1.2-1.3,1.9-2.3,2.5-3.4
		c0.6-1.1,0.9-2.4,1.1-3.9C328.6,241,328.5,239.3,328.4,238.9z"/>
	<path class="st0" d="M313.5,292.1c-1.1-1.7-1-8.2-0.5-12.9c0.5-4.7,1.3-7.6,2.6-10.7s3.1-6.4,5-9c1.9-2.6,3.7-4.4,5.5-5.9
		c1.8-1.5,3.4-2.7,4.1-3c0.7-0.3,0.3,0.2-0.5,1.5c-0.8,1.3-2.1,3.4-3.1,6.1c-1.1,2.7-1.9,5.9-2.4,8.9c-0.5,3-0.6,5.8-0.5,8.5
		c0.1,2.7,0.3,5.4,0.8,7.8c0.6,2.3,1.4,4.3,2.4,5.5c0.9,1.2,1.9,1.7,3.6,3.3"/>
	<path class="st0" d="M327.2,268.9c-0.2,0.5-0.6,2.1-0.7,4.1c-0.1,2.1,0.1,4.6,0.6,6.8c0.5,2.2,1.3,4,1.9,5.4
		c0.6,1.4,0.9,2.3,1.4,2.9s1.3,0.8,1.7,0.8c0.4,0,0.4-0.1,0.1-0.2c-0.3-0.1-0.8-0.3-1.2-0.7c-0.4-0.4-0.7-1.1-1.1-2.9
		c-0.4-1.8-0.8-4.8-1.2-7.6c-0.4-2.8-0.7-5.3-1-6.9C327.6,269,327.4,268.4,327.2,268.9z"/>
	<path class="st0" d="M334,189.6c6.7-8.8,15.9-13.4,20.7-15.7c4.8-2.3,5.2-2.3,5.3-2.4c0.1-0.1,0-0.3-2.5-0.2
		c-2.5,0.1-7.4,0.6-16.3,3"/>
	<path class="st0" d="M313.8,187.9c-1.7-0.4-3.6-0.3-5.7,0.1"/>
	<path class="st0" d="M346.5,173c1.3-0.9,0.6-1.2-0.3-1.2c-1,0-2.1,0.3-2.6,0.1c-0.4-0.2-0.1-0.9-0.1-1.4c0-0.5-0.3-0.7-2.1-0.6
		c-1.8,0.2-5,0.7-8,1.6c-3,0.9-5.8,2.1-9,4.2c-3.1,2-6.7,4.7-13.5,12"/>
	<path class="st0" d="M346.6,178.3c0.4-1.4-0.4-1.8-1.5-1.6c-1.1,0.2-2.5,1-6.7,4.1"/>
	<path class="st0" d="M340,179.7c1.1-2,1-2.8,0.8-3.2c-0.2-0.4-0.6-0.6-1.4-0.3c-0.7,0.3-1.8,0.9-2.3,1.9"/>
	<path class="st0" d="M338.3,176.8c0-1.5-0.3-1.7-0.6-1.7c-0.3,0-0.5,0.1-1,0.4c-0.5,0.4-1.2,1-1.7,1.3s-0.6,0.5-0.6,0.2
		c0-0.3,0.2-0.9,0.3-1.3c0.1-0.4,0-0.5-0.6-0.3c-0.6,0.2-1.8,0.8-2.8,2.1"/>
	<path class="st0" d="M332.7,176.2c0.6-1,0.5-1.2-0.1-1.1c-0.6,0.1-1.7,0.6-2.9,1.3c-1.2,0.7-2.5,1.8-3.7,3.4"/>
	<path class="st0" d="M328.7,177.1c0.2-1.2-0.2-1.3-0.9-1s-1.4,0.9-2.7,1.9c-1.3,1-3,2.5-4.5,4"/>
	<path class="st0" d="M326.5,177c0.8-1.3,0.3-2-3-0.7"/>
	<path class="st0" d="M327.4,173.9c-1-1.7-7.3-0.7-12.5,0.9c-5.2,1.6-9.5,3.8-12.9,5.7c-3.4,1.9-5.9,3.4-8.3,5.5
		c-2.4,2-4.8,4.5-5.7,8.6"/>
	<path class="st0" d="M321.2,173.3c-8.5,3.6-10.3,5.3-11.4,6.4c-1.2,1.1-1.7,1.6-2.4,2c-0.6,0.4-1.4,0.6-2,1c-0.6,0.4-1.2,1-1.5,1.2
		c-0.3,0.3-0.4,0.2-0.3-0.1c0.1-0.3,0.3-0.9,0.4-1.3c0.1-0.3-0.1-0.4-0.5-0.2c-0.4,0.3-1.2,1-1.6,1.2c-0.4,0.3-0.5,0.1-0.5-0.1
		c0-0.2,0-0.6-0.3-0.7c-0.4-0.1-1.1-0.1-5.4,1.6"/>
	<path class="st0" d="M319.1,179.6c0.5-0.5-0.8-0.7-2.1-0.5c-1.3,0.2-2.4,0.9-3.1,1.5c-0.7,0.6-1.1,1-1.3,1.2s-0.4,0.1-0.4-0.2
		c0-0.3,0.2-0.8,0.2-1.2c0-0.3-0.1-0.4-0.5-0.2c-0.4,0.3-1.1,0.9-1.9,1.4c-0.6,0.4-1.2,0.6-2-0.4"/>
	<path class="st0" d="M285.1,198.6c-2,0.9-3.6,2.3-4.8,4"/>
	<path class="st0" d="M290.6,189c0.7-5.5,3-8.4,4.1-10c1.1-1.6,1-2.1,0.3-2.1c-0.7,0-2.1,0.5-3.7,1.6c-1.7,1.2-3.6,3.1-5.4,5.6
		c-1.8,2.5-3.5,5.5-4.4,6.8c-0.9,1.3-1,0.7-0.5-1.1c0.5-1.8,1.5-4.9,2-6.5c0.5-1.7,0.4-1.9-1-1c-1.4,0.9-4.1,2.9-6.9,5.9
		c-2.8,3-5.8,7-8.3,11.4c-2.4,4.3-4.3,8.9-5.1,15.8"/>
	<path class="st0" d="M291,186.6c-1.1-2.2-2.9-0.5-4.2,1.5c-1.3,1.9-2,4-2.9,5.6c-0.9,1.7-1.9,2.9-2.4,3.5c-0.5,0.6-0.6,0.5-0.6,0.2
		s0.1-0.8-0.1-1c-0.1-0.3-0.5-0.3-0.9-0.1c-0.3,0.2-0.7,0.7-0.8,0.9s-0.3,0.2-0.3,0c0-0.2,0-0.6-0.2-0.8c-0.2-0.3-0.5-0.4-0.8-0.3
		c-0.3,0.1-0.6,0.5-0.7,0.7c-0.2,0.2-0.3,0.2-0.4-0.3c-0.1-0.5-0.2-1.6,0-2.7c0.2-1.1,0.7-2.2,1-3c0.2-0.7,0.2-1-0.2-0.8
		c-0.4,0.2-1,1-1.5,1.3c-0.5,0.3-0.8,0.1,0.3-4.5"/>
	<path class="st0" d="M276.9,186.3c0.2-1.8-0.9-2.2-2.8-1.6c-1.9,0.6-4.5,2.1-7.2,4.5c-2.7,2.5-5.6,5.8-7.7,8.7
		c-2.1,2.9-3.5,5.3-4.9,8.4c-1.3,3.1-2.6,6.9-3,10.1"/>
	<path class="st0" d="M266.6,189.5c2.2-0.7,2.7-0.4,2.7-0.1c0,0.4-0.6,0.9-1,1.7c-0.4,0.8-0.8,1.8-0.8,2.3c0,0.4,0.2,0.3,0.8-0.3
		c0.6-0.6,1.5-1.7,3.2-0.7"/>
	<path class="st0" d="M260.1,196.7c-3.6-0.1-7.4,3.3-9.7,6.1c-2.3,2.8-3.2,4.9-4,8c-0.8,3.1-1.5,7.1-2.2,11.2"/>
	<path class="st0" d="M255.6,203.6c0.1-1.8-0.2-1.9-0.6-1.7c-0.4,0.2-0.9,0.5-1.4,1.2c-0.4,0.6-0.8,1.5-1,2s-0.4,0.5-0.4-0.4
		c0-0.8,0.1-2.5-2.6-0.8"/>
	<path class="st0" d="M233.3,216.6c3.4-4.1,5.8-5.8,7.3-6.5c1.5-0.7,1.9-0.5,1.3,0.4c-0.6,0.9-2.2,2.5-3.5,4.1
		c-1.3,1.6-2.3,3.2-2.7,4.2c-0.4,0.9-0.1,1.2,0.6,0.8c0.7-0.4,1.9-1.4,2.8-1.7c0.9-0.3,1.4,0,1.6,0.4c0.1,0.4-0.1,1-1.1,2.2
		s-2.5,3.1-5.4,8.3"/>
	<path class="st0" d="M217.5,237.2c3.1-9,6.4-14,9.2-17.5c2.8-3.5,5-5.5,7.1-6.8c1.6-1,3-1.5,4.1-1"/>
	<path class="st0" d="M229.2,216.9c0.2,2.4-0.4,4.6-0.6,5.7c-0.2,1.1,0,1,0.5,0.3c0.5-0.7,1.4-2.1,2-2.8c0.6-0.7,0.8-0.6,0.7,0.1
		c-0.1,0.7-0.5,1.9-0.6,2.9c-0.1,1,0.1,1.7,0.3,2c0.2,0.3,0.3,0.3,0.7,0s0.8-0.9,1.2-1.1c0.5-0.3,0.9-0.3,0.9,0.1
		c0,0.4-0.3,1.1-0.4,2c-0.1,0.9,0.1,1.9,0.6,2.3"/>
	<path class="st0" d="M225.9,220.8c-2-0.9-8.2,2.5-13,5.7c-4.8,3.2-8.2,6.4-10.9,9.7c-2.7,3.3-4.6,6.9-6.1,9.8
		c-1.5,3-2.6,5.4-2.7,7.8"/>
	<path class="st0" d="M204.3,241.4c1.5-2.1,3-2.7,4.2-2.8c1.2-0.2,2,0.1,2.4,0.9c0.4,0.8,0.4,2.2,0,3.5c-0.4,1.3-1.3,2.7-3.4,4"/>
	<path class="st0" d="M204.3,233.6c3.3-1.6,4.2-1.3,4.6-0.8c0.4,0.5,0.1,1.2-0.3,1.9c-0.5,0.7-1.2,1.4-1.6,2.8
		c-0.1,0.5-0.2,1.1-0.3,1.7"/>
	<path class="st0" d="M208.1,238.6c2.1-3.5,4.5-4.5,5.8-4.9c1.4-0.3,1.7,0,1.4,1c-0.3,1-1.2,2.6-0.5,3.9"/>
	<path class="st0" d="M211.9,234.6c2.6-4.7,7.1-10.5,10.6-13.4"/>
	<path class="st0" d="M224.9,220.6c-2.6-5.4-2.8-9.1-2.6-12.1c0.2-3,0.7-5.4,4.3-10.7"/>
	<path class="st0" d="M217.3,223.7c-0.4-7.2,1-11.8,2.3-15.4c1.3-3.6,2.7-6.2,4.8-8.4c2.1-2.3,5.1-4.3,7.8-5.6
		c2.4-1.1,4.6-1.7,7.2-0.1"/>
	<path class="st0" d="M245.3,191.1c-7,2.6-10.7,7.4-13.8,11.6c-3,4-5.4,7.4-7.8,15.2"/>
	<path class="st0" d="M217.9,213.9c-5,5.2-7.4,11.7-7.3,14.1"/>
	<path class="st0" d="M234.9,212.3c0.9-4.8,3.6-8.9,6.2-12.1s5.2-5.6,9-8.2c3.8-2.7,8.9-5.7,12.1-7.4c3.2-1.7,4.7-2.2,5.4-2.3
		c0.7-0.1,0.7,0.1-1.7,2.5c-2.4,2.4-7.1,7-12.8,15.2"/>
	<path class="st0" d="M255.6,192.1c2.3-2.2,4.6-3.6,7.1-4.1"/>
	<path class="st0" d="M291.4,168.2c-1,0.9-1.4,1.8-1.3,2.7"/>
	<path class="st0" d="M382.3,292.1c12.1-6.2,17.4-11.7,20.8-15.7c3.4-4,5-6.7,6.5-10.1c1.5-3.5,2.9-7.7,4.1-12.2
		c1.2-4.4,2.1-9,2.6-12.6c0.5-3.6,0.7-6.2,0.7-8.4c0-2.2-0.1-4-0.1-4.9c0.1-0.9,0.3-1,0.9,0.9c0.6,1.9,1.6,5.7,2.2,9.5
		c0.6,3.8,0.8,7.6,0.7,11.1c-0.1,3.4-0.5,6.5-0.9,8.7c-0.4,2.2-0.8,3.5-1,4.1c-0.2,0.7,0,0.7,0.4,0.4c0.4-0.3,1.2-1.1,1.9-2.3
		c0.7-1.2,1.4-2.8,1.9-3.7c0.5-0.9,0.7-1.1,0.9-0.4c0.2,0.8,0.4,2.5,0.1,5c-0.3,2.4-1.2,5.5-2.5,8.8c-1.3,3.3-3,6.8-5,10.3
		c-2,3.6-4.3,7.2-8.9,11.5"/>
	<path class="st0" d="M438.1,269.5c4.3,9.2,4.7,16.7,3.3,22.5"/>
	<path class="st0" d="M412.9,292.1c5.7-2.9,9.4-6.6,13.2-13.2"/>
	<path class="st0" d="M426.1,278.9c0.7,1.2,1.4,3.2,1.9,6.1"/>
	<path class="st0" d="M428,285c-2,2.6-4.4,4.9-7.2,7"/>
	<path class="st0" d="M425.4,267.7c2.5,1.7,2.4,2.5,1.9,3.4s-1.6,2-6.7,7.4"/>
	<path class="st0" d="M425.4,267.7c-1.2,3.7-2.8,7.4-4.8,10.9"/>
	<path class="st0" d="M302.3,165.7c4.2-2,6.6-3.6,8.2-4.3c1.7-0.7,2.7-0.6,3.1-0.4c0.5,0.1,0.4,0.3-1,0.9c-1.4,0.6-4.3,1.7-10.8,7.6
		"/>
	<path class="st0" d="M311.7,167.4c-1.2-0.5-6,1.6-9,4.3"/>
	<path class="st0" d="M306.9,165.2c2,0.1,1.7,0.6,0.8,1.4c-0.9,0.8-2.4,1.8-2.2,3"/>
	<path class="st0" d="M279,184.4c0.9-3.5,8.8-9.8,14.3-14c5.5-4.2,8.7-6.2,11-7.4c2.3-1.1,3.7-1.4,4.6-0.8"/>
	<path class="st0" d="M276.3,184.7c1.4-8,3.8-14.2,5.6-18c1.8-3.8,2.8-5.3,4.3-6.2c1.5-0.9,3.4-1.3,5.5-1.4c2.1-0.1,4.2,0,5.3,0.3
		c1.1,0.3,1.1,0.7,0.7,1.1c-0.4,0.4-1.3,0.7-2.5,0.8c-1.2,0.1-2.8,0.1-4.4,0.9c-1.5,0.8-3,2.5-4.4,4.3c-1.3,1.9-2.5,4-3.4,6.5
		c-0.8,2.5-1.4,5.5-0.9,6.9"/>
	<path class="st0" d="M290.1,171c-2.3-0.2-4.3-0.2-6.2-0.1"/>
	<path class="st0" d="M280,171.3c-2.3,0.4-4.1,1-5.7,1.6c-3.5,1.3-5.6,2.6-7.7,4.4c-2.1,1.8-4,3.9-6.3,8.4"/>
	<path class="st0" d="M256.3,188c4-8.3,7.8-11.7,10.6-13.8c2.8-2.1,4.5-2.9,8.1-4c1.6-0.5,3.7-1.1,6-1.5"/>
	<path class="st0" d="M285.4,168.2c1.9-0.1,3.9-0.1,6,0.1"/>
	<path class="st0" d="M318.1,162.5c-0.2-2.6,1.3-5.7,3.3-8.4c2-2.7,4.4-5,7.1-6.7c2.7-1.7,5.8-2.8,8.1-3.4c2.3-0.5,3.9-0.4,4.7-0.3
		c0.8,0.2,0.9,0.4-0.2,0.9c-1.1,0.5-3.3,1.1-5.3,2.3c-2.1,1.2-4,2.9-5.8,4.7c-1.8,1.8-3.5,3.6-2.8,4.8"/>
	<path class="st0" d="M384.6,149.5c-2.9-5.4-5.1-7.4-6.7-8.7c-1.6-1.2-2.7-1.5-3.3-1.6c-0.6-0.1-0.8,0.1-0.7,0.5
		c0.1,0.4,0.4,0.9,1.2,1.6c0.8,0.8,2.2,1.8,3.2,3.2c1,1.4,1.7,3,2.5,6.3"/>
	<path class="st0" d="M329.3,158.7c1.7-1.6,5.5-3.8,8.6-4.1"/>
	<path class="st0" d="M292.7,186.8c7.6-10.7,12.6-15,15.8-17.3c3.2-2.3,4.5-2.7,6.6-4.4c2.2-1.7,5.1-4.8,7.8-6.6
		c2.7-1.8,5-2.5,6.5-2.5c1.1-0.1,1.8,0.2,2.1,1"/>
	<path class="st0" d="M334.6,157.1c5.7-4.2,9.2-4.7,10.9-4.9c1.7-0.2,1.5,0,0.3,0.8c-1.2,0.8-3.6,2.2-6.1,4.5
		c-2.5,2.2-5.3,5.2-7.4,7.8c-2.1,2.5-3.6,4.5-4.3,5.7c-0.8,1.2-0.8,1.6-0.8,2.6"/>
	<path class="st0" d="M341.6,152.2c-0.6-1.5-0.1-2.7,0.7-4c0.8-1.3,2-2.7,3.1-3.5s2.4-1.2,3-1.2c0.6-0.1,0.7,0.1,0.3,0.5
		c-0.4,0.4-1.3,0.9-2,1.6c-0.6,0.8-1,1.7-1.2,2.6c-0.2,0.8-0.3,1.5-0.1,2.1"/>
	<path class="st0" d="M347.8,149.4c3.1-4.7,6.3-6.3,8.3-7.1c2-0.8,2.7-0.8,3-0.8c0.3,0.1,0.2,0.3-0.3,0.6c-0.5,0.3-1.5,0.8-2.7,1.7
		s-2.6,2.2-3,4.2"/>
	<path class="st0" d="M423.4,226.5c3.4,7.9,3.9,11.3,4.6,13.3c0.7,1.9,1.4,2.5,2.2,2.8c0.7,0.3,1.4,0.4,1.8,0.6
		c0.4,0.2,0.5,0.4,0.5,1s-0.1,1.6,0.3,2.4c0.5,0.8,1.5,1.5,2.5,1.9c0.9,0.4,1.7,0.6,2.1,0.9c0.4,0.3,0.3,0.7-0.1,1.1
		c-0.5,0.4-1.3,0.7-1.7,1c-0.4,0.2-0.3,0.3,0,0.5c0.4,0.2,1,0.4,1.3,0.8c0.3,0.4,0.4,0.9,0,1.2c-0.4,0.3-1.3,0.4-1.8,0.6
		c-0.5,0.2-0.5,0.4-0.2,1c0.3,0.6,1,1.5,2.1,2.5c1.1,1,2.6,2,3.9,2.7c1.3,0.7,2.5,1,3.1,1.3s0.8,0.7,0.5,1.1c-0.3,0.3-1,0.6-1.6,0.7
		c-0.6,0.1-1,0-1.3,0.1c-0.3,0.1-0.4,0.4,0,1.1c0.4,0.7,1.2,1.8,1.6,3c0.4,1.1,0.2,2.2-1.7,3.6"/>
	<path class="st0" d="M446.1,263.5c0.6-0.1,1.5,0,2.4,0.3c0.9,0.3,1.6,1,2,1.4c0.4,0.4,0.4,0.6-0.1,0.7c-0.5,0.1-1.4,0-2.3-0.2
		c-0.9-0.2-1.6-0.6-2.1-0.8c-0.5-0.3-0.6-0.5-0.6-0.8C445.4,263.8,445.6,263.6,446.1,263.5z"/>
	<path class="st0" d="M453.7,250c9,3.1,13,6.9,15.3,9.4c2.3,2.5,2.9,3.7,2.9,5c-0.1,1.3-0.8,2.6-1,3.7c-0.2,1.1,0.1,2,1.4,2.9
		c1.3,0.9,3.6,1.7,5.4,2.8c1.9,1.1,3.3,2.6,4.4,4.3c1,1.7,1.6,3.7-1.1,8.2"/>
	<path class="st0" d="M482.8,279.6c9.1,1.7,17,7.2,18.4,12.5"/>
	<path class="st0" d="M484.7,280c5.3,5.6,7.5,10.3,7.4,12.1"/>
	<path class="st0" d="M487.9,280.9c5.2,5.4,6.8,8.7,7,11.1"/>
	<path class="st0" d="M474.9,268.6c7.2,0.6,10.7,2.2,13.1,3.9c2.5,1.7,4.1,3.4,4.4,10.4"/>
	<path class="st0" d="M479.7,269.2c4.4,4.9,7.1,9.8,7.2,11.4"/>
	<path class="st0" d="M477.5,268.9c3.4,4,5.8,7.7,7.2,11.1"/>
	<path class="st0" d="M417.4,218.5c4.8,5.2,9,13.1,12.6,18.2c3.6,5.1,6.8,7.4,10.1,9.3c3.3,1.8,6.9,3.1,11,3.8
		c4.1,0.6,8.6,0.6,12.8,1.6s8,3.2,11.8,5.6c3.8,2.5,7.5,5.2,9.4,8.1c1.3,2,1.8,4,1.3,6.5"/>
	<path class="st0" d="M467,257.3c7.8,4.8,10.9,10,11.3,11.7"/>
	<path class="st0" d="M458.1,250.4c11.2,4,14.9,7.7,17.7,10.6c2.8,3,4.9,5.3,5.8,8.6"/>
	<path class="st0" d="M284.5,111c-5.8,8.5-6.8,14.2-7.5,18.6c-0.6,4.4-0.9,7.4-0.7,10.6c0.1,3.2,0.6,6.5,3.7,9.9"/>
	<path class="st0" d="M271.1,135.3c-2.1-1.3-2.3-1.1-2.5-0.7c-0.2,0.4-0.3,1-0.3,2s0.4,2.4,0.8,3.4c0.4,1,0.8,1.6,2.4,2.6
		c1.6,1.1,4.2,2.6,6.1,3.4"/>
	<path class="st0" d="M288.2,115.5c1.4,1.3,0,3.6-0.8,5.5s-1.3,3.4-1.4,5c-0.1,1.6,0,3.4,0,4.5c0,1.1-0.1,1.4-0.9,1.9
		c-0.8,0.5-2.3,1.1-4,3.4"/>
	<path class="st0" d="M284.9,132.5c-0.5,2.8-0.6,4.2-0.6,5.2c0,1,0,1.6-0.1,2.2c-0.1,0.5-0.4,1-1.3,2c-0.9,0.9-2.4,2.4-5.5,4.3"/>
	<path class="st0" d="M275.6,129.3c-2.4-2-2.6-4-2.7-5.5c-0.2-2-0.1-3.2,0-4.4c0.1-1.2,0.3-2.2,0.5-2.7c0.2-0.5,0.4-0.5,0.6-0.2
		c0.2,0.3,0.4,0.9,0.8,1.4c0.3,0.5,0.7,0.8,0.9,0.9c0.2,0,0.2-0.2,0.1-0.7c-0.1-0.5-0.4-1.3-0.3-2.1c0.1-0.8,0.5-1.6,1.2-2.6
		c0.7-1,1.7-2.2,2.9-3.4c1.2-1.2,2.5-2.2,3.8-3c1.2-0.8,2.3-1.2,3-1.3c0.7-0.1,0.9,0.1,1.3,1.1c0.4,1,1.1,2.7,1.3,4.2
		c0.2,1.4,0.1,2.5-0.1,3.3c-0.2,0.8-0.4,1.3-1.7,2.2c-1.4,0.9-3.9,2.3-6.1,4.3"/>
	<path class="st0" d="M274,140.8c-0.8-3.1-2.7-5.1-3.9-6.6c-1.2-1.5-1.6-2.3-1.7-3.3c-0.1-1,0.2-2.1,0.6-3c0.5-0.9,1.1-1.5,1.5-2.4
		c0.3-0.9,0.3-1.9,0.4-2.5c0.1-0.6,0.2-0.7,0.5-0.5c0.4,0.1,1,0.6,1.5,1.6"/>
	<path class="st0" d="M270.8,124.1c0.7,2.9,3.6,6.5,5.8,8.6"/>
	<path class="st0" d="M270.2,126c1.3,4.1,3.5,7.3,6.1,9.6"/>
	<path class="st0" d="M269.1,127.7c0.2,2.4,2.1,4.8,3.5,6.5c1.4,1.6,2.4,2.6,3.7,5.2"/>
	<path class="st0" d="M284.4,136.4c-1.4,0.8-2.5,1.8-3.5,3"/>
	<path class="st0" d="M285.9,128.7c-2.7,1.7-4.9,3.6-6.6,5.6"/>
	<path class="st0" d="M277.9,124.8c3.3-2.9,6.6-4.3,7.2-4.1"/>
	<path class="st0" d="M277.3,127.7c2.5-2.8,5.4-4.5,7.8-4.6"/>
	<path class="st0" d="M276.6,132.6c3.1-3.3,6-5.4,7.7-6.1"/>
	<path class="st0" d="M277,130.2c2.3-2.6,4.4-4.4,6.5-4"/>
	<path class="st0" d="M493.2,283.4c12.2-5.6,25.4-7.7,35.5-8.8c10-1.1,16.8-1.1,22.3-0.1c5.5,1,9.8,3,12.5,5.2
		c2.7,2.1,3.7,4.4,3.8,6.4c0,2.1-0.9,3.9-3.8,6"/>
	<path class="st0" d="M495.4,284.8c13.2-3,29-3.6,43.3-6.3"/>
	<path class="st0" d="M498.4,287.4c12.4-1.9,28.9-3.1,49.4-3.8"/>
	<path class="st0" d="M500,289.5c15.1,0,30.7-0.4,46.8-1.1"/>
	<path class="st0" d="M486.4,267.7c12.4-7.1,18.3-8.1,24.2-10.3c5.8-2.1,11.6-5.3,16.1-6.6c4.4-1.3,7.5-0.9,9.7-0.2
		c2.2,0.7,3.6,1.6,4.2,2.9c0.6,1.3,0.4,2.9-0.4,4.7c-0.8,1.8-2.2,3.9-7.2,6.3c-5,2.4-13.5,5-42,11.1"/>
	<path class="st0" d="M536.2,262.6c8.2-1.8,12.8-0.7,15.3,0.4c2.5,1.1,2.8,2.1,2.9,3.1c0,1-0.2,2-1.4,3.3c-1.1,1.4-3.1,3.1-5.8,4.6"
		/>
	<path class="st0" d="M492.1,279.9c3.2-0.2,15.3-4.3,23.3-6.1c8.1-1.9,12.2-1.5,17.7-4.7"/>
	<path class="st0" d="M486.6,269.5c8.9-3.3,21.4-8.2,37.3-14.7"/>
	<path class="st0" d="M523.4,258.3c-14.5,5.9-26.7,10.4-36.5,13.6"/>
	<path class="st0" d="M524.5,262.1c-12.4,4.8-24.1,8.6-35,11.6"/>
	<path class="st0" d="M467.8,252.6c11.5-15.5,17.1-21.1,21.4-24.4c4.3-3.3,7.3-4.3,10.6-4.6c3.3-0.3,6.9,0,9.2,0.9s3.3,2.3,3.6,3.9
		c0.3,1.6,0,3.4-1.6,5.7c-1.6,2.3-4.5,5.3-9.1,8.6c-4.6,3.4-10.9,7.2-24.3,15.4"/>
	<path class="st0" d="M510.8,234.5c3.5-0.7,4.7,0.6,5.2,1.9c0.5,1.3,0.2,2.5-0.6,4c-0.8,1.5-2.2,3.2-6.3,6.3
		c-4.1,3.1-11,7.5-26.4,15.5"/>
	<path class="st0" d="M512.6,243.8c4.3-2.4,8-2,10.6-1.2c2.6,0.8,4,2,4.6,3.3s0.5,2.8-1.7,5.1"/>
	<path class="st0" d="M483.5,263c2.5-0.5,12.2-5.6,29.3-15.3"/>
	<path class="st0" d="M485.3,265.2c9.9-4.3,19.5-9.1,28.9-14.5"/>
	<path class="st0" d="M479.5,259.6c10.3-5.2,17.6-11.2,27.4-17"/>
	<path class="st0" d="M494.7,230.2c-8.1,8.7-16.4,16.5-24.7,23.4"/>
	<path class="st0" d="M496.5,234c-14.9,13.8-21.7,19.2-24.6,20.6"/>
	<path class="st0" d="M473.4,255.5c6.2-3.6,16-11.2,25.4-19"/>
	<path class="st0" d="M500.5,239.4c-9.9,7.5-17.8,12.8-25.3,17.2"/>
	<path class="st0" d="M443.1,247.4c-4.9-15.9-7-25.2-8.2-31.6c-1.2-6.4-1.4-9.9-1.1-12.4c0.3-2.5,1.1-4,2.4-4.9c1.3-1,3-1.4,4.7-0.9
		c1.7,0.5,3.2,1.8,4.2,3.8s1.5,4.5,1.6,9.9c0.1,5.5,0,13.8,4.4,38.5"/>
	<path class="st0" d="M437.2,211.8c0.3,5.6,4.7,19,7,36"/>
	<path class="st0" d="M439.8,208.3c0,10.7,2.9,18.7,5.8,40.1"/>
	<path class="st0" d="M443.2,212.7c0.6,10.2,2.2,22.4,5.1,36.5"/>
	<path class="st0" d="M446.6,207.6c2.5-5.4,3.7-5.4,4.5-5c0.8,0.4,1.3,1.4,1.7,4c0.4,2.6,0.6,6.9,0.5,13.8
		c-0.1,6.9-0.6,16.5,0.9,29.6"/>
	<path class="st0" d="M453.1,228c4.6-9,6.7-13.9,8.4-16.7c1.7-2.8,3-3.4,4.2-3.5c1.2-0.2,2.4,0.2,3.3,1.4c0.9,1.2,1.7,3.3,1.9,7.6
		c0.2,4.3,0,10.8-10.3,34"/>
	<path class="st0" d="M453,209.2c2-4,3.7-4.8,5.3-4.6c1.5,0.3,2.8,1.6,3.3,6.6"/>
	<path class="st0" d="M455.8,214.3c-0.2,3-1.1,6.3-2.6,9.9"/>
	<path class="st0" d="M461.1,218.4c-2.9,9.6-5.3,19.5-7.1,29.6"/>
	<path class="st0" d="M463.6,221c-2.6,11.3-5.4,21.1-8.3,29.2"/>
	<path class="st0" d="M466.4,223.1c-2.9,10.5-5.8,19.5-8.9,27.3"/>
	<path class="st0" d="M470,225.8c5.5-8.3,8.4-10.2,10.6-11.1c2.2-0.9,3.8-0.8,5.1-0.1c1.4,0.7,2.5,1.9,3.1,4.2
		c0.6,2.3,0.6,5.5-2.2,11.7"/>
	<path class="st0" d="M476.4,223.6c-4.3,7.5-8.9,14.7-14.2,23.6"/>
	<path class="st0" d="M479.2,225.7c-7.5,10.8-11.7,18.2-16.6,25.3"/>
	<path class="st0" d="M482.4,226.9c-7.2,9.8-12.7,18.1-16.5,25"/>
	<path class="st0" d="M433.8,203.5c-2.2-7.5-4.6-10.7-6.4-12.6c-1.8-1.8-2.9-2.3-4-2.3c-1.1,0-2.1,0.4-2.9,1.1c-0.9,0.7-1.5,1.7-2,3
		c-0.5,1.4-0.8,3.1-0.5,5.9s1.2,6.6,3,11.7c1.8,5.1,4.5,11.3,6.5,22.6"/>
	<path class="st0" d="M421.3,201.4c2.1,9.7,8.2,23.9,10,37.1"/>
	<path class="st0" d="M425.2,202.8c0.3,3.4,2.9,10.6,4.9,17.7c2,7.1,3.3,14,4.2,21.4"/>
	<path class="st0" d="M429.8,205.4c3.5,20.6,4.8,23,6,26.7c1.2,3.7,2.4,8.8,2,12.5"/>
	<path class="st0" d="M408.6,199.6c2.1,4.6,3.3,8.9,3.8,12.8"/>
	<path class="st0" d="M412,198.9c2,5.9,3.3,11.7,3.9,17.4"/>
	<path class="st0" d="M414.4,198.6c3.2,11.3,3.4,13.7,4.2,15.8c0.8,2.1,2.2,4,2.5,8.7"/>
	<path class="st0" d="M342.4,203.5c0.2-2.2-0.3-3.4-0.8-4.2c-0.4-0.7-0.8-1-1.1-1.2c-0.3-0.2-0.6-0.2-1.1,0.1
		c-0.5,0.3-1.2,1-2.1,1.3c-0.9,0.3-1.9,0.3-2.7,0.7s-1.4,1.2-1.7,2c-0.3,0.9-0.2,1.8,0.2,2.7c0.3,0.9,0.9,1.9,1.6,2.5
		c0.7,0.7,1.5,1,2.1,1.2c0.5,0.1,0.8,0,3-1.1"/>
	<path class="st0" d="M335,207.6c-3.1,0.6-4.2,2-4.7,3.3s-0.6,2.4-0.2,3.2s1.4,1,2.9,0.9c1-0.1,2.2-0.4,3.7-0.3"/>
	<path class="st0" d="M345.2,206.8c-0.2,0.5-0.3,1-0.5,1.6c-0.1,0.5-0.2,1.1-0.3,1.6c-0.1,0.5-0.2,1.1,0.2,1.3
		c0.3,0.2,1.1,0.1,1.6-0.4c0.5-0.5,0.7-1.2,0.7-1.9c0-0.7,0-1.4-0.2-1.9c-0.2-0.5-0.4-0.9-0.7-1C345.7,206,345.4,206.3,345.2,206.8z
		"/>
	<path class="st0" d="M329.9,213.7c2.4-1.8,3.9-1.1,5.1-0.3c1.1,0.7,1.9,1.5,2.7,2c0.8,0.5,1.8,0.7,2.6,0.6c0.8,0,1.6-0.3,2.1-1.1
		c0.5-0.6,0.8-1.6,2.5-3.5"/>
	<path class="st0" d="M339.5,204.7c-0.4-0.5-0.8-0.5-1.3-0.1c-0.5,0.4-0.5,0.8-0.1,1.3c0.4,0.5,0.8,0.5,1.3,0.1
		C339.9,205.5,339.9,205.1,339.5,204.7z"/>
	<path class="st0" d="M341.2,202.6c0-0.6-0.3-0.8-0.8-0.8c-0.6,0-0.8,0.3-0.8,0.8c0,0.6,0.3,0.8,0.8,0.8
		C341,203.4,341.2,203.2,341.2,202.6z"/>
	<path class="st0" d="M345.6,202.4c0.1-0.6-0.1-0.9-0.7-1.1c-0.6-0.1-0.9,0.1-1.1,0.7c-0.1,0.6,0.1,0.9,0.7,1.1
		C345.2,203.3,345.5,203.1,345.6,202.4z"/>
	<path class="st0" d="M342.2,206.1c0.2-0.6,0-0.9-0.5-1.1c-0.6-0.2-0.9,0-1.1,0.5c-0.2,0.6,0,0.9,0.5,1.1
		C341.7,206.8,342,206.7,342.2,206.1z"/>
	<path class="st0" d="M341.4,210.9c0.2-0.5,0.1-0.8-0.4-1.1c-0.5-0.2-0.8-0.1-1.1,0.4c-0.2,0.5-0.1,0.8,0.4,1.1
		C340.9,211.5,341.2,211.4,341.4,210.9z"/>
	<path class="st0" d="M347.1,214.6c0.2-0.5,0-0.8-0.4-0.9c-0.5-0.2-0.8,0-0.9,0.4c-0.2,0.5,0,0.8,0.4,0.9
		C346.7,215.2,346.9,215.1,347.1,214.6z"/>
	<path class="st0" d="M340.9,198.4c-0.2-1.5,0.5-1.9,1.2-2.1c0.7-0.2,1.5,0,2.2,0.5c0.8,0.5,1.5,1.5,2,2.5c0.4,1,0.5,2.1,0.5,3.1
		s-0.1,1.9-0.8,3.1"/>
	<path class="st0" d="M344.1,196.7c0.1-1.8,1.3-2.5,2.6-2.7c1.3-0.2,2.8,0.2,4.2,1.1c1.4,0.9,2.7,2.5,3.3,3.6c0.6,1.2,0.4,2,0.8,2.6
		c0.4,0.7,1.4,1.1,1.9,1.9c0.5,0.8,0.5,1.8,0,2.8c-0.5,1-1.5,2-2.1,2.8s-0.9,1.6-1.5,1.8c-0.6,0.3-1.4,0.1-2,0.4s-1.1,1.2-1.2,2.3
		c-0.1,1.1,0.2,2.4,0,3.5c-0.2,1-0.9,1.8-2.1,2c-1.3,0.2-3.2-0.2-5.3-0.2c-2.1,0-4.4,0.5-5.9,0.7c-1.5,0.2-2.3,0.1-3-0.3
		s-1.2-1.2,0.2-4.4"/>
	<path class="st0" d="M335.2,214.7c-0.5,1.7,1.6,3.7,4.4,4.4"/>
	<path class="st0" d="M336.1,219.5c2.6,0.7,3.4,1.3,4.4,1.4c1,0.1,2.2-0.2,4.1-2.1"/>
	<path class="st0" d="M348.6,194.2c1.6,2,2.1,5.3,1.6,9.9"/>
	<path class="st0" d="M350.1,197.4c1.3,3,3.4,3.4,4.5,2.7"/>
	<path class="st0" d="M347.3,208.5c0.9-0.1,1.7,0.1,2.3,0.6"/>
	<path class="st0" d="M349.1,205.1c0.2-0.6,0.1-0.9-0.5-1.2c-0.6-0.2-0.9-0.1-1.2,0.5s-0.1,0.9,0.5,1.2
		C348.5,205.9,348.8,205.7,349.1,205.1z"/>
	<path class="st0" d="M348.4,205.7c0,1.3-0.7,2.6-1.6,3.3"/>
	<path class="st0" d="M345.2,203c0.5,0.9,0.8,2,0.8,3"/>
	<path class="st0" d="M341.2,202.9c2.1,0.9,3.4,2.4,4,3.9"/>
	<path class="st0" d="M341.9,206.6c0.7,0.8,1.8,1.4,2.9,1.7"/>
	<path class="st0" d="M339,206.1c0.4,1.9,2.9,2.4,3.8,3.8"/>
	<path class="st0" d="M341.4,210.2c0.8-0.3,1.8-0.3,2.9-0.2"/>
	<path class="st0" d="M345.9,211c0,0.8,0.1,1.7,0.3,2.6"/>
	<path class="st0" d="M322.6,204.3c2.7-0.8,3.6-0.1,4,0.8c0.5,0.8,0.4,1.8,0.1,2.6c-0.3,0.9-0.9,1.7-1.5,2.1
		c-0.6,0.4-1.3,0.5-2.1,0.4c-0.8-0.1-1.6-0.5-3.3-2.5"/>
	<path class="st0" d="M326.9,205.6c1.4,0.5,3.7,0.7,6.8,0.5"/>
	<path class="st0" d="M324.1,210.3c1.8,0.6,2.8-0.1,3.4-0.6c0.6-0.5,0.8-1,1.8-1.2c0.9-0.2,2.6-0.2,3,0.2"/>
	<path class="st0" d="M369.9,208.7c0.1-0.4,0.3-0.5,0.6-0.6c0.2-0.2,0.4-0.5,0.8-0.4c0.4,0.1,0.9,0.5,1.7,0.9
		c0.8,0.3,1.8,0.5,1.6,0.7c-0.2,0.2-1.6,0.4-2.6,0.6c-0.9,0.2-1.4,0.6-1.6,0.3C370,209.9,369.8,209.1,369.9,208.7z"/>
	<path class="st0" d="M366.1,205.6c0.5-0.6,0.5-1-0.1-1.5c-0.6-0.5-1-0.5-1.5,0.1c-0.5,0.6-0.5,1,0.1,1.5
		C365.2,206.2,365.7,206.1,366.1,205.6z"/>
	<path class="st0" d="M370.1,204.9c0.3-0.6,0.2-1-0.4-1.3s-1-0.2-1.3,0.4c-0.3,0.6-0.2,1,0.4,1.3
		C369.4,205.6,369.8,205.5,370.1,204.9z"/>
	<path class="st0" d="M372,200c0.3-0.5,0.2-0.8-0.3-1.1c-0.5-0.3-0.8-0.2-1.1,0.3c-0.3,0.5-0.2,0.8,0.3,1.1
		C371.4,200.5,371.7,200.5,372,200z"/>
	<path class="st0" d="M373.6,202.9c0.2-0.8,0-1.2-0.8-1.3c-0.8-0.2-1.2,0-1.3,0.8c-0.2,0.8,0,1.2,0.8,1.3
		C373.1,203.9,373.4,203.6,373.6,202.9z"/>
	<path class="st0" d="M377.3,208.2c0.2-0.6,0.1-1-0.5-1.2c-0.6-0.2-1-0.1-1.2,0.5c-0.2,0.6-0.1,1,0.5,1.2
		C376.7,208.9,377.1,208.8,377.3,208.2z"/>
	<path class="st0" d="M370,216c0.4-0.4,0.4-0.8,0-1.1c-0.4-0.4-0.8-0.4-1.1,0c-0.4,0.4-0.4,0.8,0,1.1
		C369.3,216.4,369.6,216.4,370,216z"/>
	<path class="st0" d="M366.3,210.1c0.4-0.4,0.4-0.8-0.1-1.2c-0.4-0.4-0.8-0.4-1.2,0.1c-0.4,0.4-0.4,0.8,0.1,1.2
		C365.6,210.6,365.9,210.5,366.3,210.1z"/>
	<path class="st0" d="M366.1,205.6c2,0.9,2.6,1.9,3.4,2.6c0.1,0.1,0.3,0.2,0.4,0.3"/>
	<path class="st0" d="M366.5,209.7c1.3,0.2,2.5,0.3,3.5,0.2"/>
	<path class="st0" d="M371.7,209.9c-1,2.1-1.8,3.6-2.1,4.7"/>
	<path class="st0" d="M374.5,209.1c0.4-0.1,0.8-0.3,1.2-0.7"/>
	<path class="st0" d="M372.7,203.7c0.2,1.6,0.2,3.2,0.1,4.7"/>
	<path class="st0" d="M371,200.3c-0.4,1.8-0.2,3.7,0.1,4.9c0.2,1.1,0.6,1.7,0.5,2.5"/>
	<path class="st0" d="M369.5,205.3c0.3,0.8,0.7,1.6,1.3,2.4"/>
	<path class="st0" d="M366.2,204.3c0.8-0.6,0.7-0.9,0.4-1.4c-0.3-0.5-0.9-1.1-1.2-1.8c-0.3-0.7-0.4-1.4-0.6-1.9
		c-0.2-0.5-0.4-0.8-0.8-0.9c-0.4-0.1-0.9-0.2-1.5,0c-0.6,0.2-1.1,0.7-1.4,1.2c-0.3,0.5-0.3,1.1-0.4,1.5c-0.1,0.3-0.3,0.4-0.8,0.3
		c-0.5-0.1-1.3-0.4-2.1-0.3c-0.7,0.1-1.4,0.6-1.7,1.7"/>
	<path class="st0" d="M356.5,206.5c1.6,2.3,3,2.6,4.8,2.3c1.8-0.3,4.1-1.3,7.9-0.8"/>
	<path class="st0" d="M353.9,198.3c2.1-2.5,3.3-2.7,4.2-2.5c0.9,0.1,1.6,0.6,2.4,0.6c0.8,0,1.7-0.5,2.5-0.6c0.9-0.1,1.7,0.2,2.2,0.6
		c0.5,0.4,0.7,1,0.7,1.7c0,0.7-0.3,1.4-0.9,1.6"/>
	<path class="st0" d="M368.7,203.6c-0.6-0.2-1.2-0.1-1.8,0"/>
	<path class="st0" d="M365.7,198.9c0.4,0.9,1.2,0.5,1.6,0c0.5-0.4,0.6-0.8,1-1.2c0.4-0.3,0.9-0.5,1.5-0.5c0.6,0,1.2,0.2,1.8,0.8
		c0.6,0.6,1.2,1.6,0.9,3.4"/>
	<path class="st0" d="M352.4,210.9c-0.6,1.3,0.9,2.1,1.7,3.2c0.9,1.1,1.1,2.5,1.5,3.3c0.4,0.8,1,1.1,1.7,1.1s1.7-0.2,2.4-1
		c0.7-0.8,1.1-2.2,1.1-3.3c0-1.2-0.4-2.1-0.6-2.6c-0.2-0.5,0-0.6,0.5-1.2c0.6-0.6,1.6-1.8,3.1-2.2"/>
	<path class="st0" d="M358.8,208.6c-1,0.1-1.3,0.7-1.4,1.3c0,0.7,0.1,1.4,0.7,2.2c0.6,0.8,1.5,1.8,2.7,1.9"/>
	<path class="st0" d="M365.3,210.3c-1.6,0.6-3.1,1.9-4.5,3.8"/>
	<path class="st0" d="M360.2,216.7c0.9,1.5,2,1.7,3,1.7s1.9-0.5,2.9-1.4c1-0.9,2.2-2.4,4.1-6.8"/>
	<path class="st0" d="M357.6,218.5c-1,2.4-0.3,3.7,0.6,4.3c1,0.7,2.3,0.8,3.3,0.3c1.1-0.5,1.9-1.6,2.6-2.1c0.7-0.5,1.4-0.4,2.1,0
		c0.7,0.4,1.5,1.1,2.4,1.5c0.9,0.4,1.8,0.6,2.8,0.3c1-0.2,2-0.9,2.7-1.9c0.7-1,1.2-2.4,1.1-4.1c-0.1-1.7-0.6-3.8-3.6-6.6"/>
	<path class="st0" d="M372.8,205.4c0.9-0.3,1.8-1.6,2.8-2.4c0.9-0.8,1.8-1,2.5-0.9c0.8,0.1,1.4,0.6,1.7,1.1c0.3,0.5,0.3,1.1,0.1,1.5
		c-0.2,0.5-0.7,0.9-1,1.3c-0.3,0.4-0.4,0.8-0.2,1.2c0.2,0.4,0.8,0.8,1.3,1.3c0.4,0.5,0.7,1.1,0.6,1.7c-0.2,0.6-0.7,1.2-1.7,1.6
		c-1,0.4-2.3,0.7-5.5,0.3"/>
	<path class="st0" d="M363.7,195.9c-0.7-1.4,0.2-3,1-3.7c0.8-0.7,1.7-0.6,2.3-0.7s1-0.3,1.3-0.7c0.3-0.4,0.6-1,1.2-1.2
		c0.6-0.3,1.6-0.2,2.4,0.3c0.8,0.5,1.4,1.3,1.5,2.5c0.1,1.2-0.4,2.7-0.5,3.8c-0.1,1.2,0.1,2,0.7,2.7c0.6,0.8,1.7,1.5,1.8,4.3"/>
	<path class="st0" d="M373.2,194.1c1.9-0.6,2.2-1.7,2.8-2.2c0.6-0.4,1.6-0.1,2.4,0.7c0.8,0.8,1.4,2.1,1.3,4c-0.1,1.9-1,4.4-0.9,5.7"
		/>
	<path class="st0" d="M367,191.5c0.8,1.6,1.1,3.9,0.8,6.9"/>
	<path class="st0" d="M341.6,220.9c2.5,4.5,3,8.3,3.1,11.3c0.1,3,0,5.2,0,6.4c0,1.3,0.2,1.6,0.6,1.9c0.3,0.3,0.8,0.5,1.2,0.4
		c0.4-0.2,0.7-0.7,0.9-2c0.2-1.3,0.2-3.3-0.1-6.2c-0.3-2.9-0.8-6.7-2.9-13.4"/>
	<path class="st0" d="M346.9,219c2,2.7,2.6,6.9,2.8,10.2c0.2,3.3,0,5.5,0.1,7.4c0.2,1.9,0.7,3.4,0.9,4.5c0.2,1.1,0.1,1.9,0.2,2.3
		c0.1,0.5,0.4,0.6,0.7,0.6s0.6-0.4,0.7-1.6c0.1-1.2,0-3.3-0.2-4.7c-0.2-1.4-0.4-2.1-0.3-3.7c0-1.6,0.3-4.1,0.1-7.6
		c-0.2-3.5-0.8-7.8-1.8-10"/>
	<path class="st0" d="M355.8,217.7c-1.3,3-1.7,8.1-1.8,11.9c-0.1,3.8,0,6.4,0.3,8c0.2,1.5,0.5,2,0.9,2.3c0.4,0.2,0.9,0.2,1.2-0.3
		c0.3-0.5,0.4-1.4,0.4-2.8c0-1.4-0.2-3.3-0.1-5.6c0.1-2.3,0.4-4.9,1.4-8.4"/>
	<path class="st0" d="M360.2,223.3c-1.2,6.9-1.3,9.9-1.2,11.8c0.1,1.9,0.4,2.7,0.7,3.2c0.3,0.5,0.6,0.7,0.7,0.6
		c0.2,0,0.3-0.3,0.3-1.1c0-0.8,0-2.1,0.1-3.7c0.1-1.6,0.3-3.5,0.6-5.5c0.3-2,0.6-4.1,2.3-7.5"/>
	<path class="st0" d="M337.9,220.1c3.4,2.5,4.1,5.2,4.3,9c0.2,3.9-0.2,8.9,0.5,14.1c0.6,5.2,2.3,10.5,4.2,15c1.9,4.5,4,8.1,6.7,10.9
		c2.7,2.8,6,4.9,9.8,6.2c3.8,1.4,8,2,12,1.9c4.1-0.1,8-1.1,11.6-3c3.6-1.9,6.8-4.8,9.4-7.7c2.7-2.9,4.8-5.8,6.2-9.6
		c1.4-3.7,2.1-8.3,2.3-14.1c0.2-5.8-0.1-13-0.5-19.2c-0.4-6.2-1-11.4-0.9-16.4c0.2-4.9,1.1-9.6,1.4-13c0.3-3.5-0.1-5.8-0.9-7.6
		c-0.8-1.8-2-3.1-3.5-4.1c-1.5-1-3.2-1.6-4.9-1.7c-1.7-0.1-3.3,0.3-4.6,1.2c-1.3,0.9-2.2,2.1-3.1,4.7c-0.9,2.5-1.7,6.3-0.8,15.3"/>
	<path class="st0" d="M417.9,196.4c-1.3-7.3-2.8-9.5-4.5-10.8c-1.7-1.3-3.5-1.7-5.2-1.4c-1.5,0.3-3,1-4.2,2.2"/>
	<path class="st0" d="M404.5,197.7c0.3,0.5,0.6,1,0.9,1.5c1.8,2.9,3.6,6.3,4.6,11.6"/>
	<path class="st0" d="M403.5,209.4c5-0.3,8.2,2.1,10.6,4.7c3.1,3.3,5.1,7.1,6.3,12.7s1.3,13.2,1.9,18.3c0.6,5.1,1.5,7.8,3.5,11.1
		c2,3.3,4.9,7.3,8.9,10.6c4,3.4,9,6.2,15.3,8.7c6.4,2.5,14.1,4.8,20.2,6.4c6.2,1.7,10.8,2.7,17.8,10"/>
	<path class="st0" d="M379.5,205.3c1.3-0.6,3.2,0,5.4,2.2"/>
	<path class="st0" d="M386.4,211.1c-0.2,2.6-0.9,3.3-1.6,3.8c-0.9,0.7-1.6,0.8-2.9,0.4c-1.4-0.5-3.4-1.5-6.9,0.3"/>
	<path class="st0" d="M367.7,221.9c-3,2.7-3.8,7-4.1,11.4c-0.3,4.3-0.2,8.5,0.7,12.1c0.9,3.6,2.6,6.5,4.9,9c2.3,2.4,5.2,4.4,11.5,4"
		/>
	<path class="st0" d="M367.5,258c0.1-0.6,0.5-0.9,1-0.9c0.4,0,0.9,0.4,1.2,0.8s0.5,1,1,1.3c0.5,0.3,1.3,0.3,1.8,0.5
		c0.5,0.2,0.6,0.6,0.5,1.1c-0.1,0.4-0.4,0.9-0.9,1.1c-0.5,0.2-1.3,0-2-0.3c-0.8-0.3-1.5-0.8-2-1.4
		C367.6,259.4,367.4,258.5,367.5,258z"/>
	<path class="st0" d="M363.5,261c0.5-0.1,1.1,0.1,1.7,0.6c0.6,0.6,1.1,1.5,1.9,2c0.8,0.5,1.9,0.4,2.5,0.6c0.6,0.1,0.9,0.5,0.8,0.9
		c0,0.4-0.3,0.9-1,1.2c-0.7,0.2-1.8,0.2-2.9-0.1c-1.1-0.3-2.1-0.9-2.7-1.7c-0.7-0.8-1-1.8-1-2.4C362.8,261.3,363.1,261,363.5,261z"
		/>
	<path class="st0" d="M357.6,263.5c0.5,0.5,1.3,1.9,2.2,2.9c0.9,1,1.9,1.6,3.1,1.8c1.2,0.2,2.4,0.1,3.3,0.2c0.8,0.1,1.2,0.5,1,1
		c-0.2,0.5-1,1.2-2,1.6c-1,0.3-2.2,0.3-3.4-0.1c-1.2-0.4-2.3-1.2-3.2-2.2c-0.8-1-1.4-2.2-1.7-3.1c-0.3-0.9-0.3-1.5-0.1-1.9
		C356.8,263.2,357.1,262.9,357.6,263.5z"/>
	<path class="st0" d="M375.3,277.1c-2.1,5.7-6.4,11.3-12.2,14.9"/>
	<path class="st0" d="M395.8,266.9c-0.2,8.7-3,15.8-5.7,20.6"/>
	<path class="st0" d="M389.4,207.1c0.3-0.7,0.9-0.9,1.3-0.6c0.5,0.3,0.9,1.2,1.1,2.2c0.3,1,0.4,2.1,0.4,3.1c0,0.9-0.1,1.6-0.4,2
		c-0.3,0.4-0.7,0.6-1.1,0.6c-0.4,0-0.7-0.3-1-1c-0.3-0.7-0.5-1.9-0.6-3.1C389.1,209.1,389.1,207.8,389.4,207.1z"/>
	<path class="st0" d="M393.4,202.5c0.4-0.4,1-0.6,1.4-0.2c0.4,0.4,0.6,1.4,0.7,2.5c0.1,1.1,0.1,2.5,0,3.4c-0.1,0.9-0.4,1.4-0.7,1.7
		c-0.3,0.3-0.6,0.3-1,0c-0.3-0.3-0.6-0.9-0.8-1.9c-0.2-1-0.2-2.3-0.2-3.3C392.9,203.7,393,203,393.4,202.5z"/>
	<path class="st0" d="M400.5,204.3c-0.4,0.1-1.2,0.6-1.8,1.4c-0.6,0.8-0.9,1.8-0.9,3c0,1.2,0.3,2.5,0.7,3.3c0.4,0.8,0.8,1,1.2,1
		c0.4-0.1,0.8-0.4,0.9-0.9s0.1-1.2,0-2c-0.1-0.9-0.3-1.9-0.2-2.8c0.1-0.9,0.3-1.6,0.4-2.1C401,204.5,401,204.2,400.5,204.3z"/>
	<path class="st0" d="M387.2,180.2c3.1-3.7,6.3-4.2,8.3-4.2c2.1,0,3.1,0.7,3.6,1c0.5,0.4,0.4,0.4,0.2,0.9c-0.2,0.4-0.4,1.2,0.1,3.9"
		/>
	<path class="st0" d="M386.6,178.7c-1.7-0.1-2.5,0.5-3.3,1.3c-1.2,1.2-2,2.6-2.4,5.4c-0.4,2.8-0.3,6.8,0.3,10.5
		c0.6,3.7,1.9,7,3.3,10.8c1.4,3.8,3.1,8,4.3,12.3s2.1,8.6,2.1,13.3c0.1,4.7-0.6,9.9-1.9,13.9c-1.3,4-3.3,6.9-5.9,9.7
		c-2.6,2.8-5.9,5.7-11.2,7.8"/>
	<path class="st0" d="M388.3,185.6c-0.6-5.4-2.3-8.5-3.5-11.1c-1.2-2.6-1.7-4.6-2-6.6c-0.2-2-0.1-3.9,0.3-5.5
		c0.5-1.6,1.3-2.9,2.5-3.6c1.2-0.7,2.7-0.7,4.2-0.5c1.5,0.3,3,0.9,3.8,1.8c0.8,0.9,1,2.1,0.7,3.5c-0.2,1.4-0.8,2.9-0.9,4.9
		c0,1.7,0.3,3.7,2.1,7.4"/>
	<path class="st0" d="M389.6,173.8c0.3-0.8,0.1-1.3-0.7-1.6s-1.3-0.1-1.6,0.7c-0.3,0.8-0.1,1.3,0.7,1.6
		C388.9,174.8,389.3,174.6,389.6,173.8z"/>
	<path class="st0" d="M392.7,171.9c0.4-0.7,0.2-1.1-0.5-1.5c-0.7-0.4-1.1-0.2-1.5,0.5c-0.4,0.7-0.2,1.1,0.5,1.5
		C391.9,172.8,392.3,172.6,392.7,171.9z"/>
	<path class="st0" d="M389.9,177.7c-0.5-1-0.9-2-1.2-3.1"/>
	<path class="st0" d="M391.7,172.5c0.1,1.3,0.4,2.6,1.1,3.8"/>
	<path class="st0" d="M357.9,163.3c2.8-0.7,6.3,0.8,10.3,4.5"/>
	<path class="st0" d="M382.8,164.2c-0.8-1.2-1.4-1.5-1.6-1.4c-0.2,0.1-0.1,0.4,0,1c0.1,0.6,0.1,1.3,0.1,1.8c0,0.4-0.1,0.5-0.4,0.2
		c-0.2-0.3-0.6-0.9-1.1-1.4c-0.5-0.6-1.2-1.1-1.6-1.3c-0.4-0.2-0.5-0.2-0.3,0.9c0.2,1.1,0.7,3.2-0.1,9.2"/>
	<path class="st0" d="M336,161.1c2.3,0.5,3.7,2.2,4.4,3.1s0.9,0.8,0.8,0.4c-0.1-0.4-0.3-1.2-0.7-2.1c-0.4-0.8-0.9-1.6-1.2-2.1
		c-0.3-0.5-0.3-0.7,0.1-0.9c0.4-0.2,1.1-0.4,2.2-0.1c1,0.3,2.3,1.1,3.2,1.9c0.9,0.8,1.5,1.6,1.9,2.4c0.3,0.8,0.4,1.4,0.5,1.6
		c0.1,0.2,0.1-0.1,0.1-0.6c0-0.5,0-1.3-0.2-2.1s-0.5-1.6-0.6-2c-0.1-0.5,0-0.6,0.5-0.3c0.5,0.3,1.3,1,2,1.9c0.7,0.8,1.2,1.8,1.5,2.4
		c0.3,0.6,0.3,1,0.4,1.2c0.1,0.2,0.2,0.2,0.3-0.3s0.2-1.4,0.1-2.5c-0.1-1.1-0.5-2.4-0.7-3.1s-0.1-1.1,0.6-1c0.8,0.1,2.2,0.6,3.7,1.6
		c1.4,1,2.9,2.4,4.2,4.6c1.3,2.1,2.6,5,3.4,7.4c0.8,2.4,1.2,4.5,1.2,6.6c0,2.1-0.3,4.3-0.6,5.7c-0.3,1.4-0.6,2-0.6,2.3
		c0,0.3,0.2,0.4,0.7-0.1c0.6-0.5,1.6-1.5,2.4-2.7c0.9-1.3,1.6-2.8,2.2-4.3c0.6-1.5,1-2.9,1.2-4.5c0.2-1.7,0.1-3.6-0.2-5.2
		c-0.2-1.6-0.6-2.9-0.9-4c-0.3-1.1-0.6-1.9-0.7-2.4c-0.1-0.5,0-0.7,0.5-0.4c0.5,0.3,1.2,1.2,1.9,1.8c0.7,0.6,1.2,1,1.5,1.1
		c0.3,0.1,0.3,0,0.3-0.5c0-0.5,0-1.5,0-2.1c0-0.6,0.1-0.7,0.6-0.4c0.5,0.3,1.5,1.1,2.7,2.6c0.9,1.2,2,2.7,3.5,5"/>
	<path class="st0" d="M635.8,122.6c1.2,1.4,1.2,1.9,0.7,2.4c-0.5,0.5-1.3,0.9-3.5,1.5c-2.1,0.6-5.5,1.2-7.5,0.5"/>
</g>
</svg>
