<?xml version="1.0" encoding="utf-8"?>
<!-- Generator: Adobe Illustrator 21.0.2, SVG Export Plug-In . SVG Version: 6.00 Build 0)  -->
<svg version="1.1" id="图层_1" xmlns="http://www.w3.org/2000/svg" xmlns:xlink="http://www.w3.org/1999/xlink" x="0px" y="0px"
	 viewBox="0 0 677.4 269.2" style="enable-background:new 0 0 677.4 269.2;" xml:space="preserve">
<style type="text/css">
	.st0{clip-path:url(#SVGID_2_);}
	.st1{opacity:0.49;clip-path:url(#SVGID_4_);}
	.st2{clip-path:url(#SVGID_6_);}
	.st3{clip-path:url(#SVGID_10_);fill:none;stroke:#000000;stroke-linecap:round;stroke-miterlimit:10;}
	.st4{clip-path:url(#SVGID_10_);fill:none;stroke:#000000;stroke-linecap:round;stroke-linejoin:round;stroke-miterlimit:10;}
	.st5{clip-path:url(#SVGID_10_);fill:none;stroke:#000000;stroke-width:0.75;stroke-linecap:round;stroke-miterlimit:10;}
	.st6{clip-path:url(#SVGID_10_);fill:none;stroke:#000000;stroke-width:0.5;stroke-linecap:round;stroke-miterlimit:10;}
	.st7{clip-path:url(#SVGID_10_);fill:none;stroke:#000000;stroke-width:0.35;stroke-linecap:round;stroke-miterlimit:10;}
	.st8{clip-path:url(#SVGID_10_);}
	.st9{clip-path:url(#SVGID_10_);fill:none;stroke:#060000;stroke-width:0.75;stroke-linecap:round;stroke-miterlimit:10;}
	.st10{clip-path:url(#SVGID_10_);fill:none;stroke:#060000;stroke-linecap:round;stroke-miterlimit:10;}
	.st11{clip-path:url(#SVGID_10_);fill:none;stroke:#060000;stroke-width:1.25;stroke-linecap:round;stroke-miterlimit:10;}
	.st12{clip-path:url(#SVGID_10_);fill:#060000;}
	.st13{clip-path:url(#SVGID_10_);fill:none;stroke:#060000;stroke-width:1.5;stroke-linecap:round;stroke-miterlimit:10;}
	.st14{clip-path:url(#SVGID_10_);fill:none;stroke:#060000;stroke-linecap:round;stroke-linejoin:round;stroke-miterlimit:10;}
	
		.st15{clip-path:url(#SVGID_10_);fill:none;stroke:#060000;stroke-width:0.75;stroke-linecap:round;stroke-linejoin:round;stroke-miterlimit:10;}
	.st16{clip-path:url(#SVGID_10_);fill:none;stroke:#060000;stroke-width:0.5;stroke-linecap:round;stroke-miterlimit:10;}
	.st17{fill:none;stroke:#060000;stroke-linecap:round;stroke-miterlimit:10;}
</style>
<g>
	<defs>
		<rect id="SVGID_1_" width="677.4" height="269.2"/>
	</defs>
	<clipPath id="SVGID_2_">
		<use xlink:href="#SVGID_1_"  style="overflow:visible;"/>
	</clipPath>
	<g class="st0">
		<defs>
			<rect id="SVGID_3_" width="677.4" height="269.2"/>
		</defs>
		<clipPath id="SVGID_4_">
			<use xlink:href="#SVGID_3_"  style="overflow:visible;"/>
		</clipPath>
		<g class="st1">
			<g>
				<defs>
					<rect id="SVGID_5_" x="-81.8" y="-13.7" width="841.9" height="595.2"/>
				</defs>
				<clipPath id="SVGID_6_">
					<use xlink:href="#SVGID_5_"  style="overflow:visible;"/>
				</clipPath>
				<g class="st2">
					<defs>
						<rect id="SVGID_7_" x="-81.8" y="-13.7" width="841.9" height="595.2"/>
					</defs>
					<clipPath id="SVGID_8_">
						<use xlink:href="#SVGID_7_"  style="overflow:visible;"/>
					</clipPath>
				</g>
			</g>
		</g>
	</g>
	<g class="st0">
		<defs>
			<rect id="SVGID_9_" width="677.4" height="269.2"/>
		</defs>
		<clipPath id="SVGID_10_">
			<use xlink:href="#SVGID_9_"  style="overflow:visible;"/>
		</clipPath>
		<path class="st3" d="M301.5,101.8c-2-13.6-11.9-20.5-13.2-21c-1.3-0.5-6.7-8.2-6.7-8.2s0,6.8-1.7,10.2c-1.7,3.4-5.1,8.5-2.1,18.4
			c0,0-6.2-2.6-15.1,0c-8.9,2.6-8.8,1.9-8.8,1.9s5.5,2.1,8,11.1c2.5,8.9,4.6,11.1,4.6,11.1s1.6,2.1,4.5,2.1h1.6"/>
		<path class="st3" d="M298.3,106c0,0,2,2.5,9.1,0.9c7.1-1.6,8.2-4.1,8.4-5.7c0.2-1.6-6.4-2.3-9.6-1.2
			C303,101.1,297.6,102.7,298.3,106z"/>
		<path class="st3" d="M284.5,125.1h-0.7h-1.1c0,0-10.2,0.7-16.6,5.9c-3,3.6-8.8,10.5-12.3,10c-3.6-0.5,20.9,8.6,30,2.5l1-0.7"/>
		<path class="st3" d="M322.6,125.1c0,0,0.7,0.4,4.1,4.6c3.4,4.3,2.5,11.4,2.5,11.4l-0.9,11.4c0,0-3.8-4.6-5-5.9
			c-1.2-1.2-9.1-1.8-11.6-2.1c-2.5-0.4-3.4-1.6-5.5-6.8c-2.1-5.2,1.6-15.7,1.6-17.9c0-2.1-4.5-1.2-4.5-1.2s-1.6-0.9-8,7.7
			c0,0-0.5,0.9-2.1,1.1c-1.6,0.2-12,10.9-6.8,22c0,0,1.1,3.9,0,5.5c-1.1,1.6,5.9-4.1,7.8-4.1c1.9,0,11.8-2.9,12.9-8.2
			c0,0,0.2-1.8,0.2-2.2"/>
		<path class="st3" d="M299.6,109.7c-8.8,2.1-14.6-7.1-15.7-8.8c-1.1-1.6-3.8-1.6-3.8-1.6s-4.8,7.3-2.5,14.6
			c2.3,7.3,3.6,12.5,15,12.5l2.7-0.2"/>
		<path class="st3" d="M313.9,119.5c0,0,4.5,6.8,12.5,5.5c8-1.2,19.1-9.8,19.1-9.8s0.4-0.4,0-1.4c-0.4-1.1-3,0-3,0s-7,3.4-9.8-0.9
			c-2.9-4.3-6.4-5.7-14.8-1.6"/>
		<path class="st3" d="M329.3,140.2c0,0,9.7,5.7,16.3,1.4c0,0,5.4,0,5.7,2.9c0.4,2.9,1.4-6.4,1.4-6.4s0.8-6.5-9.8-10.7
			c-10.6-4.2-11.2-4-11.2-4"/>
		<path class="st3" d="M306.2,100c0,0-2.8-12.5,3.2-19.8c0,0,2.7-4.1,3.7-7.6c1-3.5,4.6-4.2,4.6-4.2s1,0.8,0.8,1.4
			c-0.1,0.6-2.5,3.9-0.6,7.9c2,3.9,11.4,14.9-0.7,26.6l-0.8,0.5"/>
		<path class="st3" d="M289.8,81.7c0,0,6,1.7,8.5,1.7c2.5,0,5.4-1.2,7.9,1.7"/>
		<path class="st3" d="M321.6,109.7c0,0,3.6-20.1,21.8-24c0,0,9.1-2.6,10.5-4l0.7-0.8c0,0-2.7,8.6-2.4,13c0,0-0.6,8.1-4.2,10.4
			c-3.6,2.3-10.6,11.4-15.3,8.7"/>
		<path class="st3" d="M323.3,92c0,0,8.5-4.5,9.2-5.2c0.6-0.7,0.7,3.6,0.7,3.6"/>
		<path class="st3" d="M352.2,98.5c0,0,6.2-0.7,7.3-2.8c1.1-2.1,2.2-1.6,2.2-1.6s-7.3,23.1-23.3,26"/>
		<path class="st4" d="M352.8,138.1c0,0,0.5,4.1,11.7,1.5c0,0,4.2-1.4,6.3,0.4c2.1,1.8,2,0.5,2,0.5s-4.3-5.5-4.3-7.7
			c0-2.1-7-5.4-7-5.4s10.7-4.8,13.3-6.4c2.6-1.7-2.6,0.8-7.6-3.2c-5-4.1-11.6-9.9-15.4-6.2"/>
		<path class="st5" d="M298.3,106.2c0,0,4.3,11.6,5.2,11.9"/>
		<path class="st5" d="M315.8,101.1c0,0,2.1,9.4,1.3,13.2c-0.8,3.8-3.5,4.4-3.5,4.4s-3.2,1.6-5.5,0.6c0,0-5.3-0.6-5.8,4.2"/>
		<path class="st6" d="M342.1,86.3c0,0,0.5,1.7-0.6,2.6c-1.1,0.8-11.4,8.5-11.6,10.5c-0.3,2,1.2,1.7,1.2,1.7s3.2-4.9,6.4-6.5
			c3.2-1.6,6.1-4.8,6.1-4.8s2.5-1.2,0.9,2c-1.6,3.2-9.5,11.9-10.4,12.3c-0.8,0.4-0.5,2.2,0.2,2l0.7-0.2c0,0,9.6-8.5,11.4-14.1
			c0.6-0.9,1.6-0.7,1.6-0.7s0.5,0.5,0.4,1.2c-0.1,0.7-4.9,12.2-6.1,13.1c0,0-0.4,1.3,0.5,1.1c0.8-0.2,3.3-3.4,4.6-6.3
			c1.3-2.9,2.7-8,2.7-8s1.6-1.8,1.9-1.3"/>
		<path class="st6" d="M326.1,90.8c0,0-0.4,1.7,0.2,2.2c0.6,0.5,2.7-0.5,2.7-0.5s0.6-0.1,0.4,0.5"/>
		<path class="st6" d="M310.5,79.1c0,0,1.2-1,1.4,0.2c0.2,1.2-3.1,7.6-2.9,10.6c0,0-0.3,4.7,0,6c0.3,1.3,1.1-0.2,1.4-1
			c0.3-0.8,0.8-8.4,1.1-8.7c0,0,2-6.6,2.4-6.6s2,0.2,1.8,1.1c-0.1,0.9,0.4,8.5,0.2,11.1c-0.2,2.5-0.9,4.4-0.9,4.9s0.3,1.5,0.9,1.3
			c0.6-0.2,1.9-1.3,2-4.9c0.1-3.6-0.3-10.7-0.6-11.9c-0.4-1.2,2.1-0.7,2.1-0.7"/>
		<path class="st6" d="M296.1,87.6c0,0,0.2-1.5,1.6-0.5c1.4,1.1,5.8,5,5.8,5s1.6,1,0.9-0.7c-0.7-1.7-5.1-4.9-5.1-5.3
			c0-0.4-0.6-1.5-0.1-1.9c0.6-0.4,0.6-0.9,0.6-0.9"/>
		<path class="st6" d="M278.4,85.8c0,0,1.8-1.4,2.1,0c0.3,1.4-0.1,8.5,1.7,13.2l0.3,0.6"/>
		<path class="st6" d="M283.9,101c0,0-2.7-13-1.5-14.2c1.2-1.3,3.2,1.1,3.2,1.1s4.9,15.3,4.8,16.4c-0.1,1,1.4,1,1.4,1
			s-0.9-9.3-4-17.4c0,0,0.8-2.4,2.9,0c2.1,2.4,6.6,10.8,6.6,10.8s0.3,1.3,1,1.3c0.7,0,0-1.9,0-1.9s-0.8-4.7-5.6-10.2
			c0,0-0.1-1.8,1.1-1.5"/>
		<path class="st7" d="M306.2,103.4c0.6,0.9,3.8-1.1,1.8-1.8c-2-0.7-1.8,1.6-1.8,1.6L306.2,103.4z"/>
		<path class="st7" d="M310.6,103.6c0,0,0.1-1.7,1.6-1.6c1.5,0.1-0.1,1.8-0.4,1.9C311.6,104,310.5,104.1,310.6,103.6z"/>
		<path class="st7" d="M303.5,105.9c0,0,0-1.5,1.7-1.5s-0.5,2-0.9,2C304,106.4,303.3,106.6,303.5,105.9z"/>
		<path class="st7" d="M301.4,105c0,0-0.7-1.6,1.4-2c0.5,0,0.7,0.8,0.3,1.2c-0.4,0.4-0.7,1.1-1,1C301.8,105.1,301.5,105.4,301.4,105
			z"/>
		<path class="st6" d="M267.1,100.2c0,0-1.5,1-0.3,1.8c1.2,0.7,9.2,4.5,9.4,5.4"/>
		<path class="st6" d="M277,111.2c0,0-4.2-5.2-10.6-7.3c-1.6-0.6-0.6,1.4-0.6,1.4s7.3,12.3,9.6,13.9c2.3,1.6,0,2.5-0.6,2.2
			c-0.6-0.3-8.9-10.2-10.5-15.3c-1.8-0.4-0.6,2.3-0.6,2.3s3.2,6.2,3.5,9c0.3,2.7,3.9,5.9,4.2,6.1c0.3,0.2,0.7,2.5-1.6,1.7
			c-2.2-0.8-5.1-7.9-5.1-8.2c0-0.2-2-7.7-2.5-8.2c-0.5-0.4-2.1,0-2.1,0"/>
		<path class="st6" d="M262.9,134.7c0,0,0.2,0.4,1.1,0.6c0.9,0.1,9-7.2,13.7-6.9c4,0.3-0.4,1.9-2.8,3.1c-0.3,0.2-1,0.4-1.8,0.9
			c-2.2,1.6-7.3,5.9-7.9,6.4c-0.9,0.7-0.3,1.8,1.2,1.6c1.2-0.2,10.2-4,10.6-4.2c0.4-0.2,2.8-1.9,3.7-1.8c0.9,0.1,1.3,0.8,0.8,1.8
			c-0.5,1-6.6,3.9-7.1,4.2c-0.5,0.3-0.1,0.7,0.4,0.9c0.6,0.2,8.4,0.9,9.3,0l0.6-0.4"/>
		<path class="st6" d="M333,141.5c2.1,0.5,12-0.6,9.3-3.2c-1.5-1.4-10.7-1.4-11.6-5c-0.9-3.6,4.5,1.6,7.4,1.8
			c2.9,0.2,7.2,1.1,7.9,2.9c0.7,1.8,5,0.1,0.7-2.6c-4.4-2.8-4.8-5.2-12.6-7.1c-1.1-0.3-2.7-1.9-0.7-2.1c1.9-0.2,11.5,4,15.4,8.9
			c0.6,0.7,1.8,0.6,2.1-0.3c0.3-0.7,0.4-1.4,0.4-1.4"/>
		<path class="st6" d="M368.1,131.6c0,0-2.2,0.7-1.9,2.3c0.3,2.1-0.8,2.1-1.6,1.9c-0.9-0.2-6.5-4.5-6.8-4.1
			c-0.3,0.4,4.8,4.6,4.8,5.2c0,0.6-2.2,1.5-4.7-0.8c-2.4-2.3-5.8-5.6-6.5-5.6c-0.7,0.1,4,4.8,3.2,5.6c-0.9,0.7-1.7,0-1.7,0"/>
		<path class="st5" d="M342.6,127c0,0,5.4,1.7,10.3,2.4c4.6,0.7,8.1-2.2,8.3-1.8"/>
		<path class="st6" d="M360.5,112.5c0,0,2.9,3.7-1.3,3.1c-4.2-0.6-6.7-0.1-7.4,0.1c-0.7,0.2-2.6,1.6,0,1.9c2.6,0.3,8.8-0.3,9.3,0.8
			c0.4,1.1-0.2,1.5-1.5,1.6c-1.3,0.1-8.9,2.2-11.5,1.1c-2.6-1-2.3,1.2-1.6,1.4c0.7,0.3,8,1.6,13.6-0.3c5.6-1.9,2.7,1.6,0.4,1.8
			c-2.3,0.3-7.1,3.1-13.3,1.1c-1.6-0.5-2.2,1.2,0.1,1.5c2.2,0.3,7.5,1.6,13.1-0.5c1.2-0.2,0.7,0.9,0.7,0.9"/>
		<path class="st6" d="M329.2,141.1c0,0-1.7-0.7-1.6-3.9c0.1-3.2-1.1-3.2-1.7-3c-0.6,0.2,0,6.8-1.9,7.9c-1.9,1-1.2-6.3-0.8-10.5
			c0.4-4.2-5.4-4-3.7,0c1.8,4,1.1,10.3,0,10.1c-1.1-0.1-1.4-3.2-2.4-4.2c-1.5-1.6-6.7-10.3-8.4-7.1c-0.9,1.7,2.2,4.6,4.6,6.4
			c2.2,1.7,1.1,5.2-1.7,5.3c-0.8,0-1.8-0.1-2.9-0.4l-0.7-0.4"/>
		<path class="st6" d="M285.3,139.7c2.3,2,3.7,2.6,4.4,1.2c0.7-1.4,2.8-8.6,6.4-10.5c3.6-1.9,2.4,1.1,0.8,3.8
			c-1.2,1.9-6.9,7.8-5.4,9.6c1.5,1.8,9.4-9.2,9.7-13.5c0.3-4.3,4.1-1.6,2.1,3.4c-2,5-5.6,8.2-5.4,9.2c0.2,1,0.1,1.2,1.1,1.4
			c0.9,0.2,6.5-7.7,6.5-7.7"/>
		<path class="st6" d="M350.7,100.2c0,0,3.5-1.5,2.1,2.3c-1.4,3.8-5.7,4.8-3.6,6.3c2,1.5,5.5-4.5,5.5-4.5l2.2,0.2"/>
		<path class="st6" d="M279.1,118.4c0,0-0.5-7,1.3-5.5c1.8,1.5,3.1,4.9,4.4,5.5c1.4,0.6-4.1-8.5-2.9-9.6c1.2-1.1,3.6,6.4,6.4,7.2
			c2.8,0.8-4.6-9.1-3.5-10.6l1.2-1.6"/>
		<path class="st6" d="M330.9,111.4c0,0,3.6,3.7,2.6,4.9c-1,1.2-7.5,1.2-5.6,2.1c1.9,0.9,8.8-2.1,9.2-1.1c0.4,1-9.1,3.6-10.9,3
			c-1.8-0.6-2.7,1.8-1.9,2.2c0.9,0.4,5.7,1.1,5.7,1.1"/>
		<path class="st3" d="M313.9,111.2c1.5,6-0.8,5.9-2.1,7.3c-0.4,0.4-0.2,1.2-2,1.1"/>
		<path class="st3" d="M305.5,112.9c0,0,1.9,6.9,5.1,6.7"/>
		<line class="st3" x1="314.8" y1="118.2" x2="325.9" y2="113.4"/>
		<path class="st3" d="M324.1,107.1c0,0-3.4,7.5-6.8,10"/>
		<path class="st3" d="M319,107.1c0,0,1.5,5.7-3,10"/>
		<path class="st3" d="M298.3,113.4c0,0,3,4.9,4,5.1"/>
		<path class="st3" d="M296.1,117.3c0,0,4.2,3.1,4.7,2.7"/>
		<line class="st3" x1="308.9" y1="120.1" x2="309.8" y2="125.1"/>
		<path class="st3" d="M311.8,120c0,0,3,6.5,2.6,7.4"/>
		<path class="st3" d="M315.8,118.2c0,0,6.5,0,7.9-0.9"/>
		<path class="st3" d="M299.6,121.2c0,0-2.5,0.1-4.2,1.4"/>
		<path class="st8" d="M314.8,111.3c0,0.8-0.7,1.5-1.5,1.5c-0.8,0-1.5-0.7-1.5-1.5c0-0.8,0.7-1.5,1.5-1.5
			C314.1,109.8,314.8,110.4,314.8,111.3"/>
		<path class="st8" d="M306.5,112.2c0,0.8-0.7,1.5-1.5,1.5c-0.8,0-1.5-0.7-1.5-1.5s0.7-1.5,1.5-1.5
			C305.9,110.7,306.5,111.4,306.5,112.2"/>
		<path class="st8" d="M303.8,124.1c0,0.8-0.7,1.5-1.5,1.5c-0.8,0-1.5-0.7-1.5-1.5c0-0.8,0.7-1.5,1.5-1.5
			C303.1,122.6,303.8,123.2,303.8,124.1"/>
		<path class="st8" d="M311.7,125.6c0,0.8-0.7,1.5-1.5,1.5c-0.8,0-1.5-0.7-1.5-1.5c0-0.8,0.7-1.5,1.5-1.5
			C311.1,124.1,311.7,124.8,311.7,125.6"/>
		<path class="st8" d="M316,128.3c0,0.8-0.7,1.5-1.5,1.5s-1.5-0.7-1.5-1.5c0-0.8,0.7-1.5,1.5-1.5S316,127.4,316,128.3"/>
		<path class="st8" d="M326.4,117c0,0.8-0.7,1.5-1.5,1.5s-1.5-0.7-1.5-1.5c0-0.8,0.7-1.5,1.5-1.5S326.4,116.2,326.4,117"/>
		<path class="st8" d="M329,112.8c0,0.8-0.7,1.5-1.5,1.5s-1.5-0.7-1.5-1.5c0-0.8,0.7-1.5,1.5-1.5S329,112,329,112.8"/>
		<path class="st8" d="M325.9,106.2c0,0.8-0.7,1.5-1.5,1.5c-0.8,0-1.5-0.7-1.5-1.5c0-0.8,0.7-1.5,1.5-1.5
			C325.3,104.7,325.9,105.4,325.9,106.2"/>
		<path class="st8" d="M320.5,106.2c0,0.8-0.7,1.5-1.5,1.5c-0.8,0-1.5-0.7-1.5-1.5c0-0.8,0.7-1.5,1.5-1.5
			C319.8,104.7,320.5,105.4,320.5,106.2"/>
		<path class="st8" d="M299,112.5c0,0.8-0.7,1.5-1.5,1.5c-0.8,0-1.5-0.7-1.5-1.5c0-0.8,0.7-1.5,1.5-1.5
			C298.3,111,299,111.7,299,112.5"/>
		<path class="st8" d="M296.9,116.3c0,0.8-0.7,1.5-1.5,1.5c-0.8,0-1.5-0.7-1.5-1.5c0-0.8,0.7-1.5,1.5-1.5
			C296.2,114.8,296.9,115.5,296.9,116.3"/>
		<path class="st8" d="M296,122.7c0,0.8-0.7,1.5-1.5,1.5c-0.8,0-1.5-0.7-1.5-1.5c0-0.8,0.7-1.5,1.5-1.5
			C295.3,121.2,296,121.8,296,122.7"/>
		<path class="st5" d="M313.9,145.1c0,0,2.2-0.6,3.7,10.1c1.5,10.7,4.7,14.8,4.7,14.8"/>
		<path class="st5" d="M319,145.6c0,0,2.2,6.2,3.3,12.5c1,6.3,4.1,9.1,4.1,9.1"/>
		<line class="st3" x1="315.8" y1="150.8" x2="317.5" y2="150.8"/>
		<line class="st3" x1="319.8" y1="154.1" x2="322.3" y2="154.1"/>
		<line class="st3" x1="317.3" y1="156.4" x2="319" y2="156.7"/>
		<line class="st3" x1="319.2" y1="164.3" x2="320.4" y2="164.3"/>
		<line class="st3" x1="322.3" y1="156.4" x2="321.4" y2="156.7"/>
		<line class="st3" x1="324.1" y1="159.9" x2="322.3" y2="161"/>
		<ellipse class="st5" cx="315.9" cy="157.1" rx="1.6" ry="1.4"/>
		<ellipse class="st5" cx="323.3" cy="153.5" rx="1.5" ry="1.7"/>
		<ellipse class="st5" cx="317.6" cy="165.2" rx="1.6" ry="2"/>
		<ellipse class="st5" cx="326.7" cy="164" rx="1.8" ry="2"/>
		<path class="st3" d="M317.3,175.8c0,0,5-5.3,6.1-7.5c1-2.1,4.1-1.2,4.1-1.2s2.8-0.5,3.9-1.2c1.1-0.8,0.1-3,0.8-3.2
			c0.7-0.2,4-3.4,12.8-2.8c8.8,0.6,5-0.9,10.3,1.5c5.3,2.4,5.6,1.4,6.1,1.4c0.5,0,7.1,1.5,8.5,4.3c1.4,2.8,1.9,4.6,1.2,9.2
			s2.1,7.4,1.8,9.7c-0.3,2.4-0.4,4.5-0.7,5.2c-0.3,0.7-3.1,2.6-3.3,4c-0.2,1.4,0.9,3.6-1.3,5.7c-2.3,2.1-7.6,7.4-11.5,7.3
			c-3.9-0.1-14.5-1-17.2-0.8c-2.7,0.2-7.7-1.3-7.9-2.4c-0.2-1-8.5-5-8.9-6c-0.3-1-5-10.2-5-10.2S315.4,177.9,317.3,175.8z"/>
		<path class="st3" d="M320.4,184c0,0,0.6-3.9,3.7-3.9c3.1,0,0.2-0.7,2.6-1.2c2.4-0.5,3.6,3.4,3.3,4.1c-0.3,0.7-1.3,2.8-2.3,2.8
			s-2.4,0.4-3.7,0C322.8,185.3,321.6,186.2,320.4,184z"/>
		<path class="st3" d="M319,191.4c0,0,3.6,2.5,4.4,3.4c0.7,0.9,5.2,1.1,5.1,1.4c-0.1,0.3,5.8,2.9,5.9,4.3c0.1,1.4,1.6,2.9,2.8,2.6
			c1.1-0.3,3.8-2.6,5-2.2c1.2,0.4,6.2,2.5,7.3,2.3c1.1-0.2,7.1-1.1,7.6-1.6c0.5-0.5,6.1-3.9,6.5-4.3c0.4-0.3,1.7-1.9,2.3-3.5
			c0.5-1.6,2.9-6.7,6.1-5.3"/>
		<path class="st9" d="M321.2,185.1c0,0,1.6-2.3,3.7-2.3c2.1,0,3.7,0.9,3.6,1.8c-0.1,0.9,0,0.5,0,0.5"/>
		<line class="st10" x1="324.8" y1="184.5" x2="325.2" y2="184.5"/>
		<path class="st10" d="M326.7,174.5c0,0-0.8-1.7,2.5-2.8c3.2-1.1,4.2-1.9,4.6,0c0.4,1.9,0,3.4,0,3.4s-1.7,2-4.1,1.5
			C327.1,176.2,326.7,174.5,326.7,174.5z"/>
		<line class="st10" x1="330.8" y1="174.8" x2="330.8" y2="175.4"/>
		<path class="st9" d="M328.5,175.8c0,0,1.4-2.7,2.4-2.6c1,0.1,2.5,1.3,2.3,1.9"/>
		<path class="st10" d="M326.7,191.1c0,0-0.7-3,4.2-4c4.9-1,5.6,2,5.6,2s1.1,4.1-2.2,4.7C331,194.4,327.3,194,326.7,191.1z"/>
		<line class="st10" x1="332.5" y1="192.1" x2="333.2" y2="192.1"/>
		<path class="st9" d="M330,193.5c0,0-0.2-2.8,2.4-3.3c2.6-0.5,3.5,1.7,3.5,1.7"/>
		<path class="st10" d="M336,181.9c0,0-1.9-4.3,3.2-4.9c5.1-0.5,4.6,3.4,4.6,3.4s-0.5,2.4-2.8,2.6
			C338.7,183.3,336.3,183.1,336,181.9z"/>
		<line class="st10" x1="339.2" y1="181.6" x2="339.7" y2="181.6"/>
		<path class="st9" d="M336,181.9c0,0,1-2.1,3.4-1.8c2.4,0.2,2.9,1.8,2.9,1.8"/>
		<path class="st10" d="M339,168.8c0,0-0.4-2.9,4.7-2.5c5.2,0.4,4.4,2.5,4.4,2.5s-1.7,2.4-5.1,1.7C339.7,169.8,338.7,170,339,168.8z
			"/>
		<line class="st10" x1="343" y1="169" x2="343.7" y2="170"/>
		<path class="st10" d="M353.6,167.8c0,0,1.9,3.4,5.7,1.2c3.8-2.1-1.9-4.2-2.9-3.8C355.6,165.5,353.5,165.4,353.6,167.8z"/>
		<line class="st10" x1="357.6" y1="167.5" x2="357.2" y2="168.5"/>
		<path class="st10" d="M350.6,174.5c0,0-4.8,3.9-4.3,9.6c1.5,2.9,5.1-0.9,5.1-0.9s2.4-3.5,2.2-5.3
			C353.5,176,353.9,174.3,350.6,174.5z"/>
		<line class="st10" x1="349" y1="182.4" x2="349" y2="183.2"/>
		<path class="st9" d="M346.3,182.4c0,0,1.2-1.8,2.7-1.8c1.5,0,2.9,0.4,2.4,2.6"/>
		<path class="st10" d="M345.5,190c0,0-4.9-0.4-5.7,4.8c-0.2,1.2,0.7,2.4,1.9,2.5c2.7,0.2,6.4-1.5,6.4-3.2c0.1-2.3-1.9-2.7-1.9-2.7
			S346.3,190,345.5,190z"/>
		<line class="st10" x1="346.3" y1="194.5" x2="345.5" y2="195"/>
		<path class="st9" d="M347.6,192.1c0,0-4-0.2-4.2,4.4"/>
		<path class="st10" d="M363.9,177c0,0-3.6-5.2,2.4-6.4c2,0.8,4.3,4.2-0.9,7.3C364.1,177.9,363.9,177,363.9,177z"/>
		<path class="st10" d="M362.8,180.1c0,0-5-1.6-7.3,3.9c-2.3,5.5,3.5,6.1,4.5,5.5C361.1,188.9,366.5,184.7,362.8,180.1z"/>
		<line class="st10" x1="358.7" y1="186.9" x2="358.7" y2="188.2"/>
		<path class="st9" d="M355.3,187.6c0,0,2.2-3.8,4.2-2.8c2.1,1,2.7,2.9,2.1,3.4"/>
		<path class="st9" d="M362.9,174.5c0,0,3.5-1.1,2.8,2.2c0,0-0.1,0.6-0.2,0.7"/>
		<path class="st10" d="M350.9,197.3c0,0,4.2,3.2,6.6,0c2.5-3.2-3.3-4.6-3.3-4.6S349,193.5,350.9,197.3z"/>
		<line class="st10" x1="354.4" y1="197.3" x2="353.6" y2="197.3"/>
		<path class="st9" d="M351.5,197.3c0,0,0.6-2.3,2.5-2.3c1.9,0,3.2,2.8,3.2,2.8"/>
		<path class="st11" d="M322.3,199c0,0-2,4-6.4,4.1c-4.4,0-19.3,11.8-19.3,20c0,8.2-3.3,12.5-4.5,13.4c-1.2,0.9-8.9,3.3-9.4,3.3
			c-0.5,0-2.1,5.4-2.1,5.4s4.8,11.1,0,15.5c-5.6,5.2-6.6,6.6-6.4,6.9c0,0,0.3,1.2,0,1.6"/>
		<path class="st11" d="M373,186c0,0,6.3,3.5,14.9,0.9c8.5-2.6,16.2,4.7,17.7,11.8c1.5,7,12.2,10.1,16.8,5.8
			c4.6-4.3,19.5-8.9,25.9-5.8c6.4,3.1,13.1,2.2,13.1,20.5c0,18.3,12.5,12.5,15.9,19.8c3.4,7.3,6.7,9.8,2.4,19.5
			c-4.3,9.8-3.1,10.7-3.1,10.7"/>
		<path class="st10" d="M352,208c-1.5,0.6-4.3,1.7-8.9,3.7c-15.3,6.6-12.8,21.6-12.8,21.6s11.3,7.9,12.8,8.1
			c1.5,0.2,10.2,5.7,16.5,3.2l1.2-0.6"/>
		<path class="st10" d="M365.8,202.8c0,0,5.3-1.9,6.2-0.8c0.9,1.1,3,2.8,3,4.5c0,1.7,3.6,18.2,3,21.2c-0.6,3,0.4,8.3-3.2,9.6
			l-0.8,0.2"/>
		<path class="st10" d="M336.6,236.6c0,0,4.3,1.4,1.5-2.5c-3.6-1.9-5.3-3-3-3.7c2.3-0.7,2.1-2.9,0.9-3.3c-1.3-0.4-3-2.4,0-2.2
			c3,0.2,4.4,0.7,1.8-2.2c-2.6-1.7-1.3-3.7-0.4-3.7c0.9,0,2.8,1.9,3.7,1.7c1-0.2,1.4-1.3,1.3-2.3c-0.1-1.1,0.3-3.2,1.6-1.8
			c1.4,1.4,4.2,9.5,5.8,9.3c1.6-0.1,2.5-0.3,2.4-1.5c-0.1-1.2-4-6.3-1.7-6.1c2.2,0.2,2.5,2.4,3.1-1.5c0.6-3.9-1.7-3.6,0.7-5.7
			c2.4-2.1,2.4,2,2.8,2.7c0.4,0.6,1.4,1.1,1.8,0.6c0.3-0.4,1.3-2.7,1.2-3.9c-0.1-1.2,1.4-1.7,1.7-0.9c0.3,0.8,2.7,3,3.4,2.4
			c0.7-0.5,2.3-2.2,1.3-4.5c-1.1-2.3,3.6-1.8,3.8-1c0.2,0.7,3,7.8,5,6.6"/>
		<path class="st10" d="M376.9,218.4c0,0-3.2-2-1.6,3.7c1.6,5.8-0.7,9-0.9,5.5c-0.3-3.4-2.6-5.5-3.6-10.8c-1-5.2-3.2-3.8-4.5-3.8
			c-1.3,0-1.9,3.2-0.5,5.9c1.4,2.7,2.6,13.2,1.8,13.3c-0.8,0.1-1.8-1.7-2.6-4.6c-4.2-5.3-6.4-1.8-6.4-1.8s-2,3.7,1,6.8
			c3,3.1,3.3,3.3,1.4,4c-1.9,0.7-8.8-5.1-12.8-5.8c-3.9-0.6-3.2,1.8-3.3,3.3c-0.1,1.5,7.7,4.6,3.3,4.9c-4.3,0.3-2.7,3.5-2.7,3.5"/>
		<path class="st10" d="M351.5,234.2c0,0,10.3,7.2,12.6,6.4"/>
		<path class="st10" d="M353.6,240c0,0,4.7,3.5,7.2,3.1"/>
		<path class="st10" d="M364.1,232.2c0,0,1.1,4.7,2.8,5"/>
		<path class="st10" d="M369.1,219.4c0,0,4.6,9.2,0,17.1"/>
		<path class="st9" d="M330.4,227.1c0,0,1.9,1.9,2.8,2.1"/>
		<path class="st9" d="M332,221.9c0,0,2.7,1.1,3.3,1.3"/>
		<path class="st9" d="M339.8,213.4c0,0,0.6,3.2,0.8,4.2"/>
		<path class="st9" d="M345.5,210.7c0,0,0.4,6.3,3.6,11.2"/>
		<path class="st9" d="M349.6,209c0,0-0.7,4.9,0.9,7.3"/>
		<line class="st9" x1="357.8" y1="208.3" x2="358.2" y2="210.7"/>
		<path class="st9" d="M362.8,205.3c0,0,1.1,2.7,1.3,3.7"/>
		<path class="st9" d="M367.7,202.2c0,0,4.1,0.3,5.3,4.9"/>
		<path class="st12" d="M352.7,239c0,0.5-0.4,1-0.8,1c-0.5,0-0.8-0.4-0.8-1c0-0.5,0.4-1,0.8-1C352.4,238,352.7,238.5,352.7,239"/>
		<path class="st12" d="M348.1,234c0,0.5-0.4,1-0.8,1c-0.5,0-0.8-0.4-0.8-1c0-0.5,0.4-1,0.8-1C347.7,233,348.1,233.5,348.1,234"/>
		<path class="st12" d="M352.3,234.2c0,0.5-0.4,1-0.8,1c-0.5,0-0.8-0.4-0.8-1c0-0.5,0.4-1,0.8-1C352,233.3,352.3,233.7,352.3,234.2"
			/>
		<path class="st12" d="M362.7,229.1c0,0.5-0.4,1-0.8,1c-0.5,0-0.8-0.4-0.8-1c0-0.5,0.4-1,0.8-1
			C362.3,228.1,362.7,228.6,362.7,229.1"/>
		<path class="st12" d="M368.5,216.3c0,0.5-0.4,1-0.8,1c-0.5,0-0.8-0.4-0.8-1c0-0.5,0.4-1,0.8-1
			C368.1,215.3,368.5,215.8,368.5,216.3"/>
		<path class="st10" d="M365.8,246.3c0,0-0.4,1.6-1.8,3.1c-1.4,1.5,0.8,10.8,0.8,10.8s-1.3,0.8-3.8-8.7c-2.5-9.4,2.4-10.1,2.4-10.1
			h1"/>
		<path class="st10" d="M364.1,240c0,0,0.6,2.2,2.8,3.1c2.1,0.9,16.3,1.1,19.5-0.6c3.1-1.8-7.9-0.3-11.1-3.5
			C372,235.8,365.7,236.5,364.1,240z"/>
		<path class="st10" d="M369.1,244.4c0.6,0.7,1.3,2.2,1.4,5.4c0.2,6.3,1.7,7.1,1.7,7.1s-5.3-2-5.9-6.6c-0.6-4.6-1.5-6.8-0.9-7.2"/>
		<path class="st10" d="M367.8,243.8c0,0,0.6-0.1,1.3,0.7"/>
		<path class="st10" d="M374.9,238.2c0,0,4.6-0.3,4.8-0.3c2.6,0.2,4.5-1.6,4.5-1.6s-0.9,0.6-2.3,0c-1.5-0.6-5-1.2-5-1.2"/>
		<path class="st9" d="M334.1,214.1c0.4,1.1,0.6,1.9,0.6,2.2l0.1,1.3"/>
		<path class="st9" d="M330,204.1c0,0,1.5,3.4,2.8,6.6"/>
		<path class="st9" d="M334.7,206.9c0,0,2.9,6,2.7,7.2l0,0.7"/>
		<path class="st9" d="M347.3,260.3c1.4,3.7,3.4,8.9,3.4,8.9"/>
		<path class="st9" d="M345.2,254.5c0.5,1.5,0.9,2.8,1.2,3.5c0.1,0.2,0.2,0.4,0.2,0.7"/>
		<path class="st9" d="M340.8,240.4c0,0,2.1,6.8,3.8,12.1"/>
		<path class="st9" d="M350.6,256.8c2.5,5.8,4.9,12.4,4.9,12.4"/>
		<path class="st9" d="M347,248.9c0.3,0.8,0.6,1.6,1.1,2.5c0.4,0.7,0.7,1.4,1.1,2.2"/>
		<path class="st9" d="M346.4,242.9c0,0-0.8,1.5,0.1,4.7"/>
		<path class="st9" d="M371.9,243.8c0,0,16.3,21.1,18,25.4"/>
		<path class="st9" d="M371.2,250.9c0,0,4.9,4.1,6.8,8.3c1.4,3.2,3.7,7.1,4.8,9"/>
		<ellipse class="st9" cx="332.8" cy="212.7" rx="2" ry="2"/>
		<ellipse class="st9" cx="340.6" cy="247.3" rx="2" ry="2"/>
		<ellipse class="st9" cx="343.4" cy="254.1" rx="2" ry="2"/>
		<ellipse class="st9" cx="345.4" cy="260.1" rx="2" ry="2"/>
		<ellipse class="st9" cx="350.8" cy="254.8" rx="2" ry="2"/>
		<ellipse class="st9" cx="348.1" cy="248" rx="1.8" ry="1.3"/>
		<ellipse class="st9" cx="376.8" cy="262.5" rx="2.7" ry="2.4"/>
		<ellipse class="st9" cx="389.6" cy="264.4" rx="2.1" ry="2.4"/>
		<ellipse class="st9" cx="384.7" cy="268.8" rx="2.2" ry="1.2"/>
		<ellipse class="st9" cx="382.8" cy="254.9" rx="1.9" ry="2.1"/>
		<ellipse class="st10" cx="366.2" cy="265.3" rx="0.6" ry="0.8"/>
		<ellipse class="st10" cx="392" cy="248.6" rx="1.1" ry="0.7"/>
		<path class="st10" d="M366.3,250.3c0,0,1.3,6.4,1.3,9c0.1,2.6-1.4,5.1-1.4,5.1"/>
		<path class="st10" d="M377.3,243.7c0,0,6.1,1.3,8,2.9c1.9,1.6,5.6,2,5.6,2"/>
		<path class="st13" d="M391.8,204.3c-1.1-0.6-2.7-2.2-3.7-6.6c-1.7-7.4-4-5.6-4-5.6"/>
		<path class="st13" d="M408.8,207.1c0,0,1,0.6,0.7,1.9c-0.3,1.3-2.9,10.8-0.3,13.6"/>
		<path class="st13" d="M416.1,212.6c0,0,4.3,1.2-1.5,9.7c-0.6,0.8-1.2,1.6-2.1,2.1c-0.7,0.4-1.6,1.4-2.3,2.4
			c-1.3,1.7-2.2,3.6-2.8,5.6c-0.8,2.9-2.4,7.7-3.9,9.1c-0.5,0.5-1,0.6-1.5,0c-0.6-0.7-1.9-6.6-1.7-9.3c0.2-2.8-2.1-15.9-2.1-15.9
			s-3.5-8.2-2.3-17.3c1.2-9.1-2.1-8.6-2.1-8.6"/>
		<path class="st13" d="M393.8,269.2c0.3-0.8,0.9-9.4,4.2-14.4c3.3-5,6.4-14.4,6.4-14.4"/>
		<path class="st13" d="M433,216.3c-2.7-0.6-2.9-9.2-2.9-9.2"/>
		<path class="st13" d="M438.4,204.7c0,0-3.9,7.4-2.9,14.8c0.3,2.6,0.4,4.5,0.4,6c0,2,1.8,3.6,3.8,3.1c2.7-0.6,5.9-1.9,7.7-4.5
			c3.3-4.8,8.3-12.3,8.3-12.3"/>
		<path class="st13" d="M419.2,269.2c0,0,6.6-10.9,7-12.7c0.4-1.8,2.7-9.4,3.9-11.2c1.2-1.7,7.6-16.2,7.6-16.2"/>
		<path class="st13" d="M448.3,222.6c0,0,6.8,0.8,7.3-1.3"/>
		<path class="st13" d="M441.1,270c0,0,22.3-15.5,23.3-15.1c1,0.4,7.9-14.2,7.9-14.2"/>
		<path class="st13" d="M475.4,256.5c-4.1-0.1-11-1.6-11-1.6"/>
		<path class="st13" d="M289.1,245.3c0,0,7.7,1.1,11.1,6.8c3.4,5.7,8.5,3.3,16.2,15.5c0,0,0.6,0.7,0.6,1.6"/>
		<path class="st13" d="M289.1,254.8c0,0,6,5.1,11.1,1.7"/>
		<path class="st13" d="M302.8,230.1c0,0,2.9,3,6.3,2.1"/>
		<path class="st13" d="M302.8,220.5c0,0,15.3,18.9,19.5,19.8c4.2,0.9,18.5,28.4,18.5,28.4"/>
		<line class="st13" x1="321.8" y1="210.5" x2="322.3" y2="216.3"/>
		<path class="st13" d="M328.3,208.3c0,0-0.9,8.1-1.7,9c-0.8,1-1.9,2.9-4.4,2.1l0.7,21.3"/>
		<path class="st5" d="M384.8,191.9c0,0-2.5-0.2-0.8,3c1.7,3.2,4.7,9.2,4.5,9.7c-0.2,0.5,2.7,2.5,3.8,2.5c1.1,0,0.8,0.7,1.4,1.9
			c0.7,1.2,4.6,18,4.6,20.1c0,2.1,1.2,14,1.7,14.6c0.4,0.6-5.5,13.1-5.6,14.3c-0.1,1.2-3.6,8.9-2.7,11.1"/>
		<path class="st5" d="M394.7,190.5c0,0-2.1-0.9-1.6,1.6c0.5,2.5,0,7.6,0,7.6s-0.3,5-0.7,4.9"/>
		<path class="st9" d="M409.1,207.1c0,0-1.3-1.2-1.8,2c-0.5,3.3-2.9,10.5-0.5,13.9c0.7,2.1-0.6,7.5-0.6,7.5s-3.3,9.3-4,9.4"/>
		<path class="st9" d="M416.4,212.8c0,0-1.2-0.9-1.2,1.8c-0.1,2.7-3.2,9.3-5.4,8.3"/>
		<path class="st9" d="M438.3,204.4c0,0-0.1-2.1-2-0.5c-2,1.6-2.9,12.3-2.9,12.3"/>
		<path class="st9" d="M430.1,206.8c0,0-0.7-1.6-1.5,0.3c-0.7,1.9-0.1,10.7,3.5,11.4c1,0.6,1.4,8.8,2.3,10.1
			c1,1.3-11.1,24-10.6,26.7c0.5,2.7-8.7,14.6-8.7,14.6"/>
		<path class="st9" d="M455.7,211.4c0,0,0.5-1.5-1-1.1c-1.5,0.4-8.1,10.9-8.2,11.1c-0.2,0.2-7.3,8.1-9.1,6.3"/>
		<path class="st9" d="M455.7,220.8c0,0,0.9-1-0.9-1c-1.8,0-4.5,2.5-4.9,1"/>
		<path class="st9" d="M472.3,240.2c0,0-0.5-2.4-2.4-0.3s-4.4,11.3-6,12.3c-1.6,1-25.9,17-25.9,17"/>
		<path class="st9" d="M475.8,256.5c0,0,1.1-1.1,0-1.6c-1.1-0.6-8.9-1-9.2-1.7"/>
		<path class="st9" d="M328.3,207.9c0,0-0.3-1.6-1.6-0.4c-1.3,1.2-0.3,4.6-1,6.4c-0.7,1.8-2.1,4-3.2,3"/>
		<path class="st9" d="M321.8,210c0,0-1.1-1.9-2.1,0c-1,1.9,2.3,23.3,0.5,28.7"/>
		<path class="st9" d="M302.5,220.2c0,0-2.2-0.4-1.4,1.7c0.8,2,8,9.7,8,9.7"/>
		<path class="st9" d="M302.4,229.8c0,0-2.1,0.3-1.1,2.2c1,1.9,7.2,3.2,8.8,2.4c1.6-0.8,9.1,8.6,11,8.7c1.8,0.1,14.6,19.7,17.1,26.1
			"/>
		<path class="st9" d="M288.7,245.3c0,0-1.8,0.7-0.3,2c1.4,1.3,5-0.4,11.9,8.5"/>
		<path class="st9" d="M288.9,254.5c0,0-2.6,0.5-0.8,2.6c1.8,2.1,11.1,4.5,14.4,2.1c3.3-2.3,11.6,9.3,11.6,9.3l0.2,0.7"/>
		<line class="st10" x1="334.8" y1="209" x2="336" y2="209"/>
		<line class="st10" x1="332.5" y1="216.3" x2="334.8" y2="214.9"/>
		<line class="st10" x1="339.8" y1="240.7" x2="341.4" y2="241.5"/>
		<line class="st10" x1="342.3" y1="245.3" x2="343.7" y2="245.3"/>
		<line class="st10" x1="344.8" y1="248" x2="346.3" y2="248"/>
		<line class="st10" x1="345.5" y1="257.4" x2="347.3" y2="256.9"/>
		<line class="st10" x1="349.4" y1="260.1" x2="351.5" y2="258.9"/>
		<line class="st10" x1="347.3" y1="262.5" x2="349.4" y2="262.5"/>
		<line class="st10" x1="351.5" y1="263.4" x2="354" y2="262.5"/>
		<line class="st10" x1="348.1" y1="266.1" x2="350.5" y2="266.1"/>
		<line class="st10" x1="353.6" y1="266.8" x2="355.3" y2="266.8"/>
		<polyline class="st10" points="346.1,250.9 344.8,250.9 343.4,250.9 		"/>
		<line class="st10" x1="373" y1="250.3" x2="371.9" y2="251.5"/>
		<line class="st10" x1="375.3" y1="254.1" x2="374.1" y2="256.1"/>
		<line class="st10" x1="375.4" y1="250.9" x2="378" y2="250.3"/>
		<line class="st10" x1="378.9" y1="258.1" x2="375.4" y2="258.9"/>
		<line class="st10" x1="382.5" y1="264.4" x2="380.2" y2="266.1"/>
		<line class="st10" x1="384.7" y1="263.4" x2="387.6" y2="262.5"/>
		<line class="st10" x1="382.8" y1="260.3" x2="384.7" y2="259.5"/>
		<path class="st14" d="M411.1,53l-2-1.1c-10.8-4.2-11.4,0-11.4,0s-15.7,27.3-5.9,33c0,0,1.2,1.3,0.9,1.5c-0.3,0.2-1.6-2.5-5.8,3.4
			c-4.1,5.9-5.9,1-8.8,5.8c0,0,5,0.9,7.1-0.5c2-1.4,2.2-2.8,6-2.7c3.8,0.2,6.8-1.4,6.5-1.7l-0.5-1c15,9.1,28.1-15.8,30.9-19.4
			c2.9-3.7-3-8.1-3-8.1l-0.6-0.3"/>
		<path class="st14" d="M410.4,59.5c0.7-3,2.6-2.8,3.7-2.5c0.5,0.2,0.8,0.6,0.9,1.1c0.2,3.8-4.9,1.6-4.9,1.6s-1.9,0.9-2.8-3.4
			c-0.9-4.3,3.4-2.9,3.4-2.9s1.8-3.1,6.3,3.4c0,0,3.9-2,5.2-1.8c1.3,0.2,5.2,2.9,6,2.9c0.8,0,4.2-0.2,4.9,0c0.7,0.2-0.6-1.7,9.8-0.4
			c10.4,1.2,9.1-2.4,13.6,0.2c4.5,2.7-2,3-5,2.3c-3-0.7-17.6-0.2-17.6-0.2s0.3,2.2-5,0.2c-5.2-2-7,2.3-9.2,2.3
			c-2.2,0-4.9,0.6-5.1-2.2c0,0,2.5-0.8,2-3.3"/>
		<path class="st10" d="M419.6,55.6c0,0,2.6-16.4,7.5-18.5c1.7-0.7,3.3-0.4,4.6,0.4c0,0,7.1,1.8-5.7,19.2"/>
		<path class="st10" d="M431.1,36.6c0,0,2.1-5,5.9-1.1c3.9,3.9,3.6,3.9,0,7.8l-0.6,0.7"/>
		<path class="st10" d="M432,46.7c0,0,3.5-4.6,5.1-1.7c1.6,2.8,3.9,4.7-2.6,9.7c-2.4,1.9-3.7,2.8-4.3,3.2"/>
		<path class="st10" d="M438.9,49.6c0,0,7.7-4.4,3.7-8c-1.9-1.8-3.3-1.1-3.3-1.1"/>
		<path class="st14" d="M385.9,91.1c0,0-5.8-2.9-16.1,0.8c0,0,9.7-0.1,10.7,0.5l1.1,0.6"/>
		<path class="st10" d="M400.6,91.6c0,0-1,3.1,0,3.8c1,0.8-2.6,0-2.9-2.9c-0.2-1.8-1.3,16.9-1.3,15.2c0-1.7-3-10.2-3.7-10.3
			c-0.6-0.1-3.8,6.6-3.8,6.6s0.6-0.9,0-3.1c-1.7-6,0.6-8.4,0.6-8.4"/>
		<path class="st9" d="M383.4,102.3c2-3.1,3.8-5.4,4.9-5.8"/>
		<path class="st9" d="M380.2,107.5c0.5-0.8,1-1.6,1.5-2.4"/>
		<path class="st9" d="M374.4,117.6c1.1-2.1,2.8-5.2,4.7-8.4"/>
		<path class="st9" d="M388.8,100.3c0,0-20.2,31.2-19.1,35.4"/>
		<path class="st9" d="M371.9,122.6c0,0-4.2,7.5-4.4,8.4"/>
		<path class="st5" d="M367.5,139c0,0-8.3,16.5-7.8,23.9"/>
		<path class="st5" d="M364.5,139.6c0,0-8.3,17-8,22.3"/>
		<line class="st9" x1="382.3" y1="100.3" x2="385.9" y2="101.5"/>
		<line class="st9" x1="384.1" y1="106.7" x2="385.9" y2="108.3"/>
		<line class="st9" x1="379.3" y1="112.8" x2="380.7" y2="113.4"/>
		<line class="st9" x1="375.3" y1="113.1" x2="376.9" y2="113.4"/>
		<line class="st9" x1="376.9" y1="115.8" x2="379.3" y2="117"/>
		<line class="st9" x1="376.1" y1="118" x2="378.2" y2="119.5"/>
		<line class="st9" x1="371.9" y1="125.2" x2="373.4" y2="126.2"/>
		<line class="st9" x1="374.9" y1="123.4" x2="376.9" y2="123.4"/>
		<line class="st9" x1="368.1" y1="125.2" x2="370.2" y2="125.7"/>
		<line class="st9" x1="370.3" y1="128.5" x2="371.7" y2="129.6"/>
		<line class="st9" x1="360.5" y1="153.5" x2="362.9" y2="154.1"/>
		<line class="st9" x1="359.5" y1="146.3" x2="361.2" y2="147"/>
		<line class="st9" x1="361.2" y1="143" x2="363.8" y2="143"/>
		<line class="st9" x1="362.5" y1="148.2" x2="363.8" y2="149.3"/>
		<line class="st9" x1="356.8" y1="153.5" x2="358.9" y2="155.2"/>
		<line class="st9" x1="358.9" y1="157.5" x2="361.2" y2="158.6"/>
		<line class="st9" x1="359.5" y1="159.8" x2="361.2" y2="160.4"/>
		<ellipse class="st9" cx="382.8" cy="104" rx="1.7" ry="1.8"/>
		<ellipse class="st9" cx="378" cy="107.8" rx="1.9" ry="2"/>
		<ellipse class="st9" cx="383.2" cy="111.9" rx="1.3" ry="1.5"/>
		<ellipse class="st9" cx="387.9" cy="106.1" rx="1.8" ry="1.6"/>
		<ellipse class="st9" cx="372.9" cy="118.6" rx="1.9" ry="1.5"/>
		<ellipse class="st9" cx="375.4" cy="126.8" rx="1.5" ry="1.6"/>
		<ellipse class="st9" cx="372.7" cy="132.5" rx="1.7" ry="1.5"/>
		<ellipse class="st9" cx="357.7" cy="149.5" rx="1.7" ry="1.9"/>
		<ellipse class="st9" cx="364.1" cy="150.8" rx="1.2" ry="1.3"/>
		<ellipse class="st9" cx="366.1" cy="146.7" rx="1.4" ry="1.6"/>
		<ellipse class="st9" cx="362.6" cy="158.4" rx="1.5" ry="1.8"/>
		<path class="st9" d="M397.3,52.6c0,0,1,8.3,10.8,12.3c9.9,3.9,9,4.9,13.4,5.9c4.4,1,5.7,1,5.7,1"/>
		<path class="st9" d="M393.8,92.3c0,0,0.3,3.3-1.1,5.1"/>
		<path class="st9" d="M391.3,92.4c0,0-0.2,3.5-0.8,5.4"/>
		<path class="st9" d="M379.3,95.1c0,0,6.5-1.3,8.7-3.5c2.2-2.3,5.9-2.3,5.9-2.3"/>
		<path class="st9" d="M394.9,80.1c0,0-0.7,5.2,0.5,7.7"/>
		<path class="st9" d="M398.6,84.6c0,0-3.3,2.5-3.2,3.1c0.1,0.6,0.9,0.9,1.6,0.8c0.7-0.1,6.2-3.2,6.6-3.2c0.3-0.1,0.6,1.3,0,1.8
			c-0.6,0.5-2.1,1.5-2.1,1.5"/>
		<path class="st15" d="M397.3,89.7c0,0-1.2-1-1.2-1.2"/>
		<path class="st9" d="M407.2,58.1c0,0-2.8-0.5-2.8,0.8c0,1.3,1.1,1.9,1.8,2.1c0.7,0.2,3.6,0.3,2.8-0.9"/>
		<path class="st9" d="M406.7,54.3c0,0-2.8-1.2-4.1,0c-1.3,1.2,3.7,2.8,4.6,1.9"/>
		<path class="st9" d="M413.6,62.8c0,0-5.3-0.1-0.4,2.2C418.1,67.3,415.7,62.5,413.6,62.8z"/>
		<path class="st9" d="M422.1,65.3c0,0-3.8-0.6-2.2,2c1.6,2.6,5.3,0.8,4.7-0.3C424,66,423.1,65.7,422.1,65.3z"/>
		<line class="st16" x1="431.1" y1="37.8" x2="422.6" y2="55"/>
		<polyline class="st16" points="425.4,39 428.2,42.6 428.4,42.8 		"/>
		<polyline class="st16" points="423.4,42.6 426.1,46.7 426.4,47.3 		"/>
		<polyline class="st16" points="421.6,46.7 423.4,51.4 423.8,52.6 		"/>
		<line class="st16" x1="433.1" y1="42.2" x2="428.2" y2="44"/>
		<line class="st16" x1="431.7" y1="46.7" x2="425.8" y2="49"/>
		<line class="st16" x1="429.7" y1="51" x2="423.5" y2="53"/>
		<line class="st16" x1="437.3" y1="36.6" x2="433.9" y2="40.4"/>
		<line class="st16" x1="438.4" y1="41.7" x2="433.9" y2="42.6"/>
		<line class="st16" x1="432.3" y1="35.6" x2="432.3" y2="37.8"/>
		<line class="st16" x1="437.7" y1="46.4" x2="428.2" y2="57.4"/>
		<polyline class="st16" points="432.7,46.4 433.1,51 433.1,51.4 		"/>
		<polyline class="st16" points="430,50.5 430,54.6 430,55 		"/>
		<line class="st16" x1="434.5" y1="50" x2="438.4" y2="49.6"/>
		<line class="st16" x1="431.6" y1="53.5" x2="436.2" y2="53.3"/>
		<line class="st16" x1="442.6" y1="41.7" x2="438.4" y2="46.7"/>
		<polyline class="st16" points="438.4,42.6 438.9,45.6 438.9,45.7 		"/>
		<line class="st16" x1="440.1" y1="44.6" x2="443.2" y2="44.6"/>
		<path class="st16" d="M433.1,57.8c0,0,0.7,0.5,0.9,1.9"/>
		<path class="st16" d="M436.5,56.7c0,0,1.4,0.4,0,2.8"/>
		<path class="st16" d="M440.1,57.1c0,0,0.6,0.7,0,2.4"/>
		<path class="st16" d="M442.9,57.3c0,0,1,0.4,0.3,2.1"/>
		<line class="st16" x1="447" y1="58" x2="447" y2="59.5"/>
		<path class="st16" d="M450.6,57.4c0,0,0.7,1.4,0,2.3"/>
		<path class="st16" d="M453.7,56.7c0,0,1.4,1.9,0,3.5"/>
		<path class="st16" d="M456.6,57.6c0,0,0.7,1.8,0,2.2"/>
		<path class="st10" d="M407.6,56.1c0,0,3.7-0.1,3.2-2.8"/>
		<polyline class="st10" points="422.1,61.5 422.5,64.8 421.6,67 		"/>
		<polyline class="st10" points="424,60.3 425.1,64.3 424,65.6 		"/>
	</g>
</g>
<line class="st17" x1="392.7" y1="86.4" x2="395.4" y2="87.7"/>
</svg>
