<?xml version="1.0" encoding="utf-8"?>
<!-- Generator: Adobe Illustrator 21.0.2, SVG Export Plug-In . SVG Version: 6.00 Build 0)  -->
<svg version="1.1" id="图层_1" xmlns="http://www.w3.org/2000/svg" xmlns:xlink="http://www.w3.org/1999/xlink" x="0px" y="0px"
	 viewBox="0 0 841.9 595.3" style="enable-background:new 0 0 841.9 595.3;" xml:space="preserve">
<style type="text/css">
	
		.st0{clip-path:url(#SVGID_2_);fill:none;stroke:#000000;stroke-width:0.5;stroke-linecap:round;stroke-linejoin:round;stroke-miterlimit:22.926;}
</style>
<g>
	<defs>
		<rect id="SVGID_1_" width="841.9" height="595.3"/>
	</defs>
	<clipPath id="SVGID_2_">
		<use xlink:href="#SVGID_1_"  style="overflow:visible;"/>
	</clipPath>
	<path class="st0" d="M545.5,208.1c-1.3,8-12.1,11.8-11.3,18.6c0.4,3.5,2.4,5.2,4.7,5.3c4,2,9.3-4.1,8.6-11.3
		C547,215.7,546.5,211,545.5,208.1z"/>
	<path class="st0" d="M545.5,208.1c1.3,8.4-7.6,18.9-6.6,24"/>
	<path class="st0" d="M542.7,220.4c1.6-0.8,2.7-1.7,4.2-4.9"/>
	<path class="st0" d="M541,224.4c1.5-1.6,5.1-2.4,6.3-6.4"/>
	<path class="st0" d="M539.8,227c5.5-1.4,7.8-5.3,7.8-5.3"/>
	<path class="st0" d="M538.8,230.8c2.1,0.3,6.6-2.5,8.5-6.2"/>
	<path class="st0" d="M543.7,212.5c-0.6,1.7-2.1,5.3-1.6,9.3"/>
	<path class="st0" d="M541.4,215.5c-1.6,4.4-1.7,7.9-0.8,9.8"/>
	<path class="st0" d="M538.6,218.3c-3.3,7,0.5,11.1,0.5,11.1"/>
	<path class="st0" d="M506.6,182.8c1.1,6.3,8.8,5,4.2,1.6C509.5,183.5,507.5,183.9,506.6,182.8z"/>
	<path class="st0" d="M517.3,179.1c-4.4,4.1-0.1,4.3-0.1,8.8C518.6,185.8,518,180.8,517.3,179.1z"/>
	<path class="st0" d="M509.8,191.8c-5.6-2.9-7,5.3-5.6,3C505.3,192.9,509.4,192.4,509.8,191.8z"/>
	<path class="st0" d="M512,186.9c1.9,6.4,6.5,5.1,10.2,9.8c0.7,0.9,1.5,2,2.6,2.9 M528.1,203.1c4.6,5.1,6.4,12.4,6.3,20.9"/>
	<path class="st0" d="M517.2,187.8c-0.1,0.5-1.4,2.4,0.3,5.2"/>
	<path class="st0" d="M509.8,191.8c1.7,0.5,3.2-1.4,5.5-0.1"/>
	<path class="st0" d="M513.9,208.9c-0.4-3.1-3.6-9.9-0.1-11.1c2.9-1-0.5,5.5,0.1,11.3c0-1.7-7-9.2-3-11.5c1.6-0.9,2.7,0.3,2.9,0.2
		c1.6-2.8,4.6-2.5,8.9-0.5"/>
	<path class="st0" d="M526.7,202.1c-5.7-3.2,2.3-9.8,3-10.1c0.3,1.4,2.2,13.7-2.8,10.5c-0.8-0.5,0.6-7.5,2.8-10.5"/>
	<path class="st0" d="M534.1,225.8c-1.1-1.9-1.9-1.8-3.7-1.3c-2.6-2.5-8.2,8.9-0.8,15.8c1.7,1.6,2.1,3.7,2.7,6.1
		c0.3-4.8,6.6-7.2,4.8-14.8"/>
	<path class="st0" d="M533.8,215.3c4.1-4.1-0.4-8.8-0.5-16"/>
	<path class="st0" d="M526.9,202.6c-1.2,4.2-1.7,22.8-0.8,27"/>
	<path class="st0" d="M521.2,201.4c-2.4,16,7.6,15,4.5,22.8"/>
	<path class="st0" d="M526.1,229.5c-2.6-6.1-18.5,6-11.3,3c5.4-2.3,9,3,11.4,1.7"/>
	<path class="st0" d="M520.9,217.7c0,1.9,0.9,7.1-0.2,7.5"/>
	<path class="st0" d="M518.5,220.9c0.2,1.3,2.8,4.7,3.6,7"/>
	<path class="st0" d="M530.4,224.4c1.6,2.1,2.1,18.3,1.9,21.9"/>
	<path class="st0" d="M531.8,231.5c1.3,0,3.9,2.9,4.7,6.7"/>
	<path class="st0" d="M531.9,232.3c-0.1,3-2.8,4.2-1.6,8.7"/>
	<path class="st0" d="M529.2,233.9c-0.8-3.7,1.4-4.9,1.8-7.9 M531.2,227.1c1.3-0.2,2.5,0.7,3.5,2"/>
	<path class="st0" d="M518.5,253.6c6.4,2.9,13.3,9.7,15.1,12.3c3.7,5.6,0.3,14.9-3.1,14.2c-2.1-0.4-0.8,3.2-5,2.3
		c-6.7-1.4-5.6-9.7-4.8-14.1C521.8,261.3,521.6,259.3,518.5,253.6c11.7,6.3,6.2,25.4,11.9,26.6"/>
	<path class="st0" d="M527.1,271.9c3-3.2,2-10.9,2-10.8"/>
	<path class="st0" d="M528.1,277.3c1.5-3.7,5.6-5,4.6-12.6"/>
	<path class="st0" d="M527.1,271.9c-1.8-0.6-5.4-3.2-5.9-10.5"/>
	<path class="st0" d="M520.5,268.7c0.7,9.2,3.5,11.3,9.5,11.3"/>
	<path class="st0" d="M535.1,270.3c2.4-5.3,12.6-3.1,19.9-6.7c-0.4,1.4-7.6,6.1-10,9.2c-3.5,4.6-4,8.3-7.7,12.5
		c-6.4,7.2-12.6,1.8-10.7-2.7"/>
	<path class="st0" d="M534.3,276.6c3.2-4.6,13.3-9.5,20.7-13"/>
	<path class="st0" d="M504.1,329.8c-3.5-3.3-3.2-10.2,5.6-15.1c7.4-4.1,13.6-4.3,21-11.7c-1,2.3-2,6.1-2,10.6
		c0,10.9-7.2,15.5-13.3,17.3C510.6,332.3,505.3,332.4,504.1,329.8c7-8.4,6.8,1.9,16.9-12.1c3.4-4.7,6.2-11,9.7-14.7"/>
	<path class="st0" d="M519.9,319.3c1.8-1,4.3,0.2,6-2.9"/>
	<path class="st0" d="M521.6,316.9c-1.2-2.7,1.7-4.7,2.3-7.4"/>
	<path class="st0" d="M516.8,322.8c1.5-0.5,2.9,2.1,5.4,0.2"/>
	<path class="st0" d="M514.6,324.7c1.3-1.5-2.7-5.9,2.6-11.4"/>
	<path class="st0" d="M518.4,321.1c0.9-2.1-1.4-4.9,2.4-9.8"/>
	<path class="st0" d="M509.6,326c-0.7-3.7,1.2-5.5,1.9-9.9"/>
	<path class="st0" d="M508.2,326.3c1.9,1.2,5.4,0.4,9.5,0.4"/>
	<path class="st0" d="M544.6,273.4c3.3,15.6-17.2,20-20.2,32.6c-0.1,0.3-0.5,2.8,1,1.5"/>
	<path class="st0" d="M544.6,273.4c4.7,9.2,3.9,25.6-14.7,32.3"/>
	<path class="st0" d="M493.7,334.6c3.3,1.1,5.3-1.4,6.2-4.9c1.8-6.8,0.9-18.9-3.6-24.4c1,3.1-5.3,7.7-7.5,14.9
		C486.7,327.1,487.6,335.2,493.7,334.6z"/>
	<path class="st0" d="M493.7,334.6c-1-8.3,1.5-15,3.3-23.2"/>
	<path class="st0" d="M494.4,322.5c1.8-1.2,3.8-5.2,3.9-6.4"/>
	<path class="st0" d="M493.7,326.8c1.4-0.4,4-2.6,5-6.1"/>
	<path class="st0" d="M493.6,332.5c2.5-1.6,3.5-3.8,4.3-6.1"/>
	<path class="st0" d="M492.6,316.3c0.2,3,0.7,4.1,2,5.3"/>
	<path class="st0" d="M490.9,321.4c-0.4,2.3,0.6,5,2.7,6.7"/>
	<path class="st0" d="M489.7,327.6c0.7,2.9,2.5,5.2,3.9,5.4"/>
	<path class="st0" d="M500.3,276.5c0.1,3.7,10,5.6,13.2,11.6c2.8,5.1,1.7,8.8,3.3,12.3c-0.2,1.3,12.1-8.2,2.8-17.9
		c-3.2-3.3-5.8-4.8-10.4-4.9C505.4,277.5,501.4,278,500.3,276.5z"/>
	<path class="st0" d="M510,279.1c2.4,2.6-0.1,4.1,1.7,6.7"/>
	<path class="st0" d="M516.4,282.3c0.8,6.1-1.2,10.3-1.2,10.3"/>
	<path class="st0" d="M519.1,285c0.3,6.7-2.7,9.2-3.1,12.4"/>
	<path class="st0" d="M516.9,300.4c-0.5,3.8-3.6,13.1-3.4,12.6"/>
	<path class="st0" d="M514.5,309.9c-7.9-1.3-6.7-20.8-6.3-21.3"/>
	<path class="st0" d="M510.4,306.4c4.9-2.8,3.1-13.6,3.1-13.6"/>
	<path class="st0" d="M512,305c-0.8-0.9-1.7-6.4-0.8-9.7"/>
	<path class="st0" d="M488.1,354.5c-5.6-5.6,5.2-10.4,11.7-9.7c8.3,0.9,16.4-3.8,16.4-3.8c-3.3,5.3-6.8,10.4-11.5,14.6
		c-3.5,3.1-14.2,7.2-16.9,1.6c-2.1-4.4,5.4-3.3,10.8-5.2c4.7-1.7,13.1-7.7,17.6-10.9"/>
	<path class="st0" d="M496.7,352.5c0.3-2.9,1.5-5.7,7.1-7.6"/>
	<path class="st0" d="M501.3,350.7c2.1,2.2,8.7-0.3,8.7-0.8"/>
	<path class="st0" d="M495.1,352.9c2.3,2.2,6.1,4.1,10.8,1.7"/>
	<path class="st0" d="M489.8,353.8c3.5-2.1,2.9-7.1,6.7-8.9"/>
	<path class="st0" d="M523.4,376.8c-4.9-7.2,13.6-4.6,15.4-7.8c0-0.1-3.5,10.2-10.4,10C524.5,378.9,523.4,376.8,523.4,376.8z"/>
	<path class="st0" d="M510.4,385.9c5.2-7.6,7.8,4.2,14.8,3.6C521.5,390.6,509.1,392.9,510.4,385.9z"/>
	<path class="st0" d="M503.4,380.7c-1-5.3,0.6-9,5.7-10.1c7.5-1.6,5.5-5.1,1.8,3.8C508.4,380.3,506.5,379.8,503.4,380.7z"/>
	<path class="st0" d="M496.3,371c-2,5.4-9.9,3.5-8.1,11.8C492,386,497.6,378.3,496.3,371z"/>
	<path class="st0" d="M487,391.4c7.5-6.2,9.2,4.1,16.3,2.6C498.3,397.1,486.5,398.1,487,391.4z"/>
	<path class="st0" d="M471.3,384.3c-3.1-1.2-2.1-4.4-0.7-5.5c2.5-1.9,8.6-2.4,11.6-5.9C482,378.7,474.1,390,471.3,384.3z"/>
	<path class="st0" d="M479.8,391.5c-12.1-1.7-3.5,9.5,8.3,9.9C483.1,400.3,485,389.6,479.8,391.5z"/>
	<path class="st0" d="M461.4,391.8c-0.5-1.9-4.3-3.5-4.9-4.3"/>
	<path class="st0" d="M461.4,391.8c1.8-3,4-0.4,4.5,1.4c0.8,3.1,1.4,5.8,3.2,7.8C453.4,396.1,458.4,391.1,461.4,391.8z"/>
	<path class="st0" d="M450.9,389.6c-0.6-1.4-1.6-2.4-3.1-3.8"/>
	<path class="st0" d="M450.9,389.6c2.3-4,3.5,1.7,3.2,5c-0.2,2.2,0.1,5.3,1.1,6.4C450.4,400.5,439.1,383.4,450.9,389.6z"/>
	<path class="st0" d="M439.3,386.5c0.5-2,6.2-2.9,1.3,7.2c-2.7,5.5-0.4,6.6-2.2,1.3C437.7,392.9,431,380.2,439.3,386.5z"/>
	<path class="st0" d="M465.7,388.4c1-2,3.9-2.2,5.6-4.1"/>
	<path class="st0" d="M476,388.4c2,0.9,1.5,1.9,3.7,3.1"/>
	<path class="st0" d="M480.6,388.1c1.8,1.4,4.2,2.5,6.4,3.3"/>
	<path class="st0" d="M484.2,387.7c-0.4-1.6,2.9-3,4-4.9"/>
	<path class="st0" d="M503.4,380.7c0,0-2.8,2.1-3.3,3.8"/>
	<path class="st0" d="M504.8,383c1.9,0.5,2.4,2.3,5.6,2.9"/>
	<path class="st0" d="M431.3,381.4c2.6-1.5,14.5,4.8,22.2,5.7c17,2.1,32.6,2.8,58.6-6.6c0.5-0.2,10.9-3.1,11.2-3.9"/>
	<circle class="st0" cx="465.4" cy="338.3" r="3.6"/>
	<circle class="st0" cx="472.6" cy="326.5" r="3.4"/>
	<circle class="st0" cx="477.1" cy="319.9" r="4.2"/>
	<path class="st0" d="M479.7,332.3c0-2-2.4-3.4-4.1-3.1c-1.7,0.3-3.1,1.4-3.1,3.1c0,1.7,1.4,2.7,3.1,3.1
		C477.3,335.7,479.7,334.4,479.7,332.3z"/>
	<circle class="st0" cx="479.2" cy="337.8" r="3"/>
	<path class="st0" d="M476.4,339.8c-0.3-4-6.8-4.6-7.5-1c-0.6,2.9,2.2,4.8,4,4.8C474.7,343.7,476.7,342.6,476.4,339.8z"/>
	<path class="st0" d="M486.2,327.7c0.2-2.4-0.8-4.5-4.3-4.7c-3.5-0.2-4.3,1.9-4.3,4.3c0,2.4,1.9,4.3,4.3,4.3
		C484.3,331.7,486,330,486.2,327.7z"/>
	<path class="st0" d="M483.7,319.3c-1-0.6-2.5,1.2-2.5,2.1c0,0.9,1.2,1.6,2.1,1.6C485.1,323,485.4,320.3,483.7,319.3z"/>
	<circle class="st0" cx="482.3" cy="312.5" r="2.8"/>
	<path class="st0" d="M473.2,347c0-2.3-1-4-3.3-4c-2.3,0-4.1,1.6-4.1,3.2C465.8,353.1,473.2,352,473.2,347z"/>
	<ellipse transform="matrix(0.5691 -0.8223 0.8223 0.5691 -54.0561 522.7759)" class="st0" cx="471.7" cy="313" rx="1.8" ry="1.5"/>
	<path class="st0" d="M468,330.3c-0.7-2.3-3.3-0.4-2.6,1.8C465.6,333,469.1,333.8,468,330.3z"/>
	<circle class="st0" cx="458.3" cy="343.1" r="2"/>
	<path class="st0" d="M466.3,349.7c0-2.9-1.9-4.8-4.9-4.8c-2.9,0-5.7,1.9-5.7,4.8c0,2.9,2.9,4.4,5.8,4.4
		C464.5,354.1,466.3,352.6,466.3,349.7z"/>
	<path class="st0" d="M476,352.9c0-1.3-1-1.8-2.4-1.8c-1.3,0-2.5,0.4-2.5,1.8c0,1.3,1.1,2.4,2.4,2.4
		C474.9,355.3,476,354.2,476,352.9z"/>
	<path class="st0" d="M467,360.6c0-2.3-1.9-4.2-4.2-4.2c-2.3,0-4.2,1.9-4.2,4.2c0,2.3,1.2,3.7,3.5,3.7
		C464.6,364.3,467,362.9,467,360.6z"/>
	<path class="st0" d="M460.3,356.3c0-1.8-1.2-2.8-3.1-2.8c-1.8,0-2.7,1.5-2.4,2.8c0.3,1.3,1.4,2.5,2.5,2.6
		C458.4,359,460.3,358.1,460.3,356.3z"/>
	<circle class="st0" cx="453" cy="351.5" r="1.3"/>
	<circle class="st0" cx="450.3" cy="358" r="4.9"/>
	<path class="st0" d="M450,363.7c-1-1.7-3.5-1.9-5.2-1.7c-1.7,0.2-3.2,1.2-2.6,3.7c0.6,2.5,3.2,4.3,5.6,3.9
		C450.3,369.2,451.1,365.4,450,363.7z"/>
	<ellipse class="st0" cx="404.9" cy="373.8" rx="2.2" ry="1.9"/>
	<path class="st0" d="M413.5,378.7c1.5-0.9,1.8-2.4,1.2-3.4c-1.3-2-6.7,0.4-5.2,2.8C410,379.1,412,379.7,413.5,378.7z"/>
	<ellipse class="st0" cx="396.1" cy="384.3" rx="3.9" ry="2.2"/>
	<ellipse class="st0" cx="399.5" cy="379.4" rx="3.4" ry="2.4"/>
	
		<ellipse transform="matrix(0.9816 -0.1908 0.1908 0.9816 -64.1374 83.0772)" class="st0" cx="399.3" cy="374.6" rx="3.2" ry="1.9"/>
	<path class="st0" d="M392.4,382.6c1.8-0.2,3.2-1.3,3.2-2.5c0-1.2-1.5-1.9-3.3-1.7c-1.8,0.2-3.2,1.3-3.2,2.5
		C389.1,382.1,390.6,382.8,392.4,382.6z"/>
	<ellipse transform="matrix(0.9895 -0.1448 0.1448 0.9895 -51.198 62.3847)" class="st0" cx="403" cy="383" rx="3.1" ry="2"/>
	<path class="st0" d="M407.8,387.4c1.7-0.7,2.2-2,1.8-2.8c-0.3-0.9-2-1.1-3.8-0.4c-1.7,0.7-2.9,2-2.5,2.8
		C403.6,387.9,406,388.1,407.8,387.4z"/>
	<path class="st0" d="M402.4,369.5c-9.2,0-16.3,4.5-16.3,9.9c0,5.5,5.2,10.1,14.4,10.1c9.2,0,16.7-4.4,16.7-9.9
		C417.2,374.2,411.6,369.5,402.4,369.5z"/>
	<path class="st0" d="M400.6,369.5c1.3-4.3,4-4.9,4.8-7.5c1.8,1.8,3,5.4,1.4,7.8"/>
	<path class="st0" d="M406.8,369.9c2.1-5.8,6.3-1.9,8.7-3.7c-0.2,1.3-0.2,3.8-3,5.8"/>
	<path class="st0" d="M412.5,372c3.9-3.5,8.9-1.3,10.7-0.9c-1.4,0.6-4.1,5-6.8,4.9"/>
	<path class="st0" d="M415.5,366.2c-1.7,2.1-5.5,2.7-6.1,4.3"/>
	<path class="st0" d="M405.4,362.1c1,3.8-0.3,5.1-2,7.4"/>
	<path class="st0" d="M415,374.1c1.9-1.9,6.6-3,8.1-3"/>
	<path class="st0" d="M416.3,376.1c3.8-0.3,7,3,8.1,3.5c-1.1,0.9-3.1,3.7-7.7,2.4"/>
	<path class="st0" d="M417.1,380.3c1.8-1.8,7.3-0.7,7.3-0.7"/>
	<path class="st0" d="M416.4,382.6c5,1.5,2.7,5.9,3.4,7.1c-3.3,0.4-7-2-7.6-3"/>
	<path class="st0" d="M414.9,384.6c1,0.9,3.3,4.1,4.9,5.1"/>
	<path class="st0" d="M411.4,387.2c2.7,6-1.2,4.4-1.2,8.9c0,0-5.1-5-4.5-7"/>
	<path class="st0" d="M408.6,388.3c-0.5,1.7,1,5.3,1.6,7.8"/>
	<path class="st0" d="M405.1,389.2c1.6,3.9-4.7,4-5.3,7.8c-0.6-0.9-1.6-6.1,0.1-7.5"/>
	<path class="st0" d="M402.6,389.5c-0.3,0.4-3.3,4.8-2.8,7.5"/>
	<path class="st0" d="M399.1,389.5c0,4.4-4,4.2-6.6,7.1c-0.4-1.9-0.1-5.3,2-7.9"/>
	<path class="st0" d="M396.7,389.3c-1.6,2.3-3.4,4.7-4.3,7.4"/>
	<path class="st0" d="M390.7,387.2c-3,1.3-3.8,4.5-3.9,6.1c2.6-0.8,6.1-0.6,7.1-4.7 M392.8,388.2c-1.8,0.5-4.9,3-6,5.1"/>
	<path class="st0" d="M388.7,385.6c-2.8,3.6-5.4,1.5-8.6,2c2.8-2.3,0.8-5.4,6.1-6.5"/>
	<path class="st0" d="M380.1,387.7c2.9-0.5,5.9-3.8,6.9-4.4"/>
	<path class="st0" d="M386.1,380.6c-1,1-7.2,0.5-6.6-3.9c2.4,1,4.7-1.8,7.2,0"/>
	<path class="st0" d="M379.5,376.6c1.8,2,4,2,6.6,2"/>
	<path class="st0" d="M386.7,376.6c-1.8-1.4-2.3-4.8-6-6c5.8-2.6,9.1,2,8.8,2.7"/>
	<path class="st0" d="M380.7,370.6c5.6-0.6,7.2,1.9,7.9,3.5"/>
	<path class="st0" d="M388.8,371.9c0.3-1.6-1.4-3.7-2.5-4.7c1.9,0.3,7.6-1,7.5,3.7"/>
	<path class="st0" d="M386.3,367.2c4.5,1.9,3.9,3.9,5.3,4.7"/>
	<path class="st0" d="M393.7,371c0-4.2,2.6-7.4,3.8-8.8c1.6,1.6,4.3,4.6,3.1,7.3"/>
	<path class="st0" d="M397.5,362.2c1.3,2.3,0.8,4.9,0.4,7.7"/>
	<path class="st0" d="M410.1,366.6c-1.3-3.4,6.4-9.6,4.4-13.5c7.7,4.6,3.4,12.7,3.4,12.7"/>
	<path class="st0" d="M414.4,353.1c1.8,2.8,3.5,6.5-0.7,13.6"/>
	<path class="st0" d="M414.9,369c5-7.1,11.8-6.4,12.9-7.8c0.5,0.7,0.4,9-6.1,11.1"/>
	<path class="st0" d="M427.8,361.2c0,3.7-6.6,5.9-7.3,9.2"/>
	<path class="st0" d="M419,361c2.1-2.2,6.5-1.5,8.4-3.3c-0.1,2.1-1.1,3.4-2.1,4.5"/>
	<path class="st0" d="M421.7,372.3c6.1-0.5,8.1,2.2,11.2,1.5c-4,4.2-5,5-9.3,6.4"/>
	<path class="st0" d="M420.3,376.9c1.4-1.5,10.1-0.8,12.6-3.1"/>
	<path class="st0" d="M422.8,381c6.7,2.8,6.2,6.9,9.9,8c-1.8,1-8.5,2.3-12.9-0.6"/>
	<path class="st0" d="M418.5,383.6c5.8,0.6,7.8,5.7,14.2,5.4"/>
	<path class="st0" d="M417.8,389.6c1.3,1.7,7.2,4.6,6.6,10.1c-6,0.7-11.9-4-13-7"/>
	<path class="st0" d="M411.4,387.1c2,5.6,7.3,9.4,13,12.7"/>
	<path class="st0" d="M410.4,394.4c2.4,4-1.3,6.8-1.8,9.6c-0.8-0.9-3-1.7-4.5-4.9c-0.6-1.4-1.1-4.8-0.3-6.3"/>
	<path class="st0" d="M408.6,404c0.3-4.8-4.1-6.4-2.7-13.3"/>
	<path class="st0" d="M401.7,394.3c3.2,4.9-4.9,6.9-7.6,11.1c-0.6-1.2-1.3-9.3,1.9-11.3"/>
	<path class="st0" d="M399,393.1c-0.8,4.6-3.6,6.2-4.9,12.3"/>
	<path class="st0" d="M391,392.2c-4.4,4.1-7.2,2.5-9.3,8c-1.2-1.9-4.4-6.6,3.8-12.4"/>
	<path class="st0" d="M381.7,400.2c-1.4-7.4,7-12.4,8.5-13.3"/>
	<path class="st0" d="M388.5,394.1c-3.2,4.2-0.1,7.2-0.8,10.1c1.9-0.2,5.9-5.1,6.4-6.6"/>
	<path class="st0" d="M392.7,392.4c-4.7,4.9-3.2,8.5-5.1,11.8"/>
	<path class="st0" d="M399.9,365.2c-0.1-5.4,4.1-4.1,5.3-11.8c0.7,1,5,7,2.1,12.2c-0.1,0.2,0.2-0.4,0.2-0.4"/>
	<path class="st0" d="M405.3,353.4c1.3,4.8-0.3,5.7-0.3,9.8"/>
	<path class="st0" d="M392,367.7c-3-4.4,0-9.5-1.6-13.1c7.1,3.8,9.3,5.3,10,8.3"/>
	<path class="st0" d="M390.3,354.6c5.4,6.7,3.5,8,4.7,11.3"/>
	<path class="st0" d="M390.7,364.7c-0.8-1.2-3-2-5.4-3.2c-2.2-1.1-4.3-2.4-6.7-2c4.1,1.9,2,8.9,6.3,10.2"/>
	<path class="st0" d="M378.7,359.6c2.6,0.2,6.2,3.4,8.6,7.7"/>
	<path class="st0" d="M383.4,369.8c-3.3-0.7-8,3-11.4,4.3c2.8,2.3,3.8,7.8,12.4,6.9"/>
	<path class="st0" d="M372,374.1c2.5,0.4,3.2,0.7,5.6,0.5c4.3-0.4,6.4,0.2,6.8,1.4"/>
	<path class="st0" d="M379.9,380.8c-6.1,2.2-7.3,7.7-6.7,9.5c2-1.4,8.8,0.6,10.1-0.8"/>
	<path class="st0" d="M373.2,390.3c1.3-4.9,8.5-5.8,8.7-5.4"/>
	<path class="st0" d="M375.9,389.8c-0.3,2.1-1.7,0.6-2.4,7c1.5-1.6,5.3-1.1,7.2-3.9"/>
	<path class="st0" d="M383.8,396.8c-1,2.7,0.4,3.6-0.9,6.6c0.9-0.1,3.7-0.9,4.2-3.8"/>
	<path class="st0" d="M398.8,401.1c-0.2,1.3,1.3,1.6,2,4.1c1.4-0.1,3.4-3.2,3.7-5.4"/>
	<path class="st0" d="M410.4,400.1c0.8,1.9,3.7,2.3,6.9,2.3c-1.1-1.6,0-3.2-1.9-5.2"/>
	<path class="st0" d="M422.4,393.9c1.4,0.7,4.1,0.2,5.5-1c-1.7-1.2-1.7-2.3-3.2-2.8"/>
	<path class="st0" d="M428.6,385.5c1.7,0.2,2.3-2,5-2.9c-3.2-0.8-4.7-4.1-5.4-4.5"/>
	<path class="st0" d="M426.4,368.5c1.8-0.2,2.8,1.6,6.8,1.2c-1.4,1.7-3.2,2.9-4.2,3.6"/>
	<path class="st0" d="M408,358.9c1.3-2.8,2.6-3.9,2.6-6.7c1.7,1.5,3,2.4,3.4,5.4"/>
	<path class="st0" d="M396.6,358.2c0.9-1.9,1.2-4.6,1.2-6.6c1.2,0.8,5.7,4.6,5.2,7.7"/>
	<path class="st0" d="M390.7,360.3c-0.9-2.2-2.8-3.6-4.5-4.3c0.1,0.6-1.1,4.1-0.1,5.8"/>
	<path class="st0" d="M382.2,366.5c-1.3-2.4-5.4-1.1-9-2c1.5,1.6,1.9,6.5,4,7"/>
	<path class="st0" d="M274.2,369.1c0.7,12.1,14.8,9.7,12.5,6.7C284.5,372.9,274.4,372.3,274.2,369.1z"/>
	<path class="st0" d="M295.9,364.4c-2.3,5.6-9.8,11-2.1,14.7C296.1,376.7,295.4,367.7,295.9,364.4z"/>
	<path class="st0" d="M282.8,394.4c-4.1-11.1,4.9-14.7,4.4-10.2c-0.1,0.6,6-1.6-1.8,5.4C283.9,390.9,283,393.5,282.8,394.4z"/>
	<path class="st0" d="M289.9,396.8c0.3-6.5,8.3-12.3,8-7.1c0,0,4.4,1.2,2,2.5C298.2,393.2,291.4,394.2,289.9,396.8z"/>
	<path class="st0" d="M311.9,389.8c-1.8-4-5.6,0-6.6,5.4c-1,4.9-2.9,4.4,2.8,1.1C312.5,393.7,315.9,390.1,311.9,389.8z"/>
	<path class="st0" d="M319,388.4c-6.5-5.4-6.4,11.7-5.8,15.3c3.5-8.4,8.7-7,9.4-11.9C323,388.9,320.8,388,319,388.4z"/>
	<path class="st0" d="M328.8,389.5c-6.6-2.5-5.9,10.5-5.3,12c0.8-0.6,1.6-4.5,4.9-6.5C329.8,394.1,331.8,390.6,328.8,389.5z"/>
	<path class="st0" d="M298.7,371c1.2,3.1-6.2,10.7,2.3,13C304.3,381.3,300.5,371.6,298.7,371z"/>
	<path class="st0" d="M302.6,371.3c1.5,3.3,3,13.8,9.7,11.4C315.3,377.3,302.5,371.4,302.6,371.3z"/>
	<path class="st0" d="M321.2,369.6c1.3,4.2-2.7,9.7,1.4,12.3c4.4,2.8,6.8-2.5,2.9-5.7C324.2,375,323.9,372.6,321.2,369.6z"/>
	<path class="st0" d="M341.4,374.2c1.4,1.9-1.3,15.2,4.2,11.4c1.8,0.6,8.8-1.3-0.1-6.7C344.8,378.5,342,374.5,341.4,374.2z"/>
	<path class="st0" d="M367.8,388.1c-1.1-4-4.9-1.2-3.8,4.8c0.8,4.2-5.1,11.5-0.2,4.8c3.7-4.9,5-4.4,7.5-7.8
		C374.1,386.2,368.8,386.5,367.8,388.1z"/>
	<path class="st0" d="M356.8,391.1c3.6-3.8,6.9,1.8-0.8,6.5c-3,1.8-5.2,9.6-3.1,1.6C353.6,396.4,352.3,387.9,356.8,391.1z"/>
	<path class="st0" d="M353.7,391.8c-0.1-0.2-0.7,0.2-0.8,0c-2.3-4.2-3.5,2.4-3.8,5.9c-0.5,5.8-6.4,11,1.3,3.2c0,0,2.5-3.7,2.7-3.8"
		/>
	<path class="st0" d="M342.9,392.9c6.3-4.5,6.6,2.8-0.8,7.8c-5.9,4-7.1,11.3-4.9,1.9c0.6-2.4-0.5-12.5,4.7-12.4
		C343,390.3,342.9,391.7,342.9,392.9z"/>
	<path class="st0" d="M286,377.6c-0.2,1.3,4.9,3.8,6.2,4.7c7.9,5.7,24.2,2.3,34.5,4c7.5,1.2,25.9,3.5,32.2-0.6
		c8.3-5.5,17.2-2.7,17.1-2.7l-0.3,0"/>
	<path class="st0" d="M367.8,388.1c-0.6-2.6,1.3-6,1.3-6"/>
	<path class="st0" d="M356.8,391.1c0.2-0.5,2.3-4.4,2.3-5.6"/>
	<path class="st0" d="M352.9,391.8c0.2-0.9,1.1-3.6,3.4-5"/>
	<path class="st0" d="M344.4,382.6c0.2,0.2-0.1,2,1.2,3c1.9,1.5,5.7,0.6,5.7,2.1"/>
	<path class="st0" d="M342.9,392.9c0.9-1.6,2.2-4.3,4-4.9"/>
	<path class="st0" d="M324.6,379.5c1.7,5.4,5.4,5,8.2,7.6c-2.9,0.7-5.7,4-6.4,5.2"/>
	<path class="st0" d="M319,388.4c0.6-2.2,2.3-2.6,2.3-2.6"/>
	<path class="st0" d="M312.3,382.8c3.1,0.3,4.6,1.1,6,3 M316.1,385.7c-3.9,0.7-3,2.1-4.2,4"/>
	<path class="st0" d="M301,383.8c0.8,1.6,1.8,1,2.4,1.7c0,0-3.7,1.7-5.5,4.2"/>
	<path class="st0" d="M293.8,379c-0.4,2.5,2.6,3.3,3.1,5.4 M291.7,382c-3.4-0.1-4.4,1.7-4.5,2.2"/>
	<path class="st0" d="M312.1,353.7c0.5-7.5-8.1-5.8-12.1-15.4c-1.1-2.6-4-5-7.1-3.8c2.7-2.9,7.6,1.7,13.1,2.9
		C316.7,339.6,323.1,354.5,312.1,353.7c-0.2,1.3-2,3.5-5,3.1c-5.4-0.7-7.1-6.4-7.7-10.6c-0.5-3.6-0.9-13-6.6-11.8"/>
	<path class="st0" d="M310.8,349.3c-0.1-3.4,0.9-6.4,0.9-6.3"/>
	<path class="st0" d="M307.7,346.8c-0.6-3.5,0.5-6.9,0.5-6.9"/>
	<path class="st0" d="M305.3,345.1c-2.2-2.8-1.1-4.3-2.9-7.4"/>
	<path class="st0" d="M309.3,347.9c-2.5,1.3-6.3,0-8.1-2"/>
	<path class="st0" d="M311.7,350.7c-1.3,0.4-5.7,3.1-9.3-0.3"/>
	<path class="st0" d="M299.7,340.6c0.7,2.3,2.5,3.4,4.1,3.3"/>
	<path class="st0" d="M298.6,350.2c-5.7-4.5-18-12-24.8,2.2c5.4-3.1,15.6,5.8,21.7,0.3c4.8-4.4,4-1.1-2.6-3.9
		c-5.2-2.2-15.2-2.9-19.1,3.6"/>
	<path class="st0" d="M306.4,356.7c-7.3,9.4-21.8,3.5-26.5,5.4c-0.7,0.3,19.3,1.6,8.6,7.2c-2.7,1.4-7.6,0.3-1.5,1.6
		c1.5,0.3,3.2,0.4,4.9,0.2 M295.6,370.4c4.2-1,8.3-2.9,10.7-5.5c3.4-3.7,3.9-8.8,3.9-8.8"/>
	<path class="st0" d="M362.2,375.9c0-3.5-2.8-6.3-6.3-6.3c-3.5,0-6.3,2.8-6.3,6.3c0,3.5,2.8,6.3,6.3,6.3
		C359.4,382.2,362.2,379.3,362.2,375.9z"/>
	<path class="st0" d="M371.4,374.4c0-2.6-1.5-4.7-4.1-4.7c-2.6,0-4.9,2.9-4.9,5.5c0,2.6,1.5,4,4.2,4
		C369.2,379.2,371.4,377.1,371.4,374.4z"/>
	<path class="st0" d="M372.2,362.6c0-2.6-1.4-4.3-4-4.4c-2.6,0-3.8,1.1-3.9,4.3c-0.2,3.1,1.5,5,4.1,5
		C370.9,367.5,372.2,365.2,372.2,362.6z"/>
	<circle class="st0" cx="363.5" cy="352.8" r="2.8"/>
	<path class="st0" d="M349.5,357.2c0-2.6-2.4-4.1-5-4.1c-2.6,0-4.9,1.4-4.9,4c0,2.6,3,4.1,5.5,4.1
		C347.7,361.2,349.5,359.8,349.5,357.2z"/>
	<path class="st0" d="M356.9,354.1c0-2.5-1.5-4.1-4-4.1c-2.5,0-3.9,2.6-3.8,4.4c0.1,1.7,2,3.2,3.8,3.2
		C354.8,357.7,356.9,356.6,356.9,354.1z"/>
	<path class="st0" d="M342.7,350.6c0-2.1-1.6-3.5-3.6-3.5c-2.1,0-3.8,1.7-3.8,3.8c0,2.1,1.7,3.8,3.8,3.8
		C341.2,354.7,342.7,352.7,342.7,350.6z"/>
	<path class="st0" d="M351.3,349.4c0.6-2.4-1.8-4.6-4.1-4.7c-2.3-0.1-4.4,1.4-4.6,4c-0.2,2.6,2.2,4.8,4.1,4.8
		C348.5,353.4,350.7,351.7,351.3,349.4z"/>
	<ellipse class="st0" cx="333.3" cy="358" rx="3.5" ry="2.3"/>
	<circle class="st0" cx="345.6" cy="340.4" r="4.4"/>
	<path class="st0" d="M341.9,333.1c1.1-0.2,1.2-1.3,1.1-1.9c-0.2-0.7-0.8-1.2-1.9-0.9c-1.1,0.3-1.4,1.3-1.3,1.9
		C340,332.9,340.9,333.3,341.9,333.1z"/>
	<path class="st0" d="M332.4,345c0-1.6-1.5-2.5-3.1-2.5c-1.6,0-2.6,0.9-2.6,2.5c0,1.6,1.3,2.8,2.8,2.8
		C331.1,347.8,332.4,346.5,332.4,345z"/>
	<path class="st0" d="M340.3,338.1c0-3.2-2.7-5.3-5.9-5.3c-3.2,0-5.7,2.1-5.7,5.3c0,3.2,2.6,5.8,5.8,5.8
		C337.7,343.9,340.3,341.3,340.3,338.1z"/>
	<path class="st0" d="M327,335.2c0-1.8-1.3-2.9-3.1-2.9c-1.8,0-3.5,1.1-3.5,2.9c0,1.8,1.5,3.3,3.3,3.3
		C325.5,338.5,327,337,327,335.2z"/>
	<circle class="st0" cx="327.5" cy="327.1" r="3.2"/>
	<path class="st0" d="M324.9,329.7c0-2-1.6-3.2-3.6-3.2c-2,0-3.6,1.2-3.6,3.2s1.2,3.1,3.2,3.1C322.9,332.8,324.9,331.7,324.9,329.7z
		"/>
	<circle class="st0" cx="321.4" cy="324.8" r="1.7"/>
	<circle class="st0" cx="314.8" cy="321.2" r="2.9"/>
	<circle class="st0" cx="316.1" cy="312.7" r="1.7"/>
	<circle class="st0" cx="305.3" cy="309.6" r="1.5"/>
	<path class="st0" d="M364.1,359c-0.3-1.9-0.8-4.2-4.5-4.3c-3.7-0.1-4.1,3.9-2.7,6.2c1.3,2.3,2.4,2.7,4.1,2.6
		C362.7,363.5,364.4,360.9,364.1,359z"/>
	<path class="st0" d="M346.4,364.6c0-2.6-1.8-3.8-4.3-3.8c-2.6,0-3.9,0.9-4,2.9c-0.1,2,2.5,3.4,4,3.5
		C343.6,367.4,346.4,367.2,346.4,364.6z"/>
	<path class="st0" d="M339,372.9c-0.1-1.3-1.4-1.8-2.6-1.7c-1.2,0-2.2,0.4-2.2,1.7s1.1,2.4,2.4,2.4
		C337.9,375.3,339.1,374.2,339,372.9z"/>
	<path class="st0" d="M357.3,363.5c0-2.9-1.6-5.6-4.5-5.6c-2.9,0-5.7,2.8-5.7,5.7c0,2.9,2.6,4.6,5.5,4.6
		C355.6,368.1,357.3,366.4,357.3,363.5z"/>
	<path class="st0" d="M365.7,368c0-2.2-2.5-4.5-4.7-4.5c-2.2,0-3.2,2.3-3.2,4.5c0,2.2,2.1,3.3,4.2,3.3
		C364.2,371.3,365.7,370.2,365.7,368z"/>
	<path class="st0" d="M312.1,353.7c3,7.6,23.7,11.3,30.6,14.6c1.4,0.7,8.3,4.3,8.1,4"/>
	<path class="st0" d="M347.1,370.5c-9.6,2.5-6.7,0.9-15.9-0.9c-1.3-0.3-12.4-4.6-13.3-4.8"/>
	<path class="st0" d="M331.3,369.6c-4.7,2.2-10-3.2-18.4-2.2"/>
	<path class="st0" d="M319.5,345.2c1.9,5.2,10.5,14.1,7.6,17.9"/>
	<path class="st0" d="M327.4,359.4c-3.7-0.3-4.6-4-7.8-6.7c-0.1,0,0,0,0,0.1"/>
	<path class="st0" d="M323.6,361.8c-3.4,2.2-9.5,1.4-15.2,0.1 M302.3,360.2c-5.6-1.3-4.7-1.3-6.3-2.1"/>
	<path class="st0" d="M316.6,363c-1.3-2.6-4.4-3.8-9.7-4.1"/>
	<path class="st0" d="M267.5,288.1c-0.8,3.9-8.2,35.8,13,31.2c3.2-7.8-2.7-11.2-2.7-19.6C277.8,293,270.5,293.2,267.5,288.1z"/>
	<path class="st0" d="M280.5,319.2c-0.3-4.5-6.5-6.2-8.4-14.8c-1-4.4,1.4-9-1.7-11.3"/>
	<path class="st0" d="M272.5,305.8c0.5-4.1,2.6-6.4,2.3-10.2"/>
	<path class="st0" d="M275,311c1.7-2.1,1.1-4.6,0.7-7.9"/>
	<path class="st0" d="M277.5,313.9c1.2-1.4,0.4-2.9,0.6-5"/>
	<path class="st0" d="M272.9,307.1c-2.8-1-5-2.5-5.7-6.1"/>
	<path class="st0" d="M276.8,313.2c-3.1,0.7-8.1-2.8-10-5.7"/>
	<path class="st0" d="M279.9,317c-2.1,0.3-8-0.7-9.8-3.3"/>
	<path class="st0" d="M266,308.8c-3.7-8.1-17.7-6.8-20.8-3.6c1.9,1.1,6.8,3.5,9.9,9.9c2.2,4.6,14.5,11.2,17,3.7"/>
	<path class="st0" d="M245.2,305.2c12.1-3,14.8,14.6,23.8,11.3"/>
	<path class="st0" d="M279.2,306.7c0.2-9,9.7-12.1,14.9-13c10.5-1.7,6.2-1.7,1.6,2c-9.8,7.9-2.3,23.8-11,20.8
		c-1.2-0.4-2.2-1.7-3.3-3"/>
	<path class="st0" d="M281.4,313.5c-1.4-11.9,13.5-19.2,19.2-20.9"/>
	<path class="st0" d="M285.2,302.2c-0.3-2.3,0.8-4.4,2.9-6"/>
	<path class="st0" d="M282.1,307.6c-0.9-2.7-0.3-5.8,1-8.3"/>
	<path class="st0" d="M282.9,305.6c3-0.8,4.6-1.4,6.5-3.9"/>
	<path class="st0" d="M281.6,313.8c1.5-4.4,6.2-4.6,7.4-7.3"/>
	<path class="st0" d="M280.5,319.2c2.7,5.5,11.7,13.8,12.9,18.5"/>
	<path class="st0" d="M283.3,315.6c-2.5,6.5-10.4,30.7,15.2,28.9"/>
	<path class="st0" d="M274.7,319.5c3.4,2.6,5.2,9.1,14.5,14.9c7.7,4.8,10.2,12,10.2,11.9l0-0.5"/>
	<path class="st0" d="M295.4,340c-3.3-1.5-7.7-1.3-13.4-4.6c-1.8-1-10.6-7-14.4-13.2"/>
	<path class="st0" d="M290.8,338.6c-4.5,2-7.3,2.8-12.2,1.2"/>
	<path class="st0" d="M278.4,333c-2.5,3.6-16.4-5.6-19.7-7.1"/>
	<path class="st0" d="M288.6,323.2c1.7-3.6,2.6-7.9,1.1-12.7"/>
	<path class="st0" d="M286.8,185.5c1.4-5.9,4.4-4.5,8-6.1C294.4,183.5,288.2,185.9,286.8,185.5z"/>
	<path class="st0" d="M280.8,186.7c-2-6.5,2.2-6,3.5-10.2C285.7,181.9,282.9,186.5,280.8,186.7z"/>
	<path class="st0" d="M280.8,193.4c3-6.4,7.4-0.5,9.6,2.9C287.6,196.4,281.7,196,280.8,193.4z"/>
	<path class="st0" d="M270.1,191.8c0.4,3.4,4.2,5.6,0.7,8.7C268.3,199.9,268.5,194.6,270.1,191.8z"/>
	<path class="st0" d="M264.7,212.4c0-5,4.3-2.7,7.8-4.9c-0.8,2.6-2.3,4.9-3.6,6.1C265.1,217.3,262.8,213.5,264.7,212.4z"/>
	<path class="st0" d="M269,204.5c3.2,2,7-6,16.3-6.8"/>
	<path class="st0" d="M276.8,200.8c4.3,1.7,7.3-1.4,12.2-1.4"/>
	<path class="st0" d="M266.8,207.3c-2.5,0.2-1.4-12.1-1.4-12.6"/>
	<path class="st0" d="M286.8,185.5c-3.3,1.8-8.8,4.3-11.7,9.9c-1.9,3.6-5.3,8.4-9.9,13.9c-7.4,8.6-8.9,34.8-3.3,48.8"/>
	<path class="st0" d="M280.8,186.7c-1.4,1.2-2.7,2.5-2.6,4.5"/>
	<path class="st0" d="M270.8,200.5c0,0,0,0.6-0.9,2.8"/>
	<path class="st0" d="M261.7,225.4c-0.1-4.7,4-6.4,7.7-5.4c2.5,0.6,6.1-0.5,7.4-1.1C275.7,224.7,263.4,231.5,261.7,225.4z
		 M261.7,225.4c1.4-2,11.2,0.2,15.1-6.5"/>
	<path class="st0" d="M269.5,223.7c1.7,0.8,4.1-0.2,4.6-1.2"/>
	<path class="st0" d="M264.3,224.5c0.9,1.4,2.9,1.5,6.3,0.3"/>
	<path class="st0" d="M266.2,224.2c1.5-2.7,4.1-3.3,6.1-3.3"/>
	<path class="st0" d="M263.5,224.6c0.4-1.7,2-3.6,4.7-3.9"/>
	<path class="st0" d="M251.4,218.2c0,4.1,7.4,6.1,3.7,16.6c-1.7-0.6-7.3-1.6-5.4-9.8C250.2,223.1,249.8,218.7,251.4,218.2
		c-0.2,0.6-1.4,4.9,2.2,10.2c1.5,2.2,1.5,6.4,1.7,6.4"/>
	<path class="st0" d="M254.6,230.7c0.5-0.9,0.4-3.6-0.3-5.2"/>
	<path class="st0" d="M253.1,227.7c0.1-2-0.7-3.7-0.6-5.4"/>
	<path class="st0" d="M250.6,224.8c0.5,2.4,1.2,4.1,3.6,4.8"/>
	<path class="st0" d="M250.5,227.8c0.5,2.4,2.7,4.5,4.5,4.7"/>
	<path class="st0" d="M250.5,242.2c1.9,8.3-6.2,23.2,9.2,25.2c2.1-1.5,2.4-8.8,0.7-12C258,250.8,253.7,243.9,250.5,242.2
		c3.3,5.9,6.6,22.8,9.2,25.2"/>
	<path class="st0" d="M255.7,257.8c0.7-3.5,1.1-4.3-0.1-7.9"/>
	<path class="st0" d="M257.3,262.2c1.5-2,1.8-5,1.3-6.9"/>
	<path class="st0" d="M258,264.3c-2.6-0.9-5.3-1.8-6.2-5.7"/>
	<path class="st0" d="M256.2,258.8c-2.6-0.2-4-4.9-4.9-6.8"/>
	<path class="st0" d="M261.4,259.4c2.8-11.4,18.2,1.2,17.9,8.7c-5.2-5.8-16.8,6.3-18.2-3.8"/>
	<path class="st0" d="M261.4,263.3c3.7,2,15.2-4.1,18,4.8"/>
	<path class="st0" d="M250.1,254.5c-2.4-13.3-13.4-9-14.3-11.9c4.5,6.3,2.1,7.6,7,17.6c1.2,2.5,5.9,4.8,8.2,1.8"/>
	<path class="st0" d="M235.8,242.5c6.5,5.9,10.8,16.7,14.3,16"/>
	<path class="st0" d="M246.4,256.1c-0.8-3.4,0.3-5.6-1.6-8.7"/>
	<path class="st0" d="M245.5,255c-1-0.2-3.7-0.7-4.9-4.5"/>
	<path class="st0" d="M248.3,258c-3.1,2-5.7-1.2-7-3.6"/>
	<path class="st0" d="M262.3,257.1c-0.9-5.5-1.2-8.6,1.9-12.7c2.8-3.7,3.7-12.9,7.2-16.1"/>
	<path class="st0" d="M265.9,230.7c-0.2,3.1-3.2,10.9-1.7,13.7"/>
	<path class="st0" d="M255.2,234.6c0.5,2.3,1.1,5.3,3.2,4.3"/>
	<path class="st0" d="M253.9,239.6c2.7,7.3,4.9,7.1,5.2,7.5"/>
	<path class="st0" d="M273.7,289.2c1-4.1,0.1-18.8,0.1-18.8"/>
	<path class="st0" d="M274.1,280.6c-4.6-2.3-4.4-6.9-5.3-9.4"/>
	<path class="st0" d="M259.7,267.4c4.9,9,7.8,13.2,14,21.9c0.5,0.8,0.7,1.6,0.7,2"/>
	<path class="st0" d="M270.3,284.5c-1.1-0.2-8.7-2-8.3-3.7"/>
	<path class="st0" d="M258.4,267.2c3.1,7-1.4,12.6,0.2,19.8 M259.5,290.9c0.4,1.3,0.6,1.6,1.3,2.9c1.7,3.2,2.9,11.7,2.9,12"/>
	<path class="st0" d="M262.7,299.6c1.5-1,0.5-3.8,0.5-7.1"/>
	<path class="st0" d="M258.3,283.5c-1.5-0.3-2.1-6.8-4.9-9.2"/>
	<path class="st0" d="M246.1,285c5.4,10.2,14.1,12.5,15.9,11.8"/>
	<path class="st0" d="M249.9,282.8c3.4,5.9,3.7,11.2,3.8,11"/>
	<path class="st0" d="M283.2,298.3c-2.6-5-8.1-7.3-14.8-9 M267.3,289c-7.1-1.8-14.3-2.8-19.5-5.1c-20.1-9.1-10.9-18-14.7-34.7
		c0.4,1.4-2.4,28.6-7.8,10c-3.3-11.5-2.3-1-2,4.1c0.8,13.3,5.7,25.8,22,27c7.3,0.5,17.3-1.1,21.8-0.5"/>
	<path class="st0" d="M255.2,290.2c7.6,0.9,5.5,1.5,11.2,3.9"/>
	<path class="st0" d="M385.6,227.8c4.1,0.9,8.7-0.3,12.5-2.8c1.9-1.3,1.1-3.2,1.6-3.2c1.8,4.5,0.2-4.9,1.2-3.7
		c2.5,3.3-0.1-3.6,0.9-2.2c2.2,3.2-0.5-2.2,0.6-2.2c0.1,0.5,0.5,0.7,0.7,1.3c0,0-1.2-7.8-1.2-13.6c0-1.5,0.7-12.6,0.7-12.8
		c0.7-4.5,6.4-1.1,6.6-0.9c4.8,3.2,4.1,2.2,8.3,4.4c4,2,4.9,0.1,3.1-1.2c-3.1-2.2,0.5-1.3,0.8-1.2c3,1.5-0.2-1.6,0.5-1.7
		c5.1-0.6,6.3,0.9,6.3,0.9c-2.4-3.3,4.3,0,6.3-1.1c3.1-1.7-0.9-8.4,2.2-10.7c3.6,3.6,0.2,1.8,7.4,4.9c2.7,1.2,5.4,6.8,5.6,9.8
		c0,0.6,8.4,9.1,10.1,11.7c2.1,3.1,3.7,8.6,4.7,12.5 M464.9,217.6c0.6,1.9,0.4,3,0.2,4.7c3.9,11.1,4.3,22-2.7,26.8
		c-2.1,1.4-2.7,0.3-4.5,0.9c-2.5,0.7-6.4-0.4-8.3-2.1 M459,249.7c-1,1.1-4.3,3.2-12.9,2.9c-8-0.2-16-5.2-20.9-11.1"/>
	<path class="st0" d="M441.7,228.9c1.7-8.1-9.7-9.3-18.4-14.9c4.1,2.8,4.2,5.6,7,9c3.6,4.4,12.4,4.6,12.9,7.3
		c-0.7,1.3-1.5,2.3-3.2,2.4c-2.9,0.1-5.2-4.2-4.7-6.4"/>
	<path class="st0" d="M435.8,229.5c4-0.7,6.4,1.6,5.7,2.9"/>
	<path class="st0" d="M423.2,214c0.8,1.2,3.3,6.1,0.8,4.8c-3.3-1.8,3.6,4,1,3.1c-0.2-0.1-1.3-0.5-1.4-0.6c0.2,2.2,5.6,2.3,0.7,2.3
		c-0.3,1.8,7.6,8.9,12,6.8"/>
	<path class="st0" d="M462.6,221.8c-1.8-4.1,2-6,2.4-6.5c0.3,5.7-4.3,5.5-1.5,8.4l1.6-1.4"/>
	<path class="st0" d="M462.3,218.5c-1.6-5.2,1.1-10-3.8-16.8"/>
	<path class="st0" d="M466.7,239.8c-4.7-1.6-7.9,5.4-2.2,5.1C466.5,244.8,468.8,240.5,466.7,239.8z"/>
	<path class="st0" d="M468,239c4.4-2.3,16.1-6.1,27.5-5"/>
	<path class="st0" d="M467.5,241.9c7.5-1.8,20.6-3.5,28.3-2.2"/>
	<path class="st0" d="M466.2,244.8c9.2-0.4,31.9,3.8,39.5,8.3"/>
	<path class="st0" d="M456.5,240c-12.7,0.2-25.2,6-33.4,11.6"/>
	<path class="st0" d="M454.3,243.4c-9.8,1.6-20.4,7.5-28.8,12.7l-0.2,0.1"/>
	<path class="st0" d="M453.6,246.2c-12.5,4.1-24.3,16-33.5,25.2"/>
	<path class="st0" d="M445,237.6c-3.7-1.5-9.8,1.4-3.7,2.8C445.8,241.4,450.5,239.8,445,237.6z"/>
	<path class="st0" d="M407.7,190.6c-3.4-2.6-3.4,3.1-3.2,4.8c0.8,5,5.7,5.4,3.6,16.1"/>
	<path class="st0" d="M408.7,191.8c0.2,0.6,0.5,1.1,0.2,2.2"/>
	<path class="st0" d="M410.3,192.5c0.2,0.4,0.6,1.9,0,2.5"/>
	<path class="st0" d="M412,193.5c0.7,1.3,0.8,2,0.2,3.4"/>
	<path class="st0" d="M414.1,194.5c1.4,1.3,1.3,2.6-0.2,3.7"/>
	<path class="st0" d="M417.5,192c3,2.3-2.5,3.4,9.1,10.4c9.5,5.7,10.3,8.8,16.5,16.6c3.4,4.3,14.8,16.6,16.5,20.5c0,0,1.7,2,1.9,2.3
		l0.2,0"/>
	<path class="st0" d="M423.2,191.8c0.1,0,2.4,1.6,2.7,1.7"/>
	<path class="st0" d="M428.4,195.7c0,0,2.1,2,2.1,2"/>
	<path class="st0" d="M433,200.2c1.4,1.1,1.7,1.4,2.7,2.5"/>
	<path class="st0" d="M438.2,205.2c0.9,1,1.9,2,2.7,3.1"/>
	<path class="st0" d="M442.7,211.1c0.2,0.3,2,1.9,2.2,2.7"/>
	<path class="st0" d="M447.6,215.2c0,0,1.4,2.4,1.8,2.8"/>
	<path class="st0" d="M451.1,220.9c0,0,2.1,2.8,2.2,3.1"/>
	<path class="st0" d="M456.9,226.6c1.8,2.2,1.1,1.4,2.1,3"/>
	<path class="st0" d="M460.6,231.4c0.3,0.4,1.8,2.1,2,2.9"/>
	<path class="st0" d="M463.4,236.6c0.5,0.6,1.7,2,1.7,3"/>
	<path class="st0" d="M426.5,189.2c0,0,3.3,2.4,3.4,2.9"/>
	<path class="st0" d="M432.5,194c0,0,2.4,1.9,2.5,2.3"/>
	<path class="st0" d="M438,199.3c1,0.9,1.7,1.4,2.5,2.3"/>
	<path class="st0" d="M442.9,203.5c1.9,1.5,1.8,1.6,3.2,2.9"/>
	<path class="st0" d="M448,209.5c0,0,2.5,2.8,2.6,3"/>
	<path class="st0" d="M451.9,214.6c1.8,2,1.4,1.9,2.4,3.1"/>
	<path class="st0" d="M455.7,219.7c0.1,0.2,1.1,2.3,1.5,2.7"/>
	<path class="st0" d="M459,223.4c0.3,0.6,1.2,2.6,1.7,3.3"/>
	<path class="st0" d="M463.1,228.9c0.6,1.2,0.9,1.7,1.1,2.7"/>
	<path class="st0" d="M465.4,232.7c0.3,0.5,1.6,2.3,1.6,3.2"/>
	<path class="st0" d="M435.4,188.8c0,0,2.4,2.1,2.4,2.6"/>
	<path class="st0" d="M438.7,193.4c1.2,0.9,1.7,1.2,2.6,2.1"/>
	<path class="st0" d="M443.4,198.4c1,0.9,1.4,1.5,2.1,2.1"/>
	<path class="st0" d="M447.3,202.3c0.3,0.3,1.7,1.9,2.1,2.6"/>
	<path class="st0" d="M450.8,207.6c0.9,1,1.3,1.5,2,2.3"/>
	<path class="st0" d="M454.5,211.6c0.4,0.6,1,1.8,1.5,2.4"/>
	<path class="st0" d="M457.5,216.3c0,0,2.1,2.4,2.1,2.7"/>
	<path class="st0" d="M459.7,221.1c0.5,0.4,2.5,2.7,3,4.7"/>
	<path class="st0" d="M436.5,186.9c4.3,0.1,5.4,0.1,7.7,4.2"/>
	<path class="st0" d="M446.3,193.5c0,0,2,2,2.1,2"/>
	<path class="st0" d="M450.5,198.3c0,0,1.6,2.3,1.6,2.4"/>
	<path class="st0" d="M454.2,203.4c0,0,1.3,3.1,1.5,3.1"/>
	<path class="st0" d="M456.8,209c0,0,2,3.6,2.2,3.7"/>
	<path class="st0" d="M420.5,192.8c0.3,0.2,1.6,1.7,2.2,1.9"/>
	<path class="st0" d="M424.2,197.2c0,0,2.8,2.4,2.8,2.4"/>
	<path class="st0" d="M430.4,201.8c0.1,0.1,2.2,2.2,2.6,2.5"/>
	<path class="st0" d="M435.7,206.7c1.2,1.4,1.4,1.6,2.4,2.9"/>
	<path class="st0" d="M441.3,212.3c0,0,2,2.7,2,2.9"/>
	<path class="st0" d="M446,217.6c0.1,0.1,1.5,2.6,2,3.1"/>
	<path class="st0" d="M449.6,222.6c0,0,2.1,2.6,2.2,3.1"/>
	<path class="st0" d="M453.2,227.5c1.1,1.2,2.2,3.1,2.6,3.5"/>
	<path class="st0" d="M458.4,233.1c0,0,1.2,1.7,1.2,2.1"/>
	<path class="st0" d="M461.1,237c0.1,0.1,2.2,2.6,2.1,3.3"/>
	<path class="st0" d="M453.7,251.5c-0.1,6.4,6.5,15.6,9.8,23.1 M464.3,276.7c2,4.7,2,6.9-1.4,8.7c-2.1,1.1-4,0.8-7.6-1.5 M453,282.4
		c-6.3-4-12.4-10.5-12.7-12.3"/>
	<path class="st0" d="M455.3,283.8c0-8.6,5.1,2.5,4.2-1.8c-1.3-6.7,1.4-3.4,2.9-1c0.8,1.3,1.2,1.9,0.6-0.3c-0.3-1-1.2-6.9,1.3-4"/>
	<path class="st0" d="M449.5,252.6c-5.6,6.1-2.7,12.6-6.7,10.6c-2.1-1,2.6,3.9-1.3,2.3c0,0.1,0.3,5.3,0.3,5.5c-1-0.2-1-0.7-1.6-1.8
		c0.6,3.8,1.9,11.3,0.2,18.1"/>
	<path class="st0" d="M441.5,265.6c0.3-4-5.1-12.1-7.7-8.3c-1.4,2-3.7-3-9,1.9c-2.2,2.1-4.3,4.5-2.8,8.4"/>
	<path class="st0" d="M450.8,252.5c0.5,2.6,0.6,2.7,1,4.2"/>
	<path class="st0" d="M453.4,260.8c0,0.2,1.1,2.7,1.9,3.6"/>
	<path class="st0" d="M456.4,267c0,0,2.1,2.9,2.1,3"/>
	<path class="st0" d="M459.6,272.4c0,0,2.2,2.7,2.5,3.1"/>
	<path class="st0" d="M447.5,255.3c0,0,1.6,4,1.6,4.1"/>
	<path class="st0" d="M451.1,263.4c0,0,1.6,2.8,2.4,3.6"/>
	<line class="st0" x1="454.2" y1="270.3" x2="456.8" y2="273.5"/>
	<line class="st0" x1="458.2" y1="275.9" x2="459.8" y2="277.4"/>
	<path class="st0" d="M446.1,258.8c0,0,0.9,3.4,1.3,3.7"/>
	<path class="st0" d="M448.6,264.6c0.2,0.3,2.2,3.7,2.7,4"/>
	<line class="st0" x1="451.9" y1="272.5" x2="455.2" y2="275.8"/>
	<path class="st0" d="M444.9,263c0.3,1.9,1.9,2.8,2.6,4.3"/>
	<path class="st0" d="M448.1,269.2c0.1,0.1,1.7,2.3,2.2,3.1"/>
	<path class="st0" d="M481.6,260.3c-0.3-0.5-0.5-0.9-0.7-1.4c-0.9-1.9-1.5-3.8-1.7-5.6c3-0.8,5.7,0.8,5.3,5.6c0,0.5-0.3,1.3-0.3,1.6
		"/>
	<path class="st0" d="M479.2,253.3c3.9,1.4,3.5,4,3.4,6.1"/>
	<path class="st0" d="M484.5,258.3c-0.1-5.6,8.7,0.1,8,0.6c-0.9,0.6-2,3.7-6.3,2.8c-0.2,0,0.3-6.4,6.3-2.8"/>
	<path class="st0" d="M490.6,260.8c8.4-2.2,10.3,8.8,7.6,7.1c-2.1-1.3-7.8-4.1-11.4-3.7"/>
	<path class="st0" d="M499.3,267.3c-1.8-5-6.6-5.5-11.5-5.5"/>
	<path class="st0" d="M486.5,265.2c4.4-0.9,11.3,4.2,9.4,9c-0.3,0.7-1.9,0.5-2.9-0.9c-2-3.1-5.9-4-7.5-7 M486.1,265.8
		c2.8-0.1,8.3,4.1,9.9,8.4"/>
	<path class="st0" d="M491.7,271.7c2,3.8-5.3,9.5-5,5.3c0.2-3.2,0-9-3.8-10"/>
	<path class="st0" d="M484.7,266.7c3.4,3.1,5.8,7.6,4.4,10.2"/>
	<path class="st0" d="M482.9,267c3.3,2.3-0.7,2.4,0.7,8.2c0.7,2.9-3.4,5.5-3.9,4.9c-0.6-5,3.1-9.3,2.1-13.1 M480.8,267
		c-2,1.3-4.2,6.1-4.1,11c0,1.6,1.9,2.6,3,2.2"/>
	<path class="st0" d="M479.1,266.1c-0.9,2.4-5,8.6-7.8,6.7c-1.3-0.9,0.2-0.7-1.5-1.5c-2.1-0.9-1.3-4.1,1.3-5.2
		c0.8-0.3,3.5-1.3,7-1.2 M478.6,265.6c-4.9,1.3-8.8,6.3-8.2,6"/>
	<path class="st0" d="M478,264.6c-3.4-0.8-3.6-1.6-8.4,0.2c-4.5,1.6-5.7,0.6-7.1,0.4c0.3-2.4,6.2-7.4,10.3-6.3
		c3.8,1.1,4.3,3,4.9,4.8c-4.4-3.3-12.2-2.5-15.3,1.5"/>
	<path class="st0" d="M480,260.7c2-6.9-10.5-10-15.5-2.4c1.3,0.9,3.2,1.4,3.9,1"/>
	<path class="st0" d="M464.5,258.4c14.6-6.6,13.3,5.3,13.3,5.2c0.7-2.3,2.2-3.2,4.2-3.2c1.9,0,4.4,0.5,4.7,2.6
		c0.5,3.1-1.7,4.1-4.8,4.2c-3.4,0.1-4.4-3-4.1-3.5"/>
	<path class="st0" d="M445,292.6c7.8,12.1,1.2,21.6-0.7,12.3c-0.3-1.6,4.8,14.8,0,5.9c-1.2-2.2,2.1,9-2.9,2c0,0,1.7,3-4.1,5.9
		c-11.9,5.9,3.8-4.6,10.2,8.8c0.4,0.8,0.4,1.6-0.5,2"/>
	<path class="st0" d="M442.5,326.5c6.6,2.1,4.7,5.5,2.9,5.5c-3,0-4.1-3.2-4.7-3.3c0.5,0.9,1.1,1.4,0.7,1.8c-0.5,0.5-1.2,0.5-2.1,0.4
		c-1.2-0.1-2.7-0.6-2.7-2.5c0,0,0.6,2.8-3.6,0.5c-1-0.5-2.7-1.2-5.6-2.3 M425.4,325.8c-3.7-1.4-6.7-2.5-9.2-3.5
		c-0.6-0.2-2.7-0.8-2.6-1.7"/>
	<path class="st0" d="M422.4,298.7c0,0.8-0.9,22.2-3,12.1c0,0-0.5,11.3-2.3,5c-1-3.3,1.4,3.6-6.3,6.3c-21.3,7.5,12.3,7.3,8,18.5
		c-0.1,0.4-3,0.2-1,0.2"/>
	<path class="st0" d="M385.8,228c-8.5-2.2-23.1,2.3-28.2,8.6c1.1-0.1,1.7-0.3,3.1,0c-2.3,0.9-17.9,14.4-18.8,23.7
		c1.8-1.5,3.6-1.7,3.4-1.4c-7.6,12.7,3.9,40.6,4.2,35.7c0.5-7.3,5.7,18,8.1,10c0.5-1.7,5.3,7,3.8,1.3c-0.7-2.7,4.8,6.8,4.5,3.3
		c-0.1-1.3,4.8,5.3,4.9,2.4c4.4,3.4,4.4,14.1,10.3,19c4.4,3.5,35,17.2,33.1,10.5 M409.8,339.3c2-1.3,4.4,3.6,7.4,1.6
		c-0.6-4.1-2.2-3.1-3.5-3.9"/>
	<path class="st0" d="M398.1,225c-3.7,10.3-24.8,1.4-34.2,11.9c-3.9,4.3-1.5,0.5,1.2,1.2c-0.6,0.6-4,2.2-6.4,4.8
		c-1.5,1.7-1.6,1.2,1.6,0.1c1-0.4,2.7-1.3,3.7-1.7c0,0-2.4,1.4-2.7,2.7"/>
	<path class="st0" d="M395.6,228.3c-5.7,7.9-18.7,8.2-29.5,13.1c-16.1,7.3-18.8,18.5-22.9,23.5"/>
	<path class="st0" d="M394.2,229.9c-2.9,9.6-10.6,14-17.7,16.1c-7.9,2.3-14.6,1.1-20.5,9.4c-3.8,5.3-0.7,1.9,0.4,3.1
		c-2.8,2.1-9.1,16.1-6.4,13c0.4-0.4-1.5,2.1-1.4,5.4c0,1.4-0.1,1.9,0.8,0.4c0.5-0.9,1.5-2.2,0.7,0.2c-1.1,3.2-0.3,9.7,0,12
		c0-16.2,7.5-27.2,21.5-34.2c3.7-1.9,18.6-12.8,18.3-17.1"/>
	<path class="st0" d="M351.2,252.6c-5,11-4.7,7.7-1.6,6.6c1.1-0.4-4.2,10.3,0.6,3.7c0-0.1-4.5,11.9-0.1,3.5c-0.4,2-0.4,2.4-0.3,3.3"
		/>
	<path class="st0" d="M352.6,274.6c-0.3,3.6,2.8,16.5,4.6,10c0.1-0.4,0.7,7.7,3.1,4.7c2.5,1.1-3,3.7,2.1,1.6c-0.1,0.8,1,8.7,2.2,5.1
		c1.1-3.3,0.1,9.7,4.5,7.1c4.5-2.6,0.6,6.3,8,6.1c3.2-0.1-3.5,2.3,3.3,5.3c2.2,1-1.6,3.8,10.2,4.8c2.7,0.2-7.4,2.2-1.3,3.4
		c0.6,0.1-4.4-0.1-0.6,2.4c2.9,1.9-6.5,0.1,3.9,4c0.3,0.1-6.3,1.8,0.1,3.9c0.9,0.3,0.1,1-2.8,0.5c1.6,1.2,1,1.1,1.5,2.4"/>
	<path class="st0" d="M364.4,308.8c0.2,2.8,0.4,3.4,1.4,5.3"/>
	<path class="st0" d="M359.9,306.1c-0.1,2,1.8,7,3.8,8.3"/>
	<path class="st0" d="M351.7,296.8c-2.1,6.5,6.3,18.1,9.7,17.8"/>
	<path class="st0" d="M346.7,290.5c-4.1,12,7.8,24.4,11.5,24.3"/>
	<path class="st0" d="M344.6,284.5c-12.2,9.9-2.2,21.7,4.1,26"/>
	<path class="st0" d="M344.4,283c-7.3-0.3-12.1,9.6-12.1,12.2"/>
	<path class="st0" d="M385.6,227.8c-2.2-8.4,0.5-17.9-24.1-31c-20.2-10.7-49.8,5.1-60.1,22.9c-0.3,0.5,4.3-2.7,4.9-2.1
		c0.1,0.1-8.3,11.1-5.8,23.3c0.3-3.2,0.9-2.5,2.4-5.3c1.8-3.4-4.7,16.7-0.7,27c0.9,2.2,0.8-7.8,3.3,0.5c1.4,4.8,21.2,19.1,10.4,24
		c-6.4,2.9-13.3-3.7-6.5,2.5c4.9,4.5,17,5.3,20.4,0.9"/>
	<path class="st0" d="M316,249.6c8.2-7.5,12.7,10.7,11.8,21c-0.8,9.4-0.5,19.1,5.6,26.1c-12-2.6,3.8,5.6,7.8,9.7
		c-1.9,0.2-1.6,0.5-4.1,0.5c1.2,1.6,13.1,3.6,11.4,3.7c-1.6,0.1-1.3,5.1,11.2,4.1c5.5-0.5,7.4-0.8,13-0.8"/>
	<path class="st0" d="M383.7,218.2c-1.8,1.4-2.5,7.1-1.6,9.3"/>
	<path class="st0" d="M379.4,227.5c-1.6-5-0.1-9,3.1-12.3"/>
	<path class="st0" d="M381.4,213c-4.2,2.5-5.8,8.4-4.5,14.7"/>
	<path class="st0" d="M380.1,211.1c-5,2-7.1,12.1-5.7,17"/>
	<path class="st0" d="M378.7,209.3c-6.3,3.6-8.1,14.5-6.5,19.3"/>
	<path class="st0" d="M376.3,206.8c-5.5,4.5-8.1,14.9-7.2,22.7"/>
	<path class="st0" d="M373.7,204.6c-4.1,4.8-10.6,16-8.5,26.5"/>
	<path class="st0" d="M371.2,202.7c-8,6.6-11.3,20.6-9.2,30.2"/>
	<path class="st0" d="M329.2,289.2c1.2-1,4.1-0.8,5.5,0.4"/>
	<path class="st0" d="M328.3,285.9c2.8-1.1,6-0.5,7.4,1.9"/>
	<path class="st0" d="M327.8,282.4c1.9-0.3,7.3,0.2,9,4.2"/>
	<path class="st0" d="M327.6,279.3c3.3-0.4,9,2,10.2,6.3"/>
	<path class="st0" d="M327.6,276.3c4.2-0.6,10.3,1.8,11.8,8.2"/>
	<path class="st0" d="M342.1,283.2c-1.4-5.7-7.6-10.4-14.4-9.9 M327.9,271.1c4.6-0.9,12.9,2.7,16.1,9.9"/>
	<path class="st0" d="M328,268.1c4.2-0.3,12,2.4,15.1,8.1"/>
	<path class="st0" d="M328.7,287.4c0,0-3.2,1.9-1.8,5.1"/>
	<path class="st0" d="M327.9,283.5c-1,0.6-5.9,3.2-3.7,9.8"/>
	<path class="st0" d="M327.6,277.6c-5.3,2.5-9.9,9.3-7.1,15.8"/>
	<path class="st0" d="M315,287.5c-0.5,1.5-0.2,4.3,0.3,5.2"/>
	<path class="st0" d="M305.4,263.1c2.7-1.9,4.6,1.6,2.3,3.4"/>
	<path class="st0" d="M304.7,261c4-2.6,8.9,1.9,4.4,7.1"/>
	<path class="st0" d="M301.3,259.3c3.8-5.8,19.1,1,9.3,10.4"/>
	<path class="st0" d="M300.9,255.9c1.8-1.5,11.1-2.9,14.7,3.9c2,3.8,0.4,9-3,12.1"/>
	<path class="st0" d="M300.9,253.3c6.2-2.5,14.8-0.7,17.9,5.8c2.2,4.6,2.5,12.5-3.7,15.7"/>
	<path class="st0" d="M301,250.6c8.3-2.4,16.8,0.9,20.4,6.7c3.7,5.8,3.5,16.7-4.8,19.6"/>
	<path class="st0" d="M301.3,247c2.7-0.3,8.4-1.2,15.9,3.2c10.5,6.2,13.3,21.2,1,29.3"/>
	<path class="st0" d="M339.2,271.9c0.4-1.8,2.3-2.3,3.5-2.4"/>
	<path class="st0" d="M332.6,268.6c1.7-4.4,6.5-6.4,10.7-4.8"/>
	<path class="st0" d="M327.5,261.8c3-4.6,10.4-7.9,16.3-7.1"/>
	<path class="st0" d="M325.5,253.9c5.2-6.7,16.7-9.3,23-6"/>
	<path class="st0" d="M322.5,249c7.7-8.3,17-10.5,29.5-4.9"/>
	<path class="st0" d="M349.4,243.1c0.4-1.6,4.5-3.7,7.5-3.7"/>
	<path class="st0" d="M345.8,241.9c3.3-3.2,6.1-4.4,11.8-5.3"/>
	<path class="st0" d="M343.1,241.3c4.5-5.6,13.1-7.5,17.2-7.3"/>
	<path class="st0" d="M339.5,241c6.7-6.1,14.4-10,22.3-9"/>
	<path class="st0" d="M361.5,230c-10.5-1.9-23.7,6.9-25.3,11.2 M329.5,243.4c1.9-9.5,19.6-21.6,31.9-17.9"/>
	<path class="st0" d="M333.1,241.9c2.1-8.1,18.7-16.7,28.3-14.2"/>
	<path class="st0" d="M325.5,246.1c2.8-18.4,29.6-26.9,36.1-23.8"/>
	<path class="st0" d="M356,221.8c-0.3-3.8,3-6.6,6.8-5.2"/>
	<path class="st0" d="M352.6,222.4c-0.1-6.3,6.3-10.6,11.2-8.6"/>
	<path class="st0" d="M349.5,223.2c-0.4-9.4,7.6-15.2,15.4-12.2"/>
	<path class="st0" d="M346.9,224.1c-1.1-12.5,10.1-20,19.4-15.6"/>
	<path class="st0" d="M344.1,225.2c-2.9-16,14.3-24.6,23.5-18.7"/>
	<path class="st0" d="M353.1,193.9c1.8,4.3,7.7,6.2,13.2,5.6"/>
	<path class="st0" d="M347.8,193.3c1.2,6.3,13.6,12,22.5,8.8"/>
	<path class="st0" d="M342.6,193.5c3.7,6.7,6.9,10,12.9,12.1"/>
	<path class="st0" d="M339,194c-0.4,1.5-0.1,3.3,0.8,4.7"/>
	<path class="st0" d="M316.5,249.2c-1.1-9.5,6.4-13.5,10.3-7.9"/>
	<path class="st0" d="M309.6,247.2c-0.6-9.7,9.2-19.9,20-10.7"/>
	<path class="st0" d="M301.8,243.9c5.5-18.6,24.3-23,32.6-12.6"/>
	<path class="st0" d="M325.3,226c5.1-7.6,13.7-5.3,16.9,0.1"/>
	<path class="st0" d="M320.1,223.9c5.1-6.4,13.3-13.4,23.8-3.7"/>
	<path class="st0" d="M319.9,217.4c7.5-8.4,16.2-10.2,25.8-3.5"/>
	<path class="st0" d="M317.9,212.1c8-9.3,18.9-12.2,30.1-1.6"/>
	<path class="st0" d="M326.1,198.3c15.6-3.4,20.4,4.2,24.1,10.3"/>
	<path class="st0" d="M300.6,230.3c2.4,0,5.3,1.6,5.1,5.1"/>
	<path class="st0" d="M301.2,228.3c3.7-0.5,6.2,1.9,5.8,5.6"/>
	<path class="st0" d="M301.9,226c3.5-0.6,6.8,2.5,6.5,6.2"/>
	<path class="st0" d="M303.7,221.8c2.7,0.8,5.9,3.5,6.1,9.1"/>
	<path class="st0" d="M305.8,218.3c3.4,1.5,5.6,4.8,5.8,11.2"/>
	<path class="st0" d="M306.4,212.8c6.9,4.2,7.3,10.2,7.1,15.5"/>
	<path class="st0" d="M308.5,210.6c8,4.9,7.8,10.4,8.5,16.2"/>
	<path class="st0" d="M312.9,206.6c5.8,4.4,8.5,10.6,6.8,19.5"/>
	<path class="st0" d="M451.3,291.2c0.1-4.7,11.1,0.1,9.3,0.2c-6.3,0.4-0.7,0.8,0.2,1.1c4.7,1.3-4.6-0.1,1.9,2.6c0,0-1.2-0.1-1.4,0
		c0,0.3,1.6,1.1,2.8,2.5c1.2,1.3,1.9,3.3,2.2,3.8c-3,0.4-9-5.6-8.5-4.5c0,0.1,1,3.3-0.8,0.9c-1.4-1.9-0.1,1.4-1.5-1.3
		c-0.4-0.7-0.1,3.5-1.6-0.7c-0.4-1,0.5,1.5-1.5,1.9C450.6,296.1,447.2,289.3,451.3,291.2c3.5,1.6,2.3,0.8,6.1,3.6
		c3.7,2.6,5.1,4.4,9,6.5"/>
	<path class="st0" d="M445.2,290.2c-2.1-3.2-7.8-2.8-11.1-5.9c-6.4-6-21.9-31.9-23.9-40c-2.8-10.9-13.5-16.5-20.3-1.6
		c-7.9,17.2,2.7,39.1,16.8,49.6c8.1,6,17.5,8,26.9,6.5c1.9-0.3,3.7-0.1,5.6-0.8c3.2-1.1,5.5-1.1,1.6-2.7c-3.6-1.5-3.7-0.6,1.2-1
		c1.7-0.1,1.3-1.2,0.3-2.1c-1.6-1.2-4.5-2-1.5-1.3C443,291.6,443.3,291.6,445.2,290.2z"/>
	<path class="st0" d="M395.9,238c0.1,0.6,0.8,4.1,1.2,4.4"/>
	<path class="st0" d="M398.4,245.9c0.2,0.6,0.8,3.5,1.5,4.3"/>
	<path class="st0" d="M401.9,254.5c0.2,0.4,1.8,3.1,2,4"/>
	<path class="st0" d="M405.7,261.8c0.3,0.5,1.9,2.8,2.5,3.4"/>
	<path class="st0" d="M410,268.1c0.8,1,1.5,1.9,2.3,2.6"/>
	<path class="st0" d="M415.1,274.3c0.6,0.6,1.7,1.9,2.5,2.5"/>
	<path class="st0" d="M420.5,280.2c0.2,0.1,2.2,2.6,2.8,2.7"/>
	<path class="st0" d="M426.2,284.6c1.1,0.8,2.1,1.6,3.3,2.2"/>
	<path class="st0" d="M431.9,287.7c0.3,0.1,3.3,1.5,3.9,1.5"/>
	<path class="st0" d="M399.8,236.4c0.2,1.8,0.4,3.4,0.8,5.1"/>
	<path class="st0" d="M402.2,245.1c0,0,1.2,3.7,1.2,4"/>
	<path class="st0" d="M405.5,252.5c0,0.1,1.4,2.8,1.6,3.5"/>
	<path class="st0" d="M409.1,258.7c0.5,0.8,1.7,2.5,2.2,3.5"/>
	<path class="st0" d="M418,272c0,0,2.5,3.4,2.5,3.5"/>
	<path class="st0" d="M427,281.4c0,0,2.9,2.2,3.1,2.6"/>
	<path class="st0" d="M432.7,286.2c0.2,0.1,2.9,1.3,3.3,1.4"/>
	<path class="st0" d="M413.2,265c0,0,2.9,3.1,2.2,2.6"/>
	<path class="st0" d="M404.2,238.1c0,0.1,1.7,4.5,1.9,4.7"/>
	<path class="st0" d="M408.1,246.1c0.6,1.6,1,2.8,1.6,4.2"/>
	<path class="st0" d="M411.4,253.9c0.1,0.3,1.3,2.4,1.4,3"/>
	<path class="st0" d="M414.4,260.1c0,0,1.2,2.4,1.3,2.8"/>
	<path class="st0" d="M417.3,265.6c0.8,1.5,0.9,1.7,1.8,2.9"/>
	<path class="st0" d="M421.4,271.9c0.9,1.3,1.3,2,2.2,3.1"/>
	<path class="st0" d="M425.4,277.3c0,0,2.6,2.7,2.8,2.7"/>
	<path class="st0" d="M430.7,282.4c2,1.9,1.8,0.7,3.4,1.9"/>
	<path class="st0" d="M392.3,241.6c0,0,1.3,4.9,1.6,5"/>
	<path class="st0" d="M395.3,250.9c0.1,0.1,1.8,3.8,1.9,4.7"/>
	<path class="st0" d="M399,260c0,0,2.3,3.6,2.5,4"/>
	<path class="st0" d="M404,266.8c0.4,0.5,1.8,2.1,2.2,2.9"/>
	<path class="st0" d="M408.9,273c0,0,2.3,2.5,2.8,2.8"/>
	<path class="st0" d="M414.8,278c1.9,2.3,2.2,2,3.3,3.2"/>
	<path class="st0" d="M420.7,283.9c0.9,0.6,1.7,1.1,2.4,1.9"/>
	<path class="st0" d="M426.1,287.5c0.3,0.1,2.4,1.2,2.9,1.6"/>
	<path class="st0" d="M433.4,289.9c0,0,2.2,0.8,2.4,0.8"/>
	<path class="st0" d="M393.8,258.7c0,0.1,2.1,3.8,2.4,4.7"/>
	<path class="st0" d="M390.2,247.3c0.4,1.3,1.3,4.2,1.6,5.2"/>
	<path class="st0" d="M399.5,268.9c0,0,2.6,3.9,2.8,4"/>
	<path class="st0" d="M404.6,275.9c0.5,0.6,2.7,3.4,3.8,4.1"/>
	<path class="st0" d="M412.1,282.7c0.6,0.5,2.4,2,3.3,2.6"/>
	<path class="st0" d="M418.5,286.5c2,1,2.5,1.2,4.2,2.3"/>
	<path class="st0" d="M425.4,289.5c0.1,0,3.5,1.3,4.1,1.4"/>
	<path class="st0" d="M432.4,291.7c0,0,4.3,1.5,3.6,1"/>
	<path class="st0" d="M387.6,250c0.2,1.2,2.7,7.7,2.8,7.4"/>
	<path class="st0" d="M392,261.3c0,0.1,1.7,3.3,1.9,4"/>
	<path class="st0" d="M396.8,271.3c0,0,2.9,4.7,3,4.7"/>
	<path class="st0" d="M403.4,280.1c1,1,2.2,2.1,3.3,3"/>
	<path class="st0" d="M410.4,285.6c2.1,1.5,1.7,1.2,3.1,2.1"/>
	<path class="st0" d="M416.7,289.3c1,0.4,3,1.3,4.1,1.6"/>
	<path class="st0" d="M423.2,292c1.8,0.3,2.3,0.4,3.8,0.8"/>
	<path class="st0" d="M429.3,293.1c0.8,0.1,3,0.6,4,0.6"/>
	<path class="st0" d="M388.9,263.2c1.4,1.8,1.4,2.5,3,3.7"/>
	<path class="st0" d="M393.4,270.4c0.2,0.4,2.3,3,2.5,3.9"/>
	<path class="st0" d="M398.6,277.8c2.2,3.1,1.7,1.9,2.7,3.2"/>
	<path class="st0" d="M403.4,282.9c0.9,0.7,3.6,3.8,4.9,3.8"/>
	<path class="st0" d="M410,287.5c0,0,3.3,2.1,3.7,2.1"/>
	<path class="st0" d="M416.5,291.1c0.4,0.2,2.8,1.2,3.4,1.8"/>
	<path class="st0" d="M423.2,293.8c0,0,3.9,1.3,4.1,1.3"/>
	<path class="st0" d="M431.1,295.5c0,0,3.6,0.4,3.6,0.5"/>
	<path class="st0" d="M393.8,274.8c0,0,3.3,4.3,4.1,4.9"/>
	<path class="st0" d="M400.3,282.9c0,0,2.5,2.1,2.6,2.5"/>
	<path class="st0" d="M405.3,287.1c0.9,0.7,1.9,1.4,2.8,2.1"/>
	<path class="st0" d="M410.8,290.9c0.9,0.5,2.1,1.2,3.1,1.7"/>
	<path class="st0" d="M416.7,294.1c0.9,0.3,2.9,1.2,4,1.3"/>
	<path class="st0" d="M424.1,296.2c0.2,0,2.2,0.1,2.7,0.3"/>
	<path class="st0" d="M430.7,297.2c0,0,3.5,0,3.6,0.1"/>
	<path class="st0" d="M433.5,298.9c2-0.5,3.8-1.4,2.8-3.2c1.3-1.6,2.2-3.3,1-5.3c1.8-1,1.8-2.3,0.5-3.9"/>
	<line class="st0" x1="443" y1="264.9" x2="444.9" y2="268.4"/>
	<path class="st0" d="M446.6,270.9c0,0,1.8,2.7,2.6,3.5"/>
	<path class="st0" d="M450.7,274.3c1.2,1.4,1.7,2.1,2.5,2.8"/>
	<line class="st0" x1="456.2" y1="277.1" x2="457.8" y2="278.7"/>
	<path class="st0" d="M444.6,289.4c7.4-6.7,23.6-18.5,24.5-18.5"/>
	<path class="st0" d="M442.2,296.1c2-3.5,6.9-7.3,13.1-12.3 M458,281.6c0.8-0.6,0.5-0.4,1.2-1 M461.1,279.2c0.7-0.6,0.8-0.7,1.5-1.2
		 M464.3,276.7c3.2-2.4,5-3.6,6.6-4.1"/>
	<path class="st0" d="M441.4,297.3c-3.2,3.7-16.3,29.5-18.1,45.1c-0.9,8.1-4.6,15-2.1-1.1c1.8-11.6,12.4-38.5,16.6-42.9"/>
	<path class="st0" d="M458.6,369.9c0.6-0.8,0.9-1.8,0.9-2.8c0-2.6-2.1-4.7-4.7-4.7c-2.6,0-4.7,2.1-4.7,4.7c0,2.6,2.1,4.7,4.7,4.7"/>
	<circle class="st0" cx="434.1" cy="363.4" r="2.9"/>
	<circle class="st0" cx="439.4" cy="370.3" r="4.4"/>
	<path class="st0" d="M449.9,375.7c0-2.2-1.8-4-3.9-4c-2.2,0-3.9,1.8-3.9,4c0,2.2,1.2,4.8,3.4,4.8
		C447.6,380.5,449.9,377.9,449.9,375.7z"/>
	<path class="st0" d="M442.4,378.7c0-2.3-1.8-4.2-4-4.2c-2.3,0-3.3,1.1-3.3,3.4c0,2.3,1.8,4.1,4.1,4.1
		C441.3,382,442.4,381,442.4,378.7z"/>
	<circle class="st0" cx="464.9" cy="370.2" r="2.3"/>
	<path class="st0" d="M448.2,352.1c0-1.9-1.6-3.5-3.5-3.5c-1.9,0-3.5,1.6-3.5,3.5c0,1.9,1.2,3.4,3.1,3.4
		C446.2,355.5,448.2,354,448.2,352.1z"/>
	<path class="st0" d="M504.1,329.8c-15.5,19.8-30.3,27.8-44.8,38.9"/>
	<path class="st0" d="M479.6,353.9c-0.5-6.5,7.7-11.3,10.3-20.4 M485,342.6c-0.7-4,0.2-6.7,1.8-9.8c-0.7-1.3-1-5.8,1-7.5"/>
	<path class="st0" d="M490.9,344.3c-1.2-1.4-1.7-5.8,0.1-10c-1.5,4.8-3.6,7.1-6,8.4 M492.8,342.5c-0.7-2.6-0.7-5.2,0.9-7.8"/>
	<path class="st0" d="M489.2,345.9c2.7-0.4,12.4-8.1,17.7-14.2"/>
	<path class="st0" d="M501.1,344.9c4.6-1.8,14.1-7.2,17.4-12.2 M506.7,342.2c-0.6-0.9,3.6-5.7,7-8"/>
	<path class="st0" d="M464.6,364.7c6.8,6.8,15.9-5.8,19-5.5"/>
	<path class="st0" d="M472.4,366.1c1.6,1.1,7-2.4,10.1-3.8c3-1.4,5.9-1.8,12.3-2c6.4-0.2,10,4.7,22.5,2.3
		c15.1-2.8,22.4,7.7,32.1,2.2c-8,1-13.8-4.8-13.1-4.6c2.7,1.1,13.4-0.4,15-3.3c-2.8,1.8-12-2.4-15.4-3.3
		c-12.5-3.4-19.1,3.5-29.2,0.3"/>
	<path class="st0" d="M468.9,361.5c6,3.7,8.9-6.5,19.3-7"/>
	<path class="st0" d="M451.9,380.3c-1.6,1.8-6.3,1.2-7.6,4.4"/>
	<path class="st0" d="M451.9,380.3c-5.4-3.2,5.7-9.8,6.1-12.6c0.5-3,2.2,12.8-3.3,14.5C452.3,382.9,451.8,381.8,451.9,380.3z"/>
	<path class="st0" d="M499.8,312.9c3.4-5.4,8.7-3.1,14.7-3.1"/>
	<path class="st0" d="M507.7,304.9c-3.1,4.8-2.7,12.1-4.2,11.8"/>
	<path class="st0" d="M504.4,306.4c-1.2,8.9-0.9,7.7-0.8,13.7"/>
	<path class="st0" d="M547.6,221.2c7.3-3.3,17.1-18.7,21.4-21.8c-4.9,6.6-6.7,12.3-5,12.9c2,0.7,4.8-2.2,7.7-5.2
		c-3.1,9.9-23.2,29.1-32,34c-2,1.1-4.2,1.9-6.9,3.2 M531.9,244.7c-4.9,2.3-9.3,5.1-10.2,10.6"/>
	<path class="st0" d="M519.9,254.2c-0.4-7.9,0.5-12.6,7.5-16.8"/>
	<path class="st0" d="M536.4,268.6c-1.6-6.6,6.5-25.1,2.5-36.6"/>
	<path class="st0" d="M541.5,266.6c1.1-3.9,1.4-24.1-0.3-26.4"/>
	<path class="st0" d="M542.4,254.6c1.2-3.2,7.5-7.8,4.4-18.6"/>
	<path class="st0" d="M547.2,245.3c-1-2.8-1.9-5.1-1.7-8.3"/>
	<path class="st0" d="M542.3,258.7c-4.2-3.7-5.7-7.7-5.3-13.4"/>
	<path class="st0" d="M541.5,266.6c-0.4-5.2-16.5-12-16.7-17.4"/>
	<path class="st0" d="M528.9,258.7c2-2.9,2.3-9,1.2-13.1"/>
	<path class="st0" d="M528.7,260.6c1-6.4-1.3-14.4-2.4-20.8c-0.2-1.1-1-3.7-1.6-5.6"/>
	<path class="st0" d="M527,243.8c-3.2-0.6-5.2-7.6-5.2-10.8"/>
	<path class="st0" d="M366.5,248.1c-3.5,1.4-5.1,4.2-5.2,5.2c0.6-0.1,1.5-0.5,2.9-1.1c1.8-0.9,2.7-1.2,2.4-0.9
		c-0.9,1.1-4.4,3.3-5.1,5.5c1-0.4,3.5-1.5,4-1.7c-1.4,1.5-2.5,2.6-3.1,3.9c1.3-0.5,2.2-1.2,3.5-2.2c1.7-1.2-0.3,0.8-0.4,1.9"/>
	<path class="st0" d="M518.8,281.6c-2.5-5.1,0.2-8.4-0.7-12.7"/>
	<path class="st0" d="M500.8,322.6c1.4-0.4,1.5-1.1,2.4-1.9"/>
	<path class="st0" d="M530.8,303c4.9-2.8,4.4-10,9.2-15.3"/>
	<path class="st0" d="M518.6,310.8c7.5-6,5.7-25.7,7.5-28.2"/>
	<path class="st0" d="M521.6,306.9c4.5-6,8-16,7-18.6"/>
	<path class="st0" d="M496.2,359.6c-0.8-0.9-8.2-2.2-7.4-5.5"/>
	<path class="st0" d="M521,308c-0.8-0.9,1.5-9.3,0.8-12.8"/>
	<path class="st0" d="M441.9,357.5c0-0.7-0.6-1.3-1.3-1.3c-0.7,0-1.3,0.6-1.3,1.3c0,0.7,0.4,1.3,1.2,1.3
		C441.1,358.8,441.9,358.2,441.9,357.5z"/>
	<path class="st0" d="M448.7,371.1c0.2-0.7-0.6-1.5-1.3-1.5c-0.7,0-2.1,0.5-1.9,1.3c0.2,0.7,0.8,0.9,1.5,1
		C447.7,372,448.5,371.8,448.7,371.1z"/>
	<path class="st0" d="M479.5,345.2c0.1-3.6-3.5-2.5-3.4,0.1C476.3,347,479.5,348.5,479.5,345.2z"/>
	<path class="st0" d="M483.2,305.7c0.9-2-2-2.9-2.8-1.2C479.8,305.8,481.9,308.5,483.2,305.7z"/>
	<path class="st0" d="M489.1,300.8c-2.2-1.3-3.4,1.4-1.4,2.6C489.2,304.2,490.4,301.5,489.1,300.8z"/>
	<path class="st0" d="M499.6,338.8c2.5,0.7,7.1-2.1,12.7-6.1"/>
	<ellipse transform="matrix(0.9894 -0.1449 0.1449 0.9894 -50.499 62.8246)" class="st0" cx="406" cy="378.1" rx="3.1" ry="2"/>
	<ellipse transform="matrix(0.9895 -0.1448 0.1448 0.9895 -50.9263 63.2928)" class="st0" cx="409.4" cy="381.5" rx="3.1" ry="2"/>
	<path class="st0" d="M396.2,376.3c-0.4-2.5-5.4-2.4-5-0.2C391.6,378.7,396.6,379,396.2,376.3z"/>
	<path class="st0" d="M436.4,382c1.2,1.5,1.3,1.5,2.9,4.5"/>
	<path class="st0" d="M280.8,193.4c-1.4,1.2-4.1,0.7-6.4,3.2"/>
	<path class="st0" d="M258.7,230.2c1.1-1.4,0.9-3.9,3-4.7"/>
	<path class="st0" d="M260.6,218.8c-3.1-7.1,2-6.7,4-6.3"/>
	<path class="st0" d="M286.1,327c-1.9,3.7-5.7,5.5-3.6,11.9"/>
	<path class="st0" d="M283.3,315.6c2.7,5.5,13,14.5,7.5,17.4"/>
	<path class="st0" d="M364.6,383c-2.3-0.7-4-3-4-3"/>
	<path class="st0" d="M369,382.3c3.1-1.9,5.3-5.7,5.2-5.7"/>
	<path class="st0" d="M310.1,209c6.5,4.1,8.1,10.3,7.3,17.6"/>
	<path class="st0" d="M430.6,226.7c1.2,0.7,2.9,1.5,4.6,1.1"/>
	<ellipse class="st0" cx="457.8" cy="241.2" rx="0.6" ry="0.5"/>
	<ellipse class="st0" cx="455.9" cy="242.7" rx="0.6" ry="0.5"/>
	<ellipse class="st0" cx="458.4" cy="245.6" rx="0.6" ry="0.5"/>
	<ellipse class="st0" cx="455.4" cy="244.8" rx="0.6" ry="0.5"/>
	<ellipse class="st0" cx="454.9" cy="247.4" rx="0.6" ry="0.5"/>
	<path class="st0" d="M449.3,275.5c0,0,2.1,2.3,2.9,3"/>
	<path class="st0" d="M453.7,278.1c0,0,1.3,1.4,2.1,2.1"/>
	<path class="st0" d="M452.3,279.5c0,0,1.1,1.2,2,1.9"/>
	<path class="st0" d="M327.7,273.9c-1.2-0.3-2.9-0.2-4.2,0.7"/>
	<path class="st0" d="M421.9,306.4c3,3.5,9.1,3.6,11.6-0.7"/>
	<ellipse class="st0" cx="399.3" cy="374.6" rx="0.6" ry="0.4"/>
	<ellipse class="st0" cx="404.9" cy="373.8" rx="0.6" ry="0.4"/>
	<ellipse class="st0" cx="412.1" cy="376.9" rx="0.6" ry="0.4"/>
	<ellipse class="st0" cx="406" cy="378.1" rx="0.6" ry="0.4"/>
	<ellipse class="st0" cx="409.4" cy="381.1" rx="0.6" ry="0.4"/>
	<ellipse class="st0" cx="406.5" cy="385.8" rx="0.6" ry="0.4"/>
	<ellipse class="st0" cx="403" cy="383" rx="0.6" ry="0.4"/>
	<ellipse class="st0" cx="399.5" cy="379" rx="0.6" ry="0.4"/>
	<ellipse class="st0" cx="392.3" cy="380.1" rx="0.6" ry="0.4"/>
	<ellipse class="st0" cx="393.7" cy="375.9" rx="0.6" ry="0.4"/>
	<ellipse class="st0" cx="396.1" cy="383.9" rx="0.6" ry="0.4"/>
	<path class="st0" d="M301.3,352.5c-1.2,0-1.7-2.4-2.7-2.2"/>
	<path class="st0" d="M447.1,290.7c1.5-0.8,3.4-0.2,4.3,0.5"/>
</g>
</svg>
