<?xml version="1.0" encoding="utf-8"?>
<!-- Generator: Adobe Illustrator 21.0.2, SVG Export Plug-In . SVG Version: 6.00 Build 0)  -->
<svg version="1.1" id="图层_1" xmlns="http://www.w3.org/2000/svg" xmlns:xlink="http://www.w3.org/1999/xlink" x="0px" y="0px"
	 viewBox="0 0 850.4 367.9" style="enable-background:new 0 0 850.4 367.9;" xml:space="preserve">
<style type="text/css">
	
		.st0{clip-path:url(#SVGID_4_);fill:none;stroke:#000000;stroke-width:0.5;stroke-linecap:round;stroke-linejoin:round;stroke-miterlimit:10;}
	.st1{clip-path:url(#SVGID_4_);fill:none;stroke:#000000;stroke-miterlimit:10;}
</style>
<g>
	<defs>
		<rect id="SVGID_1_" x="0" y="31.3" width="850.4" height="336.6"/>
	</defs>
	<clipPath id="SVGID_2_">
		<use xlink:href="#SVGID_1_"  style="overflow:visible;"/>
	</clipPath>
</g>
<g>
	<defs>
		<rect id="SVGID_3_" width="850.4" height="367.9"/>
	</defs>
	<clipPath id="SVGID_4_">
		<use xlink:href="#SVGID_3_"  style="overflow:visible;"/>
	</clipPath>
	<path class="st0" d="M341.4,225c0,0-0.7-10.5,8.3-8.9c9,1.6,7.3,7.1,5,12.6c0,0,0.8,1,1.9,1s12.3-3,10.4,8.1c-2,11.2-11.2,4-11.2,4
		s5.3,9-2.8,11.8c-8.1,2.7-10.8-6.1-10.6-6.9c0.2-0.8-4.4,5-10.5,2.7c-6.1-2.3-5.8-8.8-2.6-10.9c3.1-2.1,5.1-2,5.1-2
		s-13.5-3.9-7.3-13.3C333.3,213.9,341.4,225,341.4,225z"/>
	<path class="st0" d="M394,232.1c0,0-1.1-7.8,5.8-7.1c6.8,0.7,5.9,5,4.4,9.2c0,0,0.6,0.7,1.4,0.6c0.8-0.1,9.1-2.9,8.2,5.5
		c-0.9,8.5-8.1,3.6-8.1,3.6s4.4,6.5-1.5,9c-5.9,2.5-8.4-4-8.3-4.6c0.1-0.6-3,4-7.7,2.6c-4.7-1.4-4.8-6.3-2.6-8
		c2.2-1.7,3.7-1.7,3.7-1.7s-10.3-2.2-6.2-9.6C387.4,224.2,394,232.1,394,232.1z"/>
	<path class="st0" d="M339.5,288.6c0,0-7.3,4.5-9.4-2c-2.1-6.6,2.5-7.6,7.3-8.2c0,0,0.4-0.9,0-1.6c-0.4-0.7-6.6-7,2.2-10
		c8.7-3,6.9,5.8,6.9,5.8s4.6-7,9.5-2.7c4.9,4.3-0.5,9.5-1.2,9.7c-0.6,0.2,5.2,1,5.7,5.9c0.5,4.9-4.3,7.2-6.9,6
		c-2.6-1.3-3.2-2.6-3.2-2.6s2,10.4-7,10C334.4,298.2,339.5,288.6,339.5,288.6z"/>
	<path class="st0" d="M271,279.7c0,0-7.8-1.6-5-7.3c2.8-5.6,6.5-3.4,10.1-0.8c0,0,0.9-0.3,1.1-1c0.2-0.7,0-8.8,7.8-5.2
		c7.8,3.5,0.9,8.2,0.9,8.2s7.5-1.7,8.1,4.2c0.5,5.9-6.4,5.9-6.9,5.6c-0.5-0.3,2.9,3.9,0.1,7.5c-2.7,3.6-7.5,2.1-8.4-0.4
		c-0.9-2.5-0.5-3.8-0.5-3.8s-5.3,8.1-11,2.1C261.5,282.9,271,279.7,271,279.7z"/>
	<path class="st0" d="M372.5,213.7c0,0,7.3-4-0.1-8.2c-7.4-4.3-8,3.8-8.3,4.5c-0.3,0.7-1.1,0.9-1.1,0.9c-3.3-3-6.9-5.5-10.2-0.2
		c-3.3,5.3,4.3,7.7,4.3,7.7s-0.6,0.1-1.4,0.4c1.9,2.5,0.7,6.2-0.9,9.8c0,0,0.8,1,1.9,1c0.3,0,1.3-0.2,2.6-0.3c2.5-1,4.3-3.3,4.3-3.3
		s-0.5,1.2,0.1,3.7c1.3,0.5,2.4,1.3,3,2.8c1.7,0.5,3.7,0.2,5.3-1.5c3.1-3.3,0.1-7.8,0.6-7.4c0.5,0.3,7.4,1,7.4-4.9
		C380.1,212.8,372.5,213.7,372.5,213.7z"/>
	<path class="st0" d="M269.4,206c-0.6-2.5-1.9-10.9,6.9-11.7c10.3-0.9,5.8,10.9,5.8,10.9s2.3-1.9,4.9-2.4"/>
	<path class="st0" d="M261.6,204.9c1.3-0.7,2.8-1,4-0.6c1.4,0.5,2.4,1,3,1.5"/>
	<path class="st0" d="M258.3,211.2c-0.2-1.5,0.2-2.9,0.8-4"/>
	<path class="st0" d="M262.9,223.8c0.2-3,2.5-5.7,2.9-5.9c0.6-0.2-3.8-0.3-6.1-3.2"/>
	<path class="st0" d="M281.5,231.2c-6,1-5.3-6.7-5.3-6.7s-1.1,2.1-2.9,3.8"/>
	<path class="st0" d="M294.1,210.3c-0.2,3.7-4.2,5.1-8.3,6.2c0,0-0.4,1.1,0.2,1.8c0.4,0.6,5.9,4.9,2.4,9.1"/>
	<path class="st0" d="M328,264.2c-9.9-2.6-20.3-6.1-26.6-6.3c-10.7-0.4-10.2,2-15.1-4.5c-4.9-6.4-11.4-10.7-12.9-10.7
		c-1.5,0-4.8,3.6-11.4-1.9c-4.6-2.7-9,0-9,0l-10.9,7.5c0,0-2.4,3.4-9.2,1.5s-7.1-3.6-12.1,0.7c-1.5,1.5-9.9,0.3-9.9,0.3l-1,1
		l-4.8,3.2l-4.9-2.1h-4.8l-6.1-0.3l-4.1,1.5"/>
	<path class="st0" d="M371.3,263.5c-1.7,0.4-2.9,0.7-2.9,0.7s-3.3,6.9-7.9,6.2c-4.6-0.6-2.7-3.9-14.2-3.2c-0.2,0-0.5,0-0.7,0"/>
	<path class="st0" d="M399.4,258.7c-1.2,0.1-2.1,0.2-2.4,0.4c-1.4,0.7-2.6,4.9-5.4,4.9c-2.9,0-2.2,0.5-3.9,0
		c-1.7-0.5-0.7-2.9-7.5-2.2c-0.8,0-2.2,0.3-3.7,0.6"/>
	<path class="st0" d="M418.2,245.3c0,0-0.5,7.5-0.7,8.8c-0.2,1.2-1.6,4.3-3.6,4.3"/>
	<line class="st0" x1="402.6" y1="268.6" x2="396.6" y2="274.7"/>
	<line class="st0" x1="399.6" y1="265.4" x2="393.9" y2="270.5"/>
	<line class="st0" x1="406.7" y1="250.9" x2="407.7" y2="253.4"/>
	<path class="st0" d="M364.1,260.7c-2.1,0.7-3.7,1.6-4.5,2.7c-1,0-8.6-1.4-8.6-1.4"/>
	<path class="st0" d="M398.1,252c0,0-7.5,0.4-10.6,3.1c-1,0.8-3.6,1.5-7,2.1"/>
	<path class="st0" d="M325.5,256.1l-4.8-1.1c0,0-6.6,0.8-11.7-1c-5.2-1.8-6.8,0.3-8.9-0.7c-2-1-3.7-3.4-3.7-3.4l-5.3,1
		c0,0-7.8-6.7-8.1-7.5c-0.3-0.8-3.3-4.8-3.3-4.8s-3.2,1-7.6,0c-4.4-1-6,0-6,0s-6.5-1.6-7.8-3.3c-1.3-1.6-9.8-4.5-14.7-3.3
		c-4.9,1.2-10.2,2.6-11.2,1.6c-1-1-1.9-6.8-1.9-6.8l-7.8-3.1l-1.9-0.7l7.2,5.3l0.3,5.2l-1.5,0.7l-6.8-4.4l-5.3-2l-4-1.4h-4.8l-1.4-1
		"/>
	<path class="st0" d="M209.6,226.5l10,5.9l4.8,4.1l11.6-1.2l10.9,0.1l6.1,2.5l-0.7,1l-4.5,1.8l-5.1,3.1l-2.2,0.8l-3.1,2.7
		c0,0-8.9-2.3-11.1-1.9c-2.2,0.4-4.1,1.9-4.1,1.9l-5.2-4l-1.5-1.8h-3.4l2.6,1l4.9,6.7l-10.1,0.5l-10.2-0.5l8.2,1.5l-3.8,2.7H201"/>
	<polyline class="st0" points="315.8,266.6 317.6,264.5 321.3,262.3 	"/>
	<polyline class="st0" points="316.6,261 311.4,267 296.7,267 303.6,268.6 298.7,273 298.7,274.7 303.3,270.5 312.4,270.5 
		312.6,270.4 	"/>
	<polyline class="st0" points="387.3,228.5 385.1,221.8 380.1,220.6 	"/>
	<path class="st0" d="M384.8,239.2c0,0-4.3-0.1-5.9-1.1c-1.6-1-0.4-3-4.3-3.1c-3.9,0-4.1,0.8-4.1,0.8l-2.8-0.2"/>
	<path class="st0" d="M365.1,242.4c0,0,4.6-0.8,6.3,0.8c1.6,1.6,5.8,1.6,6.4,1.2c0.7-0.3,5.9,0.9,5.9,0.9h0.6"/>
	<path class="st0" d="M326,230.3h-3.4c0,0-3.3-1.2-5.2-3.8c-2-2.6-10.8-9.8-19.2-9.1c-1,0-3.3-6.5-3.3-6.5l-6.5-4.7l-2.9-7.7
		l-3.1-6.1c0,0-7.7-2.8-8.8-2.1c-1.1,0.7-4.6-5.2-4.6-5.2l4.6,3.4l7.9,1.5l-1.1-3.6l-2.6-1.3l-2.5-4.6l-12.1-4.7"/>
	<polyline class="st0" points="298.4,208.1 292.6,204.3 287.2,192.2 283.4,186.3 278,179.8 267.9,177.6 	"/>
	<polyline class="st0" points="326.6,224.1 322.4,224.1 306.3,214 303.2,211.4 	"/>
	<path class="st0" d="M272.5,232.8c0,0-8.8-2.5-11-6.3c-3-6.7-8.5-4.7-8.5-4.7l-8-4.3l8,1.1l5.3,1.3l7.8,6.7c0,0,7.8,0.9,10.5,3.8"
		/>
	<path class="st0" d="M226.2,188l3.6,6.3c0,0,7.4,0.9,8,3.5l-0.4,0.2c-2.4,1.4-6.4,4-7.6,5.6"/>
	<line class="st0" x1="222.1" y1="195.5" x2="229.8" y2="194.3"/>
	<line class="st0" x1="234.6" y1="204.3" x2="233.1" y2="200.8"/>
	<polyline class="st0" points="247.7,192.9 249.9,199.6 259.9,204.3 265,205.7 281.1,206.8 289.3,206.8 	"/>
	<polyline class="st0" points="264.2,207.8 254.8,213.3 249,213.3 	"/>
	<polyline class="st0" points="268.5,209 257.6,215.9 253,214.9 	"/>
	<path class="st0" d="M277.3,238.5c0,0-5.9-0.9-4.1-5.3c1.8-4.4,4.8-2.9,7.6-1.1c0,0,0.6-0.3,0.7-0.8c0.1-0.5-0.4-6.6,5.6-4.3
		c6,2.3,1.1,6.1,1.1,6.1s5.6-1.7,6.3,2.8c0.7,4.4-4.5,4.8-4.9,4.6c-0.2-0.1,0.5,0.8,0.9,2.1"/>
	<path class="st0" d="M335.4,224.9c0,0,5.5,11,8.8,3.5c0.9-1.4,1.2-2.9,2.2-1.5c0,0.6,0,3.9,1.6-0.5c0-1.3,0.2-4.1,2.2-4.1
		c2,0,0.5,3.8,0.5,3.8l-0.7,0.8c0,0,1.9-1.6,2-0.9c0.1,0.7-2.3,3.5-1.9,4.9c0.4,1.4,1.6,2.4,1.9,2.5c0.3,0.1,6.3-0.4,6.5,0
		c0.3,0.4,1.4,1.4-1.8,1.4c-3.2,0-2.7,2.1-2.7,2.1s0.6,1.2,1.1,1.4c0.5,0.2,1.2,1.4-1.8,1.2c-3-0.3-1,1.6-1,1.6s0.9,2-1.7,1
		c-2.6-1,2.9,5.7-0.7,6.2c-0.7,0-1.4-3.1-1.4-4.6c-0.1-1.5-1.4,1.8-1.7,1.6c-0.3-0.2-0.9-2-0.6-3.2c0.3-1.2-1.9-1.8-3.6,0
		c-1.6,1.8-0.1-1.5-2.1-1.8c-2-0.3-1.9,6-6.3,5.3c-0.8-0.4-0.4-1.3,1.8-2c2.3-0.7,1.6-4.1,1.6-4.1s-3.1,0.3-0.6-1.7
		c2.5-2,0.8-4.7,0.8-4.7s-6.8-1.4-5.4-3.6c0.5-1.2,2.7,1.3,3.6,1.2c0.8-0.1,1.5-1.6-0.9-3.1C332.7,226.3,334.2,224,335.4,224.9z"/>
	<path class="st0" d="M344.2,235c0,0-1.6-0.1-1.2-1.4c0.4-1.3,1.5-0.7,1.5-0.7s1.4,0.4,1.1,1C345.3,234.4,345.8,235,344.2,235z"/>
	<path class="st0" d="M347.4,235.4c0,0,0.3,1.2,1.2,1.2c0.9,0,1.3-1,0.9-1.6c-0.4-0.6-0.3-1-1-0.9
		C347.8,234.2,347.3,234.1,347.4,235.4z"/>
	<path class="st0" d="M342.2,236.6c0,0-1.5-0.1-1.4,1.3c0.1,1.5,2.1,0.9,2.1,0.9S344.8,237.1,342.2,236.6z"/>
	<path class="st0" d="M346.4,237.1c0,0-1.5,0.2-1.5,1.3c0,1.1,1.5,1.3,1.5,1.3s1.8-0.3,1.5-1.3C347.5,237.3,346.4,237.1,346.4,237.1
		z"/>
	<path class="st0" d="M362.7,217.5c0,0-1.3-3.5,2.1-1.6c1,0,2.2-1.4,2.7-1c0.6,0.3,1.7,2.2,0.4,2.7c-1.3,0.5-2.6,2.1-2,2.6
		c0.6,0.5,2.3,0.8,1.6,1.7c-0.7,0.9-1.8,2-3.9,0c-0.6-0.9-2.2,0.9-2.6,0c-0.4-0.9-1-2.5-0.4-2.9
		C361.2,218.4,362.9,218.3,362.7,217.5z"/>
	<path class="st0" d="M397.7,237.8c0,0-1.5-0.1-1.4,1.3c0.1,1.5,1.3,1.5,1.4,1.5s1.9-0.3,1.3-1.5C398.4,238.1,399,238,397.7,237.8z"
		/>
	<path class="st0" d="M398.8,234.5c0,0-1.3-0.7-0.7-1.6c0.6-0.9,1.5-0.6,1.5-0.6s1.4,0.7,0.8,1.5
		C399.9,234.6,399.3,234.9,398.8,234.5z"/>
	<path class="st0" d="M391.7,235.9c0,0-2.1,0.5-0.7,1.9c1.3,1.4,2,0.4,2,0.4s0.3-1.1,0-1.5C392.7,236.3,392.5,235.6,391.7,235.9z"/>
	<path class="st0" d="M392.8,242.2c0,0-1.8,0.9-0.5,2c1.3,1.1,1.6-0.7,1.6-0.7S393.9,242.3,392.8,242.2z"/>
	<path class="st0" d="M399.3,244.6c0,0-1.1,1-0.5,1.6c0.5,0.6,1.4,1.1,1.9,0.6c0.5-0.5,0.1-1.8,0-1.9
		C400.5,244.8,399.5,244.3,399.3,244.6z"/>
	<path class="st0" d="M402.6,239.3c0,0-1,0.6-0.6,1.4c0.4,0.8,1.2,0.9,1.2,0.9s1.6-1.1,0.9-1.9C403.6,238.8,402.6,239.3,402.6,239.3
		z"/>
	<line class="st0" x1="398.8" y1="234.5" x2="398.1" y2="237.8"/>
	<line class="st0" x1="393.1" y1="237.1" x2="396.3" y2="238.2"/>
	<line class="st0" x1="393.5" y1="242.5" x2="396.6" y2="240.2"/>
	<line class="st0" x1="398.1" y1="240.6" x2="399.3" y2="244.6"/>
	<line class="st0" x1="399" y1="239.3" x2="402.2" y2="239.7"/>
	<path class="st0" d="M334.2,219.7c0,0-8.3-9.2-8.3-11.7l-9-2"/>
	<path class="st0" d="M317,208.1c0,0,2.2,3.6,4.3,3.9l2.1,0.3v-0.9l6.2,8.2"/>
	<path class="st0" d="M309,208.1c0,0,1.6,5.5,7.2,3.8c1.8-2.4,0.8-6.7,0-7c-0.9-0.3,6.7-1.1,3.5-6.1c-3.2-5-8.4,0-8.4,0
		s1.6-5.3-3.8-4.5c-5.3,0.8-4.7,4.8-4.7,4.8s-6.6-1.9-7.5,1.8c-1,3.7,2.4,4,4.1,4.1c1.7,0.1-3.8,3.8,0.6,5.6
		C304.4,212.4,309,208.1,309,208.1z"/>
	<path class="st0" d="M336.4,249.8c-1.5,0.4-1.3,5.3-1.3,5.3s-4.3-5.4-9.6-1.7c0,0-1.4,5.8,5.4,7.1c0,0-6.1,4.7-2.6,10
		c0,0,5.2,0,7.3-3.3l0.7,1.4"/>
	<path class="st0" d="M342.9,265.4c0,0-0.1-1,0-2c0.1-1,6.5,0.9,8.1-1.9c0,0,0.8-4.7-6.8-4.5l-2.1,0c0,0,2.2-2.6,1.3-7.1"/>
	<path class="st0" d="M384.3,274.7c0,0-4.6-1.3-3.2-6.1c0,0,4.5-0.6,5.2,1.9v0.6c0,0,3.6-4.2,5.5-4c1.9,0.2,2.3,3.4,1.7,5.2
		l-0.4,1.2c0,0,3.5,0.4,4.1,2.1l0.6,1.7c0,0-1.8,2.7-5.5,0c0,0,1.8,5.7-1.1,7.6c0,0-4.5-1-4.4-4.8c0,0-5.6,2.3-6.8-0.2
		C380,279.8,379.5,275.8,384.3,274.7z"/>
	<path class="st0" d="M272.1,243.1c-4.1,4-0.7,8.9-0.7,8.9s-8.5-1.4-10.7,1.3c0,0,0.3,5.5,7.7,5.8h1.2c0,0-5,6.8,0,9.8"/>
	<path class="st0" d="M272.8,269c2,0,4.4-3.6,4.4-3.6l1.2,0.6"/>
	<path class="st0" d="M282,248.7c0,0,0.3,0.3-0.4,0.3s-2.4,1.4-2.4,1.4l0.1-1.1c0.1-1.1-0.8-2.2-0.8-2.2l-1.5-2.4"/>
	<path class="st0" d="M287.1,254.5c0,0-1.2,2.2-2.2,2.6c0,0,3.8,3,3.6,7.4c0,0-2.1,1.2-3.9,0.6"/>
	<path class="st0" d="M287.9,247.8c0,0-1.2-5.9,4.8-5.4c3.8,0.6,4,1.5,4,1.5s3.5-3.6,5-3.4c1.5,0.2,3.9,0.5,4.1,7.2
		c0,0,3.4-1,4.6-0.3c1.1,0.6,3.2,2.1,2.2,4c-1,1.9-2.6,1.9-2.6,1.9l-0.9,0.7"/>
	<path class="st0" d="M294.1,250.3c0,0,2.1-4.8,5-1.2l0.6,0.6c0,0,2.1-1.3,2.5,0.5c0.4,1.8,0.4,2.3-1.4,3.3"/>
	<path class="st0" d="M295.7,257.9c0,0-4.3,0.6-5.9,5.2l-1.4,0.6"/>
	<path class="st0" d="M287.5,267c0,0,3.6-0.1,6.9-3.6c3.3-3.6,5.1-5,5.1-5l0.7-0.4"/>
	<path class="st0" d="M306.3,258.5c0,0,0.3,4.2-3.9,4.5c-4.2,0.2-4.1-3.5-4.1-3.5"/>
	<path class="st0" d="M293.9,252.5c0,0,1.6-0.3,1.8,0.9"/>
	<line class="st0" x1="322" y1="257.9" x2="325.4" y2="258.5"/>
	<path class="st0" d="M331.4,288.9c0,0-6.7,3.6-7.8,6.1c-1,2.6-4.6,4.7-6.7,4.9c-2.2,0.2-3,1.8-3,1.8"/>
	<path class="st0" d="M330.3,287.1c0,0-6.2,1.7-7.6,5.2c-1.4,3.5-1.4,4.3-3.3,5c-1.9,0.7-3.6,2.8-3.6,2.8"/>
	<path class="st0" d="M288,289.4c0,0,7.6,2.7,7.7,2.9c0.1,0.2,0.2,1.7,3.6-0.5c3.4-2.2,8.8-0.6,8.8-0.6s2.7-0.3,2.9,0
		c0.3,0.3,9.8,4.5,10.7,3.7"/>
	<path class="st0" d="M286.4,291.7l8.4,3.6c0,0,2,1.1,3.9,0c2-1.1,3.8-2.7,5.2-2.3c1.4,0.4,3.1,1.2,5.8,1.2c2.7,0,10.3,3,10.3,3"/>
	<path class="st0" d="M313.9,273.6c0,0-8.7-2-6.3,4.3c0.5,1.7,4.9,2.2,6.3,1.5c0,0-2.6,6.7,1.9,6.9c4.5,0.1,3.5-6.5,3.5-6.5
		s4.9,5.5,7.3,2.6c2.4-2.9-1.7-6.2-2.9-6.4c0,0,4.9-2.6,3.7-6c-1.2-3.4-6.6-1.5-6.8,0.6l-0.3,1.1c0,0-1.6-6.2-5.5-4.7
		C310.9,268.5,313.9,273.6,313.9,273.6z"/>
	<path class="st0" d="M276.6,179.5c0,0-1.1-2.9,0.8-4.3c2-1.4,2.6,0,2.6,0s0.8-2.2,2.6-2c1.8,0.1,3.6,2,3.2,3.2c0,0,2.6,0.7,2.5,2.3
		c-0.1,1.7-1.1,4-2.5,3.8c0,0-0.3,2.9-3.3,2.7"/>
	<path class="st0" d="M252.1,218c0,0,0.5,0,0.9-0.6c0.1-5-5.3-4.2-5.3-4.2s0.6-5.3-4.3-4.8c-5,0.5-4,6.1-4,6.1l-0.1,0.5
		c0,0-3.5-2.5-4.4,0.8c-0.9,3.3,2.3,4.5,3.7,4.2c0,0-2.6,4.6,1.3,5.4c4,0.7,4.6-2.9,4.6-2.9s1.4,3.9,4.4,2.5c3-1.4,1.7-4.6,1.7-4.6"
		/>
	<path class="st0" d="M287.8,166.1c0,0-1.8,18,4.6,20.1l5.9,12"/>
	<path class="st0" d="M301.3,198.1c0,0-6.2-10.7-6.2-12.5c0,0-6.3-1.7-7.5-17.6"/>
	<polyline class="st0" points="294.1,190.7 289.8,189.5 286.8,185.1 287.1,186.3 289.1,191.4 295.5,193.5 	"/>
	<path class="st0" d="M269,209.2c0,0-2.8,2.8,0.6,3.6c3.4,0.8,0,2.6,0,2.6s-1.4,2.7,1.5,2.6c2.9-0.1,3.9-0.1,4.6,1.2
		c0.7,1.2,2.7,1.4,3.1-0.7c0.4-2,2.7-2.6,3.3-2.7c0.5-0.1,2.5-2.9,1.1-3.4c-1.4-0.5,0-3.4,0-3.4"/>
	<path class="st0" d="M352,213.9c0,0-15.3-6.5-17.8-4.9c0,0-14.1-17.1-18.2-19.1"/>
	<path class="st0" d="M352.8,210.7c0,0-4.5-2.9-9.8-3.2c-5.4-0.3-8.7-2.3-8.7-2.3l-10.8-8.4"/>
	<line class="st0" x1="290.8" y1="199.6" x2="295.1" y2="199.9"/>
	<line class="st0" x1="291.5" y1="201.9" x2="294.8" y2="201.9"/>
	<path class="st0" d="M217.1,251.3c0,0-1.2,4.5,2.2,4.7c0,0-3,2.8,0,3.9c3,1,3.6-2.4,3.6-2.4s2.2,2.7,3.3,2.4
		c1.1-0.3,4.3-1.4,0.6-4.8c0,0,4-1.8,1.7-3.8c-2.3-2-3.5,0-3.5,0s0.3-2.9-0.7-3.2"/>
	<path class="st0" d="M269.6,280.3l-6.9-2.1l-14,3.5h-8c0,0-9.5-6.9-17.7-9.2h-4.5l-9.7-5.2"/>
	<line class="st0" x1="208.4" y1="275.6" x2="216.5" y2="271.3"/>
	<path class="st0" d="M224.2,272.8c0,0,9.2,5.4,9.2,6c0,0.5-0.9,1-0.9,1h-2.7l-3.1,2"/>
	<path class="st0" d="M228.2,282.3c0,0,8.3-0.3,8.7-0.6c0.3-0.2,4.2,2.5,4.7,2.5c0.6,0,8-0.4,9.9-1.3c2-0.9,9.3-2.1,9.9-2.1
		c0.6,0,3.9,1.7,3.9,1.7"/>
	<path class="st0" d="M358.9,282c0,0,1-4.1,4.5-3.2c3.5,0.9,2.8,3.2,2.8,3.2s2.5-1.2,3.2,0c0.8,1.2,1.8,5.3-1.2,5.6
		c0,0,0.9,3.9-2.1,4.1c-3,0.2-3.7-3.1-3.7-3.1s-0.5,3-3.4,1.6"/>
	<path class="st0" d="M364.5,278.6l0.6-1.2c0,0-4.9,0.6-4.6-3.7c0.3-4.3,4-2.1,4-2.1h0.6v-3"/>
	<path class="st0" d="M368.2,264.6c0,0,4.8-0.1,4.8,3.4v1.1v0.7l0.5,0.8c0,0,1-2.5,3.1-1.8c2.2,0.6,3.3,1,2.3,5"/>
	<path class="st0" d="M370.2,282.4l2.2-1.8c0,0-2.7-0.2-2.2-3.3c0.5-3.1,4.4-0.8,4.4-0.8s0.4-3.6,3.7-2.8c3.3,0.8,1.7,3.7,1.7,3.7"
		/>
	<path class="st0" d="M370.2,284.8c0,0,3,3,5.1-1c0,0,0.1,3.6,2.9,3.3c2.8-0.3,1.8-4.8,1.8-4.8s2.3-0.4,2.6-1.4"/>
	<path class="st0" d="M370.1,259.1c0,0,0,5.4,3,5.5c3,0.1,4.5-2.9,3.6-5.5l-0.1-1.2c0,0,3.9,0.2,4.1-1.2c0,0,1.8-1,1.2-4.1
		c-0.6-3.2-5.9-0.6-5.9-0.6l0.3-0.4c0,0,2.6-4.1-1.2-5.4c-3.8-1.3-5.1,3.7-5.1,3.7s-0.9-5.3-5.3-1.4c-4.4,3.8,1.6,6,1.6,6
		s-4.3,0.7-4,2.9c0.2,2.2,1.7,3.4,1.7,3.4S366.3,262.9,370.1,259.1z"/>
	<path class="st0" d="M406.1,257.9c0,0,1-5.6,5.2-4.9c4.2,0.7,1.9,6.7,1.9,6.7l-0.4,0.5c0,0,6.1-2.8,5.4,2.3
		c-0.6,5.1-5.2,2.9-5.2,2.9s2.8,6.4-1.7,7.1c-4.4,0.7-4.2-5.4-4.2-5.4s-3.6,3.6-6.4,0.9c-2.8-2.7,2.4-6,2.4-6s-6.6-1.3-2.4-5.9
		C405.1,251.4,406.1,257.9,406.1,257.9z"/>
	<polyline class="st0" points="370.1,252.9 371.8,255.3 373.8,253.4 	"/>
	<polyline class="st0" points="372.5,257.2 371.8,255.3 369.7,256.4 	"/>
	<line class="st0" x1="374.4" y1="255.3" x2="372.5" y2="255.3"/>
	<path class="st0" d="M388.9,260.7c0,0,1.9,1,2.9-0.5"/>
	<path class="st0" d="M372.5,241.4c0,0,2.1,1.8,3.1,0.9"/>
	<path class="st0" d="M408.8,245.2l2.7,7h1.1l1.3-8.5c0.5-0.2,2.1-1.5,2.1-1.5s1.1,3.5,5.6,2.4s0.9-6,0.9-6s-0.7,0,0.7,0
		c1.4,0,4.5-3.7,1.8-6.4c-2.6-2.7-5.6,1.2-5.6,1.2s0.3-5-3.5-5.3c-3.8-0.3-4.7,4-4.7,4s-0.1,1,0.1,1.2c0.2,0.3-2-0.4-2.7,0l-0.7,0.4
		"/>
	<path class="st0" d="M417.4,254.6c0,0,4.8-4.8,7.8-5.6c2.9-0.8,2.5-1.2,2.5-1.2"/>
	<path class="st0" d="M345,278.6c0,0,1.7-1.5,2.9-0.7c1.2,0.8,0.1,1.3,1,1.7c0.9,0.4,3.2,1.1,2.8,2.7c-0.4,1.6,2.1,2.4,2.1,2.4
		s1.7,1.5,0,1.4c-1.7-0.1-2.4-2-3.7-1.4c-1.2,0.6-0.2,2.5-2.8,2.3c-2.6-0.1,0,3.5-2.4,3.4c-2.4-0.1-3.4-1.4-2.9-3.4
		c0.5-2-3.1,1.4-3.2-0.9c-0.1-2.3-3.8-2.3,0-3.5c3.8-1.2,1.9-3.4,1.9-3.4s-1.1-3.8,0.4-2.9C342.6,277.4,343.3,280.2,345,278.6z"/>
	<path class="st0" d="M378.1,214.8c0,0,3.9,1.6,3.9,1.1c0-0.5,0.2-2,0.2-2l-0.2-2.5c0,0-6.4-4.7-5.9-5.3c0.5-0.6,0.1-4.4-0.5-5.5
		c-0.6-1.1-0.9-3.8-0.9-3.8"/>
	<path class="st0" d="M364.5,197.4c0,0,0.6,4.4,4.1,3.8c3.5-0.7,2.8-4.4,2.8-4.4s3.8,2,4.2-2.5c0.4-4.5-3.2-3.2-4-3.1
		c-0.8,0.2,2.6-3.1,0.9-4.6c-1.7-1.5-4.3-2-5.3,1c0,0-3.1-3.9-5.3-1c-2.1,2.9-0.8,4.9,1,5.4c0,0-5,1.3-4.1,3.5
		C359.8,197.7,362.1,199.7,364.5,197.4z"/>
	<path class="st0" d="M380.1,182.3c0.8,10.7,6.6,15.5,5.9,13.2c-0.7-2.4,1.3-11.6,1.3-11.6l3.2-3.1v2.6c0,0-1.6,5.2-1.9,6.5
		c-0.3,1.4,0.7,13.1,0.7,13.1s-0.5,4.9-1.9,8.4c-1.4,3.5,0,5.3,0,5.3l1.8,3l4.9,10.6"/>
	<polyline class="st0" points="375.7,194.2 383.7,209.9 384.8,209.9 384.8,204.3 385.8,199.6 381.3,195.5 380.5,185.4 	"/>
	<path class="st0" d="M364.9,185.4c0,0-11.6-14-13.9-21.2c-2.3-7.3-9.1-24.8-9.1-24.8"/>
	<path class="st0" d="M350.5,162.4c0,0,5.6,9.6,7.1,10.5c1.5,0.9,11.3,11.6,11.3,11.6l0.5,0.5"/>
	<path class="st0" d="M356.7,172.1c1,1.3,4,1.5,5.1-0.9c1.1-2.4-2.2-5-2.2-5c2.1,1.4,5.3-0.9,5.3-0.9s1.1-3.9-1.1-5
		c-2.3-1.1-4.2,0.8-4.2,0.8s3.3-6.5-0.9-7.8c-4.2-1.3-4.7,4.4-4.7,4.4v1.1c0,0-3.9-5.8-5.9-3c-1.8,2.7-1.8,5.4,0.6,6.4
		c0.2,0.1,0.4,0.1,0.6,0.2c0,0-5.3,6.4,0.5,7.3c0,0,2.7-0.2,2.7-2.1"/>
	<path class="st0" d="M353.4,144.3c0,0-1.8-3.9,1.3-5c0,0,0.6,0.1,1.3-1.7c0.7-1.9,2.6,1.3,3.1,1.7c0.5,0.4,2.6,3.8-1.4,5.7
		C353.8,146.9,353.4,144.3,353.4,144.3z"/>
	<path class="st0" d="M350.5,155.3c0,0-1.1-8.2,2.5-10.7"/>
	<path class="st0" d="M352.1,156.4c0,0,0-10.6,1.3-10.7"/>
	<path class="st0" d="M309.9,232.8c0,0-0.4-2.7,2.2-2.5c2.6,0.1,1.8,2.5,1.8,2.5s3.7-1.4,3.5,1c-0.2,2.5-1.3,2.8-1.3,2.8
		s1.9,1,1,2.3c-0.9,1.3-1.9,3.5-4.2,1.2c0,0-3.2,2.8-4.2,0.5c-1.1-2.3,0.9-3.6,0.9-3.6s-4.2-0.1-3.5-2.1
		C306.6,233,307.9,231.2,309.9,232.8z"/>
	<path class="st0" d="M298.4,213.4c0,0,0.4,2.5,3.4,1.8"/>
	<path class="st0" d="M300.3,217.7c0,0-2.1,3.7-0.2,4.6c2,0.9-1.4,1.4,0.2,2.8c1.6,1.4,3.8,0,3.8,0s1.3-0.2,1.3,0.6
		c0,0.8,1.8,2.4,2.9,2.2c1-0.3,1.8-1.7,0.7-3.4c0,0,2.8-1,1.4-3.6"/>
	<path class="st0" d="M267.5,266l-2.1,0.7c0.8-4.1-2.5-5.7-2.5-5.7c-2.5,0.7-3.2,5.7-3.2,5.7s-0.3-2.6-6.1-2.2c0,0-1,4.3,3.5,6.3
		c0,0-3,2.3-2.3,5l0.3,1.4c0,0,4.5,0.9,5.4-1.8c0,0,0.3,3,1.5,3"/>
	<path class="st0" d="M264.4,278.7c0,0,1.4-0.6,1.2-2.7"/>
	<path class="st0" d="M218.7,281.7c0,0-2.9,0-2.2,2.1c0.8,2.1,0.6,1.5,1.6,1.5s2.1-1.4,2.2,0.6c0.1,2,0.3,2.7,1.4,2.6
		c1.1-0.1,1.6,0,1.5-1.7c-0.2-1.7,2.3-0.6,2.3-0.6s3.1,1.4,2.8-1.9c-0.3-3.3-2.5-2.5-2.5-2.5s-0.5-2.4-1.5-2.2c-1,0.2-1.9,0.1-2.5,0
		C221.1,279.4,217,276.9,218.7,281.7z"/>
	<path class="st0" d="M242.7,271.3c0,0-2-4.4,2.4-4.3c4.3,0.1,3.1,3.8,3.1,3.8l-0.3,0.5c0,0,2-2,4-0.8c2.1,1.2,2,5.1-0.8,5.6
		c0,0,1.7,2.3-0.2,3.6c-1.9,1.3-3.8,1.8-4.8-1.2c0,0-3.2,3.8-4.5,1.4c-1.3-2.4-1.4-3.7,0-4.2c0,0-4.6-0.8-2.3-3.6
		C241.6,269.1,242.7,271.3,242.7,271.3z"/>
	<path class="st0" d="M242,248.4c1.3,0.3,1.6,4.5,1.6,4.5c1.9-3.2,6-0.5,6-0.5c-0.3,3.4-3.6,5-3.6,5c1.4,5.7-0.5,5.1-0.5,5.1
		c-1.8,0.5-4.2-2.8-4.2-2.8c-0.4,1.8-6.1,2.3-6.1,2.3c-0.6-1.9,0.7-4.5,0.7-4.5s-4.2-2-3.5-5c0,0,2.7-1.1,4.4,0
		c1.8,1.1,0.8,0.5,0.8,0.5l-0.2-2.5"/>
	<path class="st0" d="M226.2,266.1c0,0-1.1-4,2.3-3.6c3.4,0.3,2.1,3,2.1,3l-0.4,0.6c0,0,4.7-1.4,4.2,1.2c-0.5,2.6-1.3,3.2-3.4,2.5
		c0,0,1.6,3.1,0.3,3.7c-1.3,0.6-3.4,0.8-3.9-2.6c0,0-1.3,3-2.9,2c-1.5-1-2.1-3.1,0.7-4.1c0,0-4.4-0.1-3.1-2.5
		C223.6,263.7,226.2,266.1,226.2,266.1z"/>
	<path class="st0" d="M389.1,201.2c0,0,1.5-9,7.5-8.6c6,0.4,2.6,7,2.6,7s5.4-1.5,5.8,1.6c0.4,3.1-3.1,5.1-3.1,5.1s3.2,4.7-1.2,6.2
		c-2.7,0.4-4.2-1.3-4.2-1.3s-0.8,0.1-0.3,1.4c0.5,1.2,0.3,5.9-2.4,6.2c-2.7,0.3-3.4-6.4-3.4-6.4s-3.9,0.9-3.2-1.1"/>
	<path class="st0" d="M402.7,225.6c0,0-2.1-5.9,2.4-7.8l2.1,2.1c0,0,3.7-1.3,4.9-0.2c1.3,1,1.3,1.6,1.3,1.6l-2.5,1.7l3,2.7
		c0,0-0.5,2.9-3.2,2.8c-2.6-0.1-4.7-1.2-5.1,0"/>
	<path class="st0" d="M396.6,214.3c0,0,4.1,2.4,4,3.1"/>
	<path class="st0" d="M399,212.6c0,0,5.5,3.4,5.4,5.2"/>
	<path class="st0" d="M402.9,219.7c0,0-2.2-5.1-5.2-0.9c-1.1,1.5,1.2,4.6,4.3,4.1"/>
	<path class="st0" d="M403.9,216.6c0,0-0.4-3.6,3.8-2.9c4.2,0.7,3.2,2.9,3.2,2.9"/>
	<path class="st0" d="M410.1,219.3l2.5-5c0,0,2.1-3,3.5-0.7c1.4,2.4,2.4,6,1.1,6.5c-1.3,0.5-5.3,3.7-5.3,3.7"/>
	<path class="st0" d="M413.9,225.6c0,0,4.6,0.5,6-5c1.4-5.5,2.7-3.4,2.7-3.4"/>
	<path class="st0" d="M415.2,227.6c0,0,0-2.2,1.7-2.7"/>
	<path class="st0" d="M345.6,195.5c0,0,5.3-3.7,6.4,1.5l0.8,1.1c0,0,2.8-1.6,3.3,0c0.4,1.6,0.9,5.5-2.6,5.5c0,0,1.9,2.4,0,2.7
		c-1.9,0.3-3.5-0.2-3.8-2.7c0,0-4.5,3.5-4.8,0.6c-0.3-2.9,0.7-3.1,0.7-3.1s-4-1.4-2-3.6"/>
	<path class="st0" d="M337.1,189c0,0,1.8-0.1,2.3-1c0.4-0.9,1.8-1.8,3.6-0.4c1.9,1.4,0,4.1,0,4.1l-0.4,0.9c0,0-0.2,0.6,0,0.7
		c0.2,0.1,4,1.6,2.3,3.4c-1.7,1.8-4.9,0-4.9,0s-1.6,0.4-1.1,1.7c0.5,1.3-2.2,2.8-2.8,2.4c-0.6-0.4-3.5,0-2.5-4.6
		c0,0-5.4-0.2-3.8-3.9c0.8-1.8,3-1,3-1s-4.1-2.8-1-5.2C334.9,183.9,337.1,189,337.1,189z"/>
	<line class="st0" x1="334.9" y1="205.5" x2="334" y2="199.9"/>
	<line class="st0" x1="336.9" y1="206.4" x2="334.9" y2="200.2"/>
	<path class="st0" d="M307.3,183.5c0,0-4.5,0.7-1.6,4.5c2.9,3.8,5.6,0,5.6,0s2.5,3.6,4.6,1.7c2.1-1.9,0.3-4.5,0.3-4.5s5.8-1.1,2-5.1
		c-3.8-4-5.1,0-5.1,0s-0.4-3.7-2.6-3.9c-2.2-0.2-6.3,2-3.9,5.2C309.1,184.5,307.3,183.5,307.3,183.5z"/>
	<path class="st0" d="M305.1,184l-1.2-0.7l0,0.7c0.2,2.1-1.6,2.5-3.2,2.3c-1.6-0.3-1.7-2.3-1.7-2.3s-1.9,1.7-3.5-0.3
		c-1.7-2,2.2-4.3,2.2-4.3c-0.7-0.6-2.6-0.6-1.2-3.8c1.4-3.1,4.8,0.4,4.8,0.4l0.3,0.3c0,0,1.2-2.7,3.2-2.2c2,0.5,1.6,2.6,1.6,2.6
		s-1,1.8-1.6,2l1.2,0.4"/>
	<path class="st0" d="M330.9,189.5c0,0-4.7,1.3-4.9-2.6c-0.3-3.8,3.7-4.3,4.1-3.4c0.3,0.9,1.3,1,1.3,1s1.5-1,1.7,0.5v0.5"/>
	<path class="st0" d="M377.2,174.8c0,0-1.3-4.2,2.4-3.9c3.7,0.3,1.7,4.4,1.7,4.4s4.4-2,4,0.7c-0.4,2.7-1.2,3-2.3,2.6
		c-1.2-0.5-0.7-0.3-0.7-0.3s2.4,2.6,1.5,3.3c-0.9,0.7-3,2.7-4-0.3c0,0-2.7,3.5-4,1.2c-1.3-2.3,1.3-4,1.3-4s-3.3,0.3-3-1.3
		C374.2,175.4,374.2,173.9,377.2,174.8z"/>
	<path class="st0" d="M249,183.5c0,0,1-3.3,4-2.1c3,1.1,1.3,4.2,1.3,4.2s4-1,3.4,3.1c-0.6,4-3.8,2.1-3.8,2.1s1.5,3.9-2,4.1
		c-3.5,0.2-3.2-3.3-3.2-3.3s-3,3.9-4.3,1.3c-1.3-2.6,0.5-4.7,1.8-5c0,0-4.6-2.6-1.6-5.8C247.6,178.9,249,183.5,249,183.5z"/>
	<path class="st0" d="M243.9,183.1c0,0-2.3-3.4-4.5-0.5c0,0-1.5-3.2-3.6-1.2c-2.1,2.1,0.4,4.1,0.4,4.1s-3,3.3-0.3,4.3
		c2.6,1,4.3-1.3,4.3-1.3s-0.1,2.9,3.1,2.1l1-0.8"/>
	<path class="st0" d="M271.1,206c0,0,0.5-2,1.7-1.9c1.2,0,2.2,1.4,2.9,1.5c0.7,0.1,3.4-0.5,4.5,0c1.1,0.5,1.8,0.9,1.8,0.9"/>
	<path class="st0" d="M315,178.2c0,0,1.6-0.2,2.5,1"/>
	<path class="st0" d="M344.8,145.8c0,0,0.3-3.2,3-2.6c2.6,0.6,1.2,3.3,1.2,3.3v0.5c0,0,1.4-0.8,1.9-0.6"/>
	<path class="st0" d="M344.1,132.1c0,0-2.4,3.1,0,4.3c2.4,1.2,4-1.5,4-2.5c0,0,3.5,1.2,4-0.5c0.5-1.7,0.6-3.9-2.1-3.7
		c0,0,2.6-3.2,0-4.1c-2.6-1-3.3,2.3-3.3,2.3l-0.2,0.5c0,0-2.7-2.6-4.1-0.9C341.1,129.1,341.5,131.4,344.1,132.1z"/>
	<path class="st0" d="M348.2,143.3c0,0,1.3-3.3-0.4-8"/>
	<path class="st0" d="M346.9,143.1c0,0,0.2-4.7-0.7-6.6"/>
	<path class="st0" d="M343.8,126.9c0,0-0.8-2.4,0-4.3"/>
	<path class="st0" d="M345.3,127.4c0,0-0.6-3.2,0.4-4.6"/>
	<path class="st0" d="M349.1,125.1c0,0-1.4-3.9,2.5-4.2c1.3,0.4,1.3,1.6,1.3,1.6s0.9-3.6,3.6-2.2c2.7,1.4,0.9,4.4,0.9,4.4
		s2.8-1.7,3.4,0.4c0.6,2.1-1,4.4-2.5,4l-0.6-0.3c0,0,0.9,4.1-2.8,3.9c-1.2,0-1.5-2.8-1.5-3.3l-1.1,0.6"/>
	<path class="st0" d="M348.7,122.8c-2.9,1-4.5-1-4.5-1s-2.3,2.1-3.5,1.8c-4.4-2.5,0.5-6.2,0.5-6.2l0.5-0.4c0,0-3.2-1.8-0.9-4.5
		c2.3-2.7,3.4-2.9,4.3-2.5c0.9,0.4,0.1-0.9,2.4-0.2c2.3,0.8,1.4,2.9,1.4,2.9s4.6-1.8,3.5,2.5c-1.1,4.3-3.7,1.7-3.7,1.7l1,4.5"/>
	<path class="st0" d="M364.4,95.4c0,0-1.4-6.3,3.8-6c5.2,0.3,3.6,6,3.6,6s4.5-2.5,4.8,2.1c0.2,4.6-3.6,3.5-3.6,3.5s4.3,5.9-0.4,7.3
		c-4.7,1.3-4.2-3.9-4.2-3.9s-3.5,5.2-6.3,3.1c-2.8-2.1,0-5.5,0-5.5s-6.2-1.1-4.3-5C359.6,92.9,364.4,95.4,364.4,95.4z"/>
	<path class="st0" d="M349.2,111.4c1.4-2,7.4-10,11.8-9.6"/>
	<path class="st0" d="M350.9,112.5c0,0,6.5-9.3,10.1-9.4"/>
	<path class="st0" d="M384.6,97.3c0,0-0.2-4.8,4-4.3c4.2,0.5,3.1,5.1,3.1,5.1l-0.2,0.4c0,0,3.1-1.8,5.2-1.4c1,0.2,1.7,0.9,1.9,2.5
		c0.5,5-3.1,5.8-5.8,4.9c0,0,0.4,6.5-2.8,6.4c-3.2-0.1-3.7-1.8-3.4-5.6c0,0-1.2,3.8-4.1,3.3s-3.5-5.3,0-6.6c0,0-6.6,0-4.3-4.5
		C380.5,92.9,384.6,97.3,384.6,97.3z"/>
	<path class="st0" d="M401.1,130c0,0-2.5-2.8-4.4,0c-2,2.8,1.4,4.3,1.4,4.3s-3.7,3-1.1,4.8c2.5,1.7,5.2-1.4,5.2-1.4
		s-0.2,3.7,2.7,3.7c2.9,0,2.8-4.2,2.8-4.2s4.5,0.3,4.1-2.5c-0.4-2.8-2.3-3.5-4.1-2.8c0,0,2.8-4.5-1.3-5.2
		C402.4,125.9,400.9,129,401.1,130z"/>
	<path class="st0" d="M392.8,105.5c0,0,2.2,2.5,2.7,7c0,0,0,1.2,1.9,2.3c1.4,0.9,4.5,2.8,5.9,3.7"/>
	<line class="st0" x1="390" y1="110.8" x2="390.9" y2="116.7"/>
	<path class="st0" d="M397.3,114.8c0,0,0.1,7.3-0.6,7.7"/>
	<path class="st0" d="M395.4,111.8c0,0,6.2,2.3,9.4,0.6"/>
	<path class="st0" d="M398.4,102.1c0,0,3.2-0.7,3.8,0"/>
	<path class="st0" d="M404.3,126.5c-1.3,0-0.8-2.1-0.8-2.1s-2.3,0.9-3.4-1.9c-1.1-2.9,2.8-3,2.8-3s0.5-2.9,2.7-1.9
		c2.2,1,1.1,2.9,1.1,2.9s3.2-1.6,3.7,0.2c0.5,1.8-1.7,3.5-2.8,3.1c0,0,0.2,2-0.7,2.4"/>
	<path class="st0" d="M407.5,109.4c0,0-1.7-2.3-2.7,0.3c-1,2.6,1.4,2.7,1.4,2.7h0.7c0,0-2.5,1.4-0.8,2.8c1.7,1.5,2.8-1.6,2.8-1.6
		s0.2,2.7,2.4,2c2.1-0.7,0.6-3.3,0.6-3.3s2.6,0.1,2.5-1.6c-0.1-1.7-1.4-1.8-2.5-1.2l-0.6,0.1c0,0,0.9-3.4-1.2-3.2
		C408,106.8,407.4,107.3,407.5,109.4z"/>
	<path class="st0" d="M409.8,122.9c0,0,3.3,2.2,3.5,2.6c0.2,0.5,1,1,1,1"/>
	<path class="st0" d="M417.3,124.3c0,0,1.3,0.4,1.7,3.2c0.4,2.8-2.3,4-2.7,4.1c-0.4,0.1-5.5-0.7-2.8-3.5c2.7-2.8-0.9-3,0.5-6
		c1.3-3,2.4-0.7,2.4-0.7s1.5-0.2,1.7-0.9c0.2-0.7,1.3,1.1,1,2.1c-0.3,1,1-0.6,1.9,0c0.9,0.6,1,2.6,0.6,2.9c-0.4,0.4,1.4,0.5,0.8,1.4
		c-0.6,0.9-0.8,2.8-0.8,2.8s-0.4,2.9-2.7,0.6"/>
	<path class="st0" d="M408.9,137.1c0,0,7.5,3.5,8.7,6.5c1.2,3,1.3,4.5,1.3,4.5l3,8.3c0,0-0.4,0.8-1,1.1c-0.6,0.2-2.8-0.8-2.4,2.6
		c0.5,3.4,2.5,5.7,3,5.8c0.5,0.1,2.1,0.2,1.2-2.2c-0.9-2.4,0.7-1.8,0.8-2.9c0.1-1.1,0.8-3.3-1.7-3.6"/>
	<path class="st0" d="M412.5,144.9c0,0-1.6-1.4-3.1,1.3c-1.5,2.7,0.4,4.7,0.4,4.7s1.2-0.2,1.1-1.6c-0.1-1.5,2.4-2.5,2.4-2.5
		S414.3,145,412.5,144.9z"/>
	<path class="st0" d="M414.3,140.5c0,0-1.9,3-1.6,4.4"/>
	<path class="st0" d="M412.7,139.2c0,0,1.5,0.3,1.1-1.2c-0.4-1.4-0.9-3.4,1.1-3.3c2,0.1,1.6,1.3,1.6,1.3s2.3-3.3,3.8-1.6
		c1.5,1.7-0.5,3.5-0.5,3.5s2.4-1,2.8,0.3c0.3,1.3-0.2,2.8-1.9,2.7c0,0,1.3,1.4-0.6,2.2c-1.8,0.8-2.9-0.6-2.9-0.6"/>
	<path class="st0" d="M418.6,146.5c0,0-0.9,0.9-1.5,2.7c-0.6,1.9-1.9,2.3-1.9,2.3"/>
	<path class="st0" d="M415.2,152.2c0,0-0.1-1.2-1.3-0.3c-1.2,0.9-1.9,3.4,0,4.3c1.9,0.9,4.1-2.6,3.7-3.9
		C417.2,151.1,415.5,151.9,415.2,152.2z"/>
	<path class="st1" d="M418.1,138.6c0,0.4-0.3,0.8-0.8,0.8c-0.4,0-0.8-0.3-0.8-0.8c0-0.4,0.3-0.8,0.8-0.8
		C417.8,137.9,418.1,138.2,418.1,138.6"/>
	<path class="st1" d="M404.5,131.9c0,0.3-0.3,0.6-0.6,0.6c-0.3,0-0.6-0.3-0.6-0.6c0-0.3,0.3-0.6,0.6-0.6
		C404.3,131.3,404.5,131.6,404.5,131.9"/>
	<path class="st1" d="M403.6,133.9c0,0.3-0.3,0.6-0.6,0.6c-0.3,0-0.6-0.3-0.6-0.6c0-0.3,0.3-0.6,0.6-0.6
		C403.3,133.3,403.6,133.6,403.6,133.9"/>
	<path class="st1" d="M405.6,133.8c0,0.3-0.2,0.5-0.5,0.5c-0.3,0-0.5-0.2-0.5-0.5c0-0.3,0.2-0.5,0.5-0.5
		C405.4,133.3,405.6,133.5,405.6,133.8"/>
	<path class="st1" d="M403,132.8c0,0.3-0.3,0.6-0.6,0.6c-0.3,0-0.6-0.3-0.6-0.6c0-0.3,0.3-0.6,0.6-0.6
		C402.7,132.2,403,132.5,403,132.8"/>
	<path class="st1" d="M404.8,135.4c0,0.2-0.2,0.4-0.4,0.4c-0.2,0-0.4-0.2-0.4-0.4c0-0.2,0.2-0.4,0.4-0.4
		C404.6,135,404.8,135.2,404.8,135.4"/>
	<path class="st1" d="M405.1,122.4c0,0.5-0.4,0.9-0.9,0.9c-0.5,0-0.9-0.4-0.9-0.9c0-0.5,0.4-0.9,0.9-0.9
		C404.7,121.5,405.1,121.9,405.1,122.4"/>
	<path class="st1" d="M410.4,111.2c0,0.4-0.4,0.8-0.8,0.8c-0.4,0-0.8-0.4-0.8-0.8c0-0.4,0.4-0.8,0.8-0.8
		C410.1,110.4,410.4,110.8,410.4,111.2"/>
	<ellipse class="st0" cx="391.3" cy="118.7" rx="2" ry="2"/>
	<ellipse class="st0" cx="396.7" cy="124.8" rx="2.2" ry="2.3"/>
	<circle class="st0" cx="404.2" cy="102.1" r="2.2"/>
	<circle class="st0" cx="367.5" cy="116" r="2.3"/>
	<circle class="st0" cx="360.9" cy="111.8" r="2"/>
	<circle class="st0" cx="350.9" cy="99.3" r="2.8"/>
	<path class="st0" d="M356.5,120.3c0,0,2.9-7.5,8.7-4.3"/>
	<path class="st0" d="M357.6,121.2c0,0,3.4-5.8,7.6-3.9"/>
	<path class="st0" d="M345.1,110.1c0,0,0.9-6.6,3.8-8.3"/>
	<path class="st0" d="M347.5,110c0,0,0.3-6.2,3.4-7.8"/>
	<path class="st0" d="M354,108.5c0,0,2.3-1.3,4.9,1.9"/>
	<path class="st1" d="M390,101.8c0,0.9-0.7,1.5-1.5,1.5c-0.9,0-1.5-0.7-1.5-1.5c0-0.9,0.7-1.5,1.5-1.5
		C389.3,100.3,390,101,390,101.8"/>
	<path class="st1" d="M368.8,95.6c0,0.6-0.5,1.1-1.1,1.1c-0.6,0-1.1-0.5-1.1-1.1c0-0.6,0.5-1.1,1.1-1.1
		C368.4,94.5,368.8,95,368.8,95.6"/>
	<path class="st1" d="M371.7,98.6c0,0.5-0.4,0.9-0.9,0.9c-0.5,0-0.9-0.4-0.9-0.9c0-0.5,0.4-0.9,0.9-0.9
		C371.3,97.6,371.7,98.1,371.7,98.6"/>
	<path class="st1" d="M365.8,98.6c0,0.5-0.4,1-1,1c-0.5,0-1-0.4-1-1c0-0.5,0.4-1,1-1C365.4,97.6,365.8,98.1,365.8,98.6"/>
	<path class="st1" d="M367,102.7c0,0.5-0.4,0.9-0.9,0.9c-0.5,0-0.9-0.4-0.9-0.9c0-0.5,0.4-0.9,0.9-0.9
		C366.6,101.8,367,102.2,367,102.7"/>
	<path class="st1" d="M371.3,102c0,0.4-0.3,0.7-0.7,0.7c-0.4,0-0.7-0.3-0.7-0.7c0-0.4,0.3-0.7,0.7-0.7
		C371,101.2,371.3,101.6,371.3,102"/>
	<polyline class="st0" points="367.7,96.1 367.7,98.9 369.8,98.6 	"/>
	<polyline class="st0" points="366.1,102.1 367.5,99.4 369.8,101.2 	"/>
	<line class="st0" x1="365.2" y1="98.6" x2="367.3" y2="98.9"/>
	<circle class="st0" cx="345.4" cy="116.2" r="1.6"/>
	<circle class="st0" cx="347.2" cy="131.3" r="1.5"/>
	<circle class="st0" cx="354.7" cy="126.5" r="1.8"/>
	<circle class="st0" cx="369.4" cy="176.3" r="2.5"/>
	<path class="st0" d="M365.9,181.4c0,0-0.4-2.7,1.3-3.4"/>
	<path class="st0" d="M367.2,182.4c0,0,0-3.6,1-3.6"/>
	<path class="st0" d="M346.1,150.3c0,0,1.6-1.6,2.6,0c1,1.6-0.9,2.4-1.3,2.4"/>
	<path class="st1" d="M354.8,162.4c0,0.5-0.4,0.9-0.9,0.9s-0.9-0.4-0.9-0.9c0-0.5,0.4-0.9,0.9-0.9S354.8,161.9,354.8,162.4"/>
	<path class="st1" d="M358.2,164.2c0,0.5-0.4,0.8-0.8,0.8c-0.5,0-0.8-0.4-0.8-0.8c0-0.5,0.4-0.8,0.8-0.8
		C357.8,163.4,358.2,163.7,358.2,164.2"/>
	<path class="st1" d="M356.5,166.5c0,0.5-0.4,0.8-0.8,0.8c-0.5,0-0.8-0.4-0.8-0.8c0-0.5,0.4-0.8,0.8-0.8
		C356.1,165.7,356.5,166.1,356.5,166.5"/>
	<path class="st1" d="M397.4,201.2c0,0.5-0.4,0.9-0.9,0.9c-0.5,0-0.9-0.4-0.9-0.9c0-0.5,0.4-0.9,0.9-0.9
		C397,200.3,397.4,200.7,397.4,201.2"/>
	<path class="st1" d="M397.8,205.6c0,0.4-0.4,0.8-0.8,0.8c-0.4,0-0.8-0.4-0.8-0.8c0-0.4,0.4-0.8,0.8-0.8
		C397.4,204.8,397.8,205.2,397.8,205.6"/>
	<path class="st1" d="M396.5,209.3c0,0.4-0.3,0.7-0.7,0.7c-0.4,0-0.7-0.3-0.7-0.7c0-0.4,0.3-0.7,0.7-0.7
		C396.2,208.5,396.5,208.9,396.5,209.3"/>
	<path class="st1" d="M394,210c0,0.4-0.3,0.7-0.7,0.7c-0.4,0-0.7-0.3-0.7-0.7c0-0.4,0.3-0.7,0.7-0.7C393.7,209.3,394,209.6,394,210"
		/>
	<path class="st0" d="M396.2,201.2c-1.1,0.5-2.9,3.6-2.9,3.6s-1.3,3.3,0,4.4"/>
	<line class="st0" x1="395.2" y1="208.8" x2="393.3" y2="205.5"/>
	<line class="st0" x1="396.5" y1="205.2" x2="393.6" y2="204.3"/>
	<circle class="st0" cx="367.6" cy="193.4" r="1.5"/>
	<circle class="st0" cx="397" cy="187.2" r="1.8"/>
	<path class="st0" d="M396.3,192.6c0,0-0.2-3.1,0.2-3.3"/>
	<circle class="st0" cx="410.8" cy="208.7" r="1.8"/>
	<circle class="st0" cx="423.4" cy="215.5" r="1.9"/>
	<circle class="st0" cx="337.5" cy="193.9" r="1.6"/>
	<circle class="st0" cx="350" cy="200.1" r="1.4"/>
	<circle class="st0" cx="325.1" cy="192" r="1.9"/>
	<circle class="st0" cx="319.4" cy="175" r="1.9"/>
	<circle class="st0" cx="311.6" cy="184.1" r="1.6"/>
	<circle class="st0" cx="301.7" cy="180.7" r="1.5"/>
	<path class="st1" d="M416.1,234.1c0,0.6-0.5,1.1-1.1,1.1c-0.6,0-1.1-0.5-1.1-1.1c0-0.6,0.5-1.1,1.1-1.1
		C415.6,233.1,416.1,233.6,416.1,234.1"/>
	<path class="st1" d="M421.6,236.1c0,0.6-0.4,1-1,1c-0.6,0-1-0.4-1-1c0-0.6,0.4-1,1-1C421.1,235.1,421.6,235.6,421.6,236.1"/>
	<path class="st1" d="M419.8,240.6c0,0.6-0.4,1-1,1c-0.6,0-1-0.4-1-1s0.4-1,1-1C419.3,239.6,419.8,240.1,419.8,240.6"/>
	<path class="st0" d="M415.2,234.1c0,0,0.7,3.6,1.3,3.7c0.6,0,1.7,2,1.7,2"/>
	<line class="st0" x1="414.4" y1="239.5" x2="419.5" y2="236.1"/>
	<circle class="st0" cx="388.5" cy="276" r="1.9"/>
	<path class="st1" d="M374.7,252.9c0,0.4-0.3,0.8-0.8,0.8s-0.8-0.3-0.8-0.8c0-0.4,0.3-0.8,0.8-0.8S374.7,252.5,374.7,252.9"/>
	<path class="st1" d="M375.7,255.2c0,0.4-0.3,0.7-0.7,0.7c-0.4,0-0.7-0.3-0.7-0.7c0-0.4,0.3-0.7,0.7-0.7
		C375.4,254.6,375.7,254.9,375.7,255.2"/>
	<path class="st1" d="M373.2,257.9c0,0.4-0.3,0.7-0.7,0.7c-0.4,0-0.7-0.3-0.7-0.7c0-0.4,0.3-0.7,0.7-0.7
		C372.9,257.2,373.2,257.5,373.2,257.9"/>
	<path class="st1" d="M370.1,256.6c0,0.4-0.3,0.7-0.7,0.7s-0.7-0.3-0.7-0.7c0-0.4,0.3-0.7,0.7-0.7S370.1,256.2,370.1,256.6"/>
	<path class="st1" d="M370.5,252.7c0,0.4-0.3,0.7-0.7,0.7c-0.4,0-0.7-0.3-0.7-0.7c0-0.4,0.3-0.7,0.7-0.7
		C370.2,252,370.5,252.3,370.5,252.7"/>
	<circle class="st0" cx="376.6" cy="280" r="1.3"/>
	<circle class="st0" cx="363.8" cy="285.1" r="1.4"/>
	<circle class="st0" cx="343.8" cy="282.9" r="1.2"/>
	<circle class="st0" cx="347.2" cy="284.1" r="1.2"/>
	<circle class="st0" cx="344.2" cy="286.5" r="1.2"/>
	<path class="st1" d="M406.5,260.9c0,0.3-0.3,0.6-0.6,0.6c-0.3,0-0.6-0.3-0.6-0.6c0-0.3,0.3-0.6,0.6-0.6
		C406.2,260.3,406.5,260.5,406.5,260.9"/>
	<path class="st1" d="M411,260.9c0,0.4-0.3,0.7-0.7,0.7c-0.4,0-0.7-0.3-0.7-0.7c0-0.4,0.3-0.7,0.7-0.7
		C410.7,260.2,411,260.5,411,260.9"/>
	<path class="st1" d="M408.8,264.9c0,0.3-0.3,0.6-0.6,0.6c-0.3,0-0.6-0.3-0.6-0.6c0-0.3,0.3-0.6,0.6-0.6
		C408.6,264.3,408.8,264.6,408.8,264.9"/>
	<path class="st0" d="M405.9,261.2c0,0,1.2,1.7,1.8,1.9c0.6,0.2,2.7-2.2,2.7-2.2"/>
	<path class="st0" d="M408.2,264.6c0,0,0.2-1.5-0.2-1.5"/>
	<path class="st1" d="M370.5,271.4c0,0.5-0.4,0.9-0.9,0.9c-0.5,0-0.9-0.4-0.9-0.9c0-0.5,0.4-0.9,0.9-0.9
		C370.1,270.5,370.5,270.9,370.5,271.4"/>
	<path class="st1" d="M367.9,274.1c0,0.5-0.4,0.9-0.9,0.9c-0.5,0-0.9-0.4-0.9-0.9s0.4-0.9,0.9-0.9
		C367.6,273.2,367.9,273.6,367.9,274.1"/>
	<path class="st1" d="M373.2,273.5c0,0.4-0.3,0.7-0.7,0.7c-0.4,0-0.7-0.3-0.7-0.7c0-0.4,0.3-0.7,0.7-0.7
		C372.9,272.8,373.2,273.1,373.2,273.5"/>
	<path class="st1" d="M369.2,277.5c0,0.4-0.4,0.8-0.8,0.8c-0.4,0-0.8-0.4-0.8-0.8c0-0.4,0.4-0.8,0.8-0.8
		C368.8,276.7,369.2,277.1,369.2,277.5"/>
	<polyline class="st0" points="369.6,271.4 369.8,274.3 367.9,274.1 	"/>
	<polyline class="st0" points="368.7,276.8 369.8,274.3 372.5,273.5 	"/>
	<path class="st0" d="M334.9,258.2c0,0,0-0.4,1,0c1,0.4,1.1,0.3,1.5-0.1c0.3-0.4,0.8-1,1.6-0.8c0.8,0.2,1.4,1.6,1.2,2.1
		c-0.2,0.5,1.6,0.1,1.5,0.8c-0.1,0.7,0.2,1.9-1.5,1.7s0.7,2-0.6,2.2c-1.3,0.1-1-0.9-2.6-1.4c-1.6-0.5-2.2,1.7-2.9,0.3
		c-0.7-1.4,0.2-1.5,0.6-2.8C334.9,258.8,334.3,258.3,334.9,258.2z"/>
	<path class="st1" d="M338.5,259.9c0,0.2-0.2,0.4-0.4,0.4c-0.2,0-0.4-0.2-0.4-0.4c0-0.2,0.2-0.4,0.4-0.4
		C338.3,259.5,338.5,259.7,338.5,259.9"/>
	<path class="st1" d="M336.7,260.6c0,0.2-0.2,0.4-0.4,0.4c-0.2,0-0.4-0.2-0.4-0.4c0-0.2,0.2-0.4,0.4-0.4
		C336.6,260.2,336.7,260.4,336.7,260.6"/>
	<path class="st1" d="M338.1,261.8c0,0.2-0.2,0.4-0.4,0.4c-0.2,0-0.4-0.2-0.4-0.4c0-0.2,0.2-0.4,0.4-0.4
		C337.9,261.4,338.1,261.6,338.1,261.8"/>
	<path class="st1" d="M317.5,275.1c0,0.5-0.4,0.8-0.8,0.8c-0.5,0-0.8-0.4-0.8-0.8c0-0.5,0.4-0.8,0.8-0.8
		C317.1,274.3,317.5,274.7,317.5,275.1"/>
	<path class="st1" d="M320.1,275c0,0.4-0.3,0.8-0.8,0.8c-0.4,0-0.8-0.3-0.8-0.8c0-0.4,0.3-0.8,0.8-0.8
		C319.7,274.3,320.1,274.6,320.1,275"/>
	<path class="st1" d="M317.5,278.4c0,0.5-0.4,0.8-0.8,0.8c-0.5,0-0.8-0.4-0.8-0.8c0-0.5,0.4-0.8,0.8-0.8
		C317.1,277.5,317.5,277.9,317.5,278.4"/>
	<path class="st1" d="M320.1,278.3c0,0.4-0.3,0.8-0.8,0.8c-0.4,0-0.8-0.3-0.8-0.8s0.3-0.8,0.8-0.8
		C319.7,277.5,320.1,277.9,320.1,278.3"/>
	<path class="st1" d="M313.4,235.4c0,0.2-0.2,0.4-0.4,0.4c-0.2,0-0.4-0.2-0.4-0.4c0-0.2,0.2-0.4,0.4-0.4
		C313.2,235,313.4,235.2,313.4,235.4"/>
	<path class="st1" d="M311.1,235.4c0,0.2-0.2,0.4-0.4,0.4c-0.2,0-0.4-0.2-0.4-0.4s0.2-0.4,0.4-0.4
		C310.9,235,311.1,235.2,311.1,235.4"/>
	<path class="st1" d="M311.6,237.8c0,0.3-0.2,0.5-0.5,0.5c-0.3,0-0.5-0.2-0.5-0.5c0-0.3,0.2-0.5,0.5-0.5
		C311.4,237.3,311.6,237.5,311.6,237.8"/>
	<path class="st1" d="M313.4,237.7c0,0.2-0.2,0.4-0.4,0.4c-0.2,0-0.4-0.2-0.4-0.4c0-0.2,0.2-0.4,0.4-0.4
		C313.2,237.3,313.4,237.5,313.4,237.7"/>
	<path class="st1" d="M306.8,201.9c0,0.6-0.5,1-1,1c-0.6,0-1-0.5-1-1c0-0.6,0.5-1,1-1C306.3,200.9,306.8,201.3,306.8,201.9"/>
	<path class="st1" d="M303.8,203.7c0,0.5-0.4,1-1,1c-0.5,0-1-0.4-1-1c0-0.5,0.4-1,1-1C303.3,202.7,303.8,203.1,303.8,203.7"/>
	<path class="st1" d="M311.6,202.2c0,0.5-0.4,0.8-0.8,0.8c-0.5,0-0.8-0.4-0.8-0.8c0-0.5,0.4-0.8,0.8-0.8
		C311.2,201.3,311.6,201.7,311.6,202.2"/>
	<path class="st1" d="M314.9,203.2c0,0.5-0.4,1-1,1c-0.5,0-1-0.4-1-1c0-0.5,0.4-1,1-1C314.5,202.2,314.9,202.6,314.9,203.2"/>
	<path class="st1" d="M304.4,220.4c0,0.2-0.2,0.4-0.4,0.4c-0.2,0-0.4-0.2-0.4-0.4c0-0.2,0.2-0.4,0.4-0.4
		C304.2,220,304.4,220.2,304.4,220.4"/>
	<path class="st1" d="M305,222.3c0,0.3-0.2,0.5-0.5,0.5c-0.3,0-0.5-0.2-0.5-0.5c0-0.3,0.2-0.5,0.5-0.5
		C304.8,221.8,305,222,305,222.3"/>
	<path class="st1" d="M306.6,220.8c0,0.2-0.2,0.4-0.4,0.4c-0.2,0-0.4-0.2-0.4-0.4c0-0.2,0.2-0.4,0.4-0.4
		C306.5,220.4,306.6,220.6,306.6,220.8"/>
	<path class="st1" d="M286.3,235.9c0,0.5-0.4,0.9-0.9,0.9c-0.5,0-0.9-0.4-0.9-0.9c0-0.5,0.4-0.9,0.9-0.9
		C285.9,235,286.3,235.4,286.3,235.9"/>
	<path class="st1" d="M281.5,236.4c0,0.5-0.4,1-1,1c-0.5,0-1-0.4-1-1c0-0.5,0.4-1,1-1C281.1,235.4,281.5,235.8,281.5,236.4"/>
	<path class="st1" d="M288.4,238.8c0,0.5-0.4,1-1,1c-0.5,0-1-0.4-1-1c0-0.5,0.4-1,1-1C288,237.8,288.4,238.3,288.4,238.8"/>
	<path class="st1" d="M284.5,239.2c0,0.5-0.4,0.9-0.9,0.9c-0.5,0-0.9-0.4-0.9-0.9c0-0.5,0.4-0.9,0.9-0.9
		C284,238.3,284.5,238.7,284.5,239.2"/>
	<path class="st1" d="M285.4,243.1c0,0.5-0.4,0.8-0.8,0.8c-0.5,0-0.8-0.4-0.8-0.8c0-0.5,0.4-0.8,0.8-0.8
		C285,242.3,285.4,242.7,285.4,243.1"/>
	<path class="st1" d="M275.3,254.9c0,0.5-0.4,0.8-0.8,0.8c-0.5,0-0.8-0.4-0.8-0.8c0-0.5,0.4-0.8,0.8-0.8
		C274.9,254.1,275.3,254.5,275.3,254.9"/>
	<path class="st1" d="M274,258.7c0,0.4-0.3,0.7-0.7,0.7c-0.4,0-0.7-0.3-0.7-0.7c0-0.4,0.3-0.7,0.7-0.7
		C273.6,257.9,274,258.3,274,258.7"/>
	<path class="st1" d="M277.9,261.9c0,0.5-0.4,0.9-0.9,0.9c-0.5,0-0.9-0.4-0.9-0.9c0-0.5,0.4-0.9,0.9-0.9
		C277.5,261,277.9,261.4,277.9,261.9"/>
	<path class="st1" d="M282.3,255.8c0,0.5-0.4,0.9-0.9,0.9c-0.5,0-0.9-0.4-0.9-0.9c0-0.5,0.4-0.9,0.9-0.9
		C282,254.9,282.3,255.3,282.3,255.8"/>
	<path class="st1" d="M282.6,261.2c0,0.5-0.4,0.9-0.9,0.9s-0.9-0.4-0.9-0.9c0-0.5,0.4-0.9,0.9-0.9S282.6,260.7,282.6,261.2"/>
	<path class="st1" d="M229.4,267.8c0,0.5-0.4,0.8-0.8,0.8c-0.5,0-0.8-0.4-0.8-0.8s0.4-0.8,0.8-0.8C229,267,229.4,267.3,229.4,267.8"
		/>
	<path class="st1" d="M223.1,283c0,0.5-0.4,0.9-0.9,0.9c-0.5,0-0.9-0.4-0.9-0.9c0-0.5,0.4-0.9,0.9-0.9
		C222.7,282.1,223.1,282.5,223.1,283"/>
	<path class="st1" d="M249,274.2c0,0.4-0.3,0.8-0.8,0.8c-0.4,0-0.8-0.3-0.8-0.8c0-0.4,0.3-0.8,0.8-0.8
		C248.6,273.4,249,273.8,249,274.2"/>
	<path class="st1" d="M244.4,274.7c0,0.5-0.4,0.9-0.9,0.9c-0.5,0-0.9-0.4-0.9-0.9c0-0.5,0.4-0.9,0.9-0.9
		C244,273.8,244.4,274.2,244.4,274.7"/>
	<path class="st1" d="M245.2,272.4c0,0.4-0.3,0.7-0.7,0.7c-0.4,0-0.7-0.3-0.7-0.7c0-0.4,0.3-0.7,0.7-0.7
		C244.9,271.7,245.2,272,245.2,272.4"/>
	<path class="st1" d="M247.4,276.9c0,0.5-0.4,0.8-0.8,0.8c-0.5,0-0.8-0.4-0.8-0.8c0-0.5,0.4-0.8,0.8-0.8
		C247,276,247.4,276.4,247.4,276.9"/>
	<path class="st1" d="M241.5,254.9c0,0.4-0.4,0.8-0.8,0.8c-0.4,0-0.8-0.4-0.8-0.8c0-0.4,0.4-0.8,0.8-0.8
		C241.2,254.1,241.5,254.5,241.5,254.9"/>
	<path class="st1" d="M240.7,256.9c0,0.4-0.3,0.7-0.7,0.7c-0.4,0-0.7-0.3-0.7-0.7c0-0.4,0.3-0.7,0.7-0.7
		C240.4,256.1,240.7,256.5,240.7,256.9"/>
	<path class="st1" d="M243.1,256.3c0,0.3-0.3,0.6-0.6,0.6c-0.3,0-0.6-0.3-0.6-0.6c0-0.3,0.3-0.6,0.6-0.6
		C242.8,255.7,243.1,256,243.1,256.3"/>
	<path class="st0" d="M358.9,268c0,0,2.9,0.8,3.6-0.5"/>
	<path class="st0" d="M303.2,203.7c0,0,2.9,2.4,4.6,2c1.7-0.4,5.6-2.1,5.6-2.1"/>
	<path class="st0" d="M305.8,201.9c0,0,0.7,3,1.5,3.3c0.9,0.4,2.9-2.5,2.9-2.5"/>
	<line class="st0" x1="370.1" y1="274.5" x2="371" y2="275.5"/>
	<polyline class="st0" points="280.5,236.4 283.1,238.8 284.5,243.1 	"/>
	<polyline class="st0" points="286.8,238.8 283.5,239.2 281.7,240.6 	"/>
	<line class="st0" x1="285" y1="236.4" x2="283.7" y2="238.8"/>
	<polyline class="st0" points="274.7,255.1 277.4,257.8 281.2,260.8 	"/>
	<polyline class="st0" points="273.5,258.7 277.6,258.2 281.5,255.9 	"/>
	<line class="st0" x1="277" y1="261.9" x2="277.6" y2="258.2"/>
	<path class="st0" d="M300.9,230c0,0-1.6-1-1.7,0.7c-0.1,1.7-0.3,2.1,0.6,2.1c0.9,0,1.5-1.5,2.1-1.5c0.6,0,2-1.3,1.3-1.6
		C302.5,229.4,302.2,229,300.9,230z"/>
	<circle class="st0" cx="293.3" cy="227.5" r="1"/>
	<circle class="st0" cx="279.2" cy="280.5" r="1.3"/>
	<circle class="st0" cx="278.6" cy="274.1" r="1.1"/>
	<circle class="st0" cx="273.9" cy="276.9" r="1.1"/>
	<circle class="st0" cx="273.8" cy="283.5" r="0.9"/>
	<circle class="st0" cx="281.2" cy="286" r="1.1"/>
	<circle class="st0" cx="285.7" cy="280.4" r="1.2"/>
	<path class="st0" d="M279.2,279.2c0,0,1-2,0-4.1"/>
	<path class="st0" d="M280,279.5c0,0,3.9,0,4.4,0.9"/>
	<path class="st0" d="M274.7,277.5c0,0,3.1,1.3,3.2,2.4"/>
	<path class="st0" d="M274.5,282.9c0,0,2.8-2.4,3.5-2"/>
	<path class="st0" d="M279.7,281.4c0,0,1.2,3,1.1,3.5"/>
	<path class="st0" d="M260.4,271.7c-0.2-0.5-1.3-0.7-1.1-1.7c0.2-1.1,1.2-2.1,2.2-1.4c0.9,0.7,0.3,0.9,1.2,0.9c0.9,0,1-1,1.8-0.4
		c0.8,0.7,0.7,2.6-0.3,2.5c-1.1,0-0.2,2.1-1.4,2.1C261.4,273.8,261.3,273.5,260.4,271.7z"/>
	<path class="st0" d="M255.2,286c0,0-1.6,1.7-1.2,2.9c0.4,1.2,2.8,1.9,3.3,0.5c0.5-1.4,0.1-2.6,1.9-2.6c1.8,0,0.9-2.3,0.9-2.3
		s-1.4-1-2.1-0.7C257.2,284.1,255.9,285.2,255.2,286z"/>
	<path class="st0" d="M272,294.6c0.3-0.4,0.8-0.5,1.2-0.3c0.2,0.1,0.5,0.3,0.7,0.6c0.8,0.9,3.2,0.9,2.6-1.1s-2.8-1.7-3.9-1.4
		c-1,0.2-3.3,0.6-3.4,1.1c-0.1,0.3-1.3,1.8-0.3,2.8C270,297.2,270.5,296.6,272,294.6z"/>
	<path class="st0" d="M260.4,291.6c0,0-1.1-0.5-0.8,0.6c0.3,1.1,1.5,2.1,2.5,1.5c1-0.6,0.3-2.2-0.4-2.2
		C261,291.5,260.4,291.6,260.4,291.6z"/>
	<circle class="st0" cx="242.2" cy="289.3" r="1.3"/>
	<circle class="st0" cx="313.9" cy="303.5" r="1.7"/>
	<circle class="st0" cx="421.7" cy="247.3" r="1.9"/>
	<circle class="st0" cx="260.3" cy="175.7" r="2.6"/>
	<circle class="st0" cx="266.6" cy="185.6" r="2.5"/>
	<circle class="st0" cx="225.6" cy="186.4" r="2.3"/>
	<circle class="st0" cx="220.5" cy="196.2" r="1.9"/>
	<circle class="st0" cx="228.4" cy="205.2" r="2.1"/>
	<circle class="st0" cx="235.3" cy="206.3" r="2.1"/>
	<circle class="st0" cx="274.3" cy="212.8" r="1.5"/>
	<circle class="st0" cx="278.6" cy="210.9" r="1.6"/>
	<path class="st1" d="M243.3,214.5c0,0.4-0.3,0.7-0.7,0.7c-0.4,0-0.7-0.3-0.7-0.7c0-0.4,0.3-0.7,0.7-0.7
		C243,213.8,243.3,214.1,243.3,214.5"/>
	<path class="st1" d="M247.4,216c0,0.4-0.3,0.7-0.7,0.7c-0.4,0-0.7-0.3-0.7-0.7c0-0.4,0.3-0.7,0.7-0.7
		C247,215.3,247.4,215.6,247.4,216"/>
	<path class="st1" d="M241.9,217.8c0,0.4-0.3,0.8-0.8,0.8c-0.4,0-0.8-0.3-0.8-0.8c0-0.4,0.3-0.8,0.8-0.8
		C241.5,217,241.9,217.4,241.9,217.8"/>
	<path class="st1" d="M243.9,220.7c0,0.5-0.4,0.9-0.9,0.9c-0.5,0-0.8-0.4-0.8-0.9c0-0.5,0.4-0.9,0.8-0.9
		C243.5,219.8,243.9,220.2,243.9,220.7"/>
	<path class="st1" d="M246.7,220.5c0,0.4-0.3,0.7-0.7,0.7c-0.4,0-0.7-0.3-0.7-0.7c0-0.4,0.3-0.7,0.7-0.7
		C246.4,219.8,246.7,220.1,246.7,220.5"/>
	<path class="st1" d="M212.6,232c0,0.6-0.5,1.1-1.1,1.1s-1.1-0.5-1.1-1.1c0-0.6,0.5-1.1,1.1-1.1S212.6,231.4,212.6,232"/>
	<path class="st1" d="M240.6,186.2c0,0.5-0.4,0.9-0.9,0.9c-0.5,0-0.9-0.4-0.9-0.9c0-0.5,0.4-0.9,0.9-0.9
		C240.2,185.3,240.6,185.7,240.6,186.2"/>
	<path class="st1" d="M249.6,186.2c0,0.3-0.3,0.6-0.6,0.6c-0.3,0-0.6-0.3-0.6-0.6s0.3-0.6,0.6-0.6
		C249.3,185.6,249.6,185.8,249.6,186.2"/>
	<path class="st1" d="M253.3,187.4c0,0.3-0.3,0.6-0.6,0.6s-0.6-0.3-0.6-0.6c0-0.3,0.3-0.6,0.6-0.6S253.3,187.1,253.3,187.4"/>
	<path class="st1" d="M249.6,189.1c0,0.3-0.3,0.6-0.6,0.6c-0.3,0-0.6-0.3-0.6-0.6s0.3-0.6,0.6-0.6
		C249.3,188.5,249.6,188.7,249.6,189.1"/>
	<path class="st1" d="M251.9,189.9c0,0.3-0.3,0.6-0.6,0.6c-0.3,0-0.6-0.3-0.6-0.6c0-0.3,0.3-0.6,0.6-0.6
		C251.7,189.3,251.9,189.6,251.9,189.9"/>
	<path class="st0" d="M244.5,272.4c0,0,0.9,0.7,1.2,2.2c0.2,1.6,0.8,1.9,0.8,1.9"/>
	<path class="st0" d="M243.5,274.7c0,0,3.4,0.5,4,0"/>
	<circle class="st0" cx="222.5" cy="254.6" r="1.2"/>
	<circle class="st0" cx="198.9" cy="247" r="1.9"/>
	<circle class="st0" cx="194.5" cy="248.9" r="1.9"/>
	<circle class="st0" cx="189.9" cy="245.4" r="1.9"/>
	<line class="st0" x1="188.8" y1="252.8" x2="187.3" y2="256.9"/>
	<path class="st0" d="M198.3,255.4c0,0-1.4-0.3-1.3,0.7c0.1,1,1.6,3,3.2,1.2C201.7,255.4,198.8,254.4,198.3,255.4z"/>
	<path class="st0" d="M206.8,266.3c0,0-0.9-1.1-1.9-0.3c-1,0.8-0.3,1.6,0.3,2.1c0.6,0.5,2.8,1.9,3.2,1.3c0.4-0.5,0.4-2.3,0-2.8
		C207.9,266.2,206.8,266.3,206.8,266.3z"/>
	<path class="st0" d="M206,274.4c0,0-4.5-1.2-4.2,2.3c0.2,3.5,5.7,0,5.7,0S209.5,275.1,206,274.4z"/>
	<path class="st0" d="M209.8,259.5c0,0,1.1-1.3,2-0.5c0.9,0.7,1.9,1.3,1.5,2.3c-0.4,0.9-1.9,1.8-2.6,1.3c-0.8-0.5-2.4-1.7-2-2.3
		C209.1,259.4,209.8,259.5,209.8,259.5z"/>
	<line class="st0" x1="243" y1="215.1" x2="245.5" y2="220.1"/>
	<polyline class="st0" points="241.1,217.8 244.2,217.5 243,220.7 	"/>
	<line class="st0" x1="246.7" y1="216" x2="244.6" y2="217"/>
	<line class="st0" x1="320.8" y1="209.9" x2="322.2" y2="210.3"/>
	<circle class="st0" cx="240.2" cy="229.4" r="2"/>
	<line class="st0" x1="241.9" y1="232.6" x2="240.9" y2="231.4"/>
	<circle class="st0" cx="218.6" cy="222.1" r="2.2"/>
	<circle class="st0" cx="202.9" cy="223.9" r="2.1"/>
	<circle class="st0" cx="207.9" cy="241.4" r="1.7"/>
	<circle class="st0" cx="186.6" cy="238.3" r="1.4"/>
	<circle class="st0" cx="180.1" cy="242.9" r="1.2"/>
	<circle class="st0" cx="212.7" cy="253.9" r="1.2"/>
	<path class="st0" d="M236.4,198.7l16.8,5.4c3.1,3,6,3.2,6,3.2h3.8l4,1.8h16.8l4.9,1.3l3.8-1.3"/>
	<path class="st0" d="M235.7,195.8l3.5,1.1c0,0,7.2,0.7,10.7,2.6"/>
	<line class="st0" x1="250.7" y1="194.9" x2="252.1" y2="200.3"/>
	<circle class="st0" cx="282" cy="179.1" r="1.1"/>
	<path class="st0" d="M508.8,225c0,0,0.7-10.5-8.3-8.9c-9,1.6-7.3,7.1-5,12.6c0,0-0.8,1-1.9,1s-12.3-3-10.4,8.1
		c2,11.2,11.2,4,11.2,4s-5.3,9,2.8,11.8c8.1,2.7,10.8-6.1,10.6-6.9c-0.2-0.8,4.4,5,10.5,2.7c6.1-2.3,5.8-8.8,2.6-10.9
		c-3.1-2.1-5.1-2-5.1-2s13.5-3.9,7.3-13.3C516.9,213.9,508.8,225,508.8,225z"/>
	<path class="st0" d="M456.2,232.1c0,0,1.1-7.8-5.8-7.1c-6.8,0.7-5.9,5-4.4,9.2c0,0-0.6,0.7-1.4,0.6c-0.8-0.1-9.1-2.9-8.2,5.5
		c0.9,8.5,8.1,3.6,8.1,3.6s-4.4,6.5,1.5,9c5.9,2.5,8.4-4,8.3-4.6c-0.1-0.6,3,4,7.7,2.6c4.7-1.4,4.8-6.3,2.6-8
		c-2.2-1.7-3.7-1.7-3.7-1.7s10.3-2.2,6.2-9.6C462.9,224.3,456.2,232.1,456.2,232.1z"/>
	<path class="st0" d="M510.8,288.6c0,0,7.3,4.5,9.4-2c2.1-6.6-2.5-7.6-7.3-8.2c0,0-0.4-0.9,0-1.6c0.4-0.7,6.6-7-2.2-10
		c-8.7-3-6.9,5.8-6.9,5.8s-4.6-7-9.5-2.7c-4.9,4.3,0.5,9.5,1.2,9.7c0.6,0.2-5.2,1-5.7,5.9c-0.5,4.9,4.3,7.2,6.9,6
		c2.6-1.3,3.2-2.6,3.2-2.6s-2,10.4,7,10C515.9,298.3,510.8,288.6,510.8,288.6z"/>
	<path class="st0" d="M579.2,279.7c0,0,7.8-1.6,5-7.3c-2.8-5.6-6.5-3.4-10.1-0.8c0,0-0.9-0.3-1.1-1c-0.2-0.7,0-8.8-7.8-5.2
		c-7.8,3.5-0.9,8.2-0.9,8.2s-7.5-1.7-8.1,4.2c-0.5,5.9,6.4,5.9,6.9,5.6s-2.9,3.9-0.1,7.5c2.7,3.6,7.5,2.1,8.4-0.4
		c0.9-2.5,0.5-3.8,0.5-3.8s5.3,8.1,11,2.1C588.7,282.9,579.2,279.7,579.2,279.7z"/>
	<path class="st0" d="M477.8,213.8c0,0-7.3-4,0.1-8.2c7.4-4.3,8,3.8,8.3,4.5c0.3,0.7,1.1,0.9,1.1,0.9c3.3-3,6.9-5.5,10.2-0.2
		c3.3,5.3-4.3,7.7-4.3,7.7s0.6,0.1,1.4,0.4c-1.9,2.5-0.7,6.2,0.9,9.8c0,0-0.8,1-1.9,1c-0.3,0-1.3-0.2-2.6-0.3
		c-2.5-1-4.3-3.3-4.3-3.3s0.5,1.2-0.1,3.7c-1.3,0.5-2.4,1.3-3,2.8c-1.7,0.5-3.7,0.2-5.3-1.5c-3.1-3.3-0.1-7.8-0.6-7.4
		c-0.5,0.3-7.4,1-7.4-4.9C470.1,212.8,477.8,213.8,477.8,213.8z"/>
	<path class="st0" d="M580.8,206.1c0.6-2.5,1.9-10.9-6.9-11.7c-10.3-0.9-5.8,10.9-5.8,10.9s-2.3-1.9-4.9-2.4"/>
	<path class="st0" d="M588.6,204.9c-1.3-0.7-2.8-1-4-0.6c-1.4,0.5-2.4,1-3,1.5"/>
	<path class="st0" d="M591.9,211.2c0.2-1.5-0.2-2.9-0.8-4"/>
	<path class="st0" d="M587.4,223.8c-0.2-3-2.5-5.7-2.9-5.9c-0.6-0.2,3.8-0.3,6.1-3.2"/>
	<path class="st0" d="M568.7,231.2c6,1,5.3-6.7,5.3-6.7s1.1,2.1,2.9,3.8"/>
	<path class="st0" d="M556.1,210.4c0.2,3.7,4.2,5.1,8.3,6.2c0,0,0.4,1.1-0.2,1.8c-0.4,0.6-5.9,4.9-2.4,9.1"/>
	<path class="st0" d="M522.3,264.2c9.9-2.6,20.3-6.1,26.6-6.3c10.7-0.4,10.2,2,15.1-4.5c4.9-6.4,11.4-10.7,12.9-10.7
		c1.5,0,4.8,3.6,11.4-1.9c4.6-2.7,9,0,9,0l10.9,7.5c0,0,2.4,3.4,9.2,1.5c6.8-1.9,7.1-3.6,12.1,0.7c1.5,1.5,9.9,0.3,9.9,0.3l1,1
		l4.8,3.2l4.9-2.1h4.8l6.1-0.3l4.1,1.5"/>
	<path class="st0" d="M479,263.6c1.7,0.4,2.9,0.7,2.9,0.7s3.3,6.9,7.9,6.2c4.6-0.6,2.7-3.9,14.2-3.2c0.2,0,0.5,0,0.7,0"/>
	<path class="st0" d="M450.9,258.8c1.2,0.1,2.1,0.2,2.4,0.4c1.4,0.7,2.6,4.9,5.4,4.9s2.2,0.5,3.9,0c1.7-0.5,0.7-2.9,7.5-2.2
		c0.8,0,2.2,0.3,3.7,0.6"/>
	<path class="st0" d="M432,245.3c0,0,0.5,7.5,0.7,8.8c0.2,1.2,1.6,4.3,3.6,4.3"/>
	<line class="st0" x1="447.6" y1="268.6" x2="453.6" y2="274.8"/>
	<line class="st0" x1="450.6" y1="265.5" x2="456.3" y2="270.6"/>
	<line class="st0" x1="443.5" y1="250.9" x2="442.6" y2="253.5"/>
	<path class="st0" d="M486.1,260.7c2.1,0.7,3.7,1.6,4.5,2.7c1,0,8.6-1.4,8.6-1.4"/>
	<path class="st0" d="M452.2,252c0,0,7.5,0.4,10.6,3.1c1,0.8,3.6,1.5,7,2.1"/>
	<path class="st0" d="M524.8,256.2l4.8-1.1c0,0,6.6,0.8,11.7-1c5.2-1.8,6.8,0.3,8.9-0.7c2-1,3.7-3.4,3.7-3.4l5.3,1
		c0,0,7.8-6.7,8.1-7.5c0.3-0.8,3.3-4.8,3.3-4.8s3.2,1,7.6,0c4.4-1,6,0,6,0s6.5-1.6,7.8-3.3c1.3-1.6,9.8-4.5,14.7-3.3
		c4.9,1.2,10.2,2.6,11.2,1.6c1-1,1.9-6.8,1.9-6.8l7.8-3.1l1.9-0.7l-7.2,5.3l-0.3,5.2l1.5,0.7l6.8-4.4l5.3-2l4-1.4h4.8l1.4-1"/>
	<path class="st0" d="M640.6,226.6l-10,5.9l-4.8,4.1l-11.6-1.2l-10.9,0.1l-6.1,2.5l0.7,1l4.5,1.8l5.1,3.1l2.2,0.8l3.1,2.7
		c0,0,8.9-2.3,11.1-1.9c2.2,0.4,4.1,1.9,4.1,1.9l5.2-4l1.5-1.8h3.4l-2.6,1l-4.9,6.7l10.1,0.5l10.2-0.5l-8.2,1.5l3.8,2.7h2.7"/>
	<polyline class="st0" points="534.4,266.6 532.6,264.5 529,262.4 	"/>
	<polyline class="st0" points="533.6,261.1 538.9,267 553.5,267 546.7,268.6 551.6,273 551.6,274.8 547,270.6 537.8,270.6 
		537.7,270.4 	"/>
	<polyline class="st0" points="462.9,228.5 465.1,221.8 470.1,220.6 	"/>
	<path class="st0" d="M465.5,239.2c0,0,4.3-0.1,5.9-1.1c1.6-1,0.4-3,4.3-3.1c3.9,0,4.1,0.8,4.1,0.8l2.8-0.2"/>
	<path class="st0" d="M485.1,242.5c0,0-4.6-0.8-6.3,0.8c-1.6,1.6-5.8,1.6-6.4,1.2c-0.7-0.3-5.9,0.9-5.9,0.9h-0.6"/>
	<path class="st0" d="M524.3,230.3h3.4c0,0,3.3-1.2,5.2-3.8c2-2.6,10.8-9.8,19.2-9.1c1,0,3.3-6.5,3.3-6.5l6.5-4.7l2.9-7.7l3.1-6.1
		c0,0,7.7-2.8,8.8-2.1c1.1,0.7,4.6-5.2,4.6-5.2l-4.6,3.4L569,190l1.1-3.6l2.6-1.3l2.5-4.6l12.1-4.7"/>
	<polyline class="st0" points="551.9,208.2 557.7,204.3 563.1,192.2 566.8,186.3 572.2,179.8 582.3,177.6 	"/>
	<polyline class="st0" points="523.6,224.1 527.9,224.1 543.9,214 547,211.4 	"/>
	<path class="st0" d="M577.8,232.9c0,0,8.8-2.5,11-6.3c3-6.7,8.5-4.7,8.5-4.7l8-4.3l-8,1.1l-5.3,1.3l-7.8,6.7c0,0-7.8,0.9-10.5,3.8"
		/>
	<path class="st0" d="M624.1,188.1l-3.6,6.3c0,0-7.4,0.9-8,3.5l0.4,0.2c2.4,1.4,6.4,4,7.6,5.6"/>
	<line class="st0" x1="628.1" y1="195.5" x2="620.5" y2="194.3"/>
	<line class="st0" x1="615.7" y1="204.3" x2="617.2" y2="200.9"/>
	<polyline class="st0" points="602.5,193 600.4,199.6 590.3,204.3 585.2,205.8 569.1,206.9 561,206.9 	"/>
	<polyline class="st0" points="586.1,207.8 595.5,213.3 601.2,213.3 	"/>
	<polyline class="st0" points="581.7,209.1 592.7,215.9 597.2,214.9 	"/>
	<path class="st0" d="M572.9,238.6c0,0,5.9-0.9,4.1-5.3c-1.8-4.4-4.8-2.9-7.6-1.1c0,0-0.6-0.3-0.7-0.8c-0.1-0.5,0.4-6.6-5.6-4.3
		c-6,2.3-1.1,6.1-1.1,6.1s-5.6-1.7-6.3,2.8c-0.7,4.4,4.5,4.8,4.9,4.6c0.2-0.1-0.5,0.8-0.9,2.1"/>
	<path class="st0" d="M514.8,225c0,0-5.5,11-8.8,3.5c-0.9-1.4-1.2-2.9-2.2-1.5c0,0.6,0,3.9-1.6-0.5c0-1.3-0.2-4.1-2.2-4.1
		c-2,0-0.5,3.8-0.5,3.8l0.7,0.8c0,0-1.9-1.6-2-0.9c-0.1,0.7,2.3,3.5,1.9,4.9c-0.4,1.4-1.6,2.4-1.9,2.5c-0.3,0.1-6.3-0.4-6.5,0
		c-0.3,0.4-1.4,1.4,1.8,1.4c3.2,0,2.7,2.1,2.7,2.1s-0.6,1.2-1.1,1.4c-0.5,0.2-1.2,1.4,1.8,1.2c3-0.3,1,1.6,1,1.6s-0.9,2,1.7,1
		c2.6-1-2.9,5.7,0.7,6.2c0.7,0,1.4-3.1,1.4-4.6c0.1-1.5,1.4,1.8,1.7,1.6c0.3-0.2,0.9-2,0.6-3.2c-0.3-1.2,1.9-1.8,3.6,0
		c1.6,1.8,0.1-1.5,2.1-1.8c2-0.3,1.9,6,6.3,5.3c0.8-0.4,0.4-1.3-1.8-2c-2.3-0.7-1.6-4.1-1.6-4.1s3.1,0.3,0.6-1.7
		c-2.5-2-0.8-4.7-0.8-4.7s6.8-1.4,5.4-3.6c-0.5-1.2-2.7,1.3-3.6,1.2c-0.8-0.1-1.5-1.6,0.9-3.1C517.6,226.3,516.1,224,514.8,225z"/>
	<path class="st0" d="M506,235c0,0,1.6-0.1,1.2-1.4c-0.4-1.3-1.5-0.7-1.5-0.7s-1.4,0.4-1.1,1C505,234.5,504.4,235,506,235z"/>
	<path class="st0" d="M502.8,235.4c0,0-0.3,1.2-1.2,1.2c-0.9,0-1.3-1-0.9-1.6c0.4-0.6,0.3-1,1-0.9
		C502.4,234.3,503,234.2,502.8,235.4z"/>
	<path class="st0" d="M508,236.7c0,0,1.5-0.1,1.4,1.3c-0.1,1.5-2.1,0.9-2.1,0.9S505.4,237.2,508,236.7z"/>
	<path class="st0" d="M503.9,237.1c0,0,1.5,0.2,1.5,1.3c0,1.1-1.5,1.3-1.5,1.3s-1.8-0.3-1.5-1.3
		C502.7,237.4,503.9,237.1,503.9,237.1z"/>
	<path class="st0" d="M487.5,217.6c0,0,1.3-3.5-2.1-1.6c-1,0-2.2-1.4-2.7-1c-0.6,0.3-1.7,2.2-0.4,2.7s2.6,2.1,2,2.6
		c-0.6,0.5-2.3,0.8-1.6,1.7c0.7,0.9,1.8,2,3.9,0c0.6-0.9,2.2,0.9,2.6,0c0.4-0.9,1-2.5,0.4-2.9C489.1,218.4,487.3,218.4,487.5,217.6z
		"/>
	<path class="st0" d="M452.5,237.9c0,0,1.5-0.1,1.4,1.3c-0.1,1.5-1.3,1.5-1.4,1.5c-0.1,0-1.9-0.3-1.3-1.5
		C451.9,238.1,451.3,238,452.5,237.9z"/>
	<path class="st0" d="M451.5,234.5c0,0,1.3-0.7,0.7-1.6c-0.6-0.9-1.5-0.6-1.5-0.6s-1.4,0.7-0.8,1.5
		C450.3,234.6,450.9,235,451.5,234.5z"/>
	<path class="st0" d="M458.5,236c0,0,2.1,0.5,0.7,1.9c-1.3,1.4-2,0.4-2,0.4s-0.3-1.1,0-1.5C457.5,236.4,457.7,235.6,458.5,236z"/>
	<path class="st0" d="M457.5,242.3c0,0,1.8,0.9,0.5,2c-1.3,1.1-1.6-0.7-1.6-0.7S456.4,242.3,457.5,242.3z"/>
	<path class="st0" d="M451,244.6c0,0,1.1,1,0.5,1.6c-0.5,0.6-1.4,1.1-1.9,0.6c-0.5-0.5-0.1-1.8,0-1.9
		C449.7,244.9,450.7,244.3,451,244.6z"/>
	<path class="st0" d="M447.6,239.3c0,0,1,0.6,0.6,1.5c-0.4,0.8-1.2,0.9-1.2,0.9s-1.6-1.1-0.9-1.9
		C446.7,238.9,447.6,239.3,447.6,239.3z"/>
	<line class="st0" x1="451.5" y1="234.5" x2="452.2" y2="237.9"/>
	<line class="st0" x1="457.1" y1="237.1" x2="454" y2="238.2"/>
	<line class="st0" x1="456.8" y1="242.6" x2="453.6" y2="240.2"/>
	<line class="st0" x1="452.2" y1="240.7" x2="451" y2="244.6"/>
	<line class="st0" x1="451.3" y1="239.3" x2="448" y2="239.7"/>
	<path class="st0" d="M516,219.7c0,0,8.3-9.2,8.3-11.7l9-2"/>
	<path class="st0" d="M533.2,208.2c0,0-2.2,3.6-4.3,3.9l-2.1,0.3v-0.9l-6.2,8.2"/>
	<path class="st0" d="M541.3,208.2c0,0-1.6,5.5-7.2,3.8c-1.8-2.4-0.8-6.7,0-7c0.8-0.3-6.7-1.1-3.5-6.1c3.2-5,8.4,0,8.4,0
		s-1.6-5.3,3.8-4.5c5.3,0.8,4.7,4.8,4.7,4.8s6.6-1.9,7.5,1.8c1,3.7-2.4,4-4.1,4.1c-1.7,0.1,3.8,3.8-0.6,5.6
		C545.8,212.4,541.3,208.2,541.3,208.2z"/>
	<path class="st0" d="M513.9,249.9c1.5,0.4,1.3,5.3,1.3,5.3s4.3-5.4,9.6-1.7c0,0,1.4,5.8-5.4,7.1c0,0,6.1,4.7,2.6,10
		c0,0-5.2,0-7.3-3.3l-0.7,1.4"/>
	<path class="st0" d="M507.3,265.5c0,0,0.1-1,0-2c-0.1-1-6.5,0.9-8.1-1.9c0,0-0.8-4.7,6.8-4.5l2.1,0c0,0-2.2-2.6-1.3-7.1"/>
	<path class="st0" d="M465.9,274.8c0,0,4.6-1.3,3.2-6.1c0,0-4.5-0.6-5.2,1.9v0.6c0,0-3.6-4.2-5.5-4c-1.9,0.2-2.3,3.4-1.7,5.2
		l0.4,1.2c0,0-3.5,0.4-4.1,2.1l-0.6,1.7c0,0,1.8,2.7,5.5,0c0,0-1.8,5.7,1.1,7.6c0,0,4.5-1,4.4-4.8c0,0,5.6,2.3,6.8-0.2
		C470.2,279.8,470.7,275.9,465.9,274.8z"/>
	<path class="st0" d="M578.1,243.1c4.1,4,0.7,8.9,0.7,8.9s8.5-1.4,10.7,1.3c0,0-0.3,5.5-7.7,5.8h-1.2c0,0,5,6.8,0,9.8"/>
	<path class="st0" d="M577.4,269c-2,0-4.4-3.6-4.4-3.6l-1.2,0.6"/>
	<path class="st0" d="M568.3,248.7c0,0-0.3,0.3,0.4,0.3c0.7-0.1,2.4,1.4,2.4,1.4l-0.1-1.1c-0.1-1.1,0.8-2.2,0.8-2.2l1.5-2.4"/>
	<path class="st0" d="M563.2,254.5c0,0,1.2,2.2,2.2,2.6c0,0-3.8,3-3.6,7.4c0,0,2.1,1.2,3.9,0.6"/>
	<path class="st0" d="M562.4,247.9c0,0,1.2-5.9-4.8-5.4c-3.8,0.6-4,1.5-4,1.5s-3.5-3.6-5-3.4c-1.5,0.2-3.9,0.5-4.1,7.2
		c0,0-3.4-1-4.6-0.3c-1.1,0.6-3.2,2.1-2.2,4c1,1.9,2.6,1.9,2.6,1.9l0.9,0.7"/>
	<path class="st0" d="M556.1,250.4c0,0-2.1-4.8-5-1.2l-0.6,0.7c0,0-2.1-1.3-2.5,0.5c-0.4,1.8-0.4,2.3,1.4,3.3"/>
	<path class="st0" d="M554.5,258c0,0,4.3,0.6,5.9,5.2l1.4,0.6"/>
	<path class="st0" d="M562.7,267c0,0-3.6-0.1-6.9-3.6c-3.3-3.6-5.1-5-5.1-5L550,258"/>
	<path class="st0" d="M543.9,258.6c0,0-0.3,4.2,3.9,4.5c4.2,0.2,4.1-3.5,4.1-3.5"/>
	<path class="st0" d="M556.3,252.5c0,0-1.6-0.3-1.8,0.9"/>
	<line class="st0" x1="528.3" y1="258" x2="524.9" y2="258.6"/>
	<path class="st0" d="M518.8,288.9c0,0,6.7,3.6,7.8,6.1c1,2.6,4.6,4.7,6.7,4.9c2.2,0.2,3,1.8,3,1.8"/>
	<path class="st0" d="M519.9,287.2c0,0,6.2,1.7,7.6,5.2c1.4,3.5,1.4,4.3,3.3,5c1.9,0.7,3.6,2.8,3.6,2.8"/>
	<path class="st0" d="M562.2,289.4c0,0-7.6,2.7-7.7,2.9c-0.1,0.2-0.2,1.7-3.6-0.5c-3.4-2.2-8.8-0.6-8.8-0.6s-2.7-0.3-3,0
		c-0.3,0.3-9.8,4.5-10.7,3.7"/>
	<path class="st0" d="M563.8,291.7l-8.4,3.6c0,0-2,1.1-3.9,0c-2-1.1-3.8-2.7-5.2-2.3c-1.4,0.4-3.1,1.2-5.8,1.2c-2.7,0-10.3,3-10.3,3
		"/>
	<path class="st0" d="M536.3,273.6c0,0,8.7-2,6.3,4.3c-0.5,1.7-4.9,2.2-6.3,1.5c0,0,2.6,6.7-1.9,6.9c-4.5,0.1-3.5-6.5-3.5-6.5
		s-4.9,5.5-7.3,2.6c-2.4-2.9,1.7-6.2,2.9-6.4c0,0-4.9-2.6-3.7-6c1.2-3.4,6.6-1.5,6.8,0.5l0.3,1.1c0,0,1.6-6.2,5.5-4.7
		C539.3,268.5,536.3,273.6,536.3,273.6z"/>
	<path class="st0" d="M573.6,179.5c0,0,1.1-2.9-0.8-4.3c-2-1.4-2.6,0-2.6,0s-0.8-2.2-2.6-2c-1.8,0.1-3.6,2-3.2,3.2
		c0,0-2.6,0.7-2.5,2.3c0.1,1.7,1.1,4,2.5,3.8c0,0,0.3,2.9,3.3,2.7"/>
	<path class="st0" d="M598.1,218.1c0,0-0.5,0-0.9-0.6c-0.1-5,5.3-4.2,5.3-4.2s-0.6-5.3,4.3-4.8c5,0.5,4,6.1,4,6.1l0.1,0.5
		c0,0,3.5-2.5,4.4,0.8c0.9,3.3-2.3,4.5-3.7,4.2c0,0,2.6,4.6-1.3,5.4c-4,0.7-4.6-2.9-4.6-2.9s-1.4,3.9-4.4,2.5
		c-3-1.4-1.7-4.6-1.7-4.6"/>
	<path class="st0" d="M562.5,166.1c0,0,1.8,18-4.6,20.1l-5.9,12"/>
	<path class="st0" d="M548.9,198.2c0,0,6.2-10.7,6.2-12.5c0,0,6.3-1.7,7.5-17.6"/>
	<polyline class="st0" points="556.1,190.8 560.4,189.5 563.4,185.2 563.2,186.4 561.1,191.4 554.7,193.5 	"/>
	<path class="st0" d="M581.3,209.3c0,0,2.8,2.8-0.6,3.6c-3.4,0.8,0,2.6,0,2.6s1.4,2.7-1.5,2.6c-2.9-0.1-3.9-0.1-4.6,1.2
		c-0.7,1.2-2.7,1.4-3.1-0.7c-0.4-2-2.7-2.6-3.3-2.7c-0.5-0.1-2.5-2.9-1.1-3.4c1.4-0.5,0-3.4,0-3.4"/>
	<path class="st0" d="M498.2,213.9c0,0,15.3-6.5,17.8-4.9c0,0,14.1-17.1,18.2-19.1"/>
	<path class="st0" d="M497.5,210.7c0,0,4.5-2.9,9.8-3.2c5.4-0.3,8.7-2.3,8.7-2.3l10.8-8.5"/>
	<line class="st0" x1="559.4" y1="199.6" x2="555.1" y2="199.9"/>
	<line class="st0" x1="558.7" y1="201.9" x2="555.4" y2="201.9"/>
	<path class="st0" d="M633.1,251.4c0,0,1.2,4.5-2.2,4.7c0,0,3,2.8,0,3.9c-3,1-3.6-2.4-3.6-2.4s-2.2,2.7-3.3,2.4
		c-1.1-0.3-4.3-1.4-0.6-4.8c0,0-4-1.8-1.7-3.8c2.3-2,3.5,0,3.5,0s-0.3-2.9,0.7-3.2"/>
	<path class="st0" d="M580.6,280.3l6.9-2.1l14,3.5h8c0,0,9.5-6.9,17.7-9.2h4.5l9.7-5.2"/>
	<line class="st0" x1="641.9" y1="275.6" x2="633.7" y2="271.3"/>
	<path class="st0" d="M626.1,272.8c0,0-9.2,5.4-9.2,6c0,0.5,0.9,1,0.9,1h2.7l3.1,2"/>
	<path class="st0" d="M622,282.3c0,0-8.3-0.3-8.7-0.6c-0.3-0.2-4.2,2.5-4.7,2.5c-0.6,0-8-0.4-9.9-1.3c-2-0.9-9.3-2.1-9.9-2.1
		c-0.6,0-3.9,1.7-3.9,1.7"/>
	<path class="st0" d="M491.4,282c0,0-1-4.1-4.5-3.2c-3.5,0.9-2.8,3.2-2.8,3.2s-2.5-1.2-3.2,0c-0.8,1.2-1.8,5.3,1.2,5.6
		c0,0-0.9,3.9,2.1,4.1c3,0.2,3.7-3.1,3.7-3.1s0.5,3,3.4,1.6"/>
	<path class="st0" d="M485.7,278.7l-0.6-1.2c0,0,4.9,0.6,4.6-3.7c-0.3-4.3-4-2.1-4-2.1h-0.6v-3"/>
	<path class="st0" d="M482.1,264.7c0,0-4.8-0.1-4.8,3.4v1.1v0.7l-0.5,0.8c0,0-1-2.5-3.1-1.8c-2.2,0.6-3.3,1-2.3,5"/>
	<path class="st0" d="M480,282.4l-2.2-1.8c0,0,2.7-0.2,2.2-3.3c-0.5-3.1-4.4-0.8-4.4-0.8s-0.4-3.6-3.7-2.8c-3.3,0.8-1.7,3.7-1.7,3.7
		"/>
	<path class="st0" d="M480,284.9c0,0-3,3-5.1-1c0,0-0.1,3.6-2.9,3.3c-2.8-0.3-1.8-4.8-1.8-4.8s-2.3-0.4-2.6-1.4"/>
	<path class="st0" d="M480.1,259.1c0,0,0,5.4-3,5.5c-3,0.1-4.5-2.9-3.6-5.5l0.1-1.2c0,0-3.9,0.2-4.1-1.2c0,0-1.8-1-1.2-4.1
		c0.6-3.2,5.9-0.6,5.9-0.6l-0.3-0.4c0,0-2.6-4.1,1.2-5.4c3.8-1.3,5.1,3.7,5.1,3.7s0.9-5.3,5.3-1.4c4.4,3.8-1.6,6-1.6,6
		s4.3,0.7,4,2.9c-0.2,2.2-1.7,3.4-1.7,3.4S483.9,263,480.1,259.1z"/>
	<path class="st0" d="M444.1,258c0,0-1-5.6-5.2-4.9c-4.2,0.7-1.9,6.7-1.9,6.7l0.4,0.5c0,0-6.1-2.8-5.4,2.3c0.6,5.1,5.2,2.9,5.2,2.9
		s-2.8,6.4,1.7,7.1c4.4,0.7,4.2-5.4,4.2-5.4s3.6,3.6,6.4,0.9c2.8-2.7-2.4-6-2.4-6s6.6-1.3,2.4-5.9C445.2,251.5,444.1,258,444.1,258z
		"/>
	<polyline class="st0" points="480.1,253 478.4,255.3 476.5,253.5 	"/>
	<polyline class="st0" points="477.7,257.2 478.4,255.3 480.6,256.4 	"/>
	<line class="st0" x1="475.9" y1="255.3" x2="477.7" y2="255.3"/>
	<path class="st0" d="M461.3,260.7c0,0-1.9,1-2.9-0.5"/>
	<path class="st0" d="M477.7,241.4c0,0-2.1,1.8-3.1,0.9"/>
	<path class="st0" d="M441.5,245.2l-2.7,7h-1.1l-1.3-8.5c-0.5-0.2-2.1-1.5-2.1-1.5s-1.1,3.5-5.6,2.4c-4.5-1.1-0.9-6-0.9-6
		s0.7,0-0.7,0c-1.4,0-4.5-3.7-1.8-6.4c2.6-2.7,5.6,1.2,5.6,1.2s-0.3-5,3.5-5.3c3.8-0.3,4.7,4,4.7,4s0.1,1-0.1,1.2
		c-0.2,0.3,2-0.4,2.7,0l0.7,0.4"/>
	<path class="st0" d="M432.8,254.6c0,0-4.8-4.8-7.8-5.6c-2.9-0.8-2.5-1.2-2.5-1.2"/>
	<path class="st0" d="M505.2,278.7c0,0-1.7-1.5-2.9-0.7c-1.2,0.8-0.1,1.3-1,1.7c-0.9,0.4-3.2,1.1-2.8,2.7c0.4,1.6-2.1,2.4-2.1,2.4
		s-1.7,1.5,0,1.4c1.7-0.1,2.4-2,3.7-1.4c1.2,0.6,0.2,2.5,2.8,2.3c2.6-0.1,0,3.5,2.4,3.4c2.4-0.1,3.4-1.4,2.9-3.4
		c-0.5-2,3.1,1.4,3.2-0.9c0.1-2.3,3.8-2.3,0-3.5c-3.8-1.2-1.9-3.4-1.9-3.4s1.1-3.8-0.4-2.9C507.6,277.4,506.9,280.3,505.2,278.7z"/>
	<path class="st0" d="M472.1,214.8c0,0-3.9,1.6-3.9,1.1c0-0.5-0.2-2-0.2-2l0.2-2.5c0,0,6.4-4.7,5.9-5.3c-0.5-0.6-0.1-4.4,0.5-5.5
		c0.6-1.1,0.9-3.8,0.9-3.8"/>
	<path class="st0" d="M485.7,197.4c0,0-0.6,4.4-4.1,3.8c-3.5-0.7-2.8-4.4-2.8-4.4s-3.8,2-4.2-2.5c-0.4-4.5,3.2-3.2,4-3.1
		c0.8,0.2-2.6-3.1-0.9-4.6c1.7-1.5,4.3-2,5.3,1c0,0,3.1-3.9,5.3-1c2.1,3,0.8,4.9-1,5.4c0,0,5,1.3,4.1,3.5
		C490.4,197.8,488.1,199.7,485.7,197.4z"/>
	<path class="st0" d="M470.1,182.4c-0.8,10.7-6.6,15.5-5.9,13.2c0.7-2.4-1.3-11.6-1.3-11.6l-3.2-3.1v2.6c0,0,1.6,5.2,1.9,6.5
		c0.3,1.4-0.7,13.1-0.7,13.1s0.5,4.9,1.9,8.4c1.4,3.5,0,5.3,0,5.3l-1.8,3l-4.9,10.6"/>
	<polyline class="st0" points="474.6,194.3 466.5,210 465.5,210 465.5,204.3 464.4,199.6 468.9,195.5 469.7,185.4 	"/>
	<path class="st0" d="M485.3,185.4c0,0,11.6-14,13.9-21.2c2.3-7.3,9.1-24.8,9.1-24.8"/>
	<path class="st0" d="M499.8,162.4c0,0-5.6,9.6-7.1,10.5c-1.5,0.9-11.3,11.6-11.3,11.6l-0.5,0.5"/>
	<path class="st0" d="M493.5,172.1c-1,1.3-4,1.5-5.1-0.9c-1.1-2.4,2.2-5,2.2-5c-2.1,1.4-5.3-0.9-5.3-0.9s-1.1-3.9,1.1-5
		c2.3-1.1,4.2,0.8,4.2,0.8s-3.3-6.5,0.9-7.8c4.2-1.3,4.7,4.4,4.7,4.4v1.1c0,0,3.9-5.8,5.9-3c1.8,2.7,1.8,5.4-0.6,6.4
		c-0.2,0.1-0.4,0.1-0.6,0.2c0,0,5.3,6.4-0.5,7.3c0,0-2.7-0.2-2.7-2.1"/>
	<path class="st0" d="M496.8,144.4c0,0,1.8-3.9-1.3-5c0,0-0.6,0.1-1.3-1.7c-0.7-1.9-2.6,1.3-3.1,1.7c-0.5,0.4-2.6,3.8,1.4,5.7
		C496.5,147,496.8,144.4,496.8,144.4z"/>
	<path class="st0" d="M499.8,155.3c0,0,1.1-8.2-2.5-10.7"/>
	<path class="st0" d="M498.1,156.5c0,0,0-10.6-1.3-10.7"/>
	<path class="st0" d="M540.3,232.9c0,0,0.4-2.7-2.2-2.5c-2.6,0.1-1.8,2.5-1.8,2.5s-3.7-1.4-3.5,1c0.2,2.5,1.3,2.8,1.3,2.8
		s-1.9,1-1,2.3c0.9,1.3,1.9,3.5,4.2,1.2c0,0,3.2,2.8,4.2,0.5c1.1-2.3-0.9-3.6-0.9-3.6s4.2-0.1,3.5-2.1
		C543.6,233,542.3,231.2,540.3,232.9z"/>
	<path class="st0" d="M551.9,213.4c0,0-0.4,2.5-3.4,1.8"/>
	<path class="st0" d="M550,217.8c0,0,2.1,3.7,0.2,4.6c-2,0.9,1.4,1.4-0.2,2.8c-1.6,1.4-3.8,0-3.8,0s-1.3-0.2-1.3,0.6
		c0,0.8-1.8,2.4-2.9,2.1c-1-0.3-1.8-1.7-0.7-3.4c0,0-2.8-1-1.4-3.6"/>
	<path class="st0" d="M582.7,266l2.1,0.7c-0.8-4.1,2.5-5.7,2.5-5.7c2.5,0.7,3.2,5.7,3.2,5.7s0.3-2.6,6.1-2.2c0,0,1,4.3-3.5,6.3
		c0,0,3,2.3,2.3,5l-0.3,1.4c0,0-4.5,0.9-5.4-1.8c0,0-0.3,3-1.5,3"/>
	<path class="st0" d="M585.8,278.8c0,0-1.4-0.6-1.2-2.7"/>
	<path class="st0" d="M631.6,281.7c0,0,2.9,0,2.2,2.1c-0.8,2.1-0.6,1.5-1.6,1.5s-2.1-1.4-2.2,0.6c-0.1,2-0.3,2.7-1.4,2.6
		c-1.1-0.1-1.6,0-1.5-1.7c0.2-1.7-2.3-0.6-2.3-0.6s-3.1,1.4-2.8-1.9c0.3-3.3,2.5-2.5,2.5-2.5s0.5-2.4,1.5-2.2c1,0.2,1.9,0.1,2.5,0
		C629.2,279.4,633.2,277,631.6,281.7z"/>
	<path class="st0" d="M607.5,271.3c0,0,2-4.4-2.4-4.3c-4.3,0.1-3.1,3.8-3.1,3.8l0.3,0.5c0,0-2-2-4-0.8c-2.1,1.2-2,5.1,0.8,5.6
		c0,0-1.7,2.3,0.2,3.6c1.9,1.3,3.8,1.8,4.8-1.2c0,0,3.2,3.8,4.5,1.4c1.3-2.4,1.4-3.7,0-4.2c0,0,4.6-0.8,2.3-3.6
		C608.7,269.1,607.5,271.3,607.5,271.3z"/>
	<path class="st0" d="M608.2,248.4c-1.3,0.3-1.6,4.5-1.6,4.5c-1.9-3.2-6-0.5-6-0.5c0.3,3.4,3.6,5,3.6,5c-1.4,5.7,0.5,5.1,0.5,5.1
		c1.8,0.5,4.2-2.8,4.2-2.8c0.4,1.8,6.1,2.3,6.1,2.3c0.6-1.9-0.7-4.5-0.7-4.5s4.2-2,3.5-5c0,0-2.7-1.1-4.4,0
		c-1.8,1.1-0.8,0.5-0.8,0.5l0.2-2.5"/>
	<path class="st0" d="M624,266.1c0,0,1.1-4-2.3-3.6c-3.4,0.3-2.1,3-2.1,3l0.4,0.6c0,0-4.7-1.4-4.2,1.2c0.5,2.6,1.3,3.2,3.4,2.5
		c0,0-1.6,3.1-0.3,3.7c1.3,0.6,3.4,0.8,3.9-2.6c0,0,1.3,3,2.9,2c1.5-1,2.1-3.1-0.7-4.1c0,0,4.4-0.1,3.1-2.5
		C626.6,263.7,624,266.1,624,266.1z"/>
	<path class="st0" d="M461.1,201.3c0,0-1.5-9-7.5-8.6c-6,0.4-2.6,7-2.6,7s-5.4-1.5-5.8,1.6c-0.4,3.1,3.1,5.1,3.1,5.1
		s-3.2,4.7,1.2,6.2c2.7,0.4,4.2-1.3,4.2-1.3s0.8,0.1,0.3,1.4c-0.5,1.2-0.3,5.9,2.4,6.2c2.7,0.3,3.4-6.4,3.4-6.4s3.9,0.9,3.2-1.1"/>
	<path class="st0" d="M447.5,225.7c0,0,2.1-5.9-2.4-7.8l-2.1,2.1c0,0-3.7-1.3-4.9-0.2c-1.3,1-1.3,1.6-1.3,1.6l2.5,1.7l-3,2.7
		c0,0,0.5,2.9,3.2,2.8c2.6-0.1,4.7-1.2,5.1,0"/>
	<path class="st0" d="M453.6,214.3c0,0-4.1,2.4-4,3.1"/>
	<path class="st0" d="M451.3,212.6c0,0-5.5,3.4-5.4,5.2"/>
	<path class="st0" d="M447.3,219.8c0,0,2.2-5.1,5.2-0.9c1.1,1.5-1.2,4.6-4.3,4.1"/>
	<path class="st0" d="M446.4,216.6c0,0,0.5-3.6-3.8-2.9c-4.2,0.7-3.2,2.9-3.2,2.9"/>
	<path class="st0" d="M440.1,219.3l-2.5-5c0,0-2.1-3-3.5-0.7c-1.4,2.4-2.4,6-1.1,6.5c1.3,0.5,5.3,3.7,5.3,3.7"/>
	<path class="st0" d="M436.3,225.7c0,0-4.6,0.5-6-5c-1.4-5.5-2.7-3.4-2.7-3.4"/>
	<path class="st0" d="M435,227.7c0,0,0-2.2-1.7-2.7"/>
	<path class="st0" d="M504.6,195.5c0,0-5.3-3.7-6.4,1.5l-0.8,1.1c0,0-2.8-1.6-3.3,0c-0.4,1.6-0.9,5.5,2.6,5.5c0,0-1.9,2.4,0,2.7
		c1.9,0.3,3.5-0.2,3.8-2.7c0,0,4.5,3.5,4.8,0.6c0.3-2.9-0.7-3.1-0.7-3.1s4-1.4,2-3.6"/>
	<path class="st0" d="M513.1,189c0,0-1.8-0.1-2.3-1c-0.4-0.9-1.8-1.8-3.6-0.4c-1.9,1.4,0,4.1,0,4.1l0.4,0.9c0,0,0.2,0.6,0,0.7
		c-0.2,0.1-4,1.6-2.3,3.4c1.7,1.8,4.9,0,4.9,0s1.6,0.4,1.1,1.7c-0.5,1.3,2.2,2.8,2.8,2.4c0.6-0.4,3.5,0,2.5-4.6c0,0,5.4-0.2,3.8-3.9
		c-0.8-1.8-3-1-3-1s4.1-2.8,1-5.2S513.1,189,513.1,189z"/>
	<line class="st0" x1="515.3" y1="205.6" x2="516.2" y2="199.9"/>
	<line class="st0" x1="513.3" y1="206.4" x2="515.3" y2="200.2"/>
	<path class="st0" d="M542.9,183.5c0,0,4.5,0.7,1.6,4.5c-2.9,3.8-5.6,0-5.6,0s-2.5,3.6-4.6,1.7c-2.1-1.9-0.3-4.5-0.3-4.5
		s-5.8-1.1-2-5.1c3.8-4,5.1,0,5.1,0s0.4-3.7,2.6-3.9c2.2-0.2,6.3,2,3.9,5.2C541.1,184.5,542.9,183.5,542.9,183.5z"/>
	<path class="st0" d="M545.1,184.1l1.2-0.7l0,0.7c-0.2,2.1,1.6,2.5,3.2,2.3c1.6-0.3,1.7-2.3,1.7-2.3s1.9,1.7,3.5-0.3
		c1.7-2-2.2-4.3-2.2-4.3c0.7-0.6,2.6-0.6,1.2-3.8c-1.4-3.1-4.8,0.4-4.8,0.4l-0.3,0.3c0,0-1.2-2.7-3.2-2.2c-2,0.5-1.6,2.6-1.6,2.6
		s1,1.8,1.6,2l-1.2,0.4"/>
	<path class="st0" d="M519.4,189.5c0,0,4.7,1.3,4.9-2.6c0.3-3.8-3.7-4.3-4.1-3.4c-0.3,0.9-1.3,1-1.3,1s-1.5-1-1.7,0.5v0.5"/>
	<path class="st0" d="M473,174.8c0,0,1.3-4.2-2.4-3.9c-3.7,0.3-1.7,4.4-1.7,4.4s-4.4-2-4,0.7c0.4,2.7,1.2,3,2.3,2.6
		c1.2-0.5,0.7-0.3,0.7-0.3s-2.4,2.6-1.5,3.3c0.9,0.7,3,2.7,4-0.3c0,0,2.7,3.5,4,1.2c1.3-2.3-1.3-4-1.3-4s3.3,0.3,3-1.3
		C476.1,175.4,476,173.9,473,174.8z"/>
	<path class="st0" d="M601.2,183.5c0,0-1-3.3-4-2.1c-3,1.1-1.3,4.2-1.3,4.2s-4-1-3.4,3.1c0.6,4,3.8,2.1,3.8,2.1s-1.5,3.9,2,4.1
		c3.5,0.2,3.2-3.3,3.2-3.3s3,3.9,4.3,1.3c1.3-2.6-0.5-4.7-1.8-5c0,0,4.6-2.6,1.6-5.8C602.6,178.9,601.2,183.5,601.2,183.5z"/>
	<path class="st0" d="M606.3,183.2c0,0,2.3-3.4,4.5-0.5c0,0,1.5-3.2,3.6-1.2c2.1,2.1-0.4,4.1-0.4,4.1s3,3.3,0.3,4.3
		c-2.6,1-4.3-1.3-4.3-1.3s0.1,2.9-3.1,2.1l-1-0.8"/>
	<path class="st0" d="M579.1,206.1c0,0-0.5-2-1.7-1.9c-1.2,0-2.2,1.4-2.9,1.5c-0.7,0-3.4-0.5-4.5,0c-1.1,0.5-1.8,0.9-1.8,0.9"/>
	<path class="st0" d="M535.2,178.3c0,0-1.6-0.2-2.5,1"/>
	<path class="st0" d="M505.5,145.8c0,0-0.3-3.2-3-2.6c-2.6,0.6-1.2,3.3-1.2,3.3v0.5c0,0-1.4-0.8-1.9-0.6"/>
	<path class="st0" d="M506.1,132.1c0,0,2.4,3.1,0,4.3c-2.4,1.2-4-1.5-4-2.5c0,0-3.5,1.2-4-0.5c-0.5-1.7-0.6-3.9,2.1-3.7
		c0,0-2.6-3.2,0-4.1c2.6-1,3.3,2.3,3.3,2.3l0.2,0.5c0,0,2.7-2.6,4.1-0.9C509.1,129.2,508.7,131.4,506.1,132.1z"/>
	<path class="st0" d="M502,143.3c0,0-1.3-3.3,0.4-8"/>
	<path class="st0" d="M503.4,143.1c0,0-0.2-4.7,0.7-6.6"/>
	<path class="st0" d="M506.4,126.9c0,0,0.8-2.4,0-4.3"/>
	<path class="st0" d="M504.9,127.4c0,0,0.6-3.2-0.4-4.6"/>
	<path class="st0" d="M501.1,125.2c0,0,1.4-3.9-2.5-4.2c-1.3,0.4-1.3,1.6-1.3,1.6s-0.9-3.6-3.6-2.2c-2.7,1.4-0.9,4.4-0.9,4.4
		s-2.8-1.7-3.4,0.4c-0.6,2.1,1,4.4,2.5,4l0.6-0.3c0,0-0.9,4.1,2.8,3.9c1.2,0,1.5-2.8,1.5-3.3l1.1,0.6"/>
	<path class="st0" d="M501.5,122.9c2.9,1,4.5-1,4.5-1s2.3,2.1,3.5,1.8c4.4-2.5-0.5-6.2-0.5-6.2l-0.5-0.4c0,0,3.2-1.8,0.9-4.5
		c-2.3-2.7-3.4-2.9-4.3-2.5c-0.9,0.4-0.1-0.9-2.4-0.2c-2.3,0.8-1.4,2.9-1.4,2.9s-4.6-1.8-3.5,2.5c1.1,4.3,3.7,1.7,3.7,1.7l-1,4.5"/>
	<path class="st0" d="M485.9,95.4c0,0,1.4-6.3-3.8-6c-5.2,0.3-3.6,6-3.6,6s-4.5-2.5-4.8,2.1c-0.2,4.6,3.6,3.5,3.6,3.5
		s-4.3,5.9,0.4,7.3c4.7,1.3,4.2-3.9,4.2-3.9s3.5,5.2,6.3,3.1c2.8-2.1,0-5.5,0-5.5s6.2-1.1,4.3-5C490.7,93,485.9,95.4,485.9,95.4z"/>
	<path class="st0" d="M501.1,111.4c-1.4-2-7.4-10-11.8-9.6"/>
	<path class="st0" d="M499.4,112.5c0,0-6.5-9.3-10.1-9.4"/>
	<path class="st0" d="M465.6,97.3c0,0,0.2-4.8-4-4.3c-4.2,0.5-3.1,5.1-3.1,5.1l0.2,0.4c0,0-3.1-1.8-5.2-1.4c-1,0.2-1.7,0.9-1.9,2.5
		c-0.5,5,3.1,5.8,5.8,4.9c0,0-0.4,6.5,2.8,6.4c3.2-0.1,3.7-1.8,3.4-5.6c0,0,1.2,3.8,4.1,3.3s3.5-5.3,0-6.6c0,0,6.6,0,4.3-4.5
		C469.8,92.9,465.6,97.3,465.6,97.3z"/>
	<path class="st0" d="M449.1,130c0,0,2.5-2.8,4.5,0c2,2.8-1.4,4.3-1.4,4.3s3.7,3,1.1,4.8c-2.5,1.7-5.2-1.4-5.2-1.4s0.2,3.7-2.7,3.7
		c-2.9,0-2.8-4.2-2.8-4.2s-4.5,0.3-4.1-2.5c0.4-2.8,2.3-3.5,4.1-2.8c0,0-2.8-4.5,1.3-5.2C447.8,126,449.3,129.1,449.1,130z"/>
	<path class="st0" d="M457.4,105.5c0,0-2.2,2.5-2.7,7c0,0,0,1.2-1.9,2.3c-1.4,0.9-4.5,2.8-5.9,3.7"/>
	<line class="st0" x1="460.2" y1="110.9" x2="459.4" y2="116.7"/>
	<path class="st0" d="M452.9,114.8c0,0-0.1,7.3,0.6,7.7"/>
	<path class="st0" d="M454.9,111.9c0,0-6.2,2.3-9.4,0.6"/>
	<path class="st0" d="M451.9,102.2c0,0-3.2-0.7-3.8,0"/>
	<path class="st0" d="M446,126.6c1.3,0,0.8-2.1,0.8-2.1s2.3,0.9,3.4-1.9c1.1-2.9-2.8-3-2.8-3s-0.5-2.9-2.7-1.9s-1.1,2.9-1.1,2.9
		s-3.2-1.6-3.7,0.2c-0.5,1.8,1.7,3.5,2.8,3.1c0,0-0.2,2,0.7,2.4"/>
	<path class="st0" d="M442.7,109.4c0,0,1.7-2.3,2.7,0.3c1,2.6-1.4,2.7-1.4,2.7h-0.7c0,0,2.5,1.4,0.8,2.8c-1.7,1.5-2.8-1.6-2.8-1.6
		s-0.2,2.7-2.4,2c-2.1-0.7-0.6-3.3-0.6-3.3s-2.6,0.1-2.5-1.6c0.1-1.7,1.4-1.8,2.5-1.2l0.6,0.1c0,0-0.9-3.4,1.2-3.2
		C442.3,106.8,442.9,107.4,442.7,109.4z"/>
	<path class="st0" d="M440.5,122.9c0,0-3.3,2.2-3.5,2.6c-0.2,0.5-1,1-1,1"/>
	<path class="st0" d="M433,124.3c0,0-1.3,0.4-1.7,3.2c-0.4,2.8,2.3,4,2.7,4.1c0.4,0.1,5.5-0.7,2.8-3.5c-2.7-2.8,0.9-3-0.5-6
		c-1.3-3-2.4-0.7-2.4-0.7s-1.5-0.2-1.7-0.9c-0.2-0.7-1.3,1.1-1,2.1c0.3,1-1-0.6-1.9,0c-0.9,0.6-1,2.6-0.6,2.9
		c0.4,0.4-1.4,0.5-0.8,1.4c0.6,0.9,0.8,2.8,0.8,2.8s0.4,2.9,2.7,0.6"/>
	<path class="st0" d="M441.3,137.1c0,0-7.5,3.5-8.7,6.5c-1.2,3-1.3,4.5-1.3,4.5l-3,8.3c0,0,0.4,0.8,1,1.1c0.6,0.2,2.8-0.8,2.4,2.6
		c-0.5,3.4-2.5,5.7-3,5.8c-0.5,0.1-2.1,0.2-1.2-2.2c0.9-2.4-0.7-1.8-0.8-2.9c-0.1-1.1-0.8-3.3,1.7-3.6"/>
	<path class="st0" d="M437.8,144.9c0,0,1.6-1.4,3.1,1.3c1.5,2.7-0.4,4.7-0.4,4.7s-1.2-0.2-1.1-1.6c0.1-1.5-2.4-2.5-2.4-2.5
		S435.9,145,437.8,144.9z"/>
	<path class="st0" d="M435.9,140.6c0,0,1.9,3,1.6,4.4"/>
	<path class="st0" d="M437.5,139.2c0,0-1.5,0.3-1.1-1.2c0.4-1.4,0.9-3.4-1.1-3.3c-2,0.1-1.6,1.3-1.6,1.3s-2.3-3.3-3.8-1.6
		c-1.5,1.7,0.5,3.5,0.5,3.5s-2.4-1-2.8,0.3c-0.3,1.3,0.2,2.8,1.9,2.7c0,0-1.3,1.4,0.6,2.2c1.8,0.8,2.9-0.6,2.9-0.6"/>
	<path class="st0" d="M431.6,146.5c0,0,0.9,0.9,1.5,2.7c0.6,1.9,1.9,2.3,1.9,2.3"/>
	<path class="st0" d="M435,152.2c0,0,0.1-1.2,1.3-0.3c1.2,0.9,1.9,3.4,0,4.3c-1.9,0.9-4.1-2.6-3.7-3.9
		C433.1,151.1,434.7,151.9,435,152.2z"/>
	<path class="st1" d="M432.1,138.7c0,0.4,0.3,0.8,0.8,0.8c0.4,0,0.8-0.3,0.8-0.8c0-0.4-0.3-0.8-0.8-0.8
		C432.5,137.9,432.1,138.3,432.1,138.7"/>
	<path class="st1" d="M445.7,131.9c0,0.3,0.3,0.6,0.6,0.6c0.3,0,0.6-0.3,0.6-0.6c0-0.3-0.3-0.6-0.6-0.6
		C446,131.3,445.7,131.6,445.7,131.9"/>
	<path class="st1" d="M446.7,133.9c0,0.3,0.3,0.6,0.6,0.6c0.3,0,0.6-0.3,0.6-0.6s-0.3-0.6-0.6-0.6
		C446.9,133.3,446.7,133.6,446.7,133.9"/>
	<path class="st1" d="M444.6,133.9c0,0.3,0.2,0.5,0.5,0.5c0.3,0,0.5-0.2,0.5-0.5c0-0.3-0.2-0.5-0.5-0.5
		C444.9,133.3,444.6,133.6,444.6,133.9"/>
	<path class="st1" d="M447.3,132.9c0,0.3,0.3,0.6,0.6,0.6c0.3,0,0.6-0.3,0.6-0.6s-0.3-0.6-0.6-0.6
		C447.5,132.3,447.3,132.5,447.3,132.9"/>
	<path class="st1" d="M445.5,135.5c0,0.2,0.2,0.4,0.4,0.4c0.2,0,0.4-0.2,0.4-0.4c0-0.2-0.2-0.4-0.4-0.4
		C445.7,135.1,445.5,135.2,445.5,135.5"/>
	<path class="st1" d="M445.2,122.4c0,0.5,0.4,0.9,0.9,0.9c0.5,0,0.9-0.4,0.9-0.9c0-0.5-0.4-0.9-0.9-0.9
		C445.6,121.6,445.2,122,445.2,122.4"/>
	<path class="st1" d="M439.8,111.3c0,0.4,0.4,0.8,0.8,0.8s0.8-0.4,0.8-0.8s-0.4-0.8-0.8-0.8S439.8,110.8,439.8,111.3"/>
	<ellipse class="st0" cx="458.9" cy="118.7" rx="2" ry="2"/>
	<ellipse class="st0" cx="453.5" cy="124.8" rx="2.2" ry="2.3"/>
	<circle class="st0" cx="446" cy="102.2" r="2.2"/>
	<circle class="st0" cx="482.7" cy="116.1" r="2.3"/>
	<circle class="st0" cx="489.3" cy="111.9" r="2"/>
	<circle class="st0" cx="499.4" cy="99.4" r="2.8"/>
	<path class="st0" d="M493.7,120.4c0,0-2.9-7.5-8.7-4.3"/>
	<path class="st0" d="M492.6,121.3c0,0-3.4-5.8-7.6-3.9"/>
	<path class="st0" d="M505.1,110.2c0,0-0.9-6.6-3.8-8.3"/>
	<path class="st0" d="M502.8,110c0,0-0.3-6.2-3.4-7.8"/>
	<path class="st0" d="M496.3,108.5c0,0-2.3-1.3-4.9,1.9"/>
	<path class="st1" d="M460.2,101.9c0,0.9,0.7,1.5,1.5,1.5c0.9,0,1.5-0.7,1.5-1.5c0-0.9-0.7-1.5-1.5-1.5
		C460.9,100.3,460.2,101,460.2,101.9"/>
	<path class="st1" d="M481.4,95.7c0,0.6,0.5,1.1,1.1,1.1c0.6,0,1.1-0.5,1.1-1.1c0-0.6-0.5-1.1-1.1-1.1
		C481.9,94.6,481.4,95.1,481.4,95.7"/>
	<path class="st1" d="M478.6,98.6c0,0.5,0.4,0.9,0.9,0.9c0.5,0,0.9-0.4,0.9-0.9c0-0.5-0.4-0.9-0.9-0.9
		C479,97.7,478.6,98.1,478.6,98.6"/>
	<path class="st1" d="M484.4,98.7c0,0.5,0.4,1,1,1c0.5,0,1-0.4,1-1c0-0.5-0.4-1-1-1C484.8,97.7,484.4,98.1,484.4,98.7"/>
	<path class="st1" d="M483.2,102.8c0,0.5,0.4,0.9,0.9,0.9c0.5,0,0.9-0.4,0.9-0.9c0-0.5-0.4-0.9-0.9-0.9
		C483.6,101.9,483.2,102.3,483.2,102.8"/>
	<path class="st1" d="M478.9,102c0,0.4,0.3,0.7,0.7,0.7c0.4,0,0.7-0.3,0.7-0.7c0-0.4-0.3-0.7-0.7-0.7
		C479.3,101.3,478.9,101.6,478.9,102"/>
	<polyline class="st0" points="482.5,96.1 482.5,99 480.4,98.6 	"/>
	<polyline class="st0" points="484.1,102.2 482.7,99.4 480.4,101.3 	"/>
	<line class="st0" x1="485" y1="98.6" x2="482.9" y2="99"/>
	<circle class="st0" cx="504.8" cy="116.2" r="1.6"/>
	<circle class="st0" cx="503" cy="131.4" r="1.5"/>
	<circle class="st0" cx="495.5" cy="126.5" r="1.8"/>
	<circle class="st0" cx="480.9" cy="176.4" r="2.5"/>
	<path class="st0" d="M484.3,181.4c0,0,0.4-2.7-1.3-3.4"/>
	<path class="st0" d="M483,182.5c0,0,0-3.6-1-3.6"/>
	<path class="st0" d="M504.1,150.4c0,0-1.6-1.6-2.6,0c-1,1.6,0.9,2.4,1.3,2.4"/>
	<path class="st1" d="M495.4,162.5c0,0.5,0.4,0.9,0.9,0.9c0.5,0,0.9-0.4,0.9-0.9c0-0.5-0.4-0.9-0.9-0.9
		C495.8,161.5,495.4,161.9,495.4,162.5"/>
	<path class="st1" d="M492.1,164.2c0,0.5,0.4,0.8,0.8,0.8s0.8-0.4,0.8-0.8c0-0.5-0.4-0.8-0.8-0.8S492.1,163.8,492.1,164.2"/>
	<path class="st1" d="M493.7,166.6c0,0.5,0.4,0.8,0.8,0.8c0.5,0,0.8-0.4,0.8-0.8c0-0.5-0.4-0.8-0.8-0.8
		C494.1,165.7,493.7,166.1,493.7,166.6"/>
	<path class="st1" d="M452.8,201.3c0,0.5,0.4,0.9,0.9,0.9c0.5,0,0.9-0.4,0.9-0.9c0-0.5-0.4-0.9-0.9-0.9
		C453.2,200.4,452.8,200.8,452.8,201.3"/>
	<path class="st1" d="M452.5,205.7c0,0.4,0.4,0.8,0.8,0.8c0.4,0,0.8-0.4,0.8-0.8c0-0.4-0.4-0.8-0.8-0.8
		C452.8,204.9,452.5,205.2,452.5,205.7"/>
	<path class="st1" d="M453.7,209.3c0,0.4,0.3,0.7,0.7,0.7c0.4,0,0.7-0.3,0.7-0.7s-0.3-0.7-0.7-0.7
		C454.1,208.6,453.7,208.9,453.7,209.3"/>
	<path class="st1" d="M456.2,210c0,0.4,0.3,0.7,0.7,0.7c0.4,0,0.7-0.3,0.7-0.7c0-0.4-0.3-0.7-0.7-0.7
		C456.6,209.3,456.2,209.6,456.2,210"/>
	<path class="st0" d="M454.1,201.3c1.1,0.5,2.9,3.6,2.9,3.6s1.3,3.3,0,4.4"/>
	<line class="st0" x1="455" y1="208.8" x2="457" y2="205.6"/>
	<line class="st0" x1="453.7" y1="205.3" x2="456.6" y2="204.3"/>
	<circle class="st0" cx="482.7" cy="193.4" r="1.5"/>
	<circle class="st0" cx="453.3" cy="187.3" r="1.8"/>
	<path class="st0" d="M454,192.7c0,0,0.2-3.1-0.2-3.3"/>
	<circle class="st0" cx="439.5" cy="208.8" r="1.8"/>
	<circle class="st0" cx="426.8" cy="215.5" r="1.9"/>
	<circle class="st0" cx="512.7" cy="193.9" r="1.6"/>
	<circle class="st0" cx="500.3" cy="200.1" r="1.4"/>
	<circle class="st0" cx="525.1" cy="192.1" r="1.9"/>
	<circle class="st0" cx="530.9" cy="175" r="1.9"/>
	<circle class="st0" cx="538.7" cy="184.1" r="1.6"/>
	<circle class="st0" cx="548.5" cy="180.8" r="1.5"/>
	<path class="st1" d="M434.2,234.2c0,0.6,0.5,1.1,1.1,1.1c0.6,0,1.1-0.5,1.1-1.1s-0.5-1.1-1.1-1.1
		C434.6,233.1,434.2,233.6,434.2,234.2"/>
	<path class="st1" d="M428.7,236.2c0,0.6,0.4,1,1,1c0.6,0,1-0.4,1-1c0-0.6-0.4-1-1-1C429.1,235.2,428.7,235.6,428.7,236.2"/>
	<path class="st1" d="M430.5,240.7c0,0.6,0.4,1,1,1c0.6,0,1-0.4,1-1c0-0.6-0.4-1-1-1C430.9,239.7,430.5,240.1,430.5,240.7"/>
	<path class="st0" d="M435,234.2c0,0-0.7,3.6-1.3,3.7c-0.6,0-1.7,2-1.7,2"/>
	<line class="st0" x1="435.8" y1="239.5" x2="430.7" y2="236.2"/>
	<circle class="st0" cx="461.8" cy="276" r="1.9"/>
	<path class="st1" d="M475.5,253c0,0.4,0.3,0.8,0.8,0.8c0.4,0,0.8-0.3,0.8-0.8c0-0.4-0.3-0.8-0.8-0.8
		C475.8,252.2,475.5,252.6,475.5,253"/>
	<path class="st1" d="M474.6,255.3c0,0.4,0.3,0.7,0.7,0.7c0.4,0,0.7-0.3,0.7-0.7c0-0.4-0.3-0.7-0.7-0.7
		C474.9,254.6,474.6,254.9,474.6,255.3"/>
	<path class="st1" d="M477,258c0,0.4,0.3,0.7,0.7,0.7c0.4,0,0.7-0.3,0.7-0.7c0-0.4-0.3-0.7-0.7-0.7C477.4,257.2,477,257.5,477,258"
		/>
	<path class="st1" d="M480.1,256.7c0,0.4,0.3,0.7,0.7,0.7c0.4,0,0.7-0.3,0.7-0.7c0-0.4-0.3-0.7-0.7-0.7
		C480.4,255.9,480.1,256.3,480.1,256.7"/>
	<path class="st1" d="M479.7,252.8c0,0.4,0.3,0.7,0.7,0.7c0.4,0,0.7-0.3,0.7-0.7c0-0.4-0.3-0.7-0.7-0.7
		C480,252.1,479.7,252.4,479.7,252.8"/>
	<circle class="st0" cx="473.6" cy="280" r="1.3"/>
	<circle class="st0" cx="486.4" cy="285.1" r="1.4"/>
	<circle class="st0" cx="506.4" cy="282.9" r="1.2"/>
	<circle class="st0" cx="503.1" cy="284.1" r="1.2"/>
	<circle class="st0" cx="506" cy="286.5" r="1.2"/>
	<path class="st1" d="M443.8,260.9c0,0.3,0.3,0.6,0.6,0.6c0.3,0,0.6-0.3,0.6-0.6s-0.3-0.6-0.6-0.6
		C444,260.3,443.8,260.6,443.8,260.9"/>
	<path class="st1" d="M439.2,260.9c0,0.4,0.3,0.7,0.7,0.7c0.4,0,0.7-0.3,0.7-0.7c0-0.4-0.3-0.7-0.7-0.7
		C439.5,260.2,439.2,260.5,439.2,260.9"/>
	<path class="st1" d="M441.4,264.9c0,0.3,0.3,0.6,0.6,0.6s0.6-0.3,0.6-0.6c0-0.3-0.3-0.6-0.6-0.6S441.4,264.6,441.4,264.9"/>
	<path class="st0" d="M444.4,261.3c0,0-1.2,1.7-1.8,1.9c-0.6,0.2-2.7-2.2-2.7-2.2"/>
	<path class="st0" d="M442,264.7c0,0-0.2-1.5,0.2-1.5"/>
	<path class="st1" d="M479.7,271.5c0,0.5,0.4,0.9,0.9,0.9s0.9-0.4,0.9-0.9c0-0.5-0.4-0.9-0.9-0.9S479.7,271,479.7,271.5"/>
	<path class="st1" d="M482.3,274.1c0,0.5,0.4,0.9,0.9,0.9c0.5,0,0.9-0.4,0.9-0.9c0-0.5-0.4-0.9-0.9-0.9
		C482.7,273.2,482.3,273.6,482.3,274.1"/>
	<path class="st1" d="M477,273.6c0,0.4,0.3,0.7,0.7,0.7c0.4,0,0.7-0.3,0.7-0.7c0-0.4-0.3-0.7-0.7-0.7
		C477.4,272.8,477,273.2,477,273.6"/>
	<path class="st1" d="M481.1,277.6c0,0.4,0.4,0.8,0.8,0.8c0.4,0,0.8-0.4,0.8-0.8c0-0.4-0.4-0.8-0.8-0.8
		C481.4,276.8,481.1,277.1,481.1,277.6"/>
	<polyline class="st0" points="480.6,271.5 480.4,274.3 482.3,274.1 	"/>
	<polyline class="st0" points="481.6,276.8 480.4,274.3 477.8,273.6 	"/>
	<path class="st0" d="M515.4,258.3c0,0,0-0.4-1,0s-1.1,0.3-1.5-0.1c-0.3-0.4-0.8-1-1.6-0.8c-0.8,0.2-1.4,1.6-1.2,2.1
		c0.2,0.5-1.6,0.1-1.5,0.8c0.1,0.7-0.2,1.9,1.5,1.7c1.8-0.1-0.7,2,0.6,2.2c1.3,0.1,1-0.9,2.6-1.4c1.6-0.5,2.2,1.7,2.9,0.3
		c0.7-1.4-0.2-1.5-0.6-2.8C515.3,258.9,516,258.4,515.4,258.3z"/>
	<path class="st1" d="M511.7,260c0,0.2,0.2,0.4,0.4,0.4c0.2,0,0.4-0.2,0.4-0.4c0-0.2-0.2-0.4-0.4-0.4
		C511.9,259.5,511.7,259.7,511.7,260"/>
	<path class="st1" d="M513.5,260.6c0,0.2,0.2,0.4,0.4,0.4c0.2,0,0.4-0.2,0.4-0.4c0-0.2-0.2-0.4-0.4-0.4
		C513.7,260.2,513.5,260.4,513.5,260.6"/>
	<path class="st1" d="M512.2,261.9c0,0.2,0.2,0.4,0.4,0.4c0.2,0,0.4-0.2,0.4-0.4c0-0.2-0.2-0.4-0.4-0.4
		C512.3,261.5,512.2,261.7,512.2,261.9"/>
	<path class="st1" d="M532.7,275.2c0,0.5,0.4,0.8,0.8,0.8c0.5,0,0.8-0.4,0.8-0.8c0-0.5-0.4-0.8-0.8-0.8
		C533.1,274.3,532.7,274.7,532.7,275.2"/>
	<path class="st1" d="M530.2,275.1c0,0.4,0.3,0.8,0.8,0.8c0.4,0,0.8-0.3,0.8-0.8s-0.3-0.8-0.8-0.8
		C530.5,274.3,530.2,274.7,530.2,275.1"/>
	<path class="st1" d="M532.7,278.4c0,0.5,0.4,0.8,0.8,0.8c0.5,0,0.8-0.4,0.8-0.8s-0.4-0.8-0.8-0.8
		C533.1,277.6,532.7,277.9,532.7,278.4"/>
	<path class="st1" d="M530.2,278.3c0,0.4,0.3,0.8,0.8,0.8c0.4,0,0.8-0.3,0.8-0.8c0-0.4-0.3-0.8-0.8-0.8
		C530.5,277.6,530.2,277.9,530.2,278.3"/>
	<path class="st1" d="M536.9,235.4c0,0.2,0.2,0.4,0.4,0.4c0.2,0,0.4-0.2,0.4-0.4c0-0.2-0.2-0.4-0.4-0.4
		C537.1,235,536.9,235.2,536.9,235.4"/>
	<path class="st1" d="M539.2,235.5c0,0.2,0.2,0.4,0.4,0.4c0.2,0,0.4-0.2,0.4-0.4c0-0.2-0.2-0.4-0.4-0.4
		C539.4,235,539.2,235.2,539.2,235.5"/>
	<path class="st1" d="M538.6,237.9c0,0.3,0.2,0.5,0.5,0.5c0.3,0,0.5-0.2,0.5-0.5c0-0.3-0.2-0.5-0.5-0.5
		C538.9,237.4,538.6,237.6,538.6,237.9"/>
	<path class="st1" d="M536.9,237.8c0,0.2,0.2,0.4,0.4,0.4c0.2,0,0.4-0.2,0.4-0.4c0-0.2-0.2-0.4-0.4-0.4
		C537.1,237.4,536.9,237.6,536.9,237.8"/>
	<path class="st1" d="M543.5,201.9c0,0.6,0.5,1,1,1c0.6,0,1-0.5,1-1c0-0.6-0.5-1-1-1C543.9,200.9,543.5,201.4,543.5,201.9"/>
	<path class="st1" d="M546.5,203.7c0,0.5,0.4,1,1,1c0.5,0,1-0.4,1-1c0-0.5-0.4-1-1-1C546.9,202.8,546.5,203.2,546.5,203.7"/>
	<path class="st1" d="M538.6,202.2c0,0.5,0.4,0.8,0.8,0.8c0.5,0,0.8-0.4,0.8-0.8c0-0.5-0.4-0.8-0.8-0.8
		C539,201.4,538.6,201.8,538.6,202.2"/>
	<path class="st1" d="M535.3,203.2c0,0.5,0.4,1,1,1c0.5,0,1-0.4,1-1c0-0.5-0.4-1-1-1C535.7,202.2,535.3,202.7,535.3,203.2"/>
	<path class="st1" d="M545.9,220.5c0,0.2,0.2,0.4,0.4,0.4c0.2,0,0.4-0.2,0.4-0.4c0-0.2-0.2-0.4-0.4-0.4
		C546.1,220,545.9,220.2,545.9,220.5"/>
	<path class="st1" d="M545.3,222.4c0,0.3,0.2,0.5,0.5,0.5s0.5-0.2,0.5-0.5c0-0.3-0.2-0.5-0.5-0.5S545.3,222.1,545.3,222.4"/>
	<path class="st1" d="M543.6,220.9c0,0.2,0.2,0.4,0.4,0.4c0.2,0,0.4-0.2,0.4-0.4c0-0.2-0.2-0.4-0.4-0.4
		C543.8,220.5,543.6,220.6,543.6,220.9"/>
	<path class="st1" d="M563.9,236c0,0.5,0.4,0.9,0.9,0.9c0.5,0,0.9-0.4,0.9-0.9s-0.4-0.9-0.9-0.9C564.4,235,563.9,235.4,563.9,236"/>
	<path class="st1" d="M568.7,236.4c0,0.5,0.4,1,1,1c0.5,0,1-0.4,1-1c0-0.5-0.4-1-1-1C569.2,235.5,568.7,235.9,568.7,236.4"/>
	<path class="st1" d="M561.8,238.8c0,0.5,0.4,1,1,1c0.5,0,1-0.4,1-1c0-0.5-0.4-1-1-1C562.3,237.9,561.8,238.3,561.8,238.8"/>
	<path class="st1" d="M565.8,239.3c0,0.5,0.4,0.9,0.9,0.9c0.5,0,0.9-0.4,0.9-0.9c0-0.5-0.4-0.9-0.9-0.9
		C566.2,238.3,565.8,238.7,565.8,239.3"/>
	<path class="st1" d="M564.9,243.2c0,0.5,0.4,0.8,0.8,0.8c0.5,0,0.8-0.4,0.8-0.8c0-0.5-0.4-0.8-0.8-0.8
		C565.2,242.3,564.9,242.7,564.9,243.2"/>
	<path class="st1" d="M575,254.9c0,0.5,0.4,0.8,0.8,0.8c0.5,0,0.8-0.4,0.8-0.8c0-0.5-0.4-0.8-0.8-0.8
		C575.3,254.1,575,254.5,575,254.9"/>
	<path class="st1" d="M576.3,258.7c0,0.4,0.3,0.7,0.7,0.7c0.4,0,0.7-0.3,0.7-0.7c0-0.4-0.3-0.7-0.7-0.7
		C576.6,258,576.3,258.3,576.3,258.7"/>
	<path class="st1" d="M572.3,261.9c0,0.5,0.4,0.9,0.9,0.9c0.5,0,0.9-0.4,0.9-0.9c0-0.5-0.4-0.9-0.9-0.9
		C572.7,261.1,572.3,261.4,572.3,261.9"/>
	<path class="st1" d="M567.9,255.8c0,0.5,0.4,0.9,0.9,0.9c0.5,0,0.9-0.4,0.9-0.9c0-0.5-0.4-0.9-0.9-0.9
		C568.3,254.9,567.9,255.3,567.9,255.8"/>
	<path class="st1" d="M567.6,261.2c0,0.5,0.4,0.9,0.9,0.9c0.5,0,0.9-0.4,0.9-0.9c0-0.5-0.4-0.9-0.9-0.9
		C568,260.3,567.6,260.7,567.6,261.2"/>
	<path class="st1" d="M620.9,267.8c0,0.5,0.4,0.8,0.8,0.8c0.5,0,0.8-0.4,0.8-0.8c0-0.5-0.4-0.8-0.8-0.8
		C621.2,267,620.9,267.4,620.9,267.8"/>
	<path class="st1" d="M627.1,283.1c0,0.5,0.4,0.9,0.9,0.9c0.5,0,0.9-0.4,0.9-0.9c0-0.5-0.4-0.9-0.9-0.9
		C627.5,282.2,627.1,282.6,627.1,283.1"/>
	<path class="st1" d="M601.3,274.2c0,0.4,0.3,0.8,0.8,0.8c0.4,0,0.8-0.3,0.8-0.8c0-0.4-0.3-0.8-0.8-0.8
		C601.6,273.5,601.3,273.8,601.3,274.2"/>
	<path class="st1" d="M605.8,274.7c0,0.5,0.4,0.9,0.9,0.9c0.5,0,0.9-0.4,0.9-0.9c0-0.5-0.4-0.9-0.9-0.9
		C606.2,273.8,605.8,274.2,605.8,274.7"/>
	<path class="st1" d="M605,272.5c0,0.4,0.3,0.7,0.7,0.7c0.4,0,0.7-0.3,0.7-0.7c0-0.4-0.3-0.7-0.7-0.7
		C605.3,271.8,605,272.1,605,272.5"/>
	<path class="st1" d="M602.8,276.9c0,0.5,0.4,0.8,0.8,0.8c0.5,0,0.8-0.4,0.8-0.8c0-0.5-0.4-0.8-0.8-0.8
		C603.2,276.1,602.8,276.4,602.8,276.9"/>
	<path class="st1" d="M608.7,255c0,0.4,0.4,0.8,0.8,0.8c0.4,0,0.8-0.4,0.8-0.8c0-0.4-0.4-0.8-0.8-0.8
		C609.1,254.2,608.7,254.5,608.7,255"/>
	<path class="st1" d="M609.5,256.9c0,0.4,0.3,0.7,0.7,0.7c0.4,0,0.7-0.3,0.7-0.7c0-0.4-0.3-0.7-0.7-0.7
		C609.8,256.2,609.5,256.5,609.5,256.9"/>
	<path class="st1" d="M607.2,256.3c0,0.3,0.3,0.6,0.6,0.6c0.3,0,0.6-0.3,0.6-0.6c0-0.3-0.3-0.6-0.6-0.6
		C607.4,255.8,607.2,256,607.2,256.3"/>
	<path class="st0" d="M491.4,268c0,0-2.9,0.8-3.6-0.5"/>
	<path class="st0" d="M547,203.7c0,0-2.9,2.4-4.6,2c-1.7-0.4-5.6-2.1-5.6-2.1"/>
	<path class="st0" d="M544.5,201.9c0,0-0.7,3-1.6,3.3c-0.9,0.4-2.9-2.5-2.9-2.5"/>
	<line class="st0" x1="480.1" y1="274.6" x2="479.3" y2="275.5"/>
	<polyline class="st0" points="569.7,236.4 567.1,238.8 565.7,243.2 	"/>
	<polyline class="st0" points="563.5,238.8 566.7,239.3 568.5,240.7 	"/>
	<line class="st0" x1="565.2" y1="236.4" x2="566.5" y2="238.8"/>
	<polyline class="st0" points="575.5,255.1 572.9,257.8 569,260.8 	"/>
	<polyline class="st0" points="576.8,258.7 572.7,258.2 568.8,255.9 	"/>
	<line class="st0" x1="573.2" y1="261.9" x2="572.7" y2="258.2"/>
	<path class="st0" d="M549.3,230c0,0,1.6-1,1.7,0.7c0.1,1.7,0.3,2.1-0.6,2.1c-0.9,0-1.5-1.5-2.1-1.5c-0.6,0-2-1.3-1.3-1.6
		C547.8,229.5,548,229,549.3,230z"/>
	<circle class="st0" cx="556.9" cy="227.6" r="1"/>
	<circle class="st0" cx="571" cy="280.5" r="1.3"/>
	<circle class="st0" cx="571.6" cy="274.1" r="1.1"/>
	<circle class="st0" cx="576.3" cy="276.9" r="1.1"/>
	<circle class="st0" cx="576.5" cy="283.5" r="0.9"/>
	<circle class="st0" cx="569.1" cy="286" r="1.1"/>
	<circle class="st0" cx="564.6" cy="280.5" r="1.2"/>
	<path class="st0" d="M571,279.2c0,0-1-2,0-4.1"/>
	<path class="st0" d="M570.2,279.5c0,0-3.9,0-4.4,0.9"/>
	<path class="st0" d="M575.5,277.6c0,0-3.1,1.3-3.2,2.4"/>
	<path class="st0" d="M575.7,282.9c0,0-2.8-2.4-3.5-2"/>
	<path class="st0" d="M570.5,281.4c0,0-1.2,3-1.1,3.5"/>
	<path class="st0" d="M589.9,271.7c0.2-0.5,1.3-0.7,1.1-1.7c-0.2-1.1-1.2-2.1-2.2-1.4c-0.9,0.7-0.3,0.9-1.2,0.9c-0.9,0-1-1-1.8-0.4
		c-0.8,0.7-0.7,2.6,0.3,2.5c1.1,0,0.2,2.1,1.4,2.1C588.8,273.8,589,273.5,589.9,271.7z"/>
	<path class="st0" d="M595,286c0,0,1.6,1.7,1.2,2.9c-0.4,1.2-2.8,1.9-3.3,0.5c-0.5-1.4-0.1-2.6-1.9-2.6c-1.8,0-0.9-2.3-0.9-2.3
		s1.4-1,2.1-0.7C593,284.1,594.4,285.2,595,286z"/>
	<path class="st0" d="M578.3,294.6c-0.3-0.4-0.8-0.5-1.2-0.3c-0.2,0.1-0.5,0.3-0.7,0.6c-0.8,0.9-3.2,0.9-2.6-1.1
		c0.5-2,2.8-1.7,3.9-1.4c1,0.2,3.3,0.6,3.4,1.1c0.1,0.3,1.3,1.8,0.3,2.8C580.3,297.2,579.8,296.7,578.3,294.6z"/>
	<path class="st0" d="M589.9,291.7c0,0,1.1-0.5,0.8,0.6c-0.3,1.1-1.5,2.1-2.5,1.5c-1-0.6-0.3-2.2,0.4-2.2
		C589.2,291.6,589.9,291.7,589.9,291.7z"/>
	<circle class="st0" cx="608" cy="289.4" r="1.3"/>
	<circle class="st0" cx="536.3" cy="303.5" r="1.7"/>
	<circle class="st0" cx="428.5" cy="247.3" r="1.9"/>
	<circle class="st0" cx="589.9" cy="175.8" r="2.6"/>
	<circle class="st0" cx="583.6" cy="185.6" r="2.5"/>
	<circle class="st0" cx="624.7" cy="186.5" r="2.3"/>
	<circle class="st0" cx="629.7" cy="196.2" r="1.9"/>
	<circle class="st0" cx="621.9" cy="205.2" r="2.1"/>
	<circle class="st0" cx="615" cy="206.3" r="2.1"/>
	<circle class="st0" cx="575.9" cy="212.9" r="1.5"/>
	<circle class="st0" cx="571.6" cy="210.9" r="1.6"/>
	<path class="st1" d="M606.9,214.6c0,0.4,0.3,0.7,0.7,0.7c0.4,0,0.7-0.3,0.7-0.7c0-0.4-0.3-0.7-0.7-0.7
		C607.2,213.8,606.9,214.2,606.9,214.6"/>
	<path class="st1" d="M602.9,216c0,0.4,0.3,0.7,0.7,0.7c0.4,0,0.7-0.3,0.7-0.7c0-0.4-0.3-0.7-0.7-0.7
		C603.2,215.3,602.9,215.6,602.9,216"/>
	<path class="st1" d="M608.4,217.9c0,0.4,0.3,0.8,0.8,0.8c0.4,0,0.8-0.3,0.8-0.8c0-0.4-0.3-0.8-0.8-0.8
		C608.7,217.1,608.4,217.4,608.4,217.9"/>
	<path class="st1" d="M606.3,220.7c0,0.5,0.4,0.9,0.9,0.9c0.5,0,0.8-0.4,0.8-0.9c0-0.5-0.4-0.9-0.8-0.9
		C606.7,219.9,606.3,220.2,606.3,220.7"/>
	<path class="st1" d="M603.6,220.5c0,0.4,0.3,0.7,0.7,0.7c0.4,0,0.7-0.3,0.7-0.7c0-0.4-0.3-0.7-0.7-0.7
		C603.9,219.9,603.6,220.2,603.6,220.5"/>
	<path class="st1" d="M637.6,232c0,0.6,0.5,1.1,1.1,1.1s1.1-0.5,1.1-1.1c0-0.6-0.5-1.1-1.1-1.1S637.6,231.4,637.6,232"/>
	<path class="st1" d="M609.6,186.2c0,0.5,0.4,0.9,0.9,0.9c0.5,0,0.9-0.4,0.9-0.9c0-0.5-0.4-0.9-0.9-0.9
		C610,185.4,609.6,185.7,609.6,186.2"/>
	<path class="st1" d="M600.6,186.2c0,0.3,0.3,0.6,0.6,0.6c0.3,0,0.6-0.3,0.6-0.6s-0.3-0.6-0.6-0.6
		C600.9,185.6,600.6,185.9,600.6,186.2"/>
	<path class="st1" d="M596.9,187.4c0,0.3,0.3,0.6,0.6,0.6c0.3,0,0.6-0.3,0.6-0.6c0-0.3-0.3-0.6-0.6-0.6
		C597.2,186.8,596.9,187.1,596.9,187.4"/>
	<path class="st1" d="M600.6,189.1c0,0.3,0.3,0.6,0.6,0.6c0.3,0,0.6-0.3,0.6-0.6c0-0.3-0.3-0.6-0.6-0.6
		C600.9,188.5,600.6,188.8,600.6,189.1"/>
	<path class="st1" d="M598.3,190c0,0.3,0.3,0.6,0.6,0.6c0.3,0,0.6-0.3,0.6-0.6c0-0.3-0.3-0.6-0.6-0.6
		C598.6,189.4,598.3,189.6,598.3,190"/>
	<path class="st0" d="M605.7,272.5c0,0-0.9,0.7-1.2,2.2c-0.2,1.6-0.8,1.9-0.8,1.9"/>
	<path class="st0" d="M606.7,274.7c0,0-3.4,0.5-4,0"/>
	<circle class="st0" cx="627.7" cy="254.6" r="1.2"/>
	<circle class="st0" cx="651.3" cy="247" r="1.9"/>
	<circle class="st0" cx="655.7" cy="249" r="1.9"/>
	<circle class="st0" cx="660.3" cy="245.4" r="1.9"/>
	<line class="st0" x1="661.4" y1="252.8" x2="663" y2="256.9"/>
	<path class="st0" d="M651.9,255.5c0,0,1.4-0.3,1.3,0.7c-0.1,1-1.6,3-3.2,1.2C648.5,255.5,651.4,254.4,651.9,255.5z"/>
	<path class="st0" d="M643.4,266.4c0,0,0.9-1.1,1.9-0.3c1,0.8,0.3,1.6-0.3,2.1c-0.6,0.5-2.8,1.9-3.2,1.3c-0.4-0.5-0.4-2.3,0-2.8
		C642.3,266.2,643.4,266.4,643.4,266.4z"/>
	<path class="st0" d="M644.2,274.5c0,0,4.5-1.2,4.2,2.3c-0.2,3.5-5.7,0-5.7,0S640.7,275.2,644.2,274.5z"/>
	<path class="st0" d="M640.4,259.5c0,0-1.1-1.3-2-0.5c-0.9,0.7-1.9,1.3-1.5,2.3c0.4,0.9,1.9,1.8,2.6,1.3c0.8-0.5,2.4-1.7,2-2.3
		C641.1,259.4,640.4,259.5,640.4,259.5z"/>
	<line class="st0" x1="607.2" y1="215.2" x2="604.8" y2="220.1"/>
	<polyline class="st0" points="609.1,217.9 606.1,217.5 607.2,220.7 	"/>
	<line class="st0" x1="603.6" y1="216" x2="605.6" y2="217.1"/>
	<line class="st0" x1="529.4" y1="210" x2="528" y2="210.4"/>
	<circle class="st0" cx="610.1" cy="229.5" r="2"/>
	<line class="st0" x1="608.4" y1="232.6" x2="609.3" y2="231.5"/>
	<circle class="st0" cx="631.7" cy="222.1" r="2.2"/>
	<circle class="st0" cx="647.3" cy="223.9" r="2.1"/>
	<circle class="st0" cx="642.4" cy="241.4" r="1.7"/>
	<circle class="st0" cx="663.6" cy="238.4" r="1.4"/>
	<circle class="st0" cx="670.2" cy="243" r="1.2"/>
	<circle class="st0" cx="637.5" cy="254" r="1.2"/>
	<path class="st0" d="M613.9,198.7l-16.8,5.4c-3.1,3-6,3.2-6,3.2h-3.8l-4,1.8h-16.8l-4.9,1.3l-3.8-1.3"/>
	<path class="st0" d="M614.6,195.9l-3.5,1.1c0,0-7.2,0.7-10.7,2.6"/>
	<line class="st0" x1="599.6" y1="194.9" x2="598.1" y2="200.4"/>
	<circle class="st0" cx="568.2" cy="179.2" r="1.1"/>
</g>
</svg>
