<?xml version="1.0" encoding="utf-8"?>
<!-- Generator: Adobe Illustrator 21.0.2, SVG Export Plug-In . SVG Version: 6.00 Build 0)  -->
<svg version="1.1" id="图层_1" xmlns="http://www.w3.org/2000/svg" xmlns:xlink="http://www.w3.org/1999/xlink" x="0px" y="0px"
	 viewBox="0 0 547 251.8" style="enable-background:new 0 0 547 251.8;" xml:space="preserve">
<style type="text/css">
	.st0{clip-path:url(#SVGID_2_);}
	.st1{opacity:0.49;clip-path:url(#SVGID_4_);}
	.st2{clip-path:url(#SVGID_6_);}
	.st3{clip-path:url(#SVGID_10_);fill:none;stroke:#000000;stroke-linecap:round;stroke-linejoin:round;stroke-miterlimit:10;}
	
		.st4{clip-path:url(#SVGID_10_);fill:none;stroke:#000000;stroke-width:0.5;stroke-linecap:round;stroke-linejoin:round;stroke-miterlimit:10;}
	
		.st5{clip-path:url(#SVGID_10_);fill:none;stroke:#000000;stroke-width:0.75;stroke-linecap:round;stroke-linejoin:round;stroke-miterlimit:10;}
	
		.st6{clip-path:url(#SVGID_10_);fill:none;stroke:#000000;stroke-width:0.25;stroke-linecap:round;stroke-linejoin:round;stroke-miterlimit:10;}
	.st7{clip-path:url(#SVGID_10_);}
</style>
<g>
	<defs>
		<rect id="SVGID_1_" width="547" height="251.8"/>
	</defs>
	<clipPath id="SVGID_2_">
		<use xlink:href="#SVGID_1_"  style="overflow:visible;"/>
	</clipPath>
	<g class="st0">
		<defs>
			<rect id="SVGID_3_" width="547" height="251.8"/>
		</defs>
		<clipPath id="SVGID_4_">
			<use xlink:href="#SVGID_3_"  style="overflow:visible;"/>
		</clipPath>
		<g class="st1">
			<g>
				<defs>
					<rect id="SVGID_5_" x="-76.9" y="-207.6" width="690.5" height="488.2"/>
				</defs>
				<clipPath id="SVGID_6_">
					<use xlink:href="#SVGID_5_"  style="overflow:visible;"/>
				</clipPath>
				<g class="st2">
					<defs>
						<rect id="SVGID_7_" x="-76.9" y="-207.6" width="690.5" height="488.2"/>
					</defs>
					<clipPath id="SVGID_8_">
						<use xlink:href="#SVGID_7_"  style="overflow:visible;"/>
					</clipPath>
				</g>
			</g>
		</g>
	</g>
	<g class="st0">
		<defs>
			<rect id="SVGID_9_" width="547" height="251.8"/>
		</defs>
		<clipPath id="SVGID_10_">
			<use xlink:href="#SVGID_9_"  style="overflow:visible;"/>
		</clipPath>
		<path class="st3" d="M-14.1,86.4l218.5,0.9c0,0,11-2.4,19.3-10.4c8.3-8.1,36.1-20.5,38.7-20.7c2.6-0.2,16.7-4,18.3,13.7
			c1.6,17.8,23.4,19.1,23.4,19.1L547,90.4"/>
		<path class="st3" d="M-14.1,94.6l216.3,0.6c0,0,11.5,0.5,19.5-8.8c8-9.3,39.1-28.3,46.7-22.2c7.7,6.1,10.1,14.9,10.1,14.9
			s8.3,24.6,43.8,17.9L547,98.2"/>
		<path class="st3" d="M-14.1,101.2l219.4,2.3c0,0,16-0.3,21.3-13.1c5.3-12.8,33.3-20.1,35.6-19.5c2,0.5,5.2-2.2,9.8,11.7
			c4.6,13.9,24.6,23.6,37.1,23.2c12.5-0.5,237.9,0,237.9,0"/>
		<path class="st3" d="M-14.1,109.1l221.7,1.9c0,0,21.7,1.3,27-14.6c1.6-4.7,4.8-8.8,9.3-10.8c9.1-4.1,20.9-2.1,22.6,5
			c2.3,9.8,43.8,22.7,51.6,21.3c7.9-1.4,228.9,2.1,228.9,2.1"/>
		<path class="st3" d="M-14.1,115.8l212.6,2.1c4.3,0,8.5,0.3,12.8,0.5c7.4,0.5,23.2-0.1,31.1-12.7c10.5-16.8,33.1,1.7,40.6,4.2
			c5.7,1.9,23.1,9.4,45.2,10.1c6.4,0.2,12.7-1.4,19.1-1.4l199.8,1.6"/>
		<path class="st3" d="M-14.1,123.7l215.7,2c4.5,0,8.9,0.2,13.4,0.6c7.5,0.6,19.2,1.5,22.2,1.5c4.5,0,16.7-6.3,17.2-14
			c0.5-7.7,17.2-5.2,38.3,4.4c21.2,9.6,35.8,9.6,35.8,9.6l218.4,2.5"/>
		<path class="st3" d="M-14.1,130.3l224,2.9c6.3,0.1,12.6,0.5,18.9,1.2c8.3,1,20.8,1.8,26-1.1c8.1-4.5,6.4-11.7,13.6-12.9
			c6.9-1.2,31.5,3,58.6,13.7c2.1,0.8,4.3,1.2,6.5,1.3l213.4,2.5"/>
		<path class="st3" d="M-14.1,140.9l250.3,2c0,0,10.6-1,13.1,0c2.5,1,21.3,4.4,26.2-12.6c5-17,50.5,13,62.6,13.6
			c12.1,0.6,208.8,2.6,208.8,2.6"/>
		<path class="st3" d="M-14.1,148.8l264.5,2.4c0,0,13.8,1.5,18-1.2c4.2-2.7,10.5-12.9,16.3-14.3c5.5-1.3,29.5,3.6,44,14
			c1.7,1.2,3.6,1.9,5.6,1.9l212.6,2"/>
		<path class="st3" d="M-14.1,155.8l266.7,2.4c0,0,19.5,4,27-6.7c7.5-10.7,16.6-8.3,16.6-8.3s9.9,0.2,25.6,10.4
			c9.3,5.3,15.8,6,15.8,6l209.3,1.6"/>
		<path class="st3" d="M-14.1,163.9l263.6-0.2c0,0,5.4,0,7.5,1.3c2.1,1.3,26.9,1.3,29.1-9.8c2.2-11.1,22.7-2.8,29.1,5.2
			c6.4,8,21.3,6.6,25,5.6c3.8-1.1,207.9,0.7,206.8,0.7"/>
		<path class="st3" d="M-14.1,170.1l254.1-0.6h0.4c3.3,0,6.6,0.6,9.8,1.7c3.4,1.2,8.3,2.2,12.2,1.3"/>
		<path class="st3" d="M292.9,160.5c1.9-2,9.2-3.7,15.7,3.7c6.5,7.5,10,12.5,17.3,9.5c7.3-3,13.1-2.1,13.1-2.1l208.3,1.5"/>
		<path class="st3" d="M-14.1,177.2h263.5c0,0,7.2,1,12.9,0.5"/>
		<path class="st3" d="M545.4,179.9c0,0-204.8-3.5-210.5-2.8c-1.1,0.1,5.2-0.7-9.7,2.1c-13.8,2.6-18.1-5-18.1-5s-4.1-11-9.2-7.6
			l-2.2,1.8"/>
		<path class="st3" d="M265.9,193.9c1.9,3.8,5.7,6.2,6.3,6.8c1.5,1.4,8.7,6.5,10.8,11.1c2.2,4.6-1.8,7.7-6.2,4.9
			c-5.8-7.7-4.6-6.5-10.8-10.8c-15.1-7.7-10.5-28.2-10.5-28.2"/>
		<path class="st3" d="M272.7,171.7c0,0-2.7-3.4-8.6-3.9c-2.4,0-1,11-1,11s-2.7,18.6,11.8,19.9c14.4,1.3,15,1.3,20.8-3.7
			c5.9-5,12.6-19.7,0-26.5c0,0-1.4-8.2-4.2-7.7c-2.8,0.5-5.7,8.1-5.7,8.1S279.2,167,272.7,171.7z"/>
		<path class="st3" d="M302.3,183.8c0,0,2.1,1.9,1.9,4.1c-0.2,2.2,1.7,5.4,4.2,4.7c2.2-0.6,6.8-1.5,1.6-10.7c-1.4-2.5-2.5-5.2-3.3-8
			c-0.3-0.9-0.6-1.8-0.9-2.4"/>
		<path class="st4" d="M317,213.4c0,0-5.2-0.8-7.8,0c-2.6,0.8-5.4,2-5.5,3.2c-0.1,1.2,5.4-2.1,5.4-2.1s4.1,1,5.8,0.4
			c1.8-0.6,2.8,1.6,3.4,0C318.9,213.4,317,213.4,317,213.4z"/>
		<path class="st5" d="M310.3,206.1l-1.7,0c0,0-1.2-0.3-3.8,0.6c-2.6,0.9-1.5,3.8,1.3,4.1c2.7,0.3,2.5,2.2,2.5,2.2l-0.1,0.4"/>
		<path class="st5" d="M311.4,212.9l0-0.5c0,0,0.8-3.7-0.4-4.8s-0.1-3.9,0.6-3.6c0.7,0.2,2.2-1.3,3.3-1.4c1.1-0.1,2.7,1.4,4.1,0.8
			c1.4-0.6,1.8-2.4,3.7,0.5c1.9,2.9-2,6.4-2,6.4L317,213l-0.2,0.2"/>
		<path class="st4" d="M264.4,171.7c0,0-0.3-2.4,0.8-2c1.1,0.4,4.2,2.5,4.4,3c0.2,0.5-2.2,2.3-2.2,2.3l-2.3,1.9L264.4,171.7z"/>
		<path class="st4" d="M288,168.8c0,0,2.5-5.7,3.4-5.7c0.9,0,2.5,3.5,2.3,5.7H288z"/>
		<path class="st4" d="M267.9,186.9c0,0,1.8,1.2,2.3-1.7c0.5-2.9,5.3-4.2,6.9-0.2c0,0,1.9,1.1,2.2,0.9c0.4-0.2,0,0.6,0,0.6
			s-1.9-0.5-2.8,0c-0.8,0.5-0.8,3.4-5.3,1.1C270.5,187.7,268.1,187.7,267.9,186.9z"/>
		<ellipse class="st4" cx="273.4" cy="185.5" rx="2.6" ry="2.5"/>
		<path class="st4" d="M287.7,184l0.4-2.2c0,0-0.4-7.4,6-3.9c0,0,1.2,0.7,1.4,0c0.2-0.7-0.5,1.7-0.7,1.9c-0.2,0.2-0.6,4.2-5.2,3.1
			L288,184H287.7z"/>
		<ellipse class="st4" cx="291.1" cy="180" rx="2.6" ry="2.5"/>
		<path class="st4" d="M285.6,192.7c0.5,0,0.2-1.6,0.2-1.6s1.2-0.7,1-1.7c-0.2-1-0.6-1.4-2.9-1c-2.3,0.4-2.1,2-2.1,2
			s0.4,1.2,1.2,1.2c0.9,0,0.6,1.5,1.3,1.5C285,193,285.6,192.7,285.6,192.7z"/>
		<path class="st4" d="M275.7,194.6c0,0,0.3,0.8,1.1,1.1c0.8,0.3,6.3,0.3,7.6-0.5c1.3-0.9,0.7-2.2,0.7-2.2"/>
		<path class="st4" d="M293.3,190.6v0.9c0,0-2.8,2.6-5.6,2.8c-2.8,0.3-2.5-0.7-2.5-0.7"/>
		<path class="st4" d="M274.4,171.1c0,0,0.7,1.6,0.3,3.8c-0.4,2.2,2.3,1.5,1.7-0.7c-0.7-2.2,1.2-2.6,1.2-1.4c0,1.2-0.5,4.2,1.2,4
			c1.7-0.3,1.1-1.7,1.1-1.7s0.1-1.2,0.6-0.6c0.5,0.7,0.1,5,0.4,5.2c0.3,0.1,0.7,1,1.3,0c0.7-1,0.4-4.6,0.4-4.6s0.1-1.8,0.7-1.3
			c0.6,0.4,1.4-0.4,1.4-0.8s0.6-4.1,0.2-4.4"/>
		<path class="st4" d="M282.8,177.5c0,0-0.3,4.3,2.4,6.5c2.7,2.2,3.1,3.6,9.1,2.4c6.1-1.2,7-0.7,7.7-2.4"/>
		<path class="st4" d="M295.5,184c0,0-2.1,1.3-2.3,0.3c-0.2-1,1.1-1.2,2.8-1.3c1.7,0,2.4-2.5,3.5-2.5c1.1-0.1,1.4,1.5,0.9,2
			c-0.5,0.5-2.1,1.6-3.2,1.6C296.2,184,295.5,184,295.5,184z"/>
		<path class="st4" d="M299.4,176.8c0,0-1.6,1.7-2,1.9c-0.3,0.2,0.2,1.2,1,0.8C299.3,179.3,301.7,176.9,299.4,176.8z"/>
		<path class="st4" d="M262.4,180.7c0,0-4.4,0-3.8,2.3c0.6,2.3,3.8,1,3.8,1"/>
		<path class="st4" d="M275.2,203.7c0,0-2.5,2.2-0.6,4.2c1.8,1.9,2.4-2.9,3.6-2.1"/>
		<path class="st4" d="M266.8,200.6c0,0-1,1.1-1.7,0.9c-0.6-0.2-1.7,1.3-0.5,2.2c1.2,0.8,2.1,1,2.5,0.8
			C267.6,204.2,268.8,201.2,266.8,200.6z"/>
		<path class="st4" d="M279.9,214.8c0,0,0.8,2.5,1.6,2.5"/>
		<path class="st4" d="M281.5,213.3c0,0,2.2,1.3,1.8,2.7"/>
		<path class="st4" d="M278,215.6c0,0,0.4,2.5,1.7,2"/>
		<path class="st4" d="M307,189c0,0,1,2.7,0.4,3.1"/>
		<path class="st4" d="M309,189c0,0,1.7,1.4,1,2.7"/>
		<path class="st4" d="M311.3,188.2c0,0,1.3,1,0.9,1.7"/>
		<path class="st4" d="M309.6,182.2c0,0-3.7,0.3-4,1.5c-0.3,1.2,0.6,1.8,1.4,1.9c0.8,0,3.1-0.1,3.6-0.8"/>
		<path class="st4" d="M302.9,175.9c0,0,3.6,0.1,2.9,1.6c-0.6,1.5-2.9,1.3-2.9,1.3"/>
		<path class="st4" d="M301.9,166.5c0,0-2.6,4,2,2.3"/>
		<path class="st4" d="M255.3,186.9c0,0,3.5,1.4,3.3,2.8c-0.2,1.5,0.5,3.7,0,4.5c-0.3,0.5-0.9,1.7-1.3,2.4"/>
		<polyline class="st6" points="310.6,214.9 311.1,216.6 311.7,217.1 		"/>
		<polyline class="st6" points="311.4,214.9 311.1,217.4 311.4,217.6 		"/>
		<polyline class="st6" points="313.3,215.1 313.7,216.9 313.5,217.4 		"/>
		<polyline class="st6" points="314.5,215 314.8,216.9 314.5,217.4 		"/>
		<polyline class="st6" points="309.5,214.8 309.1,216.1 309.1,216.7 309.1,217 		"/>
		<path class="st4" d="M323.4,212.4c0,0-0.7,1-2.2,0.7c-1.5-0.4-2.8,0.7-2.8,0.7l-0.2,0.1"/>
		<path class="st4" d="M322.3,216c0,0-0.6-1.8-1.4-1.5c-0.8,0.2-2.1,0-2.1,0l-0.2,0"/>
		<path class="st4" d="M315.8,213c0,0,5.8-6.1,6-7.4c0.2-1.3-1.7-1.1-2.7-0.9c-1,0.2-2.9,0.8-3.2,0.3c-0.2-0.6-4-0.2-3,1.1
			c0.9,1.3,0,6.3,0,6.3l-0.1,0.5"/>
		<path class="st4" d="M305.5,210.2c0,0,0.1-2.4,2.2-1.6c2.1,0.8,2.8,0.7,2.8,1.4c0,0.7,0.1,2.5,0.1,2.5v0.7"/>
		<path class="st6" d="M306.1,210.4c0,0,0.1-0.9,0.7-0.8c0.6,0.1,2.6,0.3,1.8,2.3"/>
		<path class="st6" d="M313.5,208.8c0,0,1.4-0.1,1.6,0.3c0.2,0.4,1.5-0.2,1.5-0.2s0.2-2.2,2.9-0.6l0.3,0.2"/>
		<line class="st6" x1="314.7" y1="204.7" x2="314.5" y2="208.8"/>
		<path class="st6" d="M316.5,205.2c0,0-0.6,3.3-1,3.9"/>
		<path class="st6" d="M316.6,209c0,0,0.8,0.2,0.6,1c-0.1,0.7-0.3,1.9-0.3,1.9"/>
		<polyline class="st6" points="315.2,209.1 314.6,212.6 314.5,213 		"/>
		<path class="st6" d="M319.5,204.7c0,0-0.1,2.6-1.1,2.9c0,0-0.6,0.1-0.8,0.2"/>
		<line class="st6" x1="308.9" y1="213.7" x2="309.1" y2="214.2"/>
		<line class="st6" x1="307" y1="214.3" x2="307.5" y2="215.1"/>
		<line class="st6" x1="305.1" y1="215.3" x2="305.5" y2="216.2"/>
		<path class="st6" d="M316.6,214.8c0.7-0.3,1.3-0.6,1.6-0.1"/>
		<path class="st3" d="M274.7,57.5c0,0,1.9-1.7,8.3-2.6c6.3-0.8,8.8-10.4,16-12.5c7.2-2,3.9-4.3,18.8,0c14.9,4.3,17.6,8,19.2,8
			c1.6,0,4.9,2,6.3,4.3c1.4,2.2,8.8,7.4,12.7,7c3.9-0.4,9.2-2,7.4-5.8c-1.8-3.8,2.5-7,4.3-5c1.8,2,3.1,8.2,0.8,10.8
			c-2.2,2.6-10.8,7.8-19.2,2.8c-8.4-4.9-17.6-12.1-24.3-13.5c0,0,1.8,3.7,1,5.9c-0.8,2.2,6.3,6.3,4.3,11.5c-2,5.1-4.5,6.1-5.3,6.1
			c-0.8,0-6.1,2.5-6.1-1.4c0-3.9,3.4-2.4,3.4-2.4s-1.2-4-3.8-4.2c-2.7-0.2-10,7.3-16.8,8.8c-6.8,1.5-13.9,8.3-16.2,5.3"/>
		<path class="st4" d="M290.6,49.1c0,0,0.9,3,3.3,3c2.5,0,2,4.5,7,5.1c4.9,0.6,3.3,4.5,6.3,2.5c3.1-2,0.6-4.5,2.7-3.8
			c2,0.7,7.2-1.6,7.6-2.8c0.4-1.2,3.1-8.4,0.2-10.6"/>
		<path class="st4" d="M277.3,56.2c0,0,0.1,1.8,4,1.4c3.9-0.4-0.6,3.5,2,4.1c2.7,0.6,6.8,1.5,5.5-3.9c-0.7-2.9-1-4.6-1.1-5.5"/>
		<path class="st4" d="M304,74.6c0,0-2.6-1.8-4.9-1.4c-2.2,0.4-4.1,2.9-4.9,2.9c-0.8,0-4.8,2.5-4.3,4.6"/>
		<path class="st4" d="M320.9,68.2c0,0,4.4-2.9,4.6,0c0.2,2.9-3.3,2.6-3.3,2.6"/>
		<path class="st4" d="M329.9,46.8c0,0-0.9,4.9,1.3,6.6"/>
		<path class="st4" d="M336.9,50.4c0,0,2.1,4.7,1.4,7.3"/>
		<path class="st4" d="M347.3,63c0,0,0.7-1.5,4.3,0c1.3,0,3.1,0.1,3,1.2c-0.1,1.2,0.3,2.2,0,2.2"/>
		<path class="st4" d="M363.6,56.5c0,0,1.7-2.2,2.7,0c1,2.2,0.2,3.3,0.9,3.7c0.7,0.4,2.1,0,2.1,0"/>
		<path class="st4" d="M362.2,59.8c0,0,0.9-0.4,0.9,1.6c-0.1,2,1.4,3,1.4,3"/>
		<path class="st3" d="M135.5,74.9c0,0,0.2,3.9,2.8,4.9v-1.4l1.3,0.5C139.6,78.8,139.6,73.8,135.5,74.9z"/>
		<path class="st3" d="M190.9,119.9c0,0,0.2,3.9,2.8,4.9v-1.4l1.3,0.5C195,123.9,195,118.8,190.9,119.9z"/>
		<path class="st3" d="M113.1,126.2c0,0-1.9,3.5,0,5.6l0.7-1.2l0.8,1C114.7,131.7,117.2,127.3,113.1,126.2z"/>
		<path class="st3" d="M64.7,151.3c0,0,0.2,3.9,2.8,4.9v-1.4l1.3,0.5C68.7,155.2,68.7,150.2,64.7,151.3z"/>
		<path class="st3" d="M157.9,151.8c0,0-3.9-0.2-5.1,2.3l1.4,0.1l-0.6,1.2C153.6,155.5,158.6,156,157.9,151.8z"/>
		<path class="st3" d="M192,172.3c0,0-3.4,2-2.9,4.8l1.2-0.7l0.2,1.3C190.5,177.7,194.9,175.3,192,172.3z"/>
		<path class="st3" d="M95.9,186.1c0,0-2.6,3-1.3,5.5l1-1l0.6,1.2C96.2,191.7,99.7,188.1,95.9,186.1z"/>
		<path class="st3" d="M198.9,185.1c0,0,2.2,3.3,5,2.7l-0.7-1.2l1.3-0.3C204.4,186.3,201.8,182,198.9,185.1z"/>
		<path class="st3" d="M397.9,80.6c0,0-3.4,2-2.9,4.8l1.2-0.7l0.2,1.3C396.4,86.1,400.8,83.7,397.9,80.6z"/>
		<path class="st3" d="M413,80c0,0,1.3-3.7-0.9-5.6l-0.5,1.3l-1-0.9C410.6,74.8,408.8,79.5,413,80z"/>
		<path class="st3" d="M374.4,106.5c0,0-3.4,2-2.9,4.8l1.2-0.7l0.2,1.3C372.9,112,377.4,109.6,374.4,106.5z"/>
		<path class="st3" d="M391.6,122c0,0-1.4,3.7,0.7,5.6l0.6-1.3l1,0.9C393.9,127.2,395.8,122.6,391.6,122z"/>
		<path class="st3" d="M377.9,137.9c0,0-3.4,2-2.9,4.8l1.2-0.7l0.2,1.3C376.4,143.3,380.8,140.9,377.9,137.9z"/>
		<path class="st3" d="M476.8,119.4c0,0,3.2-2.4,2.4-5.1l-1.2,0.8l-0.3-1.3C477.7,113.8,473.5,116.6,476.8,119.4z"/>
		<path class="st3" d="M433.7,160.2c0,0-0.1,3.9,2.5,5.1l0.1-1.4l1.2,0.6C437.5,164.5,437.9,159.4,433.7,160.2z"/>
		<path class="st3" d="M454.9,175.7c0,0-3.9,0.1-4.9,2.8l1.4,0l-0.5,1.3C450.9,179.7,456,179.8,454.9,175.7z"/>
		<path class="st3" d="M269.5,169.3c0,0,17.9-2.5,18.7-5.5"/>
		<polyline class="st6" points="309.9,214.9 308.8,216.7 308.7,217.2 		"/>
		<polyline class="st6" points="314.1,215.4 315.2,217 315.3,217.4 		"/>
		<path class="st7" d="M323.7,211.8c0.2,0.2,0.2,0.5-0.1,0.7c-0.2,0.2-0.5,0.2-0.7,0c-0.2-0.2-0.2-0.5,0.1-0.7
			C323.2,211.6,323.5,211.6,323.7,211.8"/>
		<path class="st7" d="M322.4,216.9c-0.3,0.1-0.6-0.1-0.7-0.4c-0.1-0.3,0-0.6,0.3-0.7c0.3-0.1,0.6,0.1,0.7,0.4
			C322.8,216.5,322.7,216.8,322.4,216.9"/>
	</g>
</g>
</svg>
