<?xml version="1.0" encoding="utf-8"?>
<!-- Generator: Adobe Illustrator 19.2.1, SVG Export Plug-In . SVG Version: 6.00 Build 0)  -->
<svg version="1.1" id="图层_1_x5F_复制_2" xmlns="http://www.w3.org/2000/svg" xmlns:xlink="http://www.w3.org/1999/xlink"
	 x="0px" y="0px" viewBox="0 0 892.9 892.9" style="enable-background:new 0 0 892.9 892.9;" xml:space="preserve">
<style type="text/css">
	.st0{fill:none;stroke:#040000;stroke-width:3;stroke-linecap:round;stroke-miterlimit:10;}
</style>
<g>
	<ellipse class="st0" cx="411.7" cy="393.5" rx="5" ry="4.9"/>
	<path class="st0" d="M434.5,394.8c2.6-2.5,5.8-3.4,7.2-2c1.4,1.4,0.5,4.6-2,7.1c-2.6,2.5-5.8,3.4-7.2,2S431.9,397.3,434.5,394.8z"
		/>
	<ellipse class="st0" cx="471.4" cy="403.4" rx="5" ry="4.9"/>
	<ellipse class="st0" cx="451.9" cy="415.3" rx="5.2" ry="5.2"/>
	<path class="st0" d="M505.7,418.8c2.6,2.6,3.4,5.8,1.9,7.4c-1.5,1.5-4.9,0.7-7.5-1.9c-2.6-2.6-3.4-5.8-1.9-7.4
		C499.7,415.4,503.1,416.2,505.7,418.8z"/>
	<ellipse class="st0" cx="478.4" cy="435.2" rx="3.1" ry="5.8"/>
	<ellipse class="st0" cx="497.2" cy="460" rx="5.9" ry="5.8"/>
	<ellipse class="st0" cx="489.7" cy="490.5" rx="4.4" ry="7.7"/>
	<ellipse class="st0" cx="464.3" cy="466.3" rx="3.7" ry="6"/>
	<ellipse class="st0" cx="445.3" cy="463.7" rx="3" ry="6.5"/>
	<ellipse class="st0" cx="427.6" cy="464" rx="5.6" ry="5.6"/>
	<ellipse class="st0" cx="414.8" cy="454.7" rx="3.4" ry="6.5"/>
	<ellipse class="st0" cx="408" cy="487.2" rx="6" ry="5.9"/>
	<ellipse class="st0" cx="398.1" cy="447.2" rx="4.5" ry="4.4"/>
	<ellipse class="st0" cx="369.3" cy="430.7" rx="5.1" ry="5"/>
	<path class="st0" d="M416,396.8c6.5,3.7,11.7,9.2,15.7,15.4c4,6.2,6.8,13.1,9.1,20.1"/>
	<path class="st0" d="M432.7,402.2c-4.7,4.1-5.1,11.1-2.8,16.8c2.2,5.7,6.8,10.2,11.5,14.2c-4.6-5.5-4.4-14-0.7-20.2
		c3.6-6.2,10.1-10.4,16.9-12.8c4.4-1.6,9.1-2.5,13.7-1.9"/>
	<path class="st0" d="M450.1,420.4c-3,0-5.6,2.1-6.9,4.8c-1.2,2.7-1.3,5.7-1,8.6"/>
	<path class="st0" d="M446.4,443.8c-1.7-3.9,0.2-8.4,2.7-11.8c2.9-4,6.8-7.4,11.4-9.1s10.1-1.7,14.4,0.8c2.1,1.2,4,3.3,3.6,5.7"/>
	<path class="st0" d="M445.6,443.1c8-3.3,17.3-3.2,25.6-0.6s15.1,7.3,21.4,13.3"/>
	<path class="st0" d="M446.4,443.5c10.5-0.7,20.8,4.3,28.1,11.9c7.3,7.5,11.8,17.2,14.9,27.2"/>
	<path class="st0" d="M447.2,443c5,0.1,11,3,13.9,6.8c1.3,1.7,2.9,4.1,3.2,6.4c0.2,1.2-0.9,4.8-0.4,4.1"/>
	<path class="st0" d="M447.2,442.3c-2,4.7-2.4,10.1-0.9,15"/>
	<path class="st0" d="M409.6,481.4c3.4-9,7.7-17.7,14-25c6.3-7.3,14.8-13,24.4-14.6"/>
	<path class="st0" d="M433.1,460.3c3.8-6.1,7.8-12.1,12-18"/>
	<path class="st0" d="M414.4,448c2.3,0.1,4-1.9,5.9-3.1c1.4-0.9,2.9-1.4,4.5-1.8c6.7-1.8,13.9-1.9,20.6-0.2"/>
	<path class="st0" d="M403.3,445.5c12.5-6.2,26.3-9.9,40.3-10.7"/>
	<path class="st0" d="M375.1,429.9c5.8-4.2,12.8-6.7,19.9-7.2c5.4-0.4,10.9,0.3,16.3,1.2c11.2,1.9,22.5,4.7,31.9,11"/>
	<path class="st0" d="M447.1,443c6.1-7.8,13.3-15,22-20s19-7.6,28.9-6"/>
	<path class="st0" d="M519.4,394.9c12.3-0.7,25.3,4.7,31.4,15.2c3.3,5.6,4.5,12.2,4.7,18.7c0.6,13.7-3.2,28.6-14.2,37
		c-2,1.5-4.3,2.8-6.7,3.5c-2.6,0.8-5.4,0.8-8.1,0.7c-9.2-0.4-16.9-1.9-25-6.1"/>
	<path class="st0" d="M547.4,460c8.1,3.1,14.1,11,14.9,19.6c0.8,8.6-3.3,17.4-10.4,22.5c-7,5.1-16.6,6.4-24.9,3.7"/>
	<path class="st0" d="M477.6,458.8c9.4,7.2,19.3,14.2,28.7,21.4c7.9,6,16.2,12.7,19.1,22.1c1.2,4,1.3,8.3,0.9,12.4
		c-1.2,10.9-6.6,21.6-15.6,28.1s-21.5,8.5-31.6,4c-10.2-4.5-17.1-15.9-15.3-26.7"/>
	<path class="st0" d="M467.5,470.7c3.8,6.4,3.2,14.3,2.3,21.6c-1.2,10-2.6,20.1-7.1,29.1c-7.2,14.7-26,27.5-43.5,27.1"/>
	<path class="st0" d="M360.5,525.8c-11-7.2-18.3-17.4-22-29.9c-3.7-12.5-4.1-25.5,5.1-34.8"/>
	<path class="st0" d="M412.6,473c-5,3.1-10.8,4.6-16.7,5.4c-11.6,1.8-23.9,1.6-34.8-3c-10.9-4.5-20-13.9-22.1-25.4
		c-1.4-7.9,0.7-16.1,4.6-23.2c3.9-7,9.4-13,15.4-18.5c5.3-4.9,11.1-9.6,17.9-12.1s14.9-2.7,21.1,1c4.4,2.7,7.5,7,11,10.8
		c5.9,6.2,13.5,10.8,21.8,13.2"/>
	<path class="st0" d="M343.7,426.8c-7.1-5.2-10.2-20.8-8.5-36.2c1.7-14.8,19.6-24.7,34.7-24.4"/>
	<path class="st0" d="M378.1,395.7c-3.6-4.4-6.7-9.3-8.1-14.7c-2.9-11,1.3-23.3,9.9-30.8c8.6-7.5,21.1-10.2,32.3-7.5
		c8.5,2,16.7,7.6,19.3,15.8"/>
	<path class="st0" d="M401.1,341.8c-2.7-5.7,0.7-12.2,5-16.8c5.1-5.5,12.2-9.5,19.7-9.6c3.5-0.1,6.9,0.7,10.2,1.7
		c3.8,1.2,7.6,2.7,10.7,5.2c3.1,2.5,4.3,3.8,4.6,7.7"/>
	<path class="st0" d="M521.1,363.1c2.6-1.8,5.9-2.2,9-2.1c5,0.1,10.2,1.2,14.3,4c4.2,2.8,7.3,7.4,7.5,12.3c0.2,4-1.5,7.8-3.2,11.3
		c-2.3,4.5-7.1,3.4-9.1,6.2"/>
	<path class="st0" d="M548.5,390c11.2,0.4,22.1,5.9,28.9,14.7c8,10.3,10,24.4,7.1,37c-3,13-11.3,25.2-23.6,30.8"/>
	<path class="st0" d="M573.4,400.1c4.8-8,10.1-16.2,18.3-20.7s20.1-3.9,25.4,3.7c3.7-1.2,7.7,0.3,10.8,2.5
		c9,6.2,13.3,17.5,13.3,28.2c0,3.7-0.6,7.8-3.3,10.4c-1.1,1-2.4,1.8-3.3,3c-2,2.8-0.5,6.8-1.8,10c-1,2.4-3.4,4-5.8,5.2
		c-12.8,6.5-28.5,7.2-41.9,2.1"/>
	<path class="st0" d="M582.4,413.5c1.1-2.2,2.9-3.9,4.7-5.5c2.8-2.4,5.7-4.7,9.2-6c3.4-1.3,5.5-1.7,8.9-0.3"/>
	<path class="st0" d="M618.8,383.1c-8,2.1-13.5,10.3-13.6,18.5c-0.1,8.2,4.4,16,10.9,21.1c5.2,4.1,12.1,6.7,18.5,5.2"/>
	<path class="st0" d="M436.3,393c-5.5-6.9-5.5-16-5-24.8c0.2-4.9,0.6-9.8,1.9-14.4c3.3-11.7,12.7-21.4,24.2-25.7
		c11.5-4.3,24.3-3.6,35.4,1.7"/>
	<path class="st0" d="M483.3,417.3c4.8,0,9.1-2.5,13.2-5c5.2-3.2,10.2-6.6,15.1-10.1c2.6-1.9,5.2-3.8,7.1-6.4
		c2.6-3.7,3.5-8.3,3.8-12.8c0.5-6.6,0.1-13.3-1.2-19.7"/>
	<path class="st0" d="M255.9,442c0,6.8,5.6,12.3,11.4,16.1c7.7,5,16.4,8.5,25.4,10.3"/>
	<path class="st0" d="M276.3,463.4c-8.6,4.3-16.2,10.5-22,18.2c7,6.4,17.5,6.8,27,6.2c-2.8,3.6-5.6,7.1-8.4,10.7
		c4.9,3.8,12.1,2.3,17.6-0.5c10.3-5.1,18.7-13.9,23.3-24.4c7.6,0.8,15.1,2.6,22.2,5.3"/>
	<path class="st0" d="M256.4,442c11.3-1.2,23,1.2,32.8,6.7c1.4,0.8,2.8,1.6,4.3,2.2c1.6,0.6,3.4,0.8,5.1,1c8.7,1,18.2,3.1,23.4,10.1
		c0.3,0.4,0.6,0.8,1,1.1c0.4,0.3,1,0.5,1.5,0.6c4.7,1.3,9.4,2.6,14.1,3.9"/>
	<path class="st0" d="M255.8,445.1c-15,1.5-29.5,6.7-42.1,14.9c-1.8,1.2-3.8,2.7-4.1,4.8c-0.2,1.1,0.1,2.1,0.4,3.2
		c2.5,7.9,8.2,14.6,14.8,19.7c6.6,5.1,14.3,8.8,21.9,12.3c4,1.9,8,3.7,12.4,4.3c6.3,0.8,12.7-1.1,18.5-3.6"/>
	<path class="st0" d="M229.8,491.4c7.2,1.6,14.7,1.7,21.9,0.3c4.1-0.8,8.4-2.4,10.4-6"/>
	<path class="st0" d="M212.4,473.6c0.2,7.5,4.4,13.9,9.6,19.3s12.1,9.1,19.2,11.8c5.1,1.9,10.4,3.2,15.9,3
		c5.4-0.2,10.2-0.7,14.1-4.4"/>
	<path class="st0" d="M188.9,545c-2.1,2.6-8.1,4-11.6,4.4c-2.8,0.3-5.7,0.4-8.4-0.4c-2.7-0.8-5.3-2.5-6.5-5
		c5.9-8.8,18.3-12.6,28.2-8.6c3.4,1.4,6.8,4.2,6.6,7.8c-0.1,1.3-0.7,2.5-1.3,3.7c-3.3,5.8-8.5,10.6-14.6,13.5
		c-1.5,0.7-3.1,1.3-4.7,1.3c-1.7,0-3.4-0.7-4.2-2.1c-0.9-1.5-0.6-3.4-0.1-5c0.6-2.1,1.8-4.4,3.9-5"/>
	<path class="st0" d="M680.1,350.7c-1.8,1.2-3.9,2.8-4,5c-0.1,2.1,1.6,3.7,3.2,5.1c0.8,0.7,1.6,1.4,2.3,2c0.7,0.6,1.4,1.2,2.1,1.7
		c4.9,3.6,12,4.1,17.4,1.1c2.2-1.2,4.2-3.1,4.5-5.5s-1.6-5.2-4-5"/>
	<path class="st0" d="M694,357.9c-5,0.2-10.4-0.9-13.8-4.5c-0.4-0.4-0.8-0.9-0.7-1.5c0-0.3,0.2-0.6,0.4-0.9c2.5-4,6.5-7,11.1-8.2
		c4.6-1.2,9.6-0.6,13.8,1.7c1,0.6,2,1.3,2.5,2.4c0.4,1.1,0.2,2.2-0.3,3.3C704.9,355.2,699.1,357.6,694,357.9z"/>
	<path class="st0" d="M680.3,361.3c0.7-2.1,2.1-3.9,3.9-5.2"/>
	<path class="st0" d="M666.1,454.5c4.2-3.4,9.7-5.3,15.2-5.1c0.4,0,0.8,0,1.1,0.2c0.4,0.3,0.6,0.8,0.6,1.2c0.8,4.5-2.2,8.8-5.6,11.8
		c-3.8,3.4-8.2,5.9-13,7.5c8.1-3.2,18-3.9,25.2,1c-3.8,4.9-10.8,6-17,5.9C660,477,657.2,461.8,666.1,454.5z"/>
	<path class="st0" d="M684.1,452.4c2.8,0,5.5,0.3,8.2,1.1c1.3,0.4,2.7,0.9,3.3,2.1c0.6,1.1,0.3,2.5-0.1,3.7c-1.3,4-3.4,7.8-6.2,11"
		/>
	<path class="st0" d="M492.2,549.6c-0.5,5.5-4.5,10.2-9.2,13.3c-12.3,8.1-30.3,6.2-40.6-4.3c-3.6-3.7-6.4-8.9-4.8-13.8"/>
	<path class="st0" d="M446.8,562.2c-3.8,4.1-9.7,6.1-15.3,5.6c-5.6-0.5-12.3-4.8-16.4-8.6"/>
	<path class="st0" d="M775.5,474.8c27.4-33.5,45.4-59.8,61.1-99.9c9.8-25,13.4-56.1-4.2-95.5c-4.8-10.8-9-23.9-20.2-20.4
		c-4.3,1.3-5.9,13.5-6,17.9c-0.7,35.2,2.8,47.6-2.3,81.9c-5.1,34.4-16.3,68.9-38.4,95.9c-22.4,27.4-54.9,45.5-89,55.6
		c-26.1,7.7-54.2,11.3-77.2,25.8c-26.4,16.7-42.2,45.6-52.1,74.9c-9.9,29.3-15,60.1-25.8,89.1c-3.2,8.7-14.1,18.4-24,8.3
		c-9-9.1-18.4-31.1-56.1-41.1c-13.5-3.6-19.1-3.4-31.9-9c-19.1-8.4-25.7-32.3-19.1-51.8c7.7-22.7,20.5-33.1,28.2-55.9
		c4.6-13.5,0.5-24.6-9.1-31.4c-9.6-6.8-22.6-13.2-36.4-4.5c-12.9,8.2-15.7,18.1-20.7,33c-17.5,51.4-10.2,110.5,19.6,156.1
		c-22.4-13.6-37.8-24.5-53.5-45.5c-15.7-21.1-33.1-44.3-59.2-49.4c-16.8-3.3-35.5-9.5-52.6-9c-47,1.2-87.9-23.9-117.3-58.6"/>
	<path class="st0" d="M826.7,400.4c3.6-11,15.9-39.9,24.4-36.3c8.4,3.6,26.2,38.7,8,67.8c-14,22.5-48.9,51.7-77.7,75.8"/>
	<path class="st0" d="M768.1,452.4c8.7,24,17.5,49.7,11.5,74.6c-9.4,38.9-52,63.2-61.7,102c-4.1,16.4-2.1,34.9-11.8,48.9
		c-9.6,13.9-27.7,19.6-39.1,32.1c-12.8,14-14.1,31.3-14.6,52.8c-0.4,20.2,0.2,40.7-11.4,51.1"/>
	<path class="st0" d="M836.4,458.8c7.7-6.5,15.3-17,22.9-17.7c11.6-1,19.8,33.8-23.5,69.4c-19.1,15.8-39.8,30.8-63.7,37.8
		c-0.6,0.2-1.3,0.3-1.6-0.2c-0.3-0.5,0.9-1,0.8-0.4"/>
	<path class="st0" d="M842.3,505.2c34.5-25.7,22.5,30.3,4.1,37.7c-31.2,12.5-52.2,20.2-89.8,26.7"/>
	<path class="st0" d="M825.8,551.6c16.8-7.1,32-9.1,28.5,5.1c-3.9,15.9-22.5,30.1-46.2,31c-26.2,1-49.6,3.7-69.2,2.8"/>
	<path class="st0" d="M810.8,587.2c16.1-2.3,19.4-2.1,25.5-0.7c13.6,3.2-2.4,21.2-6.4,24.1c-11.7,8.5-19.5,8.4-30.1,9.4
		c-24.8,2.3-49.7-2.1-76.7-6"/>
	<path class="st0" d="M798.7,620.1c8.1,1.4,20.8-1.1,24.4,6.7c2.8,6.2-3.5,35.7-30,30.7c-24-4.5-47.7-10.2-71.4-15.8
		c-1.9-0.4-3.8-0.9-5.8-1"/>
	<path class="st0" d="M792.9,658c24.6,6,1.4,34.1-13.6,29.6c-17.1-5.1-25.1-7-42.9-13.6c-7.7-2.9-16.7-5.5-24.4-8.4"/>
	<path class="st0" d="M773.7,685.9c8.5,3.4,15.1,12.6,6.6,22.1c-12,13.4-19,7.9-23.1,6.5c-21.2-7.5-38.1-17.6-56.7-30.3"/>
	<path class="st0" d="M757.7,714.3c8.3,4.3,9.9,11.8-1.5,21.5c-4.9,4.2-9.4,2.6-15.6,1c-6.2-1.6-11.8-5.1-17.3-8.4
		c-16.1-10-25.9-19.9-42.1-29.9"/>
	<path class="st0" d="M744,737.3c2.7,4,1,7.1-1.2,11.4c-2.2,4.3-6.8,7.3-11.7,7.6c-5.6,0.4-10.9-2.6-15.7-5.5
		c-19-11.4-34.6-23.7-52.1-37.1"/>
	<path class="st0" d="M718.7,754.5c8.7,8.4,0.3,18.5-5.1,19.8c-5,1.2-14.2-3.3-18.4-6.2c-16.5-11.5-27.9-21.7-39.7-37.3"/>
	<path class="st0" d="M694.1,767.3c19.9,11.8,4.7,22.6-4.4,22.5c-5.4,0-17.4-6.7-21.5-10.1c-5.9-4.9-11.2-10.4-15.4-16.7"/>
	<path class="st0" d="M679.4,786c9.9,6.5-1.6,17.1-7.8,17.7c-6.3,0.5-16.8-7.9-20.7-12.8"/>
	<path class="st0" d="M660.5,798.8c7.7,7,1.1,13.5-3.1,16.8c-4.2,3.3-10.7,0.3-15.3-2.4"/>
	<path class="st0" d="M756.8,464.6c3.9,12.1,6.8,23,8.2,35.7c0.8,7.4,1.2,14.9,0,22.3c-6.6,40.6-57.7,62.9-64.3,103.5
		c-2,12.1,0.3,24.8-3.8,36.3c-4.9,13.5-17.6,22.7-30.5,29.4c-6.7,3.5-30.3,23.2-26.9,65c2,24.6-3.7,58-26.5,80.4"/>
	<path class="st0" d="M717,494c9.2,7.7,10.3,21.6,7.1,33c-2.8,10-8.5,19.3-16.3,26.4c-13.2,12.2-32.4,18.8-40.4,34.8
		c-8.5,17-0.9,39.1-10.9,55.3c-8,12.9-24.4,17.7-35.6,28c-17.1,15.9-19,41.5-22.4,64.4c-4.7,31.7-14.8,63.5-34.8,88.8
		c-20,25.3-34.2,41.5-61.5,45"/>
	<path class="st0" d="M725.3,490.2c8.3,11.8,10.6,27.4,7.2,41.4c-3.4,14-12.2,26.5-23.6,35.5c-10.4,8.2-23.3,14-30.6,25
		c-11.4,17-5.9,40.9-16.4,58.5c-7.9,13.2-23.2,20.2-33.9,31.3c-20.7,21.4-17.7,52.7-23.8,81.6c-8.5,39.9-44.9,89.6-64.4,98.7"/>
	<path class="st0" d="M220.7,601.3c-2,5.1-2.5,11.4-1.1,18c2,9.8,7.9,18.8,16.2,24.5c9,6.2,20.4,8.6,28.6,15.6
		c19,16.2,13.6,48.6,30.9,66.6c12.2,12.8,32,14.4,47.9,22.4c13.8,7,29.3,24.6,45.8,52.8c27,46.4,78.7,49.2,104.6,34.1
		c34-19.8,60-50.8,69.6-94.3c6-27.1,5.2-57.5,22.6-79.3c7.3-9.1,17.3-15.9,25.9-23.8s16.4-18,17.1-29.7c0.4-6.5-1.4-13-0.5-19.4
		c1.5-10.5,10-18.6,17.9-25.8c7.4-6.7,14.8-13.3,22.2-20c11.1-10,23.2-22.4,21.3-37.1"/>
	<path class="st0" d="M212.1,600.2c-5.5,19.2,3,40.3,19.5,51.8c11.8,8.2,27.6,11.7,35.3,23.7c6.1,9.4,5.3,21.5,8,32.3
		c3,12.2,10.8,23.1,21.4,30.1c15.4,10.1,30,9.9,45.2,20.3c16.2,11.1,32.2,34.5,38.5,46.3c11.5,21.4,30.8,44.8,78.1,48.8
		c33.9,1.4,65.7-22.4,85.7-47.7c19.6-24.7,30.8-55.5,34.2-86.7c1.5-13.3,1.7-27.2,7.6-39.3c6.3-13,18.2-22.2,29-31.9
		c10.8-9.7,21.3-21.3,23.1-35.5c1-7.6-0.6-15.3,1-22.8c2.7-12.4,13.4-21.2,22.9-29.6c9.8-8.7,19-18,27.5-27.9
		c6.9-8,13-19.8,9.1-29.5"/>
	<path class="st0" d="M193.7,599.4c-9.5,23.3-0.7,52.5,20.1,67c11.4,7.9,25.7,11.8,35.1,21.9c15,16.1,12.6,42.4,26.2,59.7
		c8.5,10.8,21.9,16.3,34.1,22.8c18.4,9.8,35.5,22.8,47,40.1c10.2,15.3,16.1,33.8,29.7,46.2c6.9,6.3,19.2,13,28.5,14.8"/>
	<path class="st0" d="M398,870.2"/>
	<path class="st0" d="M187.7,598.9c-10.4,22.7-3.2,52,16.5,67.6c13,10.3,30.7,15.2,40.1,28.7c8,11.4,8.2,26.3,13.1,39.3
		c7.5,20.1,25.8,34.7,45.6,43.3c5.2,2.3,10.6,4.2,15.6,7c17.3,9.8,27,28.5,36.8,45.7c9.8,17.2,23.5,35,42.7,40.6"/>
	<path class="st0" d="M150.4,588.3c-9.2,13.3-13.4,28.9-12.5,45c0.4,7.9,2.2,15.9,6.2,22.8c12,20.6,40.1,26.5,55.4,44.8
		c12.6,15.1,14.5,36,17.9,55.2s10.5,40.4,28.3,49.2c11.8,5.9,26.5,5.1,37.5,12.4c8.1,5.4,13,14.2,18.3,22.3c6.2,9.4,15.4,14.7,26,17
		c44.1,12.4,96.9,18.6,148.5,15.1c10.4-0.7,22-1.3,33.8-3.9c10.8-2.3,19.1-2.7,29.8-5.7c35.2-10,78.5-19.1,102.4-49.2"/>
	<path class="st0" d="M160.5,592.1c-7.6,10.2-11.4,20.6-12.2,33.3c-0.8,12.7,3.2,25.8,12.1,35c8.9,9.3,21.5,13.8,32.3,20.9
		c15.7,10.4,27.3,26.7,31.9,44.7c3.1,12.3,3.1,25.2,5.7,37.6s8.3,25.2,19.5,31.5c6.4,3.6,13.9,4.8,20.9,7.2
		c25.3,8.8,42.6,31.6,56.4,54.3"/>
	<path class="st0" d="M137.5,620.6c-26.2-4.8-46.5-23.7-74.9-25.4c-16.3-1-18.5,17.4,0.2,34.2c3.7,3.3,8.5,5,13.2,6.6
		c20.8,7.3,42.6,12.1,64.6,14.2"/>
	<path class="st0" d="M80.5,637.4c-9.3-3.2-24.7,21.5,9.6,28.4c6.7,1.3,30,8.3,67,5.2"/>
	<path class="st0" d="M182,687.7"/>
	<path class="st0" d="M98.5,667.4c-18.2,3.2-14,15.9-1,22.2c25.4,12.2,55.9,2,83.7-2.7"/>
	<path class="st0" d="M112.3,694.5c-16.1,0.9-6.7,12.6-0.5,17.5c6.3,4.9,14.6,6.5,22.6,6c8-0.5,15.7-2.8,23.3-5.1
		c13.9-4.2,27.7-8.4,41.6-12.7"/>
	<path class="st0" d="M147,716.2c-3.4-0.3-40.5,8.4-12.7,20.7c9.5,4.2,17.1,2.1,20.5,1.3c19.9-4.7,36-11.1,54.8-19.1"/>
	<path class="st0" d="M159.7,737.2c-11,2.1-16.5,4.2-15.4,11c0.8,4.9,9.7,15.7,30.2,7.2c15.2-6.3,28.8-12.4,39.7-17.6"/>
	<path class="st0" d="M174.7,755.8c-3.6,2.8-6.7,7.3-5.9,11.7c0.8,4.4,4.2,8.3,8.5,9.7c6.3,2.1,13.2-1,18.9-4.4
		c7.3-4.3,14.2-9.3,21.1-14.3"/>
	<path class="st0" d="M192.7,774.6c-2.7,1.6-5.7,3.5-6.6,6.5c-0.6,2.1-0.1,4.4,1.1,6.2c3.6,6.1,12.6,8,19.1,5
		c6.7-3.2,11.8-7.8,16.6-13"/>
	<path class="st0" d="M213,788.2c-2.5,2.7-7.8,6.3-6.7,10c1.1,3.7,7.1,11.6,15.4,9.3c4.9-1.4,8-8.2,12.1-11.1"/>
	<path class="st0" d="M230.1,800c-2.1,2.1-7.3,9.4-2.5,14.4c11.2,11.8,19.6-2.4,23.1-6.4"/>
	<path class="st0" d="M244.1,815.9c-6.4,6.1,6.1,12.8,11.4,9.9c5.7-3.2,8.7-8.9,11.6-13.1"/>
	<path class="st0" d="M259.3,823.3c-6.6,6.1,6,13.1,10.9,11c5.5-2.4,8.8-11.8,11.1-17.3"/>
	<path class="st0" d="M274.8,829.7c-3.2,4.2-2,6.7,1.7,8.7c9.5,5.3,12.3-4.4,16.5-9.6"/>
	<path class="st0" d="M289.4,834.1c-4,5.3-1.6,9.7,3.4,11.6c5,1.9,7.4,2.3,9.5-3.8"/>
	<path class="st0" d="M397.4,512.1c-2.9-0.3-5.8,1.8-6.5,4.6c-0.6,2.8,0.8,5.6,2.5,8c4.1,6,9.8,11.3,16.8,13.7
		c2.1,0.7,4.4,1.2,6.5,0.4c2.2-0.8,3.8-3.1,3.7-5.5"/>
	<path class="st0" d="M398,512.2c11.9-9.5,24.3-18.4,37-26.7c6.5-4.2,14.4-8.5,21.7-5.9c4.8,1.7,8.2,6.2,9.1,11.1s-0.8,10.1-4,14
		c-1.7,2.1-3.8,3.8-5.9,5.5c-11.3,9-23.7,16.6-36.8,22.7"/>
	<path class="st0" d="M391.2,521.1c-5.6,2-10.8,5.2-15,9.3c-0.4,0.4-0.8,0.8-0.8,1.3c-0.1,1.2,1.6,1.8,2.9,1.8c3.5,0,7-0.5,10.3-1.5
		c3.7-1.1,8.2-2.7,11.1-0.1c0.9,0.8,1.5,2,1.9,3.2c1.5,5.2-1.1,10.7-3.3,15.7c-0.3,0.7-0.6,1.4-0.4,2.1c0.2,1,1.3,1.7,2.3,1.8
		c1.1,0.1,2.1-0.4,3-0.9c5.4-2.9,9.2-8.6,9.6-14.7"/>
	<path class="st0" d="M398.6,650.2c12.9-2.3,22.5-0.3,31.5,3.6c9.1,3.9,17.3,10.9,24.1,18.1"/>
	<path class="st0" d="M341.9,683.2c3.4-4.2,5.9-8,12.1-13.3"/>
	<path class="st0" d="M519.6,702.9c-32-63.5-82.4-94.3-131.9-82.9"/>
	<path class="st0" d="M345,634.2c-9.7,7.4-18.6,14.7-26.9,23.6"/>
	<path class="st0" d="M397.5,589.9c53-11.8,110,29.4,134.2,76.2"/>
	<path class="st0" d="M343,604.1c-17.2,7.5-28.5,19.6-41,33.5"/>
	<path class="st0" d="M278.8,616.2c15.2-29,40.2-49.7,71.1-61.6"/>
	<path class="st0" d="M465.9,567.9c32.6,4.5,63.5,33.5,76.4,57.4"/>
	<path class="st0" d="M508.6,545.5c20.3,9.7,32.8,24.6,48,41"/>
	<path class="st0" d="M350.3,516.1c-43.3,14.1-80.7,49.4-98.8,90.7"/>
	<path class="st0" d="M799.3,379.8c-18.1-29.4-41-69.9-71.8-86c-15.4-8.1-32.5-11.9-49.3-16.4c-16.5-4.4-32.7-9.6-48.7-15.4
		c-11.9-4.3-23.9-9.2-34-16.7c-20.4-15.3-31.1-39.8-47.4-59.3c-24-28.8-61.4-46.3-99.3-46.5"/>
	<path class="st0" d="M637,264.8c-0.4,26.9-8.8,52.6-24.3,74.7c-15.5,22.1-37.8,39.5-63.2,49.4"/>
	<path class="st0" d="M590.5,242.2c10.3,21.1,10.9,46.5,1.8,68c-9.1,21.6-27.9,38.9-50.3,46.6c-12.3,4.2-26.4,5.3-37.7-0.8
		c-11.4-6.1-16.7-18.2-10.6-29.5c7-13,22.7-23.3,35.6-30.6c18.3-10.3,8.1-38.2-3.4-49.5c-13-12.8-25.4-22.7-42.8-28.4
		c-15.1-5-25.5-6.1-41.4-7c-13.2-0.8-35,3.1-44.4,12.2c-12.2,11.8,2.1,38.3,0,55c-3.7,29-46.7,68.9-88,84.6
		c-19.3,7.4-39.8,11.1-59.2,18.2c-60,21.9-103.6,73.1-140.7,124.5c-13.8,19.2-23.4,40.5-32,62.5c-5.8,14.9-10.4,26.6-21.9,26.2
		c-7.4-0.2-14.5-11.6-17.2-18.4c-8.2-20.7-6.1-42.4,2.5-63c11.5-27.3,27.3-41.2,43.8-59.1c35.4-38.4,72.4-68,119.2-91.8"/>
	<path class="st0" d="M512.7,357.1c8.4-0.4,16.7-3.9,22.8-9.7c0.7-0.7,1.5-1.6,1.4-2.6c-0.2-1.4-1.8-2-3.1-2.4
		c-5.8-1.4-11.8-1.9-17.8-1.4c-1.8,0.1-3.6,0.4-5.3-0.1c-1.7-0.5-3.3-1.9-3.3-3.7c0-0.8,0.3-1.7,0.6-2.4c2.2-5.2,4.5-10.6,9.1-13.9
		c0.5-0.4,1.1-0.8,1.2-1.5c0.1-1-1-1.7-2-2c-8.6-2.5-18.3,2.6-22.4,10.4c-2.3,4.3-3.1,9.4-1.9,14.1
		C494.1,350.8,503.5,357.5,512.7,357.1z"/>
	<path class="st0" d="M503.3,355.9c-1.3,3.1-2.1,2.5-4.9,4.4c-10.2,7-20.8,14-32.8,17.3c-5,1.4-10.3,2.1-15.4,0.9
		c-5-1.2-9.7-4.7-11.3-9.6c-1.9-5.8,1.1-12.3,5.7-16.4c4.6-4.1,10.6-6.3,16.4-8.4c9.8-3.6,19.6-7.1,29.4-10.7"/>
	<path class="st0" d="M461.7,212.5c-2,10.8-24.1,15.6-40.3,0.8"/>
	<path class="st0" d="M493,223.2c0.9,17.3-59.8,45.8-95.9,0.4"/>
	<path class="st0" d="M522.1,242.6c-18.4,25.7-87.9,56.9-129.4,3.3"/>
	<path class="st0" d="M537.8,268.9c-29,30.9-99.5,56.8-141.4,13.4"/>
	<path class="st0" d="M408.9,322c-2.8,1.6-19-9.8-24.4-15.3"/>
	<path class="st0" d="M389.1,344.3c-8.9-4.1-17-9.4-22.5-17.4"/>
	<path class="st0" d="M365.1,366.4c-8-5.5-14.9-14.4-20.3-22.3"/>
	<path class="st0" d="M334.7,391.7c-11.1-6.9-21.9-18.6-27.1-30.5"/>
	<path class="st0" d="M163.9,437.6"/>
	<path class="st0" d="M182.3,455.8c0.2-4.5-0.7-7.5-4.6-11.9c-3.5-3.9-5.6-4.2-11.1-6.8"/>
	<path class="st0" d="M181.9,456.5c-9.7,3.9-21.2,1-26.9-7.6"/>
	<path class="st0" d="M165.4,456.6c-1.5-2.5-3-6.8-2.6-9.7c5.2-3,12.1-2.8,17.2,0.5"/>
	<path class="st0" d="M83.7,454.9c-8.3,9.2-19.8,21.4-32.2,29.2C29,498.1-30.1,465,90,386.5c12.9-8.4,26.1-16.4,39.4-24.2
		c14.1-8.2,28.5-16,43.7-22.1c12.7-5.1,26-8.8,39.5-11.3"/>
	<path class="st0" d="M210.9,401.2c-9.5-23.7-8.7-54.1,3.7-76.5c5.2-9.4,12.3-18.5,12.5-29.1c0.2-11.3-7.7-21.1-11.6-31.8
		c-5.3-14.4-3.1-31.3,5.7-43.9c10.9-15.6,31.5-25.7,34.7-44.4c1.8-10.4-2.5-20.8-4.4-31.3c-4-22.5,5.2-45.1,18.4-63.9
		c15.4-21.9,54.6-40.1,54.5-40.3c-0.5-0.5-22.9,20.2-32.8,30.6c-8.9,9.4-17.5,19.4-23.3,30.9c-5.8,11.5-8.6,24.9-5.8,37.5
		c1.2,5.3,3.4,10.4,4.7,15.7c3.1,12.6,0.8,26.5-6.2,37.5c-7.9,12.4-21.2,20.9-29,33.4c-7.7,12.3-9.2,28.2-4.1,41.8
		c3.3,8.7,9.3,16.6,10.3,25.9c1.3,11.8-5.6,22.8-11,33.5c-10.2,20-15.8,47.3-5.5,67.3"/>
	<path class="st0" d="M68.3,401.2c-5.7,3.3-18.4,11-25,11.2c-15.9,0.6-43.7-31.7,13.5-59.8c56-27.5,115.8-52.2,170.9-58.2
		c-1.2,0.2-2.5,0.4-3.7,0.6"/>
	<path class="st0" d="M81.6,340.6c-9.8,3.7-27,16.9-39.3,6c-8.3-7.3-23.2-48.7,64.3-66.3c35.5-7.1,71.3-13.4,107.5-15"/>
	<path class="st0" d="M97,282.7c-65.9,9.1-35-40.6-4.8-43.8c41.6-4.4,79.8-0.3,119.9,3.9"/>
	<path class="st0" d="M135.1,236.8c-3.5,0.1-20.2-2.4-23.7-2.8c-31.9-3.6-25-50.7,19.2-42c30.3,5.9,59.8,16,87.9,28.8"/>
	<path class="st0" d="M151.9,196.7c-28.5-7.2-32-20.9-27.2-29.7c13.5-24.5,28-12.2,34.9-7.9c24.8,15,48.9,31.2,72.2,48.3"/>
	<path class="st0" d="M160.2,159.8c-15.9-10.5-8.5-33.2,8.9-31.9c6.8,0.5,20,9.5,23.2,11.7c13.3,9.2,36.5,29.5,56.6,50.2"/>
	<path class="st0" d="M191.8,138.5c-10.5-8.7-11.4-15.1-11.4-20c0-8.8,16.3-20.2,33.3-7.6c8.7,6.5,16.3,14.3,23,22.8
		c6.7,8.4,12.7,17.3,17.9,26.7c0.2,0.3,0.3,0.6,0.5,0.9"/>
	<path class="st0" d="M212.7,110.6c-8.7-7.9-3.3-15.6,0.7-19.8c3.8-3.9,11-10.1,20.7,0c3.1,3.2,5.2,6.7,7.6,10.5
		c3.5,5.6,7.1,11.1,10.6,16.7"/>
	<path class="st0" d="M239.5,98.3c-9.8-15.6-3.8-20-0.1-22.3c5.7-3.7,17.7-8.1,24,14.1"/>
	<path class="st0" d="M263.6,89.9c-1.7-4.4-7.7-14.9-6.1-19.3c4.7-12.7,20.9-12.5,24.6-3.7"/>
	<path class="st0" d="M324,47.1"/>
	<path class="st0" d="M725.7,292.4c15-20,17.6-45,9.5-68.6c-9.8-28.7-35.5-49-51.3-75c-8-13.2-13.4-27.8-21.3-41
		c-7.9-13.2-19.1-25.6-33.9-30.1c-13.2-4-28.3-1.7-40.3-8.3c-11-6.1-17.1-18.6-27.6-25.5c-5.3-3.5-11.5-5.5-17.6-7.4
		C518.9,28.7,415,8,324,39.9"/>
	<path class="st0" d="M738.7,300.7c16.4-32.9,16.4-82.9-5.7-112.5c-6.7-8.9-17.1-20.7-23.7-29.5c-17.1-22.7-17.5-37.7-40.7-58.8
		c-7.4-6.7-17.5,0.2-25.3-20c-8.7-22.6-45.5-14.7-54.7-24.4c-8.5-8.9-23-20-29.4-12.9"/>
	<path class="st0" d="M711,278"/>
	<path class="st0" d="M707.9,285.9c11-26,8.7-48.9-13.2-71.5c-6.9-7.1-15.5-12.9-21-21.2c-10.5-16-6.8-37.6-14.7-55.1
		c-9.9-21.8-27.7-29.3-55.8-33.3c-27.3-3.9-38.3-4.7-59.6-23.1c-26.2-22.7-57.8-47.6-115.2-50.1c-28.7-1.3-72.5,6.7-101.4,34.1
		c-17.3,16.4-42.2,49.8-32.9,88.4c7.4,30.7,0.9,42.3-17.4,57.4c-12.6,10.5-26.1,33.7-16.1,53.2c9.3,18.3,23.2,39.1,4.7,56.5
		c-23,21.7-18.2,51.1-8.6,57.7"/>
	<path class="st0" d="M266.8,375.2c-7.2-9.2-9.2-22.1-5.3-33c5.3-14.5,20.1-25.2,21.9-40.6c2.1-17.8-16.5-34.7-16-52.6
		c0.6-25.7,36.6-39.8,38.5-65.5c0.5-6.8-1.4-13.5-2.6-20.1c-5.8-33-1.5-61.3,23.2-84.2c17.2-16,61.6-39,86.3-39.1
		c58.6-0.4,97.2,24.8,140.6,60.5c17.1,14,42.3,13.4,58.2,14.4c24.4,1.6,38.6,18,43.3,33c3.2,10.1,0.8,21.3,3.4,31.6
		c5.4,21.1,28.4,33.8,39.7,52.4c9.6,15.7,9.9,35.1-0.7,50.2"/>
	<path class="st0" d="M308.6,363.1c-2.3-3.4-6.5-9.5-7-14.8c-2.5-25.5,25.2-36.9,15.7-62.4c-16.5-44-7.1-45.4,10.5-62.3
		c15-14.4,10.1-47.3,12.7-67.8c3.1-24.9,14.2-41.1,31.4-59.5s42.9-29.9,68.1-26.7c24,3.1,44.5,18.4,62.7,34.1
		c18.3,15.7,51.7,44.3,79.3,49.2c23.3,4.1,33.2,12.1,36.7,22.6c1.9,5.6,1.7,11.8,3.7,17.4c5.8,16.6,26.9,21.8,39.5,34.2
		c12.4,12.2,15.7,32.5,7.8,47.9"/>
	<path class="st0" d="M301.9,365.9c-9.2-5.2-15.1-23-10.3-32.3c5.8-11.2,18.9-21.6,17.9-38.2c-2-32.6-29.6-39.2,10.2-78.7
		c13.5-13.4,8.2-36.5,9.9-55.4c2.5-28.4,15.5-56,37.1-74.9s51.8-28.4,80.3-23.6c23.1,3.9,43.8,16.5,61.6,31.5
		c21.2,17.8,40.3,39.9,66.9,47.9c18.8,5.7,39.2,7.7,45.6,19.2c5.9,10.6-1,30.2,18.8,41.3c28.8,16.1,49.1,31.1,37.7,73.9"/>
	<path class="st0" d="M808.6,325.2"/>
	<path class="st0" d="M745.2,283.5c5.1-0.1,9.8,2.7,14.2,5.3c3.9,2.4,48.7,27.1,47.5,44.8"/>
	<path class="st0" d="M750.1,259.8c21.1,1.1,38.3,5.5,56.3,16.3"/>
	<path class="st0" d="M783.7,303.9c13.1,8,18.2,8,23.7,0.2"/>
	<path class="st0" d="M788.3,266.9c12.9,5.3,24.1-5.9,26.7-13.1s0.4-14.4-6-18.6c-5.6-3.7-18.9-2.2-25.6-2.4
		c-10.6-0.3-23.3,0-33.9-0.3"/>
	<path class="st0" d="M783.7,232.6c5.1,1,10.2-1.9,12.3-6.6c2.1-4.7,3.6-24.6-17.1-26.5c-12-1.1-26.1,0.9-38,2.5"/>
	<path class="st0" d="M772.5,199.1c3.2-4.2,5.3-11.3,3.2-16.2c-2.1-4.9-6.9-8.5-12.3-9.2c-5.1-0.7-10.2,1.2-15.1,3.1
		c-5.7,2.2-14,4.4-19.7,6.6"/>
	<path class="st0" d="M753,175.1c-0.2-0.3-0.5,0.4-0.2,0.5c0.3,0.1,0.5-0.3,0.8-0.5c8.3-5.5,4.4-14.6-0.7-18.2
		c-5.1-3.6-15.5-2-21.5-0.3c-6,1.6-12.7,4.8-18,8.1"/>
	<path class="st0" d="M730.5,157c14.2-5.4,8.4-11.4,6.6-15.5c-2.4-5.3-11.5-7.8-19.7-3.9c-5.3,2.5-11.6,5.2-16.3,8.6"/>
	<path class="st0" d="M716.8,138.1c10.6-5.8,4.1-11.1,1.2-14.3s-9.2-1.5-13.5-1.1c-4.3,0.4-11.3,2.6-15.3,4.2"/>
	<path class="st0" d="M679.8,108.9"/>
	<path class="st0" d="M704.8,122.6c4.2-3.2,3.3-7.3-3.8-13.1c-4-3.2-6.3-4.8-11.5-5.1c-1.7-0.1-9.9,3.8-11.6,3.7"/>
	<path class="st0" d="M96,604.1c-10.6-6.8-21.8-10.6-22.6-26.2"/>
</g>
</svg>
