<svg xmlns="http://www.w3.org/2000/svg" viewBox="0 0 737.51 304.81"><defs><style>.\30 79345dd-21b2-4863-8915-7bbafd18b43d,.\34 24f7944-6a54-4956-9b57-391a95bc970b,.c1c35751-7abe-4d5b-9426-2c618206db6b,.e01d7a10-e8d3-4f55-a574-57d54227b486{fill:none;stroke-width:0.5px;}.\30 79345dd-21b2-4863-8915-7bbafd18b43d{stroke:#000;}.\30 79345dd-21b2-4863-8915-7bbafd18b43d,.\34 24f7944-6a54-4956-9b57-391a95bc970b,.c1c35751-7abe-4d5b-9426-2c618206db6b{stroke-linecap:round;stroke-linejoin:round;}.c1c35751-7abe-4d5b-9426-2c618206db6b{stroke:#040000;}.\34 24f7944-6a54-4956-9b57-391a95bc970b,.e01d7a10-e8d3-4f55-a574-57d54227b486{stroke:#070102;}.\30 1927dfa-be0a-4c64-b2fd-a6123b22e9f9{fill:#070102;}.e01d7a10-e8d3-4f55-a574-57d54227b486{stroke-miterlimit:10;}</style></defs><title>松鼠穿裤子svg</title><g id="1b05a2ce-e9a1-4880-8e62-4dbb3bab65fd" data-name="图层 2"><path class="079345dd-21b2-4863-8915-7bbafd18b43d" d="M233.5,0c0,22.64-25.07,41-56,41s-56-18.36-56-41" transform="translate(0.25 0.31)"/><path class="c1c35751-7abe-4d5b-9426-2c618206db6b" d="M171.31,40.75s-3,17.75,8.35,22.75c0,0,9.17-7.67,6.83-22.75" transform="translate(0.25 0.31)"/><path class="c1c35751-7abe-4d5b-9426-2c618206db6b" d="M186.88,40.67s-.71,11,4.12,13.5c0,0,9,6.67,9,8.33,0,3.21,2.33-10.17,2-14.67s-6.66-9-6.66-9" transform="translate(0.25 0.31)"/><path class="c1c35751-7abe-4d5b-9426-2c618206db6b" d="M202,36.87s-1.72,5.38,0,9.63,9.47,10.13,13.47,10.63l2-13.87a11.83,11.83,0,0,0-5.82-10.77" transform="translate(0.25 0.31)"/><path class="424f7944-6a54-4956-9b57-391a95bc970b" d="M224.79,22s6.08,4.79,6.08,14.54V47.88s-11-.12-13.36-7.87" transform="translate(0.25 0.31)"/><path class="424f7944-6a54-4956-9b57-391a95bc970b" d="M231.93,9.68s6.95-.68,10.82,8.07,3.5,9.75,5.5,12.75-19.31-1-19-2.29" transform="translate(0.25 0.31)"/><path class="424f7944-6a54-4956-9b57-391a95bc970b" d="M246.38,0s5.38,1.88,7.88,5.88,4.13,3.8,4.13,3.8-5.9,7.57-19.07,3" transform="translate(0.25 0.31)"/><path class="424f7944-6a54-4956-9b57-391a95bc970b" d="M248.84,14.15l5.41,6.49c-5.75,3-9.71,1.33-9.71,1.33" transform="translate(0.25 0.31)"/><path class="424f7944-6a54-4956-9b57-391a95bc970b" d="M239.3,31s2.2,8.15,1.95,9.78c0,0-6.62,2.13-10.37.25" transform="translate(0.25 0.31)"/><path class="424f7944-6a54-4956-9b57-391a95bc970b" d="M209.39,54.3s.73,5-2.64,6.45c0,0-4.71-4.83-5.48-3.66" transform="translate(0.25 0.31)"/><path class="424f7944-6a54-4956-9b57-391a95bc970b" d="M224.75,46.72s.37,4.53.87,5.4c0,0-6.41.22-9-2.7" transform="translate(0.25 0.31)"/><path class="424f7944-6a54-4956-9b57-391a95bc970b" d="M192.95,55.66s-.82,4.09-1.7,5.09a8.55,8.55,0,0,0-1.37,2.75s-5.29-2.75-5.59-6.37" transform="translate(0.25 0.31)"/><path class="424f7944-6a54-4956-9b57-391a95bc970b" d="M161.28,39.25s-5.28,13,1.47,24.25c0,0,8.73-9.4,8.47-13.39" transform="translate(0.25 0.31)"/><path class="424f7944-6a54-4956-9b57-391a95bc970b" d="M148.14,34.92s-4.26,2.44-4,16c0,0,.13,5.72-.62,8.65,0,0,15-3,12.23-21.79" transform="translate(0.25 0.31)"/><path class="424f7944-6a54-4956-9b57-391a95bc970b" d="M140.8,31s-9.18.85-8.93,15.75a35.18,35.18,0,0,1-.87,6.65s10-1.77,13.36-8.57" transform="translate(0.25 0.31)"/><path class="424f7944-6a54-4956-9b57-391a95bc970b" d="M130,21.69s-7.84-1.19-14.22,19.94A63.49,63.49,0,0,0,130,37.88a14.66,14.66,0,0,0,6-4.31" transform="translate(0.25 0.31)"/><path class="424f7944-6a54-4956-9b57-391a95bc970b" d="M122.89,9.13s-13.77-.2-16.39,22.52c0,0,.25-1.65,6-1.78,0,0,7.54.47,10.39-3.64" transform="translate(0.25 0.31)"/><path class="424f7944-6a54-4956-9b57-391a95bc970b" d="M114.7,0s-9.45,1.63-16.45,12.25c0,0,5.25,1.5,5.88,2.75,0,0,3,2.5,8.34,0" transform="translate(0.25 0.31)"/><path class="424f7944-6a54-4956-9b57-391a95bc970b" d="M102.13,0s-4.75,2.63-5.87,4.75c0,0,4.52,4.09,5.27,3.31" transform="translate(0.25 0.31)"/><path class="424f7944-6a54-4956-9b57-391a95bc970b" d="M105.12,15.56s-1.37,3.69-3,3.94c0,0,4,4.44,6,4.16" transform="translate(0.25 0.31)"/><path class="424f7944-6a54-4956-9b57-391a95bc970b" d="M113.37,29.89S112,35.38,111,36c0,0,4.94,1.7,6.47.54" transform="translate(0.25 0.31)"/><path class="424f7944-6a54-4956-9b57-391a95bc970b" d="M124.85,39.66s-2.81,7.84-2,10c0,0,9-1.68,9-2.9" transform="translate(0.25 0.31)"/><path class="424f7944-6a54-4956-9b57-391a95bc970b" d="M137.68,51a38.64,38.64,0,0,1,.7,6.5s5.11-1.9,5.74-4.15" transform="translate(0.25 0.31)"/><path class="424f7944-6a54-4956-9b57-391a95bc970b" d="M153.57,52.13S155.75,60,155.38,63c0,0,4.44-2.41,4.59-6.51" transform="translate(0.25 0.31)"/><path class="424f7944-6a54-4956-9b57-391a95bc970b" d="M156.06,43.13l1.44,3.6c.88-.28,2.64-3.6,2.64-3.6" transform="translate(0.25 0.31)"/><path class="424f7944-6a54-4956-9b57-391a95bc970b" d="M167.63,57.56s2.08,5.82,3.6,6.69c0,0,4.26-3.54,3.49-4.67" transform="translate(0.25 0.31)"/><path class="424f7944-6a54-4956-9b57-391a95bc970b" d="M182.75,40.75c.63-.75-2.16,9.38-3.83,9.63-2,.29-3.3-9.4-3.3-9.4" transform="translate(0.25 0.31)"/><path class="424f7944-6a54-4956-9b57-391a95bc970b" d="M137.68,32.17s-3.68,1.53-5.3.31,2.73-5.7,2.73-5.7" transform="translate(0.25 0.31)"/><path class="424f7944-6a54-4956-9b57-391a95bc970b" d="M127.81,18.92s-5.31,2-6.31-1.17c-.35-1.08,3.21-4,3.21-4" transform="translate(0.25 0.31)"/><path class="424f7944-6a54-4956-9b57-391a95bc970b" d="M122.38,7.28s-5.75.47-6.63-1.65c-1.28-3.11,5.75-4.5,5.75-4.5" transform="translate(0.25 0.31)"/><path class="424f7944-6a54-4956-9b57-391a95bc970b" d="M221.49,25.37s.51,7.75-1.11,8c-1.12.17-4.88-3.26-4.88-3.26" transform="translate(0.25 0.31)"/><path class="424f7944-6a54-4956-9b57-391a95bc970b" d="M231.13,11.83a14.27,14.27,0,0,1,2.37,8s-4.11.7-5.87-1.59" transform="translate(0.25 0.31)"/><path class="424f7944-6a54-4956-9b57-391a95bc970b" d="M236.88,0s4.35,3.21,1.92,5.36c-1.78,1.57-5.77,0-5.77,0" transform="translate(0.25 0.31)"/><path class="424f7944-6a54-4956-9b57-391a95bc970b" d="M253.11,4.39s3.51,1,5.26-.76c0,0-1.37-4.25-4.12-3.62" transform="translate(0.25 0.31)"/><line class="424f7944-6a54-4956-9b57-391a95bc970b" x1="125.17" y1="14.46" x2="231.84" y2="10.95"/><line class="424f7944-6a54-4956-9b57-391a95bc970b" x1="227" y1="19.84" x2="129.35" y2="20.95"/><line class="424f7944-6a54-4956-9b57-391a95bc970b" x1="142.07" y1="31.91" x2="216.86" y2="29.65"/><line class="424f7944-6a54-4956-9b57-391a95bc970b" x1="135.11" y1="0.31" x2="136.18" y2="27.79"/><line class="424f7944-6a54-4956-9b57-391a95bc970b" x1="141.15" y1="0.31" x2="140.28" y2="30.78"/><line class="424f7944-6a54-4956-9b57-391a95bc970b" x1="150.75" y1="0.31" x2="151.3" y2="36.46"/><line class="424f7944-6a54-4956-9b57-391a95bc970b" x1="167.88" y1="0.31" x2="166.25" y2="39.97"/><line class="424f7944-6a54-4956-9b57-391a95bc970b" x1="180.75" y1="0.25" x2="177.75" y2="41.31"/><line class="424f7944-6a54-4956-9b57-391a95bc970b" x1="201.52" y1="0.31" x2="198.74" y2="38.33"/><line class="424f7944-6a54-4956-9b57-391a95bc970b" x1="207.08" y1="0.31" x2="205.61" y2="35.23"/><line class="424f7944-6a54-4956-9b57-391a95bc970b" x1="222.92" y1="0.31" x2="222.92" y2="24.55"/><path class="424f7944-6a54-4956-9b57-391a95bc970b" d="M182,60.9v64.76c4.66-9,12.45-9.33,12.45-9.33s-10.79,12-12.45,17V228c4-7.67,16.34-12,16.34-12S185.65,227.33,182,238v65" transform="translate(0.25 0.31)"/><path class="424f7944-6a54-4956-9b57-391a95bc970b" d="M175.62,60.64l0,118.7A37.94,37.94,0,0,0,166,167s10.33,18,9.67,23.67l0,67.67c-6.29-12-12.36-10-12.36-10s12.39,12.33,12.36,19.33V303" transform="translate(0.25 0.31)"/><path class="424f7944-6a54-4956-9b57-391a95bc970b" d="M182,118.67s3-14.81,18.71-17c5.23-.73,11.88-.07,20.3,3,0,0,12.33,5,23,5.36,0,0-15,5.64-18.33,11.31,0,0-28.09,31.5-41.38,7.75" transform="translate(0.25 0.31)"/><path class="424f7944-6a54-4956-9b57-391a95bc970b" d="M190.16,117.53s9.24-10.23,10.54-15.88" transform="translate(0.25 0.31)"/><path class="424f7944-6a54-4956-9b57-391a95bc970b" d="M205.36,136.32c-3.64-.34-13.81-16.66-13.81-16.66l1.08-1.26a247.49,247.49,0,0,1,21.88,12.8" transform="translate(0.25 0.31)"/><path class="424f7944-6a54-4956-9b57-391a95bc970b" d="M193.38,117.53s26.88-3.59,36.06,0" transform="translate(0.25 0.31)"/><path class="424f7944-6a54-4956-9b57-391a95bc970b" d="M207.63,101.38s-.87,7.58-14.25,15.1" transform="translate(0.25 0.31)"/><path class="424f7944-6a54-4956-9b57-391a95bc970b" d="M229.44,107.5s-26.82,8.67-35,8.83" transform="translate(0.25 0.31)"/><path class="424f7944-6a54-4956-9b57-391a95bc970b" d="M187.7,227.77" transform="translate(0.25 0.31)"/><path class="424f7944-6a54-4956-9b57-391a95bc970b" d="M185.48,223.57s-6.64-18.9,17.94-22.56A47.24,47.24,0,0,1,223,204.25s9.58,3.42,16.17-.92c0,0-23.77,48.2-51.47,24.44" transform="translate(0.25 0.31)"/><path class="424f7944-6a54-4956-9b57-391a95bc970b" d="M192,212.25s-1.5.33-1.5-1" transform="translate(0.25 0.31)"/><path class="424f7944-6a54-4956-9b57-391a95bc970b" d="M190.5,210.92a1.6,1.6,0,0,1,1.5-1.42s3.25-.84,2.08,2.79c0,0-1.8,6.68-5.3,8.64" transform="translate(0.25 0.31)"/><path class="424f7944-6a54-4956-9b57-391a95bc970b" d="M204.25,208.25s-2.25.08-2-1.17a2.22,2.22,0,0,1,2.83-1.67c1.25.42,6.53,2.61-6.75,10.58" transform="translate(0.25 0.31)"/><path class="424f7944-6a54-4956-9b57-391a95bc970b" d="M221.42,209.42s-.67-.92,0-1.5,1.92-1.25,2.83,0,1.17,2.17-.75,3.33-9,1.5-26.33,5.83" transform="translate(0.25 0.31)"/><path class="424f7944-6a54-4956-9b57-391a95bc970b" d="M199.67,230.42a2.55,2.55,0,0,0,3.83-1.33c1.33-2.92-3.67-5.5-13-4.87" transform="translate(0.25 0.31)"/><path class="424f7944-6a54-4956-9b57-391a95bc970b" d="M206.75,223.5s2.58,4.42,5.16,1.25-8.91-8.86-12.86-8.13" transform="translate(0.25 0.31)"/><path class="424f7944-6a54-4956-9b57-391a95bc970b" d="M220.75,218.5a1.52,1.52,0,0,0,0,1.75c.67.75,3.75,1,3.58-2.25s-14.08-4-20.62-2.48" transform="translate(0.25 0.31)"/><path class="424f7944-6a54-4956-9b57-391a95bc970b" d="M171,251.63s6.63-21.59-14.37-23.86c0,0-6.59-.57-15.83,2.4,0,0,20,18.12,22.5,18.16l-25.18-6.55" transform="translate(0.25 0.31)"/><path class="424f7944-6a54-4956-9b57-391a95bc970b" d="M129.5,232c3.83,0,13.67,18.33,13.67,18.33,18.33,21.17,27.06,6,27.06,6" transform="translate(0.25 0.31)"/><line class="424f7944-6a54-4956-9b57-391a95bc970b" x1="167.55" y1="232.31" x2="164.6" y2="248.52"/><polyline class="424f7944-6a54-4956-9b57-391a95bc970b" points="143.82 251.1 163.58 248.64 157.83 228.2"/><line class="424f7944-6a54-4956-9b57-391a95bc970b" x1="150.7" y1="257.65" x2="164.6" y2="249.69"/><path class="424f7944-6a54-4956-9b57-391a95bc970b" d="M91,168.33a4.33,4.33,0,0,1,8.08-2.19" transform="translate(0.25 0.31)"/><path class="424f7944-6a54-4956-9b57-391a95bc970b" d="M106.84,169.05a4.33,4.33,0,0,0-7.67-2.76l-1.67,41.2" transform="translate(0.25 0.31)"/><path class="424f7944-6a54-4956-9b57-391a95bc970b" d="M106.83,169.14a5.17,5.17,0,0,1,6.27,4.21" transform="translate(0.25 0.31)"/><path class="424f7944-6a54-4956-9b57-391a95bc970b" d="M113.19,173.34h.23a5.65,5.65,0,0,1,5.58,5.72,6,6,0,0,1,0,.72" transform="translate(0.25 0.31)"/><path class="424f7944-6a54-4956-9b57-391a95bc970b" d="M117.48,187.5l.4,0a4.17,4.17,0,0,1-.4,8.31" transform="translate(0.25 0.31)"/><path class="424f7944-6a54-4956-9b57-391a95bc970b" d="M117.45,195.83a4.49,4.49,0,0,1-3,8.07" transform="translate(0.25 0.31)"/><path class="424f7944-6a54-4956-9b57-391a95bc970b" d="M114.49,203.9c0,.09,0,.17,0,.26a3.5,3.5,0,0,1-6.23,2.19" transform="translate(0.25 0.31)"/><path class="424f7944-6a54-4956-9b57-391a95bc970b" d="M99,206.4a3.59,3.59,0,0,1-6.39-2.23" transform="translate(0.25 0.31)"/><path class="424f7944-6a54-4956-9b57-391a95bc970b" d="M85.33,171.31a3.37,3.37,0,0,1,0-.39A3.33,3.33,0,0,1,91,168.56" transform="translate(0.25 0.31)"/><path class="424f7944-6a54-4956-9b57-391a95bc970b" d="M79.42,180.49a5.7,5.7,0,0,1-1.34-3.68,5.49,5.49,0,0,1,5.39-5.59,5.21,5.21,0,0,1,1.9.36" transform="translate(0.25 0.31)"/><path class="424f7944-6a54-4956-9b57-391a95bc970b" d="M80.83,186.84a3.33,3.33,0,0,1-1.72-6.19" transform="translate(0.25 0.31)"/><path class="424f7944-6a54-4956-9b57-391a95bc970b" d="M81.19,193.71a3.44,3.44,0,1,1,0-6.87" transform="translate(0.25 0.31)"/><path class="424f7944-6a54-4956-9b57-391a95bc970b" d="M85.93,201.34a4.5,4.5,0,1,1-4.74-7.63" transform="translate(0.25 0.31)"/><path class="424f7944-6a54-4956-9b57-391a95bc970b" d="M92.55,204.08a3.56,3.56,0,0,1-6.7-1.73,3.65,3.65,0,0,1,.15-1" transform="translate(0.25 0.31)"/><line class="424f7944-6a54-4956-9b57-391a95bc970b" x1="92.19" y1="165.95" x2="90.77" y2="206.1"/><line class="424f7944-6a54-4956-9b57-391a95bc970b" x1="85.03" y1="171.83" x2="84.11" y2="202"/><line class="424f7944-6a54-4956-9b57-391a95bc970b" x1="109.55" y1="169.48" x2="107.78" y2="207.8"/><line class="424f7944-6a54-4956-9b57-391a95bc970b" x1="114.75" y1="173.76" x2="113.44" y2="207.21"/><line class="424f7944-6a54-4956-9b57-391a95bc970b" x1="119.25" y1="201.19" x2="79.66" y2="200.18"/><path class="424f7944-6a54-4956-9b57-391a95bc970b" d="M92.79,205.37l15.47,1a5.09,5.09,0,0,1-9.25.06" transform="translate(0.25 0.31)"/><path class="424f7944-6a54-4956-9b57-391a95bc970b" d="M80.83,186.84l36.64.66a4,4,0,0,0,1.67-7.63L78.6,179.2" transform="translate(0.25 0.31)"/><line class="424f7944-6a54-4956-9b57-391a95bc970b" x1="120.38" y1="195.19" x2="81.44" y2="194.02"/><line class="424f7944-6a54-4956-9b57-391a95bc970b" x1="85.56" y1="171.23" x2="111.81" y2="170.74"/></g><g id="69882899-135d-4f52-a6a2-3c1f5abd6975" data-name="图层 3"><path class="424f7944-6a54-4956-9b57-391a95bc970b" d="M88.52,159a6.78,6.78,0,0,1,6.14-3.46,7,7,0,0,1,5.66,2.67" transform="translate(0.25 0.31)"/><path class="424f7944-6a54-4956-9b57-391a95bc970b" d="M100.41,158.07a3.33,3.33,0,0,1,5.53.52" transform="translate(0.25 0.31)"/><path class="424f7944-6a54-4956-9b57-391a95bc970b" d="M106,158.51a5.17,5.17,0,0,1,8.6,5.14" transform="translate(0.25 0.31)"/><path class="424f7944-6a54-4956-9b57-391a95bc970b" d="M114.71,163.56a2.17,2.17,0,0,1,3.62,1.53" transform="translate(0.25 0.31)"/><path class="424f7944-6a54-4956-9b57-391a95bc970b" d="M118.45,165a4.17,4.17,0,0,1,4.71,6.7" transform="translate(0.25 0.31)"/><path class="424f7944-6a54-4956-9b57-391a95bc970b" d="M123.28,171.78a6,6,0,0,1,3.13,8.15" transform="translate(0.25 0.31)"/><path class="424f7944-6a54-4956-9b57-391a95bc970b" d="M126.52,180a5.83,5.83,0,0,1,1.09,8.23" transform="translate(0.25 0.31)"/><path class="424f7944-6a54-4956-9b57-391a95bc970b" d="M127.68,188.32a4.5,4.5,0,0,1-1.48,7.11" transform="translate(0.25 0.31)"/><path class="424f7944-6a54-4956-9b57-391a95bc970b" d="M126.29,195.55a4,4,0,0,1-2.81,6.25" transform="translate(0.25 0.31)"/><path class="424f7944-6a54-4956-9b57-391a95bc970b" d="M80.71,166.16a5.33,5.33,0,0,1,7.72-7" transform="translate(0.25 0.31)"/><path class="424f7944-6a54-4956-9b57-391a95bc970b" d="M75.9,174a4.67,4.67,0,0,1,4.81-7.84" transform="translate(0.25 0.31)"/><path class="424f7944-6a54-4956-9b57-391a95bc970b" d="M70.92,183.4a5.34,5.34,0,0,1,5-9.41" transform="translate(0.25 0.31)"/><path class="424f7944-6a54-4956-9b57-391a95bc970b" d="M70.23,193a8.17,8.17,0,0,1,.69-9.57" transform="translate(0.25 0.31)"/><path class="424f7944-6a54-4956-9b57-391a95bc970b" d="M74.61,202.89A7.51,7.51,0,0,1,70.23,193" transform="translate(0.25 0.31)"/><path class="424f7944-6a54-4956-9b57-391a95bc970b" d="M78.6,209.15a4.67,4.67,0,0,1-4-6.26" transform="translate(0.25 0.31)"/><path class="424f7944-6a54-4956-9b57-391a95bc970b" d="M87.45,214.48a6,6,0,0,1-8.78-5.32" transform="translate(0.25 0.31)"/><path class="424f7944-6a54-4956-9b57-391a95bc970b" d="M96.48,216.76a6.5,6.5,0,0,1-8.93-2.32" transform="translate(0.25 0.31)"/><path class="424f7944-6a54-4956-9b57-391a95bc970b" d="M104.83,216a4.84,4.84,0,0,1-8.23.71" transform="translate(0.25 0.31)"/><path class="424f7944-6a54-4956-9b57-391a95bc970b" d="M112.33,212.33c0,.06,0,.11,0,.17a4.5,4.5,0,0,1-7.46,3.39" transform="translate(0.25 0.31)"/><path class="424f7944-6a54-4956-9b57-391a95bc970b" d="M123.56,201.94a7.67,7.67,0,0,1-11.24,10.17" transform="translate(0.25 0.31)"/><circle class="424f7944-6a54-4956-9b57-391a95bc970b" cx="93.75" cy="161.06" r="1.21"/><circle class="424f7944-6a54-4956-9b57-391a95bc970b" cx="100.21" cy="161.98" r="0.96"/><circle class="424f7944-6a54-4956-9b57-391a95bc970b" cx="106.54" cy="163.31" r="1.5"/><circle class="424f7944-6a54-4956-9b57-391a95bc970b" cx="113.83" cy="167.6" r="1.62"/><circle class="424f7944-6a54-4956-9b57-391a95bc970b" cx="86.38" cy="163.97" r="1.25"/><circle class="424f7944-6a54-4956-9b57-391a95bc970b" cx="80.09" cy="169.7" r="1.37"/><circle class="424f7944-6a54-4956-9b57-391a95bc970b" cx="73.68" cy="178.88" r="1.62"/><circle class="424f7944-6a54-4956-9b57-391a95bc970b" cx="74.17" cy="187.06" r="1.58"/><circle class="424f7944-6a54-4956-9b57-391a95bc970b" cx="74.86" cy="195.86" r="1.29"/><circle class="424f7944-6a54-4956-9b57-391a95bc970b" cx="80.25" cy="204.98" r="1.36"/><circle class="424f7944-6a54-4956-9b57-391a95bc970b" cx="88.42" cy="210.56" r="1.42"/><circle class="424f7944-6a54-4956-9b57-391a95bc970b" cx="97.67" cy="212.64" r="1.5"/><circle class="424f7944-6a54-4956-9b57-391a95bc970b" cx="108.08" cy="212.48" r="1.67"/><circle class="424f7944-6a54-4956-9b57-391a95bc970b" cx="117.87" cy="208.85" r="1.95"/><circle class="424f7944-6a54-4956-9b57-391a95bc970b" cx="122.45" cy="199.11" r="1.67"/><circle class="424f7944-6a54-4956-9b57-391a95bc970b" cx="124.65" cy="191.12" r="1.42"/><circle class="424f7944-6a54-4956-9b57-391a95bc970b" cx="120.25" cy="174.3" r="1.87"/><circle class="424f7944-6a54-4956-9b57-391a95bc970b" cx="124.71" cy="184.45" r="1.67"/><path class="424f7944-6a54-4956-9b57-391a95bc970b" d="M101.43,157.23s-3.25-3.06,1.74-9.06l2.77-3.83.07.17c.51,1.26,3.5,9.15.38,13.66" transform="translate(0.25 0.31)"/><path class="424f7944-6a54-4956-9b57-391a95bc970b" d="M103,156.83a24.86,24.86,0,0,1,3.29-11.6" transform="translate(0.25 0.31)"/><path class="424f7944-6a54-4956-9b57-391a95bc970b" d="M114.21,159.71c5.13-8.63,12-6.71,12-6.71s1,8.08-6,11.67" transform="translate(0.25 0.31)"/><path class="424f7944-6a54-4956-9b57-391a95bc970b" d="M116.76,163.09a15.07,15.07,0,0,1,9-10.19" transform="translate(0.25 0.31)"/><path class="424f7944-6a54-4956-9b57-391a95bc970b" d="M128.68,183.35s2.61,1.61,11.82-5.47a14.71,14.71,0,0,0-7.21-3.21,7,7,0,0,0-6.29,2.67" transform="translate(0.25 0.31)"/><path class="424f7944-6a54-4956-9b57-391a95bc970b" d="M126.52,179.69s4.56-3.13,13.27-2.37" transform="translate(0.25 0.31)"/><path class="424f7944-6a54-4956-9b57-391a95bc970b" d="M140.88,198c-5.37-11.5-12-6.62-12-6.62" transform="translate(0.25 0.31)"/><path class="424f7944-6a54-4956-9b57-391a95bc970b" d="M126.94,197.13s4.6,2.16,13.94,1" transform="translate(0.25 0.31)"/><path class="424f7944-6a54-4956-9b57-391a95bc970b" d="M128.42,193.21s4.3-.67,12.13,5" transform="translate(0.25 0.31)"/><path class="424f7944-6a54-4956-9b57-391a95bc970b" d="M126,200.47s7.91,1.87,7.74,15c0,0-7.22.3-10.28-5" transform="translate(0.25 0.31)"/><path class="424f7944-6a54-4956-9b57-391a95bc970b" d="M124.83,204.17a21.82,21.82,0,0,1,8.92,11.33" transform="translate(0.25 0.31)"/><path class="424f7944-6a54-4956-9b57-391a95bc970b" d="M111.38,215.17s1.58,9.91,11.6,13.5c0,0-.35-11.9-3.12-15.33" transform="translate(0.25 0.31)"/><path class="424f7944-6a54-4956-9b57-391a95bc970b" d="M116.42,213.83s3.16,12.49,5.79,14.54" transform="translate(0.25 0.31)"/><path class="424f7944-6a54-4956-9b57-391a95bc970b" d="M95.24,217.32a13.71,13.71,0,0,0,2.18,14s5.76-7.1,6.42-14" transform="translate(0.25 0.31)"/><path class="424f7944-6a54-4956-9b57-391a95bc970b" d="M99,218.43s-4.28,6.07-1.61,12.9" transform="translate(0.25 0.31)"/><path class="424f7944-6a54-4956-9b57-391a95bc970b" d="M79.57,212.33s-6.07,3.35-4.24,12.55c0,0,7.67-3.8,9.33-9.71" transform="translate(0.25 0.31)"/><path class="424f7944-6a54-4956-9b57-391a95bc970b" d="M82.27,214.67s-8.19,5.6-6.94,10.22" transform="translate(0.25 0.31)"/><path class="424f7944-6a54-4956-9b57-391a95bc970b" d="M69.67,191.9s-2.83-3.68-6.67-1.62a19.08,19.08,0,0,0-7.92,9.6s8.31,3.13,15.15-1.16" transform="translate(0.25 0.31)"/><path class="424f7944-6a54-4956-9b57-391a95bc970b" d="M69.82,194.29s-6.16-2-14.74,5.58" transform="translate(0.25 0.31)"/><path class="424f7944-6a54-4956-9b57-391a95bc970b" d="M83.24,158.6s-2.85-2.51,0-10.85c0,0,7.85,2.12,7.76,8.69" transform="translate(0.25 0.31)"/><path class="424f7944-6a54-4956-9b57-391a95bc970b" d="M83.86,148c1.77.29,4.67,10.64,4.67,10.64" transform="translate(0.25 0.31)"/><path class="424f7944-6a54-4956-9b57-391a95bc970b" d="M75.62,167.29s-1.7-4.26-12.37-1.65c0,0,3.84,8.56,11.79,7.33" transform="translate(0.25 0.31)"/><path class="424f7944-6a54-4956-9b57-391a95bc970b" d="M74.35,170.92s-8.27-6.55-11.1-5.28" transform="translate(0.25 0.31)"/><path class="424f7944-6a54-4956-9b57-391a95bc970b" d="M85.16,136.6c-3.95-2.75-6.32-9.23-6.32-9.23s-7.6,9.86-6.71,12.87" transform="translate(0.25 0.31)"/><path class="424f7944-6a54-4956-9b57-391a95bc970b" d="M82.16,152c-12-21.62-27.07-13.55-27.07-13.55s4.17-1.08,5.79,16.29c0,0,.75,10.47,9.29,10" transform="translate(0.25 0.31)"/><path class="424f7944-6a54-4956-9b57-391a95bc970b" d="M63.6,162c-16.47-4-27.6,8-27.6,8s16.38,6,22,10.73c0,0,7.1,4.67,12.24,2.26" transform="translate(0.25 0.31)"/><path class="424f7944-6a54-4956-9b57-391a95bc970b" d="M61.64,182.47c-17.48-3.89-26.76,14.37-26.76,14.37s13.74,4.26,20.62,2" transform="translate(0.25 0.31)"/><path class="424f7944-6a54-4956-9b57-391a95bc970b" d="M56,200.17c-12.6,2.17-11,20.93-11,20.93s10.9-3.23,16.64-4.1,11.4-10.62,12.7-12.5" transform="translate(0.25 0.31)"/><path class="424f7944-6a54-4956-9b57-391a95bc970b" d="M68.13,239.68c0-.3-7.21-14.62-.48-26.34" transform="translate(0.25 0.31)"/><path class="424f7944-6a54-4956-9b57-391a95bc970b" d="M68.13,239.38s19.42-14,21.46-22.8" transform="translate(0.25 0.31)"/><path class="424f7944-6a54-4956-9b57-391a95bc970b" d="M86.75,222.09c-5.25,15.71,11,26,11,26s13-21.48,9.05-31.24" transform="translate(0.25 0.31)"/><path class="424f7944-6a54-4956-9b57-391a95bc970b" d="M124.27,211.66s8.73,9.93,4.57,21.84c0,0-3.73,8.83-1.16,13.29,0,0-20.2-7.72-20.14-24.1" transform="translate(0.25 0.31)"/><path class="424f7944-6a54-4956-9b57-391a95bc970b" d="M127.91,217.67c18.41,5.5,25.54,2.71,25.54,2.71s-8.21-21.48-16-22" transform="translate(0.25 0.31)"/><path class="424f7944-6a54-4956-9b57-391a95bc970b" d="M138.72,179.2s19.45.69,24.61,15.68c0,0-17.28,5-23.55,4.26" transform="translate(0.25 0.31)"/><path class="424f7944-6a54-4956-9b57-391a95bc970b" d="M124,167.29s1.46-5.42,12.71-5.62a92.82,92.82,0,0,1,22.88,3s-8.56,15.18-19.84,14.61" transform="translate(0.25 0.31)"/><path class="424f7944-6a54-4956-9b57-391a95bc970b" d="M101.46,145.85c1.71-9.9,16-17.73,16-17.73s5.57,19.83-2.28,30" transform="translate(0.25 0.31)"/><path class="424f7944-6a54-4956-9b57-391a95bc970b" d="M118.49,151c6.24-5.34,21.3-8.66,21.3-8.66s.8,10.22-7.91,19.79" transform="translate(0.25 0.31)"/><path class="424f7944-6a54-4956-9b57-391a95bc970b" d="M98,135.67c2.41-3.5,8.84-8.29,8.84-8.29s2.77,4.53,2.47,6.62" transform="translate(0.25 0.31)"/><path class="424f7944-6a54-4956-9b57-391a95bc970b" d="M119.4,141.58c2-4.17,12.35-6.66,12.35-6.66s-.13,9.7-1.84,10.32" transform="translate(0.25 0.31)"/><path class="424f7944-6a54-4956-9b57-391a95bc970b" d="M137.2,154.19c1.53-1.4,14.22-1.92,14.22-1.92s-2.58,8.89-4.5,9.89" transform="translate(0.25 0.31)"/><path class="424f7944-6a54-4956-9b57-391a95bc970b" d="M149.69,198.16s6.06,5.54,6.94,6c0,0-7.71,3.41-9.54,3.18" transform="translate(0.25 0.31)"/><path class="424f7944-6a54-4956-9b57-391a95bc970b" d="M139.79,220.43s1.09,13,1.09,13.93c0,0-10.62-.33-11.37-3.22" transform="translate(0.25 0.31)"/><path class="424f7944-6a54-4956-9b57-391a95bc970b" d="M103.14,237.69s6.83,6.27,6.16,9.1c0,0,6.08-6.78,5.83-8" transform="translate(0.25 0.31)"/><path class="424f7944-6a54-4956-9b57-391a95bc970b" d="M75.91,233.2a21,21,0,0,0,3.44,10.42s7.68-6.2,8.1-7.41" transform="translate(0.25 0.31)"/><path class="424f7944-6a54-4956-9b57-391a95bc970b" d="M56.15,218.12s-1.35,6.46,0,9.61c0,0,8.6-2.55,8.63-3.4" transform="translate(0.25 0.31)"/><path class="424f7944-6a54-4956-9b57-391a95bc970b" d="M45.88,199.18s-5.51,4.54-5.51,8.8c0,0,2.3,2.61,6.52,0" transform="translate(0.25 0.31)"/><path class="424f7944-6a54-4956-9b57-391a95bc970b" d="M46,174s-6.5,1.73-10,6.5c0,0,5.06,4.47,9.72,4.68" transform="translate(0.25 0.31)"/><path class="424f7944-6a54-4956-9b57-391a95bc970b" d="M59.83,147.26s-11.19-1.47-11.57-2.93c0,0-1.67,12.92,4.16,17.17" transform="translate(0.25 0.31)"/><path class="424f7944-6a54-4956-9b57-391a95bc970b" d="M91.94,243v39s-6.24-6-9.67-5.67c0,0,9.61,7.83,9.67,10.83V303" transform="translate(0.25 0.31)"/><path class="424f7944-6a54-4956-9b57-391a95bc970b" d="M97.78,248.13V273s3.72-5.33,12.55-4.66c0,0-12.77,7.83-12.55,12.33V303" transform="translate(0.25 0.31)"/><path class="424f7944-6a54-4956-9b57-391a95bc970b" d="M87.1,278.15c7.1-26.35-40.94-15.32-40.94-15.32s18.29,37.67,40,17" transform="translate(0.25 0.31)"/><path class="424f7944-6a54-4956-9b57-391a95bc970b" d="M82.27,276.33s-24.39-3.77-23.77-12c0,0,.13-1.94,2.25-.94" transform="translate(0.25 0.31)"/><path class="424f7944-6a54-4956-9b57-391a95bc970b" d="M57.88,270.63s.69,1.38-1.12,1.94-4.91-4.34,3.89-3.89" transform="translate(0.25 0.31)"/><path class="424f7944-6a54-4956-9b57-391a95bc970b" d="M70.38,265.75s2.12,1.63,3.12-.5-3.31-4.5-4.94-1.06.72,9,1.57,9.23" transform="translate(0.25 0.31)"/><path class="424f7944-6a54-4956-9b57-391a95bc970b" d="M80,269.08s1.75,1.5,2.46-.44-2.37-3.27-3.75-1.69-3.25,4.91-1.21,8.46" transform="translate(0.25 0.31)"/><path class="424f7944-6a54-4956-9b57-391a95bc970b" d="M73.25,280.46s.12-.83.79-.79,3,.5,1.08,2.83-8.88-1.27-.34-7.74" transform="translate(0.25 0.31)"/><path class="424f7944-6a54-4956-9b57-391a95bc970b" d="M63.25,276.33s2.08,1.21,0,2.25-6.72-3.77,3.74-6.3" transform="translate(0.25 0.31)"/><circle class="01927dfa-be0a-4c64-b2fd-a6123b22e9f9" cx="63.95" cy="267.27" r="0.76"/><circle class="01927dfa-be0a-4c64-b2fd-a6123b22e9f9" cx="73.67" cy="269.4" r="0.66"/><circle class="01927dfa-be0a-4c64-b2fd-a6123b22e9f9" cx="81.92" cy="272.92" r="0.6"/><circle class="01927dfa-be0a-4c64-b2fd-a6123b22e9f9" cx="75.46" cy="264.94" r="0.96"/><circle class="01927dfa-be0a-4c64-b2fd-a6123b22e9f9" cx="68.63" cy="276.85" r="1.17"/><circle class="01927dfa-be0a-4c64-b2fd-a6123b22e9f9" cx="66.21" cy="281.15" r="1.25"/><circle class="01927dfa-be0a-4c64-b2fd-a6123b22e9f9" cx="78.58" cy="283.53" r="1.29"/><circle class="01927dfa-be0a-4c64-b2fd-a6123b22e9f9" cx="79.67" cy="279.04" r="0.85"/><circle class="01927dfa-be0a-4c64-b2fd-a6123b22e9f9" cx="85.25" cy="271.15" r="1.45"/><circle class="01927dfa-be0a-4c64-b2fd-a6123b22e9f9" cx="63.95" cy="262.76" r="1.55"/><circle class="01927dfa-be0a-4c64-b2fd-a6123b22e9f9" cx="61.17" cy="272.6" r="0.83"/><circle class="01927dfa-be0a-4c64-b2fd-a6123b22e9f9" cx="57.92" cy="276.4" r="1.37"/><circle class="01927dfa-be0a-4c64-b2fd-a6123b22e9f9" cx="54.71" cy="266.31" r="0.83"/><circle class="01927dfa-be0a-4c64-b2fd-a6123b22e9f9" cx="50.75" cy="265.56" r="1.79"/><circle class="01927dfa-be0a-4c64-b2fd-a6123b22e9f9" cx="163" cy="234.67" r="1.77"/><circle class="01927dfa-be0a-4c64-b2fd-a6123b22e9f9" cx="163.58" cy="239.99" r="1.07"/><circle class="01927dfa-be0a-4c64-b2fd-a6123b22e9f9" cx="141.13" cy="238" r="1.88"/><circle class="01927dfa-be0a-4c64-b2fd-a6123b22e9f9" cx="147.33" cy="241.06" r="1.49"/><circle class="01927dfa-be0a-4c64-b2fd-a6123b22e9f9" cx="150.11" cy="253.67" r="1.16"/><circle class="01927dfa-be0a-4c64-b2fd-a6123b22e9f9" cx="154.75" cy="252.51" r="1.38"/><circle class="01927dfa-be0a-4c64-b2fd-a6123b22e9f9" cx="198.58" cy="206.27" r="1.25"/><circle class="01927dfa-be0a-4c64-b2fd-a6123b22e9f9" cx="198.58" cy="210.07" r="0.9"/><circle class="01927dfa-be0a-4c64-b2fd-a6123b22e9f9" cx="197.33" cy="213.65" r="1.25"/><circle class="01927dfa-be0a-4c64-b2fd-a6123b22e9f9" cx="199.83" cy="221.32" r="1.29"/><circle class="01927dfa-be0a-4c64-b2fd-a6123b22e9f9" cx="203.96" cy="224.43" r="1.29"/><circle class="01927dfa-be0a-4c64-b2fd-a6123b22e9f9" cx="207.42" cy="228.08" r="1.7"/><circle class="01927dfa-be0a-4c64-b2fd-a6123b22e9f9" cx="193" cy="227.7" r="1.59"/><circle class="01927dfa-be0a-4c64-b2fd-a6123b22e9f9" cx="196.62" cy="230.31" r="0.85"/><circle class="01927dfa-be0a-4c64-b2fd-a6123b22e9f9" cx="212.16" cy="204.48" r="1.62"/><circle class="01927dfa-be0a-4c64-b2fd-a6123b22e9f9" cx="211.31" cy="209.17" r="1.23"/><circle class="01927dfa-be0a-4c64-b2fd-a6123b22e9f9" cx="209.12" cy="212.46" r="1.19"/><circle class="01927dfa-be0a-4c64-b2fd-a6123b22e9f9" cx="211.31" cy="217.64" r="1.34"/><circle class="01927dfa-be0a-4c64-b2fd-a6123b22e9f9" cx="214.28" cy="221.32" r="1.29"/><circle class="01927dfa-be0a-4c64-b2fd-a6123b22e9f9" cx="217.62" cy="225.43" r="1.95"/><circle class="01927dfa-be0a-4c64-b2fd-a6123b22e9f9" cx="187.95" cy="213.65" r="1.25"/><circle class="01927dfa-be0a-4c64-b2fd-a6123b22e9f9" cx="188.5" cy="217.64" r="1.11"/><circle class="01927dfa-be0a-4c64-b2fd-a6123b22e9f9" cx="202.5" cy="105.5" r="1.37"/><circle class="01927dfa-be0a-4c64-b2fd-a6123b22e9f9" cx="197.75" cy="111.5" r="0.73"/><circle class="01927dfa-be0a-4c64-b2fd-a6123b22e9f9" cx="198.58" cy="124.75" r="1.19"/><circle class="01927dfa-be0a-4c64-b2fd-a6123b22e9f9" cx="204.25" cy="130.06" r="1.88"/><circle class="01927dfa-be0a-4c64-b2fd-a6123b22e9f9" cx="221" cy="113.19" r="1.44"/><path class="e01d7a10-e8d3-4f55-a574-57d54227b486" d="M138.72,150.12s26.17-6.47,37,12.29" transform="translate(0.25 0.31)"/><path class="424f7944-6a54-4956-9b57-391a95bc970b" d="M154.71,184.18l4.92-3.7c-1.21-2.18-9.84-4.64-9.84-4.64" transform="translate(0.25 0.31)"/><path class="424f7944-6a54-4956-9b57-391a95bc970b" d="M156.88,182.55s9.7,8.13,16.13-1.62" transform="translate(0.25 0.31)"/><path class="424f7944-6a54-4956-9b57-391a95bc970b" d="M166.46,167.8s-5.08-1.95-8.89,0" transform="translate(0.25 0.31)"/><path class="424f7944-6a54-4956-9b57-391a95bc970b" d="M152.78,173.34a6.15,6.15,0,0,0,1.28,3.94" transform="translate(0.25 0.31)"/><path class="424f7944-6a54-4956-9b57-391a95bc970b" d="M156.2,178.16s5.13-6.35,14.93-1.35" transform="translate(0.25 0.31)"/><path class="424f7944-6a54-4956-9b57-391a95bc970b" d="M170.13,155.72s-5.19,4.17-1.68,13.51" transform="translate(0.25 0.31)"/><path class="424f7944-6a54-4956-9b57-391a95bc970b" d="M160.81,150.72s-.71,10.65,5.65,16.65" transform="translate(0.25 0.31)"/><path class="424f7944-6a54-4956-9b57-391a95bc970b" d="M149,159a26.26,26.26,0,0,1,16.77,7.89" transform="translate(0.25 0.31)"/><circle class="01927dfa-be0a-4c64-b2fd-a6123b22e9f9" cx="156.19" cy="153" r="1.69"/><circle class="01927dfa-be0a-4c64-b2fd-a6123b22e9f9" cx="157.81" cy="156.75" r="1.12"/><circle class="01927dfa-be0a-4c64-b2fd-a6123b22e9f9" cx="163.58" cy="157.53" r="1.17"/><circle class="01927dfa-be0a-4c64-b2fd-a6123b22e9f9" cx="172.56" cy="164.81" r="1.31"/><circle class="01927dfa-be0a-4c64-b2fd-a6123b22e9f9" cx="172.56" cy="169.13" r="0.87"/><circle class="01927dfa-be0a-4c64-b2fd-a6123b22e9f9" cx="156.19" cy="172.44" r="1.69"/><circle class="01927dfa-be0a-4c64-b2fd-a6123b22e9f9" cx="160.56" cy="172.44" r="1.25"/><circle class="01927dfa-be0a-4c64-b2fd-a6123b22e9f9" cx="164.75" cy="171.88" r="1"/><circle class="01927dfa-be0a-4c64-b2fd-a6123b22e9f9" cx="161.81" cy="180.75" r="1.38"/><circle class="01927dfa-be0a-4c64-b2fd-a6123b22e9f9" cx="166" cy="180.75" r="1.19"/><circle class="01927dfa-be0a-4c64-b2fd-a6123b22e9f9" cx="169.77" cy="179.38" r="0.63"/><circle class="01927dfa-be0a-4c64-b2fd-a6123b22e9f9" cx="165.19" cy="161.5" r="1.22"/><circle class="01927dfa-be0a-4c64-b2fd-a6123b22e9f9" cx="231" cy="209.17" r="1.8"/><circle class="01927dfa-be0a-4c64-b2fd-a6123b22e9f9" cx="227.58" cy="212.6" r="1.05"/><circle class="01927dfa-be0a-4c64-b2fd-a6123b22e9f9" cx="223.08" cy="214.48" r="0.75"/><path class="424f7944-6a54-4956-9b57-391a95bc970b" d="M102.79,269.39s2.71-23.54,28.88-12c0,0,4.83,2.16,9.21,1,0,0-24.28,41.84-37.64,15" transform="translate(0.25 0.31)"/><path class="424f7944-6a54-4956-9b57-391a95bc970b" d="M112.25,260.54s-1.86,0-.87-1.29,7.28-2.08-1,9.08" transform="translate(0.25 0.31)"/><path class="424f7944-6a54-4956-9b57-391a95bc970b" d="M109.84,268.64c25.09-5.23,22.54-8.27,21.29-9.27s-2.25,1.17-2.25,1.17" transform="translate(0.25 0.31)"/><path class="424f7944-6a54-4956-9b57-391a95bc970b" d="M117.18,276.33s1.14,3.33,3.67,0c0,0,.05-6.49-10-7.91" transform="translate(0.25 0.31)"/><path class="424f7944-6a54-4956-9b57-391a95bc970b" d="M120.85,259.11s-2.6-.06-1.54-1.77,2.89,0,2.89,0,4.4,3.37-7.07,10.14" transform="translate(0.25 0.31)"/><path class="424f7944-6a54-4956-9b57-391a95bc970b" d="M123.75,270.63s1.38,2.55,3.38.21-5.05-5.11-7.08-4.58" transform="translate(0.25 0.31)"/><path class="424f7944-6a54-4956-9b57-391a95bc970b" d="M131.13,266.26s.77,2.44,3,.7-3.27-4-8.68-2.33" transform="translate(0.25 0.31)"/><circle class="01927dfa-be0a-4c64-b2fd-a6123b22e9f9" cx="136.62" cy="260.85" r="1.04"/><circle class="01927dfa-be0a-4c64-b2fd-a6123b22e9f9" cx="133.63" cy="262.85" r="0.71"/><circle class="01927dfa-be0a-4c64-b2fd-a6123b22e9f9" cx="125.87" cy="258.1" r="1.32"/><circle class="01927dfa-be0a-4c64-b2fd-a6123b22e9f9" cx="125.25" cy="261.65" r="0.7"/><circle class="01927dfa-be0a-4c64-b2fd-a6123b22e9f9" cx="123.5" cy="263.75" r="0.62"/><circle class="01927dfa-be0a-4c64-b2fd-a6123b22e9f9" cx="128.79" cy="267.56" r="0.79"/><circle class="01927dfa-be0a-4c64-b2fd-a6123b22e9f9" cx="131.08" cy="270.02" r="1.08"/><circle class="01927dfa-be0a-4c64-b2fd-a6123b22e9f9" cx="116.92" cy="258.1" r="1.32"/><circle class="01927dfa-be0a-4c64-b2fd-a6123b22e9f9" cx="117.17" cy="261.44" r="0.9"/><circle class="01927dfa-be0a-4c64-b2fd-a6123b22e9f9" cx="115.92" cy="264.77" r="0.79"/><circle class="01927dfa-be0a-4c64-b2fd-a6123b22e9f9" cx="108.17" cy="260.95" r="1.57"/><circle class="01927dfa-be0a-4c64-b2fd-a6123b22e9f9" cx="107.87" cy="264.37" r="0.74"/><circle class="01927dfa-be0a-4c64-b2fd-a6123b22e9f9" cx="107.33" cy="266.77" r="0.83"/><circle class="01927dfa-be0a-4c64-b2fd-a6123b22e9f9" cx="118.46" cy="269.15" r="0.87"/><circle class="01927dfa-be0a-4c64-b2fd-a6123b22e9f9" cx="121.1" cy="272.73" r="0.96"/><circle class="01927dfa-be0a-4c64-b2fd-a6123b22e9f9" cx="124.33" cy="275.35" r="1.36"/><circle class="01927dfa-be0a-4c64-b2fd-a6123b22e9f9" cx="109.74" cy="273.02" r="0.67"/><circle class="01927dfa-be0a-4c64-b2fd-a6123b22e9f9" cx="111.5" cy="276.1" r="0.92"/><circle class="01927dfa-be0a-4c64-b2fd-a6123b22e9f9" cx="113.87" cy="278.52" r="1.51"/><path class="424f7944-6a54-4956-9b57-391a95bc970b" d="M101.61,150.37c.13-1,.62-16.86-14.18-23.49,0,0-4.06,15.69-3.94,20.88" transform="translate(0.25 0.31)"/></g><g id="d5657173-ed83-4f04-bd40-ab512ca59f38" data-name="图层 4"><path class="424f7944-6a54-4956-9b57-391a95bc970b" d="M325.26,72c-9-5.33-4.92-17.73-4.92-17.73S323.5,61.56,334,60.9c0,0,37.17-11.24,43.17,13.1,0,0,19.17,35.67-20.17,37.33" transform="translate(0.25 0.31)"/><path class="424f7944-6a54-4956-9b57-391a95bc970b" d="M363.54,59.86c2.87-2.14,5-12.36,5-12.36s7.77,7.25,2,15.87" transform="translate(0.25 0.31)"/><path class="424f7944-6a54-4956-9b57-391a95bc970b" d="M380.75,207.62c-5.41,1.88-13.18,2.65-21,2.88a256.74,256.74,0,0,1-29.37-1.12s-1.42,9.34-1.21,13.79c.35,7.39-6.17,6.83-6.17,6.83-40-11-2.06-126.83-2.06-126.83,3.44-12.17,4.11-29.67,4.11-29.67a8.22,8.22,0,0,1,4.11-6.67c-6-1.17-7.83-7.83-7.83-7.83s-2.33,7.5,4.33,10.83" transform="translate(0.25 0.31)"/><path class="424f7944-6a54-4956-9b57-391a95bc970b" d="M364.93,110.4s6.31,24.49,7.69,25.92" transform="translate(0.25 0.31)"/><path class="424f7944-6a54-4956-9b57-391a95bc970b" d="M347.55,151.38c23.5-9.5,47.35-31.72,47.35-31.72" transform="translate(0.25 0.31)"/><path class="424f7944-6a54-4956-9b57-391a95bc970b" d="M394.5,122S370.44,145,350,153" transform="translate(0.25 0.31)"/><path class="424f7944-6a54-4956-9b57-391a95bc970b" d="M334.25,142s15.25,11,18.5,12.75c0,0,.5,11-24-3.25" transform="translate(0.25 0.31)"/><path class="424f7944-6a54-4956-9b57-391a95bc970b" d="M373.74,139.23s21.51,56.5-1.11,85.89c0,0-3.37,4.12-6.12,0,0,0-3.25-3.62-6.75-14.62" transform="translate(0.25 0.31)"/><path class="424f7944-6a54-4956-9b57-391a95bc970b" d="M366.21,196.81a2.84,2.84,0,0,1-2.58,3.07l-8.16.7A2.84,2.84,0,0,1,352.4,198l-.07-.83a2.84,2.84,0,0,1,2.58-3.07l8.16-.7a2.84,2.84,0,0,1,3.07,2.58Z" transform="translate(0.25 0.31)"/><path class="424f7944-6a54-4956-9b57-391a95bc970b" d="M363.58,196.62a1.42,1.42,0,0,1-1.29,1.53l-5.81.5a1.42,1.42,0,0,1-1.53-1.29h0a1.42,1.42,0,0,1,1.29-1.53l5.81-.5a1.42,1.42,0,0,1,1.53,1.29Z" transform="translate(0.25 0.31)"/><path class="424f7944-6a54-4956-9b57-391a95bc970b" d="M304.67,190.33" transform="translate(0.25 0.31)"/><path class="424f7944-6a54-4956-9b57-391a95bc970b" d="M365.23,194.15a166.07,166.07,0,0,0,17.74-5s16.58,6.58,23.31,17.21" transform="translate(0.25 0.31)"/><path class="424f7944-6a54-4956-9b57-391a95bc970b" d="M304.67,190.33s16.22,9.9,47.71,6" transform="translate(0.25 0.31)"/><path class="424f7944-6a54-4956-9b57-391a95bc970b" d="M304.67,185.33s43.51,18.56,78.2-1.44" transform="translate(0.25 0.31)"/><path class="424f7944-6a54-4956-9b57-391a95bc970b" d="M382.85,193.39c-5.84,1.69-11.3,3-16.41,4.1" transform="translate(0.25 0.31)"/><path class="424f7944-6a54-4956-9b57-391a95bc970b" d="M353.19,199.72c-34.66,4.42-48.45-5.71-48.45-5.71s-15-.34-23.59,16.49" transform="translate(0.25 0.31)"/><path class="424f7944-6a54-4956-9b57-391a95bc970b" d="M357.13,200.44s.88,3.56,0,4.81,3.74,0,3.74,0,1.61-2,0-5.13" transform="translate(0.25 0.31)"/><path class="424f7944-6a54-4956-9b57-391a95bc970b" d="M357,210.55s1.59.31,2.29-4.75" transform="translate(0.25 0.31)"/><path class="424f7944-6a54-4956-9b57-391a95bc970b" d="M361.59,183.09s-5,5.83-6.65,7.24" transform="translate(0.25 0.31)"/><line class="424f7944-6a54-4956-9b57-391a95bc970b" x1="355.19" y1="184.15" x2="361.84" y2="189.48"/><path class="424f7944-6a54-4956-9b57-391a95bc970b" d="M371.36,196.4s-.67,11.88,10,8.55" transform="translate(0.25 0.31)"/><path class="424f7944-6a54-4956-9b57-391a95bc970b" d="M374.64,195.44s-1.8,8.23,7.15,7.52" transform="translate(0.25 0.31)"/><path class="424f7944-6a54-4956-9b57-391a95bc970b" d="M364.95,222.83c.3.5,6.93-.11,10.24-1.47" transform="translate(0.25 0.31)"/><path class="424f7944-6a54-4956-9b57-391a95bc970b" d="M373.6,209.33s0,9.41-2.24,12.86" transform="translate(0.25 0.31)"/><line class="424f7944-6a54-4956-9b57-391a95bc970b" x1="376.63" y1="209.12" x2="376.25" y2="212.5"/><line class="424f7944-6a54-4956-9b57-391a95bc970b" x1="375.94" y1="214.63" x2="375.44" y2="217.19"/><line class="424f7944-6a54-4956-9b57-391a95bc970b" x1="374.89" y1="219.31" x2="373.85" y2="222.21"/><path class="424f7944-6a54-4956-9b57-391a95bc970b" d="M305,198.66s-.11,2.72,16.77,4.34c0,0,.49,15.37-14.44,9.18" transform="translate(0.25 0.31)"/><path class="424f7944-6a54-4956-9b57-391a95bc970b" d="M306.56,209.33s11.2,6.48,13.57-6.49" transform="translate(0.25 0.31)"/><path class="424f7944-6a54-4956-9b57-391a95bc970b" d="M313.37,210.5c2.49-1.13,2.26-5.62,2.26-5.62-8.12-1-9.07-2.62-9.07-2.62s-1.26,1.92-.25,5.93" transform="translate(0.25 0.31)"/><path class="424f7944-6a54-4956-9b57-391a95bc970b" d="M315.5,206.89h-5.87s-3.77-1.4-3.7-2.15" transform="translate(0.25 0.31)"/><line class="424f7944-6a54-4956-9b57-391a95bc970b" x1="309.9" y1="210.87" x2="309.88" y2="207.21"/><path class="424f7944-6a54-4956-9b57-391a95bc970b" d="M329.11,224.86a31,31,0,0,1-14.89,0" transform="translate(0.25 0.31)"/><path class="424f7944-6a54-4956-9b57-391a95bc970b" d="M315.63,213.42s0,5.82,6.12,12.33" transform="translate(0.25 0.31)"/><line class="424f7944-6a54-4956-9b57-391a95bc970b" x1="312.75" y1="213.97" x2="313.62" y2="217.19"/><line class="424f7944-6a54-4956-9b57-391a95bc970b" x1="314.47" y1="218.69" x2="315.88" y2="221.68"/><line class="424f7944-6a54-4956-9b57-391a95bc970b" x1="316.88" y1="223.32" x2="318.94" y2="225.9"/><path class="424f7944-6a54-4956-9b57-391a95bc970b" d="M338.39,156.42s-20.46,8.91-22.76,9.75,2,3,2,3S340,159.71,342,157.77" transform="translate(0.25 0.31)"/><path class="424f7944-6a54-4956-9b57-391a95bc970b" d="M371,132.25s4.51,1.57,5.12,2.47" transform="translate(0.25 0.31)"/><path class="424f7944-6a54-4956-9b57-391a95bc970b" d="M375.38,144s9.63,2.89,2.69-8.08" transform="translate(0.25 0.31)"/><path class="424f7944-6a54-4956-9b57-391a95bc970b" d="M402.25,106.92s-2-5.67-4.42-5.75-.25-4.42,4.42-.58,2.61,7.83,2.61,7.83" transform="translate(0.25 0.31)"/><path class="424f7944-6a54-4956-9b57-391a95bc970b" d="M398.25,114.08a4.71,4.71,0,0,0-2.5-3.68c-2.33-1.15,1.17-4.82,6.58-3.15,0,0,8.17,2.67,1.67,5.5,0,0-4.58-2.42-6.17,3.42,0,0-7.64,10-2.82,18.17,0,0,3.32,2,7.32-5.08a21.24,21.24,0,0,0,1-6.5s1.08-7.5,1.5-7.33" transform="translate(0.25 0.31)"/><path class="424f7944-6a54-4956-9b57-391a95bc970b" d="M403,112.39c2.88-1.19,5.28,19.36,5.28,19.36s-.17,2.56,3.17,1.74c0,0,4.92-1.32,1.08-12.78" transform="translate(0.25 0.31)"/><path class="424f7944-6a54-4956-9b57-391a95bc970b" d="M404.84,112.34s9.83,7.91,11.08,16.16a2.43,2.43,0,0,0,3.5,0c2-1.67,4.79-10.66-13.27-17.16" transform="translate(0.25 0.31)"/><path class="424f7944-6a54-4956-9b57-391a95bc970b" d="M406.28,109.68s11.57-1.35,14.61,6.82c0,0,.87,3-1.71,3.16" transform="translate(0.25 0.31)"/><path class="424f7944-6a54-4956-9b57-391a95bc970b" d="M398,112.91s-12.55,4.5-12.3,11.75c0,0-.5,3.41,10.75-6.3" transform="translate(0.25 0.31)"/><path class="424f7944-6a54-4956-9b57-391a95bc970b" d="M396.57,110.93s-15.9-1.27-15.15,7.15c0,0,1.93,4.68,6.66,1" transform="translate(0.25 0.31)"/><path class="424f7944-6a54-4956-9b57-391a95bc970b" d="M393.81,110.87s-5.39-2.43-6.7.85" transform="translate(0.25 0.31)"/><path class="424f7944-6a54-4956-9b57-391a95bc970b" d="M383.48,113.41s-6.91-.72-.41-6.91c0,0,9.6-7.83,12.83,1.46" transform="translate(0.25 0.31)"/><path class="424f7944-6a54-4956-9b57-391a95bc970b" d="M399.37,106.83s-1.16-3.83-6-2.52" transform="translate(0.25 0.31)"/><path class="424f7944-6a54-4956-9b57-391a95bc970b" d="M413.65,110.33a8.16,8.16,0,0,0-9-6.91" transform="translate(0.25 0.31)"/><path class="424f7944-6a54-4956-9b57-391a95bc970b" d="M396.84,100s-3.9-1.25-6,0-3,3.17-2.47,3.71" transform="translate(0.25 0.31)"/><path class="424f7944-6a54-4956-9b57-391a95bc970b" d="M402.42,112.34s-5.58,9.75-5.58,18.75" transform="translate(0.25 0.31)"/><path class="424f7944-6a54-4956-9b57-391a95bc970b" d="M408.85,116.15s4.32,5.6,2.9,15.52" transform="translate(0.25 0.31)"/><path class="424f7944-6a54-4956-9b57-391a95bc970b" d="M406.51,113.81s14.49,4.94,12.91,14.69" transform="translate(0.25 0.31)"/><path class="424f7944-6a54-4956-9b57-391a95bc970b" d="M408.46,112.23s9.71-1.6,12.42,6.25" transform="translate(0.25 0.31)"/><path class="424f7944-6a54-4956-9b57-391a95bc970b" d="M410.44,104.93s-4.68,2.23-4.73,4.11" transform="translate(0.25 0.31)"/><path class="424f7944-6a54-4956-9b57-391a95bc970b" d="M380.45,111.72s8.39-9.9,15-3.31" transform="translate(0.25 0.31)"/><path class="424f7944-6a54-4956-9b57-391a95bc970b" d="M397.58,112.09s-13.49-.54-15.74,6.72" transform="translate(0.25 0.31)"/><path class="424f7944-6a54-4956-9b57-391a95bc970b" d="M398.21,113.81s-12,7.51-12.55,10.85" transform="translate(0.25 0.31)"/><path class="424f7944-6a54-4956-9b57-391a95bc970b" d="M268,76c-4.42,1.93-9.84,3.87-13.56,6.94a14.48,14.48,0,0,1,6.13,1,6.91,6.91,0,0,0-3.47,2c4.77,1.12,15.08,7.66,15.52,13a8.43,8.43,0,0,0-3.25-.22c2.68,3.92,4.24,10.26,4.58,14.91-.63-.59-1.85-1.08-2.55-1.63-1.19,3.95-1.06,8.39-2.32,12.22a8,8,0,0,0-2-3.49c.18,2.7,1.24,5.91.72,8.49-.44-.77-1.33-1.21-1.78-1.78-1.21,2.47-.92,6-1.71,8.83-1.82-.1-3.45-1-5.23-1.26.07,2.6,1.57,4.94,1.24,7.6-6.33-1.58-6.21,2.84-6.71,8a65.14,65.14,0,0,0,1.73,21.61c-1.7.1-3-1.37-4.58-1.45-.46,5.7,2.45,9.62,4.59,14.39-.81-.54-1.49-.28-2.26-.54-.21,5,6.29,11.89,9.55,15.24a42.62,42.62,0,0,0,10.83,8.4c5.32,2.78,10,3.09,15.87,3.39-.64,1-.61,1.68-1.87,2.22,2.56.3,5.67-1.37,7.84-2.57.75,6.81,8.49-1.89,10.39-3.7" transform="translate(0.25 0.31)"/><path class="424f7944-6a54-4956-9b57-391a95bc970b" d="M268,76c2.19-4.28,14.62-1.76,18.35-.67s7.12,3,10.67,4.3c.38-1.32-.51-2.93-.4-4.2,3.17,2.32,5.48,5.36,8.72,7.46.22-.43,1.09-1,1.31-1.47,2.43,1.82,3.61,5.37,6,6.89a17,17,0,0,0,.36-2.29c4.77,3.24,6.86,6.32,9.23,11.48" transform="translate(0.25 0.31)"/><path class="424f7944-6a54-4956-9b57-391a95bc970b" d="M271.93,104s18.19-10.71,49-.87" transform="translate(0.25 0.31)"/><path class="424f7944-6a54-4956-9b57-391a95bc970b" d="M273,107.84s22.09-10,46.45,0" transform="translate(0.25 0.31)"/><path class="424f7944-6a54-4956-9b57-391a95bc970b" d="M269.51,122.69S293,114,314.76,124.77" transform="translate(0.25 0.31)"/><path class="424f7944-6a54-4956-9b57-391a95bc970b" d="M267.87,128.4s23.81-8.77,46,0" transform="translate(0.25 0.31)"/><line class="424f7944-6a54-4956-9b57-391a95bc970b" x1="276.92" y1="106.82" x2="279.63" y2="120.59"/><line class="424f7944-6a54-4956-9b57-391a95bc970b" x1="283.22" y1="105.15" x2="284" y2="119.67"/><line class="424f7944-6a54-4956-9b57-391a95bc970b" x1="289.51" y1="104.14" x2="290.17" y2="119.67"/><line class="424f7944-6a54-4956-9b57-391a95bc970b" x1="296.51" y1="103.72" x2="295.39" y2="119.67"/><line class="424f7944-6a54-4956-9b57-391a95bc970b" x1="306.58" y1="104.48" x2="302.43" y2="120.81"/><line class="424f7944-6a54-4956-9b57-391a95bc970b" x1="312.48" y1="105.72" x2="307.16" y2="121.99"/><line class="424f7944-6a54-4956-9b57-391a95bc970b" x1="318.29" y1="107.59" x2="312.48" y2="123.92"/><path class="424f7944-6a54-4956-9b57-391a95bc970b" d="M272.27,97.51s11.84-15.59,22.87,1.07" transform="translate(0.25 0.31)"/><path class="424f7944-6a54-4956-9b57-391a95bc970b" d="M309.92,85.34s-13.26.46-15.76,11.85" transform="translate(0.25 0.31)"/><path class="424f7944-6a54-4956-9b57-391a95bc970b" d="M278.17,101.51s3.83-9.65,11.75-2.24" transform="translate(0.25 0.31)"/><path class="424f7944-6a54-4956-9b57-391a95bc970b" d="M302.18,99.3s.9-5.13,5.65-4,6.1,5.4,6,5.95" transform="translate(0.25 0.31)"/><path class="424f7944-6a54-4956-9b57-391a95bc970b" d="M301.45,79.71s-8,0-8.78,7c0,0-21.12-11-25.35,4.77" transform="translate(0.25 0.31)"/><path class="424f7944-6a54-4956-9b57-391a95bc970b" d="M253.43,160.18s20.22-18.88,55.67-10.3" transform="translate(0.25 0.31)"/><path class="424f7944-6a54-4956-9b57-391a95bc970b" d="M254.23,167.11s26-19.77,53.81-11.36" transform="translate(0.25 0.31)"/><path class="424f7944-6a54-4956-9b57-391a95bc970b" d="M260.28,142.62s4.86-.81,5,10.28" transform="translate(0.25 0.31)"/><path class="424f7944-6a54-4956-9b57-391a95bc970b" d="M278.56,148.8s.44-10.22-6.64-9.72-7,9.14-7.15,8.67" transform="translate(0.25 0.31)"/><path class="424f7944-6a54-4956-9b57-391a95bc970b" d="M293,147.64s.83-11.56-7.33-11.22-7.12,9.74-7.5,8.38" transform="translate(0.25 0.31)"/><path class="424f7944-6a54-4956-9b57-391a95bc970b" d="M304.67,148.93s3.58-10.94-4.25-12.52-7.76,6.55-7.71,6.85" transform="translate(0.25 0.31)"/><path class="424f7944-6a54-4956-9b57-391a95bc970b" d="M311.34,139.07a4.57,4.57,0,0,0-5.85,3" transform="translate(0.25 0.31)"/><path class="424f7944-6a54-4956-9b57-391a95bc970b" d="M305.49,176s-33.94-2.22-48.63,17.39" transform="translate(0.25 0.31)"/><path class="424f7944-6a54-4956-9b57-391a95bc970b" d="M304.91,182S271,187,263.26,200.59" transform="translate(0.25 0.31)"/><circle class="424f7944-6a54-4956-9b57-391a95bc970b" cx="259.42" cy="170.81" r="2.17"/><circle class="424f7944-6a54-4956-9b57-391a95bc970b" cx="260.53" cy="177.9" r="2.08"/><circle class="424f7944-6a54-4956-9b57-391a95bc970b" cx="269" cy="178.23" r="2.33"/><circle class="424f7944-6a54-4956-9b57-391a95bc970b" cx="269" cy="166.15" r="1.75"/><circle class="424f7944-6a54-4956-9b57-391a95bc970b" cx="274.67" cy="171.31" r="2.17"/><circle class="424f7944-6a54-4956-9b57-391a95bc970b" cx="277.67" cy="161.73" r="3.17"/><circle class="424f7944-6a54-4956-9b57-391a95bc970b" cx="285.85" cy="167.06" r="2.74"/><circle class="424f7944-6a54-4956-9b57-391a95bc970b" cx="288" cy="158.06" r="2.64"/><circle class="424f7944-6a54-4956-9b57-391a95bc970b" cx="298.92" cy="161.06" r="2.04"/><circle class="424f7944-6a54-4956-9b57-391a95bc970b" cx="298.17" cy="169.8" r="3.18"/><path class="424f7944-6a54-4956-9b57-391a95bc970b" d="M300.38,199c.13-1.1-2.72-1.6-2.75.38a3.34,3.34,0,0,0,2.88,3,2.77,2.77,0,0,0,2.62-2.5,1.27,1.27,0,0,0-2.38-.87" transform="translate(0.25 0.31)"/><path class="424f7944-6a54-4956-9b57-391a95bc970b" d="M291.38,206.13c.72-1.72,2.6-3.53,2.75-.53.09,1.8-1.17,4.27-3.25,4a3.44,3.44,0,0,1-2.75-3.38c.1-2,2.44-1.36,3.25-.12" transform="translate(0.25 0.31)"/><path class="424f7944-6a54-4956-9b57-391a95bc970b" d="M299.63,209.13c-.58.12-2.36-1.78-2.25-2.62.22-1.69,2-.5,2.6.25.24-2,2.13-1.35,1.91.36-.11.88-1.15,2.37-2.13,2.27" transform="translate(0.25 0.31)"/><line class="424f7944-6a54-4956-9b57-391a95bc970b" x1="264.49" y1="186.52" x2="269.98" y2="194.32"/><line class="424f7944-6a54-4956-9b57-391a95bc970b" x1="269.98" y1="183.18" x2="274.5" y2="191.62"/><line class="424f7944-6a54-4956-9b57-391a95bc970b" x1="278.42" y1="179.75" x2="279.86" y2="189.14"/><line class="424f7944-6a54-4956-9b57-391a95bc970b" x1="282.6" y1="178.58" x2="284.51" y2="187.4"/><line class="424f7944-6a54-4956-9b57-391a95bc970b" x1="288.58" y1="177.37" x2="289.45" y2="185.83"/><line class="424f7944-6a54-4956-9b57-391a95bc970b" x1="293.5" y1="176.72" x2="294.99" y2="184.15"/><line class="424f7944-6a54-4956-9b57-391a95bc970b" x1="299.88" y1="176.28" x2="299.88" y2="183.18"/><line class="424f7944-6a54-4956-9b57-391a95bc970b" x1="304.13" y1="176.72" x2="303.41" y2="182.26"/><ellipse class="424f7944-6a54-4956-9b57-391a95bc970b" cx="347.13" cy="89.94" rx="6" ry="3.63"/><ellipse class="424f7944-6a54-4956-9b57-391a95bc970b" cx="376.39" cy="84.81" rx="3.61" ry="2.25"/><circle class="01927dfa-be0a-4c64-b2fd-a6123b22e9f9" cx="348.5" cy="81.31" r="2.63"/><circle class="01927dfa-be0a-4c64-b2fd-a6123b22e9f9" cx="371.47" cy="77.06" r="2.36"/><path class="424f7944-6a54-4956-9b57-391a95bc970b" d="M372.25,87.88s-1.13,7.75-10.13,2.75" transform="translate(0.25 0.31)"/><path class="424f7944-6a54-4956-9b57-391a95bc970b" d="M366.38,103.13s5.49-2.5,2.4-11" transform="translate(0.25 0.31)"/><path class="424f7944-6a54-4956-9b57-391a95bc970b" d="M364.19,102.81a37.08,37.08,0,0,1,4.32.89" transform="translate(0.25 0.31)"/><path class="424f7944-6a54-4956-9b57-391a95bc970b" d="M358.19,97.88s-12-.83-18.62,5.83" transform="translate(0.25 0.31)"/><path class="424f7944-6a54-4956-9b57-391a95bc970b" d="M358.56,101.58s-7.62,1.67-9.69,5.74" transform="translate(0.25 0.31)"/><path class="424f7944-6a54-4956-9b57-391a95bc970b" d="M373.31,95.63s9.81-4.83,19.56-3.32" transform="translate(0.25 0.31)"/><path class="424f7944-6a54-4956-9b57-391a95bc970b" d="M374.69,99.44s6.81-1.32,11.44,1.33" transform="translate(0.25 0.31)"/><path class="424f7944-6a54-4956-9b57-391a95bc970b" d="M334.33,71.25a3.24,3.24,0,0,1,.67.42" transform="translate(0.25 0.31)"/><path class="424f7944-6a54-4956-9b57-391a95bc970b" d="M330.67,77c.27.39.73.65,1,1" transform="translate(0.25 0.31)"/><path class="424f7944-6a54-4956-9b57-391a95bc970b" d="M327.17,83.5a2.51,2.51,0,0,1,.58.5" transform="translate(0.25 0.31)"/><path class="424f7944-6a54-4956-9b57-391a95bc970b" d="M331.75,86l.58.5" transform="translate(0.25 0.31)"/><path class="424f7944-6a54-4956-9b57-391a95bc970b" d="M327.92,90.58c.08.42.19.83.25,1.25" transform="translate(0.25 0.31)"/><path class="424f7944-6a54-4956-9b57-391a95bc970b" d="M333.42,103.33c0,.25.11.51.17.75" transform="translate(0.25 0.31)"/><path class="424f7944-6a54-4956-9b57-391a95bc970b" d="M324,109.25a3.12,3.12,0,0,0,.58,1" transform="translate(0.25 0.31)"/><path class="424f7944-6a54-4956-9b57-391a95bc970b" d="M320.33,108a5.47,5.47,0,0,1,.33,1.08" transform="translate(0.25 0.31)"/><path class="424f7944-6a54-4956-9b57-391a95bc970b" d="M320.42,119.83c.21.25.3,1.15.58,1.58" transform="translate(0.25 0.31)"/><path class="424f7944-6a54-4956-9b57-391a95bc970b" d="M330,124.42a5.89,5.89,0,0,1,.5,1" transform="translate(0.25 0.31)"/><path class="424f7944-6a54-4956-9b57-391a95bc970b" d="M329.92,111.83a3.86,3.86,0,0,1,.33,1" transform="translate(0.25 0.31)"/><path class="424f7944-6a54-4956-9b57-391a95bc970b" d="M314.08,128.58c.51.39.82,1.46,1.17,2.08" transform="translate(0.25 0.31)"/><path class="424f7944-6a54-4956-9b57-391a95bc970b" d="M316.83,142.83c.33.39.61.92.92,1.33" transform="translate(0.25 0.31)"/><path class="424f7944-6a54-4956-9b57-391a95bc970b" d="M321.58,133.83a4.43,4.43,0,0,0,.75,1.08" transform="translate(0.25 0.31)"/><path class="424f7944-6a54-4956-9b57-391a95bc970b" d="M325.42,142.33a.54.54,0,0,0-.05-.25,3.13,3.13,0,0,1,.55.75" transform="translate(0.25 0.31)"/><path class="424f7944-6a54-4956-9b57-391a95bc970b" d="M313,156.5a8.68,8.68,0,0,1,.75,1.42" transform="translate(0.25 0.31)"/><path class="424f7944-6a54-4956-9b57-391a95bc970b" d="M383,198s8.86,4.23,19.44,17.72" transform="translate(0.25 0.31)"/><path class="424f7944-6a54-4956-9b57-391a95bc970b" d="M380.75,208.18a78.25,78.25,0,0,1,14.14,12.27" transform="translate(0.25 0.31)"/><path class="424f7944-6a54-4956-9b57-391a95bc970b" d="M406.51,204.75s-18,11.48-19.76,16.62" transform="translate(0.25 0.31)"/><path class="424f7944-6a54-4956-9b57-391a95bc970b" d="M406.28,197s-13.14,4.26-28.71,19.88" transform="translate(0.25 0.31)"/><path class="424f7944-6a54-4956-9b57-391a95bc970b" d="M382.11,201c15.36-10.78,17.85-9.7,17.85-9.7s-9-10.16,8.89-12.09c0,0,12.4-1.85,14.65-6.51,0,0,4.58,14.35-4,21.34" transform="translate(0.25 0.31)"/><path class="424f7944-6a54-4956-9b57-391a95bc970b" d="M393.42,186.5A39.34,39.34,0,0,0,383,191.27" transform="translate(0.25 0.31)"/><path class="424f7944-6a54-4956-9b57-391a95bc970b" d="M382.45,177.75s1.44-5.53,14.12-10.64c0,0,2.43-.77,4.43-4.32,0,0,6.33,11.21,1.42,17.46" transform="translate(0.25 0.31)"/><path class="424f7944-6a54-4956-9b57-391a95bc970b" d="M406.51,202.38s3.19-11.73,18.21-7.05c0,0,8.28,5.12,12,5.65,0,0-7.38,16.08-23.72,13.34,0,0-7.25-.55-6.51-11.31" transform="translate(0.25 0.31)"/><path class="424f7944-6a54-4956-9b57-391a95bc970b" d="M406.51,223s-9.74-6.36,1.5-12.06" transform="translate(0.25 0.31)"/><path class="424f7944-6a54-4956-9b57-391a95bc970b" d="M402.82,215.76c-4.51-2.58-7.16,3.24-7.16,3.24C391.5,232.17,421,233.75,421,233.75s-1.19-2.11-3.35-6.8c0,0-3.07-12.21-4.64-12.63" transform="translate(0.25 0.31)"/><path class="424f7944-6a54-4956-9b57-391a95bc970b" d="M363.22,219.52c-6.78,1.27-16.09-9.08-16.09-9.08" transform="translate(0.25 0.31)"/><path class="424f7944-6a54-4956-9b57-391a95bc970b" d="M363.67,220.45c-2.33-.93-3.92,7.43-3.92,7.43-1.37,3.75-8.12,4.63-8.12,4.63s12.16,11.25,26.52-1.12c0,0,9.09-7.2-1.09-13.41" transform="translate(0.25 0.31)"/><path class="424f7944-6a54-4956-9b57-391a95bc970b" d="M381.41,222.44c3.66-3.44,8.46.57,8.46.57s.56-2.54,5.41-2" transform="translate(0.25 0.31)"/><path class="424f7944-6a54-4956-9b57-391a95bc970b" d="M379.38,230.18s12.34,11.45,12.54,14.07c0,0,5.43-15.86,8.51-15.56" transform="translate(0.25 0.31)"/><line class="424f7944-6a54-4956-9b57-391a95bc970b" x1="381.61" y1="169.48" x2="385.62" y2="174.05"/><path class="424f7944-6a54-4956-9b57-391a95bc970b" d="M383.37,185.21s10.95,2,14.34,1.08" transform="translate(0.25 0.31)"/><path class="424f7944-6a54-4956-9b57-391a95bc970b" d="M410.11,197s-5.26,1.72-10.14-5.72" transform="translate(0.25 0.31)"/><path class="424f7944-6a54-4956-9b57-391a95bc970b" d="M384.74,174.37s4.51,8.44,11.45,1.76c0,0-.51,6.52,3.37,6" transform="translate(0.25 0.31)"/><path class="424f7944-6a54-4956-9b57-391a95bc970b" d="M406.28,179.54s-7.49,13.21,3.83,10.39c0,0-4.12,5.76,1.35,6.07" transform="translate(0.25 0.31)"/><path class="424f7944-6a54-4956-9b57-391a95bc970b" d="M412.49,195.44s-10.88,12.5,8.53,7.06c0,0-22,6.74-2,12" transform="translate(0.25 0.31)"/><path class="424f7944-6a54-4956-9b57-391a95bc970b" d="M381.87,224.37s7.69-.68,7.76,9.38c0,0-2-11.53,5.95-10.29" transform="translate(0.25 0.31)"/><path class="424f7944-6a54-4956-9b57-391a95bc970b" d="M366.75,225.47a7,7,0,0,1-4.31,5.91s14.82-6.47,15.13.48" transform="translate(0.25 0.31)"/><ellipse class="01927dfa-be0a-4c64-b2fd-a6123b22e9f9" cx="392.95" cy="190.06" rx="1.68" ry="0.58"/><ellipse class="01927dfa-be0a-4c64-b2fd-a6123b22e9f9" cx="385.62" cy="187.61" rx="1.68" ry="0.58"/><ellipse class="01927dfa-be0a-4c64-b2fd-a6123b22e9f9" cx="393.36" cy="199.73" rx="1.68" ry="0.58"/><ellipse class="01927dfa-be0a-4c64-b2fd-a6123b22e9f9" cx="385.62" cy="195.17" rx="1.68" ry="0.58"/><ellipse class="01927dfa-be0a-4c64-b2fd-a6123b22e9f9" cx="384.99" cy="205.28" rx="1.68" ry="0.58"/><ellipse class="01927dfa-be0a-4c64-b2fd-a6123b22e9f9" cx="383.95" cy="217.29" rx="1.68" ry="0.58"/><ellipse class="01927dfa-be0a-4c64-b2fd-a6123b22e9f9" cx="400.22" cy="195.75" rx="1.68" ry="0.58"/><ellipse class="01927dfa-be0a-4c64-b2fd-a6123b22e9f9" cx="405.29" cy="200.91" rx="1.68" ry="0.58"/><ellipse class="01927dfa-be0a-4c64-b2fd-a6123b22e9f9" cx="399.29" cy="205.28" rx="1.68" ry="0.58"/><ellipse class="01927dfa-be0a-4c64-b2fd-a6123b22e9f9" cx="396.88" cy="215.91" rx="1.68" ry="0.58"/><ellipse class="01927dfa-be0a-4c64-b2fd-a6123b22e9f9" cx="391.27" cy="210.75" rx="1.68" ry="0.58"/><ellipse class="01927dfa-be0a-4c64-b2fd-a6123b22e9f9" cx="403.67" cy="211.26" rx="1.68" ry="0.58"/><path class="424f7944-6a54-4956-9b57-391a95bc970b" d="M378.86,230.73v39s-2.23-3.5-7.73-3.5c0,0,8,5.88,7.73,10.13V303" transform="translate(0.25 0.31)"/><path class="424f7944-6a54-4956-9b57-391a95bc970b" d="M386.49,237.18V272.5a14.19,14.19,0,0,1,8.13-4.62s-7,6.38-8.13,13.13v22" transform="translate(0.25 0.31)"/><path class="424f7944-6a54-4956-9b57-391a95bc970b" d="M375.75,266.86c1.25-25.76-38.25-14.49-38.25-14.49s19.11,42.93,37.93,17.72" transform="translate(0.25 0.31)"/><path class="424f7944-6a54-4956-9b57-391a95bc970b" d="M390.91,272s16.59,24.26,36.84-14.87c0,0-45.51-14.73-37.19,12.14" transform="translate(0.25 0.31)"/><polyline class="424f7944-6a54-4956-9b57-391a95bc970b" points="367.63 252.38 372.73 266.57 358.42 250.23"/><polyline class="424f7944-6a54-4956-9b57-391a95bc970b" points="344.98 251.15 371.38 266.56 341.76 260.24"/><polyline class="424f7944-6a54-4956-9b57-391a95bc970b" points="351.88 273.18 372.16 267.18 362.02 278.29"/><polyline class="424f7944-6a54-4956-9b57-391a95bc970b" points="398.56 254.01 394.18 268.32 408.39 253.54"/><polyline class="424f7944-6a54-4956-9b57-391a95bc970b" points="424.08 256.32 394.18 268.32 421.35 268.32"/><polyline class="424f7944-6a54-4956-9b57-391a95bc970b" points="415.48 274.83 394.18 268.32 402.85 279.74"/><circle class="01927dfa-be0a-4c64-b2fd-a6123b22e9f9" cx="345.87" cy="256.32" r="1.25"/><circle class="01927dfa-be0a-4c64-b2fd-a6123b22e9f9" cx="350.12" cy="258.4" r="1.66"/><circle class="01927dfa-be0a-4c64-b2fd-a6123b22e9f9" cx="354.87" cy="260.06" r="0.87"/><circle class="01927dfa-be0a-4c64-b2fd-a6123b22e9f9" cx="359.55" cy="274.56" r="1.37"/><circle class="01927dfa-be0a-4c64-b2fd-a6123b22e9f9" cx="362.69" cy="273.19" r="0.84"/><circle class="01927dfa-be0a-4c64-b2fd-a6123b22e9f9" cx="366.25" cy="255.07" r="1.25"/><circle class="01927dfa-be0a-4c64-b2fd-a6123b22e9f9" cx="401.29" cy="256.32" r="1.38"/><circle class="01927dfa-be0a-4c64-b2fd-a6123b22e9f9" cx="399.29" cy="260.06" r="0.87"/><circle class="01927dfa-be0a-4c64-b2fd-a6123b22e9f9" cx="418.87" cy="262.32" r="1.12"/><circle class="01927dfa-be0a-4c64-b2fd-a6123b22e9f9" cx="415" cy="263.44" r="0.85"/><circle class="01927dfa-be0a-4c64-b2fd-a6123b22e9f9" cx="410.37" cy="264.29" r="1.03"/><circle class="01927dfa-be0a-4c64-b2fd-a6123b22e9f9" cx="399.91" cy="272.73" r="0.77"/><circle class="01927dfa-be0a-4c64-b2fd-a6123b22e9f9" cx="403.67" cy="275.19" r="1.17"/><circle class="01927dfa-be0a-4c64-b2fd-a6123b22e9f9" cx="406.76" cy="277.56" r="1.63"/><path class="424f7944-6a54-4956-9b57-391a95bc970b" d="M507.76,67.79c-3.32,1-11.17-6.76-5.24-14.76a22.42,22.42,0,0,0,4.27-16.41S525.69,62.28,507.76,67.79Z" transform="translate(0.25 0.31)"/><path class="424f7944-6a54-4956-9b57-391a95bc970b" d="M493.4,73.66c-1.62,3.07-12.68,3.12-14.14-6.73a22.42,22.42,0,0,0-8.58-14.63S502.17,57.09,493.4,73.66Z" transform="translate(0.25 0.31)"/><path class="424f7944-6a54-4956-9b57-391a95bc970b" d="M487.7,87.24c1,3.32-6.76,11.17-14.76,5.24a22.42,22.42,0,0,0-16.41-4.27S482.18,69.31,487.7,87.24Z" transform="translate(0.25 0.31)"/><path class="424f7944-6a54-4956-9b57-391a95bc970b" d="M493.45,100.94c3.07,1.62,3.12,12.68-6.73,14.14a22.42,22.42,0,0,0-14.63,8.58S476.87,92.16,493.45,100.94Z" transform="translate(0.25 0.31)"/><path class="424f7944-6a54-4956-9b57-391a95bc970b" d="M506.92,107c3.32-1,11.17,6.76,5.24,14.76a22.43,22.43,0,0,0-4.28,16.41S489,112.5,506.92,107Z" transform="translate(0.25 0.31)"/><path class="424f7944-6a54-4956-9b57-391a95bc970b" d="M520.83,102c1.62-3.07,12.68-3.12,14.14,6.73a22.43,22.43,0,0,0,8.58,14.63S512.06,118.57,520.83,102Z" transform="translate(0.25 0.31)"/><path class="424f7944-6a54-4956-9b57-391a95bc970b" d="M527.66,88.41c-1-3.32,6.76-11.17,14.75-5.24a22.42,22.42,0,0,0,16.41,4.27S533.17,106.33,527.66,88.41Z" transform="translate(0.25 0.31)"/><path class="424f7944-6a54-4956-9b57-391a95bc970b" d="M523.44,73.13c-3.07-1.62-3.12-12.68,6.73-14.14a22.42,22.42,0,0,0,14.62-8.58S540,81.91,523.44,73.13Z" transform="translate(0.25 0.31)"/><path class="424f7944-6a54-4956-9b57-391a95bc970b" d="M502,53.8c-1.51-7.33-14.2-11.42-14.2-11.42s-2.05,9.52-.79,15.26" transform="translate(0.25 0.31)"/><path class="424f7944-6a54-4956-9b57-391a95bc970b" d="M502.32,64.79s-1.69,3-7.38,2.59" transform="translate(0.25 0.31)"/><path class="424f7944-6a54-4956-9b57-391a95bc970b" d="M479.17,67.09c-6.25-4.12-18.12,2-18.12,2s5.28,8.18,10.23,11.35" transform="translate(0.25 0.31)"/><path class="424f7944-6a54-4956-9b57-391a95bc970b" d="M487.42,75.38s1.6,2.95-2.69,6.71" transform="translate(0.25 0.31)"/><path class="424f7944-6a54-4956-9b57-391a95bc970b" d="M472.94,92.48c-7.33,1.5-11.73,14.37-11.73,14.37s10.2,2.23,15.94,1" transform="translate(0.25 0.31)"/><path class="424f7944-6a54-4956-9b57-391a95bc970b" d="M483.68,93.34s3.38.37,3,6.06" transform="translate(0.25 0.31)"/><path class="424f7944-6a54-4956-9b57-391a95bc970b" d="M486.3,115.35c-4.12,6.25,2,18.12,2,18.12s8.92-4.87,12.09-9.81" transform="translate(0.25 0.31)"/><path class="424f7944-6a54-4956-9b57-391a95bc970b" d="M495.17,106.89s2-.45,5.72,3.84" transform="translate(0.25 0.31)"/><path class="424f7944-6a54-4956-9b57-391a95bc970b" d="M512.17,121.74c1.5,7.33,14.2,10.75,14.2,10.75s2.2-8.68.95-14.42" transform="translate(0.25 0.31)"/><path class="424f7944-6a54-4956-9b57-391a95bc970b" d="M512.42,110.07s1.1-3,6.79-2.59" transform="translate(0.25 0.31)"/><path class="424f7944-6a54-4956-9b57-391a95bc970b" d="M534.91,108.33c6.25,4.12,18.88-2.1,18.88-2.1s-5.28-7.85-10.23-11" transform="translate(0.25 0.31)"/><path class="424f7944-6a54-4956-9b57-391a95bc970b" d="M528.46,100.66s-1.33-2.66,3-6.42" transform="translate(0.25 0.31)"/><path class="424f7944-6a54-4956-9b57-391a95bc970b" d="M542.41,83.17c7.33-1.5,11.36-14.66,11.36-14.66s-9.08-2.14-14.82-.88" transform="translate(0.25 0.31)"/><path class="424f7944-6a54-4956-9b57-391a95bc970b" d="M532.18,82s-3.81-1.67-3.43-7.37" transform="translate(0.25 0.31)"/><path class="424f7944-6a54-4956-9b57-391a95bc970b" d="M528.62,59.15c4.12-6.25-2-18.12-2-18.12s-8.83,6.27-12,11.22" transform="translate(0.25 0.31)"/><path class="424f7944-6a54-4956-9b57-391a95bc970b" d="M521.09,67.16s-3.29.9-7.05-3.39" transform="translate(0.25 0.31)"/><path class="424f7944-6a54-4956-9b57-391a95bc970b" d="M507.38,76.06a8.44,8.44,0,1,1-5.65,2.17" transform="translate(0.25 0.31)"/><circle class="01927dfa-be0a-4c64-b2fd-a6123b22e9f9" cx="504.69" cy="77.31" r="1.19"/><circle class="01927dfa-be0a-4c64-b2fd-a6123b22e9f9" cx="518.35" cy="81.33" r="1.19"/><circle class="01927dfa-be0a-4c64-b2fd-a6123b22e9f9" cx="546.62" cy="205.97" r="1.19"/><circle class="01927dfa-be0a-4c64-b2fd-a6123b22e9f9" cx="530.2" cy="159.75" r="1.19"/><circle class="01927dfa-be0a-4c64-b2fd-a6123b22e9f9" cx="546.81" cy="149.27" r="1.19"/><circle class="01927dfa-be0a-4c64-b2fd-a6123b22e9f9" cx="534.54" cy="143.11" r="1.19"/><circle class="01927dfa-be0a-4c64-b2fd-a6123b22e9f9" cx="529.2" cy="146.19" r="0.6"/><circle class="01927dfa-be0a-4c64-b2fd-a6123b22e9f9" cx="541.85" cy="150.19" r="0.91"/><circle class="01927dfa-be0a-4c64-b2fd-a6123b22e9f9" cx="531.83" cy="221.51" r="1.19"/><circle class="01927dfa-be0a-4c64-b2fd-a6123b22e9f9" cx="530.2" cy="205.47" r="1.19"/><circle class="01927dfa-be0a-4c64-b2fd-a6123b22e9f9" cx="543.87" cy="208.8" r="1.52"/><circle class="01927dfa-be0a-4c64-b2fd-a6123b22e9f9" cx="535.12" cy="162.46" r="1.52"/><circle class="01927dfa-be0a-4c64-b2fd-a6123b22e9f9" cx="536.13" cy="223.8" r="1.52"/><circle class="01927dfa-be0a-4c64-b2fd-a6123b22e9f9" cx="539.49" cy="210.55" r="0.85"/><circle class="01927dfa-be0a-4c64-b2fd-a6123b22e9f9" cx="528.32" cy="219.47" r="0.85"/><circle class="01927dfa-be0a-4c64-b2fd-a6123b22e9f9" cx="508.54" cy="95.52" r="1.19"/><circle class="01927dfa-be0a-4c64-b2fd-a6123b22e9f9" cx="520.65" cy="96.44" r="1.33"/><circle class="01927dfa-be0a-4c64-b2fd-a6123b22e9f9" cx="502.96" cy="102.16" r="1.52"/><circle class="01927dfa-be0a-4c64-b2fd-a6123b22e9f9" cx="526.35" cy="81.33" r="1.19"/><path class="424f7944-6a54-4956-9b57-391a95bc970b" d="M517.56,84.5a9.6,9.6,0,0,1-5.5,9.73" transform="translate(0.25 0.31)"/><circle class="e01d7a10-e8d3-4f55-a574-57d54227b486" cx="492.5" cy="97.76" r="1.24"/><circle class="e01d7a10-e8d3-4f55-a574-57d54227b486" cx="513.33" cy="102.16" r="1.24"/><circle class="e01d7a10-e8d3-4f55-a574-57d54227b486" cx="526.73" cy="96.76" r="1.24"/><circle class="e01d7a10-e8d3-4f55-a574-57d54227b486" cx="525.17" cy="90.46" r="1.57"/><circle class="e01d7a10-e8d3-4f55-a574-57d54227b486" cx="493.74" cy="79.04" r="1.57"/><path class="424f7944-6a54-4956-9b57-391a95bc970b" d="M496.5,62.25c.52.2,1.56,3.35,2.25,4.5" transform="translate(0.25 0.31)"/><path class="424f7944-6a54-4956-9b57-391a95bc970b" d="M506.08,60.33a17.14,17.14,0,0,1-.08,2.31,14,14,0,0,0,.31,2.84,5.74,5.74,0,0,0,.86,2" transform="translate(0.25 0.31)"/><path class="424f7944-6a54-4956-9b57-391a95bc970b" d="M508.58,67.42c.73-2.79.42-6,.42-8.92" transform="translate(0.25 0.31)"/><path class="424f7944-6a54-4956-9b57-391a95bc970b" d="M510.92,66.33a22.25,22.25,0,0,0,.92-5.33" transform="translate(0.25 0.31)"/><path class="424f7944-6a54-4956-9b57-391a95bc970b" d="M515.58,65.08c-.09-1.26.57-2.54.83-3.75" transform="translate(0.25 0.31)"/><path class="424f7944-6a54-4956-9b57-391a95bc970b" d="M517.5,66.17a8.1,8.1,0,0,1,.75-2" transform="translate(0.25 0.31)"/><path class="424f7944-6a54-4956-9b57-391a95bc970b" d="M519.17,67.17a6.44,6.44,0,0,0,1-2" transform="translate(0.25 0.31)"/><path class="424f7944-6a54-4956-9b57-391a95bc970b" d="M494,72.17a22.19,22.19,0,0,0-1.92-4.58" transform="translate(0.25 0.31)"/><path class="424f7944-6a54-4956-9b57-391a95bc970b" d="M493,73.75A16.34,16.34,0,0,0,490.25,70" transform="translate(0.25 0.31)"/><path class="424f7944-6a54-4956-9b57-391a95bc970b" d="M491.92,74.75a11.76,11.76,0,0,1-2.75-1.83" transform="translate(0.25 0.31)"/><path class="424f7944-6a54-4956-9b57-391a95bc970b" d="M487.25,78.25a5.52,5.52,0,0,1-1.83-.92" transform="translate(0.25 0.31)"/><path class="424f7944-6a54-4956-9b57-391a95bc970b" d="M486.75,79.67a16.7,16.7,0,0,1-2.17-.67" transform="translate(0.25 0.31)"/><path class="424f7944-6a54-4956-9b57-391a95bc970b" d="M485.17,94.33a14.87,14.87,0,0,0-2.58,1" transform="translate(0.25 0.31)"/><path class="424f7944-6a54-4956-9b57-391a95bc970b" d="M485.92,95.67a8.93,8.93,0,0,0-2.92,1.5" transform="translate(0.25 0.31)"/><path class="424f7944-6a54-4956-9b57-391a95bc970b" d="M486.33,97.25a3.08,3.08,0,0,1-1.42,1.25" transform="translate(0.25 0.31)"/><path class="424f7944-6a54-4956-9b57-391a95bc970b" d="M490.92,100c-1.31.48-2.87.66-3.92,1.75" transform="translate(0.25 0.31)"/><path class="424f7944-6a54-4956-9b57-391a95bc970b" d="M492.33,100.67c-1.33,1-2.19,2.42-3.33,3.58" transform="translate(0.25 0.31)"/><path class="424f7944-6a54-4956-9b57-391a95bc970b" d="M493.83,101.67c.15,2-1.42,4.64-3,5.75" transform="translate(0.25 0.31)"/><path class="424f7944-6a54-4956-9b57-391a95bc970b" d="M497.83,108.25c.61.9.33,2.36.08,3.33" transform="translate(0.25 0.31)"/><path class="424f7944-6a54-4956-9b57-391a95bc970b" d="M504.58,108.08a8.74,8.74,0,0,0-1.25,4.58" transform="translate(0.25 0.31)"/><path class="424f7944-6a54-4956-9b57-391a95bc970b" d="M506.75,107.25a35.78,35.78,0,0,0-.5,4.33" transform="translate(0.25 0.31)"/><path class="424f7944-6a54-4956-9b57-391a95bc970b" d="M509.5,107.75a9.64,9.64,0,0,1,.67,5.17" transform="translate(0.25 0.31)"/><path class="424f7944-6a54-4956-9b57-391a95bc970b" d="M515.75,108a38.66,38.66,0,0,0,.17,4.5" transform="translate(0.25 0.31)"/><path class="424f7944-6a54-4956-9b57-391a95bc970b" d="M529,97.5a16.69,16.69,0,0,0,2.17,3" transform="translate(0.25 0.31)"/><path class="424f7944-6a54-4956-9b57-391a95bc970b" d="M529.83,96.25a32.11,32.11,0,0,1,2.83,2.17" transform="translate(0.25 0.31)"/><path class="424f7944-6a54-4956-9b57-391a95bc970b" d="M530.58,95.42a6.9,6.9,0,0,1,1.25.75" transform="translate(0.25 0.31)"/><path class="424f7944-6a54-4956-9b57-391a95bc970b" d="M527.83,88.75a7.1,7.1,0,0,0,4.83,1.92" transform="translate(0.25 0.31)"/><path class="424f7944-6a54-4956-9b57-391a95bc970b" d="M527.75,87.5a18.3,18.3,0,0,0,4.17.58" transform="translate(0.25 0.31)"/><path class="424f7944-6a54-4956-9b57-391a95bc970b" d="M528.67,85.5a22.15,22.15,0,0,1,4.42.08" transform="translate(0.25 0.31)"/><path class="424f7944-6a54-4956-9b57-391a95bc970b" d="M530.17,80.25a11.71,11.71,0,0,0,2.92-.58" transform="translate(0.25 0.31)"/><path class="424f7944-6a54-4956-9b57-391a95bc970b" d="M529.42,78.75c.61,0,1.81-.25,2.58-.25" transform="translate(0.25 0.31)"/><path class="424f7944-6a54-4956-9b57-391a95bc970b" d="M528.92,76.75c1.22-.3,2.58-.25,3.83-.5" transform="translate(0.25 0.31)"/><path class="424f7944-6a54-4956-9b57-391a95bc970b" d="M522,70.42a13.56,13.56,0,0,1,2.92-4.08" transform="translate(0.25 0.31)"/><path class="424f7944-6a54-4956-9b57-391a95bc970b" d="M522.58,72a29.44,29.44,0,0,0,2.92-2.33" transform="translate(0.25 0.31)"/><path class="424f7944-6a54-4956-9b57-391a95bc970b" d="M524.08,73.25c1.5.16,2.63-1.34,3.67-2.17" transform="translate(0.25 0.31)"/><path class="424f7944-6a54-4956-9b57-391a95bc970b" d="M520.5,102.75c.58.91,1,1.94,1.5,2.88" transform="translate(0.25 0.31)"/><path class="424f7944-6a54-4956-9b57-391a95bc970b" d="M522,101.38a40.5,40.5,0,0,1,3.38,5.25" transform="translate(0.25 0.31)"/><path class="424f7944-6a54-4956-9b57-391a95bc970b" d="M523.75,100.75a10.16,10.16,0,0,1,2.63,3" transform="translate(0.25 0.31)"/><path class="424f7944-6a54-4956-9b57-391a95bc970b" d="M517.5,107.75a12.65,12.65,0,0,0,.5,2.88" transform="translate(0.25 0.31)"/><path class="424f7944-6a54-4956-9b57-391a95bc970b" d="M496.63,107.63q-.11.63-.25,1.25" transform="translate(0.25 0.31)"/><path class="424f7944-6a54-4956-9b57-391a95bc970b" d="M487.63,87.25c-.35-.87-1.91-1.1-2.75-1.12" transform="translate(0.25 0.31)"/><path class="424f7944-6a54-4956-9b57-391a95bc970b" d="M487.5,89c-1.86.69-3.5,1.49-5.62,1.38" transform="translate(0.25 0.31)"/><path class="424f7944-6a54-4956-9b57-391a95bc970b" d="M506.76,136.51v42.62s-4.63-6-11.26-7c0,0,11.39,9.75,11.26,13.88v69.13s-8.43-6.74-15.43-4.35c0,0,2.67,4.81,3.58,6.6" transform="translate(0.25 0.31)"/><path class="424f7944-6a54-4956-9b57-391a95bc970b" d="M513.56,124.83v35.54s4.94-8.37,12.31-8.87c0,0-11.75,11.75-12.31,17.13v51s4.69-4.87,11.19-4.37c0,0-9.63,7.25-11.19,14.38v17.5" transform="translate(0.25 0.31)"/><path class="424f7944-6a54-4956-9b57-391a95bc970b" d="M503.48,175.9c4.07-24.61-29.48-14.33-29.48-14.33-13.5,2.81-14.75,2.26-14.75,2.26s21.11,37.23,43.52,15.41" transform="translate(0.25 0.31)"/><path class="424f7944-6a54-4956-9b57-391a95bc970b" d="M516.15,157s-6.4-28.34,38.47-11.84c0,0-10.62,11.13-13.75,15.75,0,0-9.66,17.15-23.89,1" transform="translate(0.25 0.31)"/><path class="424f7944-6a54-4956-9b57-391a95bc970b" d="M516.81,217.2s-1.66-7.89,9.07-12.57c5.23-2.28,13.39-3.79,26.13-3.26,0,0-15.19,45.71-34.84,21.36" transform="translate(0.25 0.31)"/><line class="424f7944-6a54-4956-9b57-391a95bc970b" x1="522.03" y1="218.09" x2="534.61" y2="228.66"/><line class="424f7944-6a54-4956-9b57-391a95bc970b" x1="524.19" y1="216.21" x2="542.85" y2="220.6"/><polyline class="424f7944-6a54-4956-9b57-391a95bc970b" points="548.02 211.76 525 215.56 547.38 201.58"/><polyline class="424f7944-6a54-4956-9b57-391a95bc970b" points="533.52 202.74 523.4 215.55 526.13 204.95"/><path class="424f7944-6a54-4956-9b57-391a95bc970b" d="M534.29,140.08s-10.76,6.13-14,13.36" transform="translate(0.25 0.31)"/><path class="424f7944-6a54-4956-9b57-391a95bc970b" d="M543.32,141.61s-14.64,5.39-19.79,10.33" transform="translate(0.25 0.31)"/><path class="424f7944-6a54-4956-9b57-391a95bc970b" d="M525.88,151.5s26.82-7.49,28.57-6.18" transform="translate(0.25 0.31)"/><path class="424f7944-6a54-4956-9b57-391a95bc970b" d="M525.1,152.29a181.39,181.39,0,0,1,22.65.28" transform="translate(0.25 0.31)"/><path class="424f7944-6a54-4956-9b57-391a95bc970b" d="M521.92,155.74s13-.63,19.68,4.13" transform="translate(0.25 0.31)"/><path class="424f7944-6a54-4956-9b57-391a95bc970b" d="M520.84,157s12.65,7.87,14,10.11" transform="translate(0.25 0.31)"/><path class="424f7944-6a54-4956-9b57-391a95bc970b" d="M498.09,172.87c-1-.34-23.77-7-26.6-.53" transform="translate(0.25 0.31)"/><path class="424f7944-6a54-4956-9b57-391a95bc970b" d="M473.76,164.28c-1.34-1.34-6.37,1.54,1.62,5.25" transform="translate(0.25 0.31)"/><path class="424f7944-6a54-4956-9b57-391a95bc970b" d="M485.9,170.19c-1-.18-6.14,4.14-6.32,8.47,0,0,.09,3.36,2.66,2.63" transform="translate(0.25 0.31)"/><path class="424f7944-6a54-4956-9b57-391a95bc970b" d="M492.37,166.07c.61.28,2.89,1,2.28-2,0,0-3.66-5.14-4.91,6.45" transform="translate(0.25 0.31)"/><path class="424f7944-6a54-4956-9b57-391a95bc970b" d="M482.32,162c-1.36-1.89-7.7.19.37,7.32" transform="translate(0.25 0.31)"/><path class="424f7944-6a54-4956-9b57-391a95bc970b" d="M481.27,164s2.41-.09,1.05-2" transform="translate(0.25 0.31)"/><circle class="01927dfa-be0a-4c64-b2fd-a6123b22e9f9" cx="477.29" cy="172.48" r="0.76" transform="translate(102.03 514.18) rotate(-62.14)"/><circle class="01927dfa-be0a-4c64-b2fd-a6123b22e9f9" cx="486.87" cy="175.14" r="0.66" transform="translate(104.88 524.17) rotate(-62.16)"/><circle class="01927dfa-be0a-4c64-b2fd-a6123b22e9f9" cx="495.81" cy="175.88" r="0.6" transform="translate(108.78 532.24) rotate(-62.13)"/><circle class="01927dfa-be0a-4c64-b2fd-a6123b22e9f9" cx="486.37" cy="179.92" r="0.96" transform="translate(100.2 526.07) rotate(-62.13)"/><circle class="01927dfa-be0a-4c64-b2fd-a6123b22e9f9" cx="486.2" cy="167" r="1.17" transform="translate(111.77 519.3) rotate(-62.17)"/><circle class="01927dfa-be0a-4c64-b2fd-a6123b22e9f9" cx="486.47" cy="163.02" r="1.25" transform="translate(115.34 517.32) rotate(-62.15)"/><circle class="01927dfa-be0a-4c64-b2fd-a6123b22e9f9" cx="499.05" cy="166.3" r="1.29" transform="translate(119.21 530.26) rotate(-62.16)"/><circle class="01927dfa-be0a-4c64-b2fd-a6123b22e9f9" cx="498.24" cy="170.72" r="0.85" transform="translate(114.76 531.78) rotate(-62.14)"/><circle class="01927dfa-be0a-4c64-b2fd-a6123b22e9f9" cx="497.93" cy="179" r="1.45" transform="translate(107.28 535.92) rotate(-62.15)"/><circle class="01927dfa-be0a-4c64-b2fd-a6123b22e9f9" cx="475.18" cy="176.47" r="1.55" transform="translate(97.32 514.37) rotate(-62.13)"/><circle class="01927dfa-be0a-4c64-b2fd-a6123b22e9f9" cx="477.29" cy="167.69" r="0.83" transform="translate(106.45 511.83) rotate(-62.17)"/><circle class="01927dfa-be0a-4c64-b2fd-a6123b22e9f9" cx="475.73" cy="162.87" r="1.37" transform="translate(109.82 507.82) rotate(-62.16)"/><circle class="01927dfa-be0a-4c64-b2fd-a6123b22e9f9" cx="484.78" cy="183.19" r="1.37" transform="translate(96.68 526.66) rotate(-62.16)"/><circle class="01927dfa-be0a-4c64-b2fd-a6123b22e9f9" cx="468.64" cy="169.69" r="0.83" transform="translate(100.07 505.25) rotate(-62.18)"/><circle class="01927dfa-be0a-4c64-b2fd-a6123b22e9f9" cx="465.44" cy="166.51" r="1.79" transform="translate(101.15 500.7) rotate(-62.17)"/><path class="424f7944-6a54-4956-9b57-391a95bc970b" d="M493.81,179.27s-.51,3.19-3.28.57c-1.57-1.48-1-5.85,2.56-8.12" transform="translate(0.25 0.31)"/><path class="01927dfa-be0a-4c64-b2fd-a6123b22e9f9" d="M490.2,179" transform="translate(0.25 0.31)"/><path class="424f7944-6a54-4956-9b57-391a95bc970b" d="M508.48,268.37S508.34,251.91,480,260c0,0,6.46,3.89,8.56,10.39,0,0,4.85,9.74,11.27,7.83" transform="translate(0.25 0.31)"/><path class="424f7944-6a54-4956-9b57-391a95bc970b" d="M493.78,278.83S478,268.52,467,282.18c0,0,11.34,9,17.54,6.8" transform="translate(0.25 0.31)"/><path class="424f7944-6a54-4956-9b57-391a95bc970b" d="M488.16,269.26s-10.5-1.51-13.16-.55c0,0,1.33,3.85,6.58,6.24" transform="translate(0.25 0.31)"/><path class="424f7944-6a54-4956-9b57-391a95bc970b" d="M479.78,289s-9.77-2.8-19.94,6.53c0,0,9.67,7.5,11.83,7.5" transform="translate(0.25 0.31)"/><path class="424f7944-6a54-4956-9b57-391a95bc970b" d="M473.48,286.4s-6.48-2.1-8.31,0l2.59,3.92" transform="translate(0.25 0.31)"/><path class="424f7944-6a54-4956-9b57-391a95bc970b" d="M507.67,243.16s12.72,17.6,11.19,22.81" transform="translate(0.25 0.31)"/><path class="424f7944-6a54-4956-9b57-391a95bc970b" d="M484.33,258.86s18.94,5.92,19.34,10" transform="translate(0.25 0.31)"/><path class="424f7944-6a54-4956-9b57-391a95bc970b" d="M467,282.18a21.45,21.45,0,0,1,18.4,0" transform="translate(0.25 0.31)"/><path class="424f7944-6a54-4956-9b57-391a95bc970b" d="M460.88,294.58s19.4-1.45,22.93,4.07" transform="translate(0.25 0.31)"/><rect class="424f7944-6a54-4956-9b57-391a95bc970b" x="0.25" y="0.31" width="737.01" height="303"/></g><g id="dba13696-1577-49ee-9aee-6fcc7f07073b" data-name="图层 5"><path class="424f7944-6a54-4956-9b57-391a95bc970b" d="M654,133c1.67-10.33,12-16,12-16s9,7.33,11,18.33a25.49,25.49,0,0,1,21-6S699.33,141,694.67,148c0,0,8.67-3,18,3.5,0,0-2.33,9.5-10.67,12.5a15.68,15.68,0,0,1,12.67,10s-3.33,9-16.67,7.33c0,0,8.67,4.67,8.33,18.67,0,0-6,5-16-2,0,0,3,13-6,18.67a15.49,15.49,0,0,1-11-8.67s-3.67,11-11,13.33c0,0-5.33-2.33-8.33-11.67,0,0-6.33,9-16,9,0,0-8.67-8.67-4.33-17,0,0-14.33,4-17.67,1,0,0-3-16.33,5.67-21,0,0-10.33,2.67-17-5.33,0,0,4.67-15.33,16-15,0,0-11.33-8.67-11-18.67A32.26,32.26,0,0,1,632,141s0-17,5.62-22.5c0,0,9.88,3.25,16.38,14.5" transform="translate(0.25 0.31)"/><circle class="424f7944-6a54-4956-9b57-391a95bc970b" cx="659.92" cy="169.48" r="24.5"/><circle class="424f7944-6a54-4956-9b57-391a95bc970b" cx="659.92" cy="169.48" r="13.83"/><path class="424f7944-6a54-4956-9b57-391a95bc970b" d="M645.83,144c-12.83-4.17-6.67-18.33-6.67-18.33.86.1,14.35,6.56,6.67,18.33" transform="translate(0.25 0.31)"/><path class="424f7944-6a54-4956-9b57-391a95bc970b" d="M633.1,157.29c-13.2,2.81-14.94-12.54-14.94-12.54.79-.34,15.71-1.49,14.94,12.54" transform="translate(0.25 0.31)"/><path class="424f7944-6a54-4956-9b57-391a95bc970b" d="M630.54,171c-6.37,11.89-19.22,3.32-19.22,3.32.25-.82,9-13,19.22-3.32" transform="translate(0.25 0.31)"/><path class="424f7944-6a54-4956-9b57-391a95bc970b" d="M635.36,185.33c.43,13.49-15,12.49-15,12.49-.2-.84,1.31-15.73,15-12.49" transform="translate(0.25 0.31)"/><path class="424f7944-6a54-4956-9b57-391a95bc970b" d="M646.7,195.31c7.12,11.46-6.74,18.31-6.74,18.31-.59-.63-6.73-14.28,6.74-18.31" transform="translate(0.25 0.31)"/><path class="424f7944-6a54-4956-9b57-391a95bc970b" d="M663.18,197.22c10.62,8.33,0,19.51,0,19.51-.77-.39-11.21-11.1,0-19.51" transform="translate(0.25 0.31)"/><path class="424f7944-6a54-4956-9b57-391a95bc970b" d="M676.19,193.15C689.26,196.49,684,211,684,211c-.86,0-14.74-5.64-7.82-17.87" transform="translate(0.25 0.31)"/><path class="424f7944-6a54-4956-9b57-391a95bc970b" d="M686,183.68c13-3.64,15.71,11.56,15.71,11.56-.77.39-15.58,2.49-15.71-11.56" transform="translate(0.25 0.31)"/><path class="424f7944-6a54-4956-9b57-391a95bc970b" d="M688.69,171.58c9.43-9.65,19.39,2.16,19.39,2.16-.47.72-12.25,9.95-19.39-2.16" transform="translate(0.25 0.31)"/><path class="424f7944-6a54-4956-9b57-391a95bc970b" d="M688,160.75c3.34-13.07,17.87-7.82,17.87-7.82,0,.86-5.63,14.74-17.87,7.82" transform="translate(0.25 0.31)"/><path class="424f7944-6a54-4956-9b57-391a95bc970b" d="M678.46,147.13c-.59-13.48,14.83-12.67,14.83-12.67.21.83-1.12,15.74-14.83,12.67" transform="translate(0.25 0.31)"/><path class="424f7944-6a54-4956-9b57-391a95bc970b" d="M664.07,142.27c-9.67-9.41,2.12-19.39,2.12-19.39.72.47,10,12.23-2.12,19.39" transform="translate(0.25 0.31)"/><polyline class="424f7944-6a54-4956-9b57-391a95bc970b" points="653.57 145.81 655.25 141.32 658.15 145.04"/><polyline class="424f7944-6a54-4956-9b57-391a95bc970b" points="640.24 154.56 638.89 149.95 643.45 151.19"/><polyline class="424f7944-6a54-4956-9b57-391a95bc970b" points="635.41 166.4 631.94 163.08 636.51 161.88"/><polyline class="424f7944-6a54-4956-9b57-391a95bc970b" points="637.15 179.06 632.49 177.93 635.84 174.6"/><polyline class="424f7944-6a54-4956-9b57-391a95bc970b" points="645 189.16 640.39 190.51 641.63 185.95"/><polyline class="424f7944-6a54-4956-9b57-391a95bc970b" points="658.16 194.03 655.14 197.77 653.56 193.32"/><polyline class="424f7944-6a54-4956-9b57-391a95bc970b" points="670.67 191.63 669.92 196.37 666.33 193.3"/><polyline class="424f7944-6a54-4956-9b57-391a95bc970b" points="680.06 183.9 681.79 188.38 677.14 187.52"/><polyline class="424f7944-6a54-4956-9b57-391a95bc970b" points="683.94 175.17 687.19 178.71 682.55 179.61"/><polyline class="424f7944-6a54-4956-9b57-391a95bc970b" points="684.19 164.37 688.58 166.32 684.69 168.99"/><polyline class="424f7944-6a54-4956-9b57-391a95bc970b" points="679.07 154.16 683.84 153.65 681.81 157.92"/><polyline class="424f7944-6a54-4956-9b57-391a95bc970b" points="668.84 146.64 672.72 143.81 673.1 148.52"/><line class="424f7944-6a54-4956-9b57-391a95bc970b" x1="659.92" y1="155.65" x2="659.24" y2="183.3"/><path class="424f7944-6a54-4956-9b57-391a95bc970b" d="M649.39,159.91" transform="translate(0.25 0.31)"/><line class="424f7944-6a54-4956-9b57-391a95bc970b" x1="649.64" y1="178.74" x2="649.64" y2="160.22"/><polyline class="424f7944-6a54-4956-9b57-391a95bc970b" points="651.64 180.57 668.84 180.05 668.3 158.48"/><line class="424f7944-6a54-4956-9b57-391a95bc970b" x1="672.09" y1="176.05" x2="647.83" y2="176.21"/><line class="424f7944-6a54-4956-9b57-391a95bc970b" x1="646.13" y1="170.57" x2="673.75" y2="170.57"/><line class="424f7944-6a54-4956-9b57-391a95bc970b" x1="673.21" y1="165.66" x2="646.62" y2="165.66"/><line class="424f7944-6a54-4956-9b57-391a95bc970b" x1="650.26" y1="159.58" x2="670.5" y2="160.57"/><path class="424f7944-6a54-4956-9b57-391a95bc970b" d="M658.9,218.59v48.66s-6.36-6.75-15.51-6c0,0,14.91,9,15.51,12.75v30.25" transform="translate(0.25 0.31)"/><path class="424f7944-6a54-4956-9b57-391a95bc970b" d="M666.81,218.59l-.73,38.91s3.24-8.5,15.46-9.5c0,0-14.37,9.75-15.46,16.25V303" transform="translate(0.25 0.31)"/><path class="424f7944-6a54-4956-9b57-391a95bc970b" d="M672.28,250.8c-8-31.45,42.38-19.3,42.38-19.3s-25.17,47.64-41.17,22.82" transform="translate(0.25 0.31)"/><path class="424f7944-6a54-4956-9b57-391a95bc970b" d="M493,303a44.67,44.67,0,0,1,88.71,0" transform="translate(0.25 0.31)"/><line class="424f7944-6a54-4956-9b57-391a95bc970b" x1="507.92" y1="275.26" x2="506.5" y2="303.31"/><line class="424f7944-6a54-4956-9b57-391a95bc970b" x1="535.75" y1="264.02" x2="541.25" y2="303.31"/><line class="424f7944-6a54-4956-9b57-391a95bc970b" x1="544.75" y1="303.31" x2="539.53" y2="264.02"/><line class="424f7944-6a54-4956-9b57-391a95bc970b" x1="499.75" y1="303.31" x2="495.17" y2="294.61"/><line class="424f7944-6a54-4956-9b57-391a95bc970b" x1="554" y1="303.31" x2="559.38" y2="269.65"/><line class="424f7944-6a54-4956-9b57-391a95bc970b" x1="561" y1="303.31" x2="568.31" y2="276.24"/><line class="424f7944-6a54-4956-9b57-391a95bc970b" x1="574.59" y1="283.65" x2="564.66" y2="303.31"/><line class="424f7944-6a54-4956-9b57-391a95bc970b" x1="571" y1="303.31" x2="576.37" y2="286.48"/><path class="424f7944-6a54-4956-9b57-391a95bc970b" d="M679,240.16a1.26,1.26,0,0,1,.92-1.34s2.36-1.19,2.06,1.8c0,0-.27,5.56-2.64,7.66" transform="translate(0.25 0.31)"/><path class="424f7944-6a54-4956-9b57-391a95bc970b" d="M689.32,238s-1.72.44-1.73-.56a1.74,1.74,0,0,1,1.9-1.75c1,.11,5.66.87-3.22,9.2" transform="translate(0.25 0.31)"/><path class="424f7944-6a54-4956-9b57-391a95bc970b" d="M700.35,234.09s-.84-.85-.42-1.64,1.33-1.8,2.49-.64,1.63,2.11.27,3.82-7.48,3.66-21.49,12.29" transform="translate(0.25 0.31)"/><path class="424f7944-6a54-4956-9b57-391a95bc970b" d="M687,257a2.63,2.63,0,0,0,3.89-1.58c1.23-3.09-4.08-5.34-13.7-4.2" transform="translate(0.25 0.31)"/><path class="424f7944-6a54-4956-9b57-391a95bc970b" d="M692.93,249s2.72,3,4.18.1c.34-.66-6.32-6-11.23-3.94" transform="translate(0.25 0.31)"/><path class="424f7944-6a54-4956-9b57-391a95bc970b" d="M702.81,242.43a1.2,1.2,0,0,0,.29,1.35c.64.47,3,.14,2.38-2.33s-11.26-.68-16,1.61" transform="translate(0.25 0.31)"/><circle class="01927dfa-be0a-4c64-b2fd-a6123b22e9f9" cx="684.53" cy="232.81" r="1.28" transform="translate(-33.52 150.52) rotate(-12.22)"/><circle class="01927dfa-be0a-4c64-b2fd-a6123b22e9f9" cx="685.35" cy="236.6" r="0.92" transform="translate(-34.29 150.68) rotate(-12.22)"/><circle class="01927dfa-be0a-4c64-b2fd-a6123b22e9f9" cx="684.87" cy="240.44" r="1.27" transform="translate(-35.03 150) rotate(-12.16)"/><circle class="01927dfa-be0a-4c64-b2fd-a6123b22e9f9" cx="685.63" cy="247.97" r="1.12" transform="translate(-36.61 150.38) rotate(-12.17)"/><circle class="01927dfa-be0a-4c64-b2fd-a6123b22e9f9" cx="689.69" cy="249.84" r="1.11" transform="translate(-36.96 151.64) rotate(-12.2)"/><circle class="01927dfa-be0a-4c64-b2fd-a6123b22e9f9" cx="693.28" cy="252.3" r="1.47" transform="translate(-37.41 152.55) rotate(-12.2)"/><circle class="01927dfa-be0a-4c64-b2fd-a6123b22e9f9" cx="678.56" cy="255.32" r="1.25" transform="translate(-38.43 149.81) rotate(-12.23)"/><circle class="01927dfa-be0a-4c64-b2fd-a6123b22e9f9" cx="681.54" cy="256.66" r="0.67" transform="translate(-38.69 150.76) rotate(-12.25)"/><circle class="01927dfa-be0a-4c64-b2fd-a6123b22e9f9" cx="695.44" cy="231.65" r="1.27" transform="translate(-33 152.54) rotate(-12.2)"/><circle class="01927dfa-be0a-4c64-b2fd-a6123b22e9f9" cx="695.57" cy="235.4" r="0.97" transform="translate(-33.8 152.7) rotate(-12.21)"/><circle class="01927dfa-be0a-4c64-b2fd-a6123b22e9f9" cx="694.44" cy="238.29" r="0.94" transform="translate(-34.38 152.12) rotate(-12.17)"/><circle class="01927dfa-be0a-4c64-b2fd-a6123b22e9f9" cx="694.1" cy="243.14" r="1.06" transform="translate(-35.38 151.91) rotate(-12.16)"/><circle class="01927dfa-be0a-4c64-b2fd-a6123b22e9f9" cx="697.13" cy="245.12" r="1.02" transform="translate(-35.8 153.1) rotate(-12.19)"/><circle class="01927dfa-be0a-4c64-b2fd-a6123b22e9f9" cx="700.25" cy="248.08" r="1.53" transform="translate(-36.35 153.83) rotate(-12.19)"/><circle class="01927dfa-be0a-4c64-b2fd-a6123b22e9f9" cx="675.56" cy="240.46" r="0.98" transform="translate(-35.25 148.04) rotate(-12.16)"/><circle class="01927dfa-be0a-4c64-b2fd-a6123b22e9f9" cx="676.44" cy="244.24" r="0.87" transform="translate(-36.11 148.96) rotate(-12.21)"/><circle class="01927dfa-be0a-4c64-b2fd-a6123b22e9f9" cx="708.9" cy="233.35" r="1.42" transform="translate(-33.04 155.31) rotate(-12.19)"/><circle class="01927dfa-be0a-4c64-b2fd-a6123b22e9f9" cx="706.84" cy="236.56" r="0.83" transform="translate(-33.75 154.82) rotate(-12.18)"/><circle class="01927dfa-be0a-4c64-b2fd-a6123b22e9f9" cx="703.7" cy="238.75" r="0.59" transform="translate(-34.2 153.45) rotate(-12.13)"/><path class="424f7944-6a54-4956-9b57-391a95bc970b" d="M649.13,265c-18.25,26.82-43-19.29-43-19.29S658.46,233.59,650.5,262" transform="translate(0.25 0.31)"/><path class="424f7944-6a54-4956-9b57-391a95bc970b" d="M636.31,266.61a1.26,1.26,0,0,1-1.61.2s-2.45-1,0-2.74c0,0,5.59-3.21,8.73-2.83" transform="translate(0.25 0.31)"/><path class="424f7944-6a54-4956-9b57-391a95bc970b" d="M627.85,260.33s1.47,1,.73,1.67a1.74,1.74,0,0,1-2.57-.26c-.6-.85-2.8-4.24,9.33-3.12" transform="translate(0.25 0.31)"/><path class="424f7944-6a54-4956-9b57-391a95bc970b" d="M617.6,254.66s-.08,1.2-1,1.4-2.23.2-2.12-1.44.5-2.62,2.68-2.74,10.44,4.6,26.19,9.36" transform="translate(0.25 0.31)"/><path class="424f7944-6a54-4956-9b57-391a95bc970b" d="M643.61,249.46a2.63,2.63,0,0,0-3.76-1.86c-3.12,1.13-1.33,7.18,5.9,13.62" transform="translate(0.25 0.31)"/><path class="424f7944-6a54-4956-9b57-391a95bc970b" d="M633.65,250.36s.42-4-2.69-3.2c-.72.19-.42,9.14,4.37,11.45" transform="translate(0.25 0.31)"/><path class="424f7944-6a54-4956-9b57-391a95bc970b" d="M622.22,247.29s.89-.32.81-1.11-1.91-2.38-3.32-.24,7,9.25,11.86,11.31" transform="translate(0.25 0.31)"/><circle class="01927dfa-be0a-4c64-b2fd-a6123b22e9f9" cx="627.14" cy="267.35" r="1.27" transform="translate(41.05 615.5) rotate(-53.77)"/><circle class="01927dfa-be0a-4c64-b2fd-a6123b22e9f9" cx="629.43" cy="264.23" r="0.92" transform="translate(44.45 615.98) rotate(-53.76)"/><circle class="01927dfa-be0a-4c64-b2fd-a6123b22e9f9" cx="632.63" cy="262.03" r="1.28" transform="matrix(0.59, -0.81, 0.81, 0.59, 47.2, 617.1)"/><circle class="01927dfa-be0a-4c64-b2fd-a6123b22e9f9" cx="637.75" cy="256.47" r="1.12" transform="translate(53.96 619.28) rotate(-53.73)"/><circle class="01927dfa-be0a-4c64-b2fd-a6123b22e9f9" cx="636.46" cy="252.19" r="1.11" transform="translate(56.99 616.66) rotate(-53.75)"/><circle class="01927dfa-be0a-4c64-b2fd-a6123b22e9f9" cx="635.92" cy="247.88" r="1.47" transform="translate(60.31 614.56) rotate(-53.76)"/><circle class="01927dfa-be0a-4c64-b2fd-a6123b22e9f9" cx="647.95" cy="256.89" r="1.25" transform="translate(58.04 628.07) rotate(-53.77)"/><circle class="01927dfa-be0a-4c64-b2fd-a6123b22e9f9" cx="646.97" cy="253.77" r="0.67" transform="translate(60.39 626.38) rotate(-53.81)"/><circle class="01927dfa-be0a-4c64-b2fd-a6123b22e9f9" cx="619.04" cy="259.95" r="1.27" transform="translate(43.71 605.94) rotate(-53.77)"/><circle class="01927dfa-be0a-4c64-b2fd-a6123b22e9f9" cx="621.76" cy="257.38" r="0.97" transform="translate(46.75 606.84) rotate(-53.74)"/><circle class="01927dfa-be0a-4c64-b2fd-a6123b22e9f9" cx="624.67" cy="256.3" r="0.94" transform="translate(48.69 608.57) rotate(-53.72)"/><circle class="01927dfa-be0a-4c64-b2fd-a6123b22e9f9" cx="628.52" cy="253.34" r="1.06" transform="translate(52.48 610.17) rotate(-53.7)"/><circle class="01927dfa-be0a-4c64-b2fd-a6123b22e9f9" cx="627.99" cy="249.76" r="1.02" transform="translate(55.47 608.79) rotate(-53.75)"/><circle class="01927dfa-be0a-4c64-b2fd-a6123b22e9f9" cx="628.14" cy="245.46" r="1.53" transform="translate(58.93 607.06) rotate(-53.74)"/><circle class="01927dfa-be0a-4c64-b2fd-a6123b22e9f9" cx="638.82" cy="268.99" r="0.98" transform="translate(44.16 625.01) rotate(-53.71)"/><circle class="01927dfa-be0a-4c64-b2fd-a6123b22e9f9" cx="641.06" cy="265.83" r="0.87" transform="translate(47.95 626.07) rotate(-53.76)"/><circle class="01927dfa-be0a-4c64-b2fd-a6123b22e9f9" cx="611.39" cy="248.76" r="1.42" transform="translate(49.38 594.82) rotate(-53.73)"/><circle class="01927dfa-be0a-4c64-b2fd-a6123b22e9f9" cx="615.15" cy="248.17" r="0.83" transform="translate(51.56 597.87) rotate(-53.76)"/><circle class="01927dfa-be0a-4c64-b2fd-a6123b22e9f9" cx="618.88" cy="249.07" r="0.59" transform="translate(51.66 600.13) rotate(-53.64)"/><path class="424f7944-6a54-4956-9b57-391a95bc970b" d="M533.27,263.67c2.77-2.08-.51-8.54-.51-8.54s9.79-1.37,12.31,9.21" transform="translate(0.25 0.31)"/><path class="424f7944-6a54-4956-9b57-391a95bc970b" d="M532.08,263.67s-6.31-9-8.82-8.6c0,0-3.84,7.25-2.13,11.63" transform="translate(0.25 0.31)"/><path class="424f7944-6a54-4956-9b57-391a95bc970b" d="M507.67,303l2.85-30.39c-5.48-6.48,1.31-12.91,1.31-12.91s6.45.19,7.31,7.83" transform="translate(0.25 0.31)"/><path class="424f7944-6a54-4956-9b57-391a95bc970b" d="M509.7,273.24s-2.78-7.66-14.78-3.07c0,0,4.25,1.08,4.58,3.42a36.76,36.76,0,0,1,.33,4.58s-.41,2.76,1.51,3.71L503.75,303" transform="translate(0.25 0.31)"/><path class="424f7944-6a54-4956-9b57-391a95bc970b" d="M501.13,282.17s-8.88-8.34-16.8,1.17c0,0,7.2,5.31,13.23,4.65" transform="translate(0.25 0.31)"/><path class="424f7944-6a54-4956-9b57-391a95bc970b" d="M494.13,297s-8.38-2.22-11.13-5.8a8.61,8.61,0,0,1,6.77-4.76" transform="translate(0.25 0.31)"/><path class="424f7944-6a54-4956-9b57-391a95bc970b" d="M487.08,303c-.42,0-4.5-1.75-4.92-2.83,0,0,1.8-3.68,11.61-3.3" transform="translate(0.25 0.31)"/><path class="424f7944-6a54-4956-9b57-391a95bc970b" d="M484.33,292.5s6.49-3.21,11.54-.81" transform="translate(0.25 0.31)"/><line class="424f7944-6a54-4956-9b57-391a95bc970b" x1="493.35" y1="302.38" x2="483" y2="300.23"/><path class="424f7944-6a54-4956-9b57-391a95bc970b" d="M499.92,283.93s-11.58-3.52-15.58-.6" transform="translate(0.25 0.31)"/><path class="424f7944-6a54-4956-9b57-391a95bc970b" d="M495.5,270.34s8.83-.41,10.75,5.91" transform="translate(0.25 0.31)"/><path class="424f7944-6a54-4956-9b57-391a95bc970b" d="M512.25,259.74s.5,9.35,1.58,10.6" transform="translate(0.25 0.31)"/><path class="424f7944-6a54-4956-9b57-391a95bc970b" d="M523.89,255.13s-.58,7.35,3.14,9.74L519.5,303" transform="translate(0.25 0.31)"/><path class="424f7944-6a54-4956-9b57-391a95bc970b" d="M533.42,255.13s7.83,5.21,6.25,8.54" transform="translate(0.25 0.31)"/><path class="424f7944-6a54-4956-9b57-391a95bc970b" d="M545.58,264.33s4.17-6.58,10-7.33c0,0,3,7.37.38,10.73" transform="translate(0.25 0.31)"/><path class="424f7944-6a54-4956-9b57-391a95bc970b" d="M557.38,268.41c2.71-7.18,11.29-7.16,11.29-7.16s4,8.12-3,12.52" transform="translate(0.25 0.31)"/><path class="424f7944-6a54-4956-9b57-391a95bc970b" d="M568.31,271.28c3.56-3.88,10-1.95,10-1.95s1.48,6.38-6.18,11" transform="translate(0.25 0.31)"/><path class="424f7944-6a54-4956-9b57-391a95bc970b" d="M577,287.69c.38-.36,6.71-4.36,7.55-9.77,0,0-3.23-2.1-10.16.87" transform="translate(0.25 0.31)"/><path class="424f7944-6a54-4956-9b57-391a95bc970b" d="M579.79,285.43c7-1,11,2.26,11,2.26a33,33,0,0,0-5,4.64s-1.88,3.85-5.36,4.09" transform="translate(0.25 0.31)"/><path class="424f7944-6a54-4956-9b57-391a95bc970b" d="M584.09,294.58c5-1,9,3.5,9,3.5S587.7,303,585.27,303" transform="translate(0.25 0.31)"/><path class="424f7944-6a54-4956-9b57-391a95bc970b" d="M555.33,257s-5.05,6.37-4.48,8.71" transform="translate(0.25 0.31)"/><path class="424f7944-6a54-4956-9b57-391a95bc970b" d="M568.06,261.25s-6.79,5.1-6.7,9.42" transform="translate(0.25 0.31)"/><path class="424f7944-6a54-4956-9b57-391a95bc970b" d="M578,269.26s-8.5,3.57-9.19,7.43" transform="translate(0.25 0.31)"/><path class="424f7944-6a54-4956-9b57-391a95bc970b" d="M590.59,287.57s-6-4.38-11.69,4.38" transform="translate(0.25 0.31)"/><path class="424f7944-6a54-4956-9b57-391a95bc970b" d="M583.63,277.55s-7,2.28-8.83,6.45" transform="translate(0.25 0.31)"/><path class="424f7944-6a54-4956-9b57-391a95bc970b" d="M592.36,298.72s-7-2.16-11.22.85" transform="translate(0.25 0.31)"/><path class="424f7944-6a54-4956-9b57-391a95bc970b" d="M530.27,261.23C531,246.12,535.5,236,535.5,236s14.75,12.89,11.88,26" transform="translate(0.25 0.31)"/><path class="424f7944-6a54-4956-9b57-391a95bc970b" d="M547.74,254.4c1.24-6.6,16.66-14.23,16.66-14.23s1.44,16.12-1.92,22.64" transform="translate(0.25 0.31)"/><path class="424f7944-6a54-4956-9b57-391a95bc970b" d="M564.2,256.57c7.21-6.16,19.89-7.83,19.89-7.83s1.51,13-7.26,20.11" transform="translate(0.25 0.31)"/><path class="424f7944-6a54-4956-9b57-391a95bc970b" d="M577.42,274.94s8.42-12.28,30.42-3.28c0,0-.17,4.59-5.5,5.88" transform="translate(0.25 0.31)"/><path class="424f7944-6a54-4956-9b57-391a95bc970b" d="M582.51,285.24s10.93-13.7,28.88-4.47l2.28.64s-2.5,5.06-5.83,5" transform="translate(0.25 0.31)"/><path class="424f7944-6a54-4956-9b57-391a95bc970b" d="M587.84,286.17s9-5.29,22.82,1.52c0,0-.5,7.81-17.58,10.39" transform="translate(0.25 0.31)"/><path class="424f7944-6a54-4956-9b57-391a95bc970b" d="M612.8,303s-9.76-5.87-17-5.41" transform="translate(0.25 0.31)"/><path class="424f7944-6a54-4956-9b57-391a95bc970b" d="M583.53,257.24s11.3-.14,13.13-.94c0,0,.75,9.78-4,12.32" transform="translate(0.25 0.31)"/><path class="424f7944-6a54-4956-9b57-391a95bc970b" d="M584.09,249.66S572,262.59,569.8,267.35" transform="translate(0.25 0.31)"/><path class="424f7944-6a54-4956-9b57-391a95bc970b" d="M607.83,271.67s-15.37-2.75-23.33,6.25" transform="translate(0.25 0.31)"/><path class="424f7944-6a54-4956-9b57-391a95bc970b" d="M610.61,288s-13.91,4.92-25.34,5.1" transform="translate(0.25 0.31)"/><path class="424f7944-6a54-4956-9b57-391a95bc970b" d="M603.57,295.12s9.37,1,9.24,2.44L610,301.48" transform="translate(0.25 0.31)"/><path class="424f7944-6a54-4956-9b57-391a95bc970b" d="M563.59,240.59s-7.73,11.84-7,19.83" transform="translate(0.25 0.31)"/><path class="424f7944-6a54-4956-9b57-391a95bc970b" d="M545.1,248.48a29.7,29.7,0,0,1,5.7-10.64s4,4.54,2.95,9" transform="translate(0.25 0.31)"/><path class="424f7944-6a54-4956-9b57-391a95bc970b" d="M535.5,236s-.86,14.75,6.06,21.91" transform="translate(0.25 0.31)"/><path class="424f7944-6a54-4956-9b57-391a95bc970b" d="M532.08,247.34s-9.87-7-11.39-7.17a19.38,19.38,0,0,1-1.19,12.12" transform="translate(0.25 0.31)"/><path class="424f7944-6a54-4956-9b57-391a95bc970b" d="M521.8,258.5c-.26-7.84-14.13-15.35-14.13-15.35s-2.53,13.8,1.65,20.15" transform="translate(0.25 0.31)"/></g></svg>