<svg id="1d9402cb-0f14-4a28-a668-262789bf3539" data-name="棰璁惧惧" xmlns="http://www.w3.org/2000/svg" viewBox="0 0 265.95 232.03"><defs><style>.\34 c5dc12a-efb4-4b0d-affe-6bd50fba2049{fill:none;stroke:#000;stroke-linecap:round;stroke-linejoin:round;stroke-width:0.56px;}</style></defs><title>svg猫描边</title><path class="4c5dc12a-efb4-4b0d-affe-6bd50fba2049" d="M333.46,205.88a168.43,168.43,0,0,0-68.13,47.86" transform="translate(-203.21 -21.99)"/><path class="4c5dc12a-efb4-4b0d-affe-6bd50fba2049" d="M234.77,144.39c-1.57,2.14-1.22,3.65-.7,4.72a3.09,3.09,0,0,0,2.87,2c1.32,0,3.11-.49,6.06-1.52" transform="translate(-203.21 -21.99)"/><path class="4c5dc12a-efb4-4b0d-affe-6bd50fba2049" d="M234.19,149.34A39.24,39.24,0,0,1,254,140.1" transform="translate(-203.21 -21.99)"/><path class="4c5dc12a-efb4-4b0d-affe-6bd50fba2049" d="M261.54,78.68c-2.55-19.79.13-28.41,2.05-33.9,2.05-5.85,3.24-8.13,4.44-9.3a2.74,2.74,0,0,1,3.51-.63,6.87,6.87,0,0,1,2.39,2.76c.38.82.2,1.13-.53,1.91a28.06,28.06,0,0,0-2.53,2.77c-.49.75-.16,1,.59,1.12s1.92.1,2.47.25.5.49.38.74a1.84,1.84,0,0,0-.3.83,1.71,1.71,0,0,0,.58,1.34c.45.36,1.2.47,1.49.8s.12.87.79,1.5,2.19,1.34,2.87,1.87.53.86-.57,1.46-3.14,1.47-4.71,2.32a7.09,7.09,0,0,0-3.05,2.5,1.38,1.38,0,0,0,.82,2,14.35,14.35,0,0,0,3.06.36c.71.11.66.42-.24,1A26.65,26.65,0,0,0,271,63a12.09,12.09,0,0,0-2.91,3.93c-.42,1-.21,1.35.84.79s2.92-2,3.94-2.76,1.19-.73,1.1-.29-.44,1.33-.52,1.77.11.44.56.26,1.15-.56,1.54-.42.45.76.32,1.32-.44,1-.25,1.3.89.37,1.26.64.42.72.11,1.64a5.56,5.56,0,0,0-.51,2.52" transform="translate(-203.21 -21.99)"/><path class="4c5dc12a-efb4-4b0d-affe-6bd50fba2049" d="M256.11,67.23c-.3-14.18,1.41-19,2.42-22.07A25.61,25.61,0,0,0,260,39.3a9.82,9.82,0,0,0-.17-3.35c-.24-.82-.69-1.17-.31-1.49s1.59-.61,2.27-1a1.74,1.74,0,0,0,.86-1.55c0-.55-.1-1.1-1.07-1.66s-2.8-1.15-3.22-1.51.57-.5,2.33-.38,4.29.49,5.75.54,1.85-.19,2-.52a1,1,0,0,0-.11-1.09c-.27-.38-.8-.75-.53-1s1.34-.27,3.05.4,4.07,2.07,7.85,6.35a64.53,64.53,0,0,1,9.82,14.51" transform="translate(-203.21 -21.99)"/><path class="4c5dc12a-efb4-4b0d-affe-6bd50fba2049" d="M266.05,98.29A52.22,52.22,0,0,1,256.9,86c-2.11-3.55-4.26-6.51-6.41-10.65s-4.3-9.46-6-13.22a63.29,63.29,0,0,1-4.24-10.87c-1-3.45-2-8.24-1.61-12.53" transform="translate(-203.21 -21.99)"/><path class="4c5dc12a-efb4-4b0d-affe-6bd50fba2049" d="M242.8,58.35a23.74,23.74,0,0,0,.15-4.88" transform="translate(-203.21 -21.99)"/><path class="4c5dc12a-efb4-4b0d-affe-6bd50fba2049" d="M246.36,66.38Q241,62.33,235.62,54.1" transform="translate(-203.21 -21.99)"/><path class="4c5dc12a-efb4-4b0d-affe-6bd50fba2049" d="M251.3,76.84a22.39,22.39,0,0,0,.1-6.87" transform="translate(-203.21 -21.99)"/><path class="4c5dc12a-efb4-4b0d-affe-6bd50fba2049" d="M254.28,81.78c-5.19-1.54-9.84-6.55-14.75-11.77" transform="translate(-203.21 -21.99)"/><path class="4c5dc12a-efb4-4b0d-affe-6bd50fba2049" d="M257.21,86.52a43.47,43.47,0,0,0-1.06-5.09" transform="translate(-203.21 -21.99)"/><path class="4c5dc12a-efb4-4b0d-affe-6bd50fba2049" d="M244,86.29c-4.14-6.3-4.87-7.93-5-8.73s.28-.75.93-.44,1.49.84,1.94,1.06.53.11-.12-.89-2-2.9-3.31-5.18a38.56,38.56,0,0,1-2.89-6.22c-.39-1.29,0-1.22.61-1.1a7.61,7.61,0,0,0,1.66.24c.36,0,.36-.27-.46-1.7a39.78,39.78,0,0,1-3.45-6.86,24.83,24.83,0,0,1-1.27-7.35c0-1.55.27-1.65.71-1.41a13.73,13.73,0,0,1,1.38,1.05c.33.24.39.15.15-1.86a51.14,51.14,0,0,1-.52-9.29,20.94,20.94,0,0,1,1.92-7.38c.64-1.27.89-1.07,1.21.85s.7,5.56,1.31,8.39a21.18,21.18,0,0,0,2,5.85c.59,1,.93,1,1.19.48a12.3,12.3,0,0,0,.57-2c.13-.5.22-.5.76,1.13s1.53,4.89,2.43,8,1.73,6.16,2.24,7.66.7,1.47.9.55.41-2.73.57-3.72.28-1.15.71-.13,1.19,3.21,2,5.49,1.55,4.64,2.09,5.81.83,1.18,1,.59.13-1.77.29-2.17.5,0,1.46,1.36a31.52,31.52,0,0,1,3.44,6,32,32,0,0,1,1.4,5.69c.26,1.13.54,1.13.81.85s.54-.82.83-.66.53.85,2.32,3.87" transform="translate(-203.21 -21.99)"/><path class="4c5dc12a-efb4-4b0d-affe-6bd50fba2049" d="M284.51,102.76c.52-3.77,1.06-5,1.07-6.38A7.63,7.63,0,0,0,284.06,92a8.18,8.18,0,0,0-3.65-2.82,38.14,38.14,0,0,0-4.6-1.09,29.74,29.74,0,0,1-4.88-1.8c-1.73-.77-3.62-1.67-4.51-2s-.8-.06-.64.47a12.29,12.29,0,0,1,.54,2.53,22.12,22.12,0,0,1-.07,4.84,15.21,15.21,0,0,0,.06,6.05" transform="translate(-203.21 -21.99)"/><path class="4c5dc12a-efb4-4b0d-affe-6bd50fba2049" d="M248.44,106.45a9.15,9.15,0,0,1-.66,4.76,3.68,3.68,0,0,1-1.72,2,5.21,5.21,0,0,1-2.55.44,4.25,4.25,0,0,1-2.44-.73" transform="translate(-203.21 -21.99)"/><path class="4c5dc12a-efb4-4b0d-affe-6bd50fba2049" d="M254.44,118.06c-3.71-3.55-5.85-4.78-7.63-5.35" transform="translate(-203.21 -21.99)"/><path class="4c5dc12a-efb4-4b0d-affe-6bd50fba2049" d="M261.35,114.34a45,45,0,0,0-13.18-4.2" transform="translate(-203.21 -21.99)"/><path class="4c5dc12a-efb4-4b0d-affe-6bd50fba2049" d="M257.49,107.67a73.26,73.26,0,0,1-9.2,2" transform="translate(-203.21 -21.99)"/><path class="4c5dc12a-efb4-4b0d-affe-6bd50fba2049" d="M242.32,110.68c0-.15,0-.31,0-.47a5.06,5.06,0,0,0-.92-3,12.36,12.36,0,0,0-3.34-3,8.75,8.75,0,0,0-3.76-1.56,2.19,2.19,0,0,0-2.2,1.3,5.19,5.19,0,0,0-.14,3.19,12.09,12.09,0,0,0,1.55,3.93,6.39,6.39,0,0,0,2.72,2.51,4.55,4.55,0,0,0,3,.09,5.08,5.08,0,0,0,2.42-1.25,2.57,2.57,0,0,0,.61-1.22" transform="translate(-203.21 -21.99)"/><path class="4c5dc12a-efb4-4b0d-affe-6bd50fba2049" d="M243,111.13l.37-.07a2.5,2.5,0,0,0,1.5-1.22" transform="translate(-203.21 -21.99)"/><path class="4c5dc12a-efb4-4b0d-affe-6bd50fba2049" d="M246.64,104.91c-.16-.57-.33-1.15-.5-1.67a11.16,11.16,0,0,0-1.69-3.44,10.49,10.49,0,0,0-3.75-3.47,4.72,4.72,0,0,0-3.75.28,3.85,3.85,0,0,0-2,1.53,4.91,4.91,0,0,0-.71,3.18,14.81,14.81,0,0,0,4.61,8.47" transform="translate(-203.21 -21.99)"/><path class="4c5dc12a-efb4-4b0d-affe-6bd50fba2049" d="M245.23,109.36a.94.94,0,0,1,.42-.2,2.83,2.83,0,0,0,1.1-.31,1.29,1.29,0,0,0,.41-1.14" transform="translate(-203.21 -21.99)"/><path class="4c5dc12a-efb4-4b0d-affe-6bd50fba2049" d="M247.4,107a5.31,5.31,0,0,0,.65-.3,3,3,0,0,0,1.53-1.62,7.58,7.58,0,0,0,.25-2.92,8.48,8.48,0,0,0-.71-3.17A9.5,9.5,0,0,0,247,96.12a2.33,2.33,0,0,0-2.25-.79,4,4,0,0,0-2.09,2,5.92,5.92,0,0,0-.55,3.7,13.9,13.9,0,0,0,1.51,4.71,2.63,2.63,0,0,0,2.2,1.53,3.59,3.59,0,0,0,1-.1" transform="translate(-203.21 -21.99)"/><path class="4c5dc12a-efb4-4b0d-affe-6bd50fba2049" d="M245.2,110.26c.11.13.17-.07.19-.19a.63.63,0,0,0,0-.36,14.37,14.37,0,0,0-3.29-5.18c-.86-.83-1.26-.9-1.48-.74s-.26.57.49,1.6S243.35,108.09,245.2,110.26Z" transform="translate(-203.21 -21.99)"/><path class="4c5dc12a-efb4-4b0d-affe-6bd50fba2049" d="M242.75,111.31c.2,0,.34-.38.15-.45a24.36,24.36,0,0,0-4.39-1.14c-.84-.1-1.13,0-1.18.26s.13.52.77.71A39.23,39.23,0,0,0,242.75,111.31Z" transform="translate(-203.21 -21.99)"/><path class="4c5dc12a-efb4-4b0d-affe-6bd50fba2049" d="M247.1,107.72a4.86,4.86,0,0,1-.46-2.33,6.66,6.66,0,0,1,.31-2.3c.15-.39.26-.29.37.23a11.33,11.33,0,0,1,.18,2.44C247.47,106.75,247.31,107.8,247.1,107.72Z" transform="translate(-203.21 -21.99)"/><path class="4c5dc12a-efb4-4b0d-affe-6bd50fba2049" d="M262.76,100.86a14,14,0,0,0-2.81-7.09,8.56,8.56,0,0,0-2.6-2.52c-.46-.17-.43.3-.54.46s-.35,0-.76-.42a9.34,9.34,0,0,0-1.24-1.24c-.27-.14-.26.27-.21.9a12.34,12.34,0,0,1,.08,1.92c-.06.42-.26.39-.74-.38s-1.25-2.29-1.76-3.06-.75-.8-.81-.43.07,1.16,0,1.47-.22.17-.73-.67-1.35-2.39-1.83-3.16-.59-.77-.68-.39a8.45,8.45,0,0,1-.3,1.43c-.15.28-.4.08-1-.76s-1.62-2.31-2.17-2.94-.65-.41-.66.22a21.35,21.35,0,0,1,0,2.27c-.09.58-.35.68-1.37.43s-2.77-.86-3.67-1-.92.07-.64.88.87,2.2,1.11,3.09.1,1.28-.42,1.6-1.43.59-1.82.79-.26.37.29.54,1.52.36,2,.56.42.4,0,1.17a10.35,10.35,0,0,0-.8,1.6" transform="translate(-203.21 -21.99)"/><path class="4c5dc12a-efb4-4b0d-affe-6bd50fba2049" d="M234.74,112.63a6.33,6.33,0,0,0-1.26.42c-.85.43-.55.9-.07,1.29s1.15.68,1.37.88,0,.28-1.78.8a77.94,77.94,0,0,0-7.42,2.44,13.11,13.11,0,0,0-4.27,2.58c-.54.59-.25.74.37.76s1.54-.11,2.08-.08.7.2-.62,1.65-4.12,4.18-6.16,6.49a24.79,24.79,0,0,0-3.79,5.26c-.47,1.06-.14,1.29.42,1.13s1.35-.7,1.87-.91.79-.09.15.88a39.49,39.49,0,0,0-3.18,4.81,16.86,16.86,0,0,0-1.57,5.4c-.11,1.18.11,1.34.53,1.15a14.83,14.83,0,0,1,1.48-.87c.45-.13.73.15.18,1.73a45,45,0,0,0-2.49,7.55,23.69,23.69,0,0,0,0,8c.32,1.64.71,1.64,1.18,1.12a28.12,28.12,0,0,0,2.24-3.63,58.28,58.28,0,0,1,4.82-7.33,14.19,14.19,0,0,1,4.3-3.65c.88-.43,1-.18.82.48s-.51,1.75-.54,2,.27-.21,1.59-1.73,3.64-4.07,11.56-7.78c.54-.25.9-.77,1.58-.82a2.19,2.19,0,0,1,2.38,1.42c.31.47.59.33,1.05-.11a24.3,24.3,0,0,0,2.35-2.9c1.26-1.71,3.15-4.38,4.19-5.66s1.23-1.18,1.33-.59a9.34,9.34,0,0,0,.36,2.07c.23.4.68.13,1.44-.58s1.85-1.85,3-3.16a13.23,13.23,0,0,0,3-5.06" transform="translate(-203.21 -21.99)"/><path class="4c5dc12a-efb4-4b0d-affe-6bd50fba2049" d="M255.55,105.34a30.21,30.21,0,0,1-6.11,0" transform="translate(-203.21 -21.99)"/><path class="4c5dc12a-efb4-4b0d-affe-6bd50fba2049" d="M252.32,101.48a21,21,0,0,1-2.54.11" transform="translate(-203.21 -21.99)"/><circle class="4c5dc12a-efb4-4b0d-affe-6bd50fba2049" cx="247.36" cy="100.44" r="0.74" transform="translate(-219.16 122.54) rotate(-31.61)"/><circle class="4c5dc12a-efb4-4b0d-affe-6bd50fba2049" cx="235.37" cy="109.51" r="0.89" transform="translate(-226.67 107.46) rotate(-29.36)"/><circle class="4c5dc12a-efb4-4b0d-affe-6bd50fba2049" cx="238.95" cy="102.15" r="1.05" transform="translate(-220.37 36.13) rotate(-13.39)"/><path class="4c5dc12a-efb4-4b0d-affe-6bd50fba2049" d="M263.05,114.48c-4.9-6-13.88-17.14-24.6-28.67" transform="translate(-203.21 -21.99)"/><path class="4c5dc12a-efb4-4b0d-affe-6bd50fba2049" d="M260.48,111.32q-3.86.09-6.61.11" transform="translate(-203.21 -21.99)"/><path class="4c5dc12a-efb4-4b0d-affe-6bd50fba2049" d="M259.45,110.06c.83-3.63.47-9.47-1.58-18.5" transform="translate(-203.21 -21.99)"/><path class="4c5dc12a-efb4-4b0d-affe-6bd50fba2049" d="M255.45,105.21a116.23,116.23,0,0,0,.07-14.5" transform="translate(-203.21 -21.99)"/><path class="4c5dc12a-efb4-4b0d-affe-6bd50fba2049" d="M251.37,100.36A80,80,0,0,0,251.85,89" transform="translate(-203.21 -21.99)"/><path class="4c5dc12a-efb4-4b0d-affe-6bd50fba2049" d="M247.87,96.3c.54-2.34.63-5.45.32-10.11" transform="translate(-203.21 -21.99)"/><path class="4c5dc12a-efb4-4b0d-affe-6bd50fba2049" d="M244.92,92.94q-3.29-.07-7.94-.56" transform="translate(-203.21 -21.99)"/><path class="4c5dc12a-efb4-4b0d-affe-6bd50fba2049" d="M245.09,93.13c.74-1.71.88-4,.53-7.94" transform="translate(-203.21 -21.99)"/><path class="4c5dc12a-efb4-4b0d-affe-6bd50fba2049" d="M306,83.09a34.31,34.31,0,0,0,.5-6.24" transform="translate(-203.21 -21.99)"/><path class="4c5dc12a-efb4-4b0d-affe-6bd50fba2049" d="M351.8,49.18a9.83,9.83,0,0,1,.68-3.21" transform="translate(-203.21 -21.99)"/><path class="4c5dc12a-efb4-4b0d-affe-6bd50fba2049" d="M350.76,49.59a12.43,12.43,0,0,0,4.58,1.86" transform="translate(-203.21 -21.99)"/><path class="4c5dc12a-efb4-4b0d-affe-6bd50fba2049" d="M347.37,51a8.5,8.5,0,0,1,.89-4.36" transform="translate(-203.21 -21.99)"/><path class="4c5dc12a-efb4-4b0d-affe-6bd50fba2049" d="M342.54,53.26a22.84,22.84,0,0,1,.7-6.63" transform="translate(-203.21 -21.99)"/><path class="4c5dc12a-efb4-4b0d-affe-6bd50fba2049" d="M344.42,52.34a48,48,0,0,0,7.21,2.45" transform="translate(-203.21 -21.99)"/><path class="4c5dc12a-efb4-4b0d-affe-6bd50fba2049" d="M338.38,55.53a18.8,18.8,0,0,1,.76-6.26" transform="translate(-203.21 -21.99)"/><path class="4c5dc12a-efb4-4b0d-affe-6bd50fba2049" d="M336.15,56.9c3.18,2.71,5,3.74,6.24,3.69" transform="translate(-203.21 -21.99)"/><path class="4c5dc12a-efb4-4b0d-affe-6bd50fba2049" d="M334.07,58.29a18.5,18.5,0,0,1,.79-7.12" transform="translate(-203.21 -21.99)"/><path class="4c5dc12a-efb4-4b0d-affe-6bd50fba2049" d="M326.9,64.27A30.19,30.19,0,0,0,335,66" transform="translate(-203.21 -21.99)"/><path class="4c5dc12a-efb4-4b0d-affe-6bd50fba2049" d="M311.31,83.6a10.19,10.19,0,0,0,5.09.14" transform="translate(-203.21 -21.99)"/><path class="4c5dc12a-efb4-4b0d-affe-6bd50fba2049" d="M312.18,82.66a49.92,49.92,0,0,1-.13-9.71" transform="translate(-203.21 -21.99)"/><path class="4c5dc12a-efb4-4b0d-affe-6bd50fba2049" d="M315.58,78.47a5.22,5.22,0,0,0,4,1.52" transform="translate(-203.21 -21.99)"/><path class="4c5dc12a-efb4-4b0d-affe-6bd50fba2049" d="M316.89,76.72a42,42,0,0,1-.21-9.62" transform="translate(-203.21 -21.99)"/><path class="4c5dc12a-efb4-4b0d-affe-6bd50fba2049" d="M319.8,72.76a9.25,9.25,0,0,0,6,1.68" transform="translate(-203.21 -21.99)"/><path class="4c5dc12a-efb4-4b0d-affe-6bd50fba2049" d="M320.56,71.73a49.75,49.75,0,0,1,.12-9" transform="translate(-203.21 -21.99)"/><path class="4c5dc12a-efb4-4b0d-affe-6bd50fba2049" d="M323,68.61A41.21,41.21,0,0,0,330.1,70" transform="translate(-203.21 -21.99)"/><path class="4c5dc12a-efb4-4b0d-affe-6bd50fba2049" d="M325,66.31a17.91,17.91,0,0,1,.12-7.52" transform="translate(-203.21 -21.99)"/><path class="4c5dc12a-efb4-4b0d-affe-6bd50fba2049" d="M329,62.3a23.06,23.06,0,0,1,.46-8.28" transform="translate(-203.21 -21.99)"/><path class="4c5dc12a-efb4-4b0d-affe-6bd50fba2049" d="M305.81,88.18c7.85-4.78,12.59-14.87,19.89-22.68s17.4-13.44,31.08-18.13" transform="translate(-203.21 -21.99)"/><path class="4c5dc12a-efb4-4b0d-affe-6bd50fba2049" d="M330.27,74.44l.31,0c1.35-.1,1.72.08,2.08,2.74s.7,7.79,1,11.27.46,5.31.67,6.68a11.72,11.72,0,0,0,.81,3.12c.37.84.89,1.6,1.17,2.14a2.51,2.51,0,0,1,.31,1.4,7.34,7.34,0,0,1-.32,2.14,22.93,22.93,0,0,0-1,2.77,12.34,12.34,0,0,0-.1,3.4,7.09,7.09,0,0,0,.48,2.16,4.24,4.24,0,0,1,.53,1.39,1.64,1.64,0,0,1-.7,1.47,2.4,2.4,0,0,1-2.09,0c-.74-.32-1.4-.94-1.66-2.68a42.29,42.29,0,0,1-.06-6.41,8.8,8.8,0,0,0-.21-3.3,8.29,8.29,0,0,1-.91-3.21c-.14-1.85.09-4.89.07-7a7.76,7.76,0,0,0-1-4.43,20.6,20.6,0,0,0-2.86-3.23,9.55,9.55,0,0,1-2.3-3.07,7,7,0,0,1-.42-1.66" transform="translate(-203.21 -21.99)"/><path class="4c5dc12a-efb4-4b0d-affe-6bd50fba2049" d="M337.71,55.93c3.88.43,5,1.09,5.65,1.72s1,1.25,1.63,1.66a4.82,4.82,0,0,0,2.63.57,5,5,0,0,0,2.61-.84c.7-.48,1.23-1.16.44-2.56" transform="translate(-203.21 -21.99)"/><path class="4c5dc12a-efb4-4b0d-affe-6bd50fba2049" d="M341.32,53.89a44,44,0,0,1,4.51,1.75,13.64,13.64,0,0,0,3.06.75,7.92,7.92,0,0,0,2.62,0,7.27,7.27,0,0,0,3-1.19,3.63,3.63,0,0,0,1.58-2.33" transform="translate(-203.21 -21.99)"/><path class="4c5dc12a-efb4-4b0d-affe-6bd50fba2049" d="M347.38,51c1.92.48,3,1,4.17,1.38a13.87,13.87,0,0,0,3.51.55,2.83,2.83,0,0,0,1.85-.43,4.93,4.93,0,0,0,1.26-1.29,1.1,1.1,0,0,0,.23-1c-.09-.22-.32-.34-1.15-.43a7.09,7.09,0,0,1-3.74-1.26" transform="translate(-203.21 -21.99)"/><path class="4c5dc12a-efb4-4b0d-affe-6bd50fba2049" d="M349.77,46.9a7.23,7.23,0,0,0,2-2.75c.46-1.11.59-2.15.85-2.65s.64-.47.9.16a9,9,0,0,1,.36,3.19,8,8,0,0,1-1.14,4" transform="translate(-203.21 -21.99)"/><path class="4c5dc12a-efb4-4b0d-affe-6bd50fba2049" d="M345.43,48.46a8.6,8.6,0,0,0,2.22-4.5c.34-1.56.3-2,.42-2.18s.4.06.89,1,1.09,2.41.67,7.26" transform="translate(-203.21 -21.99)"/><path class="4c5dc12a-efb4-4b0d-affe-6bd50fba2049" d="M340.62,48.59a11.87,11.87,0,0,0,2.64-4.35c.5-1.25.66-1.54.87-1.57s.46.19.78,1.47a29.69,29.69,0,0,1,.56,7.71" transform="translate(-203.21 -21.99)"/><path class="4c5dc12a-efb4-4b0d-affe-6bd50fba2049" d="M336.8,49a9.78,9.78,0,0,0,1.89-2.56,12.18,12.18,0,0,1,1-1.82c.28-.31.53-.22.74.69s.36,2.44,0,9.08" transform="translate(-203.21 -21.99)"/><path class="4c5dc12a-efb4-4b0d-affe-6bd50fba2049" d="M331.44,51.9a13.65,13.65,0,0,0,3-4,16.92,16.92,0,0,1,1-2c.27-.32.57-.26,1,.95s.82,3.2.07,9.85" transform="translate(-203.21 -21.99)"/><path class="4c5dc12a-efb4-4b0d-affe-6bd50fba2049" d="M326.61,54.12a13.79,13.79,0,0,0,2.17-3.36c.44-1,.58-1.7.77-2.06s.43-.4.7-.11a5.46,5.46,0,0,1,1,2.39c.36,1.39.77,3.54.72,8.91" transform="translate(-203.21 -21.99)"/><path class="4c5dc12a-efb4-4b0d-affe-6bd50fba2049" d="M331.92,59.87c4.2,1.73,6,2,7.45,2.1A19.66,19.66,0,0,0,343,62a6.69,6.69,0,0,0,2.75-.73,1.78,1.78,0,0,0,1-1.41" transform="translate(-203.21 -21.99)"/><path class="4c5dc12a-efb4-4b0d-affe-6bd50fba2049" d="M329.24,62.07a20.69,20.69,0,0,1,7,2.12,13.82,13.82,0,0,0,3.35,1.43,3,3,0,0,0,2-.63,4.82,4.82,0,0,0,1.41-1.11c.15-.3-.18-.47-.88-.8a7.87,7.87,0,0,1-1.76-1" transform="translate(-203.21 -21.99)"/><path class="4c5dc12a-efb4-4b0d-affe-6bd50fba2049" d="M326.08,65.1c.66,1.9,2.77,2.41,4.68,2.59a23,23,0,0,0,5.44-.24c1.4-.2,2.56-.4,2.92-2" transform="translate(-203.21 -21.99)"/><path class="4c5dc12a-efb4-4b0d-affe-6bd50fba2049" d="M320.63,71.65a12.69,12.69,0,0,0,8.69.53,10.17,10.17,0,0,0,4.47-2.26,6.54,6.54,0,0,0,1.88-2.38" transform="translate(-203.21 -21.99)"/><path class="4c5dc12a-efb4-4b0d-affe-6bd50fba2049" d="M316.83,76.81a31.2,31.2,0,0,0,8.87-.17,10.09,10.09,0,0,0,3.34-1,2.56,2.56,0,0,0,1.22-1.07c.1-.33-.17-.58-.5-1a3.75,3.75,0,0,1-.6-1.32" transform="translate(-203.21 -21.99)"/><path class="4c5dc12a-efb4-4b0d-affe-6bd50fba2049" d="M322.21,58.46a15.3,15.3,0,0,1,2.36-5.91c.71-.92,1.09-.85,1.36-.63s.42.6.63,1.86a82.74,82.74,0,0,1,.67,10.17" transform="translate(-203.21 -21.99)"/><path class="4c5dc12a-efb4-4b0d-affe-6bd50fba2049" d="M313.26,81.4a30.94,30.94,0,0,0,6.51.18,11.29,11.29,0,0,0,3.75-1.11,2.52,2.52,0,0,0,1.24-1.2c.16-.34.21-.59-.15-.71s-1.14-.11-2-.38A3.61,3.61,0,0,1,320.86,77" transform="translate(-203.21 -21.99)"/><path class="4c5dc12a-efb4-4b0d-affe-6bd50fba2049" d="M307.1,87.33c2.54.85,5.43.28,7.63-.42a22.67,22.67,0,0,0,5.11-2.33c1.09-.66,1.68-1.06,1.66-1.56s-.46-.92-1.26-1.51" transform="translate(-203.21 -21.99)"/><path class="4c5dc12a-efb4-4b0d-affe-6bd50fba2049" d="M313.52,65.47a13.18,13.18,0,0,1,2-5c.62-1,.94-1.72,1.22-2s.51-.29.8.28a14.14,14.14,0,0,1,1,4,50.37,50.37,0,0,1,.26,11.52" transform="translate(-203.21 -21.99)"/><path class="4c5dc12a-efb4-4b0d-affe-6bd50fba2049" d="M318.14,60.67c.7-3.18,1.54-4.12,2.08-4.64s.9-.67,1.05-.62.23.17.63,1.7S323,61.42,323,68.57" transform="translate(-203.21 -21.99)"/><path class="4c5dc12a-efb4-4b0d-affe-6bd50fba2049" d="M309.11,73.51c.06-4.18.48-5.4.92-6.49a28.47,28.47,0,0,1,1.87-3.93c.42-.68.53-.57.77-.13a10.32,10.32,0,0,1,1,3.35c.39,2.07.79,5.43,1,13.3" transform="translate(-203.21 -21.99)"/><path class="4c5dc12a-efb4-4b0d-affe-6bd50fba2049" d="M302.36,79.12c2-6.79,3.17-8.62,3.92-9.61.86-1.15,1.18-1.2,1.46-.88a8.3,8.3,0,0,1,1,2.82c.43,1.72,1,4.46.88,13.87" transform="translate(-203.21 -21.99)"/><path class="4c5dc12a-efb4-4b0d-affe-6bd50fba2049" d="M331.91,74.67c3.27-2.79,4-2.93,4.34-2.93s.45.17.44.52a8.12,8.12,0,0,0,0,1.13c0,.26.19.26.83-.06s1.76-1,2.4-1.3.79-.3.81,0-.07.84,0,1.14.23.34,1-.08,2-1.29,2.79-1.67,1-.27,1,.19,0,1.27,0,1.68.34.42,1,0,1.7-1.12,2.32-1.48.81-.33.85.13-.05,1.35,0,1.79.29.44,1.36-.2,3-1.94,4.06-2.54,1.34-.5,1.44.2,0,2,0,2.73.09.93.51.81a15.2,15.2,0,0,0,1.64-.77c.44-.21.56-.2.82.07a11.24,11.24,0,0,0,1,1.07c.33.27.61.27,1-.11s1-1.13,1.36-1.5.63-.38,1,0a9,9,0,0,0,1.52,1.6c.6.37,1.26.29,3.28-2.7s5.42-8.89,10.57-15.42a157.37,157.37,0,0,1,17.17-18.24,93.3,93.3,0,0,1,10.44-7.94,12.68,12.68,0,0,0,3.43-3.45c.67-1,1.26-1.87,1.63-2.28s.5-.31.49.24-.18,1.55-.18,2.09.18.62.73.28a21.71,21.71,0,0,1,2.24-1.45,23.42,23.42,0,0,0,2.53-.92c1.06-.57,2.52-1.74,3.5-2.41s1.5-.85,1.42-.51a15.39,15.39,0,0,1-1.44,2.26,22.29,22.29,0,0,0-1.9,3.39,4.82,4.82,0,0,0-.51,2.25c.07.35.36.19.93-.2s1.43-1,2-1.32.82-.31.84-.09-.18.65-.07.87.53.22,1,.06,1-.46,1.32-.5.28.19,0,1-.9,2.34-1.21,3.39a3.48,3.48,0,0,0-.18,2c.12.33.37.37.68.33a3.58,3.58,0,0,1,.89-.09c.22,0,.29.26.12,1.22s-.56,2.68-.74,4.35a31.49,31.49,0,0,0,.33,7.45,160.06,160.06,0,0,1,1.45,17c0,5.59-.68,10.62-2.37,20.49" transform="translate(-203.21 -21.99)"/><path class="4c5dc12a-efb4-4b0d-affe-6bd50fba2049" d="M253.54,118.46a60.68,60.68,0,0,1-1.68,13.85" transform="translate(-203.21 -21.99)"/><path class="4c5dc12a-efb4-4b0d-affe-6bd50fba2049" d="M246.76,121.8c-9.41-1-15.38.44-18.69,3.08" transform="translate(-203.21 -21.99)"/><path class="4c5dc12a-efb4-4b0d-affe-6bd50fba2049" d="M246.19,122.11a113.22,113.22,0,0,1-3.45,15.35" transform="translate(-203.21 -21.99)"/><path class="4c5dc12a-efb4-4b0d-affe-6bd50fba2049" d="M236.44,128c-7-.15-17.27,4.35-19.92,6.87" transform="translate(-203.21 -21.99)"/><path class="4c5dc12a-efb4-4b0d-affe-6bd50fba2049" d="M237.6,127.2c.12,3.47-1.65,9.38-4.39,16" transform="translate(-203.21 -21.99)"/><path class="4c5dc12a-efb4-4b0d-affe-6bd50fba2049" d="M225.11,137.62q-4.49,1.47-11.17,6.54" transform="translate(-203.21 -21.99)"/><path class="4c5dc12a-efb4-4b0d-affe-6bd50fba2049" d="M225.43,137.28a32.89,32.89,0,0,1-2.18,9.92" transform="translate(-203.21 -21.99)"/><path class="4c5dc12a-efb4-4b0d-affe-6bd50fba2049" d="M254.44,118c-15,6.87-24,13.34-31.7,22.18a85.4,85.4,0,0,0-12.48,19" transform="translate(-203.21 -21.99)"/><path class="4c5dc12a-efb4-4b0d-affe-6bd50fba2049" d="M252.05,135.59c-2.08,6.52-3.13,11.19-3,13.52" transform="translate(-203.21 -21.99)"/><path class="4c5dc12a-efb4-4b0d-affe-6bd50fba2049" d="M246.24,138a3.33,3.33,0,0,1,1.81.56,3.94,3.94,0,0,1,1.37,2.29,4.71,4.71,0,0,1,.24,2.41,9.69,9.69,0,0,1-1.39,3.49,6.32,6.32,0,0,1-.71.88" transform="translate(-203.21 -21.99)"/><path class="4c5dc12a-efb4-4b0d-affe-6bd50fba2049" d="M278.77,109.12c.34-3.75.74-6.85.4-9.39a12.53,12.53,0,0,0-3.3-6.72c-1.66-1.9-3.79-3.71-9.66-6.49" transform="translate(-203.21 -21.99)"/><path class="4c5dc12a-efb4-4b0d-affe-6bd50fba2049" d="M285.55,95.77a14.34,14.34,0,0,0,9-4.07,15.82,15.82,0,0,0,2-18.81,10,10,0,0,0-6.9-4.17,13.67,13.67,0,0,0-10,1.74c-3.05,2.09-5.27,6.08-6.07,9.42s-.19,6,2.09,7.86a8.13,8.13,0,0,0,.67.48" transform="translate(-203.21 -21.99)"/><path class="4c5dc12a-efb4-4b0d-affe-6bd50fba2049" d="M282.07,90.06a13.07,13.07,0,0,0,3.14-.08,10.39,10.39,0,0,0,7.45-4.89,8.78,8.78,0,0,0,.34-7.58,8.57,8.57,0,0,0-4.78-5A6.16,6.16,0,0,0,282.29,74a9.92,9.92,0,0,0-3.66,6.17,4.84,4.84,0,0,0,3.14,4.93,6.47,6.47,0,0,0,6.36-.92,5.31,5.31,0,0,0,1-5.46A2.53,2.53,0,0,0,286,77a3.81,3.81,0,0,0-2.17,2.89c-.13,1.07.51,1.81,2.95.53" transform="translate(-203.21 -21.99)"/><path class="4c5dc12a-efb4-4b0d-affe-6bd50fba2049" d="M287.4,102.47a10.8,10.8,0,0,1,2.44-5.84" transform="translate(-203.21 -21.99)"/><path class="4c5dc12a-efb4-4b0d-affe-6bd50fba2049" d="M284.76,102.65c.25-3.33,1-4.78,2.05-5.77a6.8,6.8,0,0,1,3.48-1.76c.85-.12,1.07.14,1.12.62a8.84,8.84,0,0,1-.16,1.82c-.09.65-.15,1.27-.26,2.31a7.09,7.09,0,0,1-1.6,4" transform="translate(-203.21 -21.99)"/><path class="4c5dc12a-efb4-4b0d-affe-6bd50fba2049" d="M298.76,80c2.48-2,4.72-.76,6,.57a5.44,5.44,0,0,1,1.37,4.58c-.13,1.18-.39,1.77-.39,2.35a1.74,1.74,0,0,0,1.06,1.6A11.75,11.75,0,0,1,310,91a7.08,7.08,0,0,1,1.84,4.67,8.25,8.25,0,0,1-1.55,5.14,4.8,4.8,0,0,1-3.9,2c-1.42,0-2.79-.83-3.87-1a1.62,1.62,0,0,0-2.08,1.17c-.23.94.08,2.41-1,4.36s-3.15,4-7.53,2.23" transform="translate(-203.21 -21.99)"/><path class="4c5dc12a-efb4-4b0d-affe-6bd50fba2049" d="M271.46,124.19a38.82,38.82,0,0,0-2.15,5.84,4.06,4.06,0,0,0,.31,3.13,3.89,3.89,0,0,0,2.68,1.78,11,11,0,0,0,4.72-.13,4.3,4.3,0,0,0,2.64-1.8,5.27,5.27,0,0,0,.63-2.7,12.44,12.44,0,0,0-.44-4.58,10.29,10.29,0,0,0-1.46-2.81" transform="translate(-203.21 -21.99)"/><path class="4c5dc12a-efb4-4b0d-affe-6bd50fba2049" d="M250.16,148.63a74.25,74.25,0,0,1,9.51-13.3c4.06-4.41,9.1-8.49,9.79-10.78" transform="translate(-203.21 -21.99)"/><path class="4c5dc12a-efb4-4b0d-affe-6bd50fba2049" d="M266.52,115.58a12.09,12.09,0,0,0-7.41-1.06c-2.06.32-3,.84-3.78,1.9a7.33,7.33,0,0,0-1.39,4.35,11.74,11.74,0,0,0,1.6,5.05c.86,1.61,1.86,3.07,4.46,3.29s6.62-.75,11-6.4" transform="translate(-203.21 -21.99)"/><path class="4c5dc12a-efb4-4b0d-affe-6bd50fba2049" d="M276.44,109c.52-3.59.24-5.39-.17-6.58a5.07,5.07,0,0,0-2.09-2.65,8.61,8.61,0,0,0-3.72-1.84A7.87,7.87,0,0,0,264.74,99a11.2,11.2,0,0,0-3.85,5.25c-.65,1.8-.55,3.16.92,5.19a19.79,19.79,0,0,0,6.43,5.54" transform="translate(-203.21 -21.99)"/><path class="4c5dc12a-efb4-4b0d-affe-6bd50fba2049" d="M279.11,108.89a10.71,10.71,0,0,1,4.68-5.71c2-1.26,3.19-1.1,4.46-.24a10.55,10.55,0,0,1,3.28,3.86,5,5,0,0,1,0,4.2c-.56,1.44-1.63,3.08-8,5.59" transform="translate(-203.21 -21.99)"/><path class="4c5dc12a-efb4-4b0d-affe-6bd50fba2049" d="M280.45,123.42c3.68,4.59,6.3,5.06,8.22,4.89a4.68,4.68,0,0,0,4-2.46,9,9,0,0,0,.83-4.7,5.65,5.65,0,0,0-1.32-3.5c-.73-.79-1.75-1.29-7-1.76" transform="translate(-203.21 -21.99)"/><path class="4c5dc12a-efb4-4b0d-affe-6bd50fba2049" d="M422.75,94.64A28.7,28.7,0,0,1,421,99.56" transform="translate(-203.21 -21.99)"/><path class="4c5dc12a-efb4-4b0d-affe-6bd50fba2049" d="M421.85,117.68a70.09,70.09,0,0,1,5.46,17.4,44.23,44.23,0,0,1,.49,17.58" transform="translate(-203.21 -21.99)"/><path class="4c5dc12a-efb4-4b0d-affe-6bd50fba2049" d="M431.51,134.64a23.16,23.16,0,0,0,8.75,6.7" transform="translate(-203.21 -21.99)"/><path class="4c5dc12a-efb4-4b0d-affe-6bd50fba2049" d="M430.26,140.21a52.29,52.29,0,0,1,3.51,7.61c.52,1,1.45,1.32,7.35-.14" transform="translate(-203.21 -21.99)"/><path class="4c5dc12a-efb4-4b0d-affe-6bd50fba2049" d="M424.54,124.32a13,13,0,0,1,7.39,3.89" transform="translate(-203.21 -21.99)"/><path class="4c5dc12a-efb4-4b0d-affe-6bd50fba2049" d="M426.91,133.1a13,13,0,0,1,4.58,2.14" transform="translate(-203.21 -21.99)"/><path class="4c5dc12a-efb4-4b0d-affe-6bd50fba2049" d="M428.27,141.07a11.69,11.69,0,0,1,1.88.94" transform="translate(-203.21 -21.99)"/><path class="4c5dc12a-efb4-4b0d-affe-6bd50fba2049" d="M427.72,137.2a17,17,0,0,0-2.85,3.55" transform="translate(-203.21 -21.99)"/><path class="4c5dc12a-efb4-4b0d-affe-6bd50fba2049" d="M426,129.05a18.46,18.46,0,0,0-3.79,5.84" transform="translate(-203.21 -21.99)"/><path class="4c5dc12a-efb4-4b0d-affe-6bd50fba2049" d="M423.19,120.74c-2.08,2.21-3.16,5.91-3.6,9.5" transform="translate(-203.21 -21.99)"/><path class="4c5dc12a-efb4-4b0d-affe-6bd50fba2049" d="M406.28,133a14.94,14.94,0,0,1,6.59-.92,24.39,24.39,0,0,1,4.38,1.35,17.69,17.69,0,0,0,4.9.93" transform="translate(-203.21 -21.99)"/><path class="4c5dc12a-efb4-4b0d-affe-6bd50fba2049" d="M406.28,133c1.08-2.81,2.5-4.17,4.52-5a15.26,15.26,0,0,1,6-1" transform="translate(-203.21 -21.99)"/><path class="4c5dc12a-efb4-4b0d-affe-6bd50fba2049" d="M415.78,120.28a19.74,19.74,0,0,1,1,6.54c0,1,.33,1,.63.78a8.68,8.68,0,0,0,.82-.94c.19-.2.26-.12.31.6s.09,2.08.18,2.72.23.56.47.43a1.64,1.64,0,0,1,.8-.25c.21,0,.29.27.34.74s0,1.16.11,1.5.21.32.41.13a7.17,7.17,0,0,1,.7-.71c.23-.15.41-.07.5.69s.09,2.21.19,2.95.29.76.48.63.36-.43.53-.48.34.16.38.57a4.77,4.77,0,0,0,.08,1.29c.14.25.53.14.77.24s.35.41.36,1.06a9.47,9.47,0,0,0,0,2c.13.31.49-.08.66.23s.16,1.29.32,1.8.51.52.71.85a4,4,0,0,1,.3,1.54,2.72,2.72,0,0,0,.22,1.25c.16.15.44-.06.59.18a5.5,5.5,0,0,1,.12,2.17,33.67,33.67,0,0,0-.07,3.67c.09.63.4.08.75-1.09s.77-3,1-4.14.33-1.79.43-2.17.23-.56.25-.77,0-.45-.05-.87.06-1,0-1.36a3.27,3.27,0,0,1-.09-.9c.05-.42.27-1.14.38-1.64s.1-.77.23-.9.4-.14.58-.92a20.32,20.32,0,0,0,.27-3.3c0-.94-.06-1.24.09-1.37s.52-.09.74-.18.28-.3.12-1.42-.54-3.14-.79-4.61a17.34,17.34,0,0,1-.29-2.89" transform="translate(-203.21 -21.99)"/><path class="4c5dc12a-efb4-4b0d-affe-6bd50fba2049" d="M427.94,112.05q2.54-2.43,9-5.64" transform="translate(-203.21 -21.99)"/><path class="4c5dc12a-efb4-4b0d-affe-6bd50fba2049" d="M431.45,113.86a30.09,30.09,0,0,1,9.86-5.51" transform="translate(-203.21 -21.99)"/><path class="4c5dc12a-efb4-4b0d-affe-6bd50fba2049" d="M436.09,115.55q2.45-2.68,8.47-5" transform="translate(-203.21 -21.99)"/><path class="4c5dc12a-efb4-4b0d-affe-6bd50fba2049" d="M440.38,116.69a18.68,18.68,0,0,1,5.06-3.51" transform="translate(-203.21 -21.99)"/><path class="4c5dc12a-efb4-4b0d-affe-6bd50fba2049" d="M441.17,116.87a19.18,19.18,0,0,0,1.08,5.35" transform="translate(-203.21 -21.99)"/><path class="4c5dc12a-efb4-4b0d-affe-6bd50fba2049" d="M437.34,115.91a26.08,26.08,0,0,0,1.72,7.6" transform="translate(-203.21 -21.99)"/><path class="4c5dc12a-efb4-4b0d-affe-6bd50fba2049" d="M433.26,114.6a48.54,48.54,0,0,0,1.16,8.24" transform="translate(-203.21 -21.99)"/><path class="4c5dc12a-efb4-4b0d-affe-6bd50fba2049" d="M430,113.15a95.77,95.77,0,0,0-.08,9.61" transform="translate(-203.21 -21.99)"/><path class="4c5dc12a-efb4-4b0d-affe-6bd50fba2049" d="M425.78,110.73a29.68,29.68,0,0,0,.49,11.26" transform="translate(-203.21 -21.99)"/><path class="4c5dc12a-efb4-4b0d-affe-6bd50fba2049" d="M424.4,109.83a26.88,26.88,0,0,1,3-2.68" transform="translate(-203.21 -21.99)"/><path class="4c5dc12a-efb4-4b0d-affe-6bd50fba2049" d="M422.35,116.08c2.13,4.75,2.87,5.37,3.33,5.68s.67.31.69,0a11.71,11.71,0,0,1,0-1.34c.07-.32.34-.3,1,.21s1.71,1.5,2.29,2,.68.43.68.22-.12-.58-.13-.76.08-.19.32.28a7.53,7.53,0,0,0,1.08,1.79.79.79,0,0,0,1.26-.1,9.09,9.09,0,0,0,.67-1.44c.17-.3.35-.16.74.14a7,7,0,0,0,1.38.91c.38.14.52-.06,1-.08a12.82,12.82,0,0,0,2.17,0,9.6,9.6,0,0,0,2.83-1,7.29,7.29,0,0,0,1.69-1.23,5.69,5.69,0,0,0,1.33-1.49c.24-.51.12-1,.31-1.36s.69-.65.81-.9-.13-.47-.21-.73a.93.93,0,0,1,.19-.83c.19-.26.5-.47.59-.72a.74.74,0,0,0-.26-.74c-.21-.22-.51-.38-.66-.56a.59.59,0,0,1-.06-.62c.08-.23.25-.49.1-.73s-.61-.45-.93-.68-.47-.48-.37-.78.48-.64.43-.91-.52-.47-.9-.7a10.46,10.46,0,0,0-1-.67c-.38-.17-.84-.25-1.06-.36s-.18-.26-.41-.35-.75-.14-1-.27-.27-.35-.59-.5-1-.2-1.27-.32-.29-.3-.54-.42-.78-.17-.93-.4.06-.64,0-.95-.29-.5-1-.57a23.06,23.06,0,0,0-3.27.09" transform="translate(-203.21 -21.99)"/><path class="4c5dc12a-efb4-4b0d-affe-6bd50fba2049" d="M252.05,183.76A107.26,107.26,0,0,0,258.37,196c7.35,12.33,14.35,18.92,24.71,24.55s24.1,10.29,32.82,12.4a54.83,54.83,0,0,0,15.37,1.77,26.07,26.07,0,0,1,8.62,2c3.45,1.24,8.15,3.09,11.33,3.9a11.41,11.41,0,0,0,7.9-.47,71.22,71.22,0,0,0,10.27-4.62,22.5,22.5,0,0,0,5.14-4,6.35,6.35,0,0,1,4.52-2c2.65-.3,7.12-.23,11.45-.78a37.75,37.75,0,0,0,12.84-3.94A50.65,50.65,0,0,0,417,214.22a77.41,77.41,0,0,0,14.5-22,136.72,136.72,0,0,0,9.58-31.65c1.27-8.54,0-12.5-.61-17.36-.53-4.38-.5-9.49-5.38-19.89" transform="translate(-203.21 -21.99)"/><path class="4c5dc12a-efb4-4b0d-affe-6bd50fba2049" d="M416.86,104.57c3.59,2.4,7.51,5.48,11.53,7.75s8,3.68,17.21,5.49" transform="translate(-203.21 -21.99)"/><path class="4c5dc12a-efb4-4b0d-affe-6bd50fba2049" d="M253.11,143.82c4.35,10.51,5.71,15.72,5.8,19.54" transform="translate(-203.21 -21.99)"/><path class="4c5dc12a-efb4-4b0d-affe-6bd50fba2049" d="M255.74,161.52q-.69,0-1.41,0c-1.66,0-3.46-.2-7.44-1.93" transform="translate(-203.21 -21.99)"/><path class="4c5dc12a-efb4-4b0d-affe-6bd50fba2049" d="M245.31,159.73c-2.89,5.91-4.66,14.12-5.66,19.91A86.47,86.47,0,0,0,238.26,196a75.49,75.49,0,0,0,3.08,23.88" transform="translate(-203.21 -21.99)"/><path class="4c5dc12a-efb4-4b0d-affe-6bd50fba2049" d="M246,159.83a60.92,60.92,0,0,0,2.17,13" transform="translate(-203.21 -21.99)"/><path class="4c5dc12a-efb4-4b0d-affe-6bd50fba2049" d="M246.95,152.5a5.48,5.48,0,0,1,2.21-3.46,1.92,1.92,0,0,1,2-.27,2,2,0,0,1,1,1.23,1.51,1.51,0,0,1-.29,1.34,6.23,6.23,0,0,1-4.07,2.08" transform="translate(-203.21 -21.99)"/><path class="4c5dc12a-efb4-4b0d-affe-6bd50fba2049" d="M247.75,153.65c1.75-.12,2.49-.3,3.12-.27a1.83,1.83,0,0,1,1.49.75,2.61,2.61,0,0,1,.36,1.66A1.66,1.66,0,0,1,252,157a2.29,2.29,0,0,1-1.62.48,3.37,3.37,0,0,1-1.92-1.09,6.38,6.38,0,0,1-1.36-2.13" transform="translate(-203.21 -21.99)"/><path class="4c5dc12a-efb4-4b0d-affe-6bd50fba2049" d="M246.94,154.29a26.37,26.37,0,0,1,.67,3.88,1.32,1.32,0,0,1-.34,1.17,1.85,1.85,0,0,1-1.39.48A3.08,3.08,0,0,1,244,159a1.9,1.9,0,0,1-.52-1.75c.11-.68.5-1.45,2.84-3.13" transform="translate(-203.21 -21.99)"/><path class="4c5dc12a-efb4-4b0d-affe-6bd50fba2049" d="M246.29,152.72a10,10,0,0,0-4.27-.62c-.95.11-1.21.44-1.36.88a3,3,0,0,0,0,1.68,4.5,4.5,0,0,0,.92,1.9c.39.4.82.4,1.63-.1a26.64,26.64,0,0,0,3.05-2.47" transform="translate(-203.21 -21.99)"/><path class="4c5dc12a-efb4-4b0d-affe-6bd50fba2049" d="M246.82,152.5c.31-1.61.67-2.53.85-3.27s.18-1.36-.08-1.6-.75-.13-1.17,0a4.06,4.06,0,0,1-1.11.47,4.29,4.29,0,0,1-1.17-.23.87.87,0,0,0-.94.22,2.39,2.39,0,0,0-.19,1.61c.09.79.33,1.84,3.35,2.91" transform="translate(-203.21 -21.99)"/><circle class="4c5dc12a-efb4-4b0d-affe-6bd50fba2049" cx="246.88" cy="153.39" r="0.9" transform="translate(-245.38 161.89) rotate(-37.87)"/><path class="4c5dc12a-efb4-4b0d-affe-6bd50fba2049" d="M275.67,120q.18,2.54.49,4.6" transform="translate(-203.21 -21.99)"/><path class="4c5dc12a-efb4-4b0d-affe-6bd50fba2049" d="M277.43,117.86a26.11,26.11,0,0,0,4.91.29" transform="translate(-203.21 -21.99)"/><path class="4c5dc12a-efb4-4b0d-affe-6bd50fba2049" d="M277.36,115.72c1.92-1.1,3.45-1.81,3.81-1.33" transform="translate(-203.21 -21.99)"/><path class="4c5dc12a-efb4-4b0d-affe-6bd50fba2049" d="M276.66,114.64a6.23,6.23,0,0,1,2.44-2.45" transform="translate(-203.21 -21.99)"/><path class="4c5dc12a-efb4-4b0d-affe-6bd50fba2049" d="M273.78,114q-.44-1.47-1.35-3.73" transform="translate(-203.21 -21.99)"/><path class="4c5dc12a-efb4-4b0d-affe-6bd50fba2049" d="M276,114.21a13.18,13.18,0,0,0,.46-5c-.15-1.63-.48-2.15-.74-2.37s-.44-.17-.75.26-.76,1.24-1,1.64-.38.4-.66.13-.73-.82-1-1.06-.45-.2-.62.16a12.34,12.34,0,0,1-.54,1.31c-.19.28-.4.17-.68-.13a6.6,6.6,0,0,0-1-1.06.89.89,0,0,0-1.07,0,1.49,1.49,0,0,0-.4,1.44c.1.72.47,1.71,4.26,5.62" transform="translate(-203.21 -21.99)"/><path class="4c5dc12a-efb4-4b0d-affe-6bd50fba2049" d="M276.16,114.29c1.37-3.81,2.1-4.83,2.79-5.3a1.71,1.71,0,0,1,1.87-.11,1.63,1.63,0,0,1,.8,1.2c.1.53.05,1.16.13,1.76s.28,1.14.64,1.28.87-.14,1.36-.24,1,0,1.08.39a2.37,2.37,0,0,1-.54,1.72,3.18,3.18,0,0,1-1.89,1.13,19.5,19.5,0,0,1-4.88.25" transform="translate(-203.21 -21.99)"/><path class="4c5dc12a-efb4-4b0d-affe-6bd50fba2049" d="M277.56,116.83c3.92-.56,5.07-.41,5.89-.26a2.63,2.63,0,0,1,1.63.7,1.72,1.72,0,0,1,.28,1.32,1.44,1.44,0,0,1-.62,1,8.39,8.39,0,0,0-1,.56.83.83,0,0,0-.2.88,2.18,2.18,0,0,0,.66.75c.29.26.6.57.58.93a1.33,1.33,0,0,1-.9,1,4.08,4.08,0,0,1-2.18.06,4.87,4.87,0,0,1-2.83-1.42c-.79-.85-1.42-2.21-2.29-3" transform="translate(-203.21 -21.99)"/><path class="4c5dc12a-efb4-4b0d-affe-6bd50fba2049" d="M267.36,121.13a12.55,12.55,0,0,0,1.33,1.58c.6.59.92.7,1.31.57a8.49,8.49,0,0,0,1.14-.65c.3-.16.46-.12.44.33a9,9,0,0,0-.09,1.95,1.23,1.23,0,0,0,.94,1.08,1.3,1.3,0,0,0,1-.54c.23-.26.3-.47.52-.56a1,1,0,0,1,1,.39c.42.43.86,1.24,1.21,1.59a.63.63,0,0,0,.87.12,1.58,1.58,0,0,0,.77-.88,7.56,7.56,0,0,0,.58-2.44c0-.86-.12-1.63-1.91-4.28" transform="translate(-203.21 -21.99)"/><path class="4c5dc12a-efb4-4b0d-affe-6bd50fba2049" d="M274.09,120.33a5.9,5.9,0,0,1-.52,3.65" transform="translate(-203.21 -21.99)"/><path class="4c5dc12a-efb4-4b0d-affe-6bd50fba2049" d="M271.3,117.68a8.73,8.73,0,0,0-3.42.9,16.3,16.3,0,0,1-1.81.67,4.3,4.3,0,0,0-1.28.54,1.7,1.7,0,0,0-.65,1,1,1,0,0,0,.3,1.06,1.54,1.54,0,0,0,1.29,0c.41-.16.67-.48,1.12-.65s1.09-.21,1.77-.45a16,16,0,0,0,3-1.75" transform="translate(-203.21 -21.99)"/><path class="4c5dc12a-efb4-4b0d-affe-6bd50fba2049" d="M271.49,116.41a20.14,20.14,0,0,1-3.6-.68,3,3,0,0,0-1.79-.05c-.37.17-.5.56-.42,1.31a8.14,8.14,0,0,0,.59,2.2" transform="translate(-203.21 -21.99)"/><path class="4c5dc12a-efb4-4b0d-affe-6bd50fba2049" d="M269.22,111.81a7.81,7.81,0,0,1-1.41,3.91" transform="translate(-203.21 -21.99)"/><path class="4c5dc12a-efb4-4b0d-affe-6bd50fba2049" d="M351.24,195.6a16.5,16.5,0,0,0,7.36,3.85,15.53,15.53,0,0,0,4.55.33,11.82,11.82,0,0,1,4.49.65c1.39.58,2.49,1.64,3.56,2.06s2.13.23,3.68-.68a40.18,40.18,0,0,0,5.7-4.37c2.11-1.87,4.28-4,4.23-5.53" transform="translate(-203.21 -21.99)"/><path class="4c5dc12a-efb4-4b0d-affe-6bd50fba2049" d="M338,210.37a14.19,14.19,0,0,0,8.59-1.9c2.34-1.28,3.93-2.47,5.17-3.1a7.6,7.6,0,0,1,4.17-.7c2,0,5.15.19,7.85.17a12.26,12.26,0,0,0,7.61-2.25" transform="translate(-203.21 -21.99)"/><path class="4c5dc12a-efb4-4b0d-affe-6bd50fba2049" d="M353.34,184.59c-2.45,15-4,18.42-6.32,20.82a18.5,18.5,0,0,1-8.2,4.72,38,38,0,0,1-8,1.5,22.54,22.54,0,0,0-4,.32c-1.08.31-2.3,1.05-4.46,2s-5.25,2.06-11.23.22" transform="translate(-203.21 -21.99)"/><path class="4c5dc12a-efb4-4b0d-affe-6bd50fba2049" d="M378,178.44c2.66.43,4.71-.65,6.3-1.25a6.19,6.19,0,0,1,4.72-.1,32.13,32.13,0,0,1,6.58,3.14,6.21,6.21,0,0,1,2.86,3.2,15.34,15.34,0,0,1,.89,4.77c.11,2,0,4.49-2.46,6.28" transform="translate(-203.21 -21.99)"/><path class="4c5dc12a-efb4-4b0d-affe-6bd50fba2049" d="M323.6,234.39a5.19,5.19,0,0,1,2.86-4.29,4.81,4.81,0,0,1,2.8-.84,3.35,3.35,0,0,1,1.86.72c.5.41.84,1,1.36,1.36a3.26,3.26,0,0,0,1.92.55,7.32,7.32,0,0,0,2.05-.46,6.18,6.18,0,0,0,2.32-1.15,20.17,20.17,0,0,0,2.25-2.56c.64-.78,1.11-1.24,1.37-1.59a1.16,1.16,0,0,0,.16-1.15,7.22,7.22,0,0,1-.38-2.08,1.24,1.24,0,0,1,1.21-1.14,3.71,3.71,0,0,1,2.32.54,2.43,2.43,0,0,1,.92,1.95,26.68,26.68,0,0,0,.32,3.09,4.48,4.48,0,0,0,1.09,2.11c.39.38.7.38,1,.16a7.38,7.38,0,0,0,.84-1,1.09,1.09,0,0,1,.93-.44c.43,0,1,.17,1.41.17s.53-.16.69-.6a4.16,4.16,0,0,0,.24-2c-.11-.88-.53-1.92-.79-3.46a10.42,10.42,0,0,1,.26-5.16,8.76,8.76,0,0,1,2.67-3.28c.74-.63.88-.82,1.07-.67a6.67,6.67,0,0,1,.72,1.18,17.86,17.86,0,0,1,1,1.77,3.63,3.63,0,0,1,.22,2.26,18.9,18.9,0,0,1-1,3.26,7.36,7.36,0,0,0-.65,1.88A5.28,5.28,0,0,0,357,226a8.31,8.31,0,0,0,1.57,2.56c.53.53.94.53,1.36.28a3.25,3.25,0,0,0,1.14-1.34,3.67,3.67,0,0,0,.29-2c-.07-.77-.32-1.67-.32-2.39a1.73,1.73,0,0,1,.73-1.56,5.2,5.2,0,0,1,1.77-.53,2.11,2.11,0,0,0,1.2-.49,4.81,4.81,0,0,0,.56-1.12,1.69,1.69,0,0,1,.82-.92c.32-.09.67.12,1.12.76a10.75,10.75,0,0,1,1.29,2.69c.3,1,.37,1.89.56,2.49a1.28,1.28,0,0,0,.87,1,1.37,1.37,0,0,0,1.3-.53,7.69,7.69,0,0,0,1.45-2.37c.4-1,.66-2.12.91-2.67s.49-.54.85-.41.83.37,1.21.49a.81.81,0,0,0,.85-.09c.19-.19.28-.55.4-.51s.27.49.47,1.13a6,6,0,0,1,.26,2.79,21.39,21.39,0,0,1-1.42,4.64,10.82,10.82,0,0,0-.9,2.91" transform="translate(-203.21 -21.99)"/><path class="4c5dc12a-efb4-4b0d-affe-6bd50fba2049" d="M414.93,139.71c-1.57-.51-2.48,1.22-3.31,3.61s-1.61,5.46-3.44,8.26a27.5,27.5,0,0,1-7.63,7.3,34,34,0,0,1-9.64,4.44,101.52,101.52,0,0,1-11.37,2.54c-2.91.48-4.07.53-5,1.27a6.13,6.13,0,0,0-2,3.6,5.68,5.68,0,0,0,.44,3.75c.51.81,1.31,1,2.46.54s2.63-1.4,3.86-2a8.14,8.14,0,0,1,3.85-.86,24.92,24.92,0,0,1,5.46.49c1.53.36,2.31.93,3.56,1.14a13,13,0,0,0,4.22-.15,23.85,23.85,0,0,1,3.35-.69,12.28,12.28,0,0,1,5.6,1c2.31,1,5,2.74,6.77,3.58s2.6.74,3.51.14a7.47,7.47,0,0,0,2.35-2.74c.48-1,.48-2-1-3.13a58.88,58.88,0,0,0-6.14-3.55c-1.71-1-2.18-1.52-1.89-2.21a5.08,5.08,0,0,1,2.26-2c.92-.44,1.71-.51,2.49-.87a7.42,7.42,0,0,0,2.76-2.69,26.6,26.6,0,0,0,3.66-7,11.22,11.22,0,0,0-.24-7.93C418.75,143,416.5,140.22,414.93,139.71Z" transform="translate(-203.21 -21.99)"/><path class="4c5dc12a-efb4-4b0d-affe-6bd50fba2049" d="M276.53,114.53a3.32,3.32,0,0,0-2.82-.51,3.18,3.18,0,1,0,1.05,6.28,3.13,3.13,0,0,0,2.16-1.39,3.39,3.39,0,0,0,.63-2.15A3,3,0,0,0,276.53,114.53Z" transform="translate(-203.21 -21.99)"/><path class="4c5dc12a-efb4-4b0d-affe-6bd50fba2049" d="M275.45,116.21a1.3,1.3,0,0,0-1.21-.12,1.68,1.68,0,0,0-.95,1,1.41,1.41,0,0,0,.07,1.19.88.88,0,0,0,.86.39,1.58,1.58,0,0,0,.94-.48,1.92,1.92,0,0,0,.5-1A1,1,0,0,0,275.45,116.21Z" transform="translate(-203.21 -21.99)"/><path class="4c5dc12a-efb4-4b0d-affe-6bd50fba2049" d="M403.18,138.16a31.58,31.58,0,0,0,.21,7.56,6.3,6.3,0,0,1-1,4.48,17.29,17.29,0,0,1-4.92,4.81,23.77,23.77,0,0,1-8.73,3.66,33.36,33.36,0,0,1-8.57.09c-2.13-.16-3.14-.17-4.37.37a14,14,0,0,0-3.84,2.74c-1,1-1.75,2-4,1.64" transform="translate(-203.21 -21.99)"/><circle class="4c5dc12a-efb4-4b0d-affe-6bd50fba2049" cx="294.71" cy="100.46" r="0.88" transform="matrix(1, -0.09, 0.09, 1, -211.09, 5.1)"/><circle class="4c5dc12a-efb4-4b0d-affe-6bd50fba2049" cx="95.86" cy="76.56" r="0.9"/><circle class="4c5dc12a-efb4-4b0d-affe-6bd50fba2049" cx="301.61" cy="94.99" r="0.74" transform="translate(-206.41 -11.17) rotate(-2.04)"/><circle class="4c5dc12a-efb4-4b0d-affe-6bd50fba2049" cx="300.1" cy="90.73" r="1.23" transform="translate(-197.16 177.48) rotate(-37.12)"/><path class="4c5dc12a-efb4-4b0d-affe-6bd50fba2049" d="M296,90.09c2,.84,2.39,1.17,2.67,1.59a3,3,0,0,1,.45,1.76,7.43,7.43,0,0,1-.41,2.61,2.38,2.38,0,0,1-1.41,1.31,8.47,8.47,0,0,1-2.32.73,2.5,2.5,0,0,1-2.06-.51c-.54-.46-1-1.25-1.41-3.57" transform="translate(-203.21 -21.99)"/><circle class="4c5dc12a-efb4-4b0d-affe-6bd50fba2049" cx="295.29" cy="93.98" r="1.59" transform="translate(-216.75 97.52) rotate(-22.38)"/><path class="4c5dc12a-efb4-4b0d-affe-6bd50fba2049" d="M264.86,158.45c3.37-1.9,4.53-1,5.71.52s2.41,3.63,3.83,5.9a27,27,0,0,0,5,6.33,13.84,13.84,0,0,0,7.15,2.92c3,.47,6.63.58,9.81,1.12s5.87,1.52,8.34,1.94a15.63,15.63,0,0,0,6.16-.09,3,3,0,0,0,2.33-1.66,1.77,1.77,0,0,0-.4-2,6.86,6.86,0,0,0-3.51-1.3,36.11,36.11,0,0,0-6.46-.45c-2.31,0-4.53.34-6.74.42a19.08,19.08,0,0,1-6.27-.62,9,9,0,0,1-4.42-2.94,8.18,8.18,0,0,1-1.68-4.37,4.6,4.6,0,0,1,.89-3.54c.71-.69,1.82-.69,3.68.14a68.41,68.41,0,0,1,7,4.08,30.23,30.23,0,0,0,7.82,3.9,27.26,27.26,0,0,0,9.17.66c3.09-.23,6-.77,8.2-1a8.63,8.63,0,0,1,5.21.71,8.36,8.36,0,0,1,4.14,4.13,5.32,5.32,0,0,1-1.12,5.16c-1.16,1.27-2.89,1.71-4.52,2.21a11.57,11.57,0,0,0-4.66,2.41,31,31,0,0,0-4,4.87c-1,1.43-1.62,2.19-2.57,2.54a5.65,5.65,0,0,1-3.54-.16,12.17,12.17,0,0,0-12,.45,35,35,0,0,0-7.36,5.27c-1.95,1.77-3.14,3.16-5.11,4.13a17,17,0,0,1-7,1.5,12.11,12.11,0,0,1-6.43-1.85,44.19,44.19,0,0,1-6.54-4.91,25.72,25.72,0,0,0-4.41-3.65,18.23,18.23,0,0,0-6-1.65" transform="translate(-203.21 -21.99)"/><path class="4c5dc12a-efb4-4b0d-affe-6bd50fba2049" d="M264.86,158.45a8.13,8.13,0,0,1,4.4,2.47,16,16,0,0,1,2.64,4c.7,1.53,1.12,3.17,2,4.86a13.52,13.52,0,0,0,3.78,4.69,17,17,0,0,0,6.22,2.66,43.49,43.49,0,0,0,8.48,1.28c3,.14,6-.09,8.51,0a16.16,16.16,0,0,1,5.64,1,2.72,2.72,0,0,1,1.83,1.93,2.19,2.19,0,0,1-.58,2,6.27,6.27,0,0,1-2.56,1.17,11.38,11.38,0,0,1-4.43.49,55.09,55.09,0,0,1-7.55-1.3,40.06,40.06,0,0,0-6.06-1.17,11.84,11.84,0,0,0-6.08,1.11,62.19,62.19,0,0,0-6.28,4.12,18.06,18.06,0,0,1-5.65,2.53,11.76,11.76,0,0,1-5.93,0c-2.24-.56-4.85-1.8-8.67-.75" transform="translate(-203.21 -21.99)"/><path class="4c5dc12a-efb4-4b0d-affe-6bd50fba2049" d="M292.92,143.09c-6.56,2.89-7.91,3.09-9.8,3s-4.47-.59-6.49-.51a6.72,6.72,0,0,0-4.9,2.08,22.17,22.17,0,0,0-3.35,5.32,23.27,23.27,0,0,1-2.61,4.55,9.83,9.83,0,0,1-4.28,2.91" transform="translate(-203.21 -21.99)"/><path class="4c5dc12a-efb4-4b0d-affe-6bd50fba2049" d="M293.24,141c-3.52,3.27-4.18,3.77-5,3.81a6,6,0,0,1-3.4-1.35c-1.34-.92-2.89-2.29-4.4-3.28a7.33,7.33,0,0,0-4.85-1.43,14.89,14.89,0,0,0-6.16,2.31,10.14,10.14,0,0,0-4.66,5.65c-.7,2.12-1,4.94-3,6.4" transform="translate(-203.21 -21.99)"/><path class="4c5dc12a-efb4-4b0d-affe-6bd50fba2049" d="M254,150.15a4.8,4.8,0,0,0-1.06,3.09,12.8,12.8,0,0,0,1,5.33,11.14,11.14,0,0,0,3,4.15,2.35,2.35,0,0,0,2.38.53,2.76,2.76,0,0,0,1.54-1.4,10.51,10.51,0,0,0,1.11-3.41,12.29,12.29,0,0,0,0-4.56,7.38,7.38,0,0,0-1.69-3.2,3.89,3.89,0,0,0-1.93-1.27,6.38,6.38,0,0,0-2.35-.18A2.91,2.91,0,0,0,254,150.15Z" transform="translate(-203.21 -21.99)"/><path class="4c5dc12a-efb4-4b0d-affe-6bd50fba2049" d="M335.12,152.81a18.09,18.09,0,0,1,.94,1.73,6.12,6.12,0,0,1,.57,2.46,14.7,14.7,0,0,0,.5,3.79,14,14,0,0,0,2.57,4.53c1.11,1.36,2.47,2.6,2.22,6" transform="translate(-203.21 -21.99)"/><path class="4c5dc12a-efb4-4b0d-affe-6bd50fba2049" d="M327,152.39a7.37,7.37,0,0,1,3.89-2.44l.15,0" transform="translate(-203.21 -21.99)"/><path class="4c5dc12a-efb4-4b0d-affe-6bd50fba2049" d="M330.76,158.29c.13,4.32,1,6.56,1.65,7.85s1.34,1.67,1.73,2.57a22.25,22.25,0,0,1,.86,3.83c.27,1.4.6,2.65.76,4.16a12.26,12.26,0,0,0,1.8,5.8" transform="translate(-203.21 -21.99)"/><path class="4c5dc12a-efb4-4b0d-affe-6bd50fba2049" d="M321.94,143.77c-.42,3.71-1.39,5.23-2.34,6.35a8.46,8.46,0,0,1-3.55,2.59A19.37,19.37,0,0,1,310.6,154c-1.91.15-3.71,0-4.79,0s-1.4.22-2.05,3.22" transform="translate(-203.21 -21.99)"/><path class="4c5dc12a-efb4-4b0d-affe-6bd50fba2049" d="M293.67,146.35c-2.13.22-2.71,1.25-2.93,2.27a5.33,5.33,0,0,0,.41,3.28,9.93,9.93,0,0,0,1.66,2.46,7.41,7.41,0,0,1,1.3,1.67,13,13,0,0,0,1.22,2.54A14,14,0,0,0,299,161.8a22.31,22.31,0,0,0,6.16,3,14.68,14.68,0,0,0,6.84.12,69.74,69.74,0,0,0,7.1-1.95,20.24,20.24,0,0,1,3.71-.88,13.07,13.07,0,0,0,3.67-.77,11.1,11.1,0,0,0,4.24-2.92,4,4,0,0,0,.86-3.55,3.08,3.08,0,0,0-2-2.1,12.3,12.3,0,0,0-4-.36" transform="translate(-203.21 -21.99)"/><path class="4c5dc12a-efb4-4b0d-affe-6bd50fba2049" d="M295.54,55.39a26.08,26.08,0,0,1,.79-11.12" transform="translate(-203.21 -21.99)"/><path class="4c5dc12a-efb4-4b0d-affe-6bd50fba2049" d="M294.61,57.57a19.46,19.46,0,0,0,8-5" transform="translate(-203.21 -21.99)"/><path class="4c5dc12a-efb4-4b0d-affe-6bd50fba2049" d="M291.08,68.5c2.19,0,4.49-1.21,8.73-4.72" transform="translate(-203.21 -21.99)"/><path class="4c5dc12a-efb4-4b0d-affe-6bd50fba2049" d="M291.95,65.13a34.15,34.15,0,0,1-3.2-12.37" transform="translate(-203.21 -21.99)"/><path class="4c5dc12a-efb4-4b0d-affe-6bd50fba2049" d="M280.66,69.84c-.22-8.73.48-11.21,1-12.5s.79-1.41,1-.8.36,1.88.54,2.37.39.23.86-1.16,1.19-3.91,2.08-5.93a18,18,0,0,1,2.58-4.32c.65-.74.9-.69.92-.13s-.16,1.6-.1,2.12.36.52,1.17-.72a47.43,47.43,0,0,1,3.52-5.35A9.88,9.88,0,0,1,298,40.68c1-.4,1.42-.48,1.38.06a15.24,15.24,0,0,1-.81,2.37c-.24.7-.18.94.66.16a54.74,54.74,0,0,1,4-3.77,11.31,11.31,0,0,1,3.7-1.94c.74-.21.8-.08.58.77s-.71,2.41-1.31,4.55-1.31,4.87-1.54,6.28,0,1.51.48,1,1.23-1.61,1.74-2.12.8-.44.33,1.31-1.69,5.15-2.25,7-.47,2-.11,1.69,1-1.1,1.39-1.23.68.39.28,1.58a28.16,28.16,0,0,1-2.14,4.25c-.7,1.2-1.07,1.75-.82,1.74s1.12-.6,1.54-.56.42.69-.92,2.88a27.66,27.66,0,0,1-6.75,7.71" transform="translate(-203.21 -21.99)"/><path class="4c5dc12a-efb4-4b0d-affe-6bd50fba2049" d="M291,69c2.2-10.31,8.51-23.06,13.13-27.53" transform="translate(-203.21 -21.99)"/><path class="4c5dc12a-efb4-4b0d-affe-6bd50fba2049" d="M285.5,68.49q-1.25-4.32-1-6" transform="translate(-203.21 -21.99)"/><path class="4c5dc12a-efb4-4b0d-affe-6bd50fba2049" d="M363.24,149.27c-2.12-1.7-2.43-3-2.25-4.67a13.41,13.41,0,0,1,2.23-5.77,18.23,18.23,0,0,1,5.31-5.1,41.1,41.1,0,0,1,7-3.24c2.54-1,5.24-2.11,7-2.95a7.73,7.73,0,0,0,3-2.11,13.17,13.17,0,0,1,1.55-2.13,5.45,5.45,0,0,1,2.86-1.14,4.45,4.45,0,0,1,3.58,1" transform="translate(-203.21 -21.99)"/><path class="4c5dc12a-efb4-4b0d-affe-6bd50fba2049" d="M301.14,139.13l-.76.24c-2.09.7-3.7,1.72-5.06,2" transform="translate(-203.21 -21.99)"/><path class="4c5dc12a-efb4-4b0d-affe-6bd50fba2049" d="M326.83,147.76a43.48,43.48,0,0,0-7-5.4c-1.67-1-2.85-1.66-3.84-2.24a17.63,17.63,0,0,0-2.63-1.41,11.25,11.25,0,0,0-2.71-.51l-.72-.07" transform="translate(-203.21 -21.99)"/><path class="4c5dc12a-efb4-4b0d-affe-6bd50fba2049" d="M305.25,139.54a16.31,16.31,0,0,0,0,6.47,5.45,5.45,0,0,0,2.09,3.61,6.6,6.6,0,0,0,3.21,1.41,5.62,5.62,0,0,0,3.28-.82,8.37,8.37,0,0,0,2.84-2.49c.67-1,1.11-2.12,2.2-5.89" transform="translate(-203.21 -21.99)"/><path class="4c5dc12a-efb4-4b0d-affe-6bd50fba2049" d="M301.47,135.34c-.59,4.94-.3,5.2.06,5.27a2.72,2.72,0,0,0,1.47-.32,9.89,9.89,0,0,1,2-.71,7.21,7.21,0,0,1,2.23,0,5,5,0,0,0,1.9.08c.5-.15.85-.57,1.09-5.26" transform="translate(-203.21 -21.99)"/><path class="4c5dc12a-efb4-4b0d-affe-6bd50fba2049" d="M327.67,142.86a5.77,5.77,0,0,1-.5.88,2.36,2.36,0,0,0-.18,1.52,9.11,9.11,0,0,1-.08,2.4,19.86,19.86,0,0,1-1.12,4.1,7.3,7.3,0,0,1-2.35,3.33,13,13,0,0,1-4.12,1.67A50,50,0,0,1,314.2,158a24.92,24.92,0,0,1-6.13.4,12.89,12.89,0,0,1-5.79-2,22,22,0,0,1-6.21-5.43,17.63,17.63,0,0,1-3-6.76,4.5,4.5,0,0,1,.64-4,12.75,12.75,0,0,1,4.1-3.28,20.8,20.8,0,0,1,7.28-2.43l.51-.07" transform="translate(-203.21 -21.99)"/><path class="4c5dc12a-efb4-4b0d-affe-6bd50fba2049" d="M334.64,153a2.89,2.89,0,0,0,1.79-1.26,5.79,5.79,0,0,0,.81-3.15,9.44,9.44,0,0,0-1.19-4.59,25.57,25.57,0,0,0-4.29-5.39,32.05,32.05,0,0,0-6.49-5.25,28.64,28.64,0,0,0-7.84-3.09,16.45,16.45,0,0,0-6.77-.2,51.27,51.27,0,0,0-7.24,1.84,10.66,10.66,0,0,0-3.07,1.35c-.35.29-.22.45.24.62a10.85,10.85,0,0,0,2.09.47,20.42,20.42,0,0,0,3.63.12A26.16,26.16,0,0,1,314,135a33.08,33.08,0,0,1,10.11,4.5,14.29,14.29,0,0,1,4.9,5.61c.85,1.73,1.21,3.22,1.78,4.46a8.57,8.57,0,0,0,2,2.8A2,2,0,0,0,334.64,153Z" transform="translate(-203.21 -21.99)"/><circle class="4c5dc12a-efb4-4b0d-affe-6bd50fba2049" cx="331.35" cy="205.26" r="0.66" transform="translate(-223.85 15.85) rotate(-6.34)"/><circle class="4c5dc12a-efb4-4b0d-affe-6bd50fba2049" cx="321.43" cy="203.49" r="0.71" transform="translate(-253.74 101.67) rotate(-20.22)"/><path class="4c5dc12a-efb4-4b0d-affe-6bd50fba2049" d="M369.47,152.86a24,24,0,0,0-2.81,4.54c-.88,1.62-1.67,2.79-2.57,4.41-.79,1.42-1.68,3.18-2.12,7.49" transform="translate(-203.21 -21.99)"/><path class="4c5dc12a-efb4-4b0d-affe-6bd50fba2049" d="M378.57,136a57.23,57.23,0,0,0-8.47,2.71,10.25,10.25,0,0,0-4.48,3.27,15.45,15.45,0,0,0-2.07,5.37,9.46,9.46,0,0,0,0,5,12.45,12.45,0,0,0,2.8,5.55" transform="translate(-203.21 -21.99)"/><path class="4c5dc12a-efb4-4b0d-affe-6bd50fba2049" d="M369.84,156.17c-3.24,10.75-2.53,14.17-2.18,17a37.61,37.61,0,0,1,.27,6.45,3.13,3.13,0,0,1-.62,2.2" transform="translate(-203.21 -21.99)"/><path class="4c5dc12a-efb4-4b0d-affe-6bd50fba2049" d="M239.33,219.63a268,268,0,0,0-35.84,18.28" transform="translate(-203.21 -21.99)"/><path class="4c5dc12a-efb4-4b0d-affe-6bd50fba2049" d="M327.68,197.63c-24.29,2.16-34.13,4.67-51.39,9.53a323.41,323.41,0,0,0-31.93,10.44" transform="translate(-203.21 -21.99)"/><path class="4c5dc12a-efb4-4b0d-affe-6bd50fba2049" d="M238.48,199.54a3.68,3.68,0,0,0-3,1.59,9.17,9.17,0,0,0-1.82,4.69,21.38,21.38,0,0,0,.46,6.33,11.89,11.89,0,0,0,2,5,8.11,8.11,0,0,0,3.59,2.64,3.19,3.19,0,0,0,2.63-.21,4.35,4.35,0,0,0,1.9-1.74,11.82,11.82,0,0,0,1.31-4,25.22,25.22,0,0,0,.39-5.51,7,7,0,0,0-1.23-3.69,17.9,17.9,0,0,0-2.93-3.46A5.55,5.55,0,0,0,238.48,199.54Z" transform="translate(-203.21 -21.99)"/><path class="4c5dc12a-efb4-4b0d-affe-6bd50fba2049" d="M234.78,214.59a95.4,95.4,0,0,0-18.35,8.9" transform="translate(-203.21 -21.99)"/><path class="4c5dc12a-efb4-4b0d-affe-6bd50fba2049" d="M327.14,196.94c-28.74,1.78-58.43,6.85-81.24,13.86" transform="translate(-203.21 -21.99)"/><path class="4c5dc12a-efb4-4b0d-affe-6bd50fba2049" d="M238.79,185.46c-4.43,1.49-11.91,7.73-18.74,15.56" transform="translate(-203.21 -21.99)"/><path class="4c5dc12a-efb4-4b0d-affe-6bd50fba2049" d="M238.8,185.39c4.74,2.44,8.87,7.72,14.28,15.92" transform="translate(-203.21 -21.99)"/><path class="4c5dc12a-efb4-4b0d-affe-6bd50fba2049" d="M242.1,168.52c7.2,6.06,11.3,11,13.92,15.19" transform="translate(-203.21 -21.99)"/><path class="4c5dc12a-efb4-4b0d-affe-6bd50fba2049" d="M242.2,168.15a72.22,72.22,0,0,0-18.12,12.26" transform="translate(-203.21 -21.99)"/><path class="4c5dc12a-efb4-4b0d-affe-6bd50fba2049" d="M420.16,83.64c1.17-7.42.8-18.11.33-25.48A107.78,107.78,0,0,0,418.56,42c-.76-3.74-1.64-7.15-3.1-8.7S412,32,410.24,32.67a23.5,23.5,0,0,0-4.67,2.5,15.13,15.13,0,0,0-3.47,2.56c-.46.68.14,1.11,1.27,1.16a33.62,33.62,0,0,0,3.6-.33c.79-.05.71.18,0,.63s-2.06,1.13-2.73,1.62-.68.78-.24,1a12.21,12.21,0,0,0,1.73.56c.42.14.37.22.19.42a2.42,2.42,0,0,0-.58.8c-.08.29.06.58,1,.86s2.6.55,3.41.79.75.44-.73.7a66,66,0,0,0-7.1,1.34A43,43,0,0,0,395.1,50a14.91,14.91,0,0,0-2.58,1.38,5.88,5.88,0,0,0-1.37,1.38c-.27.44-.26.78.75.76s3-.39,4.22-.52,1.58,0,1.67.18-.14.49-1.29,1.14S393.29,56,392,56.64s-1.84,1-2.09,1.47a1.62,1.62,0,0,0,0,1.43c.19.46.54.84.61,1.09s-.15.38-.46.62a4.07,4.07,0,0,0-1,1c-.23.37-.29.76-.47,1s-.49.38-2,.77a17.61,17.61,0,0,0-6.34,2.79,24.78,24.78,0,0,0-5.48,6.67,18.73,18.73,0,0,0-2.24,4.64c-.24,1,0,1.46.69,1.41a22.5,22.5,0,0,0,2.83-.85,1.64,1.64,0,0,1,1.77.31c.43.42.8,1.13,1.17,1.55a1.68,1.68,0,0,0,1.32.6c.59,0,1.4,0,2,.11a2,2,0,0,1,1.36.84c.34.47.62,1.14.9,1.43s.57.2,1,0a13.78,13.78,0,0,1,1.27-.64,2,2,0,0,1,1.19-.06c.45.09,1,.26,1.51.31s.9,0,1.87-.82,2.53-2.24,3.26-2.81.64-.27.33.43a23,23,0,0,0-1.12,2.73,3.77,3.77,0,0,0-.13,2.09c.14.4.43.45.78.38s.77-.24,1.1-.28a.89.89,0,0,1,.85.36,12.56,12.56,0,0,0,.82,1.07,1,1,0,0,0,1.08.16c.43-.16,1-.55,1.36-.69s.68,0,.92.49a13.35,13.35,0,0,0,.79,1.86.88.88,0,0,0,1.1.23c.36-.12.67-.27,1,.17a7.57,7.57,0,0,1,.83,2.58" transform="translate(-203.21 -21.99)"/><path class="4c5dc12a-efb4-4b0d-affe-6bd50fba2049" d="M413.9,98.33a18.24,18.24,0,0,0,0-2.25,13,13,0,0,0-.83-3.22c-.44-1.2-1-2.54-1.36-3.8a6,6,0,0,1,0-3.5,3.82,3.82,0,0,1,2.45-2.43,8.8,8.8,0,0,1,4.69.08,10.11,10.11,0,0,1,4.07,2,5.66,5.66,0,0,1,1.6,2.65,7.73,7.73,0,0,1,.47,2.55,5.83,5.83,0,0,1-.6,2.46,4.28,4.28,0,0,1-1.6,1.71c-.75.49-1.76,1-2.69,1.52a9.07,9.07,0,0,0-2.33,1.93,19.17,19.17,0,0,0-1.13,1.86,1.77,1.77,0,0,1-1.07.73,3.16,3.16,0,0,1-1,.08" transform="translate(-203.21 -21.99)"/><path class="4c5dc12a-efb4-4b0d-affe-6bd50fba2049" d="M415.07,99.73a94.58,94.58,0,0,0,4.62-8.42" transform="translate(-203.21 -21.99)"/><path class="4c5dc12a-efb4-4b0d-affe-6bd50fba2049" d="M417.28,101.14a3.12,3.12,0,0,0-.21-.37,5.68,5.68,0,0,0-.55-.69" transform="translate(-203.21 -21.99)"/><path class="4c5dc12a-efb4-4b0d-affe-6bd50fba2049" d="M416.75,104.76a4.36,4.36,0,0,0,.25-.49" transform="translate(-203.21 -21.99)"/><path class="4c5dc12a-efb4-4b0d-affe-6bd50fba2049" d="M412.2,103.56a5.09,5.09,0,0,0,1.07,1.47,2.56,2.56,0,0,0,1.28.81" transform="translate(-203.21 -21.99)"/><path class="4c5dc12a-efb4-4b0d-affe-6bd50fba2049" d="M416.23,101.39a15.28,15.28,0,0,0,4.94-2c1.2-.7,2.1-1.3,2.91-1.76a5.28,5.28,0,0,1,2.31-.82,4.55,4.55,0,0,1,2.53.71,10.41,10.41,0,0,1,2.47,2.11,5.51,5.51,0,0,1,1.27,2.38,5.68,5.68,0,0,1,0,2.54,2.19,2.19,0,0,1-1.23,1.45,10.11,10.11,0,0,1-2.53.94,5.81,5.81,0,0,1-2.57,0,21.73,21.73,0,0,1-3-.91,11.58,11.58,0,0,0-2.53-.74,12.59,12.59,0,0,1-5.06-1.67" transform="translate(-203.21 -21.99)"/><path class="4c5dc12a-efb4-4b0d-affe-6bd50fba2049" d="M414.58,105a7.62,7.62,0,0,1-.75,3.31c-.46,1.12-.92,2.08-1.25,3.09a14.18,14.18,0,0,0-.65,3,5.56,5.56,0,0,0,.25,2.56,6.42,6.42,0,0,0,1.45,2.26,3.69,3.69,0,0,0,2,1,9,9,0,0,0,2.56.16,3.83,3.83,0,0,0,1.95-.73,5.93,5.93,0,0,0,1.55-1.65,5.32,5.32,0,0,0,.75-2.46,18.38,18.38,0,0,0-.06-3.57,5.53,5.53,0,0,0-.81-2.45,15.45,15.45,0,0,0-2.18-2.64,11.47,11.47,0,0,0-3.81-2.76" transform="translate(-203.21 -21.99)"/><path class="4c5dc12a-efb4-4b0d-affe-6bd50fba2049" d="M415.34,104.94c.7,1.77.65,4.31.54,9" transform="translate(-203.21 -21.99)"/><path class="4c5dc12a-efb4-4b0d-affe-6bd50fba2049" d="M415.51,104.55a10.4,10.4,0,0,1,1.62,3.92,28.7,28.7,0,0,1,.66,5.3" transform="translate(-203.21 -21.99)"/><path class="4c5dc12a-efb4-4b0d-affe-6bd50fba2049" d="M426.41,102.79c-4.33.15-7.72.43-9.77.37" transform="translate(-203.21 -21.99)"/><path class="4c5dc12a-efb4-4b0d-affe-6bd50fba2049" d="M424.81,100.65c-2.59.43-5.78,1-8.09,1.49" transform="translate(-203.21 -21.99)"/><path class="4c5dc12a-efb4-4b0d-affe-6bd50fba2049" d="M414.52,98.58a10.22,10.22,0,0,0,1.69-3.06c.43-1.28.56-2.63,0-5.67" transform="translate(-203.21 -21.99)"/><path class="4c5dc12a-efb4-4b0d-affe-6bd50fba2049" d="M412.85,98.62a8.43,8.43,0,0,1-4.53-2.87c-.93-1.12-1.56-2.21-2.18-3a5,5,0,0,0-2-1.74,5.23,5.23,0,0,0-2.53-.37,4.52,4.52,0,0,0-2.49,1.06,12.24,12.24,0,0,0-2.66,2.88,3.86,3.86,0,0,0-.55,2.87,8.34,8.34,0,0,0,1.22,3.28,4.82,4.82,0,0,0,2.45,1.86,5,5,0,0,0,2.75.14c.83-.21,1.49-.65,2.5-.89s2.25-.27,5.17.26" transform="translate(-203.21 -21.99)"/><path class="4c5dc12a-efb4-4b0d-affe-6bd50fba2049" d="M412.5,100.33A31.3,31.3,0,0,1,403.14,96" transform="translate(-203.21 -21.99)"/><path class="4c5dc12a-efb4-4b0d-affe-6bd50fba2049" d="M410.14,102.79c-2.57,1.34-4.25,2.12-5.24,2.53a5.05,5.05,0,0,1-1.83.49,8.64,8.64,0,0,0-1.69.3,2.78,2.78,0,0,0-1.28.87,4.55,4.55,0,0,0-1.08,1.95,5.79,5.79,0,0,0,.1,2.88,4.63,4.63,0,0,0,1.6,2.43,7.38,7.38,0,0,0,2.92,1.26,5.22,5.22,0,0,0,2.72,0,5,5,0,0,0,1.91-1.33,5.45,5.45,0,0,0,1.28-1.9,24.74,24.74,0,0,0,.93-3.59,38.42,38.42,0,0,0,.83-5" transform="translate(-203.21 -21.99)"/><path class="4c5dc12a-efb4-4b0d-affe-6bd50fba2049" d="M410.84,103.54a14.81,14.81,0,0,1-2.37,3.82,19.88,19.88,0,0,0-2.61,3.87" transform="translate(-203.21 -21.99)"/><path class="4c5dc12a-efb4-4b0d-affe-6bd50fba2049" d="M410.48,103.28a22.78,22.78,0,0,1-3.53,3.5,5.49,5.49,0,0,0-1.92,2.87" transform="translate(-203.21 -21.99)"/><path class="4c5dc12a-efb4-4b0d-affe-6bd50fba2049" d="M410.13,101.55a39.09,39.09,0,0,0-7.2-2.44" transform="translate(-203.21 -21.99)"/><path class="4c5dc12a-efb4-4b0d-affe-6bd50fba2049" d="M397.19,140.67a7,7,0,0,1,.2,1.66,9.26,9.26,0,0,1-.47,2.65,23.89,23.89,0,0,1-1.44,3.65,22,22,0,0,1-2.47,4,4.28,4.28,0,0,1-2.85,1.72,9.57,9.57,0,0,1-4.05-.27,9.72,9.72,0,0,1-3.22-2,26.38,26.38,0,0,1-4.06-3.76,15.17,15.17,0,0,1-2.78-5.15,8.63,8.63,0,0,1-.1-4.34c.08-.37.17-.73.27-1.09" transform="translate(-203.21 -21.99)"/><path class="4c5dc12a-efb4-4b0d-affe-6bd50fba2049" d="M393.24,132.56a7.5,7.5,0,0,1,.65.73" transform="translate(-203.21 -21.99)"/><path class="4c5dc12a-efb4-4b0d-affe-6bd50fba2049" d="M374.57,152.14c-.35-1-.68-2-1-3a22.69,22.69,0,0,1-1-4,10.34,10.34,0,0,1,.57-4.27l.19-.61" transform="translate(-203.21 -21.99)"/><path class="4c5dc12a-efb4-4b0d-affe-6bd50fba2049" d="M395.93,132.86A10.71,10.71,0,0,1,399,136a14.67,14.67,0,0,1,1.71,4.19,15.67,15.67,0,0,1,.41,3.61c0,.2,0,.4,0,.61" transform="translate(-203.21 -21.99)"/><path class="4c5dc12a-efb4-4b0d-affe-6bd50fba2049" d="M379.22,135.71a10.51,10.51,0,0,0-.34,1.23,13.65,13.65,0,0,0-.27,3.76,11.24,11.24,0,0,0,.68,3.28,4.93,4.93,0,0,0,1.81,2.44,8.43,8.43,0,0,0,3.45,1.21,6.23,6.23,0,0,0,3.43-.33,5.7,5.7,0,0,0,2.38-2.3,9.1,9.1,0,0,0,1.3-3.48,8.12,8.12,0,0,0-.44-3.88,9.43,9.43,0,0,0-2.33-3.6,8.1,8.1,0,0,0-1.48-1.13" transform="translate(-203.21 -21.99)"/><path class="4c5dc12a-efb4-4b0d-affe-6bd50fba2049" d="M406.28,133a17,17,0,0,0-3.45,6.1c-.54,1.58-.88,2.76-1.29,4.11a37.48,37.48,0,0,1-1.47,4.17,9.4,9.4,0,0,1-2.5,3.5,18.65,18.65,0,0,1-4.76,2.89,14,14,0,0,1-5.14,1.15,22.67,22.67,0,0,1-5.8-.62,37.5,37.5,0,0,1-4.88-1.57,5.37,5.37,0,0,0-2.36-.63,4.63,4.63,0,0,0-2.31,1.1,8.79,8.79,0,0,0-2.47,2.94,21,21,0,0,0-1.06-5.94,8.65,8.65,0,0,1-.32-3.42,6.67,6.67,0,0,1,1-2.62,11.2,11.2,0,0,1,2-2.43c.83-.75,1.82-1.41,2.72-2.16s1.72-1.6,2.41-2.22a9.64,9.64,0,0,1,2.47-1.59,38.11,38.11,0,0,1,4.95-2,27.68,27.68,0,0,1,5.91-1.25,24,24,0,0,1,5.12.2c1.62.2,3.21.45,5,.82S403.67,134.44,406.28,133Z" transform="translate(-203.21 -21.99)"/><path class="4c5dc12a-efb4-4b0d-affe-6bd50fba2049" d="M338.59,179.71a6.5,6.5,0,0,1,2.08-1.73,6.34,6.34,0,0,1,2.78-.84,13.53,13.53,0,0,1,3.59.19c1.3.25,2.62.74,3.8.92a8.42,8.42,0,0,0,3.71-.35c1.52-.41,3.53-1.1,5.05-1.36a6,6,0,0,1,3.9.51c1,.47,2.29,1.21,4,3.7" transform="translate(-203.21 -21.99)"/><path class="4c5dc12a-efb4-4b0d-affe-6bd50fba2049" d="M358.24,187.7a21.63,21.63,0,0,1,1.18-3.5c.4-.82.75-1.08,1.25-1.21s1-.13,2.45.7" transform="translate(-203.21 -21.99)"/><path class="4c5dc12a-efb4-4b0d-affe-6bd50fba2049" d="M343.95,186a4.75,4.75,0,0,1,2.82-1.7c1-.17,1.41.11,1.64.58a4.74,4.74,0,0,1,.21,2c0,.61,0,1.31-.08,2.81" transform="translate(-203.21 -21.99)"/><path class="4c5dc12a-efb4-4b0d-affe-6bd50fba2049" d="M353.05,192.45c-1.47.82-2.14,0-2.84-.87s-1.43-1.73-2.27-2.64a14.8,14.8,0,0,0-2.68-2.39,6.52,6.52,0,0,0-2.58-.88,12.39,12.39,0,0,1-2.7-.62,5.48,5.48,0,0,1-2.08-1.47,1.54,1.54,0,0,1-.2-1.65c.22-.7.68-1.67,1.13-2.85s.9-2.57,1.48-4.07a36.18,36.18,0,0,1,2-4.39A8.45,8.45,0,0,1,345,167.5a16.16,16.16,0,0,1,4.4-2,26.46,26.46,0,0,1,2.93-.5,14.44,14.44,0,0,1,2-.55,5.41,5.41,0,0,1,3.07.89,16.19,16.19,0,0,1,4.51,3.92,34.49,34.49,0,0,1,3.77,6.29,18.23,18.23,0,0,1,1.74,4.65,2.28,2.28,0,0,1-.62,2.24,4.21,4.21,0,0,1-1.94.75,6.41,6.41,0,0,0-2.39.82,22.49,22.49,0,0,0-4,3.4C356.78,189.17,354.52,191.63,353.05,192.45Z" transform="translate(-203.21 -21.99)"/><circle class="4c5dc12a-efb4-4b0d-affe-6bd50fba2049" cx="379.33" cy="192.82" r="1" transform="translate(-39.52 537.66) rotate(-86.5)"/><circle class="4c5dc12a-efb4-4b0d-affe-6bd50fba2049" cx="379.9" cy="187.75" r="0.73" transform="translate(-208.28 -11.37) rotate(-1.59)"/><circle class="4c5dc12a-efb4-4b0d-affe-6bd50fba2049" cx="376.4" cy="195.16" r="0.86" transform="translate(-238.73 72.75) rotate(-13.71)"/><circle class="4c5dc12a-efb4-4b0d-affe-6bd50fba2049" cx="370.21" cy="196.75" r="0.79" transform="translate(-245.85 101.81) rotate(-17.97)"/><circle class="4c5dc12a-efb4-4b0d-affe-6bd50fba2049" cx="370.17" cy="191.4" r="0.71" transform="translate(-232.62 287.68) rotate(-43.83)"/><circle class="4c5dc12a-efb4-4b0d-affe-6bd50fba2049" cx="369.35" cy="186.93" r="1.02" transform="translate(-199.58 358.89) rotate(-54.78)"/><circle class="4c5dc12a-efb4-4b0d-affe-6bd50fba2049" cx="365.37" cy="192.94" r="1.41" transform="translate(-250.43 148.87) rotate(-24.78)"/><circle class="4c5dc12a-efb4-4b0d-affe-6bd50fba2049" cx="334.45" cy="205.2" r="0.9" transform="translate(-126.15 479.37) rotate(-80.54)"/><circle class="4c5dc12a-efb4-4b0d-affe-6bd50fba2049" cx="328.59" cy="201.26" r="1.03" transform="translate(-91.28 497.91) rotate(-87.27)"/><circle class="4c5dc12a-efb4-4b0d-affe-6bd50fba2049" cx="314.22" cy="201.36" r="0.79" transform="translate(-215.16 -2) rotate(-3.58)"/><circle class="4c5dc12a-efb4-4b0d-affe-6bd50fba2049" cx="120.51" cy="177.98" r="1.03"/><circle class="4c5dc12a-efb4-4b0d-affe-6bd50fba2049" cx="335.73" cy="202.24" r="0.89" transform="translate(-88.03 504.25) rotate(-86.82)"/><circle class="4c5dc12a-efb4-4b0d-affe-6bd50fba2049" cx="337.4" cy="197.91" r="1.01" transform="translate(-253.57 124.45) rotate(-22.83)"/><circle class="4c5dc12a-efb4-4b0d-affe-6bd50fba2049" cx="125.85" cy="171.19" r="0.96"/><path class="4c5dc12a-efb4-4b0d-affe-6bd50fba2049" d="M248.43,189.8a4.94,4.94,0,0,0-2,.19,3.19,3.19,0,0,0-1.62,1.08,3.72,3.72,0,0,0-.6,2,9.18,9.18,0,0,0,.16,2.8,6.1,6.1,0,0,0,1.27,2.42,10.26,10.26,0,0,0,2.42,2.24A7.43,7.43,0,0,0,251,201.6a3.65,3.65,0,0,0,2.13-.3,2.06,2.06,0,0,0,1.14-1.38,9.42,9.42,0,0,0,.19-2.69,5,5,0,0,0-.9-2.95,20.18,20.18,0,0,0-3.13-3.38A3.46,3.46,0,0,0,248.43,189.8Z" transform="translate(-203.21 -21.99)"/><path class="4c5dc12a-efb4-4b0d-affe-6bd50fba2049" d="M232.85,189.75a2.48,2.48,0,0,0-1.2-1.76,4.83,4.83,0,0,0-2.59-.18,7.63,7.63,0,0,0-3.21,1.24,20.28,20.28,0,0,0-4.24,3.63,10.08,10.08,0,0,0-2.27,4.26,5.14,5.14,0,0,0,.27,3.5,2.7,2.7,0,0,0,2.54,1.29,12.44,12.44,0,0,0,4.4-.83,10.3,10.3,0,0,0,3.63-2.26,10.6,10.6,0,0,0,2.13-3.09,8.45,8.45,0,0,0,.83-3A8.62,8.62,0,0,0,232.85,189.75Z" transform="translate(-203.21 -21.99)"/><path class="4c5dc12a-efb4-4b0d-affe-6bd50fba2049" d="M249.16,172.36a4.42,4.42,0,0,1,2.62.4,12.51,12.51,0,0,1,2.94,1.82,9.15,9.15,0,0,1,2.13,2.4,5.26,5.26,0,0,1,.71,2.58,7,7,0,0,1-.46,2.67,2.85,2.85,0,0,1-1.55,1.72,4.76,4.76,0,0,1-3.07-.06,9.86,9.86,0,0,1-3.72-2,7,7,0,0,1-1.81-3.12,9.43,9.43,0,0,1-.63-3.23,3,3,0,0,1,1-2A3.81,3.81,0,0,1,249.16,172.36Z" transform="translate(-203.21 -21.99)"/><path class="4c5dc12a-efb4-4b0d-affe-6bd50fba2049" d="M235.07,171.57a3.41,3.41,0,0,0-3.18-1.51,9.59,9.59,0,0,0-4.59,2.32,10.61,10.61,0,0,0-2.84,3.85,5.62,5.62,0,0,0-.58,3.78,2.78,2.78,0,0,0,2.45,1.59,8.43,8.43,0,0,0,3.33-.53,9.36,9.36,0,0,0,3.65-1.85,8.55,8.55,0,0,0,2.56-4.06A4.21,4.21,0,0,0,235.07,171.57Z" transform="translate(-203.21 -21.99)"/><path class="4c5dc12a-efb4-4b0d-affe-6bd50fba2049" d="M392.62,133.59c-.14.39.52,1.08.91,1.71a4.72,4.72,0,0,1,.61,2c.11.83.21,1.92.33,2.55s.27.82.72.91a4,4,0,0,0,1.8-.07,2.2,2.2,0,0,0,1.26-1,2,2,0,0,0,.15-1.64,8,8,0,0,0-1.34-2.57,6.27,6.27,0,0,0-2.45-2.05C393.72,133.12,392.77,133.2,392.62,133.59Z" transform="translate(-203.21 -21.99)"/><path class="4c5dc12a-efb4-4b0d-affe-6bd50fba2049" d="M382.4,135.37a1.86,1.86,0,0,1,1.68.1c.45.3.54.88.58,1.62a7.74,7.74,0,0,1-.18,2.34,2.52,2.52,0,0,1-1,1.46,1.62,1.62,0,0,1-1.4.09,4.34,4.34,0,0,1-1.72-.84c-.35-.36-.27-.75,0-1.35s.88-1.39,1.19-2S382,135.6,382.4,135.37Z" transform="translate(-203.21 -21.99)"/><path class="4c5dc12a-efb4-4b0d-affe-6bd50fba2049" d="M416.47,101.6a1.56,1.56,0,0,0-1-.5,1.74,1.74,0,0,0-1.28.52,3.36,3.36,0,0,0-.77,1.35,1.27,1.27,0,0,0,.06,1.12,2.57,2.57,0,0,0,1,.85c.37.18.68.21.88,0a1.1,1.1,0,0,0,.25-.79c0-.25-.09-.37.08-.45a2.54,2.54,0,0,0,.84-.34,1.31,1.31,0,0,0,.27-1A1.21,1.21,0,0,0,416.47,101.6Z" transform="translate(-203.21 -21.99)"/><circle class="4c5dc12a-efb4-4b0d-affe-6bd50fba2049" cx="411.54" cy="102.17" r="1.54" transform="translate(39.9 469.32) rotate(-80.54)"/><circle class="4c5dc12a-efb4-4b0d-affe-6bd50fba2049" cx="413.71" cy="99.68" r="1.37" transform="translate(-182.51 240.89) rotate(-36.1)"/><path class="4c5dc12a-efb4-4b0d-affe-6bd50fba2049" d="M394.59,107.72a1.91,1.91,0,0,0-1.57-.5,6.85,6.85,0,0,0-2.75.67,13.5,13.5,0,0,0-2.38,1.76,14.26,14.26,0,0,1-1.68,1.17,10,10,0,0,1-1,.54,1.45,1.45,0,0,0-.56.32,2.68,2.68,0,0,0-.36.9,5.56,5.56,0,0,1-.76,1.73A23.36,23.36,0,0,1,382,116a2.46,2.46,0,0,0-.75,1.52,1.21,1.21,0,0,0,.64,1,1.45,1.45,0,0,0,1.43-.19,9.54,9.54,0,0,0,2.19-1.77c.7-.76,1.26-1.6,1.94-2.27a8.56,8.56,0,0,1,2.47-1.65c1-.47,2.19-.91,3-1.26a5.42,5.42,0,0,0,1.63-1,1.86,1.86,0,0,0,.7-1.27A2.23,2.23,0,0,0,394.59,107.72Z" transform="translate(-203.21 -21.99)"/><path class="4c5dc12a-efb4-4b0d-affe-6bd50fba2049" d="M373.18,105.93a2.3,2.3,0,0,0-.93-1.42,1.37,1.37,0,0,0-1.16-.13,1.53,1.53,0,0,0-.86.78,4.87,4.87,0,0,0-.54,1.76,7,7,0,0,0,.15,2.31c.18.83.49,1.71.64,2.55a6.66,6.66,0,0,1-.09,2.62,25.1,25.1,0,0,1-1.07,3.38c-.47,1.24-1,2.58-1.46,3.76a12.63,12.63,0,0,0-.9,3.14,4.64,4.64,0,0,0,.5,2.52,7.79,7.79,0,0,0,1.74,2.37,5.93,5.93,0,0,0,2.65,1.45,4,4,0,0,0,2.46-.25,1.39,1.39,0,0,0,.87-1.17,1.92,1.92,0,0,0-.48-1.26c-.3-.37-.68-.64-1.07-1a3.6,3.6,0,0,1-1-1.87,15.09,15.09,0,0,1-.14-3.78c.09-1.46.29-3,.46-5.22s.3-5.08.36-7A13.42,13.42,0,0,0,373.18,105.93Z" transform="translate(-203.21 -21.99)"/><path class="4c5dc12a-efb4-4b0d-affe-6bd50fba2049" d="M363.8,123.34a3.5,3.5,0,0,0-1.47-.85,1.67,1.67,0,0,0-1.26.32,1.38,1.38,0,0,0-.59,1.14,28.42,28.42,0,0,0-.05,2.87,20.12,20.12,0,0,1-.19,3.33,7.68,7.68,0,0,1-.86,2.41c-.36.67-.76,1.25-1,1.82a4.54,4.54,0,0,0-.41,2,10.09,10.09,0,0,0,.34,2.74c.23.7.56.92.84.94s.52-.18.79-.64a13.57,13.57,0,0,0,1-2.49c.4-1.28.9-3.09,1.39-4.37a8.56,8.56,0,0,1,1.38-2.54,8.38,8.38,0,0,0,1.15-1.4,4.82,4.82,0,0,0,.48-2.11,4.25,4.25,0,0,0-.44-1.89A4,4,0,0,0,363.8,123.34Z" transform="translate(-203.21 -21.99)"/><path class="4c5dc12a-efb4-4b0d-affe-6bd50fba2049" d="M363.16,108.37c-.16-.81-.61-1.08-1.12-1a3.1,3.1,0,0,0-1.61.79,4,4,0,0,0-1.3,1.62,6.94,6.94,0,0,0-.2,2.16,11,11,0,0,1-.29,2.35,6.9,6.9,0,0,0-.43,1.75,2.56,2.56,0,0,0,.57,1.49c.27.29.52.25,1-.27a15.83,15.83,0,0,0,1.83-2.48,10.49,10.49,0,0,0,1.29-3.06A8.84,8.84,0,0,0,363.16,108.37Z" transform="translate(-203.21 -21.99)"/><path class="4c5dc12a-efb4-4b0d-affe-6bd50fba2049" d="M358.33,79.73c-.37-.25-.67-.16-1.12.12a3.6,3.6,0,0,0-1.34,1.37,3.87,3.87,0,0,0,0,2.27,18.67,18.67,0,0,0,.8,3.14,4.52,4.52,0,0,0,1.53,2,26.2,26.2,0,0,1,2.51,2.12,2.63,2.63,0,0,1,.77,1.95,7,7,0,0,1-.59,2.14c-.36,1-.89,2.36-1.22,3.52a4.49,4.49,0,0,0-.19,2.75,1.59,1.59,0,0,0,1.71,1,3.63,3.63,0,0,0,2.34-1.81,12,12,0,0,0,1.59-4.72,26.39,26.39,0,0,0,.15-5.83,3.43,3.43,0,0,0-1.36-2.63c-.9-.89-2.39-2.32-3.22-3.2s-1-1.2-1.08-1.56a5,5,0,0,0-.24-1.26A3.49,3.49,0,0,0,358.33,79.73Z" transform="translate(-203.21 -21.99)"/><path class="4c5dc12a-efb4-4b0d-affe-6bd50fba2049" d="M352.06,85.89a1.42,1.42,0,0,0-1.34-.64,6,6,0,0,0-1.4.06c-.31.08-.33.24-.28.56a14.74,14.74,0,0,1,.18,1.56,8.64,8.64,0,0,1-.31,2.81c-.31,1.08-.9,2.26-1.18,3.08s-.25,1.28.13,1.71a21.34,21.34,0,0,0,1.9,1.47c.81.65,1.72,1.57,2.3,2s.86.3,1.2-.19a6.87,6.87,0,0,0,.93-2.32,8.47,8.47,0,0,0,0-3.15,37.25,37.25,0,0,0-1-4A12.32,12.32,0,0,0,352.06,85.89Z" transform="translate(-203.21 -21.99)"/><path class="4c5dc12a-efb4-4b0d-affe-6bd50fba2049" d="M351.25,107.76c-.61-1.61-1.2-1.65-1.64-1.58s-.74.26-.77.93.2,1.84.26,3.4a42.39,42.39,0,0,1-.25,5.33,23.91,23.91,0,0,1-.89,4.92c-.48,1.48-1.19,2.82-1.55,4.12a10.88,10.88,0,0,0-.31,3.46,6.12,6.12,0,0,0,.69,2.6,31.42,31.42,0,0,1,2,5,19.47,19.47,0,0,1,.41,5,9.56,9.56,0,0,0,.25,2.89.92.92,0,0,0,1.35.66,5.28,5.28,0,0,0,2.37-2.18,5.56,5.56,0,0,0,.47-3.39,16.09,16.09,0,0,0-.89-3.54,24.94,24.94,0,0,1-1.17-3.46,13.82,13.82,0,0,1-.06-4.66c.25-2,.78-4.43,1.09-6.44a20.15,20.15,0,0,0,.13-5.92A36.7,36.7,0,0,0,351.25,107.76Z" transform="translate(-203.21 -21.99)"/><path class="4c5dc12a-efb4-4b0d-affe-6bd50fba2049" d="M341.87,104.28c-.42-.24-.93-.24-1,.16a13.07,13.07,0,0,0,.6,2.07,11.59,11.59,0,0,1,.2,3,20.72,20.72,0,0,1-.41,4.07,17.88,17.88,0,0,1-1.62,4.24,33.67,33.67,0,0,1-2.19,3.66,7.25,7.25,0,0,0-1.08,1.63,2.31,2.31,0,0,0,.22,1.66,12.85,12.85,0,0,0,1.27,1.77,4.35,4.35,0,0,1,.86,1.67,7.87,7.87,0,0,1,.08,1.83c0,.56,0,1,.25,1.24a1.35,1.35,0,0,0,1.13.17,1.63,1.63,0,0,0,.95-.55c.22-.27.34-.62.36-2s-.06-3.67,0-5a6.51,6.51,0,0,1,.37-2.48c.24-.75.62-1.86.84-2.57a9,9,0,0,0,.31-3c0-2,.07-5.63.07-7.65s-.05-2.41-.24-2.84A2.52,2.52,0,0,0,341.87,104.28Z" transform="translate(-203.21 -21.99)"/><path class="4c5dc12a-efb4-4b0d-affe-6bd50fba2049" d="M343.75,82.93c-.19,0-.35.32-.77.71s-1.08.84-1.68,1.41a5.61,5.61,0,0,0-1.46,2.2,22.25,22.25,0,0,0-.65,3.2c-.21,1.14-.51,2.29-.74,3.37a7.22,7.22,0,0,0-.24,2.83,2,2,0,0,0,1.19,1.44,1.21,1.21,0,0,0,1.35-.24,2.14,2.14,0,0,0,.2-1.56A5.23,5.23,0,0,1,341,94a8.88,8.88,0,0,1,1.69-2.73,27.92,27.92,0,0,0,1.91-2.31,3.53,3.53,0,0,0,.57-2,8.12,8.12,0,0,0-.29-2,5,5,0,0,0-.5-1.19C344.16,83.34,343.94,83,343.75,82.93Z" transform="translate(-203.21 -21.99)"/><path class="4c5dc12a-efb4-4b0d-affe-6bd50fba2049" d="M327.66,122.64a18.54,18.54,0,0,0,1.61,4,16.22,16.22,0,0,1,1.08,2.82,2.34,2.34,0,0,1,0,1.56c-.2.46-.61.93-.81,1.5a3.22,3.22,0,0,0,0,2,3.38,3.38,0,0,0,1.18,1.86,1.62,1.62,0,0,0,1.64-.12,2,2,0,0,0,.92-1.63,15.17,15.17,0,0,0,0-3.9,12.18,12.18,0,0,0-1.23-4.09,13.4,13.4,0,0,0-2.61-3.61C328.51,122.19,327.63,121.86,327.66,122.64Z" transform="translate(-203.21 -21.99)"/><path class="4c5dc12a-efb4-4b0d-affe-6bd50fba2049" d="M323.4,103.51a2.6,2.6,0,0,0-2,1,2.78,2.78,0,0,0-.62,1.8,2.25,2.25,0,0,0,.72,1.67c.53.52,1.4,1,2.14,1.73a8,8,0,0,1,1.71,2.67,20.69,20.69,0,0,1,.7,2.69,8.42,8.42,0,0,0,1,2.56,2.14,2.14,0,0,0,1.64,1.14,1.55,1.55,0,0,0,1.25-1.23,3.94,3.94,0,0,0-.21-2.44,15.2,15.2,0,0,0-1.42-2.62,8.8,8.8,0,0,1-1.14-2.22,28.17,28.17,0,0,1-.52-2.8,6.18,6.18,0,0,0-1-2.69A3.19,3.19,0,0,0,323.4,103.51Z" transform="translate(-203.21 -21.99)"/><path class="4c5dc12a-efb4-4b0d-affe-6bd50fba2049" d="M303.44,119.23a3.26,3.26,0,0,0-2.5-.07,2.47,2.47,0,0,0-1.26,1.67,1.73,1.73,0,0,0,.38,1.51,11.43,11.43,0,0,0,1.3,1.17,4.88,4.88,0,0,1,1.23,1.53,9.51,9.51,0,0,0,.56,1.52,1.09,1.09,0,0,0,1.27.2,2.9,2.9,0,0,0,1.32-1.15,3.32,3.32,0,0,0,.47-1.93,5.86,5.86,0,0,0-.68-2.68A4.13,4.13,0,0,0,303.44,119.23Z" transform="translate(-203.21 -21.99)"/><path class="4c5dc12a-efb4-4b0d-affe-6bd50fba2049" d="M314.88,105.48a2.32,2.32,0,0,0-2.2,1.7c-.23,1.08.35,2.64.6,4.09a13.85,13.85,0,0,1-.1,4.47,19.9,19.9,0,0,0-.34,5.73,13,13,0,0,0,2.4,5.47,12.12,12.12,0,0,0,3.29,3.3c.9.51,1.43.3,1.6-.45a5.63,5.63,0,0,0-.74-3.45c-.72-1.39-2-2.87-2.5-4.84a15.94,15.94,0,0,1,0-6.44c.35-2,.86-3.47,1-4.82a5.75,5.75,0,0,0-.75-3.42A2.48,2.48,0,0,0,314.88,105.48Z" transform="translate(-203.21 -21.99)"/><path class="4c5dc12a-efb4-4b0d-affe-6bd50fba2049" d="M372.37,198.45c11.46-4.77,23.56-6.83,32.28-8.2a173.18,173.18,0,0,1,20.25-2.3,93.14,93.14,0,0,1,22,1.46" transform="translate(-203.21 -21.99)"/><path class="4c5dc12a-efb4-4b0d-affe-6bd50fba2049" d="M372,195.57c11.28-7.74,23.47-11.3,34.69-14.25a244.44,244.44,0,0,1,31.83-6.55,142.61,142.61,0,0,1,30.35-.67" transform="translate(-203.21 -21.99)"/><path class="4c5dc12a-efb4-4b0d-affe-6bd50fba2049" d="M370.39,193.27c11.4-10.13,32.14-19.33,45.74-24s20-4.73,35.73-4.56" transform="translate(-203.21 -21.99)"/><path class="4c5dc12a-efb4-4b0d-affe-6bd50fba2049" d="M370.11,188.36c9.39-12.21,18.49-18.27,28.43-22.77a96.36,96.36,0,0,1,33.16-8.33" transform="translate(-203.21 -21.99)"/><path class="4c5dc12a-efb4-4b0d-affe-6bd50fba2049" d="M326.49,201.15q-48.27,12.36-74.32,28.37" transform="translate(-203.21 -21.99)"/><path class="4c5dc12a-efb4-4b0d-affe-6bd50fba2049" d="M329,204.49c-2.72,2-12.83,5.83-26.12,13s-29.77,17.7-43.07,33.33" transform="translate(-203.21 -21.99)"/><path class="4c5dc12a-efb4-4b0d-affe-6bd50fba2049" d="M320.13,142.57a9.32,9.32,0,0,1-2.29,5.6,13.71,13.71,0,0,1-2.86,2.35,18.51,18.51,0,0,0-2.38,1.77c-.37.38-.32.59,1.77,1" transform="translate(-203.21 -21.99)"/></svg>