<svg id="e810fb1f-8e17-40fa-94af-427dac48d14b" data-name="图层 1" xmlns="http://www.w3.org/2000/svg" xmlns:xlink="http://www.w3.org/1999/xlink" viewBox="0 0 411.05 157.32"><defs><style>.\33 f5301eb-ddc4-4148-8287-d909596b0552,.\39 8687557-78d2-4b3f-a9fb-a5a24d939546,.\39 b08d4e1-8880-44b9-a683-99efc7aa2f35,.e7f41fb5-8c8a-410b-a9b7-46669dfef5da,.eacaadcb-06f3-4206-8a5c-685d9ec24d85,.ebb5dce2-3eaa-46c2-8343-39ad1ac40510{fill:none;}.\35 be9a2b4-3890-4f60-9a34-604d742bfd6a{clip-path:url(#30307755-2c2b-46b8-8777-16c8e4bec1cf);}.\33 f5301eb-ddc4-4148-8287-d909596b0552,.\39 8687557-78d2-4b3f-a9fb-a5a24d939546,.\39 b08d4e1-8880-44b9-a683-99efc7aa2f35,.eacaadcb-06f3-4206-8a5c-685d9ec24d85,.ebb5dce2-3eaa-46c2-8343-39ad1ac40510{stroke:#231815;stroke-linecap:round;stroke-linejoin:round;}.eacaadcb-06f3-4206-8a5c-685d9ec24d85{stroke-width:0.5px;}.\36 9138144-d249-41c4-a21a-174939459f4f{fill:#231815;}.\39 8687557-78d2-4b3f-a9fb-a5a24d939546{stroke-width:2px;}.ebb5dce2-3eaa-46c2-8343-39ad1ac40510{stroke-width:3px;}.\33 f5301eb-ddc4-4148-8287-d909596b0552{stroke-width:0.51px;}</style><clipPath id="30307755-2c2b-46b8-8777-16c8e4bec1cf" transform="translate(-215.57 -72.36)"><rect class="e7f41fb5-8c8a-410b-a9b7-46669dfef5da" width="850.39" height="336.56"/></clipPath></defs><title>svg猫被子</title><g class="5be9a2b4-3890-4f60-9a34-604d742bfd6a"><path class="eacaadcb-06f3-4206-8a5c-685d9ec24d85" d="M613.89,192.91c-6.54,1.78-20.8.59-45.15-1.19s-18.42-14.85-39.21-13.38-29.11-5.63-37.43-7.41-22-20.2-46.34-13.66-39.21.59-49.31-4.16S365,144.2,357.82,143.6s-36.84,8.91-71.3,38.62-70.7,30.9-70.7,30.9,54.07,5.35,64.76-3.57,61.2-11.88,72.49,0c8.79,9.25,20.46,8.78,25.2,8.12a15.27,15.27,0,0,1,4.58.39c3.79.62,7.4-.94,21.05,10.62,2,1.67,6.28.16,10.47-.67a13.54,13.54,0,0,1,5.2-.05c4.32.84,13.56,1.5,18.46-6.52,5.1-8.35,21.06-7.28,27.82-6.41a16.94,16.94,0,0,0,6.53-.43c7.69-2,25.71-7.13,28-10.39,3-4.16,45.75-5.94,53.47-2.38S613.89,192.91,613.89,192.91Z" transform="translate(-215.57 -72.36)"/><path class="eacaadcb-06f3-4206-8a5c-685d9ec24d85" d="M235.43,181s55.26-22.58,63-29.11,50.5-27.33,74.86-18.42,30.3,22,79.61,12.48c15-2.09,40.41,12.55,46.69,16.34a9.54,9.54,0,0,0,3.19,1.22c6.69,1.26,30.23,4.89,32.23,5,4.23.26,12.57,5.79,15.17,7.69a5.18,5.18,0,0,0,2,.89c8.22,1.76,55.81,11.48,74.24,3.89" transform="translate(-215.57 -72.36)"/><path class="eacaadcb-06f3-4206-8a5c-685d9ec24d85" d="M261,146.57s87.54-32.94,112.56-18.4a17.21,17.21,0,0,0,1.91,1c15.31,6.51,34.86,10.27,37.18,9.69S452.88,146,452.88,146" transform="translate(-215.57 -72.36)"/><path class="eacaadcb-06f3-4206-8a5c-685d9ec24d85" d="M383.18,148.57s-1,7.51.57,10.06,4.34,7.16,4.34,9.64,2.42,3.88,2.3,4.65-1.27,3.19,0,3.57,6.25-3.57,5.74-8.81.89-6.64,2.3-6.13,0-7.54,0-7.54" transform="translate(-215.57 -72.36)"/><path class="eacaadcb-06f3-4206-8a5c-685d9ec24d85" d="M402.45,155.74s-1.72,5.11,1.34,6.81-.38,2.85.76,4.89,4.72-.38,4.34-3.57,3.19,1.4,3.19,2.42-1.91,5.23,0,7.53,2.47,6.89,2.77,8.3,4.25,3.7,5.4,0,1.53-12.25,3.45-12.19,1.49-9.77,1.49-9.77" transform="translate(-215.57 -72.36)"/><path class="eacaadcb-06f3-4206-8a5c-685d9ec24d85" d="M431.89,159.83s.91,6.59,0,7.35-5.89,5.74-3.33,7.15,7.66,1,7.66-2.3,1.4-7.6,4.21-4.57c2,2.15,3-2.16,3.35-4.86a2.61,2.61,0,0,1,2.62-2.28c1.47,0,3,.73,2.33,3.54-1.15,5.11-1.62,8.17.15,8.55s3.55-7.78,5.21-7.91,4.21-8.07,2.55-8.63" transform="translate(-215.57 -72.36)"/><path class="eacaadcb-06f3-4206-8a5c-685d9ec24d85" d="M310.88,163.78s-6.48,26.88,3,38.07" transform="translate(-215.57 -72.36)"/><path class="eacaadcb-06f3-4206-8a5c-685d9ec24d85" d="M518.35,178.3s2,15.7-3.72,22.57" transform="translate(-215.57 -72.36)"/><path class="eacaadcb-06f3-4206-8a5c-685d9ec24d85" d="M308.6,184.12s2.2-1.7,4-.23,2.63,1.33,2.63,2.61,2.41,5.45,6.8,1.5,12.29-3.71,14.92-1.52c2.63,1.08,8.34,4.16,1.54,5.47s-7.46,2.41-4.61,3.95,3.48,2.83.21,6.68" transform="translate(-215.57 -72.36)"/><path class="eacaadcb-06f3-4206-8a5c-685d9ec24d85" d="M513.62,177.69s-8.45,4.24-11.08,8.81-13.82-.92-15.14,2.16-2.19,4.83,2.63,4.83,11.65-5,11.63,2.41c-1.16,2.63-7,3.82-1.16,5,3,1.83-.09,3.33-.09,3.33" transform="translate(-215.57 -72.36)"/><path class="eacaadcb-06f3-4206-8a5c-685d9ec24d85" d="M299,172.17s-2.17,19.12,0,21.75-4.2,5.92-6-2.41-7.21,2-2.85,2.85,1.32,11.6-2.41,8.21-4.39-9.09-7-1.63c-1.54,2.29-4.39,2.83-7.46,1.63s-1.75,3.19-3.95,3-8.38-4.39-8.36,4.83c-.65,4-1.52,4-1.52,4" transform="translate(-215.57 -72.36)"/><path class="eacaadcb-06f3-4206-8a5c-685d9ec24d85" d="M252.62,203.54a11.49,11.49,0,0,1,2.67,11.05" transform="translate(-215.57 -72.36)"/><path class="eacaadcb-06f3-4206-8a5c-685d9ec24d85" d="M524.25,178.54s2.42,0,1.76,4,3.31,4.25,4.17,0,7.24,1.39,2.41,4c-2.19,4.75-3.29,10.27-1.32,10.49s4.61,2.63,5-2.63,3.29-6.48,4.83-4.78a4.11,4.11,0,0,1,0,5.87c-1.75,1.54,1.24,4.64,1.24,4.64" transform="translate(-215.57 -72.36)"/><path class="eacaadcb-06f3-4206-8a5c-685d9ec24d85" d="M547.29,200.09s-.22-8.15,4.61-7.93c1.1,0,.44,3.54,2.63,4s3.51-2.87,4.61-2,0,4.83,2,4.61,4.83-2.19,6.58-1.1,4.61-.22,3.95-2.41,2-3.16,2-3.16" transform="translate(-215.57 -72.36)"/><path class="eacaadcb-06f3-4206-8a5c-685d9ec24d85" d="M429.48,126.57c-3.73-8.34,7.68-28.08,9.43-34.66s-3.73-9.43-6.36-11-9.43-.88-12.29-1.1-5-4.61-11.63-5.26-4.39,3.29-11,1.1c-16.54-5.51-12.28-2.63-16.45,1.1s1.67,16.89,1.67,16.89,3.72,15.75,5.79,17.55,10.83,18.16,10.38,17.11l.34.61.83-.73" transform="translate(-215.57 -72.36)"/><path class="eacaadcb-06f3-4206-8a5c-685d9ec24d85" d="M439.26,133.15s14.36-6.36,22.7-4.83,8.12-6.14,6.8-8.34,2.47-1.53.69-9.65.85-8.12,5.89-8.78,4.61-7.24,3.07-7.24a11.19,11.19,0,0,0-3.95,1.32s-10.47,5.92-15.11,2.41-14.51-6.8-18.68-1.53-5.16,3.95-5.16,3.95" transform="translate(-215.57 -72.36)"/><path class="eacaadcb-06f3-4206-8a5c-685d9ec24d85" d="M380.61,87.07s-7.46,12.74,2.28,19.32c.81.93,4.56,3.23,6.62,5.81" transform="translate(-215.57 -72.36)"/><path class="eacaadcb-06f3-4206-8a5c-685d9ec24d85" d="M399.06,131.32s-.29-4.52,4.76-4.08,7.83,2.07,10.49,1.1,14.07-3.8,17.53-1.13,6.77,7.86,14.21,8.32,15.93,5,15.93,5,1.2,1.19-.8,1.59-16.24-3.85-18.67-4-3-2.12-6-1.59-4.51-1.46-10.62-1.86-12.88-1.5-12.88-1.5-3.19-1.5-4.51,0S401.29,136.91,399.06,131.32Z" transform="translate(-215.57 -72.36)"/><path class="eacaadcb-06f3-4206-8a5c-685d9ec24d85" d="M399.4,128.94s-6-6.28-8.42-6.21-6.52-1.41-8.4,0l-7.78,3.42" transform="translate(-215.57 -72.36)"/><path class="eacaadcb-06f3-4206-8a5c-685d9ec24d85" d="M399.06,130.18s-7.38-4.43-10.44-4.65a19,19,0,0,1-5.18-1.06l-11-2.35" transform="translate(-215.57 -72.36)"/><path class="eacaadcb-06f3-4206-8a5c-685d9ec24d85" d="M409.49,132.57s-3.69,4.11-3.85,4.51l0,.15-.19.41-.16.26" transform="translate(-215.57 -72.36)"/><polyline class="eacaadcb-06f3-4206-8a5c-685d9ec24d85" points="196.19 60.8 192.61 65.28 192.13 67.5"/><polyline class="eacaadcb-06f3-4206-8a5c-685d9ec24d85" points="215.33 63.5 216.3 68.22 215.81 70.53"/><polyline class="eacaadcb-06f3-4206-8a5c-685d9ec24d85" points="217.65 63.86 218.21 67.51 217.65 69.41"/><polyline class="eacaadcb-06f3-4206-8a5c-685d9ec24d85" points="199.28 61.08 196.19 64.88 195.79 66.55"/><polyline class="eacaadcb-06f3-4206-8a5c-685d9ec24d85" points="220.21 64.23 222.37 67.96 221.29 69.76"/><path class="eacaadcb-06f3-4206-8a5c-685d9ec24d85" d="M379.75,82.08s2.46-5.55,10.26-1.14,10.87,1,15.16,1.58,6.78-1.7,10.17,2.26,9.16,4.41,9.16,4.41,4.73-2.6,6.89,1.81a15.6,15.6,0,0,0,5.48,6.33" transform="translate(-215.57 -72.36)"/><path class="69138144-d249-41c4-a21a-174939459f4f" d="M373.34,122.25a1.18,1.18,0,1,1-1.18-1.18,1.18,1.18,0,0,1,1.18,1.18" transform="translate(-215.57 -72.36)"/><path class="69138144-d249-41c4-a21a-174939459f4f" d="M376,126.08a1.18,1.18,0,1,1-1.18-1.18,1.18,1.18,0,0,1,1.18,1.18" transform="translate(-215.57 -72.36)"/><path class="eacaadcb-06f3-4206-8a5c-685d9ec24d85" d="M431.87,109.3c-4.78-8.19-7.8-5.21-14.33-5.79s-8-8.74-11.53-6.87-3.73.69-8.85-2.87c-9.43-7.42-13.2,4.17-13.2,4.17" transform="translate(-215.57 -72.36)"/><path class="eacaadcb-06f3-4206-8a5c-685d9ec24d85" d="M434,103.89a5,5,0,0,0,7.61-1.55c3.26-5,8.27-3.73,8.27-1.57s1,3.78,3.61,2.62,3.73,1,4.66,1,2.56-3.32,4.89-2.48,16.67-4.17,16.25-6.32" transform="translate(-215.57 -72.36)"/><path class="eacaadcb-06f3-4206-8a5c-685d9ec24d85" d="M381.22,76.77s4.25-2.51,8.29,0,10,3.68,12.08,3,8.15-3,12.93.2,6.17,5.39,8.74,5,6.41-.93,8,.93,7.11,5.47,6.82,8.38" transform="translate(-215.57 -72.36)"/><path class="eacaadcb-06f3-4206-8a5c-685d9ec24d85" d="M408.93,82.48s-1.41,13.3,0,14.81" transform="translate(-215.57 -72.36)"/><path class="eacaadcb-06f3-4206-8a5c-685d9ec24d85" d="M416.36,85.81s-2.54,14.58-2.6,16.31" transform="translate(-215.57 -72.36)"/><path class="eacaadcb-06f3-4206-8a5c-685d9ec24d85" d="M424.5,89.19s-5.55,6.63-5.09,13.85c0,0,2.85,2.33,2.53,4.89s.54,16.37,2.56,18.14" transform="translate(-215.57 -72.36)"/><path class="eacaadcb-06f3-4206-8a5c-685d9ec24d85" d="M430.67,89.89s-5,9.8-4.86,13.76" transform="translate(-215.57 -72.36)"/><path class="eacaadcb-06f3-4206-8a5c-685d9ec24d85" d="M425.93,126.08c-.86-8.65,1.45-21.85,1.45-21.85" transform="translate(-215.57 -72.36)"/><path class="eacaadcb-06f3-4206-8a5c-685d9ec24d85" d="M416.36,103.31s-1.15.2.6,2.88,0,17.49,3.6,20.56" transform="translate(-215.57 -72.36)"/><path class="eacaadcb-06f3-4206-8a5c-685d9ec24d85" d="M396.57,93.76s1.53,6-.69,5.87c-7.26-.29-7.14-19.35-7.14-19.35" transform="translate(-215.57 -72.36)"/><path class="eacaadcb-06f3-4206-8a5c-685d9ec24d85" d="M402.17,83.11s-1.86,9.81,0,13.35c.7,1.57-1.51,2.5-1.51,2.5-5.82-.23-4.77-15.86-4.77-15.86" transform="translate(-215.57 -72.36)"/><line class="eacaadcb-06f3-4206-8a5c-685d9ec24d85" x1="180.89" y1="27.12" x2="183.82" y2="31.88"/><path class="eacaadcb-06f3-4206-8a5c-685d9ec24d85" d="M400.66,99s1.67,3.38,1.65,4.08" transform="translate(-215.57 -72.36)"/><path class="eacaadcb-06f3-4206-8a5c-685d9ec24d85" d="M405.24,97s.31,3.34,1.12,4l.46.53" transform="translate(-215.57 -72.36)"/><path class="eacaadcb-06f3-4206-8a5c-685d9ec24d85" d="M388,92.31s3.41,6.13,2.27,8.69-4.75-3.79-5.92-4" transform="translate(-215.57 -72.36)"/><path class="eacaadcb-06f3-4206-8a5c-685d9ec24d85" d="M386.92,107.75s11.61,4.79,12.48,6.49,9.49,11.75,9.53,13.38" transform="translate(-215.57 -72.36)"/><path class="eacaadcb-06f3-4206-8a5c-685d9ec24d85" d="M393.22,118.09s3.45-.79,4.71,0,7.87,9.17,7.87,9.17" transform="translate(-215.57 -72.36)"/><line class="eacaadcb-06f3-4206-8a5c-685d9ec24d85" x1="174.67" y1="28.65" x2="181.51" y2="33.99"/><path class="eacaadcb-06f3-4206-8a5c-685d9ec24d85" d="M397.08,107.64s-1-3.68,9.28-5.78c1.66,0,2.61-1.45,3.81,1.83s-1.19.27-4.37,4.48-1.26,4.33-4.32,4C400.66,111.67,397.08,108.92,397.08,107.64Z" transform="translate(-215.57 -72.36)"/><path class="eacaadcb-06f3-4206-8a5c-685d9ec24d85" d="M403.77,115.16s.18-2.71,4.53-4.34c2.19-1.12,2-2.42,3.46-1.51s1.56.05,2,.48,2.56,2,0,3.68-4.82,6.36-5.15,6.36S407.83,121,403.77,115.16Z" transform="translate(-215.57 -72.36)"/><line class="eacaadcb-06f3-4206-8a5c-685d9ec24d85" x1="193.91" y1="33.24" x2="195.46" y2="36.64"/><line class="eacaadcb-06f3-4206-8a5c-685d9ec24d85" x1="188.2" y1="39.16" x2="189.2" y2="40.75"/><path class="eacaadcb-06f3-4206-8a5c-685d9ec24d85" d="M408.93,119.47a7.31,7.31,0,0,1,2.43,4.64c.53,3.26,1.75,4.49,1.75,4.49" transform="translate(-215.57 -72.36)"/><path class="eacaadcb-06f3-4206-8a5c-685d9ec24d85" d="M412.56,114.46s1.64,1.6,3,6.61,2.4,5.68,2.4,5.68" transform="translate(-215.57 -72.36)"/><path class="eacaadcb-06f3-4206-8a5c-685d9ec24d85" d="M379.94,83.89s6.74,1,7.16-.78,1.38-3,.61-3.25" transform="translate(-215.57 -72.36)"/><path class="eacaadcb-06f3-4206-8a5c-685d9ec24d85" d="M388.85,83.42s3.39,3.64,5.6,2.39,1.36-1.07,1.36-1.07.28,2.71,2.36,2,3.53-.69,3.7-1.79a3.71,3.71,0,0,0,3.94,1.41c2.82-.48,2.81-1.41,2.81-1.41s1.71,2.63,3.94,2.93,3.38.26,3.43,0,.21,3.08,2,3.37,4,.22,4.74-.25c0,0-.73,2.78,1.77,2.73s4.58-.62,4.71-.89-1.17,5.26,3.12,6.41,3.83-.31,3.83-.31" transform="translate(-215.57 -72.36)"/><path class="eacaadcb-06f3-4206-8a5c-685d9ec24d85" d="M441.15,103s2.33,0,4.89,3.32,2.15-.71,8,0c0,0,2.23-.35,2.7,2.63.78,1.35,3.43-1.2,4.86-.9s6.54,1.53,7.36,2.66.71.49.71.49" transform="translate(-215.57 -72.36)"/><path class="eacaadcb-06f3-4206-8a5c-685d9ec24d85" d="M432.51,107.64s.45,2.15,5.61,1.36a6.59,6.59,0,0,1,7.1,3.5s1.63,2.25,3.07,1,3.27-.6,3.47.39,2.46-.77,3.63,1.18,2.91.85,3.52.13,1.43,2.47,2.86,1,5.82-2.93,7.86-.58" transform="translate(-215.57 -72.36)"/><path class="eacaadcb-06f3-4206-8a5c-685d9ec24d85" d="M428.92,119.93s4.85-5.8,6.59-2.33c0,0,4.8-2.69,4.39,1.87,0,0,.61,1.77,2.45.46s3.37,1.25,3.37,1.25,3.78,1,2.15,2.35" transform="translate(-215.57 -72.36)"/><path class="eacaadcb-06f3-4206-8a5c-685d9ec24d85" d="M440,104.14s-3.33,5.8-3.18,9.32-5,13.29-5,13.29" transform="translate(-215.57 -72.36)"/><path class="eacaadcb-06f3-4206-8a5c-685d9ec24d85" d="M446.9,107.3s-10.41,20.15-13.4,20.33l-1,.15" transform="translate(-215.57 -72.36)"/><path class="eacaadcb-06f3-4206-8a5c-685d9ec24d85" d="M456.7,109s-7.61,10.59-10.42,12.35-11.59,8.43-11.59,8.43" transform="translate(-215.57 -72.36)"/><path class="eacaadcb-06f3-4206-8a5c-685d9ec24d85" d="M467,109.64s-8.27,10.54-13.5,11.94-8.17,3.5-9.7,5.17S438.19,133,436,131" transform="translate(-215.57 -72.36)"/><path class="eacaadcb-06f3-4206-8a5c-685d9ec24d85" d="M468.48,119a56.43,56.43,0,0,0-13.1,1.81" transform="translate(-215.57 -72.36)"/><path class="eacaadcb-06f3-4206-8a5c-685d9ec24d85" d="M436.86,110.85s-3.67-.5-4.35,1.23,4.35,1.37,4.35,1.37" transform="translate(-215.57 -72.36)"/><path class="eacaadcb-06f3-4206-8a5c-685d9ec24d85" d="M443.56,113.49s-3-1.82-4.3,0,2.6,3,2.6,3" transform="translate(-215.57 -72.36)"/><path class="eacaadcb-06f3-4206-8a5c-685d9ec24d85" d="M450.37,117.19s-2.8-2.53-4.23-.7,1.85,3.38,1.85,3.38" transform="translate(-215.57 -72.36)"/><path class="eacaadcb-06f3-4206-8a5c-685d9ec24d85" d="M452.45,121.63s-1.35-3,1-3.64,2.38,2.5,2.38,2.5-.77,4.16-4.37,5.58-5,3,1.79,2.52" transform="translate(-215.57 -72.36)"/><path class="eacaadcb-06f3-4206-8a5c-685d9ec24d85" d="M445.12,125.51s-1.61,4.83.09,5.11" transform="translate(-215.57 -72.36)"/><path class="eacaadcb-06f3-4206-8a5c-685d9ec24d85" d="M462.64,115.44s-1,3.5,2,3.52" transform="translate(-215.57 -72.36)"/><path class="eacaadcb-06f3-4206-8a5c-685d9ec24d85" d="M462,128.33s-3.67-5.38-.45-6.33,3.13.5,3.13,6.5" transform="translate(-215.57 -72.36)"/><path class="eacaadcb-06f3-4206-8a5c-685d9ec24d85" d="M399.06,131.32s.62-2.44,3.25-.34.91,3.87.91,3.87" transform="translate(-215.57 -72.36)"/><path class="eacaadcb-06f3-4206-8a5c-685d9ec24d85" d="M424.13,126.23s-.46,5,.37,5.25,2,.4,1.83-5.25" transform="translate(-215.57 -72.36)"/><path class="eacaadcb-06f3-4206-8a5c-685d9ec24d85" d="M428.92,126.23s-.91,5.23,0,5.59,2.13-1.68,2.62-4.82" transform="translate(-215.57 -72.36)"/><path class="eacaadcb-06f3-4206-8a5c-685d9ec24d85" d="M433.22,128.76s-1.4,4.88,0,4.82,2.48-2,2.29-3.12" transform="translate(-215.57 -72.36)"/><path class="eacaadcb-06f3-4206-8a5c-685d9ec24d85" d="M439.52,133.58s1.52,2.11-.53,2.93" transform="translate(-215.57 -72.36)"/><path class="eacaadcb-06f3-4206-8a5c-685d9ec24d85" d="M443.06,135s1.59,2.05-.56,3.06" transform="translate(-215.57 -72.36)"/><path class="eacaadcb-06f3-4206-8a5c-685d9ec24d85" d="M446.9,135.52s2.12,2.64-.47,3.39" transform="translate(-215.57 -72.36)"/><path class="eacaadcb-06f3-4206-8a5c-685d9ec24d85" d="M451.07,136.17s1.51,2.38-.8,3.69" transform="translate(-215.57 -72.36)"/><path class="eacaadcb-06f3-4206-8a5c-685d9ec24d85" d="M454.5,137.35s.92,3-.88,3.35" transform="translate(-215.57 -72.36)"/><path class="eacaadcb-06f3-4206-8a5c-685d9ec24d85" d="M457.93,138.64s1.19,2.2-.89,2.86" transform="translate(-215.57 -72.36)"/><path class="98687557-78d2-4b3f-a9fb-a5a24d939546" d="M391,199.15s-1.46-1.44-2.13-5.86c1.31-16.33-15.5-19.58-15.5-19.58s-16.37-4.1-19.86,5.54-10.87,7.25-10.87,7.25" transform="translate(-215.57 -72.36)"/><path class="ebb5dce2-3eaa-46c2-8343-39ad1ac40510" d="M383.48,179.84a10.58,10.58,0,0,1,.41,2.91,10.77,10.77,0,1,1-16.37-9.11" transform="translate(-215.57 -72.36)"/><path class="69138144-d249-41c4-a21a-174939459f4f" d="M375.73,183.53a3.37,3.37,0,1,1-3.37-3.37,3.37,3.37,0,0,1,3.37,3.37" transform="translate(-215.57 -72.36)"/><path class="9b08d4e1-8880-44b9-a683-99efc7aa2f35" d="M365.29,175.43a7.84,7.84,0,0,1,9.81,1.1c4.69,4.56,3.4,13.7,3.4,13.7" transform="translate(-215.57 -72.36)"/><path class="9b08d4e1-8880-44b9-a683-99efc7aa2f35" d="M383,183.39c.66-1.29-2-4.23-2-4.23s-2.71-1.76-2.82.8a21.13,21.13,0,0,0,.31,4.58s.41,5.9-1.66,7.35" transform="translate(-215.57 -72.36)"/><path class="69138144-d249-41c4-a21a-174939459f4f" d="M377.72,174.88c0,.59-1.15,1.07-2.56,1.07s-2.56-.48-2.56-1.07,1.15-1.07,2.56-1.07,2.56.48,2.56,1.07" transform="translate(-215.57 -72.36)"/><path class="69138144-d249-41c4-a21a-174939459f4f" d="M379.8,176.18c0,.59-1.15,1.07-2.56,1.07s-2.56-.48-2.56-1.07,1.15-1.07,2.56-1.07,2.56.48,2.56,1.07" transform="translate(-215.57 -72.36)"/><path class="69138144-d249-41c4-a21a-174939459f4f" d="M381,177.37c0,.59-1.15,1.07-2.56,1.07s-2.56-.48-2.56-1.07,1.15-1.07,2.56-1.07,2.56.48,2.56,1.07" transform="translate(-215.57 -72.36)"/><path class="69138144-d249-41c4-a21a-174939459f4f" d="M382,177.62c0,.59-1.15,1.07-2.56,1.07s-2.56-.48-2.56-1.07,1.15-1.07,2.56-1.07,2.56.48,2.56,1.07" transform="translate(-215.57 -72.36)"/><path class="69138144-d249-41c4-a21a-174939459f4f" d="M378,175c.59,0,1,1.2.93,2.61s-.62,2.53-1.21,2.5-1-1.2-.93-2.61.62-2.53,1.21-2.5" transform="translate(-215.57 -72.36)"/><path class="69138144-d249-41c4-a21a-174939459f4f" d="M381,177.07c.52-.28,1.49.5,2.15,1.75s.79,2.48.27,2.76-1.49-.5-2.15-1.75-.79-2.48-.26-2.76" transform="translate(-215.57 -72.36)"/><path class="eacaadcb-06f3-4206-8a5c-685d9ec24d85" d="M359.79,173.64s-5.62,6.81-5.21,12.86,11.68,12.9,21.36,11.56,13.25-3.93,13-6.08" transform="translate(-215.57 -72.36)"/><path class="9b08d4e1-8880-44b9-a683-99efc7aa2f35" d="M343.4,186.67s7.39,2.45,9.51,7.94c2.64,6.81,20.37,9.52,25.51,5.48,3.33-2.61,12.55-.94,12.55-.94" transform="translate(-215.57 -72.36)"/><path class="eacaadcb-06f3-4206-8a5c-685d9ec24d85" d="M354.56,186s-5.8-1.11-7.39.37" transform="translate(-215.57 -72.36)"/><path class="eacaadcb-06f3-4206-8a5c-685d9ec24d85" d="M384,196.25a11.32,11.32,0,0,1,5.33,2.9" transform="translate(-215.57 -72.36)"/><path class="98687557-78d2-4b3f-a9fb-a5a24d939546" d="M436.9,199.89s7.71-8.3,8.31-13.28,17.22-14.57,31-7.17c2.84,1.55,8.89,11.13,9.71,11" transform="translate(-215.57 -72.36)"/><path class="ebb5dce2-3eaa-46c2-8343-39ad1ac40510" d="M465.47,177.71c2.93-.26,3.9,4.55,3.9,7.72a9.58,9.58,0,1,1-18.64-3.11S454.06,178.75,465.47,177.71Z" transform="translate(-215.57 -72.36)"/><path class="9b08d4e1-8880-44b9-a683-99efc7aa2f35" d="M460.63,188h0a2.18,2.18,0,0,1-.83-3l1.07-1.9a2.18,2.18,0,1,1,3.8,2.13l-1.07,1.9A2.18,2.18,0,0,1,460.63,188Z" transform="translate(-215.57 -72.36)"/><path class="69138144-d249-41c4-a21a-174939459f4f" d="M460.63,188a2.18,2.18,0,0,1-.83-3l1.06-1.89a3.79,3.79,0,1,0,1.61,5,2.17,2.17,0,0,1-1.84-.12" transform="translate(-215.57 -72.36)"/><path class="9b08d4e1-8880-44b9-a683-99efc7aa2f35" d="M440.68,195.32s2.48,8.4,14.6,7.75,19.72-4.85,21-6.42,8.69-8,10.3-6" transform="translate(-215.57 -72.36)"/><path class="9b08d4e1-8880-44b9-a683-99efc7aa2f35" d="M436.9,199.89s-.21,3.94,7.77.56" transform="translate(-215.57 -72.36)"/><path class="3f5301eb-ddc4-4148-8287-d909596b0552" d="M443.59,190.91s2.6,10.52,14.12,9,25.23-7.3,21.69-17.34" transform="translate(-215.57 -72.36)"/><path class="eacaadcb-06f3-4206-8a5c-685d9ec24d85" d="M396.7,200.87s-3.82,15.25,9.33,12.92c3.6.24,3.6,3.18,4,4.66s7.21,6.36,9.75,0c2-5.09,5-4.88,6.13-4.6a2.58,2.58,0,0,0,1.32,0c2-.56,6.73-2.87,3.64-12.14" transform="translate(-215.57 -72.36)"/><line class="eacaadcb-06f3-4206-8a5c-685d9ec24d85" x1="200.29" y1="155.43" x2="200.29" y2="149.28"/><path class="eacaadcb-06f3-4206-8a5c-685d9ec24d85" d="M397.88,211.61s3.68.45,5.39-2.42,7-2.61,8-1.35,6.48,2.34,7.47.18,6-1.53,6.93.18S431,211,431,211" transform="translate(-215.57 -72.36)"/><path class="69138144-d249-41c4-a21a-174939459f4f" d="M402.49,214s3.27-2.53,3.75-2.73c.25-.1,3-.78,4.77,2.43a3.85,3.85,0,0,1-1,4.77s-.67-3.47-1.57-3.76-1.7-1.36-4.22-.69" transform="translate(-215.57 -72.36)"/><path class="69138144-d249-41c4-a21a-174939459f4f" d="M427.26,213.83c-1.12.15-4.09-3.09-6.77-2.19s-.68,6.81-.68,6.81S421.77,212.94,427.26,213.83Z" transform="translate(-215.57 -72.36)"/><line class="eacaadcb-06f3-4206-8a5c-685d9ec24d85" x1="200.29" y1="142.77" x2="200.29" y2="148.65"/><path class="eacaadcb-06f3-4206-8a5c-685d9ec24d85" d="M407.1,202.48s-1.3,3.19-.46,4.16" transform="translate(-215.57 -72.36)"/><path class="eacaadcb-06f3-4206-8a5c-685d9ec24d85" d="M422.05,202.48a3.82,3.82,0,0,1,.82,3.79" transform="translate(-215.57 -72.36)"/><path class="eacaadcb-06f3-4206-8a5c-685d9ec24d85" d="M431.92,216.37s31.61-11.31,49.71-10.09" transform="translate(-215.57 -72.36)"/><line class="eacaadcb-06f3-4206-8a5c-685d9ec24d85" x1="216.35" y1="147.4" x2="227.87" y2="144.01"/><path class="eacaadcb-06f3-4206-8a5c-685d9ec24d85" d="M453.49,213.92s35.25-6,36.79-5.61" transform="translate(-215.57 -72.36)"/><line class="eacaadcb-06f3-4206-8a5c-685d9ec24d85" x1="214.79" y1="150.32" x2="221.33" y2="150.32"/><path class="eacaadcb-06f3-4206-8a5c-685d9ec24d85" d="M395.21,215.78s-34.52-8.9-43.18-7.19" transform="translate(-215.57 -72.36)"/><path class="eacaadcb-06f3-4206-8a5c-685d9ec24d85" d="M395.21,219.29s-30.13-6.42-32.87-3.5" transform="translate(-215.57 -72.36)"/><line class="eacaadcb-06f3-4206-8a5c-685d9ec24d85" x1="403.4" y1="120.56" x2="398.32" y2="120.56"/><path class="eacaadcb-06f3-4206-8a5c-685d9ec24d85" d="M502.24,203.1s24-3.21,37.67,1.89a104.89,104.89,0,0,0,11.43,3.68c15.34,3.8,46.3,12.44,46.3,12.44L619,192.91" transform="translate(-215.57 -72.36)"/><line class="eacaadcb-06f3-4206-8a5c-685d9ec24d85" x1="395.98" y1="121.02" x2="374.41" y2="146.63"/><line class="eacaadcb-06f3-4206-8a5c-685d9ec24d85" x1="386.86" y1="123.15" x2="367.92" y2="144.84"/><line class="eacaadcb-06f3-4206-8a5c-685d9ec24d85" x1="377.39" y1="125.14" x2="361.33" y2="142.77"/><line class="eacaadcb-06f3-4206-8a5c-685d9ec24d85" x1="369.36" y1="126.7" x2="354.83" y2="141.29"/><line class="eacaadcb-06f3-4206-8a5c-685d9ec24d85" x1="361.33" y1="128.11" x2="349.21" y2="139.79"/><line class="eacaadcb-06f3-4206-8a5c-685d9ec24d85" x1="353.01" y1="129.34" x2="343.17" y2="138.2"/><line class="eacaadcb-06f3-4206-8a5c-685d9ec24d85" x1="346.49" y1="129.99" x2="337.67" y2="136.78"/><line class="eacaadcb-06f3-4206-8a5c-685d9ec24d85" x1="338.31" y1="129.47" x2="331.71" y2="135.18"/><line class="eacaadcb-06f3-4206-8a5c-685d9ec24d85" x1="334.27" y1="128.43" x2="326.4" y2="133.38"/><line class="eacaadcb-06f3-4206-8a5c-685d9ec24d85" x1="327.94" y1="127.8" x2="321.92" y2="131.85"/><line class="eacaadcb-06f3-4206-8a5c-685d9ec24d85" x1="320.26" y1="127.53" x2="316.91" y2="130.74"/><path class="eacaadcb-06f3-4206-8a5c-685d9ec24d85" d="M374.85,134.1s23.24,5.22,25.8,3" transform="translate(-215.57 -72.36)"/><path class="eacaadcb-06f3-4206-8a5c-685d9ec24d85" d="M407.92,147.73S392,137.3,388,136.62" transform="translate(-215.57 -72.36)"/><path class="eacaadcb-06f3-4206-8a5c-685d9ec24d85" d="M421.94,149.28s22.57-5.47,29.62-3.57" transform="translate(-215.57 -72.36)"/><polyline class="eacaadcb-06f3-4206-8a5c-685d9ec24d85" points="179.96 67.01 198.03 71.22 207.48 68.34"/><polyline class="eacaadcb-06f3-4206-8a5c-685d9ec24d85" points="186.73 71.22 200.42 74.22 215.33 69.76"/><path class="eacaadcb-06f3-4206-8a5c-685d9ec24d85" d="M409.49,139s8,8.3,8,9.55" transform="translate(-215.57 -72.36)"/><path class="69138144-d249-41c4-a21a-174939459f4f" d="M399.36,218.55a.74.74,0,1,1-.74-.74.74.74,0,0,1,.74.74" transform="translate(-215.57 -72.36)"/><path class="69138144-d249-41c4-a21a-174939459f4f" d="M429.88,218.07a.74.74,0,1,1-.74-.74.74.74,0,0,1,.74.74" transform="translate(-215.57 -72.36)"/><path class="69138144-d249-41c4-a21a-174939459f4f" d="M428.41,220.9a.74.74,0,1,1-.74-.74.74.74,0,0,1,.74.74" transform="translate(-215.57 -72.36)"/><path class="69138144-d249-41c4-a21a-174939459f4f" d="M400.1,220.9a.74.74,0,1,1-.74-.74.74.74,0,0,1,.74.74" transform="translate(-215.57 -72.36)"/></g></svg>