<svg id="b38b04b4-be2e-43fd-8625-0cbc1b4dba99" data-name="图层 1" xmlns="http://www.w3.org/2000/svg" xmlns:xlink="http://www.w3.org/1999/xlink" viewBox="0 0 229.33 237.18"><defs><style>.\30 4ef3cae-09ba-400b-a4ae-9fd3fec9df3e,.\31 d861a32-d2d6-4dad-8e91-9cf4b48c1f67,.\32 0a0982e-f4c6-437f-86c7-9d829273ab2d,.\32 5d7ada9-1762-4078-975f-1467d047b3e0,.\32 7b7164b-8232-4180-b7d1-fdc51cdb96d4,.\32 d109eb2-82ed-46e9-8112-8cc9aac0a8e6,.\33 216d401-6976-4596-b693-5573957ae317,.\37 a2a2b34-e440-48b9-887c-ea5af600132f,.\39 56fcc3a-d87c-4c8e-be05-67c5f4dcb4f3,.\39 c69b937-fbbb-4f18-a13d-627d0e085f64,.c7ce999c-4354-49d9-a01c-ea3ad42544c0,.d2aa9cda-f155-4e8a-aff6-3d89a1dbbad6,.decbb909-813f-4538-aa77-8b403b48b23f{fill:none;}.\30 0029d03-1f32-43d5-bb9f-9ef04bdc2eab{clip-path:url(#a1e88a66-569d-4b13-86f9-7b74408598d7);}.\33 31e4eed-fa39-4df0-af80-3e10d34244a2{opacity:0.49;}.\33 923516f-1a7d-4cf0-be2b-60d1b993c7d4{clip-path:url(#96943ba0-025f-4a24-9beb-bb47cbcbd2fb);}.\30 4ef3cae-09ba-400b-a4ae-9fd3fec9df3e,.\32 0a0982e-f4c6-437f-86c7-9d829273ab2d,.\37 a2a2b34-e440-48b9-887c-ea5af600132f,.\39 c69b937-fbbb-4f18-a13d-627d0e085f64,.d2aa9cda-f155-4e8a-aff6-3d89a1dbbad6{stroke:#000;}.\30 4ef3cae-09ba-400b-a4ae-9fd3fec9df3e,.\31 d861a32-d2d6-4dad-8e91-9cf4b48c1f67,.\32 0a0982e-f4c6-437f-86c7-9d829273ab2d,.\32 5d7ada9-1762-4078-975f-1467d047b3e0,.\32 d109eb2-82ed-46e9-8112-8cc9aac0a8e6,.\33 216d401-6976-4596-b693-5573957ae317,.\37 a2a2b34-e440-48b9-887c-ea5af600132f,.\39 56fcc3a-d87c-4c8e-be05-67c5f4dcb4f3,.\39 c69b937-fbbb-4f18-a13d-627d0e085f64,.c7ce999c-4354-49d9-a01c-ea3ad42544c0,.d2aa9cda-f155-4e8a-aff6-3d89a1dbbad6,.decbb909-813f-4538-aa77-8b403b48b23f{stroke-linecap:round;}.\30 4ef3cae-09ba-400b-a4ae-9fd3fec9df3e,.\31 d861a32-d2d6-4dad-8e91-9cf4b48c1f67,.\32 0a0982e-f4c6-437f-86c7-9d829273ab2d,.\32 5d7ada9-1762-4078-975f-1467d047b3e0,.\32 d109eb2-82ed-46e9-8112-8cc9aac0a8e6,.\37 a2a2b34-e440-48b9-887c-ea5af600132f,.c7ce999c-4354-49d9-a01c-ea3ad42544c0,.d2aa9cda-f155-4e8a-aff6-3d89a1dbbad6,.decbb909-813f-4538-aa77-8b403b48b23f{stroke-miterlimit:10;}.\33 216d401-6976-4596-b693-5573957ae317,.\39 56fcc3a-d87c-4c8e-be05-67c5f4dcb4f3,.\39 c69b937-fbbb-4f18-a13d-627d0e085f64{stroke-linejoin:round;}.\32 d109eb2-82ed-46e9-8112-8cc9aac0a8e6,.\33 216d401-6976-4596-b693-5573957ae317,.d2aa9cda-f155-4e8a-aff6-3d89a1dbbad6{stroke-width:0.75px;}.\32 5d7ada9-1762-4078-975f-1467d047b3e0,.\37 a2a2b34-e440-48b9-887c-ea5af600132f{stroke-width:0.5px;}.\30 4ef3cae-09ba-400b-a4ae-9fd3fec9df3e{stroke-width:0.35px;}.\31 d861a32-d2d6-4dad-8e91-9cf4b48c1f67,.\32 5d7ada9-1762-4078-975f-1467d047b3e0,.\32 d109eb2-82ed-46e9-8112-8cc9aac0a8e6,.\33 216d401-6976-4596-b693-5573957ae317,.\39 56fcc3a-d87c-4c8e-be05-67c5f4dcb4f3,.c7ce999c-4354-49d9-a01c-ea3ad42544c0,.decbb909-813f-4538-aa77-8b403b48b23f{stroke:#060000;}.c7ce999c-4354-49d9-a01c-ea3ad42544c0{stroke-width:1.25px;}.\35 65a52ab-ecca-4cdc-9c03-3800254846f1{fill:#060000;}.\31 d861a32-d2d6-4dad-8e91-9cf4b48c1f67{stroke-width:1.5px;}</style><clipPath id="a1e88a66-569d-4b13-86f9-7b74408598d7" transform="translate(-253 -33.52)"><rect class="27b7164b-8232-4180-b7d1-fdc51cdb96d4" width="677.42" height="269.21"/></clipPath><clipPath id="96943ba0-025f-4a24-9beb-bb47cbcbd2fb" transform="translate(-253 -33.52)"><rect class="27b7164b-8232-4180-b7d1-fdc51cdb96d4" x="-81.81" y="-13.71" width="841.92" height="595.2"/></clipPath></defs><title>svg藕</title><g class="00029d03-1f32-43d5-bb9f-9ef04bdc2eab"><g class="00029d03-1f32-43d5-bb9f-9ef04bdc2eab"><path class="20a0982e-f4c6-437f-86c7-9d829273ab2d" d="M301.51,101.8c-2-13.62-11.94-20.5-13.23-21s-6.69-8.22-6.69-8.22,0,6.83-1.71,10.25-5.12,8.54-2.14,18.36c0,0-6.21-2.65-15.14,0s-8.75,1.93-8.75,1.93,5.54,2.14,8,11.07,4.64,11.07,4.64,11.07a5.92,5.92,0,0,0,4.47,2.14h1.64" transform="translate(-253 -33.52)"/><path class="20a0982e-f4c6-437f-86c7-9d829273ab2d" d="M298.32,106s2,2.5,9.11.89,8.22-4.11,8.39-5.71-6.43-2.32-9.64-1.16S297.61,102.74,298.32,106Z" transform="translate(-253 -33.52)"/><path class="20a0982e-f4c6-437f-86c7-9d829273ab2d" d="M284.52,125.06h-1.74s-10.18.71-16.61,5.89c-3,3.57-8.75,10.54-12.32,10s20.9,8.57,30,2.5l1-.72" transform="translate(-253 -33.52)"/><path class="20a0982e-f4c6-437f-86c7-9d829273ab2d" d="M322.61,125.06s.71.36,4.11,4.64,2.5,11.43,2.5,11.43l-.89,11.43s-3.75-4.64-5-5.89-9.11-1.79-11.61-2.14-3.39-1.61-5.54-6.79,1.61-15.72,1.61-17.86-4.47-1.25-4.47-1.25-1.61-.89-8,7.68a2.82,2.82,0,0,1-2.14,1.07c-1.61.18-12,10.89-6.79,22,0,0,1.07,3.93,0,5.54s5.88-4.11,7.77-4.11,11.82-2.86,12.92-8.22c0,0,.21-1.83.22-2.19" transform="translate(-253 -33.52)"/><path class="20a0982e-f4c6-437f-86c7-9d829273ab2d" d="M299.57,109.7c-8.75,2.14-14.65-7.14-15.72-8.75s-3.75-1.55-3.75-1.55-4.82,7.27-2.5,14.59,3.57,12.5,15,12.5l2.68-.18" transform="translate(-253 -33.52)"/><path class="20a0982e-f4c6-437f-86c7-9d829273ab2d" d="M313.86,119.53s4.46,6.79,12.5,5.54,19.11-9.82,19.11-9.82.36-.36,0-1.43-3,0-3,0-7,3.45-9.82-.87-6.43-5.74-14.83-1.63" transform="translate(-253 -33.52)"/><path class="20a0982e-f4c6-437f-86c7-9d829273ab2d" d="M329.29,140.25s9.71,5.71,16.34,1.42c0,0,5.38,0,5.74,2.86s1.43-6.43,1.43-6.43.8-6.5-9.82-10.72-11.24-4-11.24-4" transform="translate(-253 -33.52)"/><path class="20a0982e-f4c6-437f-86c7-9d829273ab2d" d="M306.18,100s-2.83-12.5,3.21-19.81a33.94,33.94,0,0,0,3.66-7.6,6.31,6.31,0,0,1,4.64-4.21s1,.84.84,1.41S316,73.69,318,77.63s11.39,14.9-.7,26.58l-.76.5" transform="translate(-253 -33.52)"/><path class="20a0982e-f4c6-437f-86c7-9d829273ab2d" d="M289.75,81.7s6,1.7,8.51,1.7,5.38-1.24,7.92,1.68" transform="translate(-253 -33.52)"/><path class="20a0982e-f4c6-437f-86c7-9d829273ab2d" d="M321.61,109.71s3.6-20.09,21.76-24c0,0,9.08-2.65,10.46-4l.69-.85s-2.68,8.64-2.37,13c0,0-.63,8.13-4.21,10.43s-10.58,11.4-15.33,8.74" transform="translate(-253 -33.52)"/><path class="20a0982e-f4c6-437f-86c7-9d829273ab2d" d="M323.31,92s8.55-4.48,9.18-5.21.72,3.55.72,3.55" transform="translate(-253 -33.52)"/><path class="20a0982e-f4c6-437f-86c7-9d829273ab2d" d="M352.16,98.51s6.2-.74,7.26-2.84,2.21-1.58,2.21-1.58-7.32,23.09-23.33,26" transform="translate(-253 -33.52)"/><path class="9c69b937-fbbb-4f18-a13d-627d0e085f64" d="M352.8,138.1s.52,4.09,11.75,1.46c0,0,4.18-1.43,6.33.36s2,.52,2,.52-4.3-5.54-4.3-7.69-7-5.37-7-5.37,10.69-4.78,13.32-6.45-2.63.84-7.64-3.22-11.59-9.93-15.4-6.17" transform="translate(-253 -33.52)"/><path class="d2aa9cda-f155-4e8a-aff6-3d89a1dbbad6" d="M298.26,106.23s4.28,11.6,5.24,11.93" transform="translate(-253 -33.52)"/><path class="d2aa9cda-f155-4e8a-aff6-3d89a1dbbad6" d="M315.83,101.13s2.08,9.41,1.25,13.21-3.49,4.44-3.49,4.44-3.25,1.59-5.52.63c0,0-5.35-.62-5.78,4.25" transform="translate(-253 -33.52)"/><path class="7a2a2b34-e440-48b9-887c-ea5af600132f" d="M342.14,86.27s.49,1.74-.63,2.59-11.36,8.51-11.65,10.53,1.2,1.73,1.2,1.73,3.18-4.93,6.35-6.48a23.76,23.76,0,0,0,6.07-4.8s2.54-1.16.92,2S334.87,103.8,334,104.2s-.49,2.24.21,2l.71-.21s9.6-8.5,11.36-14.13a1.52,1.52,0,0,1,1.55-.69,1.61,1.61,0,0,1,.42,1.2c-.07.71-4.87,12.21-6.07,13.13,0,0-.35,1.34.49,1.13s3.32-3.39,4.59-6.28a73.8,73.8,0,0,0,2.66-8s1.64-1.78,1.94-1.27" transform="translate(-253 -33.52)"/><path class="7a2a2b34-e440-48b9-887c-ea5af600132f" d="M326.09,90.75s-.42,1.66.16,2.21,2.68-.55,2.68-.55.55-.07.39.51" transform="translate(-253 -33.52)"/><path class="7a2a2b34-e440-48b9-887c-ea5af600132f" d="M310.5,79.14s1.2-1,1.42.18S308.82,86.94,309,90a42.3,42.3,0,0,0,0,6c.28,1.33,1.12-.21,1.39-1s.75-8.36,1.12-8.71c0,0,2-6.57,2.45-6.57s2,.22,1.84,1.12.45,8.55.23,11.06-.85,4.37-.85,4.85.31,1.49.9,1.28,1.92-1.34,2-4.9-.27-10.75-.64-11.92,2.15-.69,2.15-.69" transform="translate(-253 -33.52)"/><path class="7a2a2b34-e440-48b9-887c-ea5af600132f" d="M296.13,87.58s.2-1.54,1.61-.47,5.76,5,5.76,5,1.61,1,.9-.71-5.08-4.92-5.08-5.32-.63-1.5-.08-1.89a1.32,1.32,0,0,0,.59-.9" transform="translate(-253 -33.52)"/><path class="7a2a2b34-e440-48b9-887c-ea5af600132f" d="M278.36,85.82s1.77-1.4,2.09,0-.08,8.49,1.65,13.18l.28.59" transform="translate(-253 -33.52)"/><path class="7a2a2b34-e440-48b9-887c-ea5af600132f" d="M283.86,101s-2.7-13-1.48-14.23,3.16,1.12,3.16,1.12,4.94,15.33,4.83,16.35,1.4,1,1.4,1a75,75,0,0,0-4-17.37s.75-2.44,2.9,0,6.55,10.82,6.55,10.82.31,1.31,1,1.3,0-1.93,0-1.93-.8-4.69-5.63-10.19c0,0-.1-1.83,1.07-1.49" transform="translate(-253 -33.52)"/><path class="04ef3cae-09ba-400b-a4ae-9fd3fec9df3e" d="M306.25,103.39c.63.86,3.8-1.13,1.82-1.8s-1.82,1.63-1.82,1.63Z" transform="translate(-253 -33.52)"/><path class="04ef3cae-09ba-400b-a4ae-9fd3fec9df3e" d="M310.65,103.6s.1-1.71,1.63-1.61-.1,1.8-.4,1.9S310.55,104.1,310.65,103.6Z" transform="translate(-253 -33.52)"/><path class="04ef3cae-09ba-400b-a4ae-9fd3fec9df3e" d="M303.54,105.89a1.61,1.61,0,0,1,1.74-1.53c1.7,0-.51,2-.87,2S303.32,106.64,303.54,105.89Z" transform="translate(-253 -33.52)"/><path class="04ef3cae-09ba-400b-a4ae-9fd3fec9df3e" d="M301.37,105s-.74-1.65,1.44-2c.49,0,.7.79.33,1.22s-.7,1.11-1,1S301.48,105.36,301.37,105Z" transform="translate(-253 -33.52)"/><path class="7a2a2b34-e440-48b9-887c-ea5af600132f" d="M267.14,100.2s-1.5,1-.31,1.79,9.17,4.46,9.44,5.4" transform="translate(-253 -33.52)"/><path class="7a2a2b34-e440-48b9-887c-ea5af600132f" d="M277,111.25a24.6,24.6,0,0,0-10.6-7.27c-1.56-.58-.62,1.42-.62,1.42s7.27,12.27,9.57,13.89,0,2.48-.6,2.22-8.91-10.22-10.51-15.28c-1.79-.45-.6,2.29-.6,2.29s3.25,6.24,3.5,9,3.89,5.9,4.21,6.07.67,2.47-1.56,1.66-5.13-7.93-5.13-8.17-2-7.73-2.48-8.18-2.05,0-2.05,0" transform="translate(-253 -33.52)"/><path class="7a2a2b34-e440-48b9-887c-ea5af600132f" d="M262.91,134.73s.15.43,1.05.58,9-7.2,13.72-6.88c4,.27-.4,1.95-2.77,3.1a9.67,9.67,0,0,0-1.81.94c-2.21,1.56-7.33,5.91-7.9,6.37-.95.75-.25,1.81,1.17,1.56,1.19-.21,10.16-4,10.6-4.2s2.77-1.87,3.72-1.78,1.32.78.82,1.79-6.55,3.95-7.06,4.24-.13.67.44.86,8.43.85,9.33,0l.59-.42" transform="translate(-253 -33.52)"/><path class="7a2a2b34-e440-48b9-887c-ea5af600132f" d="M333,141.48c2.13.46,12-.63,9.27-3.19-1.5-1.39-10.74-1.38-11.6-5s4.48,1.6,7.37,1.81,7.24,1.08,7.93,2.89,5,.13.69-2.63-4.83-5.17-12.63-7.07c-1.08-.26-2.72-1.94-.69-2.11s11.46,4,15.45,8.89a1.27,1.27,0,0,0,2.13-.27,6.33,6.33,0,0,0,.4-1.38" transform="translate(-253 -33.52)"/><path class="7a2a2b34-e440-48b9-887c-ea5af600132f" d="M368.05,131.57s-2.16.68-1.92,2.27c.31,2.07-.77,2.06-1.58,1.88s-6.52-4.52-6.84-4.12,4.81,4.57,4.81,5.2-2.25,1.45-4.65-.85-5.78-5.64-6.51-5.56,4,4.81,3.16,5.56a1.31,1.31,0,0,1-1.71,0" transform="translate(-253 -33.52)"/><path class="d2aa9cda-f155-4e8a-aff6-3d89a1dbbad6" d="M342.55,127a77.19,77.19,0,0,0,10.26,2.39c4.63.67,8.13-2.17,8.34-1.75" transform="translate(-253 -33.52)"/><path class="7a2a2b34-e440-48b9-887c-ea5af600132f" d="M360.52,112.52s2.9,3.75-1.3,3.14a18.85,18.85,0,0,0-7.36.07c-.71.2-2.6,1.56,0,1.9s8.83-.32,9.26.82-.16,1.5-1.49,1.63-8.93,2.16-11.5,1.14-2.3,1.15-1.63,1.42,8,1.56,13.63-.34,2.71,1.56.41,1.83-7.12,3.05-13.29,1.08c-1.65-.47-2.17,1.17.07,1.5s7.46,1.58,13.08-.5c1.18-.18.72.9.72.9" transform="translate(-253 -33.52)"/><path class="7a2a2b34-e440-48b9-887c-ea5af600132f" d="M329.22,141.14s-1.66-.67-1.57-3.92-1.09-3.21-1.71-3,0,6.82-1.87,7.85-1.15-6.28-.75-10.52-5.45-4-3.67,0,1.05,10.3,0,10.15-1.4-3.22-2.38-4.24c-1.5-1.57-6.7-10.31-8.37-7.08-.89,1.74,2.2,4.56,4.62,6.4a2.94,2.94,0,0,1-1.69,5.29,11.84,11.84,0,0,1-2.93-.37l-.68-.39" transform="translate(-253 -33.52)"/><path class="7a2a2b34-e440-48b9-887c-ea5af600132f" d="M285.26,139.67c2.34,2,3.71,2.64,4.44,1.21s2.84-8.63,6.43-10.48,2.45,1.11.78,3.85c-1.16,1.9-6.87,7.83-5.36,9.64s9.44-9.22,9.71-13.49,4.09-1.56,2.08,3.44-5.55,8.23-5.4,9.24.12,1.2,1.06,1.41,6.52-7.68,6.52-7.68" transform="translate(-253 -33.52)"/><path class="7a2a2b34-e440-48b9-887c-ea5af600132f" d="M350.73,100.2s3.51-1.48,2.08,2.34-5.67,4.81-3.65,6.33,5.47-4.51,5.47-4.51l2.21.16" transform="translate(-253 -33.52)"/><path class="7a2a2b34-e440-48b9-887c-ea5af600132f" d="M279.1,118.45s-.51-7,1.27-5.5,3.07,4.89,4.44,5.5-4.13-8.48-2.89-9.58,3.59,6.36,6.35,7.17-4.62-9.1-3.46-10.65l1.16-1.55" transform="translate(-253 -33.52)"/><path class="7a2a2b34-e440-48b9-887c-ea5af600132f" d="M330.92,111.4s3.63,3.67,2.62,4.88-7.51,1.2-5.58,2.11,8.8-2.13,9.2-1.11-9.1,3.64-10.91,3-2.73,1.82-1.87,2.22a49.16,49.16,0,0,0,5.75,1.13" transform="translate(-253 -33.52)"/><path class="20a0982e-f4c6-437f-86c7-9d829273ab2d" d="M313.86,111.16c1.5,6-.85,5.87-2.08,7.32-.36.43-.25,1.17-2,1.06" transform="translate(-253 -33.52)"/><path class="20a0982e-f4c6-437f-86c7-9d829273ab2d" d="M305.52,112.94s1.9,6.85,5.12,6.72" transform="translate(-253 -33.52)"/><line class="20a0982e-f4c6-437f-86c7-9d829273ab2d" x1="61.82" y1="84.63" x2="72.95" y2="79.9"/><path class="20a0982e-f4c6-437f-86c7-9d829273ab2d" d="M324.08,107.05s-3.4,7.51-6.81,10" transform="translate(-253 -33.52)"/><path class="20a0982e-f4c6-437f-86c7-9d829273ab2d" d="M319,107.05a10.84,10.84,0,0,1-3,10" transform="translate(-253 -33.52)"/><path class="20a0982e-f4c6-437f-86c7-9d829273ab2d" d="M298.26,113.43s3,4.9,4,5.05" transform="translate(-253 -33.52)"/><path class="20a0982e-f4c6-437f-86c7-9d829273ab2d" d="M296.13,117.29s4.16,3.12,4.71,2.66" transform="translate(-253 -33.52)"/><line class="20a0982e-f4c6-437f-86c7-9d829273ab2d" x1="55.91" y1="86.55" x2="56.81" y2="91.54"/><path class="20a0982e-f4c6-437f-86c7-9d829273ab2d" d="M311.78,120s3,6.46,2.64,7.43" transform="translate(-253 -33.52)"/><path class="20a0982e-f4c6-437f-86c7-9d829273ab2d" d="M315.83,118.15s6.53,0,7.92-.86" transform="translate(-253 -33.52)"/><path class="20a0982e-f4c6-437f-86c7-9d829273ab2d" d="M299.57,121.16a8.05,8.05,0,0,0-4.18,1.4" transform="translate(-253 -33.52)"/><path d="M314.82,111.29a1.52,1.52,0,1,1-1.52-1.52,1.52,1.52,0,0,1,1.52,1.52" transform="translate(-253 -33.52)"/><path d="M306.54,112.19a1.52,1.52,0,1,1-1.52-1.52,1.52,1.52,0,0,1,1.52,1.52" transform="translate(-253 -33.52)"/><path d="M303.81,124.09a1.52,1.52,0,1,1-1.52-1.52,1.52,1.52,0,0,1,1.52,1.52" transform="translate(-253 -33.52)"/><path d="M311.75,125.61a1.52,1.52,0,1,1-1.52-1.52,1.52,1.52,0,0,1,1.52,1.52" transform="translate(-253 -33.52)"/><path d="M316,128.29a1.52,1.52,0,1,1-1.52-1.52,1.52,1.52,0,0,1,1.52,1.52" transform="translate(-253 -33.52)"/><path d="M326.36,117a1.52,1.52,0,1,1-1.52-1.52,1.52,1.52,0,0,1,1.52,1.52" transform="translate(-253 -33.52)"/><path d="M329,112.8a1.52,1.52,0,1,1-1.52-1.52A1.52,1.52,0,0,1,329,112.8" transform="translate(-253 -33.52)"/><path d="M325.95,106.23a1.52,1.52,0,1,1-1.52-1.52,1.52,1.52,0,0,1,1.52,1.52" transform="translate(-253 -33.52)"/><path d="M320.47,106.23a1.52,1.52,0,1,1-1.52-1.52,1.52,1.52,0,0,1,1.52,1.52" transform="translate(-253 -33.52)"/><path d="M299,112.52a1.52,1.52,0,1,1-1.52-1.52,1.52,1.52,0,0,1,1.52,1.52" transform="translate(-253 -33.52)"/><path d="M296.91,116.34a1.52,1.52,0,1,1-1.52-1.52,1.52,1.52,0,0,1,1.52,1.52" transform="translate(-253 -33.52)"/><path d="M296,122.68a1.52,1.52,0,1,1-1.52-1.52,1.52,1.52,0,0,1,1.52,1.52" transform="translate(-253 -33.52)"/><path class="d2aa9cda-f155-4e8a-aff6-3d89a1dbbad6" d="M313.86,145.08s2.18-.64,3.69,10.1S322.26,170,322.26,170" transform="translate(-253 -33.52)"/><path class="d2aa9cda-f155-4e8a-aff6-3d89a1dbbad6" d="M319,145.56a80.87,80.87,0,0,1,3.27,12.51c1,6.3,4.1,9.1,4.1,9.1" transform="translate(-253 -33.52)"/><line class="20a0982e-f4c6-437f-86c7-9d829273ab2d" x1="62.83" y1="117.31" x2="64.55" y2="117.31"/><line class="20a0982e-f4c6-437f-86c7-9d829273ab2d" x1="66.79" y1="120.61" x2="69.26" y2="120.61"/><line class="20a0982e-f4c6-437f-86c7-9d829273ab2d" x1="64.28" y1="122.84" x2="65.99" y2="123.2"/><line class="20a0982e-f4c6-437f-86c7-9d829273ab2d" x1="66.18" y1="130.74" x2="67.38" y2="130.74"/><line class="20a0982e-f4c6-437f-86c7-9d829273ab2d" x1="69.26" y1="122.84" x2="68.43" y2="123.2"/><line class="20a0982e-f4c6-437f-86c7-9d829273ab2d" x1="71.08" y1="126.4" x2="69.26" y2="127.44"/><ellipse class="d2aa9cda-f155-4e8a-aff6-3d89a1dbbad6" cx="62.95" cy="123.61" rx="1.6" ry="1.45"/><ellipse class="d2aa9cda-f155-4e8a-aff6-3d89a1dbbad6" cx="70.35" cy="120" rx="1.5" ry="1.66"/><ellipse class="d2aa9cda-f155-4e8a-aff6-3d89a1dbbad6" cx="64.58" cy="131.67" rx="1.6" ry="1.96"/><ellipse class="d2aa9cda-f155-4e8a-aff6-3d89a1dbbad6" cx="73.65" cy="130.43" rx="1.81" ry="1.96"/><path class="20a0982e-f4c6-437f-86c7-9d829273ab2d" d="M317.27,175.81s5-5.32,6.07-7.47,4.09-1.18,4.09-1.18a14.1,14.1,0,0,0,3.89-1.24c1.13-.75.1-3,.82-3.21s4-3.43,12.79-2.79,5-.9,10.34,1.46,5.63,1.43,6.14,1.43,7.06,1.53,8.49,4.34,1.94,4.56,1.23,9.16,2.15,7.37,1.84,9.72a39.48,39.48,0,0,1-.72,5.22c-.31.72-3.07,2.56-3.28,4s.92,3.58-1.33,5.73-7.57,7.37-11.46,7.27-14.5-1-17.18-.82-7.69-1.33-7.9-2.35-8.51-5-8.86-6-5-10.23-5-10.23S315.4,177.86,317.27,175.81Z" transform="translate(-253 -33.52)"/><path class="20a0982e-f4c6-437f-86c7-9d829273ab2d" d="M320.38,184s.65-3.94,3.7-3.94.15-.72,2.57-1.23,3.65,3.38,3.34,4.09-1.33,2.76-2.25,2.76-2.42.41-3.67,0S321.62,186.25,320.38,184Z" transform="translate(-253 -33.52)"/><path class="20a0982e-f4c6-437f-86c7-9d829273ab2d" d="M319,191.37a34.16,34.16,0,0,1,4.36,3.38c.72.92,5.22,1.13,5.12,1.43s5.83,2.86,5.94,4.3,1.64,2.86,2.76,2.56,3.76-2.64,5-2.23,6.16,2.51,7.29,2.27S356.5,202,357,201.5s6.14-3.93,6.55-4.27a9.12,9.12,0,0,0,2.25-3.51c.51-1.64,2.87-6.65,6.14-5.32" transform="translate(-253 -33.52)"/><path class="2d109eb2-82ed-46e9-8112-8cc9aac0a8e6" d="M321.17,185.06s1.55-2.33,3.68-2.33,3.68.9,3.62,1.8,0,.52,0,.52" transform="translate(-253 -33.52)"/><line class="decbb909-813f-4538-aa77-8b403b48b23f" x1="71.82" y1="151.02" x2="72.21" y2="151.02"/><path class="decbb909-813f-4538-aa77-8b403b48b23f" d="M326.65,174.45s-.76-1.71,2.48-2.79,4.23-1.89,4.59,0a9.06,9.06,0,0,1,0,3.42,4.78,4.78,0,0,1-4.14,1.53A3.53,3.53,0,0,1,326.65,174.45Z" transform="translate(-253 -33.52)"/><line class="decbb909-813f-4538-aa77-8b403b48b23f" x1="77.84" y1="141.29" x2="77.84" y2="141.83"/><path class="2d109eb2-82ed-46e9-8112-8cc9aac0a8e6" d="M328.46,175.8s1.39-2.7,2.38-2.61,2.49,1.27,2.34,1.89" transform="translate(-253 -33.52)"/><path class="decbb909-813f-4538-aa77-8b403b48b23f" d="M326.65,191.11s-.67-3,4.19-4,5.58,2,5.58,2,1.08,4.14-2.16,4.68S327.33,194,326.65,191.11Z" transform="translate(-253 -33.52)"/><line class="decbb909-813f-4538-aa77-8b403b48b23f" x1="79.47" y1="158.58" x2="80.2" y2="158.58"/><path class="2d109eb2-82ed-46e9-8112-8cc9aac0a8e6" d="M330,193.46a3.17,3.17,0,0,1,2.42-3.33,3,3,0,0,1,3.51,1.67" transform="translate(-253 -33.52)"/><path class="decbb909-813f-4538-aa77-8b403b48b23f" d="M336,181.93s-1.93-4.32,3.18-4.86,4.57,3.42,4.57,3.42-.54,2.43-2.79,2.61S336.29,183.08,336,181.93Z" transform="translate(-253 -33.52)"/><line class="decbb909-813f-4538-aa77-8b403b48b23f" x1="86.16" y1="148.04" x2="86.68" y2="148.04"/><path class="2d109eb2-82ed-46e9-8112-8cc9aac0a8e6" d="M336,181.93a3.56,3.56,0,0,1,3.44-1.84c2.42.22,2.87,1.84,2.87,1.84" transform="translate(-253 -33.52)"/><path class="decbb909-813f-4538-aa77-8b403b48b23f" d="M339,168.81s-.45-2.93,4.72-2.48,4.38,2.48,4.38,2.48a5,5,0,0,1-5.07,1.71C339.67,169.83,338.73,170,339,168.81Z" transform="translate(-253 -33.52)"/><line class="decbb909-813f-4538-aa77-8b403b48b23f" x1="90.05" y1="135.52" x2="90.74" y2="136.43"/><path class="decbb909-813f-4538-aa77-8b403b48b23f" d="M353.64,167.8s1.92,3.38,5.75,1.24-1.92-4.19-2.87-3.84S353.52,165.43,353.64,167.8Z" transform="translate(-253 -33.52)"/><line class="decbb909-813f-4538-aa77-8b403b48b23f" x1="104.58" y1="133.93" x2="104.16" y2="134.95"/><path class="decbb909-813f-4538-aa77-8b403b48b23f" d="M350.59,174.5s-4.84,3.94-4.28,9.55c1.46,2.9,5.07-.89,5.07-.89s2.36-3.53,2.25-5.33S353.86,174.32,350.59,174.5Z" transform="translate(-253 -33.52)"/><line class="decbb909-813f-4538-aa77-8b403b48b23f" x1="96.02" y1="148.85" x2="96.02" y2="149.63"/><path class="2d109eb2-82ed-46e9-8112-8cc9aac0a8e6" d="M346.31,182.38s1.25-1.85,2.71-1.85,2.93.41,2.37,2.63" transform="translate(-253 -33.52)"/><path class="decbb909-813f-4538-aa77-8b403b48b23f" d="M345.47,190a5.33,5.33,0,0,0-5.68,4.77,2.13,2.13,0,0,0,1.94,2.46c2.66.17,6.38-1.45,6.43-3.24a2.43,2.43,0,0,0-1.85-2.68S346.29,190,345.47,190Z" transform="translate(-253 -33.52)"/><line class="decbb909-813f-4538-aa77-8b403b48b23f" x1="93.27" y1="160.98" x2="92.47" y2="161.43"/><path class="2d109eb2-82ed-46e9-8112-8cc9aac0a8e6" d="M347.57,192.11s-4-.24-4.17,4.42" transform="translate(-253 -33.52)"/><path class="decbb909-813f-4538-aa77-8b403b48b23f" d="M363.89,177s-3.6-5.2,2.37-6.36c2,.75,4.28,4.25-.9,7.29A1.38,1.38,0,0,1,363.89,177Z" transform="translate(-253 -33.52)"/><path class="decbb909-813f-4538-aa77-8b403b48b23f" d="M362.81,180.08s-5-1.63-7.26,3.86,3.49,6.05,4.51,5.49S366.46,184.71,362.81,180.08Z" transform="translate(-253 -33.52)"/><line class="decbb909-813f-4538-aa77-8b403b48b23f" x1="105.71" y1="153.43" x2="105.71" y2="154.65"/><path class="2d109eb2-82ed-46e9-8112-8cc9aac0a8e6" d="M355.3,187.56s2.16-3.81,4.25-2.83,2.71,2.9,2.1,3.45" transform="translate(-253 -33.52)"/><path class="2d109eb2-82ed-46e9-8112-8cc9aac0a8e6" d="M362.87,174.5s3.45-1.1,2.8,2.18a2.57,2.57,0,0,1-.17.68" transform="translate(-253 -33.52)"/><path class="decbb909-813f-4538-aa77-8b403b48b23f" d="M350.93,197.28s4.17,3.23,6.65,0-3.32-4.58-3.32-4.58S349,193.53,350.93,197.28Z" transform="translate(-253 -33.52)"/><line class="decbb909-813f-4538-aa77-8b403b48b23f" x1="101.36" y1="163.76" x2="100.63" y2="163.76"/><path class="2d109eb2-82ed-46e9-8112-8cc9aac0a8e6" d="M351.51,197.28S352.09,195,354,195s3.16,2.8,3.16,2.8" transform="translate(-253 -33.52)"/><path class="c7ce999c-4354-49d9-a01c-ea3ad42544c0" d="M322.26,199s-2,4-6.43,4.05-19.34,11.75-19.34,20-3.29,12.47-4.47,13.41-8.94,3.29-9.41,3.29-2.12,5.41-2.12,5.41,4.76,11.05,0,15.52c-5.56,5.16-6.57,6.6-6.4,6.87,0,0,.27,1.19,0,1.63" transform="translate(-253 -33.52)"/><path class="c7ce999c-4354-49d9-a01c-ea3ad42544c0" d="M373,186a20.64,20.64,0,0,0,14.88.9c8.54-2.56,16.17,4.73,17.7,11.77s12.21,10.08,16.78,5.81,19.53-8.88,25.93-5.81,13.12,2.15,13.12,20.46S473.9,231.68,477.25,239s6.71,9.76,2.44,19.53-3.05,10.68-3.05,10.68" transform="translate(-253 -33.52)"/><path class="decbb909-813f-4538-aa77-8b403b48b23f" d="M352,208c-1.55.6-4.27,1.72-8.92,3.71a20.39,20.39,0,0,0-12.82,21.6s11.28,7.93,12.82,8.14,10.23,5.74,16.5,3.19l1.21-.57" transform="translate(-253 -33.52)"/><path class="decbb909-813f-4538-aa77-8b403b48b23f" d="M365.75,202.78s5.32-1.86,6.2-.8,3,2.76,3,4.46,3.61,18.18,3,21.2.42,8.33-3.19,9.6l-.79.24" transform="translate(-253 -33.52)"/><path class="decbb909-813f-4538-aa77-8b403b48b23f" d="M336.6,236.58s4.26,1.39,1.5-2.54c-3.61-1.91-5.31-3-3-3.72s2.14-2.87.86-3.29-3-2.44,0-2.23,4.35.74,1.8-2.23c-2.55-1.7-1.27-3.72-.43-3.72s2.76,1.91,3.72,1.7a2,2,0,0,0,1.28-2.34c-.11-1.06.26-3.19,1.62-1.81s4.23,9.46,5.82,9.35,2.55-.32,2.44-1.49-4-6.27-1.71-6.05,2.51,2.44,3.12-1.49-1.72-3.61.72-5.74,2.43,2,2.8,2.66,1.44,1.06,1.76.64a8.74,8.74,0,0,0,1.17-3.89c-.11-1.21,1.38-1.74,1.7-.89s2.66,3,3.4,2.44a3.62,3.62,0,0,0,1.27-4.51c-1.06-2.29,3.61-1.76,3.83-1s3,7.75,5,6.59" transform="translate(-253 -33.52)"/><path class="decbb909-813f-4538-aa77-8b403b48b23f" d="M376.91,218.39s-3.19-2-1.63,3.71-.67,9-.92,5.53-2.56-5.53-3.58-10.77-3.2-3.84-4.48-3.84-1.92,3.2-.55,5.88,2.6,13.17,1.83,13.3-1.83-1.66-2.56-4.57c-4.22-5.33-6.44-1.82-6.44-1.82a6,6,0,0,0,1,6.78c3,3.07,3.3,3.32,1.39,4s-8.82-5.14-12.77-5.78-3.21,1.79-3.35,3.32,7.68,4.6,3.35,4.86-2.69,3.49-2.69,3.49" transform="translate(-253 -33.52)"/><path class="decbb909-813f-4538-aa77-8b403b48b23f" d="M351.51,234.24s10.32,7.16,12.56,6.39" transform="translate(-253 -33.52)"/><path class="decbb909-813f-4538-aa77-8b403b48b23f" d="M353.63,240s4.73,3.45,7.23,3.07" transform="translate(-253 -33.52)"/><path class="decbb909-813f-4538-aa77-8b403b48b23f" d="M364.06,232.2s1.09,4.7,2.75,5" transform="translate(-253 -33.52)"/><path class="decbb909-813f-4538-aa77-8b403b48b23f" d="M369.11,219.44s4.6,9.25,0,17.14" transform="translate(-253 -33.52)"/><path class="2d109eb2-82ed-46e9-8112-8cc9aac0a8e6" d="M330.42,227.07s1.89,1.93,2.77,2.06" transform="translate(-253 -33.52)"/><path class="2d109eb2-82ed-46e9-8112-8cc9aac0a8e6" d="M332,221.91l3.32,1.34" transform="translate(-253 -33.52)"/><path class="2d109eb2-82ed-46e9-8112-8cc9aac0a8e6" d="M339.76,213.44s.58,3.16.84,4.18" transform="translate(-253 -33.52)"/><path class="2d109eb2-82ed-46e9-8112-8cc9aac0a8e6" d="M345.48,210.7A26.13,26.13,0,0,0,349,221.91" transform="translate(-253 -33.52)"/><path class="2d109eb2-82ed-46e9-8112-8cc9aac0a8e6" d="M349.6,209s-.72,4.86.91,7.33" transform="translate(-253 -33.52)"/><line class="2d109eb2-82ed-46e9-8112-8cc9aac0a8e6" x1="104.79" y1="174.73" x2="105.2" y2="177.18"/><path class="2d109eb2-82ed-46e9-8112-8cc9aac0a8e6" d="M362.79,205.27a37.73,37.73,0,0,1,1.27,3.71" transform="translate(-253 -33.52)"/><path class="2d109eb2-82ed-46e9-8112-8cc9aac0a8e6" d="M367.65,202.2a6.35,6.35,0,0,1,5.35,4.93" transform="translate(-253 -33.52)"/><path class="565a52ab-ecca-4cdc-9c03-3800254846f1" d="M352.75,239a.84.84,0,1,1-.83-1,.92.92,0,0,1,.83,1" transform="translate(-253 -33.52)"/><path class="565a52ab-ecca-4cdc-9c03-3800254846f1" d="M348.09,234a.84.84,0,1,1-.83-1,.92.92,0,0,1,.83,1" transform="translate(-253 -33.52)"/><path class="565a52ab-ecca-4cdc-9c03-3800254846f1" d="M352.34,234.24a.84.84,0,1,1-.83-1,.92.92,0,0,1,.83,1" transform="translate(-253 -33.52)"/><path class="565a52ab-ecca-4cdc-9c03-3800254846f1" d="M362.7,229.13a.84.84,0,1,1-.83-1,.92.92,0,0,1,.83,1" transform="translate(-253 -33.52)"/><path class="565a52ab-ecca-4cdc-9c03-3800254846f1" d="M368.48,216.31a.84.84,0,1,1-.83-1,.92.92,0,0,1,.83,1" transform="translate(-253 -33.52)"/><path class="decbb909-813f-4538-aa77-8b403b48b23f" d="M365.83,246.34a7.69,7.69,0,0,1-1.76,3.14c-1.39,1.51.76,10.79.76,10.79s-1.25.75-3.79-8.66,2.39-10.07,2.39-10.07h1" transform="translate(-253 -33.52)"/><path class="decbb909-813f-4538-aa77-8b403b48b23f" d="M364.06,240a5,5,0,0,0,2.75,3.1c2.15.87,16.33,1.13,19.46-.63s-7.91-.26-11.11-3.46S365.69,236.54,364.06,240Z" transform="translate(-253 -33.52)"/><path class="decbb909-813f-4538-aa77-8b403b48b23f" d="M369.09,244.43c.64.72,1.3,2.24,1.39,5.41.19,6.33,1.72,7.08,1.72,7.08s-5.26-2-5.87-6.57-1.49-6.83-.9-7.25" transform="translate(-253 -33.52)"/><path class="decbb909-813f-4538-aa77-8b403b48b23f" d="M367.83,243.77a1.59,1.59,0,0,1,1.25.66" transform="translate(-253 -33.52)"/><path class="decbb909-813f-4538-aa77-8b403b48b23f" d="M374.89,238.23s4.61-.28,4.85-.26a6.34,6.34,0,0,0,4.46-1.59,2.39,2.39,0,0,1-2.34,0,31.69,31.69,0,0,0-5-1.23" transform="translate(-253 -33.52)"/><path class="2d109eb2-82ed-46e9-8112-8cc9aac0a8e6" d="M334.13,214.06a8.32,8.32,0,0,1,.58,2.25l.12,1.28" transform="translate(-253 -33.52)"/><path class="2d109eb2-82ed-46e9-8112-8cc9aac0a8e6" d="M330,204.08s1.51,3.38,2.81,6.61" transform="translate(-253 -33.52)"/><path class="2d109eb2-82ed-46e9-8112-8cc9aac0a8e6" d="M334.71,206.88s2.87,6,2.65,7.24v.74" transform="translate(-253 -33.52)"/><path class="2d109eb2-82ed-46e9-8112-8cc9aac0a8e6" d="M347.29,260.29c1.42,3.73,3.38,8.93,3.38,8.93" transform="translate(-253 -33.52)"/><path class="2d109eb2-82ed-46e9-8112-8cc9aac0a8e6" d="M345.21,254.48c.5,1.54.93,2.81,1.22,3.54l.25.65" transform="translate(-253 -33.52)"/><path class="2d109eb2-82ed-46e9-8112-8cc9aac0a8e6" d="M340.81,240.37s2.06,6.8,3.76,12.12" transform="translate(-253 -33.52)"/><path class="2d109eb2-82ed-46e9-8112-8cc9aac0a8e6" d="M350.63,256.84c2.5,5.79,4.9,12.38,4.9,12.38" transform="translate(-253 -33.52)"/><path class="2d109eb2-82ed-46e9-8112-8cc9aac0a8e6" d="M347,248.91a21.39,21.39,0,0,0,1.12,2.48c.35.68.73,1.43,1.11,2.25" transform="translate(-253 -33.52)"/><path class="2d109eb2-82ed-46e9-8112-8cc9aac0a8e6" d="M346.43,242.89s-.79,1.5.11,4.71" transform="translate(-253 -33.52)"/><path class="2d109eb2-82ed-46e9-8112-8cc9aac0a8e6" d="M371.88,243.77s16.3,21.11,18,25.45" transform="translate(-253 -33.52)"/><path class="2d109eb2-82ed-46e9-8112-8cc9aac0a8e6" d="M371.16,250.91s4.9,4.06,6.84,8.31c1.44,3.15,3.72,7.13,4.79,9" transform="translate(-253 -33.52)"/><ellipse class="2d109eb2-82ed-46e9-8112-8cc9aac0a8e6" cx="79.83" cy="179.16" rx="2" ry="1.97"/><ellipse class="2d109eb2-82ed-46e9-8112-8cc9aac0a8e6" cx="87.61" cy="213.79" rx="2" ry="1.97"/><ellipse class="2d109eb2-82ed-46e9-8112-8cc9aac0a8e6" cx="90.4" cy="220.55" rx="2" ry="1.97"/><ellipse class="2d109eb2-82ed-46e9-8112-8cc9aac0a8e6" cx="92.39" cy="226.54" rx="2" ry="1.97"/><ellipse class="2d109eb2-82ed-46e9-8112-8cc9aac0a8e6" cx="97.83" cy="221.27" rx="2" ry="1.97"/><ellipse class="2d109eb2-82ed-46e9-8112-8cc9aac0a8e6" cx="95.14" cy="214.43" rx="1.83" ry="1.33"/><ellipse class="2d109eb2-82ed-46e9-8112-8cc9aac0a8e6" cx="123.85" cy="228.96" rx="2.7" ry="2.42"/><ellipse class="2d109eb2-82ed-46e9-8112-8cc9aac0a8e6" cx="136.64" cy="230.91" rx="2.09" ry="2.39"/><ellipse class="2d109eb2-82ed-46e9-8112-8cc9aac0a8e6" cx="131.65" cy="235.27" rx="2.18" ry="1.16"/><ellipse class="2d109eb2-82ed-46e9-8112-8cc9aac0a8e6" cx="129.77" cy="221.34" rx="1.88" ry="2.05"/><ellipse class="decbb909-813f-4538-aa77-8b403b48b23f" cx="113.25" cy="231.75" rx="0.58" ry="0.85"/><ellipse class="decbb909-813f-4538-aa77-8b403b48b23f" cx="138.99" cy="215.1" rx="1.13" ry="0.67"/><path class="decbb909-813f-4538-aa77-8b403b48b23f" d="M366.34,250.34a80.32,80.32,0,0,1,1.32,9,11.1,11.1,0,0,1-1.41,5.1" transform="translate(-253 -33.52)"/><path class="decbb909-813f-4538-aa77-8b403b48b23f" d="M377.28,243.74s6.09,1.31,8,2.88,5.57,2,5.57,2" transform="translate(-253 -33.52)"/><path class="1d861a32-d2d6-4dad-8e91-9cf4b48c1f67" d="M391.8,204.35c-1.12-.58-2.7-2.19-3.73-6.6-1.74-7.44-4-5.65-4-5.65" transform="translate(-253 -33.52)"/><path class="1d861a32-d2d6-4dad-8e91-9cf4b48c1f67" d="M408.79,207.12a1.63,1.63,0,0,1,.7,1.86c-.35,1.26-2.89,10.8-.31,13.6" transform="translate(-253 -33.52)"/><path class="1d861a32-d2d6-4dad-8e91-9cf4b48c1f67" d="M416.1,212.64s4.28,1.25-1.48,9.71a6.8,6.8,0,0,1-2.08,2.07,9.66,9.66,0,0,0-2.35,2.4,17.45,17.45,0,0,0-2.79,5.62c-.85,2.92-2.41,7.71-3.9,9.1-.52.49-1,.56-1.5,0s-1.92-6.59-1.74-9.35-2.09-15.89-2.09-15.89A36.7,36.7,0,0,1,395.91,199c1.22-9.11-2.09-8.55-2.09-8.55" transform="translate(-253 -33.52)"/><path class="1d861a32-d2d6-4dad-8e91-9cf4b48c1f67" d="M393.82,269.21c.35-.83.87-9.39,4.18-14.42s6.38-14.42,6.38-14.42" transform="translate(-253 -33.52)"/><path class="1d861a32-d2d6-4dad-8e91-9cf4b48c1f67" d="M433,216.31c-2.71-.57-2.91-9.18-2.91-9.18" transform="translate(-253 -33.52)"/><path class="1d861a32-d2d6-4dad-8e91-9cf4b48c1f67" d="M438.41,204.67s-3.87,7.45-2.91,14.77a38.66,38.66,0,0,1,.39,6,3.07,3.07,0,0,0,3.77,3.09c2.67-.63,5.92-1.9,7.67-4.46,3.29-4.84,8.33-12.33,8.33-12.33" transform="translate(-253 -33.52)"/><path class="1d861a32-d2d6-4dad-8e91-9cf4b48c1f67" d="M419.22,269.21s6.59-10.9,7-12.72,2.71-9.44,3.87-11.16,7.56-16.21,7.56-16.21" transform="translate(-253 -33.52)"/><path class="1d861a32-d2d6-4dad-8e91-9cf4b48c1f67" d="M448.32,222.58s6.75.82,7.33-1.28" transform="translate(-253 -33.52)"/><path class="1d861a32-d2d6-4dad-8e91-9cf4b48c1f67" d="M441.12,270s22.28-15.47,23.25-15.08,7.95-14.17,7.95-14.17" transform="translate(-253 -33.52)"/><path class="1d861a32-d2d6-4dad-8e91-9cf4b48c1f67" d="M475.42,256.49a75.22,75.22,0,0,1-11-1.63" transform="translate(-253 -33.52)"/><path class="1d861a32-d2d6-4dad-8e91-9cf4b48c1f67" d="M289.15,245.34s7.72,1.06,11.1,6.77,8.48,3.34,16.19,15.53a2.55,2.55,0,0,1,.57,1.58" transform="translate(-253 -33.52)"/><path class="1d861a32-d2d6-4dad-8e91-9cf4b48c1f67" d="M289.15,254.79s6,5.08,11.1,1.7" transform="translate(-253 -33.52)"/><path class="1d861a32-d2d6-4dad-8e91-9cf4b48c1f67" d="M302.79,230.12s2.92,3,6.3,2.07" transform="translate(-253 -33.52)"/><path class="1d861a32-d2d6-4dad-8e91-9cf4b48c1f67" d="M302.79,220.55s15.31,18.93,19.47,19.82,18.55,28.43,18.55,28.43" transform="translate(-253 -33.52)"/><line class="1d861a32-d2d6-4dad-8e91-9cf4b48c1f67" x1="68.8" y1="176.97" x2="69.26" y2="182.79"/><path class="1d861a32-d2d6-4dad-8e91-9cf4b48c1f67" d="M328.3,208.25s-.9,8.06-1.68,9-1.93,2.91-4.36,2.14l.7,21.25" transform="translate(-253 -33.52)"/><path class="d2aa9cda-f155-4e8a-aff6-3d89a1dbbad6" d="M384.83,191.91s-2.49-.2-.76,3,4.71,9.17,4.53,9.71,2.71,2.45,3.81,2.46.76.67,1.41,1.86,4.65,18,4.65,20.15,1.24,14,1.65,14.61-5.51,13.11-5.65,14.35-3.55,8.88-2.67,11.12" transform="translate(-253 -33.52)"/><path class="d2aa9cda-f155-4e8a-aff6-3d89a1dbbad6" d="M394.75,190.48s-2.15-.88-1.62,1.62,0,7.6,0,7.6-.3,5-.71,4.89" transform="translate(-253 -33.52)"/><path class="2d109eb2-82ed-46e9-8112-8cc9aac0a8e6" d="M409.07,207.12s-1.32-1.24-1.84,2-2.88,10.47-.52,13.92c.66,2.13-.58,7.48-.58,7.48s-3.27,9.25-4,9.43" transform="translate(-253 -33.52)"/><path class="2d109eb2-82ed-46e9-8112-8cc9aac0a8e6" d="M416.44,212.81s-1.17-.94-1.22,1.76-3.22,9.32-5.41,8.34" transform="translate(-253 -33.52)"/><path class="2d109eb2-82ed-46e9-8112-8cc9aac0a8e6" d="M438.27,204.43s-.06-2.08-2-.51-2.87,12.29-2.87,12.29" transform="translate(-253 -33.52)"/><path class="2d109eb2-82ed-46e9-8112-8cc9aac0a8e6" d="M430.08,206.81s-.73-1.63-1.47.32-.14,10.66,3.54,11.37c1,.62,1.37,8.83,2.33,10.1s-11.09,24-10.59,26.72S415.16,270,415.16,270" transform="translate(-253 -33.52)"/><path class="2d109eb2-82ed-46e9-8112-8cc9aac0a8e6" d="M455.65,211.4s.49-1.55-1-1.12-8.06,10.91-8.23,11.07-7.32,8.15-9.08,6.28" transform="translate(-253 -33.52)"/><path class="2d109eb2-82ed-46e9-8112-8cc9aac0a8e6" d="M455.73,220.83s.9-1-.91-1-4.46,2.54-4.86,1" transform="translate(-253 -33.52)"/><path class="2d109eb2-82ed-46e9-8112-8cc9aac0a8e6" d="M472.32,240.25s-.51-2.39-2.42-.33-4.43,11.27-6,12.27-25.92,17-25.92,17" transform="translate(-253 -33.52)"/><path class="2d109eb2-82ed-46e9-8112-8cc9aac0a8e6" d="M475.81,256.49s1.13-1.06,0-1.63-8.86-1-9.22-1.69" transform="translate(-253 -33.52)"/><path class="2d109eb2-82ed-46e9-8112-8cc9aac0a8e6" d="M328.3,207.88s-.34-1.6-1.63-.44-.3,4.63-1,6.38-2.09,4-3.16,3" transform="translate(-253 -33.52)"/><path class="2d109eb2-82ed-46e9-8112-8cc9aac0a8e6" d="M321.8,210s-1.11-1.94-2.06,0,2.31,23.28.55,28.67" transform="translate(-253 -33.52)"/><path class="2d109eb2-82ed-46e9-8112-8cc9aac0a8e6" d="M302.5,220.24s-2.23-.37-1.44,1.67,8,9.71,8,9.71" transform="translate(-253 -33.52)"/><path class="2d109eb2-82ed-46e9-8112-8cc9aac0a8e6" d="M302.39,229.81a1.42,1.42,0,0,0-1.12,2.23c1,1.91,7.18,3.19,8.78,2.39s9.15,8.62,11,8.67,14.55,19.68,17.08,26.11" transform="translate(-253 -33.52)"/><path class="2d109eb2-82ed-46e9-8112-8cc9aac0a8e6" d="M288.71,245.34s-1.77.7-.33,2,5-.41,11.87,8.48" transform="translate(-253 -33.52)"/><path class="2d109eb2-82ed-46e9-8112-8cc9aac0a8e6" d="M288.92,254.51s-2.63.49-.82,2.59,11.14,4.48,14.44,2.14,11.64,9.3,11.64,9.3l.24.67" transform="translate(-253 -33.52)"/><line class="decbb909-813f-4538-aa77-8b403b48b23f" x1="81.83" y1="175.46" x2="83.04" y2="175.46"/><line class="decbb909-813f-4538-aa77-8b403b48b23f" x1="79.47" y1="182.79" x2="81.83" y2="181.33"/><line class="decbb909-813f-4538-aa77-8b403b48b23f" x1="86.77" y1="207.17" x2="88.4" y2="208.02"/><line class="decbb909-813f-4538-aa77-8b403b48b23f" x1="89.28" y1="211.81" x2="90.74" y2="211.81"/><line class="decbb909-813f-4538-aa77-8b403b48b23f" x1="91.81" y1="214.43" x2="93.31" y2="214.43"/><line class="decbb909-813f-4538-aa77-8b403b48b23f" x1="92.48" y1="223.86" x2="94.26" y2="223.39"/><line class="decbb909-813f-4538-aa77-8b403b48b23f" x1="96.44" y1="226.54" x2="98.51" y2="225.38"/><line class="decbb909-813f-4538-aa77-8b403b48b23f" x1="94.26" y1="228.96" x2="96.44" y2="228.96"/><line class="decbb909-813f-4538-aa77-8b403b48b23f" x1="98.51" y1="229.84" x2="100.99" y2="228.96"/><line class="decbb909-813f-4538-aa77-8b403b48b23f" x1="95.09" y1="232.6" x2="97.48" y2="232.6"/><line class="decbb909-813f-4538-aa77-8b403b48b23f" x1="100.63" y1="233.29" x2="102.3" y2="233.29"/><polyline class="decbb909-813f-4538-aa77-8b403b48b23f" points="93.11 217.39 91.81 217.39 90.39 217.39"/><line class="decbb909-813f-4538-aa77-8b403b48b23f" x1="119.98" y1="216.82" x2="118.88" y2="218.02"/><line class="decbb909-813f-4538-aa77-8b403b48b23f" x1="122.28" y1="220.55" x2="121.15" y2="222.53"/><line class="decbb909-813f-4538-aa77-8b403b48b23f" x1="122.45" y1="217.39" x2="125.01" y2="216.82"/><line class="decbb909-813f-4538-aa77-8b403b48b23f" x1="125.89" y1="224.57" x2="122.45" y2="225.38"/><line class="decbb909-813f-4538-aa77-8b403b48b23f" x1="129.48" y1="230.91" x2="127.21" y2="232.6"/><line class="decbb909-813f-4538-aa77-8b403b48b23f" x1="131.65" y1="229.84" x2="134.55" y2="228.96"/><line class="decbb909-813f-4538-aa77-8b403b48b23f" x1="129.77" y1="226.76" x2="131.65" y2="225.96"/><path class="956fcc3a-d87c-4c8e-be05-67c5f4dcb4f3" d="M411.1,53l-2-1.05c-10.84-4.2-11.4,0-11.4,0s-15.71,27.33-5.86,33c0,0,1.18,1.31.91,1.5s-1.65-2.47-5.77,3.39-5.86,1-8.79,5.77c0,0,5,.92,7.05-.46s2.2-2.84,6-2.66,6.84-1.37,6.54-1.74l-.5-1c15,9.07,28.05-15.78,30.93-19.43s-3-8.08-3-8.08l-.59-.35" transform="translate(-253 -33.52)"/><path class="956fcc3a-d87c-4c8e-be05-67c5f4dcb4f3" d="M410.4,59.49c.71-3,2.6-2.85,3.68-2.49a1.27,1.27,0,0,1,.87,1.12c.24,3.81-4.87,1.55-4.87,1.55s-1.88.89-2.77-3.43,3.43-2.88,3.43-2.88,1.77-3.11,6.31,3.37c0,0,3.87-2,5.2-1.82s5.2,2.88,6,2.88a35.76,35.76,0,0,1,4.87,0c.66.22-.55-1.66,9.85-.44s9.08-2.43,13.61.22-2,3-5,2.32-17.6-.22-17.6-.22.26,2.21-5,.22-7,2.32-9.2,2.32-4.89.58-5.13-2.22a2.92,2.92,0,0,0,2-3.31" transform="translate(-253 -33.52)"/><path class="decbb909-813f-4538-aa77-8b403b48b23f" d="M419.56,55.56S422.14,39.18,427,37a4.71,4.71,0,0,1,4.56.43s7.07,1.79-5.7,19.21" transform="translate(-253 -33.52)"/><path class="decbb909-813f-4538-aa77-8b403b48b23f" d="M431.06,36.63s2.06-5,5.92-1.14,3.6,3.86,0,7.81l-.6.7" transform="translate(-253 -33.52)"/><path class="decbb909-813f-4538-aa77-8b403b48b23f" d="M432,46.65s3.5-4.56,5.13-1.73,3.92,4.73-2.56,9.7c-2.42,1.86-3.69,2.76-4.34,3.16" transform="translate(-253 -33.52)"/><path class="decbb909-813f-4538-aa77-8b403b48b23f" d="M438.91,49.64s7.68-4.38,3.73-8c-1.89-1.8-3.31-1.12-3.31-1.12" transform="translate(-253 -33.52)"/><path class="956fcc3a-d87c-4c8e-be05-67c5f4dcb4f3" d="M385.87,91.15s-5.81-2.86-16.14.83c0,0,9.66-.15,10.72.5l1.06.65" transform="translate(-253 -33.52)"/><path class="decbb909-813f-4538-aa77-8b403b48b23f" d="M400.58,91.61s-1,3.05,0,3.82-2.62,0-2.9-2.95c-.17-1.78-1.28,16.9-1.28,15.16s-3-10.17-3.66-10.26S389,104,389,104s.63-.92,0-3.11c-1.74-6,.61-8.38.61-8.38" transform="translate(-253 -33.52)"/><path class="2d109eb2-82ed-46e9-8112-8cc9aac0a8e6" d="M383.41,102.25c2-3.06,3.84-5.39,4.92-5.78" transform="translate(-253 -33.52)"/><path class="2d109eb2-82ed-46e9-8112-8cc9aac0a8e6" d="M380.16,107.49c.49-.82,1-1.64,1.48-2.44" transform="translate(-253 -33.52)"/><path class="2d109eb2-82ed-46e9-8112-8cc9aac0a8e6" d="M374.45,117.62c1.12-2.08,2.84-5.21,4.71-8.43" transform="translate(-253 -33.52)"/><path class="2d109eb2-82ed-46e9-8112-8cc9aac0a8e6" d="M388.83,100.34s-20.23,31.2-19.09,35.39" transform="translate(-253 -33.52)"/><path class="2d109eb2-82ed-46e9-8112-8cc9aac0a8e6" d="M371.91,122.57s-4.23,7.46-4.43,8.41" transform="translate(-253 -33.52)"/><path class="d2aa9cda-f155-4e8a-aff6-3d89a1dbbad6" d="M367.48,139s-8.31,16.51-7.81,23.88" transform="translate(-253 -33.52)"/><path class="d2aa9cda-f155-4e8a-aff6-3d89a1dbbad6" d="M364.55,139.57s-8.29,17-8,22.34" transform="translate(-253 -33.52)"/><line class="2d109eb2-82ed-46e9-8112-8cc9aac0a8e6" x1="129.35" y1="66.82" x2="132.87" y2="67.95"/><line class="2d109eb2-82ed-46e9-8112-8cc9aac0a8e6" x1="131.07" y1="73.15" x2="132.87" y2="74.78"/><line class="2d109eb2-82ed-46e9-8112-8cc9aac0a8e6" x1="126.26" y1="79.28" x2="127.72" y2="79.9"/><line class="2d109eb2-82ed-46e9-8112-8cc9aac0a8e6" x1="122.28" y1="79.59" x2="123.91" y2="79.91"/><line class="2d109eb2-82ed-46e9-8112-8cc9aac0a8e6" x1="123.91" y1="82.27" x2="126.26" y2="83.52"/><line class="2d109eb2-82ed-46e9-8112-8cc9aac0a8e6" x1="123.1" y1="84.51" x2="125.16" y2="86.03"/><line class="2d109eb2-82ed-46e9-8112-8cc9aac0a8e6" x1="118.88" y1="91.7" x2="120.37" y2="92.69"/><line class="2d109eb2-82ed-46e9-8112-8cc9aac0a8e6" x1="121.87" y1="89.9" x2="123.91" y2="89.9"/><line class="2d109eb2-82ed-46e9-8112-8cc9aac0a8e6" x1="115.05" y1="91.7" x2="117.15" y2="92.19"/><line class="2d109eb2-82ed-46e9-8112-8cc9aac0a8e6" x1="117.33" y1="94.96" x2="118.67" y2="96.08"/><line class="2d109eb2-82ed-46e9-8112-8cc9aac0a8e6" x1="107.53" y1="120" x2="109.87" y2="120.61"/><line class="2d109eb2-82ed-46e9-8112-8cc9aac0a8e6" x1="106.55" y1="112.75" x2="108.16" y2="113.51"/><line class="2d109eb2-82ed-46e9-8112-8cc9aac0a8e6" x1="108.16" y1="109.53" x2="110.77" y2="109.53"/><line class="2d109eb2-82ed-46e9-8112-8cc9aac0a8e6" x1="109.46" y1="114.72" x2="110.77" y2="115.79"/><line class="2d109eb2-82ed-46e9-8112-8cc9aac0a8e6" x1="103.85" y1="120" x2="105.9" y2="121.65"/><line class="2d109eb2-82ed-46e9-8112-8cc9aac0a8e6" x1="105.9" y1="123.99" x2="108.16" y2="125.06"/><line class="2d109eb2-82ed-46e9-8112-8cc9aac0a8e6" x1="106.55" y1="126.32" x2="108.16" y2="126.92"/><ellipse class="2d109eb2-82ed-46e9-8112-8cc9aac0a8e6" cx="129.82" cy="70.51" rx="1.69" ry="1.78"/><ellipse class="2d109eb2-82ed-46e9-8112-8cc9aac0a8e6" cx="125.04" cy="74.26" rx="1.95" ry="1.96"/><ellipse class="2d109eb2-82ed-46e9-8112-8cc9aac0a8e6" cx="130.18" cy="78.36" rx="1.33" ry="1.54"/><ellipse class="2d109eb2-82ed-46e9-8112-8cc9aac0a8e6" cx="134.94" cy="72.63" rx="1.78" ry="1.63"/><ellipse class="2d109eb2-82ed-46e9-8112-8cc9aac0a8e6" cx="119.93" cy="85.04" rx="1.93" ry="1.52"/><ellipse class="2d109eb2-82ed-46e9-8112-8cc9aac0a8e6" cx="122.4" cy="93.33" rx="1.51" ry="1.63"/><ellipse class="2d109eb2-82ed-46e9-8112-8cc9aac0a8e6" cx="119.75" cy="98.94" rx="1.71" ry="1.48"/><ellipse class="2d109eb2-82ed-46e9-8112-8cc9aac0a8e6" cx="104.69" cy="115.94" rx="1.7" ry="1.88"/><ellipse class="2d109eb2-82ed-46e9-8112-8cc9aac0a8e6" cx="111.09" cy="117.27" rx="1.22" ry="1.27"/><ellipse class="2d109eb2-82ed-46e9-8112-8cc9aac0a8e6" cx="113.08" cy="113.14" rx="1.39" ry="1.58"/><ellipse class="2d109eb2-82ed-46e9-8112-8cc9aac0a8e6" cx="109.63" cy="124.87" rx="1.47" ry="1.75"/><path class="2d109eb2-82ed-46e9-8112-8cc9aac0a8e6" d="M397.3,52.61s1,8.33,10.83,12.27,9,4.93,13.38,5.91a36.08,36.08,0,0,0,5.67,1" transform="translate(-253 -33.52)"/><path class="2d109eb2-82ed-46e9-8112-8cc9aac0a8e6" d="M393.79,92.31s.28,3.27-1.06,5.07" transform="translate(-253 -33.52)"/><path class="2d109eb2-82ed-46e9-8112-8cc9aac0a8e6" d="M391.26,92.44a28.89,28.89,0,0,1-.75,5.39" transform="translate(-253 -33.52)"/><path class="2d109eb2-82ed-46e9-8112-8cc9aac0a8e6" d="M379.26,95.13s6.48-1.26,8.68-3.52,5.87-2.26,5.87-2.26" transform="translate(-253 -33.52)"/><path class="2d109eb2-82ed-46e9-8112-8cc9aac0a8e6" d="M394.93,80.06s-.68,5.23.52,7.67" transform="translate(-253 -33.52)"/><path class="2d109eb2-82ed-46e9-8112-8cc9aac0a8e6" d="M398.62,84.63s-3.32,2.51-3.17,3.1a1.4,1.4,0,0,0,1.58.81c.7-.07,6.23-3.17,6.56-3.24s.63,1.25,0,1.77-2.1,1.49-2.1,1.49" transform="translate(-253 -33.52)"/><path class="3216d401-6976-4596-b693-5573957ae317" d="M397.3,89.72a9.81,9.81,0,0,1-1.19-1.17" transform="translate(-253 -33.52)"/><path class="2d109eb2-82ed-46e9-8112-8cc9aac0a8e6" d="M407.2,58.07s-2.84-.53-2.84.76a2.21,2.21,0,0,0,1.8,2.06c.71.19,3.61.32,2.83-.9" transform="translate(-253 -33.52)"/><path class="2d109eb2-82ed-46e9-8112-8cc9aac0a8e6" d="M406.74,54.31s-2.77-1.22-4.06,0,3.72,2.8,4.63,1.92" transform="translate(-253 -33.52)"/><path class="2d109eb2-82ed-46e9-8112-8cc9aac0a8e6" d="M413.57,62.82s-5.28-.06-.39,2.19S415.74,62.51,413.57,62.82Z" transform="translate(-253 -33.52)"/><path class="2d109eb2-82ed-46e9-8112-8cc9aac0a8e6" d="M422.08,65.33s-3.8-.58-2.19,2,5.28.84,4.7-.26A3.65,3.65,0,0,0,422.08,65.33Z" transform="translate(-253 -33.52)"/><line class="25d7ada9-1762-4078-975f-1467d047b3e0" x1="178.06" y1="4.23" x2="169.59" y2="21.47"/><polyline class="25d7ada9-1762-4078-975f-1467d047b3e0" points="172.37 5.49 175.2 9.06 175.38 9.28"/><polyline class="25d7ada9-1762-4078-975f-1467d047b3e0" points="170.43 9.06 173.08 13.13 173.37 13.77"/><polyline class="25d7ada9-1762-4078-975f-1467d047b3e0" points="168.59 13.13 170.43 17.89 170.78 19.04"/><line class="25d7ada9-1762-4078-975f-1467d047b3e0" x1="180.1" y1="8.68" x2="175.2" y2="10.47"/><line class="25d7ada9-1762-4078-975f-1467d047b3e0" x1="178.75" y1="13.13" x2="172.82" y2="15.51"/><line class="25d7ada9-1762-4078-975f-1467d047b3e0" x1="176.69" y1="17.51" x2="170.54" y2="19.53"/><line class="25d7ada9-1762-4078-975f-1467d047b3e0" x1="184.29" y1="3.11" x2="180.94" y2="6.89"/><line class="25d7ada9-1762-4078-975f-1467d047b3e0" x1="185.39" y1="8.21" x2="180.94" y2="9.07"/><line class="25d7ada9-1762-4078-975f-1467d047b3e0" x1="179.26" y1="2.04" x2="179.26" y2="4.23"/><line class="25d7ada9-1762-4078-975f-1467d047b3e0" x1="184.67" y1="12.85" x2="175.2" y2="23.91"/><polyline class="25d7ada9-1762-4078-975f-1467d047b3e0" points="179.66 12.85 180.1 17.51 180.1 17.83"/><polyline class="25d7ada9-1762-4078-975f-1467d047b3e0" points="177.03 16.95 177.03 21.11 177.03 21.47"/><line class="25d7ada9-1762-4078-975f-1467d047b3e0" x1="181.53" y1="16.52" x2="185.39" y2="16.12"/><line class="25d7ada9-1762-4078-975f-1467d047b3e0" x1="178.58" y1="19.97" x2="183.17" y2="19.8"/><line class="25d7ada9-1762-4078-975f-1467d047b3e0" x1="189.65" y1="8.14" x2="185.39" y2="13.13"/><polyline class="25d7ada9-1762-4078-975f-1467d047b3e0" points="185.39 9.06 185.91 12.03 185.94 12.21"/><line class="25d7ada9-1762-4078-975f-1467d047b3e0" x1="187.13" y1="11.1" x2="190.22" y2="11.1"/><path class="25d7ada9-1762-4078-975f-1467d047b3e0" d="M433.1,57.78a2.63,2.63,0,0,1,.88,1.88" transform="translate(-253 -33.52)"/><path class="25d7ada9-1762-4078-975f-1467d047b3e0" d="M436.46,56.67s1.36.4,0,2.81" transform="translate(-253 -33.52)"/><path class="25d7ada9-1762-4078-975f-1467d047b3e0" d="M440.12,57.06s.64.74,0,2.43" transform="translate(-253 -33.52)"/><path class="25d7ada9-1762-4078-975f-1467d047b3e0" d="M442.95,57.34s1,.36.26,2.15" transform="translate(-253 -33.52)"/><line class="25d7ada9-1762-4078-975f-1467d047b3e0" x1="194" y1="24.44" x2="194" y2="25.96"/><path class="25d7ada9-1762-4078-975f-1467d047b3e0" d="M450.55,57.43s.73,1.39,0,2.3" transform="translate(-253 -33.52)"/><path class="25d7ada9-1762-4078-975f-1467d047b3e0" d="M453.68,56.67s1.36,1.94,0,3.48" transform="translate(-253 -33.52)"/><path class="25d7ada9-1762-4078-975f-1467d047b3e0" d="M456.56,57.56s.7,1.79,0,2.18" transform="translate(-253 -33.52)"/><path class="decbb909-813f-4538-aa77-8b403b48b23f" d="M407.58,56.11s3.71-.12,3.17-2.75" transform="translate(-253 -33.52)"/><polyline class="decbb909-813f-4538-aa77-8b403b48b23f" points="169.07 28.01 169.51 31.24 168.59 33.45"/><polyline class="decbb909-813f-4538-aa77-8b403b48b23f" points="170.97 26.79 172.13 30.73 170.97 32.1"/></g></g><line class="decbb909-813f-4538-aa77-8b403b48b23f" x1="139.73" y1="52.87" x2="142.45" y2="54.2"/></svg>