<svg xmlns="http://www.w3.org/2000/svg" viewBox="0 0 194.88 170.64"><defs><style>.cls-1{fill:#84ad4f;}.cls-2{fill:#e87b5a;}.cls-3{fill:#3c4a53;}.cls-4{fill:#eec97b;}</style></defs><title>feedback_bg</title><g id="Layer_2" data-name="Layer 2"><g id="组_3" data-name="组 3"><g id="椭圆_1" data-name="椭圆 1"><path class="cls-1" d="M27.36,1a26.36,26.36,0,0,1,18.7,44.95A26.36,26.36,0,1,1,8.66,8.78,26.18,26.18,0,0,1,27.36,1m0-1A27.36,27.36,0,1,0,46.64,8,27.27,27.27,0,0,0,27.36,0Z"/></g><g id="椭圆_2" data-name="椭圆 2"><path class="cls-2" d="M64.58,8.79a14,14,0,1,1-9.93,4.13,13.91,13.91,0,0,1,9.93-4.13m0-1a15,15,0,1,0,10.57,4.36A15,15,0,0,0,64.58,7.79Z"/></g><g id="椭圆_3" data-name="椭圆 3"><path class="cls-3" d="M26.88,73A7.88,7.88,0,1,1,19,80.88,7.89,7.89,0,0,1,26.88,73m0-1a8.88,8.88,0,1,0,8.88,8.88A8.88,8.88,0,0,0,26.88,72Z"/></g><g id="椭圆_4" data-name="椭圆 4"><path class="cls-4" d="M168,117.88a25.88,25.88,0,1,1-25.88,25.88A25.91,25.91,0,0,1,168,117.88m0-1a26.88,26.88,0,1,0,26.88,26.88A26.88,26.88,0,0,0,168,116.88Z"/></g><g id="椭圆_5" data-name="椭圆 5"><path class="cls-3" d="M179.16,109.72a11.36,11.36,0,1,1-11.36,11.36,11.37,11.37,0,0,1,11.36-11.36m0-1a12.36,12.36,0,1,0,12.36,12.36,12.36,12.36,0,0,0-12.36-12.36Z"/></g><g id="椭圆_6" data-name="椭圆 6"><path class="cls-2" d="M39.48,123.64A10.88,10.88,0,1,1,28.6,134.52a10.89,10.89,0,0,1,10.88-10.88m0-1a11.88,11.88,0,1,0,11.88,11.88,11.88,11.88,0,0,0-11.88-11.88Z"/></g><g id="椭圆_7" data-name="椭圆 7"><path class="cls-4" d="M165.6,33.88a6.68,6.68,0,1,1-6.68,6.68,6.69,6.69,0,0,1,6.68-6.68m0-1a7.68,7.68,0,1,0,7.68,7.68,7.68,7.68,0,0,0-7.68-7.68Z"/></g><g id="椭圆_8" data-name="椭圆 8"><path class="cls-1" d="M140,146.2a4.4,4.4,0,1,1-4.4,4.4,4.41,4.41,0,0,1,4.4-4.4m0-1a5.4,5.4,0,1,0,5.4,5.4,5.4,5.4,0,0,0-5.4-5.4Z"/></g></g></g></svg>